<?xml version="1.0" encoding="utf-8" standalone="no"?>
<!DOCTYPE svg PUBLIC "-//W3C//DTD SVG 1.1//EN"
  "http://www.w3.org/Graphics/SVG/1.1/DTD/svg11.dtd">
<!-- Created with matplotlib (http://matplotlib.org/) -->
<svg height="334pt" version="1.1" viewBox="0 0 397 334" width="397pt" xmlns="http://www.w3.org/2000/svg" xmlns:xlink="http://www.w3.org/1999/xlink">
 <defs>
  <style type="text/css">
*{stroke-linecap:butt;stroke-linejoin:round;}
  </style>
 </defs>
 <g id="figure_1">
  <g id="patch_1">
   <path d="M 0 334.97575 
L 397.29 334.97575 
L 397.29 0 
L 0 0 
z
" style="fill:#ffffff;"/>
  </g>
  <g id="axes_1">
   <g id="patch_2">
    <path d="M 29.47 297.54825 
L 386.59 297.54825 
L 386.59 31.43625 
L 29.47 31.43625 
z
" style="fill:#ffffff;"/>
   </g>
   <g id="line2d_1">
    <path clip-path="url(#p41cdd31f5d)" d="M 41.159282 202.693263 
L 86.143838 199.42519 
L 142.817676 197.004028 
L 219.719282 195.431939 
L 296.620888 194.695905 
L 373.522494 194.33094 
" style="fill:none;stroke:#f5deb3;stroke-linecap:square;stroke-width:10;"/>
    <defs>
     <path d="M -0 17.67767 
L 10.606602 0 
L 0 -17.67767 
L -10.606602 -0 
z
" id="mf9e42d7cb4" style="stroke:#000000;stroke-linejoin:miter;"/>
    </defs>
    <g clip-path="url(#p41cdd31f5d)">
     <use style="fill:#f5deb3;stroke:#000000;stroke-linejoin:miter;" x="41.159282" xlink:href="#mf9e42d7cb4" y="202.693263"/>
     <use style="fill:#f5deb3;stroke:#000000;stroke-linejoin:miter;" x="86.143838" xlink:href="#mf9e42d7cb4" y="199.42519"/>
     <use style="fill:#f5deb3;stroke:#000000;stroke-linejoin:miter;" x="142.817676" xlink:href="#mf9e42d7cb4" y="197.004028"/>
     <use style="fill:#f5deb3;stroke:#000000;stroke-linejoin:miter;" x="219.719282" xlink:href="#mf9e42d7cb4" y="195.431939"/>
     <use style="fill:#f5deb3;stroke:#000000;stroke-linejoin:miter;" x="296.620888" xlink:href="#mf9e42d7cb4" y="194.695905"/>
     <use style="fill:#f5deb3;stroke:#000000;stroke-linejoin:miter;" x="373.522494" xlink:href="#mf9e42d7cb4" y="194.33094"/>
    </g>
   </g>
   <g id="line2d_2">
    <defs>
     <path d="M -15 0 
L 15 0 
M 0 15 
L 0 -15 
" id="mc05eac5f83" style="stroke:#bf00bf;stroke-width:5;"/>
    </defs>
    <g clip-path="url(#p41cdd31f5d)">
     <use style="fill:#bf00bf;stroke:#bf00bf;stroke-width:5;" x="41.159282" xlink:href="#mc05eac5f83" y="109.996699"/>
    </g>
   </g>
   <g id="line2d_3">
    <g clip-path="url(#p41cdd31f5d)">
     <use style="fill:#bf00bf;stroke:#bf00bf;stroke-width:5;" x="86.143838" xlink:href="#mc05eac5f83" y="111.538315"/>
    </g>
   </g>
   <g id="line2d_4">
    <defs>
     <path d="M -15 0 
L 15 0 
M 0 15 
L 0 -15 
" id="med7cdededd" style="stroke:#bfbf00;stroke-width:5;"/>
    </defs>
    <g clip-path="url(#p41cdd31f5d)">
     <use style="fill:#bfbf00;stroke:#bfbf00;stroke-width:5;" x="296.620888" xlink:href="#med7cdededd" y="107.671843"/>
    </g>
   </g>
   <g id="line2d_5">
    <g clip-path="url(#p41cdd31f5d)">
     <use style="fill:#bf00bf;stroke:#bf00bf;stroke-width:5;" x="142.817676" xlink:href="#mc05eac5f83" y="110.382186"/>
    </g>
   </g>
   <g id="matplotlib.axis_1">
    <g id="xtick_1">
     <g id="line2d_6">
      <defs>
       <path d="M 0 0 
L 0 3.5 
" id="mdecce1e51a" style="stroke:#000000;stroke-width:0.8;"/>
      </defs>
      <g>
       <use style="stroke:#000000;stroke-width:0.8;" x="41.159282" xlink:href="#mdecce1e51a" y="297.54825"/>
      </g>
     </g>
     <g id="text_1">
      <!-- 2 -->
      <defs>
       <path d="M 19.1875 8.296875 
L 53.609375 8.296875 
L 53.609375 0 
L 7.328125 0 
L 7.328125 8.296875 
Q 12.9375 14.109375 22.625 23.890625 
Q 32.328125 33.6875 34.8125 36.53125 
Q 39.546875 41.84375 41.421875 45.53125 
Q 43.3125 49.21875 43.3125 52.78125 
Q 43.3125 58.59375 39.234375 62.25 
Q 35.15625 65.921875 28.609375 65.921875 
Q 23.96875 65.921875 18.8125 64.3125 
Q 13.671875 62.703125 7.8125 59.421875 
L 7.8125 69.390625 
Q 13.765625 71.78125 18.9375 73 
Q 24.125 74.21875 28.421875 74.21875 
Q 39.75 74.21875 46.484375 68.546875 
Q 53.21875 62.890625 53.21875 53.421875 
Q 53.21875 48.921875 51.53125 44.890625 
Q 49.859375 40.875 45.40625 35.40625 
Q 44.1875 33.984375 37.640625 27.21875 
Q 31.109375 20.453125 19.1875 8.296875 
z
" id="DejaVuSans-32"/>
      </defs>
      <g transform="translate(33.524282 322.7845)scale(0.24 -0.24)">
       <use xlink:href="#DejaVuSans-32"/>
      </g>
     </g>
    </g>
    <g id="xtick_2">
     <g id="line2d_7">
      <g>
       <use style="stroke:#000000;stroke-width:0.8;" x="86.143838" xlink:href="#mdecce1e51a" y="297.54825"/>
      </g>
     </g>
     <g id="text_2">
      <!-- 3 -->
      <defs>
       <path d="M 40.578125 39.3125 
Q 47.65625 37.796875 51.625 33 
Q 55.609375 28.21875 55.609375 21.1875 
Q 55.609375 10.40625 48.1875 4.484375 
Q 40.765625 -1.421875 27.09375 -1.421875 
Q 22.515625 -1.421875 17.65625 -0.515625 
Q 12.796875 0.390625 7.625 2.203125 
L 7.625 11.71875 
Q 11.71875 9.328125 16.59375 8.109375 
Q 21.484375 6.890625 26.8125 6.890625 
Q 36.078125 6.890625 40.9375 10.546875 
Q 45.796875 14.203125 45.796875 21.1875 
Q 45.796875 27.640625 41.28125 31.265625 
Q 36.765625 34.90625 28.71875 34.90625 
L 20.21875 34.90625 
L 20.21875 43.015625 
L 29.109375 43.015625 
Q 36.375 43.015625 40.234375 45.921875 
Q 44.09375 48.828125 44.09375 54.296875 
Q 44.09375 59.90625 40.109375 62.90625 
Q 36.140625 65.921875 28.71875 65.921875 
Q 24.65625 65.921875 20.015625 65.03125 
Q 15.375 64.15625 9.8125 62.3125 
L 9.8125 71.09375 
Q 15.4375 72.65625 20.34375 73.4375 
Q 25.25 74.21875 29.59375 74.21875 
Q 40.828125 74.21875 47.359375 69.109375 
Q 53.90625 64.015625 53.90625 55.328125 
Q 53.90625 49.265625 50.4375 45.09375 
Q 46.96875 40.921875 40.578125 39.3125 
z
" id="DejaVuSans-33"/>
      </defs>
      <g transform="translate(78.508838 322.7845)scale(0.24 -0.24)">
       <use xlink:href="#DejaVuSans-33"/>
      </g>
     </g>
    </g>
    <g id="xtick_3">
     <g id="line2d_8">
      <g>
       <use style="stroke:#000000;stroke-width:0.8;" x="142.817676" xlink:href="#mdecce1e51a" y="297.54825"/>
      </g>
     </g>
     <g id="text_3">
      <!-- 5 -->
      <defs>
       <path d="M 10.796875 72.90625 
L 49.515625 72.90625 
L 49.515625 64.59375 
L 19.828125 64.59375 
L 19.828125 46.734375 
Q 21.96875 47.46875 24.109375 47.828125 
Q 26.265625 48.1875 28.421875 48.1875 
Q 40.625 48.1875 47.75 41.5 
Q 54.890625 34.8125 54.890625 23.390625 
Q 54.890625 11.625 47.5625 5.09375 
Q 40.234375 -1.421875 26.90625 -1.421875 
Q 22.3125 -1.421875 17.546875 -0.640625 
Q 12.796875 0.140625 7.71875 1.703125 
L 7.71875 11.625 
Q 12.109375 9.234375 16.796875 8.0625 
Q 21.484375 6.890625 26.703125 6.890625 
Q 35.15625 6.890625 40.078125 11.328125 
Q 45.015625 15.765625 45.015625 23.390625 
Q 45.015625 31 40.078125 35.4375 
Q 35.15625 39.890625 26.703125 39.890625 
Q 22.75 39.890625 18.8125 39.015625 
Q 14.890625 38.140625 10.796875 36.28125 
z
" id="DejaVuSans-35"/>
      </defs>
      <g transform="translate(135.182676 322.7845)scale(0.24 -0.24)">
       <use xlink:href="#DejaVuSans-35"/>
      </g>
     </g>
    </g>
    <g id="xtick_4">
     <g id="line2d_9">
      <g>
       <use style="stroke:#000000;stroke-width:0.8;" x="219.719282" xlink:href="#mdecce1e51a" y="297.54825"/>
      </g>
     </g>
     <g id="text_4">
      <!-- 10 -->
      <defs>
       <path d="M 12.40625 8.296875 
L 28.515625 8.296875 
L 28.515625 63.921875 
L 10.984375 60.40625 
L 10.984375 69.390625 
L 28.421875 72.90625 
L 38.28125 72.90625 
L 38.28125 8.296875 
L 54.390625 8.296875 
L 54.390625 0 
L 12.40625 0 
z
" id="DejaVuSans-31"/>
       <path d="M 31.78125 66.40625 
Q 24.171875 66.40625 20.328125 58.90625 
Q 16.5 51.421875 16.5 36.375 
Q 16.5 21.390625 20.328125 13.890625 
Q 24.171875 6.390625 31.78125 6.390625 
Q 39.453125 6.390625 43.28125 13.890625 
Q 47.125 21.390625 47.125 36.375 
Q 47.125 51.421875 43.28125 58.90625 
Q 39.453125 66.40625 31.78125 66.40625 
z
M 31.78125 74.21875 
Q 44.046875 74.21875 50.515625 64.515625 
Q 56.984375 54.828125 56.984375 36.375 
Q 56.984375 17.96875 50.515625 8.265625 
Q 44.046875 -1.421875 31.78125 -1.421875 
Q 19.53125 -1.421875 13.0625 8.265625 
Q 6.59375 17.96875 6.59375 36.375 
Q 6.59375 54.828125 13.0625 64.515625 
Q 19.53125 74.21875 31.78125 74.21875 
z
" id="DejaVuSans-30"/>
      </defs>
      <g transform="translate(204.449282 322.7845)scale(0.24 -0.24)">
       <use xlink:href="#DejaVuSans-31"/>
       <use x="63.623047" xlink:href="#DejaVuSans-30"/>
      </g>
     </g>
    </g>
    <g id="xtick_5">
     <g id="line2d_10">
      <g>
       <use style="stroke:#000000;stroke-width:0.8;" x="296.620888" xlink:href="#mdecce1e51a" y="297.54825"/>
      </g>
     </g>
     <g id="text_5">
      <!-- 20 -->
      <g transform="translate(281.350888 322.7845)scale(0.24 -0.24)">
       <use xlink:href="#DejaVuSans-32"/>
       <use x="63.623047" xlink:href="#DejaVuSans-30"/>
      </g>
     </g>
    </g>
    <g id="xtick_6">
     <g id="line2d_11">
      <g>
       <use style="stroke:#000000;stroke-width:0.8;" x="373.522494" xlink:href="#mdecce1e51a" y="297.54825"/>
      </g>
     </g>
     <g id="text_6">
      <!-- 40 -->
      <defs>
       <path d="M 37.796875 64.3125 
L 12.890625 25.390625 
L 37.796875 25.390625 
z
M 35.203125 72.90625 
L 47.609375 72.90625 
L 47.609375 25.390625 
L 58.015625 25.390625 
L 58.015625 17.1875 
L 47.609375 17.1875 
L 47.609375 0 
L 37.796875 0 
L 37.796875 17.1875 
L 4.890625 17.1875 
L 4.890625 26.703125 
z
" id="DejaVuSans-34"/>
      </defs>
      <g transform="translate(358.252494 322.7845)scale(0.24 -0.24)">
       <use xlink:href="#DejaVuSans-34"/>
       <use x="63.623047" xlink:href="#DejaVuSans-30"/>
      </g>
     </g>
    </g>
    <g id="xtick_7">
     <g id="line2d_12">
      <defs>
       <path d="M 0 0 
L 0 2 
" id="m099539ea8f" style="stroke:#000000;stroke-width:0.6;"/>
      </defs>
      <g>
       <use style="stroke:#000000;stroke-width:0.6;" x="41.159282" xlink:href="#m099539ea8f" y="297.54825"/>
      </g>
     </g>
    </g>
    <g id="xtick_8">
     <g id="line2d_13">
      <g>
       <use style="stroke:#000000;stroke-width:0.6;" x="86.143838" xlink:href="#m099539ea8f" y="297.54825"/>
      </g>
     </g>
    </g>
    <g id="xtick_9">
     <g id="line2d_14">
      <g>
       <use style="stroke:#000000;stroke-width:0.6;" x="118.060888" xlink:href="#m099539ea8f" y="297.54825"/>
      </g>
     </g>
    </g>
    <g id="xtick_10">
     <g id="line2d_15">
      <g>
       <use style="stroke:#000000;stroke-width:0.6;" x="142.817676" xlink:href="#m099539ea8f" y="297.54825"/>
      </g>
     </g>
    </g>
    <g id="xtick_11">
     <g id="line2d_16">
      <g>
       <use style="stroke:#000000;stroke-width:0.6;" x="163.045444" xlink:href="#m099539ea8f" y="297.54825"/>
      </g>
     </g>
    </g>
    <g id="xtick_12">
     <g id="line2d_17">
      <g>
       <use style="stroke:#000000;stroke-width:0.6;" x="180.147779" xlink:href="#m099539ea8f" y="297.54825"/>
      </g>
     </g>
    </g>
    <g id="xtick_13">
     <g id="line2d_18">
      <g>
       <use style="stroke:#000000;stroke-width:0.6;" x="194.962494" xlink:href="#m099539ea8f" y="297.54825"/>
      </g>
     </g>
    </g>
    <g id="xtick_14">
     <g id="line2d_19">
      <g>
       <use style="stroke:#000000;stroke-width:0.6;" x="208.03" xlink:href="#m099539ea8f" y="297.54825"/>
      </g>
     </g>
    </g>
    <g id="xtick_15">
     <g id="line2d_20">
      <g>
       <use style="stroke:#000000;stroke-width:0.6;" x="296.620888" xlink:href="#m099539ea8f" y="297.54825"/>
      </g>
     </g>
    </g>
    <g id="xtick_16">
     <g id="line2d_21">
      <g>
       <use style="stroke:#000000;stroke-width:0.6;" x="341.605444" xlink:href="#m099539ea8f" y="297.54825"/>
      </g>
     </g>
    </g>
    <g id="xtick_17">
     <g id="line2d_22">
      <g>
       <use style="stroke:#000000;stroke-width:0.6;" x="373.522494" xlink:href="#m099539ea8f" y="297.54825"/>
      </g>
     </g>
    </g>
   </g>
   <g id="matplotlib.axis_2">
    <g id="ytick_1">
     <g id="line2d_23">
      <path clip-path="url(#p41cdd31f5d)" d="M 29.47 290.15625 
L 386.59 290.15625 
" style="fill:none;stroke:#b0b0b0;stroke-linecap:square;stroke-width:0.8;"/>
     </g>
     <g id="line2d_24">
      <defs>
       <path d="M 0 0 
L -3.5 0 
" id="m5e5a475471" style="stroke:#000000;stroke-width:0.8;"/>
      </defs>
      <g>
       <use style="stroke:#000000;stroke-width:0.8;" x="29.47" xlink:href="#m5e5a475471" y="290.15625"/>
      </g>
     </g>
     <g id="text_7">
      <!-- 0 -->
      <g transform="translate(7.2 299.274375)scale(0.24 -0.24)">
       <use xlink:href="#DejaVuSans-30"/>
      </g>
     </g>
    </g>
    <g id="ytick_2">
     <g id="line2d_25">
      <path clip-path="url(#p41cdd31f5d)" d="M 29.47 253.196253 
L 386.59 253.196253 
" style="fill:none;stroke:#b0b0b0;stroke-linecap:square;stroke-width:0.8;"/>
     </g>
     <g id="line2d_26">
      <g>
       <use style="stroke:#000000;stroke-width:0.8;" x="29.47" xlink:href="#m5e5a475471" y="253.196253"/>
      </g>
     </g>
     <g id="text_8">
      <!-- 1 -->
      <g transform="translate(7.2 262.314378)scale(0.24 -0.24)">
       <use xlink:href="#DejaVuSans-31"/>
      </g>
     </g>
    </g>
    <g id="ytick_3">
     <g id="line2d_27">
      <path clip-path="url(#p41cdd31f5d)" d="M 29.47 216.236255 
L 386.59 216.236255 
" style="fill:none;stroke:#b0b0b0;stroke-linecap:square;stroke-width:0.8;"/>
     </g>
     <g id="line2d_28">
      <g>
       <use style="stroke:#000000;stroke-width:0.8;" x="29.47" xlink:href="#m5e5a475471" y="216.236255"/>
      </g>
     </g>
     <g id="text_9">
      <!-- 2 -->
      <g transform="translate(7.2 225.35438)scale(0.24 -0.24)">
       <use xlink:href="#DejaVuSans-32"/>
      </g>
     </g>
    </g>
    <g id="ytick_4">
     <g id="line2d_29">
      <path clip-path="url(#p41cdd31f5d)" d="M 29.47 179.276257 
L 386.59 179.276257 
" style="fill:none;stroke:#b0b0b0;stroke-linecap:square;stroke-width:0.8;"/>
     </g>
     <g id="line2d_30">
      <g>
       <use style="stroke:#000000;stroke-width:0.8;" x="29.47" xlink:href="#m5e5a475471" y="179.276257"/>
      </g>
     </g>
     <g id="text_10">
      <!-- 3 -->
      <g transform="translate(7.2 188.394382)scale(0.24 -0.24)">
       <use xlink:href="#DejaVuSans-33"/>
      </g>
     </g>
    </g>
    <g id="ytick_5">
     <g id="line2d_31">
      <path clip-path="url(#p41cdd31f5d)" d="M 29.47 142.316259 
L 386.59 142.316259 
" style="fill:none;stroke:#b0b0b0;stroke-linecap:square;stroke-width:0.8;"/>
     </g>
     <g id="line2d_32">
      <g>
       <use style="stroke:#000000;stroke-width:0.8;" x="29.47" xlink:href="#m5e5a475471" y="142.316259"/>
      </g>
     </g>
     <g id="text_11">
      <!-- 4 -->
      <g transform="translate(7.2 151.434384)scale(0.24 -0.24)">
       <use xlink:href="#DejaVuSans-34"/>
      </g>
     </g>
    </g>
    <g id="ytick_6">
     <g id="line2d_33">
      <path clip-path="url(#p41cdd31f5d)" d="M 29.47 105.356262 
L 386.59 105.356262 
" style="fill:none;stroke:#b0b0b0;stroke-linecap:square;stroke-width:0.8;"/>
     </g>
     <g id="line2d_34">
      <g>
       <use style="stroke:#000000;stroke-width:0.8;" x="29.47" xlink:href="#m5e5a475471" y="105.356262"/>
      </g>
     </g>
     <g id="text_12">
      <!-- 5 -->
      <g transform="translate(7.2 114.474387)scale(0.24 -0.24)">
       <use xlink:href="#DejaVuSans-35"/>
      </g>
     </g>
    </g>
    <g id="ytick_7">
     <g id="line2d_35">
      <path clip-path="url(#p41cdd31f5d)" d="M 29.47 68.396264 
L 386.59 68.396264 
" style="fill:none;stroke:#b0b0b0;stroke-linecap:square;stroke-width:0.8;"/>
     </g>
     <g id="line2d_36">
      <g>
       <use style="stroke:#000000;stroke-width:0.8;" x="29.47" xlink:href="#m5e5a475471" y="68.396264"/>
      </g>
     </g>
     <g id="text_13">
      <!-- 6 -->
      <defs>
       <path d="M 33.015625 40.375 
Q 26.375 40.375 22.484375 35.828125 
Q 18.609375 31.296875 18.609375 23.390625 
Q 18.609375 15.53125 22.484375 10.953125 
Q 26.375 6.390625 33.015625 6.390625 
Q 39.65625 6.390625 43.53125 10.953125 
Q 47.40625 15.53125 47.40625 23.390625 
Q 47.40625 31.296875 43.53125 35.828125 
Q 39.65625 40.375 33.015625 40.375 
z
M 52.59375 71.296875 
L 52.59375 62.3125 
Q 48.875 64.0625 45.09375 64.984375 
Q 41.3125 65.921875 37.59375 65.921875 
Q 27.828125 65.921875 22.671875 59.328125 
Q 17.53125 52.734375 16.796875 39.40625 
Q 19.671875 43.65625 24.015625 45.921875 
Q 28.375 48.1875 33.59375 48.1875 
Q 44.578125 48.1875 50.953125 41.515625 
Q 57.328125 34.859375 57.328125 23.390625 
Q 57.328125 12.15625 50.6875 5.359375 
Q 44.046875 -1.421875 33.015625 -1.421875 
Q 20.359375 -1.421875 13.671875 8.265625 
Q 6.984375 17.96875 6.984375 36.375 
Q 6.984375 53.65625 15.1875 63.9375 
Q 23.390625 74.21875 37.203125 74.21875 
Q 40.921875 74.21875 44.703125 73.484375 
Q 48.484375 72.75 52.59375 71.296875 
z
" id="DejaVuSans-36"/>
      </defs>
      <g transform="translate(7.2 77.514389)scale(0.24 -0.24)">
       <use xlink:href="#DejaVuSans-36"/>
      </g>
     </g>
    </g>
    <g id="ytick_8">
     <g id="line2d_37">
      <path clip-path="url(#p41cdd31f5d)" d="M 29.47 31.436266 
L 386.59 31.436266 
" style="fill:none;stroke:#b0b0b0;stroke-linecap:square;stroke-width:0.8;"/>
     </g>
     <g id="line2d_38">
      <g>
       <use style="stroke:#000000;stroke-width:0.8;" x="29.47" xlink:href="#m5e5a475471" y="31.436266"/>
      </g>
     </g>
     <g id="text_14">
      <!-- 7 -->
      <defs>
       <path d="M 8.203125 72.90625 
L 55.078125 72.90625 
L 55.078125 68.703125 
L 28.609375 0 
L 18.3125 0 
L 43.21875 64.59375 
L 8.203125 64.59375 
z
" id="DejaVuSans-37"/>
      </defs>
      <g transform="translate(7.2 40.554391)scale(0.24 -0.24)">
       <use xlink:href="#DejaVuSans-37"/>
      </g>
     </g>
    </g>
   </g>
   <g id="line2d_39">
    <path clip-path="url(#p41cdd31f5d)" d="M 38.515722 218.844931 
L 40.366214 217.186816 
L 38.515722 211.241752 
L 43.802842 211.241752 
L 41.95235 217.186816 
L 43.802842 218.844931 
L 38.515722 218.844931 
" style="fill:none;stroke:#000000;stroke-linecap:square;"/>
   </g>
   <g id="line2d_40">
    <path clip-path="url(#p41cdd31f5d)" d="M 38.515722 218.844931 
L 43.802842 218.844931 
L 43.802842 211.241752 
L 38.515722 211.241752 
L 38.515722 218.844931 
" style="fill:none;"/>
    <defs>
     <path d="M 0 3 
C 0.795609 3 1.55874 2.683901 2.12132 2.12132 
C 2.683901 1.55874 3 0.795609 3 0 
C 3 -0.795609 2.683901 -1.55874 2.12132 -2.12132 
C 1.55874 -2.683901 0.795609 -3 0 -3 
C -0.795609 -3 -1.55874 -2.683901 -2.12132 -2.12132 
C -2.683901 -1.55874 -3 -0.795609 -3 0 
C -3 0.795609 -2.683901 1.55874 -2.12132 2.12132 
C -1.55874 2.683901 -0.795609 3 0 3 
z
" id="mb520683587" style="stroke:#000000;stroke-width:2;"/>
    </defs>
    <g clip-path="url(#p41cdd31f5d)">
     <use style="stroke:#000000;stroke-width:2;" x="38.515722" xlink:href="#mb520683587" y="218.844931"/>
     <use style="stroke:#000000;stroke-width:2;" x="43.802842" xlink:href="#mb520683587" y="218.844931"/>
     <use style="stroke:#000000;stroke-width:2;" x="43.802842" xlink:href="#mb520683587" y="211.241752"/>
     <use style="stroke:#000000;stroke-width:2;" x="38.515722" xlink:href="#mb520683587" y="211.241752"/>
     <use style="stroke:#000000;stroke-width:2;" x="38.515722" xlink:href="#mb520683587" y="218.844931"/>
    </g>
   </g>
   <g id="line2d_41">
    <path clip-path="url(#p41cdd31f5d)" d="M 38.515722 217.186816 
L 43.802842 217.186816 
" style="fill:none;stroke:#000000;stroke-linecap:square;stroke-width:2;"/>
   </g>
   <g id="line2d_42">
    <path clip-path="url(#p41cdd31f5d)" d="M 83.500277 217.116011 
L 85.35077 209.09837 
L 83.500277 205.793334 
L 88.787398 205.793334 
L 86.936906 209.09837 
L 88.787398 217.116011 
L 83.500277 217.116011 
" style="fill:none;stroke:#000000;stroke-linecap:square;"/>
   </g>
   <g id="line2d_43">
    <path clip-path="url(#p41cdd31f5d)" d="M 83.500277 217.116011 
L 88.787398 217.116011 
L 88.787398 205.793334 
L 83.500277 205.793334 
L 83.500277 217.116011 
" style="fill:none;"/>
    <g clip-path="url(#p41cdd31f5d)">
     <use style="stroke:#000000;stroke-width:2;" x="83.500277" xlink:href="#mb520683587" y="217.116011"/>
     <use style="stroke:#000000;stroke-width:2;" x="88.787398" xlink:href="#mb520683587" y="217.116011"/>
     <use style="stroke:#000000;stroke-width:2;" x="88.787398" xlink:href="#mb520683587" y="205.793334"/>
     <use style="stroke:#000000;stroke-width:2;" x="83.500277" xlink:href="#mb520683587" y="205.793334"/>
     <use style="stroke:#000000;stroke-width:2;" x="83.500277" xlink:href="#mb520683587" y="217.116011"/>
    </g>
   </g>
   <g id="line2d_44">
    <path clip-path="url(#p41cdd31f5d)" d="M 83.500277 209.09837 
L 88.787398 209.09837 
" style="fill:none;stroke:#000000;stroke-linecap:square;stroke-width:2;"/>
   </g>
   <g id="line2d_45">
    <path clip-path="url(#p41cdd31f5d)" d="M 140.174115 204.982286 
L 142.024608 199.03021 
L 140.174115 187.98126 
L 145.461236 187.98126 
L 143.610744 199.03021 
L 145.461236 204.982286 
L 140.174115 204.982286 
" style="fill:none;stroke:#000000;stroke-linecap:square;"/>
   </g>
   <g id="line2d_46">
    <path clip-path="url(#p41cdd31f5d)" d="M 140.174115 204.982286 
L 145.461236 204.982286 
L 145.461236 187.98126 
L 140.174115 187.98126 
L 140.174115 204.982286 
" style="fill:none;"/>
    <g clip-path="url(#p41cdd31f5d)">
     <use style="stroke:#000000;stroke-width:2;" x="140.174115" xlink:href="#mb520683587" y="204.982286"/>
     <use style="stroke:#000000;stroke-width:2;" x="145.461236" xlink:href="#mb520683587" y="204.982286"/>
     <use style="stroke:#000000;stroke-width:2;" x="145.461236" xlink:href="#mb520683587" y="187.98126"/>
     <use style="stroke:#000000;stroke-width:2;" x="140.174115" xlink:href="#mb520683587" y="187.98126"/>
     <use style="stroke:#000000;stroke-width:2;" x="140.174115" xlink:href="#mb520683587" y="204.982286"/>
    </g>
   </g>
   <g id="line2d_47">
    <path clip-path="url(#p41cdd31f5d)" d="M 140.174115 199.03021 
L 145.461236 199.03021 
" style="fill:none;stroke:#000000;stroke-linecap:square;stroke-width:2;"/>
   </g>
   <g id="line2d_48">
    <path clip-path="url(#p41cdd31f5d)" d="M 217.075722 188.100417 
L 218.926214 186.748781 
L 217.075722 186.242922 
L 222.362842 186.242922 
L 220.51235 186.748781 
L 222.362842 188.100417 
L 217.075722 188.100417 
" style="fill:none;stroke:#000000;stroke-linecap:square;"/>
   </g>
   <g id="line2d_49">
    <path clip-path="url(#p41cdd31f5d)" d="M 217.075722 188.100417 
L 222.362842 188.100417 
L 222.362842 186.242922 
L 217.075722 186.242922 
L 217.075722 188.100417 
" style="fill:none;"/>
    <g clip-path="url(#p41cdd31f5d)">
     <use style="stroke:#000000;stroke-width:2;" x="217.075722" xlink:href="#mb520683587" y="188.100417"/>
     <use style="stroke:#000000;stroke-width:2;" x="222.362842" xlink:href="#mb520683587" y="188.100417"/>
     <use style="stroke:#000000;stroke-width:2;" x="222.362842" xlink:href="#mb520683587" y="186.242922"/>
     <use style="stroke:#000000;stroke-width:2;" x="217.075722" xlink:href="#mb520683587" y="186.242922"/>
     <use style="stroke:#000000;stroke-width:2;" x="217.075722" xlink:href="#mb520683587" y="188.100417"/>
    </g>
   </g>
   <g id="line2d_50">
    <path clip-path="url(#p41cdd31f5d)" d="M 217.075722 186.748781 
L 222.362842 186.748781 
" style="fill:none;stroke:#000000;stroke-linecap:square;stroke-width:2;"/>
   </g>
   <g id="line2d_51">
    <path clip-path="url(#p41cdd31f5d)" d="M 293.977328 156.865198 
L 295.82782 155.484948 
L 293.977328 153.035172 
L 299.264449 153.035172 
L 297.413956 155.484948 
L 299.264449 156.865198 
L 293.977328 156.865198 
" style="fill:none;stroke:#000000;stroke-linecap:square;"/>
   </g>
   <g id="line2d_52">
    <path clip-path="url(#p41cdd31f5d)" d="M 293.977328 156.865198 
L 299.264449 156.865198 
L 299.264449 153.035172 
L 293.977328 153.035172 
L 293.977328 156.865198 
" style="fill:none;"/>
    <g clip-path="url(#p41cdd31f5d)">
     <use style="stroke:#000000;stroke-width:2;" x="293.977328" xlink:href="#mb520683587" y="156.865198"/>
     <use style="stroke:#000000;stroke-width:2;" x="299.264449" xlink:href="#mb520683587" y="156.865198"/>
     <use style="stroke:#000000;stroke-width:2;" x="299.264449" xlink:href="#mb520683587" y="153.035172"/>
     <use style="stroke:#000000;stroke-width:2;" x="293.977328" xlink:href="#mb520683587" y="153.035172"/>
     <use style="stroke:#000000;stroke-width:2;" x="293.977328" xlink:href="#mb520683587" y="156.865198"/>
    </g>
   </g>
   <g id="line2d_53">
    <path clip-path="url(#p41cdd31f5d)" d="M 293.977328 155.484948 
L 299.264449 155.484948 
" style="fill:none;stroke:#000000;stroke-linecap:square;stroke-width:2;"/>
   </g>
   <g id="line2d_54">
    <path clip-path="url(#p41cdd31f5d)" d="M 41.159282 218.209328 
L 86.143838 206.158499 
" style="fill:none;stroke:#000000;stroke-linecap:square;stroke-width:4;"/>
   </g>
   <g id="line2d_55">
    <path clip-path="url(#p41cdd31f5d)" d="M 86.143838 206.158499 
L 142.817676 197.750222 
" style="fill:none;stroke:#000000;stroke-linecap:square;stroke-width:4;"/>
   </g>
   <g id="line2d_56">
    <path clip-path="url(#p41cdd31f5d)" d="M 142.817676 197.750222 
L 219.719282 181.697443 
" style="fill:none;stroke:#000000;stroke-linecap:square;stroke-width:4;"/>
   </g>
   <g id="line2d_57">
    <path clip-path="url(#p41cdd31f5d)" d="M 219.719282 181.697443 
L 296.620888 154.254965 
" style="fill:none;stroke:#000000;stroke-linecap:square;stroke-width:4;"/>
   </g>
   <g id="line2d_58">
    <path clip-path="url(#p41cdd31f5d)" d="M 41.159282 218.209328 
L 86.143838 206.158499 
L 142.817676 197.750222 
L 219.719282 181.697443 
L 296.620888 154.254965 
" style="fill:none;"/>
    <defs>
     <path d="M 0 10 
C 2.652031 10 5.195799 8.946337 7.071068 7.071068 
C 8.946337 5.195799 10 2.652031 10 0 
C 10 -2.652031 8.946337 -5.195799 7.071068 -7.071068 
C 5.195799 -8.946337 2.652031 -10 0 -10 
C -2.652031 -10 -5.195799 -8.946337 -7.071068 -7.071068 
C -8.946337 -5.195799 -10 -2.652031 -10 0 
C -10 2.652031 -8.946337 5.195799 -7.071068 7.071068 
C -5.195799 8.946337 -2.652031 10 0 10 
z
" id="m73093e0c5b" style="stroke:#000000;stroke-width:2;"/>
    </defs>
    <g clip-path="url(#p41cdd31f5d)">
     <use style="stroke:#000000;stroke-width:2;" x="41.159282" xlink:href="#m73093e0c5b" y="218.209328"/>
     <use style="stroke:#000000;stroke-width:2;" x="86.143838" xlink:href="#m73093e0c5b" y="206.158499"/>
     <use style="stroke:#000000;stroke-width:2;" x="142.817676" xlink:href="#m73093e0c5b" y="197.750222"/>
     <use style="stroke:#000000;stroke-width:2;" x="219.719282" xlink:href="#m73093e0c5b" y="181.697443"/>
     <use style="stroke:#000000;stroke-width:2;" x="296.620888" xlink:href="#m73093e0c5b" y="154.254965"/>
    </g>
   </g>
   <g id="line2d_59">
    <path clip-path="url(#p41cdd31f5d)" d="M 37.634535 185.740509 
L 40.101858 181.5717 
L 37.634535 163.16745 
L 44.684029 163.16745 
L 42.216706 181.5717 
L 44.684029 185.740509 
L 37.634535 185.740509 
" style="fill:none;stroke:#0000ff;stroke-linecap:square;"/>
   </g>
   <g id="line2d_60">
    <path clip-path="url(#p41cdd31f5d)" d="M 37.634535 185.740509 
L 44.684029 185.740509 
L 44.684029 163.16745 
L 37.634535 163.16745 
L 37.634535 185.740509 
" style="fill:none;"/>
    <defs>
     <path d="M 0 1.5 
C 0.397805 1.5 0.77937 1.341951 1.06066 1.06066 
C 1.341951 0.77937 1.5 0.397805 1.5 0 
C 1.5 -0.397805 1.341951 -0.77937 1.06066 -1.06066 
C 0.77937 -1.341951 0.397805 -1.5 0 -1.5 
C -0.397805 -1.5 -0.77937 -1.341951 -1.06066 -1.06066 
C -1.341951 -0.77937 -1.5 -0.397805 -1.5 0 
C -1.5 0.397805 -1.341951 0.77937 -1.06066 1.06066 
C -0.77937 1.341951 -0.397805 1.5 0 1.5 
z
" id="m22f170fe9d" style="stroke:#0000ff;"/>
    </defs>
    <g clip-path="url(#p41cdd31f5d)">
     <use style="fill:#0000ff;stroke:#0000ff;" x="37.634535" xlink:href="#m22f170fe9d" y="185.740509"/>
     <use style="fill:#0000ff;stroke:#0000ff;" x="44.684029" xlink:href="#m22f170fe9d" y="185.740509"/>
     <use style="fill:#0000ff;stroke:#0000ff;" x="44.684029" xlink:href="#m22f170fe9d" y="163.16745"/>
     <use style="fill:#0000ff;stroke:#0000ff;" x="37.634535" xlink:href="#m22f170fe9d" y="163.16745"/>
     <use style="fill:#0000ff;stroke:#0000ff;" x="37.634535" xlink:href="#m22f170fe9d" y="185.740509"/>
    </g>
   </g>
   <g id="line2d_61">
    <path clip-path="url(#p41cdd31f5d)" d="M 37.634535 181.5717 
L 44.684029 181.5717 
" style="fill:none;stroke:#0000ff;stroke-linecap:square;stroke-width:2;"/>
   </g>
   <g id="line2d_62">
    <path clip-path="url(#p41cdd31f5d)" d="M 82.619091 182.911645 
L 85.086414 161.711564 
L 82.619091 158.253846 
L 89.668585 158.253846 
L 87.201262 161.711564 
L 89.668585 182.911645 
L 82.619091 182.911645 
" style="fill:none;stroke:#0000ff;stroke-linecap:square;"/>
   </g>
   <g id="line2d_63">
    <path clip-path="url(#p41cdd31f5d)" d="M 82.619091 182.911645 
L 89.668585 182.911645 
L 89.668585 158.253846 
L 82.619091 158.253846 
L 82.619091 182.911645 
" style="fill:none;"/>
    <g clip-path="url(#p41cdd31f5d)">
     <use style="fill:#0000ff;stroke:#0000ff;" x="82.619091" xlink:href="#m22f170fe9d" y="182.911645"/>
     <use style="fill:#0000ff;stroke:#0000ff;" x="89.668585" xlink:href="#m22f170fe9d" y="182.911645"/>
     <use style="fill:#0000ff;stroke:#0000ff;" x="89.668585" xlink:href="#m22f170fe9d" y="158.253846"/>
     <use style="fill:#0000ff;stroke:#0000ff;" x="82.619091" xlink:href="#m22f170fe9d" y="158.253846"/>
     <use style="fill:#0000ff;stroke:#0000ff;" x="82.619091" xlink:href="#m22f170fe9d" y="182.911645"/>
    </g>
   </g>
   <g id="line2d_64">
    <path clip-path="url(#p41cdd31f5d)" d="M 82.619091 161.711564 
L 89.668585 161.711564 
" style="fill:none;stroke:#0000ff;stroke-linecap:square;stroke-width:2;"/>
   </g>
   <g id="line2d_65">
    <path clip-path="url(#p41cdd31f5d)" d="M 139.292929 180.07933 
L 141.760252 173.342013 
L 139.292929 158.393959 
L 146.342423 158.393959 
L 143.8751 173.342013 
L 146.342423 180.07933 
L 139.292929 180.07933 
" style="fill:none;stroke:#0000ff;stroke-linecap:square;"/>
   </g>
   <g id="line2d_66">
    <path clip-path="url(#p41cdd31f5d)" d="M 139.292929 180.07933 
L 146.342423 180.07933 
L 146.342423 158.393959 
L 139.292929 158.393959 
L 139.292929 180.07933 
" style="fill:none;"/>
    <g clip-path="url(#p41cdd31f5d)">
     <use style="fill:#0000ff;stroke:#0000ff;" x="139.292929" xlink:href="#m22f170fe9d" y="180.07933"/>
     <use style="fill:#0000ff;stroke:#0000ff;" x="146.342423" xlink:href="#m22f170fe9d" y="180.07933"/>
     <use style="fill:#0000ff;stroke:#0000ff;" x="146.342423" xlink:href="#m22f170fe9d" y="158.393959"/>
     <use style="fill:#0000ff;stroke:#0000ff;" x="139.292929" xlink:href="#m22f170fe9d" y="158.393959"/>
     <use style="fill:#0000ff;stroke:#0000ff;" x="139.292929" xlink:href="#m22f170fe9d" y="180.07933"/>
    </g>
   </g>
   <g id="line2d_67">
    <path clip-path="url(#p41cdd31f5d)" d="M 139.292929 173.342013 
L 146.342423 173.342013 
" style="fill:none;stroke:#0000ff;stroke-linecap:square;stroke-width:2;"/>
   </g>
   <g id="line2d_68">
    <path clip-path="url(#p41cdd31f5d)" d="M 216.194535 156.496371 
L 218.661858 155.97602 
L 216.194535 155.494977 
L 223.244029 155.494977 
L 220.776706 155.97602 
L 223.244029 156.496371 
L 216.194535 156.496371 
" style="fill:none;stroke:#0000ff;stroke-linecap:square;"/>
   </g>
   <g id="line2d_69">
    <path clip-path="url(#p41cdd31f5d)" d="M 216.194535 156.496371 
L 223.244029 156.496371 
L 223.244029 155.494977 
L 216.194535 155.494977 
L 216.194535 156.496371 
" style="fill:none;"/>
    <g clip-path="url(#p41cdd31f5d)">
     <use style="fill:#0000ff;stroke:#0000ff;" x="216.194535" xlink:href="#m22f170fe9d" y="156.496371"/>
     <use style="fill:#0000ff;stroke:#0000ff;" x="223.244029" xlink:href="#m22f170fe9d" y="156.496371"/>
     <use style="fill:#0000ff;stroke:#0000ff;" x="223.244029" xlink:href="#m22f170fe9d" y="155.494977"/>
     <use style="fill:#0000ff;stroke:#0000ff;" x="216.194535" xlink:href="#m22f170fe9d" y="155.494977"/>
     <use style="fill:#0000ff;stroke:#0000ff;" x="216.194535" xlink:href="#m22f170fe9d" y="156.496371"/>
    </g>
   </g>
   <g id="line2d_70">
    <path clip-path="url(#p41cdd31f5d)" d="M 216.194535 155.97602 
L 223.244029 155.97602 
" style="fill:none;stroke:#0000ff;stroke-linecap:square;stroke-width:2;"/>
   </g>
   <g id="line2d_71">
    <path clip-path="url(#p41cdd31f5d)" d="M 293.096141 141.041135 
L 295.563464 139.502443 
L 293.096141 137.130169 
L 300.145636 137.130169 
L 297.678312 139.502443 
L 300.145636 141.041135 
L 293.096141 141.041135 
" style="fill:none;stroke:#0000ff;stroke-linecap:square;"/>
   </g>
   <g id="line2d_72">
    <path clip-path="url(#p41cdd31f5d)" d="M 293.096141 141.041135 
L 300.145636 141.041135 
L 300.145636 137.130169 
L 293.096141 137.130169 
L 293.096141 141.041135 
" style="fill:none;"/>
    <g clip-path="url(#p41cdd31f5d)">
     <use style="fill:#0000ff;stroke:#0000ff;" x="293.096141" xlink:href="#m22f170fe9d" y="141.041135"/>
     <use style="fill:#0000ff;stroke:#0000ff;" x="300.145636" xlink:href="#m22f170fe9d" y="141.041135"/>
     <use style="fill:#0000ff;stroke:#0000ff;" x="300.145636" xlink:href="#m22f170fe9d" y="137.130169"/>
     <use style="fill:#0000ff;stroke:#0000ff;" x="293.096141" xlink:href="#m22f170fe9d" y="137.130169"/>
     <use style="fill:#0000ff;stroke:#0000ff;" x="293.096141" xlink:href="#m22f170fe9d" y="141.041135"/>
    </g>
   </g>
   <g id="line2d_73">
    <path clip-path="url(#p41cdd31f5d)" d="M 293.096141 139.502443 
L 300.145636 139.502443 
" style="fill:none;stroke:#0000ff;stroke-linecap:square;stroke-width:2;"/>
   </g>
   <g id="line2d_74">
    <path clip-path="url(#p41cdd31f5d)" d="M 41.159282 170.789109 
L 86.143838 165.087494 
" style="fill:none;stroke:#0000ff;stroke-linecap:square;stroke-width:4;"/>
   </g>
   <g id="line2d_75">
    <path clip-path="url(#p41cdd31f5d)" d="M 86.143838 165.087494 
L 142.817676 162.337291 
" style="fill:none;stroke:#0000ff;stroke-linecap:square;stroke-width:4;"/>
   </g>
   <g id="line2d_76">
    <path clip-path="url(#p41cdd31f5d)" d="M 142.817676 162.337291 
L 219.719282 153.518033 
" style="fill:none;stroke:#0000ff;stroke-linecap:square;stroke-width:4;"/>
   </g>
   <g id="line2d_77">
    <path clip-path="url(#p41cdd31f5d)" d="M 219.719282 153.518033 
L 296.620888 138.468295 
" style="fill:none;stroke:#0000ff;stroke-linecap:square;stroke-width:4;"/>
   </g>
   <g id="line2d_78">
    <path clip-path="url(#p41cdd31f5d)" d="M 41.159282 170.789109 
L 86.143838 165.087494 
L 142.817676 162.337291 
L 219.719282 153.518033 
L 296.620888 138.468295 
" style="fill:none;"/>
    <defs>
     <path d="M 0 5 
C 1.326016 5 2.597899 4.473168 3.535534 3.535534 
C 4.473168 2.597899 5 1.326016 5 0 
C 5 -1.326016 4.473168 -2.597899 3.535534 -3.535534 
C 2.597899 -4.473168 1.326016 -5 0 -5 
C -1.326016 -5 -2.597899 -4.473168 -3.535534 -3.535534 
C -4.473168 -2.597899 -5 -1.326016 -5 0 
C -5 1.326016 -4.473168 2.597899 -3.535534 3.535534 
C -2.597899 4.473168 -1.326016 5 0 5 
z
" id="mb18d962091" style="stroke:#0000ff;"/>
    </defs>
    <g clip-path="url(#p41cdd31f5d)">
     <use style="fill:#0000ff;stroke:#0000ff;" x="41.159282" xlink:href="#mb18d962091" y="170.789109"/>
     <use style="fill:#0000ff;stroke:#0000ff;" x="86.143838" xlink:href="#mb18d962091" y="165.087494"/>
     <use style="fill:#0000ff;stroke:#0000ff;" x="142.817676" xlink:href="#mb18d962091" y="162.337291"/>
     <use style="fill:#0000ff;stroke:#0000ff;" x="219.719282" xlink:href="#mb18d962091" y="153.518033"/>
     <use style="fill:#0000ff;stroke:#0000ff;" x="296.620888" xlink:href="#mb18d962091" y="138.468295"/>
    </g>
   </g>
   <g id="line2d_79">
    <path clip-path="url(#p41cdd31f5d)" d="M 36.753348 184.174658 
L 39.837502 178.348526 
L 36.753348 155.343562 
L 45.565216 155.343562 
L 42.481062 178.348526 
L 45.565216 184.174658 
L 36.753348 184.174658 
" style="fill:none;stroke:#00bfbf;stroke-linecap:square;"/>
   </g>
   <g id="line2d_80">
    <path clip-path="url(#p41cdd31f5d)" d="M 36.753348 184.174658 
L 45.565216 184.174658 
L 45.565216 155.343562 
L 36.753348 155.343562 
L 36.753348 184.174658 
" style="fill:none;"/>
    <defs>
     <path d="M -0 3 
L 3 -3 
L -3 -3 
z
" id="mf3046555a6" style="stroke:#00bfbf;stroke-linejoin:miter;stroke-width:2;"/>
    </defs>
    <g clip-path="url(#p41cdd31f5d)">
     <use style="fill:#00bfbf;stroke:#00bfbf;stroke-linejoin:miter;stroke-width:2;" x="36.753348" xlink:href="#mf3046555a6" y="184.174658"/>
     <use style="fill:#00bfbf;stroke:#00bfbf;stroke-linejoin:miter;stroke-width:2;" x="45.565216" xlink:href="#mf3046555a6" y="184.174658"/>
     <use style="fill:#00bfbf;stroke:#00bfbf;stroke-linejoin:miter;stroke-width:2;" x="45.565216" xlink:href="#mf3046555a6" y="155.343562"/>
     <use style="fill:#00bfbf;stroke:#00bfbf;stroke-linejoin:miter;stroke-width:2;" x="36.753348" xlink:href="#mf3046555a6" y="155.343562"/>
     <use style="fill:#00bfbf;stroke:#00bfbf;stroke-linejoin:miter;stroke-width:2;" x="36.753348" xlink:href="#mf3046555a6" y="184.174658"/>
    </g>
   </g>
   <g id="line2d_81">
    <path clip-path="url(#p41cdd31f5d)" d="M 36.753348 178.348526 
L 45.565216 178.348526 
" style="fill:none;stroke:#00bfbf;stroke-linecap:square;stroke-width:2;"/>
   </g>
   <g id="line2d_82">
    <path clip-path="url(#p41cdd31f5d)" d="M 81.737904 158.858636 
L 84.822058 154.82499 
L 81.737904 154.597995 
L 90.549772 154.597995 
L 87.465618 154.82499 
L 90.549772 158.858636 
L 81.737904 158.858636 
" style="fill:none;stroke:#00bfbf;stroke-linecap:square;"/>
   </g>
   <g id="line2d_83">
    <path clip-path="url(#p41cdd31f5d)" d="M 81.737904 158.858636 
L 90.549772 158.858636 
L 90.549772 154.597995 
L 81.737904 154.597995 
L 81.737904 158.858636 
" style="fill:none;"/>
    <g clip-path="url(#p41cdd31f5d)">
     <use style="fill:#00bfbf;stroke:#00bfbf;stroke-linejoin:miter;stroke-width:2;" x="81.737904" xlink:href="#mf3046555a6" y="158.858636"/>
     <use style="fill:#00bfbf;stroke:#00bfbf;stroke-linejoin:miter;stroke-width:2;" x="90.549772" xlink:href="#mf3046555a6" y="158.858636"/>
     <use style="fill:#00bfbf;stroke:#00bfbf;stroke-linejoin:miter;stroke-width:2;" x="90.549772" xlink:href="#mf3046555a6" y="154.597995"/>
     <use style="fill:#00bfbf;stroke:#00bfbf;stroke-linejoin:miter;stroke-width:2;" x="81.737904" xlink:href="#mf3046555a6" y="154.597995"/>
     <use style="fill:#00bfbf;stroke:#00bfbf;stroke-linejoin:miter;stroke-width:2;" x="81.737904" xlink:href="#mf3046555a6" y="158.858636"/>
    </g>
   </g>
   <g id="line2d_84">
    <path clip-path="url(#p41cdd31f5d)" d="M 81.737904 154.82499 
L 90.549772 154.82499 
" style="fill:none;stroke:#00bfbf;stroke-linecap:square;stroke-width:2;"/>
   </g>
   <g id="line2d_85">
    <path clip-path="url(#p41cdd31f5d)" d="M 138.411742 157.772444 
L 141.495896 149.575942 
L 138.411742 145.063004 
L 147.22361 145.063004 
L 144.139456 149.575942 
L 147.22361 157.772444 
L 138.411742 157.772444 
" style="fill:none;stroke:#00bfbf;stroke-linecap:square;"/>
   </g>
   <g id="line2d_86">
    <path clip-path="url(#p41cdd31f5d)" d="M 138.411742 157.772444 
L 147.22361 157.772444 
L 147.22361 145.063004 
L 138.411742 145.063004 
L 138.411742 157.772444 
" style="fill:none;"/>
    <g clip-path="url(#p41cdd31f5d)">
     <use style="fill:#00bfbf;stroke:#00bfbf;stroke-linejoin:miter;stroke-width:2;" x="138.411742" xlink:href="#mf3046555a6" y="157.772444"/>
     <use style="fill:#00bfbf;stroke:#00bfbf;stroke-linejoin:miter;stroke-width:2;" x="147.22361" xlink:href="#mf3046555a6" y="157.772444"/>
     <use style="fill:#00bfbf;stroke:#00bfbf;stroke-linejoin:miter;stroke-width:2;" x="147.22361" xlink:href="#mf3046555a6" y="145.063004"/>
     <use style="fill:#00bfbf;stroke:#00bfbf;stroke-linejoin:miter;stroke-width:2;" x="138.411742" xlink:href="#mf3046555a6" y="145.063004"/>
     <use style="fill:#00bfbf;stroke:#00bfbf;stroke-linejoin:miter;stroke-width:2;" x="138.411742" xlink:href="#mf3046555a6" y="157.772444"/>
    </g>
   </g>
   <g id="line2d_87">
    <path clip-path="url(#p41cdd31f5d)" d="M 138.411742 149.575942 
L 147.22361 149.575942 
" style="fill:none;stroke:#00bfbf;stroke-linecap:square;stroke-width:2;"/>
   </g>
   <g id="line2d_88">
    <path clip-path="url(#p41cdd31f5d)" d="M 215.313348 141.98424 
L 218.397502 140.490857 
L 215.313348 139.045914 
L 224.125216 139.045914 
L 221.041062 140.490857 
L 224.125216 141.98424 
L 215.313348 141.98424 
" style="fill:none;stroke:#00bfbf;stroke-linecap:square;"/>
   </g>
   <g id="line2d_89">
    <path clip-path="url(#p41cdd31f5d)" d="M 215.313348 141.98424 
L 224.125216 141.98424 
L 224.125216 139.045914 
L 215.313348 139.045914 
L 215.313348 141.98424 
" style="fill:none;"/>
    <g clip-path="url(#p41cdd31f5d)">
     <use style="fill:#00bfbf;stroke:#00bfbf;stroke-linejoin:miter;stroke-width:2;" x="215.313348" xlink:href="#mf3046555a6" y="141.98424"/>
     <use style="fill:#00bfbf;stroke:#00bfbf;stroke-linejoin:miter;stroke-width:2;" x="224.125216" xlink:href="#mf3046555a6" y="141.98424"/>
     <use style="fill:#00bfbf;stroke:#00bfbf;stroke-linejoin:miter;stroke-width:2;" x="224.125216" xlink:href="#mf3046555a6" y="139.045914"/>
     <use style="fill:#00bfbf;stroke:#00bfbf;stroke-linejoin:miter;stroke-width:2;" x="215.313348" xlink:href="#mf3046555a6" y="139.045914"/>
     <use style="fill:#00bfbf;stroke:#00bfbf;stroke-linejoin:miter;stroke-width:2;" x="215.313348" xlink:href="#mf3046555a6" y="141.98424"/>
    </g>
   </g>
   <g id="line2d_90">
    <path clip-path="url(#p41cdd31f5d)" d="M 215.313348 140.490857 
L 224.125216 140.490857 
" style="fill:none;stroke:#00bfbf;stroke-linecap:square;stroke-width:2;"/>
   </g>
   <g id="line2d_91">
    <path clip-path="url(#p41cdd31f5d)" d="M 292.214954 127.524507 
L 295.299108 126.465394 
L 292.214954 125.538628 
L 301.026822 125.538628 
L 297.942668 126.465394 
L 301.026822 127.524507 
L 292.214954 127.524507 
" style="fill:none;stroke:#00bfbf;stroke-linecap:square;"/>
   </g>
   <g id="line2d_92">
    <path clip-path="url(#p41cdd31f5d)" d="M 292.214954 127.524507 
L 301.026822 127.524507 
L 301.026822 125.538628 
L 292.214954 125.538628 
L 292.214954 127.524507 
" style="fill:none;"/>
    <g clip-path="url(#p41cdd31f5d)">
     <use style="fill:#00bfbf;stroke:#00bfbf;stroke-linejoin:miter;stroke-width:2;" x="292.214954" xlink:href="#mf3046555a6" y="127.524507"/>
     <use style="fill:#00bfbf;stroke:#00bfbf;stroke-linejoin:miter;stroke-width:2;" x="301.026822" xlink:href="#mf3046555a6" y="127.524507"/>
     <use style="fill:#00bfbf;stroke:#00bfbf;stroke-linejoin:miter;stroke-width:2;" x="301.026822" xlink:href="#mf3046555a6" y="125.538628"/>
     <use style="fill:#00bfbf;stroke:#00bfbf;stroke-linejoin:miter;stroke-width:2;" x="292.214954" xlink:href="#mf3046555a6" y="125.538628"/>
     <use style="fill:#00bfbf;stroke:#00bfbf;stroke-linejoin:miter;stroke-width:2;" x="292.214954" xlink:href="#mf3046555a6" y="127.524507"/>
    </g>
   </g>
   <g id="line2d_93">
    <path clip-path="url(#p41cdd31f5d)" d="M 292.214954 126.465394 
L 301.026822 126.465394 
" style="fill:none;stroke:#00bfbf;stroke-linecap:square;stroke-width:2;"/>
   </g>
   <g id="line2d_94">
    <path clip-path="url(#p41cdd31f5d)" d="M 41.159282 155.734376 
L 86.143838 156.568022 
" style="fill:none;stroke:#00bfbf;stroke-linecap:square;stroke-width:4;"/>
   </g>
   <g id="line2d_95">
    <path clip-path="url(#p41cdd31f5d)" d="M 86.143838 156.568022 
L 142.817676 149.344715 
" style="fill:none;stroke:#00bfbf;stroke-linecap:square;stroke-width:4;"/>
   </g>
   <g id="line2d_96">
    <path clip-path="url(#p41cdd31f5d)" d="M 142.817676 149.344715 
L 219.719282 141.194292 
" style="fill:none;stroke:#00bfbf;stroke-linecap:square;stroke-width:4;"/>
   </g>
   <g id="line2d_97">
    <path clip-path="url(#p41cdd31f5d)" d="M 219.719282 141.194292 
L 296.620888 127.000752 
" style="fill:none;stroke:#00bfbf;stroke-linecap:square;stroke-width:4;"/>
   </g>
   <g id="line2d_98">
    <path clip-path="url(#p41cdd31f5d)" d="M 41.159282 155.734376 
L 86.143838 156.568022 
L 142.817676 149.344715 
L 219.719282 141.194292 
L 296.620888 127.000752 
" style="fill:none;"/>
    <defs>
     <path d="M -0 10 
L 10 -10 
L -10 -10 
z
" id="m1b51f8a455" style="stroke:#000000;stroke-linejoin:miter;stroke-width:2;"/>
    </defs>
    <g clip-path="url(#p41cdd31f5d)">
     <use style="fill:#00bfbf;stroke:#000000;stroke-linejoin:miter;stroke-width:2;" x="41.159282" xlink:href="#m1b51f8a455" y="155.734376"/>
     <use style="fill:#00bfbf;stroke:#000000;stroke-linejoin:miter;stroke-width:2;" x="86.143838" xlink:href="#m1b51f8a455" y="156.568022"/>
     <use style="fill:#00bfbf;stroke:#000000;stroke-linejoin:miter;stroke-width:2;" x="142.817676" xlink:href="#m1b51f8a455" y="149.344715"/>
     <use style="fill:#00bfbf;stroke:#000000;stroke-linejoin:miter;stroke-width:2;" x="219.719282" xlink:href="#m1b51f8a455" y="141.194292"/>
     <use style="fill:#00bfbf;stroke:#000000;stroke-linejoin:miter;stroke-width:2;" x="296.620888" xlink:href="#m1b51f8a455" y="127.000752"/>
    </g>
   </g>
   <g id="line2d_99">
    <path clip-path="url(#p41cdd31f5d)" d="M 35.872161 143.499262 
L 39.573146 140.934449 
L 35.872161 131.786199 
L 46.446403 131.786199 
L 42.745418 140.934449 
L 46.446403 143.499262 
L 35.872161 143.499262 
" style="fill:none;stroke:#008000;stroke-linecap:square;"/>
   </g>
   <g id="line2d_100">
    <path clip-path="url(#p41cdd31f5d)" d="M 35.872161 143.499262 
L 46.446403 143.499262 
L 46.446403 131.786199 
L 35.872161 131.786199 
L 35.872161 143.499262 
" style="fill:none;"/>
    <defs>
     <path d="M 0 1.5 
C 0.397805 1.5 0.77937 1.341951 1.06066 1.06066 
C 1.341951 0.77937 1.5 0.397805 1.5 0 
C 1.5 -0.397805 1.341951 -0.77937 1.06066 -1.06066 
C 0.77937 -1.341951 0.397805 -1.5 0 -1.5 
C -0.397805 -1.5 -0.77937 -1.341951 -1.06066 -1.06066 
C -1.341951 -0.77937 -1.5 -0.397805 -1.5 0 
C -1.5 0.397805 -1.341951 0.77937 -1.06066 1.06066 
C -0.77937 1.341951 -0.397805 1.5 0 1.5 
z
" id="m5350610a2a" style="stroke:#008000;"/>
    </defs>
    <g clip-path="url(#p41cdd31f5d)">
     <use style="fill:#008000;stroke:#008000;" x="35.872161" xlink:href="#m5350610a2a" y="143.499262"/>
     <use style="fill:#008000;stroke:#008000;" x="46.446403" xlink:href="#m5350610a2a" y="143.499262"/>
     <use style="fill:#008000;stroke:#008000;" x="46.446403" xlink:href="#m5350610a2a" y="131.786199"/>
     <use style="fill:#008000;stroke:#008000;" x="35.872161" xlink:href="#m5350610a2a" y="131.786199"/>
     <use style="fill:#008000;stroke:#008000;" x="35.872161" xlink:href="#m5350610a2a" y="143.499262"/>
    </g>
   </g>
   <g id="line2d_101">
    <path clip-path="url(#p41cdd31f5d)" d="M 35.872161 140.934449 
L 46.446403 140.934449 
" style="fill:none;stroke:#008000;stroke-linecap:square;stroke-width:2;"/>
   </g>
   <g id="line2d_102">
    <path clip-path="url(#p41cdd31f5d)" d="M 80.856717 145.94628 
L 84.557702 137.828666 
L 80.856717 127.284242 
L 91.430959 127.284242 
L 87.729974 137.828666 
L 91.430959 145.94628 
L 80.856717 145.94628 
" style="fill:none;stroke:#008000;stroke-linecap:square;"/>
   </g>
   <g id="line2d_103">
    <path clip-path="url(#p41cdd31f5d)" d="M 80.856717 145.94628 
L 91.430959 145.94628 
L 91.430959 127.284242 
L 80.856717 127.284242 
L 80.856717 145.94628 
" style="fill:none;"/>
    <g clip-path="url(#p41cdd31f5d)">
     <use style="fill:#008000;stroke:#008000;" x="80.856717" xlink:href="#m5350610a2a" y="145.94628"/>
     <use style="fill:#008000;stroke:#008000;" x="91.430959" xlink:href="#m5350610a2a" y="145.94628"/>
     <use style="fill:#008000;stroke:#008000;" x="91.430959" xlink:href="#m5350610a2a" y="127.284242"/>
     <use style="fill:#008000;stroke:#008000;" x="80.856717" xlink:href="#m5350610a2a" y="127.284242"/>
     <use style="fill:#008000;stroke:#008000;" x="80.856717" xlink:href="#m5350610a2a" y="145.94628"/>
    </g>
   </g>
   <g id="line2d_104">
    <path clip-path="url(#p41cdd31f5d)" d="M 80.856717 137.828666 
L 91.430959 137.828666 
" style="fill:none;stroke:#008000;stroke-linecap:square;stroke-width:2;"/>
   </g>
   <g id="line2d_105">
    <path clip-path="url(#p41cdd31f5d)" d="M 137.530555 136.899782 
L 141.23154 136.618201 
L 137.530555 135.93664 
L 148.104797 135.93664 
L 144.403812 136.618201 
L 148.104797 136.899782 
L 137.530555 136.899782 
" style="fill:none;stroke:#008000;stroke-linecap:square;"/>
   </g>
   <g id="line2d_106">
    <path clip-path="url(#p41cdd31f5d)" d="M 137.530555 136.899782 
L 148.104797 136.899782 
L 148.104797 135.93664 
L 137.530555 135.93664 
L 137.530555 136.899782 
" style="fill:none;"/>
    <g clip-path="url(#p41cdd31f5d)">
     <use style="fill:#008000;stroke:#008000;" x="137.530555" xlink:href="#m5350610a2a" y="136.899782"/>
     <use style="fill:#008000;stroke:#008000;" x="148.104797" xlink:href="#m5350610a2a" y="136.899782"/>
     <use style="fill:#008000;stroke:#008000;" x="148.104797" xlink:href="#m5350610a2a" y="135.93664"/>
     <use style="fill:#008000;stroke:#008000;" x="137.530555" xlink:href="#m5350610a2a" y="135.93664"/>
     <use style="fill:#008000;stroke:#008000;" x="137.530555" xlink:href="#m5350610a2a" y="136.899782"/>
    </g>
   </g>
   <g id="line2d_107">
    <path clip-path="url(#p41cdd31f5d)" d="M 137.530555 136.618201 
L 148.104797 136.618201 
" style="fill:none;stroke:#008000;stroke-linecap:square;stroke-width:2;"/>
   </g>
   <g id="line2d_108">
    <path clip-path="url(#p41cdd31f5d)" d="M 214.432161 130.794072 
L 218.133146 130.263445 
L 214.432161 128.154739 
L 225.006403 128.154739 
L 221.305418 130.263445 
L 225.006403 130.794072 
L 214.432161 130.794072 
" style="fill:none;stroke:#008000;stroke-linecap:square;"/>
   </g>
   <g id="line2d_109">
    <path clip-path="url(#p41cdd31f5d)" d="M 214.432161 130.794072 
L 225.006403 130.794072 
L 225.006403 128.154739 
L 214.432161 128.154739 
L 214.432161 130.794072 
" style="fill:none;"/>
    <g clip-path="url(#p41cdd31f5d)">
     <use style="fill:#008000;stroke:#008000;" x="214.432161" xlink:href="#m5350610a2a" y="130.794072"/>
     <use style="fill:#008000;stroke:#008000;" x="225.006403" xlink:href="#m5350610a2a" y="130.794072"/>
     <use style="fill:#008000;stroke:#008000;" x="225.006403" xlink:href="#m5350610a2a" y="128.154739"/>
     <use style="fill:#008000;stroke:#008000;" x="214.432161" xlink:href="#m5350610a2a" y="128.154739"/>
     <use style="fill:#008000;stroke:#008000;" x="214.432161" xlink:href="#m5350610a2a" y="130.794072"/>
    </g>
   </g>
   <g id="line2d_110">
    <path clip-path="url(#p41cdd31f5d)" d="M 214.432161 130.263445 
L 225.006403 130.263445 
" style="fill:none;stroke:#008000;stroke-linecap:square;stroke-width:2;"/>
   </g>
   <g id="line2d_111">
    <path clip-path="url(#p41cdd31f5d)" d="M 291.333767 117.456785 
L 295.034752 117.456785 
L 291.333767 117.248354 
L 301.908009 117.248354 
L 298.207025 117.456785 
L 301.908009 117.456785 
L 291.333767 117.456785 
" style="fill:none;stroke:#008000;stroke-linecap:square;"/>
   </g>
   <g id="line2d_112">
    <path clip-path="url(#p41cdd31f5d)" d="M 291.333767 117.456785 
L 301.908009 117.456785 
L 301.908009 117.248354 
L 291.333767 117.248354 
L 291.333767 117.456785 
" style="fill:none;"/>
    <g clip-path="url(#p41cdd31f5d)">
     <use style="fill:#008000;stroke:#008000;" x="291.333767" xlink:href="#m5350610a2a" y="117.456785"/>
     <use style="fill:#008000;stroke:#008000;" x="301.908009" xlink:href="#m5350610a2a" y="117.456785"/>
     <use style="fill:#008000;stroke:#008000;" x="301.908009" xlink:href="#m5350610a2a" y="117.248354"/>
     <use style="fill:#008000;stroke:#008000;" x="291.333767" xlink:href="#m5350610a2a" y="117.248354"/>
     <use style="fill:#008000;stroke:#008000;" x="291.333767" xlink:href="#m5350610a2a" y="117.456785"/>
    </g>
   </g>
   <g id="line2d_113">
    <path clip-path="url(#p41cdd31f5d)" d="M 291.333767 117.456785 
L 301.908009 117.456785 
" style="fill:none;stroke:#008000;stroke-linecap:square;stroke-width:2;"/>
   </g>
   <g id="line2d_114">
    <path clip-path="url(#p41cdd31f5d)" d="M 41.159282 141.997086 
L 86.143838 141.813976 
" style="fill:none;stroke:#008000;stroke-linecap:square;stroke-width:4;"/>
   </g>
   <g id="line2d_115">
    <path clip-path="url(#p41cdd31f5d)" d="M 86.143838 141.813976 
L 142.817676 136.157929 
" style="fill:none;stroke:#008000;stroke-linecap:square;stroke-width:4;"/>
   </g>
   <g id="line2d_116">
    <path clip-path="url(#p41cdd31f5d)" d="M 142.817676 136.157929 
L 219.719282 128.633125 
" style="fill:none;stroke:#008000;stroke-linecap:square;stroke-width:4;"/>
   </g>
   <g id="line2d_117">
    <path clip-path="url(#p41cdd31f5d)" d="M 219.719282 128.633125 
L 296.620888 117.333543 
" style="fill:none;stroke:#008000;stroke-linecap:square;stroke-width:4;"/>
   </g>
   <g id="line2d_118">
    <path clip-path="url(#p41cdd31f5d)" d="M 41.159282 141.997086 
L 86.143838 141.813976 
L 142.817676 136.157929 
L 219.719282 128.633125 
L 296.620888 117.333543 
" style="fill:none;"/>
    <defs>
     <path d="M 0 5 
C 1.326016 5 2.597899 4.473168 3.535534 3.535534 
C 4.473168 2.597899 5 1.326016 5 0 
C 5 -1.326016 4.473168 -2.597899 3.535534 -3.535534 
C 2.597899 -4.473168 1.326016 -5 0 -5 
C -1.326016 -5 -2.597899 -4.473168 -3.535534 -3.535534 
C -4.473168 -2.597899 -5 -1.326016 -5 0 
C -5 1.326016 -4.473168 2.597899 -3.535534 3.535534 
C -2.597899 4.473168 -1.326016 5 0 5 
z
" id="m2fe3ead743" style="stroke:#008000;"/>
    </defs>
    <g clip-path="url(#p41cdd31f5d)">
     <use style="fill:#008000;stroke:#008000;" x="41.159282" xlink:href="#m2fe3ead743" y="141.997086"/>
     <use style="fill:#008000;stroke:#008000;" x="86.143838" xlink:href="#m2fe3ead743" y="141.813976"/>
     <use style="fill:#008000;stroke:#008000;" x="142.817676" xlink:href="#m2fe3ead743" y="136.157929"/>
     <use style="fill:#008000;stroke:#008000;" x="219.719282" xlink:href="#m2fe3ead743" y="128.633125"/>
     <use style="fill:#008000;stroke:#008000;" x="296.620888" xlink:href="#m2fe3ead743" y="117.333543"/>
    </g>
   </g>
   <g id="line2d_119">
    <path clip-path="url(#p41cdd31f5d)" d="M 34.990974 140.934449 
L 39.30879 122.225976 
L 34.990974 116.830217 
L 47.32759 116.830217 
L 43.009774 122.225976 
L 47.32759 140.934449 
L 34.990974 140.934449 
" style="fill:none;stroke:#bfbf00;stroke-linecap:square;"/>
   </g>
   <g id="line2d_120">
    <path clip-path="url(#p41cdd31f5d)" d="M 34.990974 140.934449 
L 47.32759 140.934449 
L 47.32759 116.830217 
L 34.990974 116.830217 
L 34.990974 140.934449 
" style="fill:none;"/>
    <defs>
     <path d="M 0 -3 
L -3 3 
L 3 3 
z
" id="mf88c1935c7" style="stroke:#bfbf00;stroke-linejoin:miter;stroke-width:2;"/>
    </defs>
    <g clip-path="url(#p41cdd31f5d)">
     <use style="fill:#bfbf00;stroke:#bfbf00;stroke-linejoin:miter;stroke-width:2;" x="34.990974" xlink:href="#mf88c1935c7" y="140.934449"/>
     <use style="fill:#bfbf00;stroke:#bfbf00;stroke-linejoin:miter;stroke-width:2;" x="47.32759" xlink:href="#mf88c1935c7" y="140.934449"/>
     <use style="fill:#bfbf00;stroke:#bfbf00;stroke-linejoin:miter;stroke-width:2;" x="47.32759" xlink:href="#mf88c1935c7" y="116.830217"/>
     <use style="fill:#bfbf00;stroke:#bfbf00;stroke-linejoin:miter;stroke-width:2;" x="34.990974" xlink:href="#mf88c1935c7" y="116.830217"/>
     <use style="fill:#bfbf00;stroke:#bfbf00;stroke-linejoin:miter;stroke-width:2;" x="34.990974" xlink:href="#mf88c1935c7" y="140.934449"/>
    </g>
   </g>
   <g id="line2d_121">
    <path clip-path="url(#p41cdd31f5d)" d="M 34.990974 122.225976 
L 47.32759 122.225976 
" style="fill:none;stroke:#bfbf00;stroke-linecap:square;stroke-width:2;"/>
   </g>
   <g id="line2d_122">
    <path clip-path="url(#p41cdd31f5d)" d="M 79.97553 126.891623 
L 84.293346 120.759278 
L 79.97553 118.179591 
L 92.312146 118.179591 
L 87.99433 120.759278 
L 92.312146 126.891623 
L 79.97553 126.891623 
" style="fill:none;stroke:#bfbf00;stroke-linecap:square;"/>
   </g>
   <g id="line2d_123">
    <path clip-path="url(#p41cdd31f5d)" d="M 79.97553 126.891623 
L 92.312146 126.891623 
L 92.312146 118.179591 
L 79.97553 118.179591 
L 79.97553 126.891623 
" style="fill:none;"/>
    <g clip-path="url(#p41cdd31f5d)">
     <use style="fill:#bfbf00;stroke:#bfbf00;stroke-linejoin:miter;stroke-width:2;" x="79.97553" xlink:href="#mf88c1935c7" y="126.891623"/>
     <use style="fill:#bfbf00;stroke:#bfbf00;stroke-linejoin:miter;stroke-width:2;" x="92.312146" xlink:href="#mf88c1935c7" y="126.891623"/>
     <use style="fill:#bfbf00;stroke:#bfbf00;stroke-linejoin:miter;stroke-width:2;" x="92.312146" xlink:href="#mf88c1935c7" y="118.179591"/>
     <use style="fill:#bfbf00;stroke:#bfbf00;stroke-linejoin:miter;stroke-width:2;" x="79.97553" xlink:href="#mf88c1935c7" y="118.179591"/>
     <use style="fill:#bfbf00;stroke:#bfbf00;stroke-linejoin:miter;stroke-width:2;" x="79.97553" xlink:href="#mf88c1935c7" y="126.891623"/>
    </g>
   </g>
   <g id="line2d_124">
    <path clip-path="url(#p41cdd31f5d)" d="M 79.97553 120.759278 
L 92.312146 120.759278 
" style="fill:none;stroke:#bfbf00;stroke-linecap:square;stroke-width:2;"/>
   </g>
   <g id="line2d_125">
    <path clip-path="url(#p41cdd31f5d)" d="M 136.649368 125.777495 
L 140.967184 122.164133 
L 136.649368 121.570018 
L 148.985984 121.570018 
L 144.668168 122.164133 
L 148.985984 125.777495 
L 136.649368 125.777495 
" style="fill:none;stroke:#bfbf00;stroke-linecap:square;"/>
   </g>
   <g id="line2d_126">
    <path clip-path="url(#p41cdd31f5d)" d="M 136.649368 125.777495 
L 148.985984 125.777495 
L 148.985984 121.570018 
L 136.649368 121.570018 
L 136.649368 125.777495 
" style="fill:none;"/>
    <g clip-path="url(#p41cdd31f5d)">
     <use style="fill:#bfbf00;stroke:#bfbf00;stroke-linejoin:miter;stroke-width:2;" x="136.649368" xlink:href="#mf88c1935c7" y="125.777495"/>
     <use style="fill:#bfbf00;stroke:#bfbf00;stroke-linejoin:miter;stroke-width:2;" x="148.985984" xlink:href="#mf88c1935c7" y="125.777495"/>
     <use style="fill:#bfbf00;stroke:#bfbf00;stroke-linejoin:miter;stroke-width:2;" x="148.985984" xlink:href="#mf88c1935c7" y="121.570018"/>
     <use style="fill:#bfbf00;stroke:#bfbf00;stroke-linejoin:miter;stroke-width:2;" x="136.649368" xlink:href="#mf88c1935c7" y="121.570018"/>
     <use style="fill:#bfbf00;stroke:#bfbf00;stroke-linejoin:miter;stroke-width:2;" x="136.649368" xlink:href="#mf88c1935c7" y="125.777495"/>
    </g>
   </g>
   <g id="line2d_127">
    <path clip-path="url(#p41cdd31f5d)" d="M 136.649368 122.164133 
L 148.985984 122.164133 
" style="fill:none;stroke:#bfbf00;stroke-linecap:square;stroke-width:2;"/>
   </g>
   <g id="line2d_128">
    <path clip-path="url(#p41cdd31f5d)" d="M 213.550974 120.751765 
L 217.86879 118.197264 
L 213.550974 116.009954 
L 225.88759 116.009954 
L 221.569774 118.197264 
L 225.88759 120.751765 
L 213.550974 120.751765 
" style="fill:none;stroke:#bfbf00;stroke-linecap:square;"/>
   </g>
   <g id="line2d_129">
    <path clip-path="url(#p41cdd31f5d)" d="M 213.550974 120.751765 
L 225.88759 120.751765 
L 225.88759 116.009954 
L 213.550974 116.009954 
L 213.550974 120.751765 
" style="fill:none;"/>
    <g clip-path="url(#p41cdd31f5d)">
     <use style="fill:#bfbf00;stroke:#bfbf00;stroke-linejoin:miter;stroke-width:2;" x="213.550974" xlink:href="#mf88c1935c7" y="120.751765"/>
     <use style="fill:#bfbf00;stroke:#bfbf00;stroke-linejoin:miter;stroke-width:2;" x="225.88759" xlink:href="#mf88c1935c7" y="120.751765"/>
     <use style="fill:#bfbf00;stroke:#bfbf00;stroke-linejoin:miter;stroke-width:2;" x="225.88759" xlink:href="#mf88c1935c7" y="116.009954"/>
     <use style="fill:#bfbf00;stroke:#bfbf00;stroke-linejoin:miter;stroke-width:2;" x="213.550974" xlink:href="#mf88c1935c7" y="116.009954"/>
     <use style="fill:#bfbf00;stroke:#bfbf00;stroke-linejoin:miter;stroke-width:2;" x="213.550974" xlink:href="#mf88c1935c7" y="120.751765"/>
    </g>
   </g>
   <g id="line2d_130">
    <path clip-path="url(#p41cdd31f5d)" d="M 213.550974 118.197264 
L 225.88759 118.197264 
" style="fill:none;stroke:#bfbf00;stroke-linecap:square;stroke-width:2;"/>
   </g>
   <g id="line2d_131">
    <path clip-path="url(#p41cdd31f5d)" d="M 290.452581 108.161914 
L 294.770396 96.930236 
L 290.452581 85.927634 
L 302.789196 85.927634 
L 298.471381 96.930236 
L 302.789196 108.161914 
L 290.452581 108.161914 
" style="fill:none;stroke:#bfbf00;stroke-linecap:square;"/>
   </g>
   <g id="line2d_132">
    <path clip-path="url(#p41cdd31f5d)" d="M 290.452581 108.161914 
L 302.789196 108.161914 
L 302.789196 85.927634 
L 290.452581 85.927634 
L 290.452581 108.161914 
" style="fill:none;"/>
    <g clip-path="url(#p41cdd31f5d)">
     <use style="fill:#bfbf00;stroke:#bfbf00;stroke-linejoin:miter;stroke-width:2;" x="290.452581" xlink:href="#mf88c1935c7" y="108.161914"/>
     <use style="fill:#bfbf00;stroke:#bfbf00;stroke-linejoin:miter;stroke-width:2;" x="302.789196" xlink:href="#mf88c1935c7" y="108.161914"/>
     <use style="fill:#bfbf00;stroke:#bfbf00;stroke-linejoin:miter;stroke-width:2;" x="302.789196" xlink:href="#mf88c1935c7" y="85.927634"/>
     <use style="fill:#bfbf00;stroke:#bfbf00;stroke-linejoin:miter;stroke-width:2;" x="290.452581" xlink:href="#mf88c1935c7" y="85.927634"/>
     <use style="fill:#bfbf00;stroke:#bfbf00;stroke-linejoin:miter;stroke-width:2;" x="290.452581" xlink:href="#mf88c1935c7" y="108.161914"/>
    </g>
   </g>
   <g id="line2d_133">
    <path clip-path="url(#p41cdd31f5d)" d="M 290.452581 96.930236 
L 302.789196 96.930236 
" style="fill:none;stroke:#bfbf00;stroke-linecap:square;stroke-width:2;"/>
   </g>
   <g id="line2d_134">
    <path clip-path="url(#p41cdd31f5d)" d="M 41.159282 123.101462 
L 86.143838 122.317152 
" style="fill:none;stroke:#bfbf00;stroke-linecap:square;stroke-width:4;"/>
   </g>
   <g id="line2d_135">
    <path clip-path="url(#p41cdd31f5d)" d="M 86.143838 122.317152 
L 142.817676 121.572757 
" style="fill:none;stroke:#bfbf00;stroke-linecap:square;stroke-width:4;"/>
   </g>
   <g id="line2d_136">
    <path clip-path="url(#p41cdd31f5d)" d="M 142.817676 121.572757 
L 219.719282 118.444203 
" style="fill:none;stroke:#bfbf00;stroke-linecap:square;stroke-width:4;"/>
   </g>
   <g id="line2d_137">
    <path clip-path="url(#p41cdd31f5d)" d="M 219.719282 118.444203 
L 296.620888 93.091585 
" style="fill:none;stroke:#bfbf00;stroke-linecap:square;stroke-width:4;"/>
   </g>
   <g id="line2d_138">
    <path clip-path="url(#p41cdd31f5d)" d="M 41.159282 123.101462 
L 86.143838 122.317152 
L 142.817676 121.572757 
L 219.719282 118.444203 
L 296.620888 93.091585 
" style="fill:none;"/>
    <defs>
     <path d="M 0 -10 
L -10 10 
L 10 10 
z
" id="m3700716830" style="stroke:#000000;stroke-linejoin:miter;stroke-width:2;"/>
    </defs>
    <g clip-path="url(#p41cdd31f5d)">
     <use style="fill:#bfbf00;stroke:#000000;stroke-linejoin:miter;stroke-width:2;" x="41.159282" xlink:href="#m3700716830" y="123.101462"/>
     <use style="fill:#bfbf00;stroke:#000000;stroke-linejoin:miter;stroke-width:2;" x="86.143838" xlink:href="#m3700716830" y="122.317152"/>
     <use style="fill:#bfbf00;stroke:#000000;stroke-linejoin:miter;stroke-width:2;" x="142.817676" xlink:href="#m3700716830" y="121.572757"/>
     <use style="fill:#bfbf00;stroke:#000000;stroke-linejoin:miter;stroke-width:2;" x="219.719282" xlink:href="#m3700716830" y="118.444203"/>
     <use style="fill:#bfbf00;stroke:#000000;stroke-linejoin:miter;stroke-width:2;" x="296.620888" xlink:href="#m3700716830" y="93.091585"/>
    </g>
   </g>
   <g id="line2d_139">
    <path clip-path="url(#p41cdd31f5d)" d="M 34.109787 94.681425 
L 39.044434 80.674883 
L 34.109787 72.555252 
L 48.208777 72.555252 
L 43.27413 80.674883 
L 48.208777 94.681425 
L 34.109787 94.681425 
" style="fill:none;stroke:#bf00bf;stroke-linecap:square;"/>
   </g>
   <g id="line2d_140">
    <path clip-path="url(#p41cdd31f5d)" d="M 34.109787 94.681425 
L 48.208777 94.681425 
L 48.208777 72.555252 
L 34.109787 72.555252 
L 34.109787 94.681425 
" style="fill:none;"/>
    <defs>
     <path d="M 0 1.5 
C 0.397805 1.5 0.77937 1.341951 1.06066 1.06066 
C 1.341951 0.77937 1.5 0.397805 1.5 0 
C 1.5 -0.397805 1.341951 -0.77937 1.06066 -1.06066 
C 0.77937 -1.341951 0.397805 -1.5 0 -1.5 
C -0.397805 -1.5 -0.77937 -1.341951 -1.06066 -1.06066 
C -1.341951 -0.77937 -1.5 -0.397805 -1.5 0 
C -1.5 0.397805 -1.341951 0.77937 -1.06066 1.06066 
C -0.77937 1.341951 -0.397805 1.5 0 1.5 
z
" id="m3dc685d0c9" style="stroke:#bf00bf;"/>
    </defs>
    <g clip-path="url(#p41cdd31f5d)">
     <use style="fill:#bf00bf;stroke:#bf00bf;" x="34.109787" xlink:href="#m3dc685d0c9" y="94.681425"/>
     <use style="fill:#bf00bf;stroke:#bf00bf;" x="48.208777" xlink:href="#m3dc685d0c9" y="94.681425"/>
     <use style="fill:#bf00bf;stroke:#bf00bf;" x="48.208777" xlink:href="#m3dc685d0c9" y="72.555252"/>
     <use style="fill:#bf00bf;stroke:#bf00bf;" x="34.109787" xlink:href="#m3dc685d0c9" y="72.555252"/>
     <use style="fill:#bf00bf;stroke:#bf00bf;" x="34.109787" xlink:href="#m3dc685d0c9" y="94.681425"/>
    </g>
   </g>
   <g id="line2d_141">
    <path clip-path="url(#p41cdd31f5d)" d="M 34.109787 80.674883 
L 48.208777 80.674883 
" style="fill:none;stroke:#bf00bf;stroke-linecap:square;stroke-width:2;"/>
   </g>
   <g id="line2d_142">
    <path clip-path="url(#p41cdd31f5d)" d="M 79.094343 83.560847 
L 84.02899 75.855617 
L 79.094343 63.246352 
L 93.193332 63.246352 
L 88.258686 75.855617 
L 93.193332 83.560847 
L 79.094343 83.560847 
" style="fill:none;stroke:#bf00bf;stroke-linecap:square;"/>
   </g>
   <g id="line2d_143">
    <path clip-path="url(#p41cdd31f5d)" d="M 79.094343 83.560847 
L 93.193332 83.560847 
L 93.193332 63.246352 
L 79.094343 63.246352 
L 79.094343 83.560847 
" style="fill:none;"/>
    <g clip-path="url(#p41cdd31f5d)">
     <use style="fill:#bf00bf;stroke:#bf00bf;" x="79.094343" xlink:href="#m3dc685d0c9" y="83.560847"/>
     <use style="fill:#bf00bf;stroke:#bf00bf;" x="93.193332" xlink:href="#m3dc685d0c9" y="83.560847"/>
     <use style="fill:#bf00bf;stroke:#bf00bf;" x="93.193332" xlink:href="#m3dc685d0c9" y="63.246352"/>
     <use style="fill:#bf00bf;stroke:#bf00bf;" x="79.094343" xlink:href="#m3dc685d0c9" y="63.246352"/>
     <use style="fill:#bf00bf;stroke:#bf00bf;" x="79.094343" xlink:href="#m3dc685d0c9" y="83.560847"/>
    </g>
   </g>
   <g id="line2d_144">
    <path clip-path="url(#p41cdd31f5d)" d="M 79.094343 75.855617 
L 93.193332 75.855617 
" style="fill:none;stroke:#bf00bf;stroke-linecap:square;stroke-width:2;"/>
   </g>
   <g id="line2d_145">
    <path clip-path="url(#p41cdd31f5d)" d="M 135.768181 79.798383 
L 140.702827 77.380522 
L 135.768181 67.57094 
L 149.86717 67.57094 
L 144.932524 77.380522 
L 149.86717 79.798383 
L 135.768181 79.798383 
" style="fill:none;stroke:#bf00bf;stroke-linecap:square;"/>
   </g>
   <g id="line2d_146">
    <path clip-path="url(#p41cdd31f5d)" d="M 135.768181 79.798383 
L 149.86717 79.798383 
L 149.86717 67.57094 
L 135.768181 67.57094 
L 135.768181 79.798383 
" style="fill:none;"/>
    <g clip-path="url(#p41cdd31f5d)">
     <use style="fill:#bf00bf;stroke:#bf00bf;" x="135.768181" xlink:href="#m3dc685d0c9" y="79.798383"/>
     <use style="fill:#bf00bf;stroke:#bf00bf;" x="149.86717" xlink:href="#m3dc685d0c9" y="79.798383"/>
     <use style="fill:#bf00bf;stroke:#bf00bf;" x="149.86717" xlink:href="#m3dc685d0c9" y="67.57094"/>
     <use style="fill:#bf00bf;stroke:#bf00bf;" x="135.768181" xlink:href="#m3dc685d0c9" y="67.57094"/>
     <use style="fill:#bf00bf;stroke:#bf00bf;" x="135.768181" xlink:href="#m3dc685d0c9" y="79.798383"/>
    </g>
   </g>
   <g id="line2d_147">
    <path clip-path="url(#p41cdd31f5d)" d="M 135.768181 77.380522 
L 149.86717 77.380522 
" style="fill:none;stroke:#bf00bf;stroke-linecap:square;stroke-width:2;"/>
   </g>
   <g id="line2d_148">
    <path clip-path="url(#p41cdd31f5d)" d="M 41.159282 69.084333 
L 86.143838 68.886736 
" style="fill:none;stroke:#bf00bf;stroke-linecap:square;stroke-width:4;"/>
   </g>
   <g id="line2d_149">
    <path clip-path="url(#p41cdd31f5d)" d="M 86.143838 68.886736 
L 142.817676 66.392173 
" style="fill:none;stroke:#bf00bf;stroke-linecap:square;stroke-width:4;"/>
   </g>
   <g id="line2d_150">
    <path clip-path="url(#p41cdd31f5d)" d="M 41.159282 69.084333 
L 86.143838 68.886736 
L 142.817676 66.392173 
" style="fill:none;"/>
    <defs>
     <path d="M 0 5 
C 1.326016 5 2.597899 4.473168 3.535534 3.535534 
C 4.473168 2.597899 5 1.326016 5 0 
C 5 -1.326016 4.473168 -2.597899 3.535534 -3.535534 
C 2.597899 -4.473168 1.326016 -5 0 -5 
C -1.326016 -5 -2.597899 -4.473168 -3.535534 -3.535534 
C -4.473168 -2.597899 -5 -1.326016 -5 0 
C -5 1.326016 -4.473168 2.597899 -3.535534 3.535534 
C -2.597899 4.473168 -1.326016 5 0 5 
z
" id="m19f9d3ecf4" style="stroke:#bf00bf;"/>
    </defs>
    <g clip-path="url(#p41cdd31f5d)">
     <use style="fill:#bf00bf;stroke:#bf00bf;" x="41.159282" xlink:href="#m19f9d3ecf4" y="69.084333"/>
     <use style="fill:#bf00bf;stroke:#bf00bf;" x="86.143838" xlink:href="#m19f9d3ecf4" y="68.886736"/>
     <use style="fill:#bf00bf;stroke:#bf00bf;" x="142.817676" xlink:href="#m19f9d3ecf4" y="66.392173"/>
    </g>
   </g>
   <g id="line2d_151"/>
   <g id="line2d_152"/>
   <g id="line2d_153"/>
   <g id="line2d_154"/>
   <g id="line2d_155"/>
   <g id="line2d_156"/>
   <g id="line2d_157"/>
   <g id="line2d_158">
    <defs>
     <path d="M -10 10 
L 10 -10 
M -10 -10 
L 10 10 
" id="mca9c7a211d" style="stroke:#ff0000;"/>
    </defs>
    <g clip-path="url(#p41cdd31f5d)">
     <use style="fill:#ff0000;stroke:#ff0000;" x="41.159282" xlink:href="#mca9c7a211d" y="106.06226"/>
     <use style="fill:#ff0000;stroke:#ff0000;" x="86.143838" xlink:href="#mca9c7a211d" y="107.388312"/>
     <use style="fill:#ff0000;stroke:#ff0000;" x="142.817676" xlink:href="#mca9c7a211d" y="107.007771"/>
     <use style="fill:#ff0000;stroke:#ff0000;" x="219.719282" xlink:href="#mca9c7a211d" y="106.681217"/>
     <use style="fill:#ff0000;stroke:#ff0000;" x="296.620888" xlink:href="#mca9c7a211d" y="106.359901"/>
    </g>
   </g>
   <g id="line2d_159">
    <path clip-path="url(#p41cdd31f5d)" d="M -1 333.215822 
L 398.29 275.446838 
" style="fill:none;stroke:#000000;stroke-dasharray:0.5,0.825;stroke-dashoffset:0;stroke-width:0.5;"/>
   </g>
   <g id="line2d_160">
    <path clip-path="url(#p41cdd31f5d)" d="M -1 259.295827 
L 398.29 201.526842 
" style="fill:none;stroke:#000000;stroke-dasharray:0.5,0.825;stroke-dashoffset:0;stroke-width:0.5;"/>
   </g>
   <g id="line2d_161">
    <path clip-path="url(#p41cdd31f5d)" d="M -1 185.375831 
L 398.29 127.606847 
" style="fill:none;stroke:#000000;stroke-dasharray:0.5,0.825;stroke-dashoffset:0;stroke-width:0.5;"/>
   </g>
   <g id="line2d_162">
    <path clip-path="url(#p41cdd31f5d)" d="M -1 111.455836 
L 398.29 53.686851 
" style="fill:none;stroke:#000000;stroke-dasharray:0.5,0.825;stroke-dashoffset:0;stroke-width:0.5;"/>
   </g>
   <g id="line2d_163">
    <path clip-path="url(#p41cdd31f5d)" d="M -1 37.53584 
L 265.353577 -1 
" style="fill:none;stroke:#000000;stroke-dasharray:0.5,0.825;stroke-dashoffset:0;stroke-width:0.5;"/>
   </g>
   <g id="patch_3">
    <path d="M 29.47 297.54825 
L 29.47 31.43625 
" style="fill:none;stroke:#000000;stroke-linecap:square;stroke-linejoin:miter;stroke-width:0.8;"/>
   </g>
   <g id="patch_4">
    <path d="M 386.59 297.54825 
L 386.59 31.43625 
" style="fill:none;stroke:#000000;stroke-linecap:square;stroke-linejoin:miter;stroke-width:0.8;"/>
   </g>
   <g id="patch_5">
    <path d="M 29.47 297.54825 
L 386.59 297.54825 
" style="fill:none;stroke:#000000;stroke-linecap:square;stroke-linejoin:miter;stroke-width:0.8;"/>
   </g>
   <g id="patch_6">
    <path d="M 29.47 31.43625 
L 386.59 31.43625 
" style="fill:none;stroke:#000000;stroke-linecap:square;stroke-linejoin:miter;stroke-width:0.8;"/>
   </g>
   <g id="text_15">
    <!-- 1 -->
    <g transform="translate(34.669532 58.333438)scale(0.204 -0.204)">
     <use xlink:href="#DejaVuSans-31"/>
    </g>
   </g>
   <g id="text_16">
    <!-- 1 -->
    <g transform="translate(79.654088 58.135841)scale(0.204 -0.204)">
     <use xlink:href="#DejaVuSans-31"/>
    </g>
   </g>
   <g id="text_17">
    <!-- 6 -->
    <g transform="translate(290.131138 82.34069)scale(0.204 -0.204)">
     <use xlink:href="#DejaVuSans-36"/>
    </g>
   </g>
   <g id="text_18">
    <!-- 1 -->
    <g transform="translate(136.327926 55.641278)scale(0.204 -0.204)">
     <use xlink:href="#DejaVuSans-31"/>
    </g>
   </g>
   <g id="text_19">
    <!-- 15 instances -->
    <defs>
     <path id="DejaVuSans-20"/>
     <path d="M 9.421875 54.6875 
L 18.40625 54.6875 
L 18.40625 0 
L 9.421875 0 
z
M 9.421875 75.984375 
L 18.40625 75.984375 
L 18.40625 64.59375 
L 9.421875 64.59375 
z
" id="DejaVuSans-69"/>
     <path d="M 54.890625 33.015625 
L 54.890625 0 
L 45.90625 0 
L 45.90625 32.71875 
Q 45.90625 40.484375 42.875 44.328125 
Q 39.84375 48.1875 33.796875 48.1875 
Q 26.515625 48.1875 22.3125 43.546875 
Q 18.109375 38.921875 18.109375 30.90625 
L 18.109375 0 
L 9.078125 0 
L 9.078125 54.6875 
L 18.109375 54.6875 
L 18.109375 46.1875 
Q 21.34375 51.125 25.703125 53.5625 
Q 30.078125 56 35.796875 56 
Q 45.21875 56 50.046875 50.171875 
Q 54.890625 44.34375 54.890625 33.015625 
z
" id="DejaVuSans-6e"/>
     <path d="M 44.28125 53.078125 
L 44.28125 44.578125 
Q 40.484375 46.53125 36.375 47.5 
Q 32.28125 48.484375 27.875 48.484375 
Q 21.1875 48.484375 17.84375 46.4375 
Q 14.5 44.390625 14.5 40.28125 
Q 14.5 37.15625 16.890625 35.375 
Q 19.28125 33.59375 26.515625 31.984375 
L 29.59375 31.296875 
Q 39.15625 29.25 43.1875 25.515625 
Q 47.21875 21.78125 47.21875 15.09375 
Q 47.21875 7.46875 41.1875 3.015625 
Q 35.15625 -1.421875 24.609375 -1.421875 
Q 20.21875 -1.421875 15.453125 -0.5625 
Q 10.6875 0.296875 5.421875 2 
L 5.421875 11.28125 
Q 10.40625 8.6875 15.234375 7.390625 
Q 20.0625 6.109375 24.8125 6.109375 
Q 31.15625 6.109375 34.5625 8.28125 
Q 37.984375 10.453125 37.984375 14.40625 
Q 37.984375 18.0625 35.515625 20.015625 
Q 33.0625 21.96875 24.703125 23.78125 
L 21.578125 24.515625 
Q 13.234375 26.265625 9.515625 29.90625 
Q 5.8125 33.546875 5.8125 39.890625 
Q 5.8125 47.609375 11.28125 51.796875 
Q 16.75 56 26.8125 56 
Q 31.78125 56 36.171875 55.265625 
Q 40.578125 54.546875 44.28125 53.078125 
z
" id="DejaVuSans-73"/>
     <path d="M 18.3125 70.21875 
L 18.3125 54.6875 
L 36.8125 54.6875 
L 36.8125 47.703125 
L 18.3125 47.703125 
L 18.3125 18.015625 
Q 18.3125 11.328125 20.140625 9.421875 
Q 21.96875 7.515625 27.59375 7.515625 
L 36.8125 7.515625 
L 36.8125 0 
L 27.59375 0 
Q 17.1875 0 13.234375 3.875 
Q 9.28125 7.765625 9.28125 18.015625 
L 9.28125 47.703125 
L 2.6875 47.703125 
L 2.6875 54.6875 
L 9.28125 54.6875 
L 9.28125 70.21875 
z
" id="DejaVuSans-74"/>
     <path d="M 34.28125 27.484375 
Q 23.390625 27.484375 19.1875 25 
Q 14.984375 22.515625 14.984375 16.5 
Q 14.984375 11.71875 18.140625 8.90625 
Q 21.296875 6.109375 26.703125 6.109375 
Q 34.1875 6.109375 38.703125 11.40625 
Q 43.21875 16.703125 43.21875 25.484375 
L 43.21875 27.484375 
z
M 52.203125 31.203125 
L 52.203125 0 
L 43.21875 0 
L 43.21875 8.296875 
Q 40.140625 3.328125 35.546875 0.953125 
Q 30.953125 -1.421875 24.3125 -1.421875 
Q 15.921875 -1.421875 10.953125 3.296875 
Q 6 8.015625 6 15.921875 
Q 6 25.140625 12.171875 29.828125 
Q 18.359375 34.515625 30.609375 34.515625 
L 43.21875 34.515625 
L 43.21875 35.40625 
Q 43.21875 41.609375 39.140625 45 
Q 35.0625 48.390625 27.6875 48.390625 
Q 23 48.390625 18.546875 47.265625 
Q 14.109375 46.140625 10.015625 43.890625 
L 10.015625 52.203125 
Q 14.9375 54.109375 19.578125 55.046875 
Q 24.21875 56 28.609375 56 
Q 40.484375 56 46.34375 49.84375 
Q 52.203125 43.703125 52.203125 31.203125 
z
" id="DejaVuSans-61"/>
     <path d="M 48.78125 52.59375 
L 48.78125 44.1875 
Q 44.96875 46.296875 41.140625 47.34375 
Q 37.3125 48.390625 33.40625 48.390625 
Q 24.65625 48.390625 19.8125 42.84375 
Q 14.984375 37.3125 14.984375 27.296875 
Q 14.984375 17.28125 19.8125 11.734375 
Q 24.65625 6.203125 33.40625 6.203125 
Q 37.3125 6.203125 41.140625 7.25 
Q 44.96875 8.296875 48.78125 10.40625 
L 48.78125 2.09375 
Q 45.015625 0.34375 40.984375 -0.53125 
Q 36.96875 -1.421875 32.421875 -1.421875 
Q 20.0625 -1.421875 12.78125 6.34375 
Q 5.515625 14.109375 5.515625 27.296875 
Q 5.515625 40.671875 12.859375 48.328125 
Q 20.21875 56 33.015625 56 
Q 37.15625 56 41.109375 55.140625 
Q 45.0625 54.296875 48.78125 52.59375 
z
" id="DejaVuSans-63"/>
     <path d="M 56.203125 29.59375 
L 56.203125 25.203125 
L 14.890625 25.203125 
Q 15.484375 15.921875 20.484375 11.0625 
Q 25.484375 6.203125 34.421875 6.203125 
Q 39.59375 6.203125 44.453125 7.46875 
Q 49.3125 8.734375 54.109375 11.28125 
L 54.109375 2.78125 
Q 49.265625 0.734375 44.1875 -0.34375 
Q 39.109375 -1.421875 33.890625 -1.421875 
Q 20.796875 -1.421875 13.15625 6.1875 
Q 5.515625 13.8125 5.515625 26.8125 
Q 5.515625 40.234375 12.765625 48.109375 
Q 20.015625 56 32.328125 56 
Q 43.359375 56 49.78125 48.890625 
Q 56.203125 41.796875 56.203125 29.59375 
z
M 47.21875 32.234375 
Q 47.125 39.59375 43.09375 43.984375 
Q 39.0625 48.390625 32.421875 48.390625 
Q 24.90625 48.390625 20.390625 44.140625 
Q 15.875 39.890625 15.1875 32.171875 
z
" id="DejaVuSans-65"/>
    </defs>
    <g transform="translate(29.47 278.95975)scale(0.14 -0.14)">
     <use xlink:href="#DejaVuSans-31"/>
     <use x="63.623047" xlink:href="#DejaVuSans-35"/>
     <use x="127.246094" xlink:href="#DejaVuSans-20"/>
     <use x="159.033203" xlink:href="#DejaVuSans-69"/>
     <use x="186.816406" xlink:href="#DejaVuSans-6e"/>
     <use x="250.195312" xlink:href="#DejaVuSans-73"/>
     <use x="302.294922" xlink:href="#DejaVuSans-74"/>
     <use x="341.503906" xlink:href="#DejaVuSans-61"/>
     <use x="402.783203" xlink:href="#DejaVuSans-6e"/>
     <use x="466.162109" xlink:href="#DejaVuSans-63"/>
     <use x="521.142578" xlink:href="#DejaVuSans-65"/>
     <use x="582.666016" xlink:href="#DejaVuSans-73"/>
    </g>
    <!-- absolute targets -->
    <defs>
     <path d="M 48.6875 27.296875 
Q 48.6875 37.203125 44.609375 42.84375 
Q 40.53125 48.484375 33.40625 48.484375 
Q 26.265625 48.484375 22.1875 42.84375 
Q 18.109375 37.203125 18.109375 27.296875 
Q 18.109375 17.390625 22.1875 11.75 
Q 26.265625 6.109375 33.40625 6.109375 
Q 40.53125 6.109375 44.609375 11.75 
Q 48.6875 17.390625 48.6875 27.296875 
z
M 18.109375 46.390625 
Q 20.953125 51.265625 25.265625 53.625 
Q 29.59375 56 35.59375 56 
Q 45.5625 56 51.78125 48.09375 
Q 58.015625 40.1875 58.015625 27.296875 
Q 58.015625 14.40625 51.78125 6.484375 
Q 45.5625 -1.421875 35.59375 -1.421875 
Q 29.59375 -1.421875 25.265625 0.953125 
Q 20.953125 3.328125 18.109375 8.203125 
L 18.109375 0 
L 9.078125 0 
L 9.078125 75.984375 
L 18.109375 75.984375 
z
" id="DejaVuSans-62"/>
     <path d="M 30.609375 48.390625 
Q 23.390625 48.390625 19.1875 42.75 
Q 14.984375 37.109375 14.984375 27.296875 
Q 14.984375 17.484375 19.15625 11.84375 
Q 23.34375 6.203125 30.609375 6.203125 
Q 37.796875 6.203125 41.984375 11.859375 
Q 46.1875 17.53125 46.1875 27.296875 
Q 46.1875 37.015625 41.984375 42.703125 
Q 37.796875 48.390625 30.609375 48.390625 
z
M 30.609375 56 
Q 42.328125 56 49.015625 48.375 
Q 55.71875 40.765625 55.71875 27.296875 
Q 55.71875 13.875 49.015625 6.21875 
Q 42.328125 -1.421875 30.609375 -1.421875 
Q 18.84375 -1.421875 12.171875 6.21875 
Q 5.515625 13.875 5.515625 27.296875 
Q 5.515625 40.765625 12.171875 48.375 
Q 18.84375 56 30.609375 56 
z
" id="DejaVuSans-6f"/>
     <path d="M 9.421875 75.984375 
L 18.40625 75.984375 
L 18.40625 0 
L 9.421875 0 
z
" id="DejaVuSans-6c"/>
     <path d="M 8.5 21.578125 
L 8.5 54.6875 
L 17.484375 54.6875 
L 17.484375 21.921875 
Q 17.484375 14.15625 20.5 10.265625 
Q 23.53125 6.390625 29.59375 6.390625 
Q 36.859375 6.390625 41.078125 11.03125 
Q 45.3125 15.671875 45.3125 23.6875 
L 45.3125 54.6875 
L 54.296875 54.6875 
L 54.296875 0 
L 45.3125 0 
L 45.3125 8.40625 
Q 42.046875 3.421875 37.71875 1 
Q 33.40625 -1.421875 27.6875 -1.421875 
Q 18.265625 -1.421875 13.375 4.4375 
Q 8.5 10.296875 8.5 21.578125 
z
M 31.109375 56 
z
" id="DejaVuSans-75"/>
     <path d="M 41.109375 46.296875 
Q 39.59375 47.171875 37.8125 47.578125 
Q 36.03125 48 33.890625 48 
Q 26.265625 48 22.1875 43.046875 
Q 18.109375 38.09375 18.109375 28.8125 
L 18.109375 0 
L 9.078125 0 
L 9.078125 54.6875 
L 18.109375 54.6875 
L 18.109375 46.1875 
Q 20.953125 51.171875 25.484375 53.578125 
Q 30.03125 56 36.53125 56 
Q 37.453125 56 38.578125 55.875 
Q 39.703125 55.765625 41.0625 55.515625 
z
" id="DejaVuSans-72"/>
     <path d="M 45.40625 27.984375 
Q 45.40625 37.75 41.375 43.109375 
Q 37.359375 48.484375 30.078125 48.484375 
Q 22.859375 48.484375 18.828125 43.109375 
Q 14.796875 37.75 14.796875 27.984375 
Q 14.796875 18.265625 18.828125 12.890625 
Q 22.859375 7.515625 30.078125 7.515625 
Q 37.359375 7.515625 41.375 12.890625 
Q 45.40625 18.265625 45.40625 27.984375 
z
M 54.390625 6.78125 
Q 54.390625 -7.171875 48.1875 -13.984375 
Q 42 -20.796875 29.203125 -20.796875 
Q 24.46875 -20.796875 20.265625 -20.09375 
Q 16.0625 -19.390625 12.109375 -17.921875 
L 12.109375 -9.1875 
Q 16.0625 -11.328125 19.921875 -12.34375 
Q 23.78125 -13.375 27.78125 -13.375 
Q 36.625 -13.375 41.015625 -8.765625 
Q 45.40625 -4.15625 45.40625 5.171875 
L 45.40625 9.625 
Q 42.625 4.78125 38.28125 2.390625 
Q 33.9375 0 27.875 0 
Q 17.828125 0 11.671875 7.65625 
Q 5.515625 15.328125 5.515625 27.984375 
Q 5.515625 40.671875 11.671875 48.328125 
Q 17.828125 56 27.875 56 
Q 33.9375 56 38.28125 53.609375 
Q 42.625 51.21875 45.40625 46.390625 
L 45.40625 54.6875 
L 54.390625 54.6875 
z
" id="DejaVuSans-67"/>
    </defs>
    <g transform="translate(29.47 294.636687)scale(0.14 -0.14)">
     <use xlink:href="#DejaVuSans-61"/>
     <use x="61.279297" xlink:href="#DejaVuSans-62"/>
     <use x="124.755859" xlink:href="#DejaVuSans-73"/>
     <use x="176.855469" xlink:href="#DejaVuSans-6f"/>
     <use x="238.037109" xlink:href="#DejaVuSans-6c"/>
     <use x="265.820312" xlink:href="#DejaVuSans-75"/>
     <use x="329.199219" xlink:href="#DejaVuSans-74"/>
     <use x="368.408203" xlink:href="#DejaVuSans-65"/>
     <use x="429.931641" xlink:href="#DejaVuSans-20"/>
     <use x="461.71875" xlink:href="#DejaVuSans-74"/>
     <use x="500.927734" xlink:href="#DejaVuSans-61"/>
     <use x="562.207031" xlink:href="#DejaVuSans-72"/>
     <use x="603.304688" xlink:href="#DejaVuSans-67"/>
     <use x="666.78125" xlink:href="#DejaVuSans-65"/>
     <use x="728.304688" xlink:href="#DejaVuSans-74"/>
     <use x="767.513672" xlink:href="#DejaVuSans-73"/>
    </g>
   </g>
   <g id="text_20">
    <!-- v0.0.0 -->
    <defs>
     <path d="M 2.984375 54.6875 
L 12.5 54.6875 
L 29.59375 8.796875 
L 46.6875 54.6875 
L 56.203125 54.6875 
L 35.6875 0 
L 23.484375 0 
z
" id="DejaVuSans-76"/>
     <path d="M 10.6875 12.40625 
L 21 12.40625 
L 21 0 
L 10.6875 0 
z
" id="DejaVuSans-2e"/>
    </defs>
    <g style="fill:#808080;" transform="translate(192.34875 292.807442)scale(0.1 -0.1)">
     <use xlink:href="#DejaVuSans-76"/>
     <use x="59.179688" xlink:href="#DejaVuSans-30"/>
     <use x="122.802734" xlink:href="#DejaVuSans-2e"/>
     <use x="154.589844" xlink:href="#DejaVuSans-30"/>
     <use x="218.212891" xlink:href="#DejaVuSans-2e"/>
     <use x="250" xlink:href="#DejaVuSans-30"/>
    </g>
   </g>
   <g id="text_21">
    <!-- 3 Rastrigin separable -->
    <defs>
     <path d="M 44.390625 34.1875 
Q 47.5625 33.109375 50.5625 29.59375 
Q 53.5625 26.078125 56.59375 19.921875 
L 66.609375 0 
L 56 0 
L 46.6875 18.703125 
Q 43.0625 26.03125 39.671875 28.421875 
Q 36.28125 30.8125 30.421875 30.8125 
L 19.671875 30.8125 
L 19.671875 0 
L 9.8125 0 
L 9.8125 72.90625 
L 32.078125 72.90625 
Q 44.578125 72.90625 50.734375 67.671875 
Q 56.890625 62.453125 56.890625 51.90625 
Q 56.890625 45.015625 53.6875 40.46875 
Q 50.484375 35.9375 44.390625 34.1875 
z
M 19.671875 64.796875 
L 19.671875 38.921875 
L 32.078125 38.921875 
Q 39.203125 38.921875 42.84375 42.21875 
Q 46.484375 45.515625 46.484375 51.90625 
Q 46.484375 58.296875 42.84375 61.546875 
Q 39.203125 64.796875 32.078125 64.796875 
z
" id="DejaVuSans-52"/>
     <path d="M 18.109375 8.203125 
L 18.109375 -20.796875 
L 9.078125 -20.796875 
L 9.078125 54.6875 
L 18.109375 54.6875 
L 18.109375 46.390625 
Q 20.953125 51.265625 25.265625 53.625 
Q 29.59375 56 35.59375 56 
Q 45.5625 56 51.78125 48.09375 
Q 58.015625 40.1875 58.015625 27.296875 
Q 58.015625 14.40625 51.78125 6.484375 
Q 45.5625 -1.421875 35.59375 -1.421875 
Q 29.59375 -1.421875 25.265625 0.953125 
Q 20.953125 3.328125 18.109375 8.203125 
z
M 48.6875 27.296875 
Q 48.6875 37.203125 44.609375 42.84375 
Q 40.53125 48.484375 33.40625 48.484375 
Q 26.265625 48.484375 22.1875 42.84375 
Q 18.109375 37.203125 18.109375 27.296875 
Q 18.109375 17.390625 22.1875 11.75 
Q 26.265625 6.109375 33.40625 6.109375 
Q 40.53125 6.109375 44.609375 11.75 
Q 48.6875 17.390625 48.6875 27.296875 
z
" id="DejaVuSans-70"/>
    </defs>
    <g transform="translate(80.070625 25.43625)scale(0.24 -0.24)">
     <use xlink:href="#DejaVuSans-33"/>
     <use x="63.623047" xlink:href="#DejaVuSans-20"/>
     <use x="95.410156" xlink:href="#DejaVuSans-52"/>
     <use x="164.861328" xlink:href="#DejaVuSans-61"/>
     <use x="226.140625" xlink:href="#DejaVuSans-73"/>
     <use x="278.240234" xlink:href="#DejaVuSans-74"/>
     <use x="317.449219" xlink:href="#DejaVuSans-72"/>
     <use x="358.5625" xlink:href="#DejaVuSans-69"/>
     <use x="386.345703" xlink:href="#DejaVuSans-67"/>
     <use x="449.822266" xlink:href="#DejaVuSans-69"/>
     <use x="477.605469" xlink:href="#DejaVuSans-6e"/>
     <use x="540.984375" xlink:href="#DejaVuSans-20"/>
     <use x="572.771484" xlink:href="#DejaVuSans-73"/>
     <use x="624.871094" xlink:href="#DejaVuSans-65"/>
     <use x="686.394531" xlink:href="#DejaVuSans-70"/>
     <use x="749.871094" xlink:href="#DejaVuSans-61"/>
     <use x="811.150391" xlink:href="#DejaVuSans-72"/>
     <use x="852.263672" xlink:href="#DejaVuSans-61"/>
     <use x="913.542969" xlink:href="#DejaVuSans-62"/>
     <use x="977.019531" xlink:href="#DejaVuSans-6c"/>
     <use x="1004.802734" xlink:href="#DejaVuSans-65"/>
    </g>
   </g>
  </g>
 </g>
 <defs>
  <clipPath id="p41cdd31f5d">
   <rect height="266.112" width="357.12" x="29.47" y="31.43625"/>
  </clipPath>
 </defs>
</svg>
