<?xml version="1.0" encoding="utf-8" standalone="no"?>
<!DOCTYPE svg PUBLIC "-//W3C//DTD SVG 1.1//EN"
  "http://www.w3.org/Graphics/SVG/1.1/DTD/svg11.dtd">
<!-- Created with matplotlib (http://matplotlib.org/) -->
<svg height="333pt" version="1.1" viewBox="0 0 378 333" width="378pt" xmlns="http://www.w3.org/2000/svg" xmlns:xlink="http://www.w3.org/1999/xlink">
 <defs>
  <style type="text/css">
*{stroke-linecap:butt;stroke-linejoin:round;}
  </style>
 </defs>
 <g id="figure_1">
  <g id="patch_1">
   <path d="M 0 333.7245 
L 378.52 333.7245 
L 378.52 0 
L 0 0 
z
" style="fill:#ffffff;"/>
  </g>
  <g id="axes_1">
   <g id="patch_2">
    <path d="M 10.7 276.812 
L 367.82 276.812 
L 367.82 10.7 
L 10.7 10.7 
z
" style="fill:#ffffff;"/>
   </g>
   <g id="matplotlib.axis_1">
    <g id="xtick_1">
     <g id="line2d_1">
      <path clip-path="url(#pa6812e0684)" d="M 10.606589 276.812 
L 10.606589 10.7 
" style="fill:none;stroke:#b0b0b0;stroke-linecap:square;stroke-width:0.8;"/>
     </g>
     <g id="line2d_2">
      <defs>
       <path d="M 0 0 
L 0 3.5 
" id="md9601ef49a" style="stroke:#000000;stroke-width:0.8;"/>
      </defs>
      <g>
       <use style="stroke:#000000;stroke-width:0.8;" x="10.606589" xlink:href="#md9601ef49a" y="276.812"/>
      </g>
     </g>
    </g>
    <g id="xtick_2">
     <g id="line2d_3">
      <path clip-path="url(#pa6812e0684)" d="M 97.070526 276.812 
L 97.070526 10.7 
" style="fill:none;stroke:#b0b0b0;stroke-linecap:square;stroke-width:0.8;"/>
     </g>
     <g id="line2d_4">
      <g>
       <use style="stroke:#000000;stroke-width:0.8;" x="97.070526" xlink:href="#md9601ef49a" y="276.812"/>
      </g>
     </g>
     <g id="text_1">
      <!-- -4 -->
      <defs>
       <path d="M 4.890625 31.390625 
L 31.203125 31.390625 
L 31.203125 23.390625 
L 4.890625 23.390625 
z
" id="DejaVuSans-2d"/>
       <path d="M 37.796875 64.3125 
L 12.890625 25.390625 
L 37.796875 25.390625 
z
M 35.203125 72.90625 
L 47.609375 72.90625 
L 47.609375 25.390625 
L 58.015625 25.390625 
L 58.015625 17.1875 
L 47.609375 17.1875 
L 47.609375 0 
L 37.796875 0 
L 37.796875 17.1875 
L 4.890625 17.1875 
L 4.890625 26.703125 
z
" id="DejaVuSans-34"/>
      </defs>
      <g transform="translate(87.100213 299.008875)scale(0.2 -0.2)">
       <use xlink:href="#DejaVuSans-2d"/>
       <use x="36.083984" xlink:href="#DejaVuSans-34"/>
      </g>
     </g>
    </g>
    <g id="xtick_3">
     <g id="line2d_5">
      <path clip-path="url(#pa6812e0684)" d="M 183.534462 276.812 
L 183.534462 10.7 
" style="fill:none;stroke:#b0b0b0;stroke-linecap:square;stroke-width:0.8;"/>
     </g>
     <g id="line2d_6">
      <g>
       <use style="stroke:#000000;stroke-width:0.8;" x="183.534462" xlink:href="#md9601ef49a" y="276.812"/>
      </g>
     </g>
     <g id="text_2">
      <!-- 0 -->
      <defs>
       <path d="M 31.78125 66.40625 
Q 24.171875 66.40625 20.328125 58.90625 
Q 16.5 51.421875 16.5 36.375 
Q 16.5 21.390625 20.328125 13.890625 
Q 24.171875 6.390625 31.78125 6.390625 
Q 39.453125 6.390625 43.28125 13.890625 
Q 47.125 21.390625 47.125 36.375 
Q 47.125 51.421875 43.28125 58.90625 
Q 39.453125 66.40625 31.78125 66.40625 
z
M 31.78125 74.21875 
Q 44.046875 74.21875 50.515625 64.515625 
Q 56.984375 54.828125 56.984375 36.375 
Q 56.984375 17.96875 50.515625 8.265625 
Q 44.046875 -1.421875 31.78125 -1.421875 
Q 19.53125 -1.421875 13.0625 8.265625 
Q 6.59375 17.96875 6.59375 36.375 
Q 6.59375 54.828125 13.0625 64.515625 
Q 19.53125 74.21875 31.78125 74.21875 
z
" id="DejaVuSans-30"/>
      </defs>
      <g transform="translate(177.171962 299.008875)scale(0.2 -0.2)">
       <use xlink:href="#DejaVuSans-30"/>
      </g>
     </g>
    </g>
    <g id="xtick_4">
     <g id="line2d_7">
      <path clip-path="url(#pa6812e0684)" d="M 269.998399 276.812 
L 269.998399 10.7 
" style="fill:none;stroke:#b0b0b0;stroke-linecap:square;stroke-width:0.8;"/>
     </g>
     <g id="line2d_8">
      <g>
       <use style="stroke:#000000;stroke-width:0.8;" x="269.998399" xlink:href="#md9601ef49a" y="276.812"/>
      </g>
     </g>
     <g id="text_3">
      <!-- 4 -->
      <g transform="translate(263.635899 299.008875)scale(0.2 -0.2)">
       <use xlink:href="#DejaVuSans-34"/>
      </g>
     </g>
    </g>
    <g id="xtick_5">
     <g id="line2d_9">
      <path clip-path="url(#pa6812e0684)" d="M 356.462335 276.812 
L 356.462335 10.7 
" style="fill:none;stroke:#b0b0b0;stroke-linecap:square;stroke-width:0.8;"/>
     </g>
     <g id="line2d_10">
      <g>
       <use style="stroke:#000000;stroke-width:0.8;" x="356.462335" xlink:href="#md9601ef49a" y="276.812"/>
      </g>
     </g>
     <g id="text_4">
      <!-- 8 -->
      <defs>
       <path d="M 31.78125 34.625 
Q 24.75 34.625 20.71875 30.859375 
Q 16.703125 27.09375 16.703125 20.515625 
Q 16.703125 13.921875 20.71875 10.15625 
Q 24.75 6.390625 31.78125 6.390625 
Q 38.8125 6.390625 42.859375 10.171875 
Q 46.921875 13.96875 46.921875 20.515625 
Q 46.921875 27.09375 42.890625 30.859375 
Q 38.875 34.625 31.78125 34.625 
z
M 21.921875 38.8125 
Q 15.578125 40.375 12.03125 44.71875 
Q 8.5 49.078125 8.5 55.328125 
Q 8.5 64.0625 14.71875 69.140625 
Q 20.953125 74.21875 31.78125 74.21875 
Q 42.671875 74.21875 48.875 69.140625 
Q 55.078125 64.0625 55.078125 55.328125 
Q 55.078125 49.078125 51.53125 44.71875 
Q 48 40.375 41.703125 38.8125 
Q 48.828125 37.15625 52.796875 32.3125 
Q 56.78125 27.484375 56.78125 20.515625 
Q 56.78125 9.90625 50.3125 4.234375 
Q 43.84375 -1.421875 31.78125 -1.421875 
Q 19.734375 -1.421875 13.25 4.234375 
Q 6.78125 9.90625 6.78125 20.515625 
Q 6.78125 27.484375 10.78125 32.3125 
Q 14.796875 37.15625 21.921875 38.8125 
z
M 18.3125 54.390625 
Q 18.3125 48.734375 21.84375 45.5625 
Q 25.390625 42.390625 31.78125 42.390625 
Q 38.140625 42.390625 41.71875 45.5625 
Q 45.3125 48.734375 45.3125 54.390625 
Q 45.3125 60.0625 41.71875 63.234375 
Q 38.140625 66.40625 31.78125 66.40625 
Q 25.390625 66.40625 21.84375 63.234375 
Q 18.3125 60.0625 18.3125 54.390625 
z
" id="DejaVuSans-38"/>
      </defs>
      <g transform="translate(350.099835 299.008875)scale(0.2 -0.2)">
       <use xlink:href="#DejaVuSans-38"/>
      </g>
     </g>
    </g>
    <g id="text_5">
     <!-- log10 of Df -->
     <defs>
      <path d="M 9.421875 75.984375 
L 18.40625 75.984375 
L 18.40625 0 
L 9.421875 0 
z
" id="DejaVuSans-6c"/>
      <path d="M 30.609375 48.390625 
Q 23.390625 48.390625 19.1875 42.75 
Q 14.984375 37.109375 14.984375 27.296875 
Q 14.984375 17.484375 19.15625 11.84375 
Q 23.34375 6.203125 30.609375 6.203125 
Q 37.796875 6.203125 41.984375 11.859375 
Q 46.1875 17.53125 46.1875 27.296875 
Q 46.1875 37.015625 41.984375 42.703125 
Q 37.796875 48.390625 30.609375 48.390625 
z
M 30.609375 56 
Q 42.328125 56 49.015625 48.375 
Q 55.71875 40.765625 55.71875 27.296875 
Q 55.71875 13.875 49.015625 6.21875 
Q 42.328125 -1.421875 30.609375 -1.421875 
Q 18.84375 -1.421875 12.171875 6.21875 
Q 5.515625 13.875 5.515625 27.296875 
Q 5.515625 40.765625 12.171875 48.375 
Q 18.84375 56 30.609375 56 
z
" id="DejaVuSans-6f"/>
      <path d="M 45.40625 27.984375 
Q 45.40625 37.75 41.375 43.109375 
Q 37.359375 48.484375 30.078125 48.484375 
Q 22.859375 48.484375 18.828125 43.109375 
Q 14.796875 37.75 14.796875 27.984375 
Q 14.796875 18.265625 18.828125 12.890625 
Q 22.859375 7.515625 30.078125 7.515625 
Q 37.359375 7.515625 41.375 12.890625 
Q 45.40625 18.265625 45.40625 27.984375 
z
M 54.390625 6.78125 
Q 54.390625 -7.171875 48.1875 -13.984375 
Q 42 -20.796875 29.203125 -20.796875 
Q 24.46875 -20.796875 20.265625 -20.09375 
Q 16.0625 -19.390625 12.109375 -17.921875 
L 12.109375 -9.1875 
Q 16.0625 -11.328125 19.921875 -12.34375 
Q 23.78125 -13.375 27.78125 -13.375 
Q 36.625 -13.375 41.015625 -8.765625 
Q 45.40625 -4.15625 45.40625 5.171875 
L 45.40625 9.625 
Q 42.625 4.78125 38.28125 2.390625 
Q 33.9375 0 27.875 0 
Q 17.828125 0 11.671875 7.65625 
Q 5.515625 15.328125 5.515625 27.984375 
Q 5.515625 40.671875 11.671875 48.328125 
Q 17.828125 56 27.875 56 
Q 33.9375 56 38.28125 53.609375 
Q 42.625 51.21875 45.40625 46.390625 
L 45.40625 54.6875 
L 54.390625 54.6875 
z
" id="DejaVuSans-67"/>
      <path d="M 12.40625 8.296875 
L 28.515625 8.296875 
L 28.515625 63.921875 
L 10.984375 60.40625 
L 10.984375 69.390625 
L 28.421875 72.90625 
L 38.28125 72.90625 
L 38.28125 8.296875 
L 54.390625 8.296875 
L 54.390625 0 
L 12.40625 0 
z
" id="DejaVuSans-31"/>
      <path id="DejaVuSans-20"/>
      <path d="M 37.109375 75.984375 
L 37.109375 68.5 
L 28.515625 68.5 
Q 23.6875 68.5 21.796875 66.546875 
Q 19.921875 64.59375 19.921875 59.515625 
L 19.921875 54.6875 
L 34.71875 54.6875 
L 34.71875 47.703125 
L 19.921875 47.703125 
L 19.921875 0 
L 10.890625 0 
L 10.890625 47.703125 
L 2.296875 47.703125 
L 2.296875 54.6875 
L 10.890625 54.6875 
L 10.890625 58.5 
Q 10.890625 67.625 15.140625 71.796875 
Q 19.390625 75.984375 28.609375 75.984375 
z
" id="DejaVuSans-66"/>
      <path d="M 19.671875 64.796875 
L 19.671875 8.109375 
L 31.59375 8.109375 
Q 46.6875 8.109375 53.6875 14.9375 
Q 60.6875 21.78125 60.6875 36.53125 
Q 60.6875 51.171875 53.6875 57.984375 
Q 46.6875 64.796875 31.59375 64.796875 
z
M 9.8125 72.90625 
L 30.078125 72.90625 
Q 51.265625 72.90625 61.171875 64.09375 
Q 71.09375 55.28125 71.09375 36.53125 
Q 71.09375 17.671875 61.125 8.828125 
Q 51.171875 0 30.078125 0 
L 9.8125 0 
z
" id="DejaVuSans-44"/>
     </defs>
     <g transform="translate(134.074063 322.365125)scale(0.2 -0.2)">
      <use xlink:href="#DejaVuSans-6c"/>
      <use x="27.783203" xlink:href="#DejaVuSans-6f"/>
      <use x="88.964844" xlink:href="#DejaVuSans-67"/>
      <use x="152.441406" xlink:href="#DejaVuSans-31"/>
      <use x="216.064453" xlink:href="#DejaVuSans-30"/>
      <use x="279.6875" xlink:href="#DejaVuSans-20"/>
      <use x="311.474609" xlink:href="#DejaVuSans-6f"/>
      <use x="372.65625" xlink:href="#DejaVuSans-66"/>
      <use x="407.861328" xlink:href="#DejaVuSans-20"/>
      <use x="439.648438" xlink:href="#DejaVuSans-44"/>
      <use x="516.650391" xlink:href="#DejaVuSans-66"/>
     </g>
    </g>
   </g>
   <g id="matplotlib.axis_2">
    <g id="ytick_1">
     <g id="line2d_11">
      <path clip-path="url(#pa6812e0684)" d="M 10.7 276.812 
L 367.82 276.812 
" style="fill:none;stroke:#b0b0b0;stroke-linecap:square;stroke-width:0.8;"/>
     </g>
     <g id="line2d_12">
      <defs>
       <path d="M 0 0 
L -3.5 0 
" id="m62ae533682" style="stroke:#000000;stroke-width:0.8;"/>
      </defs>
      <g>
       <use style="stroke:#000000;stroke-width:0.8;" x="10.7" xlink:href="#m62ae533682" y="276.812"/>
      </g>
     </g>
    </g>
    <g id="ytick_2">
     <g id="line2d_13">
      <path clip-path="url(#pa6812e0684)" d="M 10.7 224.116554 
L 367.82 224.116554 
" style="fill:none;stroke:#b0b0b0;stroke-linecap:square;stroke-width:0.8;"/>
     </g>
     <g id="line2d_14">
      <g>
       <use style="stroke:#000000;stroke-width:0.8;" x="10.7" xlink:href="#m62ae533682" y="224.116554"/>
      </g>
     </g>
    </g>
    <g id="ytick_3">
     <g id="line2d_15">
      <path clip-path="url(#pa6812e0684)" d="M 10.7 171.421109 
L 367.82 171.421109 
" style="fill:none;stroke:#b0b0b0;stroke-linecap:square;stroke-width:0.8;"/>
     </g>
     <g id="line2d_16">
      <g>
       <use style="stroke:#000000;stroke-width:0.8;" x="10.7" xlink:href="#m62ae533682" y="171.421109"/>
      </g>
     </g>
    </g>
    <g id="ytick_4">
     <g id="line2d_17">
      <path clip-path="url(#pa6812e0684)" d="M 10.7 118.725663 
L 367.82 118.725663 
" style="fill:none;stroke:#b0b0b0;stroke-linecap:square;stroke-width:0.8;"/>
     </g>
     <g id="line2d_18">
      <g>
       <use style="stroke:#000000;stroke-width:0.8;" x="10.7" xlink:href="#m62ae533682" y="118.725663"/>
      </g>
     </g>
    </g>
    <g id="ytick_5">
     <g id="line2d_19">
      <path clip-path="url(#pa6812e0684)" d="M 10.7 66.030218 
L 367.82 66.030218 
" style="fill:none;stroke:#b0b0b0;stroke-linecap:square;stroke-width:0.8;"/>
     </g>
     <g id="line2d_20">
      <g>
       <use style="stroke:#000000;stroke-width:0.8;" x="10.7" xlink:href="#m62ae533682" y="66.030218"/>
      </g>
     </g>
    </g>
    <g id="ytick_6">
     <g id="line2d_21">
      <path clip-path="url(#pa6812e0684)" d="M 10.7 13.334772 
L 367.82 13.334772 
" style="fill:none;stroke:#b0b0b0;stroke-linecap:square;stroke-width:0.8;"/>
     </g>
     <g id="line2d_22">
      <g>
       <use style="stroke:#000000;stroke-width:0.8;" x="10.7" xlink:href="#m62ae533682" y="13.334772"/>
      </g>
     </g>
    </g>
   </g>
   <g id="line2d_23">
    <path clip-path="url(#pa6812e0684)" d="M -1 224.116554 
L 56.991996 224.116554 
L 56.991996 220.603525 
L 59.563201 220.603525 
L 59.563201 217.090495 
L 70.630934 217.090495 
L 70.630934 213.577465 
L 70.871679 213.577465 
L 70.871679 210.064436 
L 71.733539 210.064436 
L 71.733539 206.551406 
L 84.461529 206.551406 
L 84.569037 199.525347 
L 84.891514 199.525347 
L 84.891514 196.012317 
L 86.449326 196.012317 
L 86.449326 192.499287 
L 87.331684 192.499287 
L 87.331684 188.986257 
L 87.509315 188.986257 
L 87.509315 185.473228 
L 88.455215 185.473228 
L 88.455215 181.960198 
L 89.514745 181.960198 
L 89.514745 178.447168 
L 91.242165 178.447168 
L 91.242165 174.934139 
L 93.39516 174.934139 
L 93.39516 171.421109 
L 121.758818 171.421109 
L 121.758818 167.908079 
L 125.365932 167.908079 
L 125.365932 164.39505 
L 128.543726 164.39505 
L 128.543726 160.88202 
L 133.893919 160.88202 
L 133.893919 157.36899 
L 134.269838 157.36899 
L 134.269838 153.85596 
L 134.682716 153.85596 
L 134.682716 150.342931 
L 135.838535 150.342931 
L 135.838535 146.829901 
L 141.902379 146.829901 
L 141.902379 143.316871 
L 142.085358 143.316871 
L 142.085358 139.803842 
L 142.528453 139.803842 
L 142.586562 132.777782 
L 143.169383 132.777782 
L 143.169383 129.264752 
L 143.291517 129.264752 
L 143.291517 125.751723 
L 146.094366 125.751723 
L 146.148876 118.725663 
L 146.544382 118.725663 
L 146.641314 111.699604 
L 148.071679 111.699604 
L 148.071679 108.186574 
L 149.989736 108.186574 
L 149.989736 104.673545 
L 150.880342 104.673545 
L 150.880342 101.160515 
L 152.670765 101.160515 
L 152.765897 94.134455 
L 153.526436 94.134455 
L 153.526436 90.621426 
L 156.413614 90.621426 
L 156.518741 80.082337 
L 157.403501 80.082337 
L 157.403501 76.569307 
L 157.977886 76.569307 
L 157.977886 73.056277 
L 159.155176 73.056277 
L 159.155176 69.543248 
L 160.50427 69.543248 
L 160.50427 66.030218 
L 165.042491 66.030218 
L 165.048902 59.004158 
L 166.069407 59.004158 
L 166.069407 55.491129 
L 166.306168 55.491129 
L 166.306168 51.978099 
L 169.533321 51.978099 
L 169.533321 48.465069 
L 171.968222 48.465069 
L 171.968222 44.95204 
L 172.973721 44.95204 
L 172.973721 41.43901 
L 173.748933 41.43901 
L 173.748933 37.92598 
L 174.000648 37.92598 
L 174.000648 34.41295 
L 178.291327 34.41295 
L 178.291327 30.899921 
L 178.695799 30.899921 
L 178.695799 27.386891 
L 187.232464 27.386891 
L 187.232464 23.873861 
L 194.209527 23.873861 
L 194.209527 20.360832 
L 197.650107 20.360832 
L 197.650107 16.847802 
L 201.067757 16.847802 
L 201.067757 13.334772 
L 201.067757 13.334772 
L 367.82 13.334772 
L 367.82 13.334772 
" style="fill:none;stroke:#ff0000;stroke-linecap:square;stroke-width:3;"/>
   </g>
   <g id="line2d_24">
    <path clip-path="url(#pa6812e0684)" d="M 211.945368 276.812 
L 211.945368 273.29897 
L 214.620526 273.29897 
L 214.620526 269.785941 
L 218.372617 269.785941 
L 218.372617 266.272911 
L 218.794138 266.272911 
L 218.794138 262.759881 
L 218.934966 262.759881 
L 218.934966 259.246851 
L 221.345254 259.246851 
L 221.430952 252.220792 
L 221.643886 252.220792 
L 221.643886 248.707762 
L 222.184925 248.707762 
L 222.184925 245.194733 
L 222.742865 245.194733 
L 222.742865 241.681703 
L 223.004116 241.681703 
L 223.046662 234.655644 
L 223.13096 234.655644 
L 223.13096 231.142614 
L 223.437 231.142614 
L 223.437 227.629584 
L 223.675517 227.629584 
L 223.675517 224.116554 
L 223.983441 224.116554 
L 223.983441 220.603525 
L 225.256157 220.603525 
L 225.283212 213.577465 
L 225.671491 213.577465 
L 225.671491 210.064436 
L 226.53295 210.064436 
L 226.53295 206.551406 
L 226.933681 206.551406 
L 226.933681 203.038376 
L 227.724189 203.038376 
L 227.724189 199.525347 
L 228.217052 199.525347 
L 228.223697 192.499287 
L 228.408683 192.499287 
L 228.408683 188.986257 
L 228.791632 188.986257 
L 228.791632 185.473228 
L 228.995397 185.473228 
L 229.098297 178.447168 
L 229.171871 178.447168 
L 229.172803 171.421109 
L 230.956731 171.421109 
L 230.956731 167.908079 
L 231.18786 167.908079 
L 231.18786 164.39505 
L 231.571458 164.39505 
L 231.571458 160.88202 
L 232.632294 160.88202 
L 232.632294 157.36899 
L 233.460078 157.36899 
L 233.460078 153.85596 
L 235.019898 153.85596 
L 235.019898 150.342931 
L 237.605087 150.342931 
L 237.685572 139.803842 
L 239.062351 139.803842 
L 239.062351 136.290812 
L 239.953407 136.290812 
L 239.953407 132.777782 
L 240.496374 132.777782 
L 240.496374 129.264752 
L 241.207968 129.264752 
L 241.207968 125.751723 
L 243.423685 125.751723 
L 243.484188 118.725663 
L 245.041606 118.725663 
L 245.041606 115.212634 
L 246.303502 115.212634 
L 246.303502 111.699604 
L 247.451961 111.699604 
L 247.451961 108.186574 
L 247.861836 108.186574 
L 247.861836 104.673545 
L 248.985769 104.673545 
L 248.985769 101.160515 
L 249.325099 101.160515 
L 249.325099 97.647485 
L 249.787522 97.647485 
L 249.787522 94.134455 
L 254.043752 94.134455 
L 254.043752 90.621426 
L 255.567304 90.621426 
L 255.567304 87.108396 
L 256.034875 87.108396 
L 256.034875 83.595366 
L 257.307663 83.595366 
L 257.307663 80.082337 
L 257.840807 80.082337 
L 257.840807 76.569307 
L 263.836283 76.569307 
L 263.836283 73.056277 
L 267.619905 73.056277 
L 267.619905 69.543248 
L 268.509816 69.543248 
L 268.509816 66.030218 
L 284.244545 66.030218 
L 284.244545 62.517188 
L 307.805787 62.517188 
L 307.805787 59.004158 
L 309.70876 59.004158 
L 309.70876 55.491129 
L 314.758029 55.491129 
L 314.758029 51.978099 
L 315.452499 51.978099 
L 315.452499 48.465069 
L 317.110141 48.465069 
L 317.110141 44.95204 
L 328.91526 44.95204 
L 328.91526 41.43901 
L 332.955307 41.43901 
L 332.955307 37.92598 
L 333.539948 37.92598 
L 333.539948 34.41295 
L 336.091677 34.41295 
L 336.091677 30.899921 
L 337.945701 30.899921 
L 337.945701 27.386891 
L 338.800089 27.386891 
L 338.800089 23.873861 
L 343.350743 23.873861 
L 343.350743 20.360832 
L 344.151823 20.360832 
L 344.171219 13.334772 
L 344.171219 13.334772 
L 367.82 13.334772 
L 367.82 13.334772 
" style="fill:none;stroke:#00bfbf;stroke-linecap:square;stroke-width:1.5;"/>
   </g>
   <g id="line2d_25">
    <path clip-path="url(#pa6812e0684)" d="M 211.945368 276.812 
L 211.945368 273.29897 
L 214.620526 273.29897 
L 214.620526 269.785941 
L 218.372617 269.785941 
L 218.372617 266.272911 
L 218.794138 266.272911 
L 218.794138 262.759881 
L 218.934966 262.759881 
L 218.934966 259.246851 
L 221.345254 259.246851 
L 221.430952 252.220792 
L 221.643886 252.220792 
L 221.643886 248.707762 
L 222.184925 248.707762 
L 222.184925 245.194733 
L 222.742865 245.194733 
L 222.742865 241.681703 
L 223.004116 241.681703 
L 223.046662 234.655644 
L 223.13096 234.655644 
L 223.13096 231.142614 
L 223.437 231.142614 
L 223.437 227.629584 
L 223.675517 227.629584 
L 223.675517 224.116554 
L 223.983441 224.116554 
L 223.983441 220.603525 
L 225.256157 220.603525 
L 225.283212 213.577465 
L 225.671491 213.577465 
L 225.671491 210.064436 
L 226.53295 210.064436 
L 226.53295 206.551406 
L 226.933681 206.551406 
L 226.933681 203.038376 
L 227.724189 203.038376 
L 227.724189 199.525347 
L 228.217052 199.525347 
L 228.223697 192.499287 
L 228.408683 192.499287 
L 228.408683 188.986257 
L 228.791632 188.986257 
L 228.791632 185.473228 
L 228.995397 185.473228 
L 229.098297 178.447168 
L 229.171871 178.447168 
L 229.172803 171.421109 
L 230.956731 171.421109 
L 230.956731 167.908079 
L 231.18786 167.908079 
L 231.18786 164.39505 
L 231.571458 164.39505 
L 231.571458 160.88202 
L 232.632294 160.88202 
L 232.632294 157.36899 
L 233.460078 157.36899 
L 233.460078 153.85596 
L 235.019898 153.85596 
L 235.019898 150.342931 
L 237.605087 150.342931 
L 237.685572 139.803842 
L 239.062351 139.803842 
L 239.062351 136.290812 
L 239.953407 136.290812 
L 239.953407 132.777782 
L 240.496374 132.777782 
L 240.496374 129.264752 
L 241.207968 129.264752 
L 241.207968 125.751723 
L 243.423685 125.751723 
L 243.484188 118.725663 
L 245.041606 118.725663 
L 245.041606 115.212634 
L 246.303502 115.212634 
L 246.303502 111.699604 
L 247.451961 111.699604 
L 247.451961 108.186574 
L 247.861836 108.186574 
L 247.861836 104.673545 
L 248.985769 104.673545 
L 248.985769 101.160515 
L 249.325099 101.160515 
L 249.325099 97.647485 
L 249.787522 97.647485 
L 249.787522 94.134455 
L 254.043752 94.134455 
L 254.043752 90.621426 
L 255.567304 90.621426 
L 255.567304 87.108396 
L 256.034875 87.108396 
L 256.034875 83.595366 
L 257.307663 83.595366 
L 257.307663 80.082337 
L 257.840807 80.082337 
L 257.840807 76.569307 
L 263.836283 76.569307 
L 263.836283 73.056277 
L 267.619905 73.056277 
L 267.619905 69.543248 
L 268.509816 69.543248 
L 268.509816 66.030218 
L 284.244545 66.030218 
L 284.244545 62.517188 
L 307.805787 62.517188 
L 307.805787 59.004158 
L 309.70876 59.004158 
L 309.70876 55.491129 
L 314.758029 55.491129 
L 314.758029 51.978099 
L 315.452499 51.978099 
L 315.452499 48.465069 
L 317.110141 48.465069 
L 317.110141 44.95204 
L 328.91526 44.95204 
L 328.91526 41.43901 
L 332.955307 41.43901 
L 332.955307 37.92598 
L 333.539948 37.92598 
L 333.539948 34.41295 
L 336.091677 34.41295 
L 336.091677 30.899921 
L 337.945701 30.899921 
L 337.945701 27.386891 
L 338.800089 27.386891 
L 338.800089 23.873861 
L 343.350743 23.873861 
L 343.350743 20.360832 
L 344.151823 20.360832 
L 344.171219 13.334772 
L 344.171219 13.334772 
L 367.82 13.334772 
L 367.82 13.334772 
" style="fill:none;stroke:#bf00bf;stroke-linecap:square;stroke-width:1.5;"/>
   </g>
   <g id="line2d_26">
    <path clip-path="url(#pa6812e0684)" d="M 211.945368 276.812 
L 211.945368 273.29897 
L 214.620526 273.29897 
L 214.620526 269.785941 
L 218.372617 269.785941 
L 218.372617 266.272911 
L 218.794138 266.272911 
L 218.794138 262.759881 
L 218.934966 262.759881 
L 218.934966 259.246851 
L 221.345254 259.246851 
L 221.430952 252.220792 
L 221.643886 252.220792 
L 221.643886 248.707762 
L 222.184925 248.707762 
L 222.184925 245.194733 
L 222.742865 245.194733 
L 222.742865 241.681703 
L 223.004116 241.681703 
L 223.046662 234.655644 
L 223.13096 234.655644 
L 223.13096 231.142614 
L 223.437 231.142614 
L 223.437 227.629584 
L 223.675517 227.629584 
L 223.675517 224.116554 
L 223.983441 224.116554 
L 223.983441 220.603525 
L 225.256157 220.603525 
L 225.283212 213.577465 
L 225.671491 213.577465 
L 225.671491 210.064436 
L 226.53295 210.064436 
L 226.53295 206.551406 
L 226.933681 206.551406 
L 226.933681 203.038376 
L 227.724189 203.038376 
L 227.724189 199.525347 
L 228.217052 199.525347 
L 228.223697 192.499287 
L 228.408683 192.499287 
L 228.408683 188.986257 
L 228.791632 188.986257 
L 228.791632 185.473228 
L 228.995397 185.473228 
L 229.098297 178.447168 
L 229.171871 178.447168 
L 229.172803 171.421109 
L 230.956731 171.421109 
L 230.956731 167.908079 
L 231.18786 167.908079 
L 231.18786 164.39505 
L 231.571458 164.39505 
L 231.571458 160.88202 
L 232.632294 160.88202 
L 232.632294 157.36899 
L 233.460078 157.36899 
L 233.460078 153.85596 
L 235.019898 153.85596 
L 235.019898 150.342931 
L 237.605087 150.342931 
L 237.685572 139.803842 
L 239.062351 139.803842 
L 239.062351 136.290812 
L 239.953407 136.290812 
L 239.953407 132.777782 
L 240.496374 132.777782 
L 240.496374 129.264752 
L 241.207968 129.264752 
L 241.207968 125.751723 
L 243.423685 125.751723 
L 243.484188 118.725663 
L 245.041606 118.725663 
L 245.041606 115.212634 
L 246.303502 115.212634 
L 246.303502 111.699604 
L 247.451961 111.699604 
L 247.451961 108.186574 
L 247.861836 108.186574 
L 247.861836 104.673545 
L 248.985769 104.673545 
L 248.985769 101.160515 
L 249.325099 101.160515 
L 249.325099 97.647485 
L 249.787522 97.647485 
L 249.787522 94.134455 
L 254.043752 94.134455 
L 254.043752 90.621426 
L 255.567304 90.621426 
L 255.567304 87.108396 
L 256.034875 87.108396 
L 256.034875 83.595366 
L 257.307663 83.595366 
L 257.307663 80.082337 
L 257.840807 80.082337 
L 257.840807 76.569307 
L 263.836283 76.569307 
L 263.836283 73.056277 
L 267.619905 73.056277 
L 267.619905 69.543248 
L 268.509816 69.543248 
L 268.509816 66.030218 
L 284.244545 66.030218 
L 284.244545 62.517188 
L 307.805787 62.517188 
L 307.805787 59.004158 
L 309.70876 59.004158 
L 309.70876 55.491129 
L 314.758029 55.491129 
L 314.758029 51.978099 
L 315.452499 51.978099 
L 315.452499 48.465069 
L 317.110141 48.465069 
L 317.110141 44.95204 
L 328.91526 44.95204 
L 328.91526 41.43901 
L 332.955307 41.43901 
L 332.955307 37.92598 
L 333.539948 37.92598 
L 333.539948 34.41295 
L 336.091677 34.41295 
L 336.091677 30.899921 
L 337.945701 30.899921 
L 337.945701 27.386891 
L 338.800089 27.386891 
L 338.800089 23.873861 
L 343.350743 23.873861 
L 343.350743 20.360832 
L 344.151823 20.360832 
L 344.171219 13.334772 
L 344.171219 13.334772 
L 367.82 13.334772 
L 367.82 13.334772 
" style="fill:none;stroke:#000000;stroke-linecap:square;stroke-width:1.5;"/>
   </g>
   <g id="line2d_27">
    <path clip-path="url(#pa6812e0684)" d="M 211.945368 276.812 
L 211.945368 273.29897 
L 214.620526 273.29897 
L 214.620526 269.785941 
L 218.372617 269.785941 
L 218.372617 266.272911 
L 218.794138 266.272911 
L 218.794138 262.759881 
L 218.934966 262.759881 
L 218.934966 259.246851 
L 221.345254 259.246851 
L 221.430952 252.220792 
L 221.643886 252.220792 
L 221.643886 248.707762 
L 222.184925 248.707762 
L 222.184925 245.194733 
L 222.742865 245.194733 
L 222.742865 241.681703 
L 223.004116 241.681703 
L 223.046662 234.655644 
L 223.13096 234.655644 
L 223.13096 231.142614 
L 223.437 231.142614 
L 223.437 227.629584 
L 223.675517 227.629584 
L 223.675517 224.116554 
L 223.983441 224.116554 
L 223.983441 220.603525 
L 225.256157 220.603525 
L 225.283212 213.577465 
L 225.671491 213.577465 
L 225.671491 210.064436 
L 226.53295 210.064436 
L 226.53295 206.551406 
L 226.933681 206.551406 
L 226.933681 203.038376 
L 227.724189 203.038376 
L 227.724189 199.525347 
L 228.217052 199.525347 
L 228.223697 192.499287 
L 228.408683 192.499287 
L 228.408683 188.986257 
L 228.791632 188.986257 
L 228.791632 185.473228 
L 228.995397 185.473228 
L 229.098297 178.447168 
L 229.171871 178.447168 
L 229.172803 171.421109 
L 230.956731 171.421109 
L 230.956731 167.908079 
L 231.18786 167.908079 
L 231.18786 164.39505 
L 231.571458 164.39505 
L 231.571458 160.88202 
L 232.632294 160.88202 
L 232.632294 157.36899 
L 233.460078 157.36899 
L 233.460078 153.85596 
L 235.019898 153.85596 
L 235.019898 150.342931 
L 237.605087 150.342931 
L 237.685572 139.803842 
L 239.062351 139.803842 
L 239.062351 136.290812 
L 239.953407 136.290812 
L 239.953407 132.777782 
L 240.496374 132.777782 
L 240.496374 129.264752 
L 241.207968 129.264752 
L 241.207968 125.751723 
L 243.423685 125.751723 
L 243.484188 118.725663 
L 245.041606 118.725663 
L 245.041606 115.212634 
L 246.303502 115.212634 
L 246.303502 111.699604 
L 247.451961 111.699604 
L 247.451961 108.186574 
L 247.861836 108.186574 
L 247.861836 104.673545 
L 248.985769 104.673545 
L 248.985769 101.160515 
L 249.325099 101.160515 
L 249.325099 97.647485 
L 249.787522 97.647485 
L 249.787522 94.134455 
L 254.043752 94.134455 
L 254.043752 90.621426 
L 255.567304 90.621426 
L 255.567304 87.108396 
L 256.034875 87.108396 
L 256.034875 83.595366 
L 257.307663 83.595366 
L 257.307663 80.082337 
L 257.840807 80.082337 
L 257.840807 76.569307 
L 263.836283 76.569307 
L 263.836283 73.056277 
L 267.619905 73.056277 
L 267.619905 69.543248 
L 268.509816 69.543248 
L 268.509816 66.030218 
L 284.244545 66.030218 
L 284.244545 62.517188 
L 307.805787 62.517188 
L 307.805787 59.004158 
L 309.70876 59.004158 
L 309.70876 55.491129 
L 314.758029 55.491129 
L 314.758029 51.978099 
L 315.452499 51.978099 
L 315.452499 48.465069 
L 317.110141 48.465069 
L 317.110141 44.95204 
L 328.91526 44.95204 
L 328.91526 41.43901 
L 332.955307 41.43901 
L 332.955307 37.92598 
L 333.539948 37.92598 
L 333.539948 34.41295 
L 336.091677 34.41295 
L 336.091677 30.899921 
L 337.945701 30.899921 
L 337.945701 27.386891 
L 338.800089 27.386891 
L 338.800089 23.873861 
L 343.350743 23.873861 
L 343.350743 20.360832 
L 344.151823 20.360832 
L 344.171219 13.334772 
L 344.171219 13.334772 
L 367.82 13.334772 
L 367.82 13.334772 
" style="fill:none;stroke:#00bfbf;stroke-linecap:square;stroke-width:1.5;"/>
   </g>
   <g id="line2d_28">
    <path clip-path="url(#pa6812e0684)" d="M 186.506912 276.812 
L 186.506912 273.29897 
L 189.231577 273.29897 
L 189.231577 269.785941 
L 192.625801 269.785941 
L 192.625801 266.272911 
L 192.857332 266.272911 
L 192.857332 262.759881 
L 194.201165 262.759881 
L 194.201165 259.246851 
L 194.472728 259.246851 
L 194.472728 255.733822 
L 195.722269 255.733822 
L 195.722269 252.220792 
L 196.624919 252.220792 
L 196.624919 248.707762 
L 198.100215 248.707762 
L 198.202517 241.681703 
L 198.308983 241.681703 
L 198.376026 234.655644 
L 198.770856 234.655644 
L 198.770856 231.142614 
L 199.522364 231.142614 
L 199.522364 227.629584 
L 200.947652 227.629584 
L 200.947652 224.116554 
L 202.347673 224.116554 
L 202.347673 220.603525 
L 207.212641 220.603525 
L 207.212641 217.090495 
L 210.482412 217.090495 
L 210.482412 213.577465 
L 211.263403 213.577465 
L 211.263403 210.064436 
L 211.558403 210.064436 
L 211.558403 206.551406 
L 211.991466 206.551406 
L 211.991466 203.038376 
L 213.316001 203.038376 
L 213.319169 196.012317 
L 213.468024 196.012317 
L 213.468024 192.499287 
L 213.603439 192.499287 
L 213.603439 188.986257 
L 214.092139 188.986257 
L 214.092139 185.473228 
L 214.398619 185.473228 
L 214.398619 181.960198 
L 214.604282 181.960198 
L 214.604282 178.447168 
L 215.199444 178.447168 
L 215.276773 171.421109 
L 217.998396 171.421109 
L 217.998396 167.908079 
L 218.423104 167.908079 
L 218.423104 164.39505 
L 219.499755 164.39505 
L 219.499755 160.88202 
L 220.793812 160.88202 
L 220.857848 153.85596 
L 221.41684 153.85596 
L 221.509939 143.316871 
L 221.782203 143.316871 
L 221.794084 136.290812 
L 221.952938 136.290812 
L 222.042712 125.751723 
L 222.26048 125.751723 
L 222.331239 115.212634 
L 222.718932 115.212634 
L 222.718932 111.699604 
L 222.877946 111.699604 
L 222.877946 108.186574 
L 223.148733 108.186574 
L 223.15977 101.160515 
L 223.263306 101.160515 
L 223.263306 97.647485 
L 223.436942 97.647485 
L 223.436942 94.134455 
L 223.748589 94.134455 
L 223.841417 87.108396 
L 224.105788 87.108396 
L 224.105788 83.595366 
L 224.46587 83.595366 
L 224.46587 80.082337 
L 225.757938 80.082337 
L 225.757938 76.569307 
L 225.894242 76.569307 
L 225.894242 73.056277 
L 226.744149 73.056277 
L 226.744149 69.543248 
L 227.147239 69.543248 
L 227.147239 66.030218 
L 267.062971 66.030218 
L 267.062971 62.517188 
L 273.965729 62.517188 
L 273.965729 59.004158 
L 275.245139 59.004158 
L 275.245139 55.491129 
L 275.488889 55.491129 
L 275.488889 51.978099 
L 276.394737 51.978099 
L 276.491318 44.95204 
L 279.167875 44.95204 
L 279.167875 41.43901 
L 279.976025 41.43901 
L 279.976025 37.92598 
L 281.06002 37.92598 
L 281.06002 34.41295 
L 283.294904 34.41295 
L 283.294904 30.899921 
L 285.036039 30.899921 
L 285.036039 27.386891 
L 288.064929 27.386891 
L 288.064929 23.873861 
L 288.805485 23.873861 
L 288.805485 20.360832 
L 290.915122 20.360832 
L 290.915122 16.847802 
L 293.258456 16.847802 
L 293.258456 13.334772 
L 293.258456 13.334772 
L 367.82 13.334772 
L 367.82 13.334772 
" style="fill:none;stroke:#bf00bf;stroke-linecap:square;stroke-width:1.5;"/>
   </g>
   <g id="line2d_29">
    <path clip-path="url(#pa6812e0684)" d="M 161.189686 276.812 
L 161.189686 273.29897 
L 162.79031 273.29897 
L 162.79031 269.785941 
L 166.226433 269.785941 
L 166.226433 266.272911 
L 167.121972 266.272911 
L 167.121972 262.759881 
L 168.769911 262.759881 
L 168.769911 259.246851 
L 169.991946 259.246851 
L 169.991946 255.733822 
L 170.712524 255.733822 
L 170.712524 252.220792 
L 173.6513 252.220792 
L 173.6513 248.707762 
L 173.886857 248.707762 
L 173.886857 245.194733 
L 174.638892 245.194733 
L 174.638892 241.681703 
L 175.069041 241.681703 
L 175.069041 238.168673 
L 175.223647 238.168673 
L 175.223647 234.655644 
L 175.919182 234.655644 
L 175.919182 231.142614 
L 176.099066 231.142614 
L 176.099066 227.629584 
L 177.706088 227.629584 
L 177.706088 224.116554 
L 183.124998 224.116554 
L 183.124998 220.603525 
L 183.364792 220.603525 
L 183.364792 217.090495 
L 189.62828 217.090495 
L 189.62828 213.577465 
L 190.136672 213.577465 
L 190.136672 210.064436 
L 191.914778 210.064436 
L 191.914778 206.551406 
L 193.234179 206.551406 
L 193.234179 203.038376 
L 195.223914 203.038376 
L 195.223914 199.525347 
L 196.258342 199.525347 
L 196.258342 196.012317 
L 196.839268 196.012317 
L 196.839268 192.499287 
L 198.782079 192.499287 
L 198.782079 188.986257 
L 199.420361 188.986257 
L 199.420361 185.473228 
L 201.099409 185.473228 
L 201.099409 181.960198 
L 201.934452 181.960198 
L 201.934452 178.447168 
L 202.471697 178.447168 
L 202.471697 174.934139 
L 202.727989 174.934139 
L 202.727989 171.421109 
L 203.856026 171.421109 
L 203.856026 167.908079 
L 204.269096 167.908079 
L 204.269096 164.39505 
L 204.980291 164.39505 
L 204.980291 160.88202 
L 205.355522 160.88202 
L 205.439133 153.85596 
L 205.944474 153.85596 
L 205.944474 150.342931 
L 206.294221 150.342931 
L 206.294221 146.829901 
L 206.525333 146.829901 
L 206.620199 139.803842 
L 206.64123 139.803842 
L 206.64123 136.290812 
L 207.181307 136.290812 
L 207.181307 132.777782 
L 207.331124 132.777782 
L 207.435364 125.751723 
L 207.577143 125.751723 
L 207.577143 122.238693 
L 208.850781 122.238693 
L 208.850781 118.725663 
L 209.514352 118.725663 
L 209.514352 115.212634 
L 209.839729 115.212634 
L 209.839729 111.699604 
L 209.973249 111.699604 
L 209.973249 108.186574 
L 210.08924 108.186574 
L 210.08924 104.673545 
L 211.103453 104.673545 
L 211.103453 101.160515 
L 211.433506 101.160515 
L 211.433506 97.647485 
L 212.091447 97.647485 
L 212.091447 94.134455 
L 212.716049 94.134455 
L 212.716049 90.621426 
L 213.541058 90.621426 
L 213.541058 87.108396 
L 213.715946 87.108396 
L 213.747438 80.082337 
L 215.142662 80.082337 
L 215.172156 73.056277 
L 216.13851 73.056277 
L 216.13851 69.543248 
L 216.373266 69.543248 
L 216.373266 66.030218 
L 239.79592 66.030218 
L 239.79592 62.517188 
L 244.351572 62.517188 
L 244.351572 59.004158 
L 247.896604 59.004158 
L 247.896604 55.491129 
L 251.433007 55.491129 
L 251.433007 51.978099 
L 256.528876 51.978099 
L 256.528876 48.465069 
L 257.225448 48.465069 
L 257.225448 44.95204 
L 258.682865 44.95204 
L 258.682865 41.43901 
L 261.440744 41.43901 
L 261.440744 37.92598 
L 262.817078 37.92598 
L 262.817078 34.41295 
L 263.934489 34.41295 
L 263.934489 30.899921 
L 269.779918 30.899921 
L 269.779918 27.386891 
L 272.336985 27.386891 
L 272.336985 23.873861 
L 273.385979 23.873861 
L 273.385979 20.360832 
L 273.922183 20.360832 
L 273.922183 16.847802 
L 278.658593 16.847802 
L 278.658593 13.334772 
L 278.658593 13.334772 
L 367.82 13.334772 
L 367.82 13.334772 
" style="fill:none;stroke:#000000;stroke-linecap:square;stroke-width:1.5;"/>
   </g>
   <g id="line2d_30">
    <path clip-path="url(#pa6812e0684)" d="M 10.606589 276.812 
L 10.606589 273.29897 
L 164.415191 273.29897 
L 164.415191 269.785941 
L 165.011513 269.785941 
L 165.011513 266.272911 
L 165.905565 266.272911 
L 165.905565 262.759881 
L 172.042013 262.759881 
L 172.045449 255.733822 
L 177.548954 255.733822 
L 177.548954 252.220792 
L 178.592171 252.220792 
L 178.592171 248.707762 
L 181.699679 248.707762 
L 181.699679 245.194733 
L 182.658509 245.194733 
L 182.658509 241.681703 
L 186.739635 241.681703 
L 186.739635 238.168673 
L 188.453893 238.168673 
L 188.453893 234.655644 
L 188.607798 234.655644 
L 188.607798 231.142614 
L 188.989578 231.142614 
L 188.989578 227.629584 
L 189.507296 227.629584 
L 189.507296 224.116554 
L 193.044092 224.116554 
L 193.044092 220.603525 
L 194.074553 220.603525 
L 194.074553 217.090495 
L 195.177771 217.090495 
L 195.177771 213.577465 
L 196.133024 213.577465 
L 196.133024 210.064436 
L 196.421451 210.064436 
L 196.421451 206.551406 
L 197.030864 206.551406 
L 197.030864 203.038376 
L 198.29816 203.038376 
L 198.29816 199.525347 
L 200.080875 199.525347 
L 200.080875 196.012317 
L 200.41218 196.012317 
L 200.41218 192.499287 
L 202.075412 192.499287 
L 202.075412 188.986257 
L 205.169333 188.986257 
L 205.169333 185.473228 
L 205.727568 185.473228 
L 205.727568 181.960198 
L 206.043819 181.960198 
L 206.043819 178.447168 
L 206.491274 178.447168 
L 206.565985 171.421109 
L 206.916153 171.421109 
L 206.916153 167.908079 
L 208.168795 167.908079 
L 208.168795 164.39505 
L 208.747361 164.39505 
L 208.747361 160.88202 
L 209.26088 160.88202 
L 209.26088 157.36899 
L 209.596746 157.36899 
L 209.596746 153.85596 
L 209.768755 153.85596 
L 209.777971 146.829901 
L 210.097296 146.829901 
L 210.097296 143.316871 
L 210.336587 143.316871 
L 210.336587 139.803842 
L 210.646566 139.803842 
L 210.714278 132.777782 
L 210.877115 132.777782 
L 210.877115 129.264752 
L 211.8119 129.264752 
L 211.8119 125.751723 
L 212.100286 125.751723 
L 212.100286 122.238693 
L 212.607096 122.238693 
L 212.607096 118.725663 
L 213.624003 118.725663 
L 213.624003 115.212634 
L 213.984795 115.212634 
L 213.984795 111.699604 
L 215.090384 111.699604 
L 215.090384 108.186574 
L 215.702281 108.186574 
L 215.702281 104.673545 
L 216.808077 104.673545 
L 216.808077 101.160515 
L 217.031511 101.160515 
L 217.068376 94.134455 
L 217.646423 94.134455 
L 217.646423 90.621426 
L 218.987661 90.621426 
L 218.987661 87.108396 
L 219.196514 87.108396 
L 219.196514 83.595366 
L 219.378595 83.595366 
L 219.378595 80.082337 
L 220.493908 80.082337 
L 220.493908 76.569307 
L 222.514519 76.569307 
L 222.514519 73.056277 
L 223.500538 73.056277 
L 223.500538 69.543248 
L 223.888726 69.543248 
L 223.888726 66.030218 
L 249.464703 66.030218 
L 249.464703 62.517188 
L 253.040389 62.517188 
L 253.040389 59.004158 
L 254.335267 59.004158 
L 254.335267 55.491129 
L 256.632229 55.491129 
L 256.632229 51.978099 
L 258.661318 51.978099 
L 258.661318 48.465069 
L 259.298234 48.465069 
L 259.298234 44.95204 
L 263.567673 44.95204 
L 263.567673 41.43901 
L 264.764081 41.43901 
L 264.764081 37.92598 
L 265.35894 37.92598 
L 265.35894 34.41295 
L 265.518725 34.41295 
L 265.518725 30.899921 
L 267.855413 30.899921 
L 267.855413 27.386891 
L 271.845869 27.386891 
L 271.845869 23.873861 
L 271.966409 23.873861 
L 271.966409 20.360832 
L 281.971817 20.360832 
L 281.971817 16.847802 
L 287.119992 16.847802 
L 287.119992 13.334772 
L 287.119992 13.334772 
L 367.82 13.334772 
L 367.82 13.334772 
" style="fill:none;stroke:#00bfbf;stroke-linecap:square;stroke-width:1.5;"/>
   </g>
   <g id="patch_3">
    <path d="M 10.7 276.812 
L 10.7 10.7 
" style="fill:none;stroke:#000000;stroke-linecap:square;stroke-linejoin:miter;stroke-width:0.8;"/>
   </g>
   <g id="patch_4">
    <path d="M 367.82 276.812 
L 367.82 10.7 
" style="fill:none;stroke:#000000;stroke-linecap:square;stroke-linejoin:miter;stroke-width:0.8;"/>
   </g>
   <g id="patch_5">
    <path d="M 10.7 276.812 
L 367.82 276.812 
" style="fill:none;stroke:#000000;stroke-linecap:square;stroke-linejoin:miter;stroke-width:0.8;"/>
   </g>
   <g id="patch_6">
    <path d="M 10.7 10.7 
L 367.82 10.7 
" style="fill:none;stroke:#000000;stroke-linecap:square;stroke-linejoin:miter;stroke-width:0.8;"/>
   </g>
   <g id="text_6">
    <!-- {f1-f5}, 5-D -->
    <defs>
     <path d="M 51.125 -9.28125 
L 51.125 -16.3125 
L 48.09375 -16.3125 
Q 35.9375 -16.3125 31.8125 -12.6875 
Q 27.6875 -9.078125 27.6875 1.703125 
L 27.6875 13.375 
Q 27.6875 20.75 25.046875 23.578125 
Q 22.40625 26.421875 15.484375 26.421875 
L 12.5 26.421875 
L 12.5 33.40625 
L 15.484375 33.40625 
Q 22.46875 33.40625 25.078125 36.203125 
Q 27.6875 39.015625 27.6875 46.296875 
L 27.6875 58.015625 
Q 27.6875 68.796875 31.8125 72.390625 
Q 35.9375 75.984375 48.09375 75.984375 
L 51.125 75.984375 
L 51.125 69 
L 47.796875 69 
Q 40.921875 69 38.8125 66.84375 
Q 36.71875 64.703125 36.71875 57.8125 
L 36.71875 45.703125 
Q 36.71875 38.03125 34.5 34.5625 
Q 32.28125 31.109375 26.90625 29.890625 
Q 32.328125 28.5625 34.515625 25.09375 
Q 36.71875 21.625 36.71875 14.015625 
L 36.71875 1.90625 
Q 36.71875 -4.984375 38.8125 -7.125 
Q 40.921875 -9.28125 47.796875 -9.28125 
z
" id="DejaVuSans-7b"/>
     <path d="M 10.796875 72.90625 
L 49.515625 72.90625 
L 49.515625 64.59375 
L 19.828125 64.59375 
L 19.828125 46.734375 
Q 21.96875 47.46875 24.109375 47.828125 
Q 26.265625 48.1875 28.421875 48.1875 
Q 40.625 48.1875 47.75 41.5 
Q 54.890625 34.8125 54.890625 23.390625 
Q 54.890625 11.625 47.5625 5.09375 
Q 40.234375 -1.421875 26.90625 -1.421875 
Q 22.3125 -1.421875 17.546875 -0.640625 
Q 12.796875 0.140625 7.71875 1.703125 
L 7.71875 11.625 
Q 12.109375 9.234375 16.796875 8.0625 
Q 21.484375 6.890625 26.703125 6.890625 
Q 35.15625 6.890625 40.078125 11.328125 
Q 45.015625 15.765625 45.015625 23.390625 
Q 45.015625 31 40.078125 35.4375 
Q 35.15625 39.890625 26.703125 39.890625 
Q 22.75 39.890625 18.8125 39.015625 
Q 14.890625 38.140625 10.796875 36.28125 
z
" id="DejaVuSans-35"/>
     <path d="M 12.5 -9.28125 
L 15.921875 -9.28125 
Q 22.75 -9.28125 24.828125 -7.171875 
Q 26.90625 -5.078125 26.90625 1.90625 
L 26.90625 14.015625 
Q 26.90625 21.625 29.09375 25.09375 
Q 31.296875 28.5625 36.71875 29.890625 
Q 31.296875 31.109375 29.09375 34.5625 
Q 26.90625 38.03125 26.90625 45.703125 
L 26.90625 57.8125 
Q 26.90625 64.75 24.828125 66.875 
Q 22.75 69 15.921875 69 
L 12.5 69 
L 12.5 75.984375 
L 15.578125 75.984375 
Q 27.734375 75.984375 31.8125 72.390625 
Q 35.890625 68.796875 35.890625 58.015625 
L 35.890625 46.296875 
Q 35.890625 39.015625 38.515625 36.203125 
Q 41.15625 33.40625 48.09375 33.40625 
L 51.125 33.40625 
L 51.125 26.421875 
L 48.09375 26.421875 
Q 41.15625 26.421875 38.515625 23.578125 
Q 35.890625 20.75 35.890625 13.375 
L 35.890625 1.703125 
Q 35.890625 -9.078125 31.8125 -12.6875 
Q 27.734375 -16.3125 15.578125 -16.3125 
L 12.5 -16.3125 
z
" id="DejaVuSans-7d"/>
     <path d="M 11.71875 12.40625 
L 22.015625 12.40625 
L 22.015625 4 
L 14.015625 -11.625 
L 7.71875 -11.625 
L 11.71875 4 
z
" id="DejaVuSans-2c"/>
    </defs>
    <g transform="translate(240.4276 271.48976)scale(0.2 -0.2)">
     <use xlink:href="#DejaVuSans-7b"/>
     <use x="63.623047" xlink:href="#DejaVuSans-66"/>
     <use x="98.828125" xlink:href="#DejaVuSans-31"/>
     <use x="162.451172" xlink:href="#DejaVuSans-2d"/>
     <use x="198.535156" xlink:href="#DejaVuSans-66"/>
     <use x="233.740234" xlink:href="#DejaVuSans-35"/>
     <use x="297.363281" xlink:href="#DejaVuSans-7d"/>
     <use x="360.986328" xlink:href="#DejaVuSans-2c"/>
     <use x="392.773438" xlink:href="#DejaVuSans-20"/>
     <use x="424.560547" xlink:href="#DejaVuSans-35"/>
     <use x="488.183594" xlink:href="#DejaVuSans-2d"/>
     <use x="524.267578" xlink:href="#DejaVuSans-44"/>
    </g>
   </g>
   <g id="text_7">
    <!-- v0.0.0 -->
    <defs>
     <path d="M 2.984375 54.6875 
L 12.5 54.6875 
L 29.59375 8.796875 
L 46.6875 54.6875 
L 56.203125 54.6875 
L 35.6875 0 
L 23.484375 0 
z
" id="DejaVuSans-76"/>
     <path d="M 10.6875 12.40625 
L 21 12.40625 
L 21 0 
L 10.6875 0 
z
" id="DejaVuSans-2e"/>
    </defs>
    <g style="fill:#808080;" transform="translate(173.57875 272.071193)scale(0.1 -0.1)">
     <use xlink:href="#DejaVuSans-76"/>
     <use x="59.179688" xlink:href="#DejaVuSans-30"/>
     <use x="122.802734" xlink:href="#DejaVuSans-2e"/>
     <use x="154.589844" xlink:href="#DejaVuSans-30"/>
     <use x="218.212891" xlink:href="#DejaVuSans-2e"/>
     <use x="250" xlink:href="#DejaVuSans-30"/>
    </g>
   </g>
  </g>
 </g>
 <defs>
  <clipPath id="pa6812e0684">
   <rect height="266.112" width="357.12" x="10.7" y="10.7"/>
  </clipPath>
 </defs>
</svg>
