<?xml version="1.0" encoding="utf-8" standalone="no"?>
<!DOCTYPE svg PUBLIC "-//W3C//DTD SVG 1.1//EN"
  "http://www.w3.org/Graphics/SVG/1.1/DTD/svg11.dtd">
<!-- Created with matplotlib (http://matplotlib.org/) -->
<svg height="333pt" version="1.1" viewBox="0 0 378 333" width="378pt" xmlns="http://www.w3.org/2000/svg" xmlns:xlink="http://www.w3.org/1999/xlink">
 <defs>
  <style type="text/css">
*{stroke-linecap:butt;stroke-linejoin:round;}
  </style>
 </defs>
 <g id="figure_1">
  <g id="patch_1">
   <path d="M 0 333.7245 
L 378.52 333.7245 
L 378.52 0 
L 0 0 
z
" style="fill:#ffffff;"/>
  </g>
  <g id="axes_1">
   <g id="patch_2">
    <path d="M 10.7 276.812 
L 367.82 276.812 
L 367.82 10.7 
L 10.7 10.7 
z
" style="fill:#ffffff;"/>
   </g>
   <g id="matplotlib.axis_1">
    <g id="xtick_1">
     <g id="line2d_1">
      <path clip-path="url(#p43d57c4c18)" d="M 10.608949 276.812 
L 10.608949 10.7 
" style="fill:none;stroke:#b0b0b0;stroke-linecap:square;stroke-width:0.8;"/>
     </g>
     <g id="line2d_2">
      <defs>
       <path d="M 0 0 
L 0 3.5 
" id="m2b29380b28" style="stroke:#000000;stroke-width:0.8;"/>
      </defs>
      <g>
       <use style="stroke:#000000;stroke-width:0.8;" x="10.608949" xlink:href="#m2b29380b28" y="276.812"/>
      </g>
     </g>
    </g>
    <g id="xtick_2">
     <g id="line2d_3">
      <path clip-path="url(#p43d57c4c18)" d="M 94.888531 276.812 
L 94.888531 10.7 
" style="fill:none;stroke:#b0b0b0;stroke-linecap:square;stroke-width:0.8;"/>
     </g>
     <g id="line2d_4">
      <g>
       <use style="stroke:#000000;stroke-width:0.8;" x="94.888531" xlink:href="#m2b29380b28" y="276.812"/>
      </g>
     </g>
     <g id="text_1">
      <!-- -4 -->
      <defs>
       <path d="M 4.890625 31.390625 
L 31.203125 31.390625 
L 31.203125 23.390625 
L 4.890625 23.390625 
z
" id="DejaVuSans-2d"/>
       <path d="M 37.796875 64.3125 
L 12.890625 25.390625 
L 37.796875 25.390625 
z
M 35.203125 72.90625 
L 47.609375 72.90625 
L 47.609375 25.390625 
L 58.015625 25.390625 
L 58.015625 17.1875 
L 47.609375 17.1875 
L 47.609375 0 
L 37.796875 0 
L 37.796875 17.1875 
L 4.890625 17.1875 
L 4.890625 26.703125 
z
" id="DejaVuSans-34"/>
      </defs>
      <g transform="translate(84.918219 299.008875)scale(0.2 -0.2)">
       <use xlink:href="#DejaVuSans-2d"/>
       <use x="36.083984" xlink:href="#DejaVuSans-34"/>
      </g>
     </g>
    </g>
    <g id="xtick_3">
     <g id="line2d_5">
      <path clip-path="url(#p43d57c4c18)" d="M 179.168114 276.812 
L 179.168114 10.7 
" style="fill:none;stroke:#b0b0b0;stroke-linecap:square;stroke-width:0.8;"/>
     </g>
     <g id="line2d_6">
      <g>
       <use style="stroke:#000000;stroke-width:0.8;" x="179.168114" xlink:href="#m2b29380b28" y="276.812"/>
      </g>
     </g>
     <g id="text_2">
      <!-- 0 -->
      <defs>
       <path d="M 31.78125 66.40625 
Q 24.171875 66.40625 20.328125 58.90625 
Q 16.5 51.421875 16.5 36.375 
Q 16.5 21.390625 20.328125 13.890625 
Q 24.171875 6.390625 31.78125 6.390625 
Q 39.453125 6.390625 43.28125 13.890625 
Q 47.125 21.390625 47.125 36.375 
Q 47.125 51.421875 43.28125 58.90625 
Q 39.453125 66.40625 31.78125 66.40625 
z
M 31.78125 74.21875 
Q 44.046875 74.21875 50.515625 64.515625 
Q 56.984375 54.828125 56.984375 36.375 
Q 56.984375 17.96875 50.515625 8.265625 
Q 44.046875 -1.421875 31.78125 -1.421875 
Q 19.53125 -1.421875 13.0625 8.265625 
Q 6.59375 17.96875 6.59375 36.375 
Q 6.59375 54.828125 13.0625 64.515625 
Q 19.53125 74.21875 31.78125 74.21875 
z
" id="DejaVuSans-30"/>
      </defs>
      <g transform="translate(172.805614 299.008875)scale(0.2 -0.2)">
       <use xlink:href="#DejaVuSans-30"/>
      </g>
     </g>
    </g>
    <g id="xtick_4">
     <g id="line2d_7">
      <path clip-path="url(#p43d57c4c18)" d="M 263.447696 276.812 
L 263.447696 10.7 
" style="fill:none;stroke:#b0b0b0;stroke-linecap:square;stroke-width:0.8;"/>
     </g>
     <g id="line2d_8">
      <g>
       <use style="stroke:#000000;stroke-width:0.8;" x="263.447696" xlink:href="#m2b29380b28" y="276.812"/>
      </g>
     </g>
     <g id="text_3">
      <!-- 4 -->
      <g transform="translate(257.085196 299.008875)scale(0.2 -0.2)">
       <use xlink:href="#DejaVuSans-34"/>
      </g>
     </g>
    </g>
    <g id="xtick_5">
     <g id="line2d_9">
      <path clip-path="url(#p43d57c4c18)" d="M 347.727279 276.812 
L 347.727279 10.7 
" style="fill:none;stroke:#b0b0b0;stroke-linecap:square;stroke-width:0.8;"/>
     </g>
     <g id="line2d_10">
      <g>
       <use style="stroke:#000000;stroke-width:0.8;" x="347.727279" xlink:href="#m2b29380b28" y="276.812"/>
      </g>
     </g>
     <g id="text_4">
      <!-- 8 -->
      <defs>
       <path d="M 31.78125 34.625 
Q 24.75 34.625 20.71875 30.859375 
Q 16.703125 27.09375 16.703125 20.515625 
Q 16.703125 13.921875 20.71875 10.15625 
Q 24.75 6.390625 31.78125 6.390625 
Q 38.8125 6.390625 42.859375 10.171875 
Q 46.921875 13.96875 46.921875 20.515625 
Q 46.921875 27.09375 42.890625 30.859375 
Q 38.875 34.625 31.78125 34.625 
z
M 21.921875 38.8125 
Q 15.578125 40.375 12.03125 44.71875 
Q 8.5 49.078125 8.5 55.328125 
Q 8.5 64.0625 14.71875 69.140625 
Q 20.953125 74.21875 31.78125 74.21875 
Q 42.671875 74.21875 48.875 69.140625 
Q 55.078125 64.0625 55.078125 55.328125 
Q 55.078125 49.078125 51.53125 44.71875 
Q 48 40.375 41.703125 38.8125 
Q 48.828125 37.15625 52.796875 32.3125 
Q 56.78125 27.484375 56.78125 20.515625 
Q 56.78125 9.90625 50.3125 4.234375 
Q 43.84375 -1.421875 31.78125 -1.421875 
Q 19.734375 -1.421875 13.25 4.234375 
Q 6.78125 9.90625 6.78125 20.515625 
Q 6.78125 27.484375 10.78125 32.3125 
Q 14.796875 37.15625 21.921875 38.8125 
z
M 18.3125 54.390625 
Q 18.3125 48.734375 21.84375 45.5625 
Q 25.390625 42.390625 31.78125 42.390625 
Q 38.140625 42.390625 41.71875 45.5625 
Q 45.3125 48.734375 45.3125 54.390625 
Q 45.3125 60.0625 41.71875 63.234375 
Q 38.140625 66.40625 31.78125 66.40625 
Q 25.390625 66.40625 21.84375 63.234375 
Q 18.3125 60.0625 18.3125 54.390625 
z
" id="DejaVuSans-38"/>
      </defs>
      <g transform="translate(341.364779 299.008875)scale(0.2 -0.2)">
       <use xlink:href="#DejaVuSans-38"/>
      </g>
     </g>
    </g>
    <g id="text_5">
     <!-- log10 of Df -->
     <defs>
      <path d="M 9.421875 75.984375 
L 18.40625 75.984375 
L 18.40625 0 
L 9.421875 0 
z
" id="DejaVuSans-6c"/>
      <path d="M 30.609375 48.390625 
Q 23.390625 48.390625 19.1875 42.75 
Q 14.984375 37.109375 14.984375 27.296875 
Q 14.984375 17.484375 19.15625 11.84375 
Q 23.34375 6.203125 30.609375 6.203125 
Q 37.796875 6.203125 41.984375 11.859375 
Q 46.1875 17.53125 46.1875 27.296875 
Q 46.1875 37.015625 41.984375 42.703125 
Q 37.796875 48.390625 30.609375 48.390625 
z
M 30.609375 56 
Q 42.328125 56 49.015625 48.375 
Q 55.71875 40.765625 55.71875 27.296875 
Q 55.71875 13.875 49.015625 6.21875 
Q 42.328125 -1.421875 30.609375 -1.421875 
Q 18.84375 -1.421875 12.171875 6.21875 
Q 5.515625 13.875 5.515625 27.296875 
Q 5.515625 40.765625 12.171875 48.375 
Q 18.84375 56 30.609375 56 
z
" id="DejaVuSans-6f"/>
      <path d="M 45.40625 27.984375 
Q 45.40625 37.75 41.375 43.109375 
Q 37.359375 48.484375 30.078125 48.484375 
Q 22.859375 48.484375 18.828125 43.109375 
Q 14.796875 37.75 14.796875 27.984375 
Q 14.796875 18.265625 18.828125 12.890625 
Q 22.859375 7.515625 30.078125 7.515625 
Q 37.359375 7.515625 41.375 12.890625 
Q 45.40625 18.265625 45.40625 27.984375 
z
M 54.390625 6.78125 
Q 54.390625 -7.171875 48.1875 -13.984375 
Q 42 -20.796875 29.203125 -20.796875 
Q 24.46875 -20.796875 20.265625 -20.09375 
Q 16.0625 -19.390625 12.109375 -17.921875 
L 12.109375 -9.1875 
Q 16.0625 -11.328125 19.921875 -12.34375 
Q 23.78125 -13.375 27.78125 -13.375 
Q 36.625 -13.375 41.015625 -8.765625 
Q 45.40625 -4.15625 45.40625 5.171875 
L 45.40625 9.625 
Q 42.625 4.78125 38.28125 2.390625 
Q 33.9375 0 27.875 0 
Q 17.828125 0 11.671875 7.65625 
Q 5.515625 15.328125 5.515625 27.984375 
Q 5.515625 40.671875 11.671875 48.328125 
Q 17.828125 56 27.875 56 
Q 33.9375 56 38.28125 53.609375 
Q 42.625 51.21875 45.40625 46.390625 
L 45.40625 54.6875 
L 54.390625 54.6875 
z
" id="DejaVuSans-67"/>
      <path d="M 12.40625 8.296875 
L 28.515625 8.296875 
L 28.515625 63.921875 
L 10.984375 60.40625 
L 10.984375 69.390625 
L 28.421875 72.90625 
L 38.28125 72.90625 
L 38.28125 8.296875 
L 54.390625 8.296875 
L 54.390625 0 
L 12.40625 0 
z
" id="DejaVuSans-31"/>
      <path id="DejaVuSans-20"/>
      <path d="M 37.109375 75.984375 
L 37.109375 68.5 
L 28.515625 68.5 
Q 23.6875 68.5 21.796875 66.546875 
Q 19.921875 64.59375 19.921875 59.515625 
L 19.921875 54.6875 
L 34.71875 54.6875 
L 34.71875 47.703125 
L 19.921875 47.703125 
L 19.921875 0 
L 10.890625 0 
L 10.890625 47.703125 
L 2.296875 47.703125 
L 2.296875 54.6875 
L 10.890625 54.6875 
L 10.890625 58.5 
Q 10.890625 67.625 15.140625 71.796875 
Q 19.390625 75.984375 28.609375 75.984375 
z
" id="DejaVuSans-66"/>
      <path d="M 19.671875 64.796875 
L 19.671875 8.109375 
L 31.59375 8.109375 
Q 46.6875 8.109375 53.6875 14.9375 
Q 60.6875 21.78125 60.6875 36.53125 
Q 60.6875 51.171875 53.6875 57.984375 
Q 46.6875 64.796875 31.59375 64.796875 
z
M 9.8125 72.90625 
L 30.078125 72.90625 
Q 51.265625 72.90625 61.171875 64.09375 
Q 71.09375 55.28125 71.09375 36.53125 
Q 71.09375 17.671875 61.125 8.828125 
Q 51.171875 0 30.078125 0 
L 9.8125 0 
z
" id="DejaVuSans-44"/>
     </defs>
     <g transform="translate(134.074063 322.365125)scale(0.2 -0.2)">
      <use xlink:href="#DejaVuSans-6c"/>
      <use x="27.783203" xlink:href="#DejaVuSans-6f"/>
      <use x="88.964844" xlink:href="#DejaVuSans-67"/>
      <use x="152.441406" xlink:href="#DejaVuSans-31"/>
      <use x="216.064453" xlink:href="#DejaVuSans-30"/>
      <use x="279.6875" xlink:href="#DejaVuSans-20"/>
      <use x="311.474609" xlink:href="#DejaVuSans-6f"/>
      <use x="372.65625" xlink:href="#DejaVuSans-66"/>
      <use x="407.861328" xlink:href="#DejaVuSans-20"/>
      <use x="439.648438" xlink:href="#DejaVuSans-44"/>
      <use x="516.650391" xlink:href="#DejaVuSans-66"/>
     </g>
    </g>
   </g>
   <g id="matplotlib.axis_2">
    <g id="ytick_1">
     <g id="line2d_11">
      <path clip-path="url(#p43d57c4c18)" d="M 10.7 276.812 
L 367.82 276.812 
" style="fill:none;stroke:#b0b0b0;stroke-linecap:square;stroke-width:0.8;"/>
     </g>
     <g id="line2d_12">
      <defs>
       <path d="M 0 0 
L -3.5 0 
" id="m0233846b9b" style="stroke:#000000;stroke-width:0.8;"/>
      </defs>
      <g>
       <use style="stroke:#000000;stroke-width:0.8;" x="10.7" xlink:href="#m0233846b9b" y="276.812"/>
      </g>
     </g>
    </g>
    <g id="ytick_2">
     <g id="line2d_13">
      <path clip-path="url(#p43d57c4c18)" d="M 10.7 224.116554 
L 367.82 224.116554 
" style="fill:none;stroke:#b0b0b0;stroke-linecap:square;stroke-width:0.8;"/>
     </g>
     <g id="line2d_14">
      <g>
       <use style="stroke:#000000;stroke-width:0.8;" x="10.7" xlink:href="#m0233846b9b" y="224.116554"/>
      </g>
     </g>
    </g>
    <g id="ytick_3">
     <g id="line2d_15">
      <path clip-path="url(#p43d57c4c18)" d="M 10.7 171.421109 
L 367.82 171.421109 
" style="fill:none;stroke:#b0b0b0;stroke-linecap:square;stroke-width:0.8;"/>
     </g>
     <g id="line2d_16">
      <g>
       <use style="stroke:#000000;stroke-width:0.8;" x="10.7" xlink:href="#m0233846b9b" y="171.421109"/>
      </g>
     </g>
    </g>
    <g id="ytick_4">
     <g id="line2d_17">
      <path clip-path="url(#p43d57c4c18)" d="M 10.7 118.725663 
L 367.82 118.725663 
" style="fill:none;stroke:#b0b0b0;stroke-linecap:square;stroke-width:0.8;"/>
     </g>
     <g id="line2d_18">
      <g>
       <use style="stroke:#000000;stroke-width:0.8;" x="10.7" xlink:href="#m0233846b9b" y="118.725663"/>
      </g>
     </g>
    </g>
    <g id="ytick_5">
     <g id="line2d_19">
      <path clip-path="url(#p43d57c4c18)" d="M 10.7 66.030218 
L 367.82 66.030218 
" style="fill:none;stroke:#b0b0b0;stroke-linecap:square;stroke-width:0.8;"/>
     </g>
     <g id="line2d_20">
      <g>
       <use style="stroke:#000000;stroke-width:0.8;" x="10.7" xlink:href="#m0233846b9b" y="66.030218"/>
      </g>
     </g>
    </g>
    <g id="ytick_6">
     <g id="line2d_21">
      <path clip-path="url(#p43d57c4c18)" d="M 10.7 13.334772 
L 367.82 13.334772 
" style="fill:none;stroke:#b0b0b0;stroke-linecap:square;stroke-width:0.8;"/>
     </g>
     <g id="line2d_22">
      <g>
       <use style="stroke:#000000;stroke-width:0.8;" x="10.7" xlink:href="#m0233846b9b" y="13.334772"/>
      </g>
     </g>
    </g>
   </g>
   <g id="line2d_23">
    <path clip-path="url(#p43d57c4c18)" d="M -1 224.116554 
L 70.114225 224.116554 
L 70.114225 220.603525 
L 77.177566 220.603525 
L 77.177566 217.090495 
L 77.464529 217.090495 
L 77.540209 206.551406 
L 79.735731 206.551406 
L 79.816105 199.525347 
L 80.250418 199.525347 
L 80.250418 196.012317 
L 81.161139 196.012317 
L 81.161139 192.499287 
L 81.772624 192.499287 
L 81.772624 188.986257 
L 86.423551 188.986257 
L 86.423551 185.473228 
L 87.041781 185.473228 
L 87.041781 181.960198 
L 87.382713 181.960198 
L 87.449539 174.934139 
L 88.835508 174.934139 
L 88.835508 171.421109 
L 131.419658 171.421109 
L 131.419658 167.908079 
L 132.567583 167.908079 
L 132.567583 164.39505 
L 132.703728 164.39505 
L 132.703728 160.88202 
L 132.815589 160.88202 
L 132.815589 157.36899 
L 134.306833 157.36899 
L 134.306833 153.85596 
L 135.436698 153.85596 
L 135.436698 150.342931 
L 136.55848 150.342931 
L 136.55848 146.829901 
L 137.36845 146.829901 
L 137.36845 143.316871 
L 139.955639 143.316871 
L 139.955639 139.803842 
L 140.150006 139.803842 
L 140.150006 136.290812 
L 141.714094 136.290812 
L 141.714094 132.777782 
L 142.300458 132.777782 
L 142.401503 125.751723 
L 143.823905 125.751723 
L 143.823905 122.238693 
L 144.293871 122.238693 
L 144.293871 118.725663 
L 144.427973 118.725663 
L 144.427973 115.212634 
L 144.64295 115.212634 
L 144.64295 111.699604 
L 145.652208 111.699604 
L 145.652208 108.186574 
L 145.796267 108.186574 
L 145.796267 104.673545 
L 146.27875 104.673545 
L 146.27875 101.160515 
L 146.646606 101.160515 
L 146.646606 97.647485 
L 147.182438 97.647485 
L 147.182438 94.134455 
L 149.697261 94.134455 
L 149.697261 90.621426 
L 150.264979 90.621426 
L 150.264979 87.108396 
L 151.093984 87.108396 
L 151.093984 83.595366 
L 154.342685 83.595366 
L 154.342685 80.082337 
L 155.637814 80.082337 
L 155.70894 73.056277 
L 156.756705 73.056277 
L 156.756705 69.543248 
L 158.63198 69.543248 
L 158.63198 66.030218 
L 158.785756 66.030218 
L 158.785756 62.517188 
L 158.909031 62.517188 
L 158.909031 59.004158 
L 160.102248 59.004158 
L 160.164615 51.978099 
L 162.267098 51.978099 
L 162.267098 48.465069 
L 167.301845 48.465069 
L 167.301845 44.95204 
L 171.690081 44.95204 
L 171.690081 41.43901 
L 172.172258 41.43901 
L 172.172258 37.92598 
L 172.287164 37.92598 
L 172.287164 34.41295 
L 173.273089 34.41295 
L 173.273089 30.899921 
L 173.944768 30.899921 
L 173.944768 27.386891 
L 175.190006 27.386891 
L 175.190006 23.873861 
L 178.456891 23.873861 
L 178.456891 20.360832 
L 180.513654 20.360832 
L 180.513654 16.847802 
L 181.056331 16.847802 
L 181.056331 13.334772 
L 181.056331 13.334772 
L 367.82 13.334772 
L 367.82 13.334772 
" style="fill:none;stroke:#ff0000;stroke-linecap:square;stroke-width:3;"/>
   </g>
   <g id="line2d_24">
    <path clip-path="url(#p43d57c4c18)" d="M 219.387782 276.812 
L 219.387782 273.29897 
L 225.018205 273.29897 
L 225.018205 269.785941 
L 226.293712 269.785941 
L 226.293712 266.272911 
L 228.044232 266.272911 
L 228.044232 262.759881 
L 228.640357 262.759881 
L 228.640357 259.246851 
L 228.880686 259.246851 
L 228.880686 255.733822 
L 229.300332 255.733822 
L 229.300332 252.220792 
L 230.014956 252.220792 
L 230.014956 248.707762 
L 230.400588 248.707762 
L 230.400588 245.194733 
L 230.965139 245.194733 
L 230.965139 241.681703 
L 231.538037 241.681703 
L 231.606137 234.655644 
L 232.185238 234.655644 
L 232.185238 231.142614 
L 232.492069 231.142614 
L 232.492069 227.629584 
L 232.626911 227.629584 
L 232.626911 224.116554 
L 232.776679 224.116554 
L 232.776679 220.603525 
L 233.092771 220.603525 
L 233.092771 217.090495 
L 233.310169 217.090495 
L 233.310169 213.577465 
L 233.466988 213.577465 
L 233.466988 210.064436 
L 233.602959 210.064436 
L 233.602959 206.551406 
L 233.725653 206.551406 
L 233.725653 203.038376 
L 233.859705 203.038376 
L 233.859705 199.525347 
L 234.35668 199.525347 
L 234.458409 192.499287 
L 234.536599 192.499287 
L 234.536599 188.986257 
L 234.749627 188.986257 
L 234.749627 185.473228 
L 234.989606 185.473228 
L 234.989606 181.960198 
L 235.447933 181.960198 
L 235.447933 178.447168 
L 236.211577 178.447168 
L 236.275539 171.421109 
L 241.840972 171.421109 
L 241.840972 167.908079 
L 242.275245 167.908079 
L 242.275245 164.39505 
L 243.011712 164.39505 
L 243.011712 160.88202 
L 244.127975 160.88202 
L 244.127975 157.36899 
L 245.238569 157.36899 
L 245.238569 153.85596 
L 245.507909 153.85596 
L 245.507909 150.342931 
L 246.146305 150.342931 
L 246.146305 146.829901 
L 247.026685 146.829901 
L 247.026685 143.316871 
L 248.182239 143.316871 
L 248.193099 132.777782 
L 248.907298 132.777782 
L 248.907298 129.264752 
L 249.412011 129.264752 
L 249.455239 122.238693 
L 250.002074 122.238693 
L 250.002074 118.725663 
L 250.249595 118.725663 
L 250.249595 115.212634 
L 250.877112 115.212634 
L 250.877112 111.699604 
L 251.282659 111.699604 
L 251.282659 108.186574 
L 251.566222 108.186574 
L 251.566222 104.673545 
L 251.852689 104.673545 
L 251.852689 101.160515 
L 252.750564 101.160515 
L 252.750564 97.647485 
L 253.409471 97.647485 
L 253.409471 94.134455 
L 257.049461 94.134455 
L 257.049461 90.621426 
L 259.320978 90.621426 
L 259.320978 87.108396 
L 260.18874 87.108396 
L 260.18874 83.595366 
L 260.570907 83.595366 
L 260.570907 80.082337 
L 260.822147 80.082337 
L 260.822147 76.569307 
L 262.732298 76.569307 
L 262.732298 73.056277 
L 267.116464 73.056277 
L 267.116464 69.543248 
L 269.85699 69.543248 
L 269.85699 66.030218 
L 320.599732 66.030218 
L 320.599732 62.517188 
L 323.901421 62.517188 
L 323.901421 59.004158 
L 325.978443 59.004158 
L 325.978443 55.491129 
L 326.270637 55.491129 
L 326.270637 51.978099 
L 330.631042 51.978099 
L 330.631042 48.465069 
L 332.233398 48.465069 
L 332.233398 44.95204 
L 332.633411 44.95204 
L 332.633411 41.43901 
L 333.907821 41.43901 
L 333.907821 37.92598 
L 334.496489 37.92598 
L 334.496489 34.41295 
L 335.058976 34.41295 
L 335.058976 30.899921 
L 337.53042 30.899921 
L 337.53042 27.386891 
L 340.109647 27.386891 
L 340.109647 23.873861 
L 341.452252 23.873861 
L 341.452252 20.360832 
L 342.399937 20.360832 
L 342.399937 16.847802 
L 344.943108 16.847802 
L 344.943108 13.334772 
L 344.943108 13.334772 
L 367.82 13.334772 
L 367.82 13.334772 
" style="fill:none;stroke:#00bfbf;stroke-linecap:square;stroke-width:1.5;"/>
   </g>
   <g id="line2d_25">
    <path clip-path="url(#p43d57c4c18)" d="M 219.387782 276.812 
L 219.387782 273.29897 
L 225.018205 273.29897 
L 225.018205 269.785941 
L 226.293712 269.785941 
L 226.293712 266.272911 
L 228.044232 266.272911 
L 228.044232 262.759881 
L 228.640357 262.759881 
L 228.640357 259.246851 
L 228.880686 259.246851 
L 228.880686 255.733822 
L 229.300332 255.733822 
L 229.300332 252.220792 
L 230.014956 252.220792 
L 230.014956 248.707762 
L 230.400588 248.707762 
L 230.400588 245.194733 
L 230.965139 245.194733 
L 230.965139 241.681703 
L 231.538037 241.681703 
L 231.606137 234.655644 
L 232.185238 234.655644 
L 232.185238 231.142614 
L 232.492069 231.142614 
L 232.492069 227.629584 
L 232.626911 227.629584 
L 232.626911 224.116554 
L 232.776679 224.116554 
L 232.776679 220.603525 
L 233.092771 220.603525 
L 233.092771 217.090495 
L 233.310169 217.090495 
L 233.310169 213.577465 
L 233.466988 213.577465 
L 233.466988 210.064436 
L 233.602959 210.064436 
L 233.602959 206.551406 
L 233.725653 206.551406 
L 233.725653 203.038376 
L 233.859705 203.038376 
L 233.859705 199.525347 
L 234.35668 199.525347 
L 234.458409 192.499287 
L 234.536599 192.499287 
L 234.536599 188.986257 
L 234.749627 188.986257 
L 234.749627 185.473228 
L 234.989606 185.473228 
L 234.989606 181.960198 
L 235.447933 181.960198 
L 235.447933 178.447168 
L 236.211577 178.447168 
L 236.275539 171.421109 
L 241.840972 171.421109 
L 241.840972 167.908079 
L 242.275245 167.908079 
L 242.275245 164.39505 
L 243.011712 164.39505 
L 243.011712 160.88202 
L 244.127975 160.88202 
L 244.127975 157.36899 
L 245.238569 157.36899 
L 245.238569 153.85596 
L 245.507909 153.85596 
L 245.507909 150.342931 
L 246.146305 150.342931 
L 246.146305 146.829901 
L 247.026685 146.829901 
L 247.026685 143.316871 
L 248.182239 143.316871 
L 248.193099 132.777782 
L 248.907298 132.777782 
L 248.907298 129.264752 
L 249.412011 129.264752 
L 249.455239 122.238693 
L 250.002074 122.238693 
L 250.002074 118.725663 
L 250.249595 118.725663 
L 250.249595 115.212634 
L 250.877112 115.212634 
L 250.877112 111.699604 
L 251.282659 111.699604 
L 251.282659 108.186574 
L 251.566222 108.186574 
L 251.566222 104.673545 
L 251.852689 104.673545 
L 251.852689 101.160515 
L 252.750564 101.160515 
L 252.750564 97.647485 
L 253.409471 97.647485 
L 253.409471 94.134455 
L 257.049461 94.134455 
L 257.049461 90.621426 
L 259.320978 90.621426 
L 259.320978 87.108396 
L 260.18874 87.108396 
L 260.18874 83.595366 
L 260.570907 83.595366 
L 260.570907 80.082337 
L 260.822147 80.082337 
L 260.822147 76.569307 
L 262.732298 76.569307 
L 262.732298 73.056277 
L 267.116464 73.056277 
L 267.116464 69.543248 
L 269.85699 69.543248 
L 269.85699 66.030218 
L 320.599732 66.030218 
L 320.599732 62.517188 
L 323.901421 62.517188 
L 323.901421 59.004158 
L 325.978443 59.004158 
L 325.978443 55.491129 
L 326.270637 55.491129 
L 326.270637 51.978099 
L 330.631042 51.978099 
L 330.631042 48.465069 
L 332.233398 48.465069 
L 332.233398 44.95204 
L 332.633411 44.95204 
L 332.633411 41.43901 
L 333.907821 41.43901 
L 333.907821 37.92598 
L 334.496489 37.92598 
L 334.496489 34.41295 
L 335.058976 34.41295 
L 335.058976 30.899921 
L 337.53042 30.899921 
L 337.53042 27.386891 
L 340.109647 27.386891 
L 340.109647 23.873861 
L 341.452252 23.873861 
L 341.452252 20.360832 
L 342.399937 20.360832 
L 342.399937 16.847802 
L 344.943108 16.847802 
L 344.943108 13.334772 
L 344.943108 13.334772 
L 367.82 13.334772 
L 367.82 13.334772 
" style="fill:none;stroke:#bf00bf;stroke-linecap:square;stroke-width:1.5;"/>
   </g>
   <g id="line2d_26">
    <path clip-path="url(#p43d57c4c18)" d="M 219.387782 276.812 
L 219.387782 273.29897 
L 225.018205 273.29897 
L 225.018205 269.785941 
L 226.293712 269.785941 
L 226.293712 266.272911 
L 228.044232 266.272911 
L 228.044232 262.759881 
L 228.640357 262.759881 
L 228.640357 259.246851 
L 228.880686 259.246851 
L 228.880686 255.733822 
L 229.300332 255.733822 
L 229.300332 252.220792 
L 230.014956 252.220792 
L 230.014956 248.707762 
L 230.400588 248.707762 
L 230.400588 245.194733 
L 230.965139 245.194733 
L 230.965139 241.681703 
L 231.538037 241.681703 
L 231.606137 234.655644 
L 232.185238 234.655644 
L 232.185238 231.142614 
L 232.492069 231.142614 
L 232.492069 227.629584 
L 232.626911 227.629584 
L 232.626911 224.116554 
L 232.776679 224.116554 
L 232.776679 220.603525 
L 233.092771 220.603525 
L 233.092771 217.090495 
L 233.310169 217.090495 
L 233.310169 213.577465 
L 233.466988 213.577465 
L 233.466988 210.064436 
L 233.602959 210.064436 
L 233.602959 206.551406 
L 233.725653 206.551406 
L 233.725653 203.038376 
L 233.859705 203.038376 
L 233.859705 199.525347 
L 234.35668 199.525347 
L 234.458409 192.499287 
L 234.536599 192.499287 
L 234.536599 188.986257 
L 234.749627 188.986257 
L 234.749627 185.473228 
L 234.989606 185.473228 
L 234.989606 181.960198 
L 235.447933 181.960198 
L 235.447933 178.447168 
L 236.211577 178.447168 
L 236.275539 171.421109 
L 241.840972 171.421109 
L 241.840972 167.908079 
L 242.275245 167.908079 
L 242.275245 164.39505 
L 243.011712 164.39505 
L 243.011712 160.88202 
L 244.127975 160.88202 
L 244.127975 157.36899 
L 245.238569 157.36899 
L 245.238569 153.85596 
L 245.507909 153.85596 
L 245.507909 150.342931 
L 246.146305 150.342931 
L 246.146305 146.829901 
L 247.026685 146.829901 
L 247.026685 143.316871 
L 248.182239 143.316871 
L 248.193099 132.777782 
L 248.907298 132.777782 
L 248.907298 129.264752 
L 249.412011 129.264752 
L 249.455239 122.238693 
L 250.002074 122.238693 
L 250.002074 118.725663 
L 250.249595 118.725663 
L 250.249595 115.212634 
L 250.877112 115.212634 
L 250.877112 111.699604 
L 251.282659 111.699604 
L 251.282659 108.186574 
L 251.566222 108.186574 
L 251.566222 104.673545 
L 251.852689 104.673545 
L 251.852689 101.160515 
L 252.750564 101.160515 
L 252.750564 97.647485 
L 253.409471 97.647485 
L 253.409471 94.134455 
L 257.049461 94.134455 
L 257.049461 90.621426 
L 259.320978 90.621426 
L 259.320978 87.108396 
L 260.18874 87.108396 
L 260.18874 83.595366 
L 260.570907 83.595366 
L 260.570907 80.082337 
L 260.822147 80.082337 
L 260.822147 76.569307 
L 262.732298 76.569307 
L 262.732298 73.056277 
L 267.116464 73.056277 
L 267.116464 69.543248 
L 269.85699 69.543248 
L 269.85699 66.030218 
L 320.599732 66.030218 
L 320.599732 62.517188 
L 323.901421 62.517188 
L 323.901421 59.004158 
L 325.978443 59.004158 
L 325.978443 55.491129 
L 326.270637 55.491129 
L 326.270637 51.978099 
L 330.631042 51.978099 
L 330.631042 48.465069 
L 332.233398 48.465069 
L 332.233398 44.95204 
L 332.633411 44.95204 
L 332.633411 41.43901 
L 333.907821 41.43901 
L 333.907821 37.92598 
L 334.496489 37.92598 
L 334.496489 34.41295 
L 335.058976 34.41295 
L 335.058976 30.899921 
L 337.53042 30.899921 
L 337.53042 27.386891 
L 340.109647 27.386891 
L 340.109647 23.873861 
L 341.452252 23.873861 
L 341.452252 20.360832 
L 342.399937 20.360832 
L 342.399937 16.847802 
L 344.943108 16.847802 
L 344.943108 13.334772 
L 344.943108 13.334772 
L 367.82 13.334772 
L 367.82 13.334772 
" style="fill:none;stroke:#000000;stroke-linecap:square;stroke-width:1.5;"/>
   </g>
   <g id="line2d_27">
    <path clip-path="url(#p43d57c4c18)" d="M 216.911767 276.812 
L 216.911767 273.29897 
L 219.726929 273.29897 
L 219.726929 269.785941 
L 219.953502 269.785941 
L 219.953502 266.272911 
L 220.854331 266.272911 
L 220.854331 262.759881 
L 221.037308 262.759881 
L 221.037308 259.246851 
L 221.649683 259.246851 
L 221.690592 252.220792 
L 221.971974 252.220792 
L 222.073267 245.194733 
L 222.104102 245.194733 
L 222.104102 241.681703 
L 222.327578 241.681703 
L 222.327578 238.168673 
L 222.972324 238.168673 
L 223.005953 231.142614 
L 223.198746 231.142614 
L 223.198746 227.629584 
L 223.449145 227.629584 
L 223.449145 224.116554 
L 226.049522 224.116554 
L 226.049522 220.603525 
L 226.996718 220.603525 
L 227.075839 213.577465 
L 227.398754 213.577465 
L 227.398754 210.064436 
L 227.927137 210.064436 
L 227.927137 206.551406 
L 228.272682 206.551406 
L 228.339641 199.525347 
L 228.708334 199.525347 
L 228.805041 192.499287 
L 228.863146 192.499287 
L 228.895226 185.473228 
L 228.995614 185.473228 
L 229.07968 178.447168 
L 229.140721 178.447168 
L 229.140721 174.934139 
L 229.919785 174.934139 
L 229.919785 171.421109 
L 236.685417 171.421109 
L 236.685417 167.908079 
L 237.193996 167.908079 
L 237.193996 164.39505 
L 237.504953 164.39505 
L 237.543648 157.36899 
L 237.745779 157.36899 
L 237.78921 150.342931 
L 237.885551 150.342931 
L 237.951123 143.316871 
L 238.0814 143.316871 
L 238.0814 139.803842 
L 238.217791 139.803842 
L 238.217791 136.290812 
L 238.506502 136.290812 
L 238.572559 122.238693 
L 239.250282 122.238693 
L 239.339035 111.699604 
L 239.536552 111.699604 
L 239.620465 101.160515 
L 239.791034 101.160515 
L 239.867072 90.621426 
L 240.175458 90.621426 
L 240.240781 83.595366 
L 240.750378 83.595366 
L 240.750378 80.082337 
L 240.977008 80.082337 
L 240.977008 76.569307 
L 241.189997 76.569307 
L 241.282006 66.030218 
L 306.498855 66.030218 
L 306.498855 62.517188 
L 307.009016 62.517188 
L 307.009016 59.004158 
L 307.948433 59.004158 
L 307.948433 55.491129 
L 308.352523 55.491129 
L 308.352523 51.978099 
L 308.982628 51.978099 
L 308.982628 48.465069 
L 309.806049 48.465069 
L 309.806049 44.95204 
L 310.46072 44.95204 
L 310.46072 41.43901 
L 311.342761 41.43901 
L 311.414975 34.41295 
L 311.787421 34.41295 
L 311.787421 30.899921 
L 312.041678 30.899921 
L 312.041678 27.386891 
L 312.725788 27.386891 
L 312.725788 23.873861 
L 313.453907 23.873861 
L 313.453907 20.360832 
L 314.989874 20.360832 
L 314.989874 16.847802 
L 315.608037 16.847802 
L 315.608037 13.334772 
L 315.608037 13.334772 
L 367.82 13.334772 
L 367.82 13.334772 
" style="fill:none;stroke:#00bfbf;stroke-linecap:square;stroke-width:1.5;"/>
   </g>
   <g id="line2d_28">
    <path clip-path="url(#p43d57c4c18)" d="M 212.612941 276.812 
L 212.612941 273.29897 
L 212.738659 273.29897 
L 212.738659 269.785941 
L 213.496231 269.785941 
L 213.496231 266.272911 
L 214.210667 266.272911 
L 214.283177 259.246851 
L 214.454324 259.246851 
L 214.454324 255.733822 
L 214.657541 255.733822 
L 214.657541 252.220792 
L 214.889737 252.220792 
L 214.889737 248.707762 
L 215.972057 248.707762 
L 215.972057 245.194733 
L 216.223873 245.194733 
L 216.315169 238.168673 
L 216.47544 238.168673 
L 216.565917 231.142614 
L 216.854725 231.142614 
L 216.854725 227.629584 
L 217.031357 227.629584 
L 217.031357 224.116554 
L 223.325957 224.116554 
L 223.325957 220.603525 
L 223.551679 220.603525 
L 223.551679 217.090495 
L 224.25401 217.090495 
L 224.25401 213.577465 
L 224.792829 213.577465 
L 224.882735 206.551406 
L 225.083078 206.551406 
L 225.132175 199.525347 
L 225.253337 199.525347 
L 225.285031 192.499287 
L 225.366302 192.499287 
L 225.425599 185.473228 
L 225.558674 185.473228 
L 225.639546 178.447168 
L 225.891323 178.447168 
L 225.891323 174.934139 
L 226.020676 174.934139 
L 226.020676 171.421109 
L 232.69015 171.421109 
L 232.69015 167.908079 
L 233.082 167.908079 
L 233.160138 160.88202 
L 233.456265 160.88202 
L 233.464018 153.85596 
L 233.883154 153.85596 
L 233.938305 146.829901 
L 234.462589 146.829901 
L 234.487062 139.803842 
L 234.70882 139.803842 
L 234.776726 132.777782 
L 234.824185 132.777782 
L 234.87816 125.751723 
L 234.948776 125.751723 
L 234.948776 122.238693 
L 235.101389 122.238693 
L 235.174291 108.186574 
L 235.281684 108.186574 
L 235.281684 104.673545 
L 235.625163 104.673545 
L 235.625163 101.160515 
L 235.973399 101.160515 
L 236.058878 90.621426 
L 236.176976 90.621426 
L 236.176976 87.108396 
L 236.462797 87.108396 
L 236.462797 83.595366 
L 236.906342 83.595366 
L 236.93196 76.569307 
L 237.136242 76.569307 
L 237.136242 73.056277 
L 237.250042 73.056277 
L 237.250042 69.543248 
L 237.617017 69.543248 
L 237.617017 66.030218 
L 293.037401 66.030218 
L 293.037401 62.517188 
L 299.337736 62.517188 
L 299.337736 59.004158 
L 300.038619 59.004158 
L 300.038619 55.491129 
L 300.468833 55.491129 
L 300.468833 51.978099 
L 301.479985 51.978099 
L 301.479985 48.465069 
L 301.971182 48.465069 
L 301.971182 44.95204 
L 302.300542 44.95204 
L 302.300542 41.43901 
L 302.580636 41.43901 
L 302.580636 37.92598 
L 303.412955 37.92598 
L 303.412955 34.41295 
L 304.220046 34.41295 
L 304.220046 30.899921 
L 304.787073 30.899921 
L 304.787073 27.386891 
L 306.029199 27.386891 
L 306.029199 23.873861 
L 306.56835 23.873861 
L 306.56835 20.360832 
L 306.90115 20.360832 
L 306.995217 13.334772 
L 306.995217 13.334772 
L 367.82 13.334772 
L 367.82 13.334772 
" style="fill:none;stroke:#bf00bf;stroke-linecap:square;stroke-width:1.5;"/>
   </g>
   <g id="line2d_29">
    <path clip-path="url(#p43d57c4c18)" d="M 210.156105 276.812 
L 210.156105 273.29897 
L 213.375673 273.29897 
L 213.375673 269.785941 
L 215.003154 269.785941 
L 215.003154 266.272911 
L 215.50246 266.272911 
L 215.595503 259.246851 
L 216.535382 259.246851 
L 216.535382 255.733822 
L 217.347334 255.733822 
L 217.347334 252.220792 
L 218.337292 252.220792 
L 218.337292 248.707762 
L 218.72732 248.707762 
L 218.72732 245.194733 
L 218.942044 245.194733 
L 219.036048 238.168673 
L 219.684862 238.168673 
L 219.684862 234.655644 
L 219.914598 234.655644 
L 219.914598 231.142614 
L 220.318766 231.142614 
L 220.318766 227.629584 
L 222.564222 227.629584 
L 222.564222 224.116554 
L 223.41169 224.116554 
L 223.41169 220.603525 
L 224.799652 220.603525 
L 224.799652 217.090495 
L 224.972817 217.090495 
L 224.972817 213.577465 
L 225.830211 213.577465 
L 225.926198 206.551406 
L 226.411022 206.551406 
L 226.411022 203.038376 
L 226.626742 203.038376 
L 226.626742 199.525347 
L 226.906998 199.525347 
L 226.906998 196.012317 
L 227.32389 196.012317 
L 227.32389 192.499287 
L 227.570466 192.499287 
L 227.570466 188.986257 
L 227.907666 188.986257 
L 227.907666 185.473228 
L 228.568919 185.473228 
L 228.568919 181.960198 
L 228.829989 181.960198 
L 228.829989 178.447168 
L 229.405141 178.447168 
L 229.405141 174.934139 
L 229.77953 174.934139 
L 229.77953 171.421109 
L 231.245832 171.421109 
L 231.245832 167.908079 
L 232.229915 167.908079 
L 232.229915 164.39505 
L 232.816328 164.39505 
L 232.816328 160.88202 
L 234.002651 160.88202 
L 234.002651 157.36899 
L 234.2283 157.36899 
L 234.2283 153.85596 
L 234.409515 153.85596 
L 234.409515 150.342931 
L 234.741181 150.342931 
L 234.741181 146.829901 
L 235.309025 146.829901 
L 235.309025 143.316871 
L 235.420668 143.316871 
L 235.529719 132.777782 
L 235.543977 132.777782 
L 235.543977 129.264752 
L 235.724561 129.264752 
L 235.724561 125.751723 
L 236.062874 125.751723 
L 236.062874 122.238693 
L 236.427648 122.238693 
L 236.427648 118.725663 
L 237.056699 118.725663 
L 237.098958 111.699604 
L 237.180975 111.699604 
L 237.180975 108.186574 
L 237.484494 108.186574 
L 237.539279 101.160515 
L 237.604535 101.160515 
L 237.604535 97.647485 
L 238.11104 97.647485 
L 238.115643 90.621426 
L 238.268754 90.621426 
L 238.336438 83.595366 
L 238.504485 83.595366 
L 238.504485 80.082337 
L 238.888504 80.082337 
L 238.888504 76.569307 
L 239.430995 76.569307 
L 239.430995 73.056277 
L 240.503333 73.056277 
L 240.503333 69.543248 
L 241.04146 69.543248 
L 241.04146 66.030218 
L 295.233355 66.030218 
L 295.233355 62.517188 
L 300.768086 62.517188 
L 300.768086 59.004158 
L 301.434617 59.004158 
L 301.434617 55.491129 
L 302.383316 55.491129 
L 302.383316 51.978099 
L 302.681711 51.978099 
L 302.681711 48.465069 
L 303.919319 48.465069 
L 303.919319 44.95204 
L 304.24556 44.95204 
L 304.24556 41.43901 
L 304.600435 41.43901 
L 304.600435 37.92598 
L 305.680621 37.92598 
L 305.680621 34.41295 
L 306.978645 34.41295 
L 306.978645 30.899921 
L 307.588372 30.899921 
L 307.588372 27.386891 
L 309.325962 27.386891 
L 309.325962 23.873861 
L 310.218907 23.873861 
L 310.218907 20.360832 
L 312.797926 20.360832 
L 312.797926 16.847802 
L 314.066402 16.847802 
L 314.066402 13.334772 
L 314.066402 13.334772 
L 367.82 13.334772 
L 367.82 13.334772 
" style="fill:none;stroke:#000000;stroke-linecap:square;stroke-width:1.5;"/>
   </g>
   <g id="line2d_30">
    <path clip-path="url(#p43d57c4c18)" d="M -1 224.116554 
L 144.952708 224.116554 
L 144.952708 220.603525 
L 149.375048 220.603525 
L 149.375048 217.090495 
L 150.427038 217.090495 
L 150.520778 210.064436 
L 150.549937 210.064436 
L 150.549937 206.551406 
L 150.9898 206.551406 
L 151.037737 199.525347 
L 151.465578 199.525347 
L 151.537309 192.499287 
L 152.353136 192.499287 
L 152.353136 188.986257 
L 152.544373 188.986257 
L 152.544373 185.473228 
L 153.315959 185.473228 
L 153.315959 181.960198 
L 154.388561 181.960198 
L 154.388561 178.447168 
L 154.860896 178.447168 
L 154.860896 174.934139 
L 158.102205 174.934139 
L 158.102205 171.421109 
L 199.667237 171.421109 
L 199.667237 167.908079 
L 201.331969 167.908079 
L 201.331969 164.39505 
L 201.722714 164.39505 
L 201.73347 157.36899 
L 202.103289 157.36899 
L 202.103289 153.85596 
L 202.216158 153.85596 
L 202.216158 150.342931 
L 202.476467 150.342931 
L 202.476467 146.829901 
L 203.162733 146.829901 
L 203.162733 143.316871 
L 203.678161 143.316871 
L 203.678161 139.803842 
L 203.86462 139.803842 
L 203.86462 136.290812 
L 204.045109 136.290812 
L 204.045109 132.777782 
L 204.38172 132.777782 
L 204.38172 129.264752 
L 204.696053 129.264752 
L 204.696053 125.751723 
L 204.848651 125.751723 
L 204.848651 122.238693 
L 205.064694 122.238693 
L 205.064694 118.725663 
L 205.294083 118.725663 
L 205.316319 111.699604 
L 205.414859 111.699604 
L 205.454618 104.673545 
L 207.216469 104.673545 
L 207.247358 97.647485 
L 207.488678 97.647485 
L 207.488678 94.134455 
L 207.820587 94.134455 
L 207.820587 90.621426 
L 208.208888 90.621426 
L 208.208888 87.108396 
L 208.742206 87.108396 
L 208.742206 83.595366 
L 209.47174 83.595366 
L 209.47174 80.082337 
L 209.702316 80.082337 
L 209.702316 76.569307 
L 212.617198 76.569307 
L 212.617198 73.056277 
L 216.1479 73.056277 
L 216.1479 69.543248 
L 218.031649 69.543248 
L 218.031649 66.030218 
L 225.325143 66.030218 
L 225.325143 62.517188 
L 227.348911 62.517188 
L 227.348911 59.004158 
L 230.653246 59.004158 
L 230.75395 51.978099 
L 231.132933 51.978099 
L 231.132933 48.465069 
L 231.784915 48.465069 
L 231.784915 44.95204 
L 235.506189 44.95204 
L 235.506189 41.43901 
L 235.735874 41.43901 
L 235.735874 37.92598 
L 236.582845 37.92598 
L 236.582845 34.41295 
L 236.967031 34.41295 
L 236.967031 30.899921 
L 239.994126 30.899921 
L 239.994126 27.386891 
L 243.745679 27.386891 
L 243.745679 23.873861 
L 248.236976 23.873861 
L 248.236976 20.360832 
L 259.680184 20.360832 
L 259.680184 16.847802 
L 260.030902 16.847802 
L 260.030902 13.334772 
L 260.030902 13.334772 
L 367.82 13.334772 
L 367.82 13.334772 
" style="fill:none;stroke:#00bfbf;stroke-linecap:square;stroke-width:1.5;"/>
   </g>
   <g id="patch_3">
    <path d="M 10.7 276.812 
L 10.7 10.7 
" style="fill:none;stroke:#000000;stroke-linecap:square;stroke-linejoin:miter;stroke-width:0.8;"/>
   </g>
   <g id="patch_4">
    <path d="M 367.82 276.812 
L 367.82 10.7 
" style="fill:none;stroke:#000000;stroke-linecap:square;stroke-linejoin:miter;stroke-width:0.8;"/>
   </g>
   <g id="patch_5">
    <path d="M 10.7 276.812 
L 367.82 276.812 
" style="fill:none;stroke:#000000;stroke-linecap:square;stroke-linejoin:miter;stroke-width:0.8;"/>
   </g>
   <g id="patch_6">
    <path d="M 10.7 10.7 
L 367.82 10.7 
" style="fill:none;stroke:#000000;stroke-linecap:square;stroke-linejoin:miter;stroke-width:0.8;"/>
   </g>
   <g id="text_6">
    <!-- {f1-f5}, 20-D -->
    <defs>
     <path d="M 51.125 -9.28125 
L 51.125 -16.3125 
L 48.09375 -16.3125 
Q 35.9375 -16.3125 31.8125 -12.6875 
Q 27.6875 -9.078125 27.6875 1.703125 
L 27.6875 13.375 
Q 27.6875 20.75 25.046875 23.578125 
Q 22.40625 26.421875 15.484375 26.421875 
L 12.5 26.421875 
L 12.5 33.40625 
L 15.484375 33.40625 
Q 22.46875 33.40625 25.078125 36.203125 
Q 27.6875 39.015625 27.6875 46.296875 
L 27.6875 58.015625 
Q 27.6875 68.796875 31.8125 72.390625 
Q 35.9375 75.984375 48.09375 75.984375 
L 51.125 75.984375 
L 51.125 69 
L 47.796875 69 
Q 40.921875 69 38.8125 66.84375 
Q 36.71875 64.703125 36.71875 57.8125 
L 36.71875 45.703125 
Q 36.71875 38.03125 34.5 34.5625 
Q 32.28125 31.109375 26.90625 29.890625 
Q 32.328125 28.5625 34.515625 25.09375 
Q 36.71875 21.625 36.71875 14.015625 
L 36.71875 1.90625 
Q 36.71875 -4.984375 38.8125 -7.125 
Q 40.921875 -9.28125 47.796875 -9.28125 
z
" id="DejaVuSans-7b"/>
     <path d="M 10.796875 72.90625 
L 49.515625 72.90625 
L 49.515625 64.59375 
L 19.828125 64.59375 
L 19.828125 46.734375 
Q 21.96875 47.46875 24.109375 47.828125 
Q 26.265625 48.1875 28.421875 48.1875 
Q 40.625 48.1875 47.75 41.5 
Q 54.890625 34.8125 54.890625 23.390625 
Q 54.890625 11.625 47.5625 5.09375 
Q 40.234375 -1.421875 26.90625 -1.421875 
Q 22.3125 -1.421875 17.546875 -0.640625 
Q 12.796875 0.140625 7.71875 1.703125 
L 7.71875 11.625 
Q 12.109375 9.234375 16.796875 8.0625 
Q 21.484375 6.890625 26.703125 6.890625 
Q 35.15625 6.890625 40.078125 11.328125 
Q 45.015625 15.765625 45.015625 23.390625 
Q 45.015625 31 40.078125 35.4375 
Q 35.15625 39.890625 26.703125 39.890625 
Q 22.75 39.890625 18.8125 39.015625 
Q 14.890625 38.140625 10.796875 36.28125 
z
" id="DejaVuSans-35"/>
     <path d="M 12.5 -9.28125 
L 15.921875 -9.28125 
Q 22.75 -9.28125 24.828125 -7.171875 
Q 26.90625 -5.078125 26.90625 1.90625 
L 26.90625 14.015625 
Q 26.90625 21.625 29.09375 25.09375 
Q 31.296875 28.5625 36.71875 29.890625 
Q 31.296875 31.109375 29.09375 34.5625 
Q 26.90625 38.03125 26.90625 45.703125 
L 26.90625 57.8125 
Q 26.90625 64.75 24.828125 66.875 
Q 22.75 69 15.921875 69 
L 12.5 69 
L 12.5 75.984375 
L 15.578125 75.984375 
Q 27.734375 75.984375 31.8125 72.390625 
Q 35.890625 68.796875 35.890625 58.015625 
L 35.890625 46.296875 
Q 35.890625 39.015625 38.515625 36.203125 
Q 41.15625 33.40625 48.09375 33.40625 
L 51.125 33.40625 
L 51.125 26.421875 
L 48.09375 26.421875 
Q 41.15625 26.421875 38.515625 23.578125 
Q 35.890625 20.75 35.890625 13.375 
L 35.890625 1.703125 
Q 35.890625 -9.078125 31.8125 -12.6875 
Q 27.734375 -16.3125 15.578125 -16.3125 
L 12.5 -16.3125 
z
" id="DejaVuSans-7d"/>
     <path d="M 11.71875 12.40625 
L 22.015625 12.40625 
L 22.015625 4 
L 14.015625 -11.625 
L 7.71875 -11.625 
L 11.71875 4 
z
" id="DejaVuSans-2c"/>
     <path d="M 19.1875 8.296875 
L 53.609375 8.296875 
L 53.609375 0 
L 7.328125 0 
L 7.328125 8.296875 
Q 12.9375 14.109375 22.625 23.890625 
Q 32.328125 33.6875 34.8125 36.53125 
Q 39.546875 41.84375 41.421875 45.53125 
Q 43.3125 49.21875 43.3125 52.78125 
Q 43.3125 58.59375 39.234375 62.25 
Q 35.15625 65.921875 28.609375 65.921875 
Q 23.96875 65.921875 18.8125 64.3125 
Q 13.671875 62.703125 7.8125 59.421875 
L 7.8125 69.390625 
Q 13.765625 71.78125 18.9375 73 
Q 24.125 74.21875 28.421875 74.21875 
Q 39.75 74.21875 46.484375 68.546875 
Q 53.21875 62.890625 53.21875 53.421875 
Q 53.21875 48.921875 51.53125 44.890625 
Q 49.859375 40.875 45.40625 35.40625 
Q 44.1875 33.984375 37.640625 27.21875 
Q 31.109375 20.453125 19.1875 8.296875 
z
" id="DejaVuSans-32"/>
    </defs>
    <g transform="translate(227.7026 271.48976)scale(0.2 -0.2)">
     <use xlink:href="#DejaVuSans-7b"/>
     <use x="63.623047" xlink:href="#DejaVuSans-66"/>
     <use x="98.828125" xlink:href="#DejaVuSans-31"/>
     <use x="162.451172" xlink:href="#DejaVuSans-2d"/>
     <use x="198.535156" xlink:href="#DejaVuSans-66"/>
     <use x="233.740234" xlink:href="#DejaVuSans-35"/>
     <use x="297.363281" xlink:href="#DejaVuSans-7d"/>
     <use x="360.986328" xlink:href="#DejaVuSans-2c"/>
     <use x="392.773438" xlink:href="#DejaVuSans-20"/>
     <use x="424.560547" xlink:href="#DejaVuSans-32"/>
     <use x="488.183594" xlink:href="#DejaVuSans-30"/>
     <use x="551.806641" xlink:href="#DejaVuSans-2d"/>
     <use x="587.890625" xlink:href="#DejaVuSans-44"/>
    </g>
   </g>
   <g id="text_7">
    <!-- v0.0.0 -->
    <defs>
     <path d="M 2.984375 54.6875 
L 12.5 54.6875 
L 29.59375 8.796875 
L 46.6875 54.6875 
L 56.203125 54.6875 
L 35.6875 0 
L 23.484375 0 
z
" id="DejaVuSans-76"/>
     <path d="M 10.6875 12.40625 
L 21 12.40625 
L 21 0 
L 10.6875 0 
z
" id="DejaVuSans-2e"/>
    </defs>
    <g style="fill:#808080;" transform="translate(173.57875 272.071193)scale(0.1 -0.1)">
     <use xlink:href="#DejaVuSans-76"/>
     <use x="59.179688" xlink:href="#DejaVuSans-30"/>
     <use x="122.802734" xlink:href="#DejaVuSans-2e"/>
     <use x="154.589844" xlink:href="#DejaVuSans-30"/>
     <use x="218.212891" xlink:href="#DejaVuSans-2e"/>
     <use x="250" xlink:href="#DejaVuSans-30"/>
    </g>
   </g>
  </g>
 </g>
 <defs>
  <clipPath id="p43d57c4c18">
   <rect height="266.112" width="357.12" x="10.7" y="10.7"/>
  </clipPath>
 </defs>
</svg>
