<?xml version="1.0" encoding="utf-8" standalone="no"?>
<!DOCTYPE svg PUBLIC "-//W3C//DTD SVG 1.1//EN"
  "http://www.w3.org/Graphics/SVG/1.1/DTD/svg11.dtd">
<!-- Created with matplotlib (http://matplotlib.org/) -->
<svg height="353pt" version="1.1" viewBox="0 0 438 353" width="438pt" xmlns="http://www.w3.org/2000/svg" xmlns:xlink="http://www.w3.org/1999/xlink">
 <defs>
  <style type="text/css">
*{stroke-linecap:butt;stroke-linejoin:round;}
  </style>
 </defs>
 <g id="figure_1">
  <g id="patch_1">
   <path d="M 0 353.22225 
L 438.62 353.22225 
L 438.62 0 
L 0 0 
z
" style="fill:#ffffff;"/>
  </g>
  <g id="axes_1">
   <g id="patch_2">
    <path d="M 70.8 298.245375 
L 427.92 298.245375 
L 427.92 32.133375 
L 70.8 32.133375 
z
" style="fill:#ffffff;"/>
   </g>
   <g id="matplotlib.axis_1">
    <g id="xtick_1">
     <g id="line2d_1">
      <path clip-path="url(#p63351e4960)" d="M 70.8 298.245375 
L 70.8 32.133375 
" style="fill:none;stroke:#b0b0b0;stroke-linecap:square;stroke-width:0.8;"/>
     </g>
     <g id="line2d_2">
      <defs>
       <path d="M 0 0 
L 0 3.5 
" id="meeb2f5aacc" style="stroke:#000000;stroke-width:0.8;"/>
      </defs>
      <g>
       <use style="stroke:#000000;stroke-width:0.8;" x="70.8" xlink:href="#meeb2f5aacc" y="298.245375"/>
      </g>
     </g>
     <g id="text_1">
      <!-- 0 -->
      <defs>
       <path d="M 31.78125 66.40625 
Q 24.171875 66.40625 20.328125 58.90625 
Q 16.5 51.421875 16.5 36.375 
Q 16.5 21.390625 20.328125 13.890625 
Q 24.171875 6.390625 31.78125 6.390625 
Q 39.453125 6.390625 43.28125 13.890625 
Q 47.125 21.390625 47.125 36.375 
Q 47.125 51.421875 43.28125 58.90625 
Q 39.453125 66.40625 31.78125 66.40625 
z
M 31.78125 74.21875 
Q 44.046875 74.21875 50.515625 64.515625 
Q 56.984375 54.828125 56.984375 36.375 
Q 56.984375 17.96875 50.515625 8.265625 
Q 44.046875 -1.421875 31.78125 -1.421875 
Q 19.53125 -1.421875 13.0625 8.265625 
Q 6.59375 17.96875 6.59375 36.375 
Q 6.59375 54.828125 13.0625 64.515625 
Q 19.53125 74.21875 31.78125 74.21875 
z
" id="DejaVuSans-30"/>
      </defs>
      <g transform="translate(64.4375 320.44225)scale(0.2 -0.2)">
       <use xlink:href="#DejaVuSans-30"/>
      </g>
     </g>
    </g>
    <g id="xtick_2">
     <g id="line2d_3">
      <path clip-path="url(#p63351e4960)" d="M 153.085714 298.245375 
L 153.085714 32.133375 
" style="fill:none;stroke:#b0b0b0;stroke-linecap:square;stroke-width:0.8;"/>
     </g>
     <g id="line2d_4">
      <g>
       <use style="stroke:#000000;stroke-width:0.8;" x="153.085714" xlink:href="#meeb2f5aacc" y="298.245375"/>
      </g>
     </g>
     <g id="text_2">
      <!-- 2 -->
      <defs>
       <path d="M 19.1875 8.296875 
L 53.609375 8.296875 
L 53.609375 0 
L 7.328125 0 
L 7.328125 8.296875 
Q 12.9375 14.109375 22.625 23.890625 
Q 32.328125 33.6875 34.8125 36.53125 
Q 39.546875 41.84375 41.421875 45.53125 
Q 43.3125 49.21875 43.3125 52.78125 
Q 43.3125 58.59375 39.234375 62.25 
Q 35.15625 65.921875 28.609375 65.921875 
Q 23.96875 65.921875 18.8125 64.3125 
Q 13.671875 62.703125 7.8125 59.421875 
L 7.8125 69.390625 
Q 13.765625 71.78125 18.9375 73 
Q 24.125 74.21875 28.421875 74.21875 
Q 39.75 74.21875 46.484375 68.546875 
Q 53.21875 62.890625 53.21875 53.421875 
Q 53.21875 48.921875 51.53125 44.890625 
Q 49.859375 40.875 45.40625 35.40625 
Q 44.1875 33.984375 37.640625 27.21875 
Q 31.109375 20.453125 19.1875 8.296875 
z
" id="DejaVuSans-32"/>
      </defs>
      <g transform="translate(146.723214 320.44225)scale(0.2 -0.2)">
       <use xlink:href="#DejaVuSans-32"/>
      </g>
     </g>
    </g>
    <g id="xtick_3">
     <g id="line2d_5">
      <path clip-path="url(#p63351e4960)" d="M 235.371429 298.245375 
L 235.371429 32.133375 
" style="fill:none;stroke:#b0b0b0;stroke-linecap:square;stroke-width:0.8;"/>
     </g>
     <g id="line2d_6">
      <g>
       <use style="stroke:#000000;stroke-width:0.8;" x="235.371429" xlink:href="#meeb2f5aacc" y="298.245375"/>
      </g>
     </g>
     <g id="text_3">
      <!-- 4 -->
      <defs>
       <path d="M 37.796875 64.3125 
L 12.890625 25.390625 
L 37.796875 25.390625 
z
M 35.203125 72.90625 
L 47.609375 72.90625 
L 47.609375 25.390625 
L 58.015625 25.390625 
L 58.015625 17.1875 
L 47.609375 17.1875 
L 47.609375 0 
L 37.796875 0 
L 37.796875 17.1875 
L 4.890625 17.1875 
L 4.890625 26.703125 
z
" id="DejaVuSans-34"/>
      </defs>
      <g transform="translate(229.008929 320.44225)scale(0.2 -0.2)">
       <use xlink:href="#DejaVuSans-34"/>
      </g>
     </g>
    </g>
    <g id="xtick_4">
     <g id="line2d_7">
      <path clip-path="url(#p63351e4960)" d="M 317.657143 298.245375 
L 317.657143 32.133375 
" style="fill:none;stroke:#b0b0b0;stroke-linecap:square;stroke-width:0.8;"/>
     </g>
     <g id="line2d_8">
      <g>
       <use style="stroke:#000000;stroke-width:0.8;" x="317.657143" xlink:href="#meeb2f5aacc" y="298.245375"/>
      </g>
     </g>
     <g id="text_4">
      <!-- 6 -->
      <defs>
       <path d="M 33.015625 40.375 
Q 26.375 40.375 22.484375 35.828125 
Q 18.609375 31.296875 18.609375 23.390625 
Q 18.609375 15.53125 22.484375 10.953125 
Q 26.375 6.390625 33.015625 6.390625 
Q 39.65625 6.390625 43.53125 10.953125 
Q 47.40625 15.53125 47.40625 23.390625 
Q 47.40625 31.296875 43.53125 35.828125 
Q 39.65625 40.375 33.015625 40.375 
z
M 52.59375 71.296875 
L 52.59375 62.3125 
Q 48.875 64.0625 45.09375 64.984375 
Q 41.3125 65.921875 37.59375 65.921875 
Q 27.828125 65.921875 22.671875 59.328125 
Q 17.53125 52.734375 16.796875 39.40625 
Q 19.671875 43.65625 24.015625 45.921875 
Q 28.375 48.1875 33.59375 48.1875 
Q 44.578125 48.1875 50.953125 41.515625 
Q 57.328125 34.859375 57.328125 23.390625 
Q 57.328125 12.15625 50.6875 5.359375 
Q 44.046875 -1.421875 33.015625 -1.421875 
Q 20.359375 -1.421875 13.671875 8.265625 
Q 6.984375 17.96875 6.984375 36.375 
Q 6.984375 53.65625 15.1875 63.9375 
Q 23.390625 74.21875 37.203125 74.21875 
Q 40.921875 74.21875 44.703125 73.484375 
Q 48.484375 72.75 52.59375 71.296875 
z
" id="DejaVuSans-36"/>
      </defs>
      <g transform="translate(311.294643 320.44225)scale(0.2 -0.2)">
       <use xlink:href="#DejaVuSans-36"/>
      </g>
     </g>
    </g>
    <g id="xtick_5">
     <g id="line2d_9">
      <path clip-path="url(#p63351e4960)" d="M 399.942857 298.245375 
L 399.942857 32.133375 
" style="fill:none;stroke:#b0b0b0;stroke-linecap:square;stroke-width:0.8;"/>
     </g>
     <g id="line2d_10">
      <g>
       <use style="stroke:#000000;stroke-width:0.8;" x="399.942857" xlink:href="#meeb2f5aacc" y="298.245375"/>
      </g>
     </g>
     <g id="text_5">
      <!-- 8 -->
      <defs>
       <path d="M 31.78125 34.625 
Q 24.75 34.625 20.71875 30.859375 
Q 16.703125 27.09375 16.703125 20.515625 
Q 16.703125 13.921875 20.71875 10.15625 
Q 24.75 6.390625 31.78125 6.390625 
Q 38.8125 6.390625 42.859375 10.171875 
Q 46.921875 13.96875 46.921875 20.515625 
Q 46.921875 27.09375 42.890625 30.859375 
Q 38.875 34.625 31.78125 34.625 
z
M 21.921875 38.8125 
Q 15.578125 40.375 12.03125 44.71875 
Q 8.5 49.078125 8.5 55.328125 
Q 8.5 64.0625 14.71875 69.140625 
Q 20.953125 74.21875 31.78125 74.21875 
Q 42.671875 74.21875 48.875 69.140625 
Q 55.078125 64.0625 55.078125 55.328125 
Q 55.078125 49.078125 51.53125 44.71875 
Q 48 40.375 41.703125 38.8125 
Q 48.828125 37.15625 52.796875 32.3125 
Q 56.78125 27.484375 56.78125 20.515625 
Q 56.78125 9.90625 50.3125 4.234375 
Q 43.84375 -1.421875 31.78125 -1.421875 
Q 19.734375 -1.421875 13.25 4.234375 
Q 6.78125 9.90625 6.78125 20.515625 
Q 6.78125 27.484375 10.78125 32.3125 
Q 14.796875 37.15625 21.921875 38.8125 
z
M 18.3125 54.390625 
Q 18.3125 48.734375 21.84375 45.5625 
Q 25.390625 42.390625 31.78125 42.390625 
Q 38.140625 42.390625 41.71875 45.5625 
Q 45.3125 48.734375 45.3125 54.390625 
Q 45.3125 60.0625 41.71875 63.234375 
Q 38.140625 66.40625 31.78125 66.40625 
Q 25.390625 66.40625 21.84375 63.234375 
Q 18.3125 60.0625 18.3125 54.390625 
z
" id="DejaVuSans-38"/>
      </defs>
      <g transform="translate(393.580357 320.44225)scale(0.2 -0.2)">
       <use xlink:href="#DejaVuSans-38"/>
      </g>
     </g>
    </g>
    <g id="text_6">
     <!-- log10 of (# f-evals / dimension) -->
     <defs>
      <path d="M 9.421875 75.984375 
L 18.40625 75.984375 
L 18.40625 0 
L 9.421875 0 
z
" id="DejaVuSans-6c"/>
      <path d="M 30.609375 48.390625 
Q 23.390625 48.390625 19.1875 42.75 
Q 14.984375 37.109375 14.984375 27.296875 
Q 14.984375 17.484375 19.15625 11.84375 
Q 23.34375 6.203125 30.609375 6.203125 
Q 37.796875 6.203125 41.984375 11.859375 
Q 46.1875 17.53125 46.1875 27.296875 
Q 46.1875 37.015625 41.984375 42.703125 
Q 37.796875 48.390625 30.609375 48.390625 
z
M 30.609375 56 
Q 42.328125 56 49.015625 48.375 
Q 55.71875 40.765625 55.71875 27.296875 
Q 55.71875 13.875 49.015625 6.21875 
Q 42.328125 -1.421875 30.609375 -1.421875 
Q 18.84375 -1.421875 12.171875 6.21875 
Q 5.515625 13.875 5.515625 27.296875 
Q 5.515625 40.765625 12.171875 48.375 
Q 18.84375 56 30.609375 56 
z
" id="DejaVuSans-6f"/>
      <path d="M 45.40625 27.984375 
Q 45.40625 37.75 41.375 43.109375 
Q 37.359375 48.484375 30.078125 48.484375 
Q 22.859375 48.484375 18.828125 43.109375 
Q 14.796875 37.75 14.796875 27.984375 
Q 14.796875 18.265625 18.828125 12.890625 
Q 22.859375 7.515625 30.078125 7.515625 
Q 37.359375 7.515625 41.375 12.890625 
Q 45.40625 18.265625 45.40625 27.984375 
z
M 54.390625 6.78125 
Q 54.390625 -7.171875 48.1875 -13.984375 
Q 42 -20.796875 29.203125 -20.796875 
Q 24.46875 -20.796875 20.265625 -20.09375 
Q 16.0625 -19.390625 12.109375 -17.921875 
L 12.109375 -9.1875 
Q 16.0625 -11.328125 19.921875 -12.34375 
Q 23.78125 -13.375 27.78125 -13.375 
Q 36.625 -13.375 41.015625 -8.765625 
Q 45.40625 -4.15625 45.40625 5.171875 
L 45.40625 9.625 
Q 42.625 4.78125 38.28125 2.390625 
Q 33.9375 0 27.875 0 
Q 17.828125 0 11.671875 7.65625 
Q 5.515625 15.328125 5.515625 27.984375 
Q 5.515625 40.671875 11.671875 48.328125 
Q 17.828125 56 27.875 56 
Q 33.9375 56 38.28125 53.609375 
Q 42.625 51.21875 45.40625 46.390625 
L 45.40625 54.6875 
L 54.390625 54.6875 
z
" id="DejaVuSans-67"/>
      <path d="M 12.40625 8.296875 
L 28.515625 8.296875 
L 28.515625 63.921875 
L 10.984375 60.40625 
L 10.984375 69.390625 
L 28.421875 72.90625 
L 38.28125 72.90625 
L 38.28125 8.296875 
L 54.390625 8.296875 
L 54.390625 0 
L 12.40625 0 
z
" id="DejaVuSans-31"/>
      <path id="DejaVuSans-20"/>
      <path d="M 37.109375 75.984375 
L 37.109375 68.5 
L 28.515625 68.5 
Q 23.6875 68.5 21.796875 66.546875 
Q 19.921875 64.59375 19.921875 59.515625 
L 19.921875 54.6875 
L 34.71875 54.6875 
L 34.71875 47.703125 
L 19.921875 47.703125 
L 19.921875 0 
L 10.890625 0 
L 10.890625 47.703125 
L 2.296875 47.703125 
L 2.296875 54.6875 
L 10.890625 54.6875 
L 10.890625 58.5 
Q 10.890625 67.625 15.140625 71.796875 
Q 19.390625 75.984375 28.609375 75.984375 
z
" id="DejaVuSans-66"/>
      <path d="M 31 75.875 
Q 24.46875 64.65625 21.28125 53.65625 
Q 18.109375 42.671875 18.109375 31.390625 
Q 18.109375 20.125 21.3125 9.0625 
Q 24.515625 -2 31 -13.1875 
L 23.1875 -13.1875 
Q 15.875 -1.703125 12.234375 9.375 
Q 8.59375 20.453125 8.59375 31.390625 
Q 8.59375 42.28125 12.203125 53.3125 
Q 15.828125 64.359375 23.1875 75.875 
z
" id="DejaVuSans-28"/>
      <path d="M 51.125 44 
L 36.921875 44 
L 32.8125 27.6875 
L 47.125 27.6875 
z
M 43.796875 71.78125 
L 38.71875 51.515625 
L 52.984375 51.515625 
L 58.109375 71.78125 
L 65.921875 71.78125 
L 60.890625 51.515625 
L 76.125 51.515625 
L 76.125 44 
L 58.984375 44 
L 54.984375 27.6875 
L 70.515625 27.6875 
L 70.515625 20.21875 
L 53.078125 20.21875 
L 48 0 
L 40.1875 0 
L 45.21875 20.21875 
L 30.90625 20.21875 
L 25.875 0 
L 18.015625 0 
L 23.09375 20.21875 
L 7.71875 20.21875 
L 7.71875 27.6875 
L 24.90625 27.6875 
L 29 44 
L 13.28125 44 
L 13.28125 51.515625 
L 30.90625 51.515625 
L 35.890625 71.78125 
z
" id="DejaVuSans-23"/>
      <path d="M 4.890625 31.390625 
L 31.203125 31.390625 
L 31.203125 23.390625 
L 4.890625 23.390625 
z
" id="DejaVuSans-2d"/>
      <path d="M 56.203125 29.59375 
L 56.203125 25.203125 
L 14.890625 25.203125 
Q 15.484375 15.921875 20.484375 11.0625 
Q 25.484375 6.203125 34.421875 6.203125 
Q 39.59375 6.203125 44.453125 7.46875 
Q 49.3125 8.734375 54.109375 11.28125 
L 54.109375 2.78125 
Q 49.265625 0.734375 44.1875 -0.34375 
Q 39.109375 -1.421875 33.890625 -1.421875 
Q 20.796875 -1.421875 13.15625 6.1875 
Q 5.515625 13.8125 5.515625 26.8125 
Q 5.515625 40.234375 12.765625 48.109375 
Q 20.015625 56 32.328125 56 
Q 43.359375 56 49.78125 48.890625 
Q 56.203125 41.796875 56.203125 29.59375 
z
M 47.21875 32.234375 
Q 47.125 39.59375 43.09375 43.984375 
Q 39.0625 48.390625 32.421875 48.390625 
Q 24.90625 48.390625 20.390625 44.140625 
Q 15.875 39.890625 15.1875 32.171875 
z
" id="DejaVuSans-65"/>
      <path d="M 2.984375 54.6875 
L 12.5 54.6875 
L 29.59375 8.796875 
L 46.6875 54.6875 
L 56.203125 54.6875 
L 35.6875 0 
L 23.484375 0 
z
" id="DejaVuSans-76"/>
      <path d="M 34.28125 27.484375 
Q 23.390625 27.484375 19.1875 25 
Q 14.984375 22.515625 14.984375 16.5 
Q 14.984375 11.71875 18.140625 8.90625 
Q 21.296875 6.109375 26.703125 6.109375 
Q 34.1875 6.109375 38.703125 11.40625 
Q 43.21875 16.703125 43.21875 25.484375 
L 43.21875 27.484375 
z
M 52.203125 31.203125 
L 52.203125 0 
L 43.21875 0 
L 43.21875 8.296875 
Q 40.140625 3.328125 35.546875 0.953125 
Q 30.953125 -1.421875 24.3125 -1.421875 
Q 15.921875 -1.421875 10.953125 3.296875 
Q 6 8.015625 6 15.921875 
Q 6 25.140625 12.171875 29.828125 
Q 18.359375 34.515625 30.609375 34.515625 
L 43.21875 34.515625 
L 43.21875 35.40625 
Q 43.21875 41.609375 39.140625 45 
Q 35.0625 48.390625 27.6875 48.390625 
Q 23 48.390625 18.546875 47.265625 
Q 14.109375 46.140625 10.015625 43.890625 
L 10.015625 52.203125 
Q 14.9375 54.109375 19.578125 55.046875 
Q 24.21875 56 28.609375 56 
Q 40.484375 56 46.34375 49.84375 
Q 52.203125 43.703125 52.203125 31.203125 
z
" id="DejaVuSans-61"/>
      <path d="M 44.28125 53.078125 
L 44.28125 44.578125 
Q 40.484375 46.53125 36.375 47.5 
Q 32.28125 48.484375 27.875 48.484375 
Q 21.1875 48.484375 17.84375 46.4375 
Q 14.5 44.390625 14.5 40.28125 
Q 14.5 37.15625 16.890625 35.375 
Q 19.28125 33.59375 26.515625 31.984375 
L 29.59375 31.296875 
Q 39.15625 29.25 43.1875 25.515625 
Q 47.21875 21.78125 47.21875 15.09375 
Q 47.21875 7.46875 41.1875 3.015625 
Q 35.15625 -1.421875 24.609375 -1.421875 
Q 20.21875 -1.421875 15.453125 -0.5625 
Q 10.6875 0.296875 5.421875 2 
L 5.421875 11.28125 
Q 10.40625 8.6875 15.234375 7.390625 
Q 20.0625 6.109375 24.8125 6.109375 
Q 31.15625 6.109375 34.5625 8.28125 
Q 37.984375 10.453125 37.984375 14.40625 
Q 37.984375 18.0625 35.515625 20.015625 
Q 33.0625 21.96875 24.703125 23.78125 
L 21.578125 24.515625 
Q 13.234375 26.265625 9.515625 29.90625 
Q 5.8125 33.546875 5.8125 39.890625 
Q 5.8125 47.609375 11.28125 51.796875 
Q 16.75 56 26.8125 56 
Q 31.78125 56 36.171875 55.265625 
Q 40.578125 54.546875 44.28125 53.078125 
z
" id="DejaVuSans-73"/>
      <path d="M 25.390625 72.90625 
L 33.6875 72.90625 
L 8.296875 -9.28125 
L 0 -9.28125 
z
" id="DejaVuSans-2f"/>
      <path d="M 45.40625 46.390625 
L 45.40625 75.984375 
L 54.390625 75.984375 
L 54.390625 0 
L 45.40625 0 
L 45.40625 8.203125 
Q 42.578125 3.328125 38.25 0.953125 
Q 33.9375 -1.421875 27.875 -1.421875 
Q 17.96875 -1.421875 11.734375 6.484375 
Q 5.515625 14.40625 5.515625 27.296875 
Q 5.515625 40.1875 11.734375 48.09375 
Q 17.96875 56 27.875 56 
Q 33.9375 56 38.25 53.625 
Q 42.578125 51.265625 45.40625 46.390625 
z
M 14.796875 27.296875 
Q 14.796875 17.390625 18.875 11.75 
Q 22.953125 6.109375 30.078125 6.109375 
Q 37.203125 6.109375 41.296875 11.75 
Q 45.40625 17.390625 45.40625 27.296875 
Q 45.40625 37.203125 41.296875 42.84375 
Q 37.203125 48.484375 30.078125 48.484375 
Q 22.953125 48.484375 18.875 42.84375 
Q 14.796875 37.203125 14.796875 27.296875 
z
" id="DejaVuSans-64"/>
      <path d="M 9.421875 54.6875 
L 18.40625 54.6875 
L 18.40625 0 
L 9.421875 0 
z
M 9.421875 75.984375 
L 18.40625 75.984375 
L 18.40625 64.59375 
L 9.421875 64.59375 
z
" id="DejaVuSans-69"/>
      <path d="M 52 44.1875 
Q 55.375 50.25 60.0625 53.125 
Q 64.75 56 71.09375 56 
Q 79.640625 56 84.28125 50.015625 
Q 88.921875 44.046875 88.921875 33.015625 
L 88.921875 0 
L 79.890625 0 
L 79.890625 32.71875 
Q 79.890625 40.578125 77.09375 44.375 
Q 74.3125 48.1875 68.609375 48.1875 
Q 61.625 48.1875 57.5625 43.546875 
Q 53.515625 38.921875 53.515625 30.90625 
L 53.515625 0 
L 44.484375 0 
L 44.484375 32.71875 
Q 44.484375 40.625 41.703125 44.40625 
Q 38.921875 48.1875 33.109375 48.1875 
Q 26.21875 48.1875 22.15625 43.53125 
Q 18.109375 38.875 18.109375 30.90625 
L 18.109375 0 
L 9.078125 0 
L 9.078125 54.6875 
L 18.109375 54.6875 
L 18.109375 46.1875 
Q 21.1875 51.21875 25.484375 53.609375 
Q 29.78125 56 35.6875 56 
Q 41.65625 56 45.828125 52.96875 
Q 50 49.953125 52 44.1875 
z
" id="DejaVuSans-6d"/>
      <path d="M 54.890625 33.015625 
L 54.890625 0 
L 45.90625 0 
L 45.90625 32.71875 
Q 45.90625 40.484375 42.875 44.328125 
Q 39.84375 48.1875 33.796875 48.1875 
Q 26.515625 48.1875 22.3125 43.546875 
Q 18.109375 38.921875 18.109375 30.90625 
L 18.109375 0 
L 9.078125 0 
L 9.078125 54.6875 
L 18.109375 54.6875 
L 18.109375 46.1875 
Q 21.34375 51.125 25.703125 53.5625 
Q 30.078125 56 35.796875 56 
Q 45.21875 56 50.046875 50.171875 
Q 54.890625 44.34375 54.890625 33.015625 
z
" id="DejaVuSans-6e"/>
      <path d="M 8.015625 75.875 
L 15.828125 75.875 
Q 23.140625 64.359375 26.78125 53.3125 
Q 30.421875 42.28125 30.421875 31.390625 
Q 30.421875 20.453125 26.78125 9.375 
Q 23.140625 -1.703125 15.828125 -13.1875 
L 8.015625 -13.1875 
Q 14.5 -2 17.703125 9.0625 
Q 20.90625 20.125 20.90625 31.390625 
Q 20.90625 42.671875 17.703125 53.65625 
Q 14.5 64.65625 8.015625 75.875 
z
" id="DejaVuSans-29"/>
     </defs>
     <g transform="translate(107.015156 342.278812)scale(0.18 -0.18)">
      <use xlink:href="#DejaVuSans-6c"/>
      <use x="27.783203" xlink:href="#DejaVuSans-6f"/>
      <use x="88.964844" xlink:href="#DejaVuSans-67"/>
      <use x="152.441406" xlink:href="#DejaVuSans-31"/>
      <use x="216.064453" xlink:href="#DejaVuSans-30"/>
      <use x="279.6875" xlink:href="#DejaVuSans-20"/>
      <use x="311.474609" xlink:href="#DejaVuSans-6f"/>
      <use x="372.65625" xlink:href="#DejaVuSans-66"/>
      <use x="407.861328" xlink:href="#DejaVuSans-20"/>
      <use x="439.648438" xlink:href="#DejaVuSans-28"/>
      <use x="478.662109" xlink:href="#DejaVuSans-23"/>
      <use x="562.451172" xlink:href="#DejaVuSans-20"/>
      <use x="594.238281" xlink:href="#DejaVuSans-66"/>
      <use x="629.365234" xlink:href="#DejaVuSans-2d"/>
      <use x="665.449219" xlink:href="#DejaVuSans-65"/>
      <use x="726.972656" xlink:href="#DejaVuSans-76"/>
      <use x="786.152344" xlink:href="#DejaVuSans-61"/>
      <use x="847.431641" xlink:href="#DejaVuSans-6c"/>
      <use x="875.214844" xlink:href="#DejaVuSans-73"/>
      <use x="927.314453" xlink:href="#DejaVuSans-20"/>
      <use x="959.101562" xlink:href="#DejaVuSans-2f"/>
      <use x="992.792969" xlink:href="#DejaVuSans-20"/>
      <use x="1024.580078" xlink:href="#DejaVuSans-64"/>
      <use x="1088.056641" xlink:href="#DejaVuSans-69"/>
      <use x="1115.839844" xlink:href="#DejaVuSans-6d"/>
      <use x="1213.251953" xlink:href="#DejaVuSans-65"/>
      <use x="1274.775391" xlink:href="#DejaVuSans-6e"/>
      <use x="1338.154297" xlink:href="#DejaVuSans-73"/>
      <use x="1390.253906" xlink:href="#DejaVuSans-69"/>
      <use x="1418.037109" xlink:href="#DejaVuSans-6f"/>
      <use x="1479.21875" xlink:href="#DejaVuSans-6e"/>
      <use x="1542.597656" xlink:href="#DejaVuSans-29"/>
     </g>
    </g>
   </g>
   <g id="matplotlib.axis_2">
    <g id="ytick_1">
     <g id="line2d_11">
      <path clip-path="url(#p63351e4960)" d="M 70.8 298.245375 
L 427.92 298.245375 
" style="fill:none;stroke:#b0b0b0;stroke-linecap:square;stroke-width:0.8;"/>
     </g>
     <g id="line2d_12">
      <defs>
       <path d="M 0 0 
L -3.5 0 
" id="m61541bbec6" style="stroke:#000000;stroke-width:0.8;"/>
      </defs>
      <g>
       <use style="stroke:#000000;stroke-width:0.8;" x="70.8" xlink:href="#m61541bbec6" y="298.245375"/>
      </g>
     </g>
     <g id="text_7">
      <!-- 0.0 -->
      <defs>
       <path d="M 10.6875 12.40625 
L 21 12.40625 
L 21 0 
L 10.6875 0 
z
" id="DejaVuSans-2e"/>
      </defs>
      <g transform="translate(31.99375 305.843812)scale(0.2 -0.2)">
       <use xlink:href="#DejaVuSans-30"/>
       <use x="63.623047" xlink:href="#DejaVuSans-2e"/>
       <use x="95.410156" xlink:href="#DejaVuSans-30"/>
      </g>
     </g>
    </g>
    <g id="ytick_2">
     <g id="line2d_13">
      <path clip-path="url(#p63351e4960)" d="M 70.8 245.549929 
L 427.92 245.549929 
" style="fill:none;stroke:#b0b0b0;stroke-linecap:square;stroke-width:0.8;"/>
     </g>
     <g id="line2d_14">
      <g>
       <use style="stroke:#000000;stroke-width:0.8;" x="70.8" xlink:href="#m61541bbec6" y="245.549929"/>
      </g>
     </g>
     <g id="text_8">
      <!-- 0.2 -->
      <g transform="translate(31.99375 253.148367)scale(0.2 -0.2)">
       <use xlink:href="#DejaVuSans-30"/>
       <use x="63.623047" xlink:href="#DejaVuSans-2e"/>
       <use x="95.410156" xlink:href="#DejaVuSans-32"/>
      </g>
     </g>
    </g>
    <g id="ytick_3">
     <g id="line2d_15">
      <path clip-path="url(#p63351e4960)" d="M 70.8 192.854484 
L 427.92 192.854484 
" style="fill:none;stroke:#b0b0b0;stroke-linecap:square;stroke-width:0.8;"/>
     </g>
     <g id="line2d_16">
      <g>
       <use style="stroke:#000000;stroke-width:0.8;" x="70.8" xlink:href="#m61541bbec6" y="192.854484"/>
      </g>
     </g>
     <g id="text_9">
      <!-- 0.4 -->
      <g transform="translate(31.99375 200.452921)scale(0.2 -0.2)">
       <use xlink:href="#DejaVuSans-30"/>
       <use x="63.623047" xlink:href="#DejaVuSans-2e"/>
       <use x="95.410156" xlink:href="#DejaVuSans-34"/>
      </g>
     </g>
    </g>
    <g id="ytick_4">
     <g id="line2d_17">
      <path clip-path="url(#p63351e4960)" d="M 70.8 140.159038 
L 427.92 140.159038 
" style="fill:none;stroke:#b0b0b0;stroke-linecap:square;stroke-width:0.8;"/>
     </g>
     <g id="line2d_18">
      <g>
       <use style="stroke:#000000;stroke-width:0.8;" x="70.8" xlink:href="#m61541bbec6" y="140.159038"/>
      </g>
     </g>
     <g id="text_10">
      <!-- 0.6 -->
      <g transform="translate(31.99375 147.757476)scale(0.2 -0.2)">
       <use xlink:href="#DejaVuSans-30"/>
       <use x="63.623047" xlink:href="#DejaVuSans-2e"/>
       <use x="95.410156" xlink:href="#DejaVuSans-36"/>
      </g>
     </g>
    </g>
    <g id="ytick_5">
     <g id="line2d_19">
      <path clip-path="url(#p63351e4960)" d="M 70.8 87.463593 
L 427.92 87.463593 
" style="fill:none;stroke:#b0b0b0;stroke-linecap:square;stroke-width:0.8;"/>
     </g>
     <g id="line2d_20">
      <g>
       <use style="stroke:#000000;stroke-width:0.8;" x="70.8" xlink:href="#m61541bbec6" y="87.463593"/>
      </g>
     </g>
     <g id="text_11">
      <!-- 0.8 -->
      <g transform="translate(31.99375 95.06203)scale(0.2 -0.2)">
       <use xlink:href="#DejaVuSans-30"/>
       <use x="63.623047" xlink:href="#DejaVuSans-2e"/>
       <use x="95.410156" xlink:href="#DejaVuSans-38"/>
      </g>
     </g>
    </g>
    <g id="ytick_6">
     <g id="line2d_21">
      <path clip-path="url(#p63351e4960)" d="M 70.8 34.768147 
L 427.92 34.768147 
" style="fill:none;stroke:#b0b0b0;stroke-linecap:square;stroke-width:0.8;"/>
     </g>
     <g id="line2d_22">
      <g>
       <use style="stroke:#000000;stroke-width:0.8;" x="70.8" xlink:href="#m61541bbec6" y="34.768147"/>
      </g>
     </g>
     <g id="text_12">
      <!-- 1.0 -->
      <g transform="translate(31.99375 42.366585)scale(0.2 -0.2)">
       <use xlink:href="#DejaVuSans-31"/>
       <use x="63.623047" xlink:href="#DejaVuSans-2e"/>
       <use x="95.410156" xlink:href="#DejaVuSans-30"/>
      </g>
     </g>
    </g>
    <g id="text_13">
     <!-- Proportion of function+target pairs -->
     <defs>
      <path d="M 19.671875 64.796875 
L 19.671875 37.40625 
L 32.078125 37.40625 
Q 38.96875 37.40625 42.71875 40.96875 
Q 46.484375 44.53125 46.484375 51.125 
Q 46.484375 57.671875 42.71875 61.234375 
Q 38.96875 64.796875 32.078125 64.796875 
z
M 9.8125 72.90625 
L 32.078125 72.90625 
Q 44.34375 72.90625 50.609375 67.359375 
Q 56.890625 61.8125 56.890625 51.125 
Q 56.890625 40.328125 50.609375 34.8125 
Q 44.34375 29.296875 32.078125 29.296875 
L 19.671875 29.296875 
L 19.671875 0 
L 9.8125 0 
z
" id="DejaVuSans-50"/>
      <path d="M 41.109375 46.296875 
Q 39.59375 47.171875 37.8125 47.578125 
Q 36.03125 48 33.890625 48 
Q 26.265625 48 22.1875 43.046875 
Q 18.109375 38.09375 18.109375 28.8125 
L 18.109375 0 
L 9.078125 0 
L 9.078125 54.6875 
L 18.109375 54.6875 
L 18.109375 46.1875 
Q 20.953125 51.171875 25.484375 53.578125 
Q 30.03125 56 36.53125 56 
Q 37.453125 56 38.578125 55.875 
Q 39.703125 55.765625 41.0625 55.515625 
z
" id="DejaVuSans-72"/>
      <path d="M 18.109375 8.203125 
L 18.109375 -20.796875 
L 9.078125 -20.796875 
L 9.078125 54.6875 
L 18.109375 54.6875 
L 18.109375 46.390625 
Q 20.953125 51.265625 25.265625 53.625 
Q 29.59375 56 35.59375 56 
Q 45.5625 56 51.78125 48.09375 
Q 58.015625 40.1875 58.015625 27.296875 
Q 58.015625 14.40625 51.78125 6.484375 
Q 45.5625 -1.421875 35.59375 -1.421875 
Q 29.59375 -1.421875 25.265625 0.953125 
Q 20.953125 3.328125 18.109375 8.203125 
z
M 48.6875 27.296875 
Q 48.6875 37.203125 44.609375 42.84375 
Q 40.53125 48.484375 33.40625 48.484375 
Q 26.265625 48.484375 22.1875 42.84375 
Q 18.109375 37.203125 18.109375 27.296875 
Q 18.109375 17.390625 22.1875 11.75 
Q 26.265625 6.109375 33.40625 6.109375 
Q 40.53125 6.109375 44.609375 11.75 
Q 48.6875 17.390625 48.6875 27.296875 
z
" id="DejaVuSans-70"/>
      <path d="M 18.3125 70.21875 
L 18.3125 54.6875 
L 36.8125 54.6875 
L 36.8125 47.703125 
L 18.3125 47.703125 
L 18.3125 18.015625 
Q 18.3125 11.328125 20.140625 9.421875 
Q 21.96875 7.515625 27.59375 7.515625 
L 36.8125 7.515625 
L 36.8125 0 
L 27.59375 0 
Q 17.1875 0 13.234375 3.875 
Q 9.28125 7.765625 9.28125 18.015625 
L 9.28125 47.703125 
L 2.6875 47.703125 
L 2.6875 54.6875 
L 9.28125 54.6875 
L 9.28125 70.21875 
z
" id="DejaVuSans-74"/>
      <path d="M 8.5 21.578125 
L 8.5 54.6875 
L 17.484375 54.6875 
L 17.484375 21.921875 
Q 17.484375 14.15625 20.5 10.265625 
Q 23.53125 6.390625 29.59375 6.390625 
Q 36.859375 6.390625 41.078125 11.03125 
Q 45.3125 15.671875 45.3125 23.6875 
L 45.3125 54.6875 
L 54.296875 54.6875 
L 54.296875 0 
L 45.3125 0 
L 45.3125 8.40625 
Q 42.046875 3.421875 37.71875 1 
Q 33.40625 -1.421875 27.6875 -1.421875 
Q 18.265625 -1.421875 13.375 4.4375 
Q 8.5 10.296875 8.5 21.578125 
z
M 31.109375 56 
z
" id="DejaVuSans-75"/>
      <path d="M 48.78125 52.59375 
L 48.78125 44.1875 
Q 44.96875 46.296875 41.140625 47.34375 
Q 37.3125 48.390625 33.40625 48.390625 
Q 24.65625 48.390625 19.8125 42.84375 
Q 14.984375 37.3125 14.984375 27.296875 
Q 14.984375 17.28125 19.8125 11.734375 
Q 24.65625 6.203125 33.40625 6.203125 
Q 37.3125 6.203125 41.140625 7.25 
Q 44.96875 8.296875 48.78125 10.40625 
L 48.78125 2.09375 
Q 45.015625 0.34375 40.984375 -0.53125 
Q 36.96875 -1.421875 32.421875 -1.421875 
Q 20.0625 -1.421875 12.78125 6.34375 
Q 5.515625 14.109375 5.515625 27.296875 
Q 5.515625 40.671875 12.859375 48.328125 
Q 20.21875 56 33.015625 56 
Q 37.15625 56 41.109375 55.140625 
Q 45.0625 54.296875 48.78125 52.59375 
z
" id="DejaVuSans-63"/>
      <path d="M 46 62.703125 
L 46 35.5 
L 73.1875 35.5 
L 73.1875 27.203125 
L 46 27.203125 
L 46 0 
L 37.796875 0 
L 37.796875 27.203125 
L 10.59375 27.203125 
L 10.59375 35.5 
L 37.796875 35.5 
L 37.796875 62.703125 
z
" id="DejaVuSans-2b"/>
     </defs>
     <g transform="translate(24.250312 323.17875)rotate(-90)scale(0.18 -0.18)">
      <use xlink:href="#DejaVuSans-50"/>
      <use x="60.287109" xlink:href="#DejaVuSans-72"/>
      <use x="101.369141" xlink:href="#DejaVuSans-6f"/>
      <use x="162.550781" xlink:href="#DejaVuSans-70"/>
      <use x="226.027344" xlink:href="#DejaVuSans-6f"/>
      <use x="287.208984" xlink:href="#DejaVuSans-72"/>
      <use x="328.322266" xlink:href="#DejaVuSans-74"/>
      <use x="367.53125" xlink:href="#DejaVuSans-69"/>
      <use x="395.314453" xlink:href="#DejaVuSans-6f"/>
      <use x="456.496094" xlink:href="#DejaVuSans-6e"/>
      <use x="519.875" xlink:href="#DejaVuSans-20"/>
      <use x="551.662109" xlink:href="#DejaVuSans-6f"/>
      <use x="612.84375" xlink:href="#DejaVuSans-66"/>
      <use x="648.048828" xlink:href="#DejaVuSans-20"/>
      <use x="679.835938" xlink:href="#DejaVuSans-66"/>
      <use x="715.041016" xlink:href="#DejaVuSans-75"/>
      <use x="778.419922" xlink:href="#DejaVuSans-6e"/>
      <use x="841.798828" xlink:href="#DejaVuSans-63"/>
      <use x="896.779297" xlink:href="#DejaVuSans-74"/>
      <use x="935.988281" xlink:href="#DejaVuSans-69"/>
      <use x="963.771484" xlink:href="#DejaVuSans-6f"/>
      <use x="1024.953125" xlink:href="#DejaVuSans-6e"/>
      <use x="1088.332031" xlink:href="#DejaVuSans-2b"/>
      <use x="1172.121094" xlink:href="#DejaVuSans-74"/>
      <use x="1211.330078" xlink:href="#DejaVuSans-61"/>
      <use x="1272.609375" xlink:href="#DejaVuSans-72"/>
      <use x="1313.707031" xlink:href="#DejaVuSans-67"/>
      <use x="1377.183594" xlink:href="#DejaVuSans-65"/>
      <use x="1438.707031" xlink:href="#DejaVuSans-74"/>
      <use x="1477.916016" xlink:href="#DejaVuSans-20"/>
      <use x="1509.703125" xlink:href="#DejaVuSans-70"/>
      <use x="1573.179688" xlink:href="#DejaVuSans-61"/>
      <use x="1634.458984" xlink:href="#DejaVuSans-69"/>
      <use x="1662.242188" xlink:href="#DejaVuSans-72"/>
      <use x="1703.355469" xlink:href="#DejaVuSans-73"/>
     </g>
    </g>
   </g>
   <g id="line2d_23">
    <defs>
     <path d="M 0 1.5 
C 0.397805 1.5 0.77937 1.341951 1.06066 1.06066 
C 1.341951 0.77937 1.5 0.397805 1.5 0 
C 1.5 -0.397805 1.341951 -0.77937 1.06066 -1.06066 
C 0.77937 -1.341951 0.397805 -1.5 0 -1.5 
C -0.397805 -1.5 -0.77937 -1.341951 -1.06066 -1.06066 
C -1.341951 -0.77937 -1.5 -0.397805 -1.5 0 
C -1.5 0.397805 -1.341951 0.77937 -1.06066 1.06066 
C -0.77937 1.341951 -0.397805 1.5 0 1.5 
z
" id="m22b0f24ed9" style="stroke:#000080;"/>
    </defs>
    <g>
     <use style="fill:#000080;stroke:#000080;" x="344.370877" xlink:href="#m22b0f24ed9" y="34.768147"/>
     <use style="fill:#000080;stroke:#000080;" x="344.370877" xlink:href="#m22b0f24ed9" y="34.768147"/>
    </g>
   </g>
   <g id="line2d_24">
    <path d="M 58.414766 298.245375 
L 58.414766 275.514006 
L 136.935292 275.514006 
L 136.935292 269.831164 
L 137.371122 269.831164 
L 137.371122 267.248054 
L 138.416339 267.248054 
L 138.416339 261.565212 
L 138.817886 261.565212 
L 138.817886 257.948858 
L 139.783966 257.948858 
L 139.783966 247.099796 
L 140.156232 247.099796 
L 140.156232 235.734111 
L 140.339496 235.734111 
L 140.339496 221.268695 
L 140.70048 221.268695 
L 140.70048 217.652341 
L 148.646178 217.652341 
L 148.646178 217.135719 
L 149.756356 217.135719 
L 149.756356 216.619097 
L 149.970348 216.619097 
L 149.970348 216.102475 
L 151.20312 216.102475 
L 151.20312 215.069231 
L 151.980117 215.069231 
L 151.980117 214.552609 
L 152.262996 214.552609 
L 152.356302 213.002743 
L 152.541466 213.002743 
L 152.541466 209.386388 
L 153.085714 209.386388 
L 153.085714 208.869766 
L 156.929349 208.869766 
L 156.929349 208.353144 
L 157.773669 208.353144 
L 157.773669 206.803278 
L 159.414097 206.803278 
L 159.414097 204.220168 
L 159.969627 204.220168 
L 159.969627 203.703546 
L 160.270952 203.703546 
L 160.270952 203.186924 
L 162.619517 203.186924 
L 162.619517 201.120436 
L 164.029565 201.120436 
L 164.029565 199.053948 
L 164.460143 199.053948 
L 164.460143 198.020704 
L 164.972692 198.020704 
L 164.972692 197.504082 
L 166.638084 197.504082 
L 166.638084 195.954216 
L 167.654747 195.954216 
L 167.654747 194.920972 
L 168.616665 194.920972 
L 168.616665 193.371106 
L 170.766951 193.371106 
L 170.766951 192.854484 
L 171.514952 192.854484 
L 171.514952 192.337862 
L 174.228337 192.337862 
L 174.228337 191.82124 
L 176.655289 191.82124 
L 176.655289 191.304618 
L 176.868996 191.304618 
L 176.868996 190.271374 
L 176.986628 190.271374 
L 176.986628 189.23813 
L 177.676602 189.23813 
L 177.676602 185.621776 
L 179.416495 185.621776 
L 179.416495 185.105154 
L 180.98316 185.105154 
L 180.98316 183.038666 
L 181.37262 183.038666 
L 181.37262 180.455556 
L 182.232174 180.455556 
L 182.232174 178.90569 
L 182.544138 178.90569 
L 182.544138 177.355823 
L 184.106024 177.355823 
L 184.106024 176.839201 
L 184.278362 176.839201 
L 184.278362 176.322579 
L 185.234591 176.322579 
L 185.234591 175.805957 
L 185.411067 175.805957 
L 185.411067 171.156359 
L 186.681848 171.156359 
L 186.681848 170.639737 
L 188.956719 170.639737 
L 188.956719 170.123115 
L 189.477072 170.123115 
L 189.477072 169.089871 
L 190.19669 169.089871 
L 190.19669 165.990139 
L 190.812893 165.990139 
L 190.812893 164.440273 
L 191.314151 164.440273 
L 191.314151 163.407029 
L 191.924114 163.407029 
L 191.924114 161.857163 
L 192.660842 161.857163 
L 192.75811 159.274053 
L 195.792977 159.274053 
L 195.792977 158.757431 
L 197.336789 158.757431 
L 197.336789 155.657699 
L 199.458026 155.657699 
L 199.458026 155.141077 
L 199.925236 155.141077 
L 199.925236 154.107833 
L 201.215506 154.107833 
L 201.215506 153.591211 
L 202.93115 153.591211 
L 202.93115 153.074589 
L 204.4309 153.074589 
L 204.4309 152.557967 
L 204.581687 152.557967 
L 204.581687 151.008101 
L 205.940144 151.008101 
L 205.940144 148.941613 
L 208.026141 148.941613 
L 208.026141 147.391747 
L 209.02933 147.391747 
L 209.02933 146.875125 
L 212.44635 146.875125 
L 212.44635 145.841881 
L 213.573528 145.841881 
L 213.573528 145.325259 
L 215.434019 145.325259 
L 215.434019 144.292014 
L 215.677752 144.292014 
L 215.677752 142.225526 
L 215.82508 142.225526 
L 215.82508 140.67566 
L 217.267191 140.67566 
L 217.267191 139.642416 
L 217.902945 139.642416 
L 217.902945 139.125794 
L 218.717646 139.125794 
L 218.717646 137.575928 
L 221.053898 137.575928 
L 221.053898 137.059306 
L 222.137263 137.059306 
L 222.137263 134.992818 
L 222.440104 134.992818 
L 222.440104 134.476196 
L 224.687583 134.476196 
L 224.687583 133.959574 
L 226.134907 133.959574 
L 226.134907 133.442952 
L 227.779672 133.442952 
L 227.779672 130.859842 
L 228.142159 130.859842 
L 228.227646 128.276732 
L 228.275553 128.276732 
L 228.349822 125.693622 
L 229.245479 125.693622 
L 229.245479 124.143756 
L 229.553719 124.143756 
L 229.553719 122.077268 
L 231.888565 122.077268 
L 231.888565 120.01078 
L 233.01404 120.01078 
L 233.01404 119.494158 
L 233.140001 119.494158 
L 233.140001 118.977536 
L 233.8076 118.977536 
L 233.8076 117.42767 
L 234.569279 117.42767 
L 234.569279 116.911048 
L 236.647033 116.911048 
L 236.647033 115.877804 
L 238.487903 115.877804 
L 238.487903 113.811316 
L 238.77007 113.811316 
L 238.77007 112.778072 
L 239.145763 112.778072 
L 239.145763 109.678339 
L 241.304888 109.678339 
L 241.304888 108.128473 
L 243.792944 108.128473 
L 243.792944 107.611851 
L 243.96885 107.611851 
L 243.96885 107.095229 
L 246.322541 107.095229 
L 246.322541 103.995497 
L 246.482522 103.995497 
L 246.482522 102.962253 
L 247.089031 102.962253 
L 247.089031 101.929009 
L 247.600079 101.929009 
L 247.600079 100.379143 
L 248.439414 100.379143 
L 248.503363 98.829277 
L 249.765672 98.829277 
L 249.765672 98.312655 
L 250.508875 98.312655 
L 250.610446 96.246167 
L 251.200674 96.246167 
L 251.200674 93.663057 
L 251.337559 93.663057 
L 251.337559 92.629813 
L 252.008088 92.629813 
L 252.008088 91.596569 
L 252.227512 91.596569 
L 252.227512 91.079947 
L 253.629449 91.079947 
L 253.629449 90.563325 
L 255.083269 90.563325 
L 255.11348 88.496837 
L 255.436668 88.496837 
L 255.436668 87.980215 
L 255.731544 87.980215 
L 255.731544 86.430349 
L 256.872447 86.430349 
L 256.872447 84.880483 
L 258.102018 84.880483 
L 258.102018 83.330617 
L 259.314734 83.330617 
L 259.314734 82.297373 
L 259.457099 82.297373 
L 259.457099 80.230885 
L 259.778177 80.230885 
L 259.778177 79.714263 
L 260.252115 79.714263 
L 260.252115 77.131153 
L 261.882232 77.131153 
L 261.882232 76.614531 
L 263.599718 76.614531 
L 263.599718 75.064664 
L 264.925294 75.064664 
L 264.925294 74.548042 
L 265.809797 74.548042 
L 265.809797 73.514798 
L 266.823654 73.514798 
L 266.823654 71.964932 
L 270.433595 71.964932 
L 270.433595 70.931688 
L 271.103897 70.931688 
L 271.103897 70.415066 
L 271.916329 70.415066 
L 271.916329 69.381822 
L 272.574307 69.381822 
L 272.574307 68.8652 
L 273.128327 68.8652 
L 273.128327 67.831956 
L 273.258294 67.831956 
L 273.258294 67.315334 
L 274.563863 67.315334 
L 274.563863 66.28209 
L 275.428732 66.28209 
L 275.428732 65.765468 
L 276.908454 65.765468 
L 276.920859 64.215602 
L 280.656079 64.215602 
L 280.665571 63.182358 
L 282.110318 63.182358 
L 282.110318 62.665736 
L 282.48661 62.665736 
L 282.48661 62.149114 
L 283.04701 62.149114 
L 283.04701 61.632492 
L 283.610679 61.632492 
L 283.645239 60.599248 
L 286.201222 60.599248 
L 286.201222 60.082626 
L 286.806837 60.082626 
L 286.806837 59.049382 
L 287.955853 59.049382 
L 288.033576 58.016138 
L 288.703733 58.016138 
L 288.703733 57.499516 
L 289.212317 57.499516 
L 289.212317 56.982894 
L 289.729141 56.982894 
L 289.729141 56.466272 
L 290.070631 56.466272 
L 290.070631 55.94965 
L 292.110857 55.94965 
L 292.136106 54.916406 
L 292.732849 54.916406 
L 292.732849 54.399784 
L 293.124976 54.399784 
L 293.124976 53.883162 
L 293.645589 53.883162 
L 293.645589 53.36654 
L 294.649948 53.36654 
L 294.649948 52.849918 
L 295.294517 52.849918 
L 295.294517 52.333296 
L 296.017701 52.333296 
L 296.017701 51.816674 
L 297.081122 51.816674 
L 297.081122 51.300052 
L 297.956902 51.300052 
L 297.956902 50.78343 
L 299.080712 50.78343 
L 299.080712 50.266808 
L 299.411886 50.266808 
L 299.411886 49.750186 
L 300.50063 49.750186 
L 300.50063 49.233564 
L 300.830677 49.233564 
L 300.908379 48.20032 
L 302.125182 48.20032 
L 302.192222 47.167076 
L 302.702991 47.167076 
L 302.702991 46.650454 
L 302.903895 46.650454 
L 302.903895 46.133832 
L 303.296418 46.133832 
L 303.296418 45.61721 
L 307.681016 45.61721 
L 307.681016 45.100588 
L 307.853732 45.100588 
L 307.853732 44.583966 
L 309.699549 44.583966 
L 309.804369 43.550722 
L 309.852249 43.550722 
L 309.852249 43.0341 
L 310.551736 43.0341 
L 310.551736 42.517478 
L 311.26286 42.517478 
L 311.26286 42.000855 
L 313.190245 42.000855 
L 313.190245 41.484233 
L 314.75353 41.484233 
L 314.75353 40.967611 
L 316.328625 40.967611 
L 316.328625 40.450989 
L 318.49535 40.450989 
L 318.49535 39.934367 
L 319.424601 39.934367 
L 319.424601 39.417745 
L 319.871315 39.417745 
L 319.871315 38.901123 
L 320.693157 38.901123 
L 320.693157 38.384501 
L 321.434941 38.384501 
L 321.434941 37.867879 
L 322.438024 37.867879 
L 322.438024 37.351257 
L 323.217528 37.351257 
L 323.217528 36.834635 
L 327.095356 36.834635 
L 327.095356 36.318013 
L 328.518163 36.318013 
L 328.518163 35.801391 
L 336.831365 35.801391 
L 336.831365 35.284769 
L 344.370877 35.284769 
L 344.370877 34.768147 
L 358.8 34.768147 
L 358.8 34.768147 
" style="fill:none;stroke:#000080;stroke-linecap:square;stroke-width:1.5;"/>
   </g>
   <g id="line2d_25">
    <defs>
     <path d="M 0 6 
C 1.591219 6 3.117479 5.367802 4.242641 4.242641 
C 5.367802 3.117479 6 1.591219 6 0 
C 6 -1.591219 5.367802 -3.117479 4.242641 -4.242641 
C 3.117479 -5.367802 1.591219 -6 0 -6 
C -1.591219 -6 -3.117479 -5.367802 -4.242641 -4.242641 
C -5.367802 -3.117479 -6 -1.591219 -6 0 
C -6 1.591219 -5.367802 3.117479 -4.242641 4.242641 
C -3.117479 5.367802 -1.591219 6 0 6 
z
" id="m55a476c8e1" style="stroke:#000080;stroke-width:1.5;"/>
    </defs>
    <g>
     <use style="fill:none;stroke:#000080;stroke-width:1.5;" x="58.414766" xlink:href="#m55a476c8e1" y="275.514006"/>
     <use style="fill:none;stroke:#000080;stroke-width:1.5;" x="164.029565" xlink:href="#m55a476c8e1" y="201.120436"/>
     <use style="fill:none;stroke:#000080;stroke-width:1.5;" x="212.44635" xlink:href="#m55a476c8e1" y="145.841881"/>
     <use style="fill:none;stroke:#000080;stroke-width:1.5;" x="288.703733" xlink:href="#m55a476c8e1" y="58.016138"/>
     <use style="fill:none;stroke:#000080;stroke-width:1.5;" x="344.370877" xlink:href="#m55a476c8e1" y="34.768147"/>
     <use style="fill:none;stroke:#000080;stroke-width:1.5;" x="358.8" xlink:href="#m55a476c8e1" y="34.768147"/>
    </g>
   </g>
   <g id="line2d_26"/>
   <g id="line2d_27">
    <path clip-path="url(#p63351e4960)" d="M 266.823654 71.964932 
" style="fill:none;stroke:#000080;stroke-linecap:square;stroke-width:1.5;"/>
    <defs>
     <path d="M -12 12 
L 12 -12 
M -12 -12 
L 12 12 
" id="m03c3c300e4" style="stroke:#000080;stroke-width:3;"/>
    </defs>
    <g clip-path="url(#p63351e4960)">
     <use style="fill:#000080;stroke:#000080;stroke-width:3;" x="266.823654" xlink:href="#m03c3c300e4" y="71.964932"/>
    </g>
   </g>
   <g id="line2d_28">
    <defs>
     <path d="M 0 1.5 
C 0.397805 1.5 0.77937 1.341951 1.06066 1.06066 
C 1.341951 0.77937 1.5 0.397805 1.5 0 
C 1.5 -0.397805 1.341951 -0.77937 1.06066 -1.06066 
C 0.77937 -1.341951 0.397805 -1.5 0 -1.5 
C -0.397805 -1.5 -0.77937 -1.341951 -1.06066 -1.06066 
C -1.341951 -0.77937 -1.5 -0.397805 -1.5 0 
C -1.5 0.397805 -1.341951 0.77937 -1.06066 1.06066 
C -0.77937 1.341951 -0.397805 1.5 0 1.5 
z
" id="m32387f4060" style="stroke:#ff00ff;"/>
    </defs>
    <g>
     <use style="fill:#ff00ff;stroke:#ff00ff;" x="334.291936" xlink:href="#m32387f4060" y="107.095229"/>
     <use style="fill:#ff00ff;stroke:#ff00ff;" x="334.291936" xlink:href="#m32387f4060" y="107.095229"/>
    </g>
   </g>
   <g id="line2d_29">
    <path d="M 138.817886 298.245375 
L 138.817886 297.728753 
L 139.594883 297.728753 
L 139.594883 297.212131 
L 140.339496 297.212131 
L 140.339496 296.178887 
L 177.334945 296.178887 
L 177.334945 294.629021 
L 188.408388 294.629021 
L 188.408388 293.079155 
L 189.324902 293.079155 
L 189.324902 292.562533 
L 189.535255 292.562533 
L 189.535255 288.429557 
L 197.501198 288.429557 
L 197.501198 287.912935 
L 200.074003 287.912935 
L 200.074003 286.363069 
L 200.25983 286.363069 
L 200.25983 283.263337 
L 201.645365 283.263337 
L 201.645365 282.746715 
L 203.986282 282.746715 
L 203.986282 282.230093 
L 208.28837 282.230093 
L 208.28837 276.54725 
L 208.494613 276.54725 
L 208.494613 275.514006 
L 209.200206 275.514006 
L 209.227241 270.864408 
L 210.554443 270.864408 
L 210.554443 269.831164 
L 218.972217 269.831164 
L 218.972217 269.314542 
L 219.998004 269.314542 
L 219.998004 268.281298 
L 221.404805 268.281298 
L 221.404805 266.731432 
L 221.852062 266.731432 
L 221.852062 266.21481 
L 221.971607 266.21481 
L 221.971607 265.181566 
L 222.253059 265.181566 
L 222.253059 264.148322 
L 226.28261 264.148322 
L 226.28261 263.115078 
L 228.373628 263.115078 
L 228.373628 260.531968 
L 228.569485 260.531968 
L 228.569485 255.88237 
L 229.046753 255.88237 
L 229.046753 251.232772 
L 232.120474 251.232772 
L 232.120474 249.166284 
L 232.63907 249.166284 
L 232.63907 246.066551 
L 233.686274 246.066551 
L 233.686274 245.033307 
L 233.880585 245.033307 
L 233.880585 244.000063 
L 240.821533 244.000063 
L 240.821533 242.966819 
L 243.109757 242.966819 
L 243.109757 239.867087 
L 244.015724 239.867087 
L 244.015724 238.833843 
L 244.703407 238.833843 
L 244.703407 228.501403 
L 247.210111 228.501403 
L 247.210111 226.951537 
L 248.599072 226.951537 
L 248.599072 224.885049 
L 250.487418 224.885049 
L 250.487418 224.368427 
L 251.864909 224.368427 
L 251.864909 219.718829 
L 253.866158 219.718829 
L 253.866158 219.202207 
L 254.066541 219.202207 
L 254.094761 215.069231 
L 255.196742 215.069231 
L 255.196742 213.002743 
L 255.589182 213.002743 
L 255.589182 211.452876 
L 255.976571 211.452876 
L 255.976571 208.869766 
L 258.991812 208.869766 
L 258.991812 208.353144 
L 260.172916 208.353144 
L 260.172916 200.087192 
L 260.55192 200.087192 
L 260.55192 199.57057 
L 263.176388 199.57057 
L 263.176388 198.537326 
L 263.585171 198.537326 
L 263.585171 198.020704 
L 264.422349 198.020704 
L 264.422349 196.98746 
L 264.908368 196.98746 
L 264.908368 196.470838 
L 265.023968 196.470838 
L 265.023968 193.371106 
L 268.174718 193.371106 
L 268.174718 191.82124 
L 269.326475 191.82124 
L 269.329413 188.204886 
L 269.994183 188.204886 
L 269.994183 187.171642 
L 271.155944 187.171642 
L 271.155944 183.038666 
L 271.420108 183.038666 
L 271.422128 181.4888 
L 272.189606 181.4888 
L 272.199618 180.455556 
L 272.429371 180.455556 
L 272.429371 179.938934 
L 272.767508 179.938934 
L 272.767508 179.422312 
L 272.903725 179.422312 
L 272.905803 178.389067 
L 273.318972 178.389067 
L 273.373162 176.322579 
L 273.972353 176.322579 
L 273.972353 174.772713 
L 274.649749 174.772713 
L 274.650245 173.739469 
L 274.819901 173.739469 
L 274.821178 172.706225 
L 276.971091 172.706225 
L 276.971091 172.189603 
L 277.152007 172.189603 
L 277.152007 171.672981 
L 278.524812 171.672981 
L 278.524812 171.156359 
L 279.306585 171.156359 
L 279.307884 169.606493 
L 279.535504 169.606493 
L 279.535504 169.089871 
L 280.534573 169.089871 
L 280.534716 168.056627 
L 280.758175 168.056627 
L 280.758175 167.540005 
L 281.00495 167.540005 
L 281.00495 167.023383 
L 281.146488 167.023383 
L 281.146488 166.506761 
L 281.437845 166.506761 
L 281.439338 165.473517 
L 282.109599 165.473517 
L 282.109599 164.956895 
L 282.542166 164.956895 
L 282.542166 164.440273 
L 283.316573 164.440273 
L 283.316573 163.923651 
L 283.820544 163.923651 
L 283.820544 163.407029 
L 284.089179 163.407029 
L 284.185512 162.373785 
L 285.004816 162.373785 
L 285.063934 161.340541 
L 285.492114 161.340541 
L 285.492114 160.823919 
L 285.671913 160.823919 
L 285.671913 160.307297 
L 285.938238 160.307297 
L 285.938238 159.790675 
L 286.38301 159.790675 
L 286.436874 158.757431 
L 286.68595 158.757431 
L 286.79669 157.724187 
L 286.97802 157.724187 
L 286.97802 157.207565 
L 287.192459 157.207565 
L 287.192459 156.690943 
L 287.379518 156.690943 
L 287.379518 156.174321 
L 288.076568 156.174321 
L 288.076568 155.657699 
L 288.234531 155.657699 
L 288.31373 154.624455 
L 288.838261 154.624455 
L 288.948412 153.591211 
L 289.844418 153.591211 
L 289.937767 152.557967 
L 291.218242 152.557967 
L 291.240043 151.524723 
L 292.004209 151.524723 
L 292.004209 151.008101 
L 292.812475 151.008101 
L 292.812475 150.491479 
L 293.147424 150.491479 
L 293.147424 149.974857 
L 294.017217 149.974857 
L 294.059701 148.941613 
L 294.566119 148.941613 
L 294.566119 148.424991 
L 294.875297 148.424991 
L 294.875297 147.908369 
L 295.913626 147.908369 
L 295.913626 147.391747 
L 296.141975 147.391747 
L 296.141975 146.875125 
L 296.807236 146.875125 
L 296.807236 146.358503 
L 296.936301 146.358503 
L 296.936301 145.841881 
L 297.09454 145.841881 
L 297.129634 144.292014 
L 297.45166 144.292014 
L 297.45166 143.775392 
L 298.392799 143.775392 
L 298.392799 143.25877 
L 298.52497 143.25877 
L 298.52497 142.742148 
L 298.738598 142.742148 
L 298.738598 142.225526 
L 299.218192 142.225526 
L 299.218192 141.708904 
L 299.488784 141.708904 
L 299.551699 140.67566 
L 299.613217 140.67566 
L 299.613584 139.642416 
L 300.672195 139.642416 
L 300.672195 139.125794 
L 300.843479 139.125794 
L 300.843479 138.609172 
L 301.146097 138.609172 
L 301.190587 137.575928 
L 301.452483 137.575928 
L 301.452483 137.059306 
L 301.947953 137.059306 
L 301.947953 136.542684 
L 302.130487 136.542684 
L 302.130487 136.026062 
L 303.026061 136.026062 
L 303.026061 135.50944 
L 303.455621 135.50944 
L 303.455621 134.992818 
L 303.805114 134.992818 
L 303.910631 133.959574 
L 304.023597 133.959574 
L 304.097959 132.92633 
L 304.929876 132.92633 
L 305.025351 131.376464 
L 305.196884 131.376464 
L 305.196884 130.859842 
L 306.832761 130.859842 
L 306.832761 130.34322 
L 307.838865 130.34322 
L 307.838865 129.826598 
L 309.312488 129.826598 
L 309.312488 129.309976 
L 309.506058 129.309976 
L 309.506058 128.793354 
L 309.825722 128.793354 
L 309.825722 128.276732 
L 310.066998 128.276732 
L 310.066998 127.76011 
L 310.427592 127.76011 
L 310.427592 127.243488 
L 310.713068 127.243488 
L 310.713068 126.726866 
L 311.704326 126.726866 
L 311.704326 126.210244 
L 312.233882 126.210244 
L 312.339897 124.660378 
L 312.353414 124.660378 
L 312.353414 124.143756 
L 312.78387 124.143756 
L 312.829123 123.110512 
L 313.036024 123.110512 
L 313.036024 122.59389 
L 313.631732 122.59389 
L 313.631732 122.077268 
L 314.612566 122.077268 
L 314.612566 121.560646 
L 314.877449 121.560646 
L 314.877449 121.044024 
L 315.386225 121.044024 
L 315.386225 120.527402 
L 315.571118 120.527402 
L 315.571118 120.01078 
L 316.043993 120.01078 
L 316.043993 119.494158 
L 316.441346 119.494158 
L 316.441346 118.977536 
L 316.826087 118.977536 
L 316.925609 117.944292 
L 317.067078 117.944292 
L 317.067078 117.42767 
L 317.944463 117.42767 
L 317.977901 116.394426 
L 319.186637 116.394426 
L 319.186637 115.877804 
L 319.582661 115.877804 
L 319.582661 115.361182 
L 319.750733 115.361182 
L 319.750733 114.84456 
L 320.152864 114.84456 
L 320.152864 114.327938 
L 321.204234 114.327938 
L 321.204234 113.811316 
L 321.715713 113.811316 
L 321.715713 113.294694 
L 323.092464 113.294694 
L 323.092464 112.778072 
L 323.537124 112.778072 
L 323.537124 112.26145 
L 323.837537 112.26145 
L 323.837537 111.744828 
L 324.206781 111.744828 
L 324.206781 111.228206 
L 324.458716 111.228206 
L 324.458716 110.711584 
L 326.013071 110.711584 
L 326.013071 110.194961 
L 326.444988 110.194961 
L 326.444988 109.678339 
L 326.705945 109.678339 
L 326.705945 109.161717 
L 327.280069 109.161717 
L 327.280069 108.645095 
L 332.06986 108.645095 
L 332.06986 108.128473 
L 332.863251 108.128473 
L 332.863251 107.611851 
L 334.291936 107.611851 
L 334.291936 107.095229 
L 358.8 107.095229 
L 358.8 107.095229 
" style="fill:none;stroke:#ff00ff;stroke-linecap:square;stroke-width:1.5;"/>
   </g>
   <g id="line2d_30">
    <defs>
     <path d="M -0 8.485281 
L 5.091169 0 
L 0 -8.485281 
L -5.091169 -0 
z
" id="ma7b3b5d316" style="stroke:#ff00ff;stroke-linejoin:miter;stroke-width:1.5;"/>
    </defs>
    <g>
     <use style="fill:none;stroke:#ff00ff;stroke-linejoin:miter;stroke-width:1.5;" x="247.210111" xlink:href="#ma7b3b5d316" y="228.501403"/>
     <use style="fill:none;stroke:#ff00ff;stroke-linejoin:miter;stroke-width:1.5;" x="294.875297" xlink:href="#ma7b3b5d316" y="147.908369"/>
     <use style="fill:none;stroke:#ff00ff;stroke-linejoin:miter;stroke-width:1.5;" x="334.291936" xlink:href="#ma7b3b5d316" y="107.611851"/>
     <use style="fill:none;stroke:#ff00ff;stroke-linejoin:miter;stroke-width:1.5;" x="334.291936" xlink:href="#ma7b3b5d316" y="107.095229"/>
     <use style="fill:none;stroke:#ff00ff;stroke-linejoin:miter;stroke-width:1.5;" x="358.8" xlink:href="#ma7b3b5d316" y="107.095229"/>
    </g>
   </g>
   <g id="line2d_31"/>
   <g id="line2d_32">
    <path clip-path="url(#p63351e4960)" d="M 264.140305 198.020704 
" style="fill:none;stroke:#ff00ff;stroke-linecap:square;stroke-width:1.5;"/>
    <defs>
     <path d="M -12 12 
L 12 -12 
M -12 -12 
L 12 12 
" id="m026a4b771f" style="stroke:#ff00ff;stroke-width:3;"/>
    </defs>
    <g clip-path="url(#p63351e4960)">
     <use style="fill:#ff00ff;stroke:#ff00ff;stroke-width:3;" x="264.140305" xlink:href="#m026a4b771f" y="198.020704"/>
    </g>
   </g>
   <g id="line2d_33">
    <defs>
     <path d="M 0 1.5 
C 0.397805 1.5 0.77937 1.341951 1.06066 1.06066 
C 1.341951 0.77937 1.5 0.397805 1.5 0 
C 1.5 -0.397805 1.341951 -0.77937 1.06066 -1.06066 
C 0.77937 -1.341951 0.397805 -1.5 0 -1.5 
C -0.397805 -1.5 -0.77937 -1.341951 -1.06066 -1.06066 
C -1.341951 -0.77937 -1.5 -0.397805 -1.5 0 
C -1.5 0.397805 -1.341951 0.77937 -1.06066 1.06066 
C -0.77937 1.341951 -0.397805 1.5 0 1.5 
z
" id="m78de271109" style="stroke:#ffa500;"/>
    </defs>
    <g>
     <use style="fill:#ffa500;stroke:#ffa500;" x="332.840651" xlink:href="#m78de271109" y="112.26145"/>
     <use style="fill:#ffa500;stroke:#ffa500;" x="332.840651" xlink:href="#m78de271109" y="112.26145"/>
    </g>
   </g>
   <g id="line2d_34">
    <path d="M 58.414766 298.245375 
L 58.414766 294.112399 
L 137.796573 294.112399 
L 137.796573 293.079155 
L 138.005559 293.079155 
L 138.005559 291.529289 
L 138.61824 291.529289 
L 138.61824 289.462801 
L 139.015326 289.462801 
L 139.015326 287.396313 
L 139.210608 287.396313 
L 139.210608 283.779959 
L 139.403779 283.779959 
L 139.403779 282.746715 
L 139.594883 282.746715 
L 139.594883 280.163604 
L 139.783966 280.163604 
L 139.783966 272.414274 
L 139.971068 272.414274 
L 139.971068 269.831164 
L 140.156232 269.831164 
L 140.156232 268.281298 
L 151.692688 268.281298 
L 151.692688 267.764676 
L 151.980117 267.764676 
L 151.980117 266.21481 
L 152.1692 266.21481 
L 152.1692 265.698188 
L 152.541466 265.698188 
L 152.541466 264.664944 
L 157.635691 264.664944 
L 157.635691 264.148322 
L 158.645458 264.148322 
L 158.645458 263.115078 
L 158.905362 263.115078 
L 158.905362 262.081834 
L 163.033869 262.081834 
L 163.033869 261.565212 
L 164.029565 261.565212 
L 164.029565 260.531968 
L 164.41281 260.531968 
L 164.41281 258.982102 
L 164.64823 258.982102 
L 164.64823 258.46548 
L 166.969752 258.46548 
L 166.969752 257.432236 
L 167.173962 257.432236 
L 167.173962 256.915614 
L 167.575509 256.915614 
L 167.575509 256.398992 
L 168.007033 256.398992 
L 168.007033 255.88237 
L 168.122934 255.88237 
L 168.122934 254.849126 
L 170.020925 254.849126 
L 170.020925 254.332504 
L 176.195556 254.332504 
L 176.195556 253.29926 
L 176.36631 253.29926 
L 176.36631 252.782638 
L 176.631385 252.782638 
L 176.631385 252.266016 
L 180.392267 252.266016 
L 180.392267 251.749394 
L 181.500576 251.749394 
L 181.500576 251.232772 
L 182.126964 251.232772 
L 182.126964 250.199528 
L 182.918175 250.199528 
L 182.918175 249.682906 
L 184.058733 249.682906 
L 184.058733 248.649662 
L 185.484088 248.649662 
L 185.484088 248.13304 
L 186.337823 248.13304 
L 186.36559 244.516685 
L 186.925508 244.516685 
L 187.032744 243.483441 
L 188.007965 243.483441 
L 188.007965 242.966819 
L 188.519408 242.966819 
L 188.519408 242.450197 
L 188.775805 242.450197 
L 188.775805 240.900331 
L 189.13582 240.900331 
L 189.13582 240.383709 
L 191.166305 240.383709 
L 191.166305 238.317221 
L 194.47699 238.317221 
L 194.47699 237.283977 
L 194.71331 237.283977 
L 194.71331 235.734111 
L 195.261297 235.734111 
L 195.261297 235.217489 
L 198.764691 235.217489 
L 198.764691 234.700867 
L 200.19597 234.700867 
L 200.19597 233.667623 
L 200.781243 233.667623 
L 200.781243 232.634379 
L 201.920489 232.634379 
L 201.920489 231.601135 
L 203.407805 231.601135 
L 203.407805 231.084513 
L 204.166484 231.084513 
L 204.166484 230.567891 
L 205.403354 230.567891 
L 205.403354 229.018025 
L 207.25868 229.018025 
L 207.25868 228.501403 
L 208.856803 228.501403 
L 208.856803 227.984781 
L 209.238815 227.984781 
L 209.238815 226.434915 
L 209.361805 226.434915 
L 209.361805 225.918293 
L 210.500618 225.918293 
L 210.500618 225.401671 
L 212.160454 225.401671 
L 212.160454 224.885049 
L 212.456016 224.885049 
L 212.456016 224.368427 
L 215.37393 224.368427 
L 215.37393 221.268695 
L 216.06094 221.268695 
L 216.06094 215.069231 
L 216.275528 215.069231 
L 216.275528 212.48612 
L 217.651833 212.48612 
L 217.651833 210.936254 
L 220.869792 210.936254 
L 220.869792 209.386388 
L 221.758526 209.386388 
L 221.859676 207.3199 
L 222.041445 207.3199 
L 222.041445 206.286656 
L 224.905559 206.286656 
L 224.905559 205.770034 
L 227.107215 205.770034 
L 227.149728 203.703546 
L 227.498734 203.703546 
L 227.498734 201.120436 
L 228.524981 201.120436 
L 228.524981 200.603814 
L 228.927985 200.603814 
L 228.927985 199.053948 
L 229.25932 199.053948 
L 229.25932 197.504082 
L 231.015311 197.504082 
L 231.015311 196.470838 
L 234.054542 196.470838 
L 234.054542 195.437594 
L 234.329397 195.437594 
L 234.329397 194.920972 
L 235.407129 194.920972 
L 235.407129 193.887728 
L 236.909622 193.887728 
L 236.909622 190.787996 
L 238.327345 190.787996 
L 238.327345 190.271374 
L 238.564282 190.271374 
L 238.564282 188.721508 
L 239.189829 188.721508 
L 239.189829 187.171642 
L 239.379298 187.171642 
L 239.379298 185.621776 
L 240.279993 185.621776 
L 240.279993 184.07191 
L 240.721154 184.07191 
L 240.721154 183.555288 
L 240.95145 183.555288 
L 240.95145 181.4888 
L 243.720303 181.4888 
L 243.720303 180.972178 
L 245.971581 180.972178 
L 245.971581 177.355823 
L 246.749166 177.355823 
L 246.749166 174.256091 
L 246.924587 174.256091 
L 246.924587 170.123115 
L 247.093203 170.123115 
L 247.093203 169.606493 
L 248.371351 169.606493 
L 248.371351 168.573249 
L 250.66785 168.573249 
L 250.66785 167.540005 
L 251.056049 167.540005 
L 251.056049 167.023383 
L 253.869331 167.023383 
L 253.967419 164.956895 
L 254.090374 164.956895 
L 254.104784 163.407029 
L 254.729391 163.407029 
L 254.729391 162.373785 
L 255.461355 162.373785 
L 255.461355 161.857163 
L 257.457361 161.857163 
L 257.457361 161.340541 
L 257.676893 161.340541 
L 257.676893 160.307297 
L 259.972917 160.307297 
L 259.972917 158.240809 
L 260.751406 158.240809 
L 260.751406 157.724187 
L 260.926899 157.724187 
L 260.926899 157.207565 
L 261.191058 157.207565 
L 261.191058 155.657699 
L 262.559567 155.657699 
L 262.559567 152.041345 
L 263.741793 152.041345 
L 263.741793 147.908369 
L 264.039128 147.908369 
L 264.039128 147.391747 
L 267.114928 147.391747 
L 267.114928 146.875125 
L 267.694587 146.875125 
L 267.694587 146.358503 
L 268.961837 146.358503 
L 268.961837 145.841881 
L 271.348678 145.841881 
L 271.348678 143.775392 
L 272.287777 143.775392 
L 272.287777 143.25877 
L 272.680583 143.25877 
L 272.680583 141.708904 
L 275.728388 141.708904 
L 275.728388 138.609172 
L 276.260552 138.609172 
L 276.329831 137.575928 
L 276.963078 137.575928 
L 276.963078 137.059306 
L 278.345408 137.059306 
L 278.345408 136.542684 
L 278.823432 136.542684 
L 278.823432 136.026062 
L 279.908199 136.026062 
L 279.908199 135.50944 
L 280.229066 135.50944 
L 280.229066 134.992818 
L 280.712533 134.992818 
L 280.712533 134.476196 
L 280.914528 134.476196 
L 280.914528 133.959574 
L 281.658464 133.959574 
L 281.658464 133.442952 
L 281.833522 133.442952 
L 281.833522 131.893086 
L 282.580316 131.893086 
L 282.580316 131.376464 
L 284.136769 131.376464 
L 284.20963 130.34322 
L 284.320966 130.34322 
L 284.400094 129.309976 
L 284.544485 129.309976 
L 284.544485 128.793354 
L 287.971105 128.793354 
L 287.971105 128.276732 
L 288.402136 128.276732 
L 288.402136 127.76011 
L 288.988949 127.76011 
L 288.988949 127.243488 
L 291.084939 127.243488 
L 291.084939 126.726866 
L 292.515404 126.726866 
L 292.515404 126.210244 
L 292.789997 126.210244 
L 292.789997 125.693622 
L 293.103841 125.693622 
L 293.103841 125.177 
L 293.980279 125.177 
L 293.980279 124.660378 
L 294.254509 124.660378 
L 294.254509 124.143756 
L 294.998159 124.143756 
L 294.998159 123.627134 
L 295.35161 123.627134 
L 295.35161 123.110512 
L 295.516034 123.110512 
L 295.516034 122.59389 
L 297.219255 122.59389 
L 297.219255 122.077268 
L 297.869211 122.077268 
L 297.869211 121.560646 
L 299.538282 121.560646 
L 299.538282 121.044024 
L 301.03059 121.044024 
L 301.03059 120.527402 
L 301.179761 120.527402 
L 301.289399 119.494158 
L 302.134087 119.494158 
L 302.134087 118.977536 
L 304.523558 118.977536 
L 304.523558 118.460914 
L 306.36047 118.460914 
L 306.36047 117.944292 
L 306.630986 117.944292 
L 306.630986 117.42767 
L 308.543553 117.42767 
L 308.543553 116.911048 
L 309.825334 116.911048 
L 309.825334 116.394426 
L 310.07152 116.394426 
L 310.07152 115.877804 
L 313.256542 115.877804 
L 313.256542 115.361182 
L 314.870256 115.361182 
L 314.870256 114.84456 
L 319.392833 114.84456 
L 319.392833 114.327938 
L 322.201855 114.327938 
L 322.201855 113.811316 
L 322.399547 113.811316 
L 322.399547 113.294694 
L 324.764602 113.294694 
L 324.764602 112.778072 
L 332.840651 112.778072 
L 332.840651 112.26145 
L 358.8 112.26145 
L 358.8 112.26145 
" style="fill:none;stroke:#ffa500;stroke-linecap:square;stroke-width:1.5;"/>
   </g>
   <g id="line2d_35">
    <defs>
     <path d="M 0 -6 
L -1.347084 -1.854102 
L -5.706339 -1.854102 
L -2.179628 0.708204 
L -3.526712 4.854102 
L -0 2.291796 
L 3.526712 4.854102 
L 2.179628 0.708204 
L 5.706339 -1.854102 
L 1.347084 -1.854102 
z
" id="mbef10da851" style="stroke:#ffa500;stroke-linejoin:bevel;stroke-width:1.5;"/>
    </defs>
    <g>
     <use style="fill:none;stroke:#ffa500;stroke-linejoin:bevel;stroke-width:1.5;" x="140.156232" xlink:href="#mbef10da851" y="269.831164"/>
     <use style="fill:none;stroke:#ffa500;stroke-linejoin:bevel;stroke-width:1.5;" x="212.456016" xlink:href="#mbef10da851" y="224.368427"/>
     <use style="fill:none;stroke:#ffa500;stroke-linejoin:bevel;stroke-width:1.5;" x="251.056049" xlink:href="#mbef10da851" y="167.023383"/>
     <use style="fill:none;stroke:#ffa500;stroke-linejoin:bevel;stroke-width:1.5;" x="332.840651" xlink:href="#mbef10da851" y="112.778072"/>
     <use style="fill:none;stroke:#ffa500;stroke-linejoin:bevel;stroke-width:1.5;" x="332.840651" xlink:href="#mbef10da851" y="112.26145"/>
     <use style="fill:none;stroke:#ffa500;stroke-linejoin:bevel;stroke-width:1.5;" x="358.8" xlink:href="#mbef10da851" y="112.26145"/>
    </g>
   </g>
   <g id="line2d_36"/>
   <g id="line2d_37">
    <path clip-path="url(#p63351e4960)" d="M 267.321456 146.875125 
" style="fill:none;stroke:#ffa500;stroke-linecap:square;stroke-width:1.5;"/>
    <defs>
     <path d="M -12 12 
L 12 -12 
M -12 -12 
L 12 12 
" id="m8e3e833964" style="stroke:#ffa500;stroke-width:3;"/>
    </defs>
    <g clip-path="url(#p63351e4960)">
     <use style="fill:#ffa500;stroke:#ffa500;stroke-width:3;" x="267.321456" xlink:href="#m8e3e833964" y="146.875125"/>
    </g>
   </g>
   <g id="line2d_38">
    <defs>
     <path d="M 0 1.5 
C 0.397805 1.5 0.77937 1.341951 1.06066 1.06066 
C 1.341951 0.77937 1.5 0.397805 1.5 0 
C 1.5 -0.397805 1.341951 -0.77937 1.06066 -1.06066 
C 0.77937 -1.341951 0.397805 -1.5 0 -1.5 
C -0.397805 -1.5 -0.77937 -1.341951 -1.06066 -1.06066 
C -1.341951 -0.77937 -1.5 -0.397805 -1.5 0 
C -1.5 0.397805 -1.341951 0.77937 -1.06066 1.06066 
C -0.77937 1.341951 -0.397805 1.5 0 1.5 
z
" id="me9ecc2bdfc" style="stroke:#6495ed;"/>
    </defs>
    <g>
     <use style="fill:#6495ed;stroke:#6495ed;" x="343.540709" xlink:href="#me9ecc2bdfc" y="91.596569"/>
     <use style="fill:#6495ed;stroke:#6495ed;" x="343.540709" xlink:href="#me9ecc2bdfc" y="91.596569"/>
    </g>
   </g>
   <g id="line2d_39">
    <path d="M 58.414766 298.245375 
L 58.414766 296.695509 
L 137.371122 296.695509 
L 137.371122 292.562533 
L 137.796573 292.562533 
L 137.796573 291.012667 
L 138.005559 291.012667 
L 138.005559 288.429557 
L 138.61824 288.429557 
L 138.61824 285.329825 
L 138.817886 285.329825 
L 138.817886 281.713471 
L 139.403779 281.713471 
L 139.403779 278.613738 
L 139.783966 278.613738 
L 139.783966 276.54725 
L 140.156232 276.54725 
L 140.156232 269.314542 
L 140.5209 269.314542 
L 140.5209 265.698188 
L 140.70048 265.698188 
L 140.70048 265.181566 
L 150.597364 265.181566 
L 150.597364 264.664944 
L 151.003475 264.664944 
L 151.003475 264.148322 
L 152.633333 264.148322 
L 152.633333 263.6317 
L 157.356496 263.6317 
L 157.356496 262.598456 
L 158.710789 262.598456 
L 158.710789 262.081834 
L 162.827894 262.081834 
L 162.827894 260.015346 
L 164.12615 260.015346 
L 164.12615 259.498724 
L 164.834358 259.498724 
L 164.834358 258.46548 
L 166.596189 258.46548 
L 166.596189 256.915614 
L 168.199786 256.915614 
L 168.199786 255.88237 
L 169.671244 255.88237 
L 169.671244 254.849126 
L 170.397831 254.849126 
L 170.397831 254.332504 
L 172.354862 254.332504 
L 172.445794 252.266016 
L 173.186087 252.266016 
L 173.186087 251.749394 
L 175.161262 251.749394 
L 175.161262 250.71615 
L 175.495736 250.71615 
L 175.495736 250.199528 
L 177.608791 250.199528 
L 177.608791 249.166284 
L 181.354266 249.166284 
L 181.354266 248.649662 
L 184.293947 248.649662 
L 184.293947 246.066551 
L 187.765898 246.066551 
L 187.765898 245.549929 
L 190.016657 245.549929 
L 190.016657 244.516685 
L 190.845312 244.516685 
L 190.845312 243.483441 
L 191.250938 243.483441 
L 191.250938 242.966819 
L 194.84326 242.966819 
L 194.84326 241.933575 
L 198.272813 241.933575 
L 198.272813 238.317221 
L 198.937132 238.317221 
L 198.937132 234.700867 
L 199.722744 234.700867 
L 199.722744 233.151001 
L 201.263782 233.151001 
L 201.263782 232.117757 
L 202.322553 232.117757 
L 202.322553 231.084513 
L 204.425852 231.084513 
L 204.425852 230.567891 
L 204.977672 230.567891 
L 204.977672 229.018025 
L 208.259875 229.018025 
L 208.259875 227.984781 
L 209.808153 227.984781 
L 209.808153 226.434915 
L 210.005059 226.434915 
L 210.005059 225.918293 
L 214.098309 225.918293 
L 214.098309 225.401671 
L 216.350806 225.401671 
L 216.374104 222.818561 
L 219.352875 222.818561 
L 219.352875 222.301939 
L 219.676201 222.301939 
L 219.742741 220.235451 
L 220.180815 220.235451 
L 220.180815 219.718829 
L 220.37212 219.718829 
L 220.37212 218.168963 
L 220.827501 218.168963 
L 220.827501 217.135719 
L 221.089698 217.135719 
L 221.089698 215.585853 
L 222.319953 215.585853 
L 222.344048 213.519365 
L 222.491613 213.519365 
L 222.491613 213.002743 
L 223.15337 213.002743 
L 223.15337 211.969498 
L 225.59963 211.969498 
L 225.59963 211.452876 
L 227.459826 211.452876 
L 227.459826 209.90301 
L 228.993213 209.90301 
L 229.054388 207.836522 
L 229.177377 207.836522 
L 229.177377 207.3199 
L 231.98601 207.3199 
L 231.98601 205.770034 
L 232.144036 205.770034 
L 232.144036 203.703546 
L 233.550275 203.703546 
L 233.550275 203.186924 
L 233.716683 203.186924 
L 233.753888 202.15368 
L 234.410659 202.15368 
L 234.410659 199.57057 
L 234.660619 199.57057 
L 234.660619 199.053948 
L 237.729107 199.053948 
L 237.729107 198.537326 
L 237.881913 198.537326 
L 237.881913 196.98746 
L 238.061113 196.98746 
L 238.061113 196.470838 
L 239.54911 196.470838 
L 239.54911 195.954216 
L 240.016724 195.954216 
L 240.016724 195.437594 
L 240.859688 195.437594 
L 240.859688 194.40435 
L 241.945139 194.40435 
L 241.945139 191.82124 
L 242.31662 191.82124 
L 242.31662 189.23813 
L 243.079604 189.23813 
L 243.079604 188.721508 
L 244.433761 188.721508 
L 244.523383 186.138398 
L 244.580569 186.138398 
L 244.580569 185.105154 
L 244.999823 185.105154 
L 244.999823 184.07191 
L 245.358963 184.07191 
L 245.358963 182.005422 
L 247.35278 182.005422 
L 247.35278 180.972178 
L 248.60035 180.972178 
L 248.60035 180.455556 
L 248.738299 180.455556 
L 248.738299 179.938934 
L 248.902863 179.938934 
L 248.902863 178.90569 
L 249.720906 178.90569 
L 249.720906 178.389067 
L 250.312116 178.389067 
L 250.312116 177.872445 
L 250.855869 177.872445 
L 250.922596 173.739469 
L 254.381935 173.739469 
L 254.381935 172.706225 
L 256.59459 172.706225 
L 256.59459 171.672981 
L 258.032282 171.672981 
L 258.095007 166.506761 
L 259.293668 166.506761 
L 259.293668 164.956895 
L 259.613299 164.956895 
L 259.613299 163.407029 
L 259.962767 163.407029 
L 259.962767 161.857163 
L 261.250982 161.857163 
L 261.250982 158.757431 
L 261.744118 158.757431 
L 261.744118 155.657699 
L 263.942792 155.657699 
L 263.942792 155.141077 
L 264.251741 155.141077 
L 264.251741 154.624455 
L 265.835638 154.624455 
L 265.835638 152.041345 
L 267.021251 152.041345 
L 267.021251 150.491479 
L 267.515723 150.491479 
L 267.515723 148.424991 
L 267.67174 148.424991 
L 267.760327 146.875125 
L 267.785827 146.875125 
L 267.785827 145.325259 
L 268.637704 145.325259 
L 268.637704 144.808637 
L 270.206022 144.808637 
L 270.206022 143.25877 
L 271.250592 143.25877 
L 271.291925 137.575928 
L 272.437791 137.575928 
L 272.437791 136.542684 
L 273.148616 136.542684 
L 273.148616 136.026062 
L 273.923155 136.026062 
L 273.923155 134.992818 
L 274.460532 134.992818 
L 274.460532 133.959574 
L 275.712884 133.959574 
L 275.712884 133.442952 
L 276.518127 133.442952 
L 276.518127 132.92633 
L 277.370752 132.92633 
L 277.370752 131.893086 
L 278.242378 131.893086 
L 278.242378 131.376464 
L 279.699366 131.376464 
L 279.73469 130.34322 
L 280.092476 130.34322 
L 280.101322 129.309976 
L 281.157239 129.309976 
L 281.177277 128.276732 
L 281.377925 128.276732 
L 281.377925 127.76011 
L 281.645999 127.76011 
L 281.645999 127.243488 
L 282.3771 127.243488 
L 282.421896 126.210244 
L 282.59844 126.210244 
L 282.59844 125.693622 
L 284.170501 125.693622 
L 284.259276 124.660378 
L 285.312781 124.660378 
L 285.312781 123.627134 
L 287.49055 123.627134 
L 287.49055 123.110512 
L 288.912737 123.110512 
L 288.912737 122.59389 
L 290.626396 122.59389 
L 290.626396 122.077268 
L 291.354101 122.077268 
L 291.354101 121.560646 
L 291.765674 121.560646 
L 291.765674 121.044024 
L 292.207743 121.044024 
L 292.207743 120.527402 
L 292.718533 120.527402 
L 292.718533 120.01078 
L 293.194484 120.01078 
L 293.259034 118.977536 
L 293.774588 118.977536 
L 293.774588 118.460914 
L 294.332461 118.460914 
L 294.333845 117.42767 
L 295.050222 117.42767 
L 295.060003 116.394426 
L 295.281614 116.394426 
L 295.281614 115.877804 
L 296.19325 115.877804 
L 296.27305 114.84456 
L 297.15588 114.84456 
L 297.15588 114.327938 
L 297.378214 114.327938 
L 297.378214 113.811316 
L 297.506132 113.811316 
L 297.509747 112.778072 
L 297.642208 112.778072 
L 297.642208 112.26145 
L 297.845617 112.26145 
L 297.845617 111.744828 
L 301.173469 111.744828 
L 301.173469 111.228206 
L 301.690564 111.228206 
L 301.690564 110.711584 
L 302.364302 110.711584 
L 302.364302 110.194961 
L 304.658892 110.194961 
L 304.658892 109.678339 
L 304.915446 109.678339 
L 304.915446 109.161717 
L 305.758925 109.161717 
L 305.758925 108.645095 
L 306.004208 108.645095 
L 306.1046 107.611851 
L 306.380448 107.611851 
L 306.380448 107.095229 
L 308.429369 107.095229 
L 308.429369 106.578607 
L 308.568339 106.578607 
L 308.655298 105.545363 
L 308.855539 105.545363 
L 308.855539 105.028741 
L 310.62954 105.028741 
L 310.62954 104.512119 
L 311.733821 104.512119 
L 311.823701 103.478875 
L 312.904862 103.478875 
L 312.904862 102.962253 
L 313.981995 102.962253 
L 314.045926 101.929009 
L 314.548912 101.929009 
L 314.548912 101.412387 
L 314.719918 101.412387 
L 314.719918 100.895765 
L 315.198025 100.895765 
L 315.198025 100.379143 
L 316.164037 100.379143 
L 316.164037 99.862521 
L 317.21601 99.862521 
L 317.21601 99.345899 
L 319.319476 99.345899 
L 319.319476 98.829277 
L 319.877321 98.829277 
L 319.877321 98.312655 
L 320.061847 98.312655 
L 320.061847 97.796033 
L 321.388795 97.796033 
L 321.388795 97.279411 
L 321.578336 97.279411 
L 321.578336 96.762789 
L 323.802924 96.762789 
L 323.802924 96.246167 
L 324.391513 96.246167 
L 324.391513 95.729545 
L 326.469157 95.729545 
L 326.469157 95.212923 
L 334.010642 95.212923 
L 334.010642 94.696301 
L 334.789755 94.696301 
L 334.789755 94.179679 
L 337.121526 94.179679 
L 337.121526 93.663057 
L 337.739589 93.663057 
L 337.739589 93.146435 
L 339.849512 93.146435 
L 339.849512 92.629813 
L 342.924055 92.629813 
L 342.924055 92.113191 
L 343.540709 92.113191 
L 343.540709 91.596569 
L 358.8 91.596569 
L 358.8 91.596569 
" style="fill:none;stroke:#6495ed;stroke-linecap:square;stroke-width:1.5;"/>
   </g>
   <g id="line2d_40">
    <defs>
     <path d="M -0 6 
L 6 -6 
L -6 -6 
z
" id="m5b896302ae" style="stroke:#6495ed;stroke-linejoin:miter;stroke-width:1.5;"/>
    </defs>
    <g>
     <use style="fill:none;stroke:#6495ed;stroke-linejoin:miter;stroke-width:1.5;" x="139.783966" xlink:href="#m5b896302ae" y="278.613738"/>
     <use style="fill:none;stroke:#6495ed;stroke-linejoin:miter;stroke-width:1.5;" x="204.977672" xlink:href="#m5b896302ae" y="229.018025"/>
     <use style="fill:none;stroke:#6495ed;stroke-linejoin:miter;stroke-width:1.5;" x="267.021251" xlink:href="#m5b896302ae" y="152.041345"/>
     <use style="fill:none;stroke:#6495ed;stroke-linejoin:miter;stroke-width:1.5;" x="306.380448" xlink:href="#m5b896302ae" y="107.095229"/>
     <use style="fill:none;stroke:#6495ed;stroke-linejoin:miter;stroke-width:1.5;" x="343.540709" xlink:href="#m5b896302ae" y="91.596569"/>
     <use style="fill:none;stroke:#6495ed;stroke-linejoin:miter;stroke-width:1.5;" x="358.8" xlink:href="#m5b896302ae" y="91.596569"/>
    </g>
   </g>
   <g id="line2d_41"/>
   <g id="line2d_42">
    <path clip-path="url(#p63351e4960)" d="M 271.250592 142.742148 
" style="fill:none;stroke:#6495ed;stroke-linecap:square;stroke-width:1.5;"/>
    <defs>
     <path d="M -12 12 
L 12 -12 
M -12 -12 
L 12 12 
" id="m2f4523930c" style="stroke:#6495ed;stroke-width:3;"/>
    </defs>
    <g clip-path="url(#p63351e4960)">
     <use style="fill:#6495ed;stroke:#6495ed;stroke-width:3;" x="271.250592" xlink:href="#m2f4523930c" y="142.742148"/>
    </g>
   </g>
   <g id="line2d_43">
    <defs>
     <path d="M 0 1.5 
C 0.397805 1.5 0.77937 1.341951 1.06066 1.06066 
C 1.341951 0.77937 1.5 0.397805 1.5 0 
C 1.5 -0.397805 1.341951 -0.77937 1.06066 -1.06066 
C 0.77937 -1.341951 0.397805 -1.5 0 -1.5 
C -0.397805 -1.5 -0.77937 -1.341951 -1.06066 -1.06066 
C -1.341951 -0.77937 -1.5 -0.397805 -1.5 0 
C -1.5 0.397805 -1.341951 0.77937 -1.06066 1.06066 
C -0.77937 1.341951 -0.397805 1.5 0 1.5 
z
" id="m2557b07767" style="stroke:#ff0000;"/>
    </defs>
    <g>
     <use style="fill:#ff0000;stroke:#ff0000;" x="199.749001" xlink:href="#m2557b07767" y="34.768147"/>
     <use style="fill:#ff0000;stroke:#ff0000;" x="199.749001" xlink:href="#m2557b07767" y="34.768147"/>
    </g>
   </g>
   <g id="line2d_44">
    <path d="M 58.414766 298.245375 
L 58.414766 288.429557 
L 136.713325 288.429557 
L 136.713325 285.846447 
L 138.61824 285.846447 
L 138.61824 284.296581 
L 138.817886 284.296581 
L 138.817886 281.196849 
L 139.210608 281.196849 
L 139.210608 280.163604 
L 139.783966 280.163604 
L 139.783966 275.514006 
L 139.971068 275.514006 
L 139.971068 273.96414 
L 140.156232 273.96414 
L 140.156232 270.864408 
L 140.339496 270.864408 
L 140.339496 268.281298 
L 140.5209 268.281298 
L 140.5209 262.598456 
L 140.70048 262.598456 
L 140.70048 256.915614 
L 151.302113 256.915614 
L 151.302113 256.398992 
L 152.074909 256.398992 
L 152.074909 254.849126 
L 152.541466 254.849126 
L 152.633333 253.815882 
L 152.99615 253.815882 
L 152.99615 253.29926 
L 157.842261 253.29926 
L 157.842261 252.266016 
L 158.248372 252.266016 
L 158.248372 251.749394 
L 159.03391 251.749394 
L 159.03391 251.232772 
L 159.351292 251.232772 
L 159.351292 250.199528 
L 159.969627 250.199528 
L 159.969627 249.166284 
L 160.211092 249.166284 
L 160.211092 248.649662 
L 164.317767 248.649662 
L 164.317767 248.13304 
L 164.694944 248.13304 
L 164.694944 247.616418 
L 165.381384 247.616418 
L 165.381384 245.033307 
L 167.45599 245.033307 
L 167.45599 244.516685 
L 167.575509 244.516685 
L 167.575509 241.933575 
L 168.122934 241.933575 
L 168.122934 241.416953 
L 169.314583 241.416953 
L 169.314583 240.383709 
L 171.354986 240.383709 
L 171.354986 238.317221 
L 172.263464 238.317221 
L 172.263464 237.800599 
L 172.626281 237.800599 
L 172.626281 236.250733 
L 173.127979 236.250733 
L 173.127979 235.734111 
L 173.301738 235.734111 
L 173.301738 234.700867 
L 174.228337 234.700867 
L 174.228337 234.184245 
L 174.740816 234.184245 
L 174.740816 232.634379 
L 177.010061 232.634379 
L 177.103489 230.051269 
L 177.766618 230.051269 
L 177.766618 217.135719 
L 178.056076 217.135719 
L 178.056076 205.253412 
L 178.492438 205.253412 
L 178.492438 192.337862 
L 179.272645 192.337862 
L 179.272645 191.82124 
L 179.396016 191.82124 
L 179.396016 191.304618 
L 180.000406 191.304618 
L 180.000406 180.972178 
L 180.604182 180.972178 
L 180.604182 166.506761 
L 180.945621 166.506761 
L 180.945621 165.990139 
L 181.335892 165.990139 
L 181.335892 165.473517 
L 182.968578 165.473517 
L 182.968578 154.624455 
L 183.301018 154.624455 
L 183.301018 138.09255 
L 183.74022 138.09255 
L 183.74022 125.693622 
L 184.309518 125.693622 
L 184.309518 113.294694 
L 184.831028 113.294694 
L 184.831028 101.929009 
L 185.498656 101.929009 
L 185.498656 101.412387 
L 185.730149 101.412387 
L 185.730149 100.379143 
L 187.059452 100.379143 
L 187.059452 99.345899 
L 187.205641 99.345899 
L 187.205641 98.312655 
L 187.94458 98.312655 
L 188.007965 94.179679 
L 189.159565 94.179679 
L 189.159565 85.397105 
L 191.709387 85.397105 
L 191.709387 84.880483 
L 192.660842 84.880483 
L 192.699813 69.898444 
L 193.876701 69.898444 
L 193.876701 61.632492 
L 196.459745 61.632492 
L 196.459745 46.133832 
L 199.749001 46.133832 
L 199.749001 34.768147 
L 358.8 34.768147 
L 358.8 34.768147 
" style="fill:none;stroke:#ff0000;stroke-linecap:square;stroke-width:1.5;"/>
   </g>
   <g id="line2d_45">
    <defs>
     <path d="M 0 -6 
L -5.196152 -3 
L -5.196152 3 
L -0 6 
L 5.196152 3 
L 5.196152 -3 
z
" id="m91fde37709" style="stroke:#ff0000;stroke-linejoin:miter;stroke-width:1.5;"/>
    </defs>
    <g>
     <use style="fill:none;stroke:#ff0000;stroke-linejoin:miter;stroke-width:1.5;" x="136.713325" xlink:href="#m91fde37709" y="288.429557"/>
     <use style="fill:none;stroke:#ff0000;stroke-linejoin:miter;stroke-width:1.5;" x="180.604182" xlink:href="#m91fde37709" y="180.972178"/>
     <use style="fill:none;stroke:#ff0000;stroke-linejoin:miter;stroke-width:1.5;" x="189.159565" xlink:href="#m91fde37709" y="94.179679"/>
     <use style="fill:none;stroke:#ff0000;stroke-linejoin:miter;stroke-width:1.5;" x="199.749001" xlink:href="#m91fde37709" y="46.133832"/>
     <use style="fill:none;stroke:#ff0000;stroke-linejoin:miter;stroke-width:1.5;" x="199.749001" xlink:href="#m91fde37709" y="34.768147"/>
     <use style="fill:none;stroke:#ff0000;stroke-linejoin:miter;stroke-width:1.5;" x="358.8" xlink:href="#m91fde37709" y="34.768147"/>
    </g>
   </g>
   <g id="line2d_46"/>
   <g id="line2d_47">
    <path d="M 358.8 112.26145 
L 390.48 292.97583 
" style="fill:none;stroke:#ffa500;stroke-linecap:square;stroke-width:1.5;"/>
    <g>
     <use style="fill:none;stroke:#ffa500;stroke-linejoin:bevel;stroke-width:1.5;" x="358.8" xlink:href="#mbef10da851" y="112.26145"/>
     <use style="fill:none;stroke:#ffa500;stroke-linejoin:bevel;stroke-width:1.5;" x="390.48" xlink:href="#mbef10da851" y="292.97583"/>
    </g>
   </g>
   <g id="line2d_48">
    <path d="M 358.8 107.095229 
L 390.48 229.741296 
" style="fill:none;stroke:#ff00ff;stroke-linecap:square;stroke-width:1.5;"/>
    <g>
     <use style="fill:none;stroke:#ff00ff;stroke-linejoin:miter;stroke-width:1.5;" x="358.8" xlink:href="#ma7b3b5d316" y="107.095229"/>
     <use style="fill:none;stroke:#ff00ff;stroke-linejoin:miter;stroke-width:1.5;" x="390.48" xlink:href="#ma7b3b5d316" y="229.741296"/>
    </g>
   </g>
   <g id="line2d_49">
    <path d="M 358.8 91.596569 
L 390.48 166.506761 
" style="fill:none;stroke:#6495ed;stroke-linecap:square;stroke-width:1.5;"/>
    <g>
     <use style="fill:none;stroke:#6495ed;stroke-linejoin:miter;stroke-width:1.5;" x="358.8" xlink:href="#m5b896302ae" y="91.596569"/>
     <use style="fill:none;stroke:#6495ed;stroke-linejoin:miter;stroke-width:1.5;" x="390.48" xlink:href="#m5b896302ae" y="166.506761"/>
    </g>
   </g>
   <g id="line2d_50">
    <path d="M 358.8 34.768147 
L 390.48 103.272226 
" style="fill:none;stroke:#000080;stroke-linecap:square;stroke-width:1.5;"/>
    <g>
     <use style="fill:none;stroke:#000080;stroke-width:1.5;" x="358.8" xlink:href="#m55a476c8e1" y="34.768147"/>
     <use style="fill:none;stroke:#000080;stroke-width:1.5;" x="390.48" xlink:href="#m55a476c8e1" y="103.272226"/>
    </g>
   </g>
   <g id="line2d_51">
    <path d="M 358.8 34.768147 
L 390.48 40.037692 
" style="fill:none;stroke:#ff0000;stroke-linecap:square;stroke-width:1.5;"/>
    <g>
     <use style="fill:none;stroke:#ff0000;stroke-linejoin:miter;stroke-width:1.5;" x="358.8" xlink:href="#m91fde37709" y="34.768147"/>
     <use style="fill:none;stroke:#ff0000;stroke-linejoin:miter;stroke-width:1.5;" x="390.48" xlink:href="#m91fde37709" y="40.037692"/>
    </g>
   </g>
   <g id="line2d_52">
    <path d="M 358.8 298.245375 
L 358.8 34.768147 
" style="fill:none;stroke:#000000;stroke-linecap:square;stroke-width:1.5;"/>
   </g>
   <g id="patch_3">
    <path d="M 70.8 298.245375 
L 70.8 32.133375 
" style="fill:none;stroke:#000000;stroke-linecap:square;stroke-linejoin:miter;stroke-width:0.8;"/>
   </g>
   <g id="patch_4">
    <path d="M 427.92 298.245375 
L 427.92 32.133375 
" style="fill:none;stroke:#000000;stroke-linecap:square;stroke-linejoin:miter;stroke-width:0.8;"/>
   </g>
   <g id="patch_5">
    <path d="M 70.8 298.245375 
L 427.92 298.245375 
" style="fill:none;stroke:#000000;stroke-linecap:square;stroke-linejoin:miter;stroke-width:0.8;"/>
   </g>
   <g id="patch_6">
    <path d="M 70.8 32.133375 
L 427.92 32.133375 
" style="fill:none;stroke:#000000;stroke-linecap:square;stroke-linejoin:miter;stroke-width:0.8;"/>
   </g>
   <g id="text_14">
    <!-- f3 -->
    <defs>
     <path d="M 40.578125 39.3125 
Q 47.65625 37.796875 51.625 33 
Q 55.609375 28.21875 55.609375 21.1875 
Q 55.609375 10.40625 48.1875 4.484375 
Q 40.765625 -1.421875 27.09375 -1.421875 
Q 22.515625 -1.421875 17.65625 -0.515625 
Q 12.796875 0.390625 7.625 2.203125 
L 7.625 11.71875 
Q 11.71875 9.328125 16.59375 8.109375 
Q 21.484375 6.890625 26.8125 6.890625 
Q 36.078125 6.890625 40.9375 10.546875 
Q 45.796875 14.203125 45.796875 21.1875 
Q 45.796875 27.640625 41.28125 31.265625 
Q 36.765625 34.90625 28.71875 34.90625 
L 20.21875 34.90625 
L 20.21875 43.015625 
L 29.109375 43.015625 
Q 36.375 43.015625 40.234375 45.921875 
Q 44.09375 48.828125 44.09375 54.296875 
Q 44.09375 59.90625 40.109375 62.90625 
Q 36.140625 65.921875 28.71875 65.921875 
Q 24.65625 65.921875 20.015625 65.03125 
Q 15.375 64.15625 9.8125 62.3125 
L 9.8125 71.09375 
Q 15.4375 72.65625 20.34375 73.4375 
Q 25.25 74.21875 29.59375 74.21875 
Q 40.828125 74.21875 47.359375 69.109375 
Q 53.90625 64.015625 53.90625 55.328125 
Q 53.90625 49.265625 50.4375 45.09375 
Q 46.96875 40.921875 40.578125 39.3125 
z
" id="DejaVuSans-33"/>
    </defs>
    <g transform="translate(396.24 297.114893)scale(0.15 -0.15)">
     <use xlink:href="#DejaVuSans-66"/>
     <use x="35.205078" xlink:href="#DejaVuSans-33"/>
    </g>
   </g>
   <g id="text_15">
    <!-- f2 -->
    <g transform="translate(396.24 233.880358)scale(0.15 -0.15)">
     <use xlink:href="#DejaVuSans-66"/>
     <use x="35.205078" xlink:href="#DejaVuSans-32"/>
    </g>
   </g>
   <g id="text_16">
    <!-- f4 -->
    <g transform="translate(396.24 170.645824)scale(0.15 -0.15)">
     <use xlink:href="#DejaVuSans-66"/>
     <use x="35.205078" xlink:href="#DejaVuSans-34"/>
    </g>
   </g>
   <g id="text_17">
    <!-- f1 -->
    <g transform="translate(396.24 107.411289)scale(0.15 -0.15)">
     <use xlink:href="#DejaVuSans-66"/>
     <use x="35.205078" xlink:href="#DejaVuSans-31"/>
    </g>
   </g>
   <g id="text_18">
    <!-- f5 -->
    <defs>
     <path d="M 10.796875 72.90625 
L 49.515625 72.90625 
L 49.515625 64.59375 
L 19.828125 64.59375 
L 19.828125 46.734375 
Q 21.96875 47.46875 24.109375 47.828125 
Q 26.265625 48.1875 28.421875 48.1875 
Q 40.625 48.1875 47.75 41.5 
Q 54.890625 34.8125 54.890625 23.390625 
Q 54.890625 11.625 47.5625 5.09375 
Q 40.234375 -1.421875 26.90625 -1.421875 
Q 22.3125 -1.421875 17.546875 -0.640625 
Q 12.796875 0.140625 7.71875 1.703125 
L 7.71875 11.625 
Q 12.109375 9.234375 16.796875 8.0625 
Q 21.484375 6.890625 26.703125 6.890625 
Q 35.15625 6.890625 40.078125 11.328125 
Q 45.015625 15.765625 45.015625 23.390625 
Q 45.015625 31 40.078125 35.4375 
Q 35.15625 39.890625 26.703125 39.890625 
Q 22.75 39.890625 18.8125 39.015625 
Q 14.890625 38.140625 10.796875 36.28125 
z
" id="DejaVuSans-35"/>
    </defs>
    <g transform="translate(396.24 44.176754)scale(0.15 -0.15)">
     <use xlink:href="#DejaVuSans-66"/>
     <use x="35.205078" xlink:href="#DejaVuSans-35"/>
    </g>
   </g>
   <g id="text_19">
    <!-- bbob -->
    <defs>
     <path d="M 48.6875 27.296875 
Q 48.6875 37.203125 44.609375 42.84375 
Q 40.53125 48.484375 33.40625 48.484375 
Q 26.265625 48.484375 22.1875 42.84375 
Q 18.109375 37.203125 18.109375 27.296875 
Q 18.109375 17.390625 22.1875 11.75 
Q 26.265625 6.109375 33.40625 6.109375 
Q 40.53125 6.109375 44.609375 11.75 
Q 48.6875 17.390625 48.6875 27.296875 
z
M 18.109375 46.390625 
Q 20.953125 51.265625 25.265625 53.625 
Q 29.59375 56 35.59375 56 
Q 45.5625 56 51.78125 48.09375 
Q 58.015625 40.1875 58.015625 27.296875 
Q 58.015625 14.40625 51.78125 6.484375 
Q 45.5625 -1.421875 35.59375 -1.421875 
Q 29.59375 -1.421875 25.265625 0.953125 
Q 20.953125 3.328125 18.109375 8.203125 
L 18.109375 0 
L 9.078125 0 
L 9.078125 75.984375 
L 18.109375 75.984375 
z
" id="DejaVuSans-62"/>
    </defs>
    <g transform="translate(74.3712 50.114612)scale(0.1666 -0.1666)">
     <use xlink:href="#DejaVuSans-62"/>
     <use x="63.476562" xlink:href="#DejaVuSans-62"/>
     <use x="126.953125" xlink:href="#DejaVuSans-6f"/>
     <use x="188.134766" xlink:href="#DejaVuSans-62"/>
    </g>
    <!-- Separable functions, 2-D -->
    <defs>
     <path d="M 53.515625 70.515625 
L 53.515625 60.890625 
Q 47.90625 63.578125 42.921875 64.890625 
Q 37.9375 66.21875 33.296875 66.21875 
Q 25.25 66.21875 20.875 63.09375 
Q 16.5 59.96875 16.5 54.203125 
Q 16.5 49.359375 19.40625 46.890625 
Q 22.3125 44.4375 30.421875 42.921875 
L 36.375 41.703125 
Q 47.40625 39.59375 52.65625 34.296875 
Q 57.90625 29 57.90625 20.125 
Q 57.90625 9.515625 50.796875 4.046875 
Q 43.703125 -1.421875 29.984375 -1.421875 
Q 24.8125 -1.421875 18.96875 -0.25 
Q 13.140625 0.921875 6.890625 3.21875 
L 6.890625 13.375 
Q 12.890625 10.015625 18.65625 8.296875 
Q 24.421875 6.59375 29.984375 6.59375 
Q 38.421875 6.59375 43.015625 9.90625 
Q 47.609375 13.234375 47.609375 19.390625 
Q 47.609375 24.75 44.3125 27.78125 
Q 41.015625 30.8125 33.5 32.328125 
L 27.484375 33.5 
Q 16.453125 35.6875 11.515625 40.375 
Q 6.59375 45.0625 6.59375 53.421875 
Q 6.59375 63.09375 13.40625 68.65625 
Q 20.21875 74.21875 32.171875 74.21875 
Q 37.3125 74.21875 42.625 73.28125 
Q 47.953125 72.359375 53.515625 70.515625 
z
" id="DejaVuSans-53"/>
     <path d="M 11.71875 12.40625 
L 22.015625 12.40625 
L 22.015625 4 
L 14.015625 -11.625 
L 7.71875 -11.625 
L 11.71875 4 
z
" id="DejaVuSans-2c"/>
     <path d="M 19.671875 64.796875 
L 19.671875 8.109375 
L 31.59375 8.109375 
Q 46.6875 8.109375 53.6875 14.9375 
Q 60.6875 21.78125 60.6875 36.53125 
Q 60.6875 51.171875 53.6875 57.984375 
Q 46.6875 64.796875 31.59375 64.796875 
z
M 9.8125 72.90625 
L 30.078125 72.90625 
Q 51.265625 72.90625 61.171875 64.09375 
Q 71.09375 55.28125 71.09375 36.53125 
Q 71.09375 17.671875 61.125 8.828125 
Q 51.171875 0 30.078125 0 
L 9.8125 0 
z
" id="DejaVuSans-44"/>
    </defs>
    <g transform="translate(74.3712 68.770168)scale(0.1666 -0.1666)">
     <use xlink:href="#DejaVuSans-53"/>
     <use x="63.476562" xlink:href="#DejaVuSans-65"/>
     <use x="125" xlink:href="#DejaVuSans-70"/>
     <use x="188.476562" xlink:href="#DejaVuSans-61"/>
     <use x="249.755859" xlink:href="#DejaVuSans-72"/>
     <use x="290.869141" xlink:href="#DejaVuSans-61"/>
     <use x="352.148438" xlink:href="#DejaVuSans-62"/>
     <use x="415.625" xlink:href="#DejaVuSans-6c"/>
     <use x="443.408203" xlink:href="#DejaVuSans-65"/>
     <use x="504.931641" xlink:href="#DejaVuSans-20"/>
     <use x="536.71875" xlink:href="#DejaVuSans-66"/>
     <use x="571.923828" xlink:href="#DejaVuSans-75"/>
     <use x="635.302734" xlink:href="#DejaVuSans-6e"/>
     <use x="698.681641" xlink:href="#DejaVuSans-63"/>
     <use x="753.662109" xlink:href="#DejaVuSans-74"/>
     <use x="792.871094" xlink:href="#DejaVuSans-69"/>
     <use x="820.654297" xlink:href="#DejaVuSans-6f"/>
     <use x="881.835938" xlink:href="#DejaVuSans-6e"/>
     <use x="945.214844" xlink:href="#DejaVuSans-73"/>
     <use x="997.314453" xlink:href="#DejaVuSans-2c"/>
     <use x="1029.101562" xlink:href="#DejaVuSans-20"/>
     <use x="1060.888672" xlink:href="#DejaVuSans-32"/>
     <use x="1124.511719" xlink:href="#DejaVuSans-2d"/>
     <use x="1160.595703" xlink:href="#DejaVuSans-44"/>
    </g>
    <!-- 51 targets in 100..1e-08 -->
    <g transform="translate(74.3712 87.425723)scale(0.1666 -0.1666)">
     <use xlink:href="#DejaVuSans-35"/>
     <use x="63.623047" xlink:href="#DejaVuSans-31"/>
     <use x="127.246094" xlink:href="#DejaVuSans-20"/>
     <use x="159.033203" xlink:href="#DejaVuSans-74"/>
     <use x="198.242188" xlink:href="#DejaVuSans-61"/>
     <use x="259.521484" xlink:href="#DejaVuSans-72"/>
     <use x="300.619141" xlink:href="#DejaVuSans-67"/>
     <use x="364.095703" xlink:href="#DejaVuSans-65"/>
     <use x="425.619141" xlink:href="#DejaVuSans-74"/>
     <use x="464.828125" xlink:href="#DejaVuSans-73"/>
     <use x="516.927734" xlink:href="#DejaVuSans-20"/>
     <use x="548.714844" xlink:href="#DejaVuSans-69"/>
     <use x="576.498047" xlink:href="#DejaVuSans-6e"/>
     <use x="639.876953" xlink:href="#DejaVuSans-20"/>
     <use x="671.664062" xlink:href="#DejaVuSans-31"/>
     <use x="735.287109" xlink:href="#DejaVuSans-30"/>
     <use x="798.910156" xlink:href="#DejaVuSans-30"/>
     <use x="862.533203" xlink:href="#DejaVuSans-2e"/>
     <use x="894.320312" xlink:href="#DejaVuSans-2e"/>
     <use x="926.107422" xlink:href="#DejaVuSans-31"/>
     <use x="989.730469" xlink:href="#DejaVuSans-65"/>
     <use x="1051.253906" xlink:href="#DejaVuSans-2d"/>
     <use x="1087.337891" xlink:href="#DejaVuSans-30"/>
     <use x="1150.960938" xlink:href="#DejaVuSans-38"/>
    </g>
    <!-- 15 instances -->
    <g transform="translate(74.3712 106.081279)scale(0.1666 -0.1666)">
     <use xlink:href="#DejaVuSans-31"/>
     <use x="63.623047" xlink:href="#DejaVuSans-35"/>
     <use x="127.246094" xlink:href="#DejaVuSans-20"/>
     <use x="159.033203" xlink:href="#DejaVuSans-69"/>
     <use x="186.816406" xlink:href="#DejaVuSans-6e"/>
     <use x="250.195312" xlink:href="#DejaVuSans-73"/>
     <use x="302.294922" xlink:href="#DejaVuSans-74"/>
     <use x="341.503906" xlink:href="#DejaVuSans-61"/>
     <use x="402.783203" xlink:href="#DejaVuSans-6e"/>
     <use x="466.162109" xlink:href="#DejaVuSans-63"/>
     <use x="521.142578" xlink:href="#DejaVuSans-65"/>
     <use x="582.666016" xlink:href="#DejaVuSans-73"/>
    </g>
   </g>
   <g id="text_20">
    <!-- v0.0.0 -->
    <g style="fill:#808080;" transform="translate(233.67875 293.504568)scale(0.1 -0.1)">
     <use xlink:href="#DejaVuSans-76"/>
     <use x="59.179688" xlink:href="#DejaVuSans-30"/>
     <use x="122.802734" xlink:href="#DejaVuSans-2e"/>
     <use x="154.589844" xlink:href="#DejaVuSans-30"/>
     <use x="218.212891" xlink:href="#DejaVuSans-2e"/>
     <use x="250" xlink:href="#DejaVuSans-30"/>
    </g>
   </g>
  </g>
 </g>
 <defs>
  <clipPath id="p63351e4960">
   <rect height="266.112" width="357.12" x="70.8" y="32.133375"/>
  </clipPath>
 </defs>
</svg>
