<?xml version="1.0" encoding="utf-8" standalone="no"?>
<!DOCTYPE svg PUBLIC "-//W3C//DTD SVG 1.1//EN"
  "http://www.w3.org/Graphics/SVG/1.1/DTD/svg11.dtd">
<!-- Created with matplotlib (http://matplotlib.org/) -->
<svg height="353pt" version="1.1" viewBox="0 0 439 353" width="439pt" xmlns="http://www.w3.org/2000/svg" xmlns:xlink="http://www.w3.org/1999/xlink">
 <defs>
  <style type="text/css">
*{stroke-linecap:butt;stroke-linejoin:round;}
  </style>
 </defs>
 <g id="figure_1">
  <g id="patch_1">
   <path d="M 0 353.22225 
L 439.489219 353.22225 
L 439.489219 0 
L 0 0 
z
" style="fill:#ffffff;"/>
  </g>
  <g id="axes_1">
   <g id="patch_2">
    <path d="M 70.8 298.245375 
L 427.92 298.245375 
L 427.92 32.133375 
L 70.8 32.133375 
z
" style="fill:#ffffff;"/>
   </g>
   <g id="matplotlib.axis_1">
    <g id="xtick_1">
     <g id="line2d_1">
      <path clip-path="url(#p8473655e2f)" d="M 70.8 298.245375 
L 70.8 32.133375 
" style="fill:none;stroke:#b0b0b0;stroke-linecap:square;stroke-width:0.8;"/>
     </g>
     <g id="line2d_2">
      <defs>
       <path d="M 0 0 
L 0 3.5 
" id="m3f40581a46" style="stroke:#000000;stroke-width:0.8;"/>
      </defs>
      <g>
       <use style="stroke:#000000;stroke-width:0.8;" x="70.8" xlink:href="#m3f40581a46" y="298.245375"/>
      </g>
     </g>
     <g id="text_1">
      <!-- 0 -->
      <defs>
       <path d="M 31.78125 66.40625 
Q 24.171875 66.40625 20.328125 58.90625 
Q 16.5 51.421875 16.5 36.375 
Q 16.5 21.390625 20.328125 13.890625 
Q 24.171875 6.390625 31.78125 6.390625 
Q 39.453125 6.390625 43.28125 13.890625 
Q 47.125 21.390625 47.125 36.375 
Q 47.125 51.421875 43.28125 58.90625 
Q 39.453125 66.40625 31.78125 66.40625 
z
M 31.78125 74.21875 
Q 44.046875 74.21875 50.515625 64.515625 
Q 56.984375 54.828125 56.984375 36.375 
Q 56.984375 17.96875 50.515625 8.265625 
Q 44.046875 -1.421875 31.78125 -1.421875 
Q 19.53125 -1.421875 13.0625 8.265625 
Q 6.59375 17.96875 6.59375 36.375 
Q 6.59375 54.828125 13.0625 64.515625 
Q 19.53125 74.21875 31.78125 74.21875 
z
" id="DejaVuSans-30"/>
      </defs>
      <g transform="translate(64.4375 320.44225)scale(0.2 -0.2)">
       <use xlink:href="#DejaVuSans-30"/>
      </g>
     </g>
    </g>
    <g id="xtick_2">
     <g id="line2d_3">
      <path clip-path="url(#p8473655e2f)" d="M 153.085714 298.245375 
L 153.085714 32.133375 
" style="fill:none;stroke:#b0b0b0;stroke-linecap:square;stroke-width:0.8;"/>
     </g>
     <g id="line2d_4">
      <g>
       <use style="stroke:#000000;stroke-width:0.8;" x="153.085714" xlink:href="#m3f40581a46" y="298.245375"/>
      </g>
     </g>
     <g id="text_2">
      <!-- 2 -->
      <defs>
       <path d="M 19.1875 8.296875 
L 53.609375 8.296875 
L 53.609375 0 
L 7.328125 0 
L 7.328125 8.296875 
Q 12.9375 14.109375 22.625 23.890625 
Q 32.328125 33.6875 34.8125 36.53125 
Q 39.546875 41.84375 41.421875 45.53125 
Q 43.3125 49.21875 43.3125 52.78125 
Q 43.3125 58.59375 39.234375 62.25 
Q 35.15625 65.921875 28.609375 65.921875 
Q 23.96875 65.921875 18.8125 64.3125 
Q 13.671875 62.703125 7.8125 59.421875 
L 7.8125 69.390625 
Q 13.765625 71.78125 18.9375 73 
Q 24.125 74.21875 28.421875 74.21875 
Q 39.75 74.21875 46.484375 68.546875 
Q 53.21875 62.890625 53.21875 53.421875 
Q 53.21875 48.921875 51.53125 44.890625 
Q 49.859375 40.875 45.40625 35.40625 
Q 44.1875 33.984375 37.640625 27.21875 
Q 31.109375 20.453125 19.1875 8.296875 
z
" id="DejaVuSans-32"/>
      </defs>
      <g transform="translate(146.723214 320.44225)scale(0.2 -0.2)">
       <use xlink:href="#DejaVuSans-32"/>
      </g>
     </g>
    </g>
    <g id="xtick_3">
     <g id="line2d_5">
      <path clip-path="url(#p8473655e2f)" d="M 235.371429 298.245375 
L 235.371429 32.133375 
" style="fill:none;stroke:#b0b0b0;stroke-linecap:square;stroke-width:0.8;"/>
     </g>
     <g id="line2d_6">
      <g>
       <use style="stroke:#000000;stroke-width:0.8;" x="235.371429" xlink:href="#m3f40581a46" y="298.245375"/>
      </g>
     </g>
     <g id="text_3">
      <!-- 4 -->
      <defs>
       <path d="M 37.796875 64.3125 
L 12.890625 25.390625 
L 37.796875 25.390625 
z
M 35.203125 72.90625 
L 47.609375 72.90625 
L 47.609375 25.390625 
L 58.015625 25.390625 
L 58.015625 17.1875 
L 47.609375 17.1875 
L 47.609375 0 
L 37.796875 0 
L 37.796875 17.1875 
L 4.890625 17.1875 
L 4.890625 26.703125 
z
" id="DejaVuSans-34"/>
      </defs>
      <g transform="translate(229.008929 320.44225)scale(0.2 -0.2)">
       <use xlink:href="#DejaVuSans-34"/>
      </g>
     </g>
    </g>
    <g id="xtick_4">
     <g id="line2d_7">
      <path clip-path="url(#p8473655e2f)" d="M 317.657143 298.245375 
L 317.657143 32.133375 
" style="fill:none;stroke:#b0b0b0;stroke-linecap:square;stroke-width:0.8;"/>
     </g>
     <g id="line2d_8">
      <g>
       <use style="stroke:#000000;stroke-width:0.8;" x="317.657143" xlink:href="#m3f40581a46" y="298.245375"/>
      </g>
     </g>
     <g id="text_4">
      <!-- 6 -->
      <defs>
       <path d="M 33.015625 40.375 
Q 26.375 40.375 22.484375 35.828125 
Q 18.609375 31.296875 18.609375 23.390625 
Q 18.609375 15.53125 22.484375 10.953125 
Q 26.375 6.390625 33.015625 6.390625 
Q 39.65625 6.390625 43.53125 10.953125 
Q 47.40625 15.53125 47.40625 23.390625 
Q 47.40625 31.296875 43.53125 35.828125 
Q 39.65625 40.375 33.015625 40.375 
z
M 52.59375 71.296875 
L 52.59375 62.3125 
Q 48.875 64.0625 45.09375 64.984375 
Q 41.3125 65.921875 37.59375 65.921875 
Q 27.828125 65.921875 22.671875 59.328125 
Q 17.53125 52.734375 16.796875 39.40625 
Q 19.671875 43.65625 24.015625 45.921875 
Q 28.375 48.1875 33.59375 48.1875 
Q 44.578125 48.1875 50.953125 41.515625 
Q 57.328125 34.859375 57.328125 23.390625 
Q 57.328125 12.15625 50.6875 5.359375 
Q 44.046875 -1.421875 33.015625 -1.421875 
Q 20.359375 -1.421875 13.671875 8.265625 
Q 6.984375 17.96875 6.984375 36.375 
Q 6.984375 53.65625 15.1875 63.9375 
Q 23.390625 74.21875 37.203125 74.21875 
Q 40.921875 74.21875 44.703125 73.484375 
Q 48.484375 72.75 52.59375 71.296875 
z
" id="DejaVuSans-36"/>
      </defs>
      <g transform="translate(311.294643 320.44225)scale(0.2 -0.2)">
       <use xlink:href="#DejaVuSans-36"/>
      </g>
     </g>
    </g>
    <g id="xtick_5">
     <g id="line2d_9">
      <path clip-path="url(#p8473655e2f)" d="M 399.942857 298.245375 
L 399.942857 32.133375 
" style="fill:none;stroke:#b0b0b0;stroke-linecap:square;stroke-width:0.8;"/>
     </g>
     <g id="line2d_10">
      <g>
       <use style="stroke:#000000;stroke-width:0.8;" x="399.942857" xlink:href="#m3f40581a46" y="298.245375"/>
      </g>
     </g>
     <g id="text_5">
      <!-- 8 -->
      <defs>
       <path d="M 31.78125 34.625 
Q 24.75 34.625 20.71875 30.859375 
Q 16.703125 27.09375 16.703125 20.515625 
Q 16.703125 13.921875 20.71875 10.15625 
Q 24.75 6.390625 31.78125 6.390625 
Q 38.8125 6.390625 42.859375 10.171875 
Q 46.921875 13.96875 46.921875 20.515625 
Q 46.921875 27.09375 42.890625 30.859375 
Q 38.875 34.625 31.78125 34.625 
z
M 21.921875 38.8125 
Q 15.578125 40.375 12.03125 44.71875 
Q 8.5 49.078125 8.5 55.328125 
Q 8.5 64.0625 14.71875 69.140625 
Q 20.953125 74.21875 31.78125 74.21875 
Q 42.671875 74.21875 48.875 69.140625 
Q 55.078125 64.0625 55.078125 55.328125 
Q 55.078125 49.078125 51.53125 44.71875 
Q 48 40.375 41.703125 38.8125 
Q 48.828125 37.15625 52.796875 32.3125 
Q 56.78125 27.484375 56.78125 20.515625 
Q 56.78125 9.90625 50.3125 4.234375 
Q 43.84375 -1.421875 31.78125 -1.421875 
Q 19.734375 -1.421875 13.25 4.234375 
Q 6.78125 9.90625 6.78125 20.515625 
Q 6.78125 27.484375 10.78125 32.3125 
Q 14.796875 37.15625 21.921875 38.8125 
z
M 18.3125 54.390625 
Q 18.3125 48.734375 21.84375 45.5625 
Q 25.390625 42.390625 31.78125 42.390625 
Q 38.140625 42.390625 41.71875 45.5625 
Q 45.3125 48.734375 45.3125 54.390625 
Q 45.3125 60.0625 41.71875 63.234375 
Q 38.140625 66.40625 31.78125 66.40625 
Q 25.390625 66.40625 21.84375 63.234375 
Q 18.3125 60.0625 18.3125 54.390625 
z
" id="DejaVuSans-38"/>
      </defs>
      <g transform="translate(393.580357 320.44225)scale(0.2 -0.2)">
       <use xlink:href="#DejaVuSans-38"/>
      </g>
     </g>
    </g>
    <g id="text_6">
     <!-- log10 of (# f-evals / dimension) -->
     <defs>
      <path d="M 9.421875 75.984375 
L 18.40625 75.984375 
L 18.40625 0 
L 9.421875 0 
z
" id="DejaVuSans-6c"/>
      <path d="M 30.609375 48.390625 
Q 23.390625 48.390625 19.1875 42.75 
Q 14.984375 37.109375 14.984375 27.296875 
Q 14.984375 17.484375 19.15625 11.84375 
Q 23.34375 6.203125 30.609375 6.203125 
Q 37.796875 6.203125 41.984375 11.859375 
Q 46.1875 17.53125 46.1875 27.296875 
Q 46.1875 37.015625 41.984375 42.703125 
Q 37.796875 48.390625 30.609375 48.390625 
z
M 30.609375 56 
Q 42.328125 56 49.015625 48.375 
Q 55.71875 40.765625 55.71875 27.296875 
Q 55.71875 13.875 49.015625 6.21875 
Q 42.328125 -1.421875 30.609375 -1.421875 
Q 18.84375 -1.421875 12.171875 6.21875 
Q 5.515625 13.875 5.515625 27.296875 
Q 5.515625 40.765625 12.171875 48.375 
Q 18.84375 56 30.609375 56 
z
" id="DejaVuSans-6f"/>
      <path d="M 45.40625 27.984375 
Q 45.40625 37.75 41.375 43.109375 
Q 37.359375 48.484375 30.078125 48.484375 
Q 22.859375 48.484375 18.828125 43.109375 
Q 14.796875 37.75 14.796875 27.984375 
Q 14.796875 18.265625 18.828125 12.890625 
Q 22.859375 7.515625 30.078125 7.515625 
Q 37.359375 7.515625 41.375 12.890625 
Q 45.40625 18.265625 45.40625 27.984375 
z
M 54.390625 6.78125 
Q 54.390625 -7.171875 48.1875 -13.984375 
Q 42 -20.796875 29.203125 -20.796875 
Q 24.46875 -20.796875 20.265625 -20.09375 
Q 16.0625 -19.390625 12.109375 -17.921875 
L 12.109375 -9.1875 
Q 16.0625 -11.328125 19.921875 -12.34375 
Q 23.78125 -13.375 27.78125 -13.375 
Q 36.625 -13.375 41.015625 -8.765625 
Q 45.40625 -4.15625 45.40625 5.171875 
L 45.40625 9.625 
Q 42.625 4.78125 38.28125 2.390625 
Q 33.9375 0 27.875 0 
Q 17.828125 0 11.671875 7.65625 
Q 5.515625 15.328125 5.515625 27.984375 
Q 5.515625 40.671875 11.671875 48.328125 
Q 17.828125 56 27.875 56 
Q 33.9375 56 38.28125 53.609375 
Q 42.625 51.21875 45.40625 46.390625 
L 45.40625 54.6875 
L 54.390625 54.6875 
z
" id="DejaVuSans-67"/>
      <path d="M 12.40625 8.296875 
L 28.515625 8.296875 
L 28.515625 63.921875 
L 10.984375 60.40625 
L 10.984375 69.390625 
L 28.421875 72.90625 
L 38.28125 72.90625 
L 38.28125 8.296875 
L 54.390625 8.296875 
L 54.390625 0 
L 12.40625 0 
z
" id="DejaVuSans-31"/>
      <path id="DejaVuSans-20"/>
      <path d="M 37.109375 75.984375 
L 37.109375 68.5 
L 28.515625 68.5 
Q 23.6875 68.5 21.796875 66.546875 
Q 19.921875 64.59375 19.921875 59.515625 
L 19.921875 54.6875 
L 34.71875 54.6875 
L 34.71875 47.703125 
L 19.921875 47.703125 
L 19.921875 0 
L 10.890625 0 
L 10.890625 47.703125 
L 2.296875 47.703125 
L 2.296875 54.6875 
L 10.890625 54.6875 
L 10.890625 58.5 
Q 10.890625 67.625 15.140625 71.796875 
Q 19.390625 75.984375 28.609375 75.984375 
z
" id="DejaVuSans-66"/>
      <path d="M 31 75.875 
Q 24.46875 64.65625 21.28125 53.65625 
Q 18.109375 42.671875 18.109375 31.390625 
Q 18.109375 20.125 21.3125 9.0625 
Q 24.515625 -2 31 -13.1875 
L 23.1875 -13.1875 
Q 15.875 -1.703125 12.234375 9.375 
Q 8.59375 20.453125 8.59375 31.390625 
Q 8.59375 42.28125 12.203125 53.3125 
Q 15.828125 64.359375 23.1875 75.875 
z
" id="DejaVuSans-28"/>
      <path d="M 51.125 44 
L 36.921875 44 
L 32.8125 27.6875 
L 47.125 27.6875 
z
M 43.796875 71.78125 
L 38.71875 51.515625 
L 52.984375 51.515625 
L 58.109375 71.78125 
L 65.921875 71.78125 
L 60.890625 51.515625 
L 76.125 51.515625 
L 76.125 44 
L 58.984375 44 
L 54.984375 27.6875 
L 70.515625 27.6875 
L 70.515625 20.21875 
L 53.078125 20.21875 
L 48 0 
L 40.1875 0 
L 45.21875 20.21875 
L 30.90625 20.21875 
L 25.875 0 
L 18.015625 0 
L 23.09375 20.21875 
L 7.71875 20.21875 
L 7.71875 27.6875 
L 24.90625 27.6875 
L 29 44 
L 13.28125 44 
L 13.28125 51.515625 
L 30.90625 51.515625 
L 35.890625 71.78125 
z
" id="DejaVuSans-23"/>
      <path d="M 4.890625 31.390625 
L 31.203125 31.390625 
L 31.203125 23.390625 
L 4.890625 23.390625 
z
" id="DejaVuSans-2d"/>
      <path d="M 56.203125 29.59375 
L 56.203125 25.203125 
L 14.890625 25.203125 
Q 15.484375 15.921875 20.484375 11.0625 
Q 25.484375 6.203125 34.421875 6.203125 
Q 39.59375 6.203125 44.453125 7.46875 
Q 49.3125 8.734375 54.109375 11.28125 
L 54.109375 2.78125 
Q 49.265625 0.734375 44.1875 -0.34375 
Q 39.109375 -1.421875 33.890625 -1.421875 
Q 20.796875 -1.421875 13.15625 6.1875 
Q 5.515625 13.8125 5.515625 26.8125 
Q 5.515625 40.234375 12.765625 48.109375 
Q 20.015625 56 32.328125 56 
Q 43.359375 56 49.78125 48.890625 
Q 56.203125 41.796875 56.203125 29.59375 
z
M 47.21875 32.234375 
Q 47.125 39.59375 43.09375 43.984375 
Q 39.0625 48.390625 32.421875 48.390625 
Q 24.90625 48.390625 20.390625 44.140625 
Q 15.875 39.890625 15.1875 32.171875 
z
" id="DejaVuSans-65"/>
      <path d="M 2.984375 54.6875 
L 12.5 54.6875 
L 29.59375 8.796875 
L 46.6875 54.6875 
L 56.203125 54.6875 
L 35.6875 0 
L 23.484375 0 
z
" id="DejaVuSans-76"/>
      <path d="M 34.28125 27.484375 
Q 23.390625 27.484375 19.1875 25 
Q 14.984375 22.515625 14.984375 16.5 
Q 14.984375 11.71875 18.140625 8.90625 
Q 21.296875 6.109375 26.703125 6.109375 
Q 34.1875 6.109375 38.703125 11.40625 
Q 43.21875 16.703125 43.21875 25.484375 
L 43.21875 27.484375 
z
M 52.203125 31.203125 
L 52.203125 0 
L 43.21875 0 
L 43.21875 8.296875 
Q 40.140625 3.328125 35.546875 0.953125 
Q 30.953125 -1.421875 24.3125 -1.421875 
Q 15.921875 -1.421875 10.953125 3.296875 
Q 6 8.015625 6 15.921875 
Q 6 25.140625 12.171875 29.828125 
Q 18.359375 34.515625 30.609375 34.515625 
L 43.21875 34.515625 
L 43.21875 35.40625 
Q 43.21875 41.609375 39.140625 45 
Q 35.0625 48.390625 27.6875 48.390625 
Q 23 48.390625 18.546875 47.265625 
Q 14.109375 46.140625 10.015625 43.890625 
L 10.015625 52.203125 
Q 14.9375 54.109375 19.578125 55.046875 
Q 24.21875 56 28.609375 56 
Q 40.484375 56 46.34375 49.84375 
Q 52.203125 43.703125 52.203125 31.203125 
z
" id="DejaVuSans-61"/>
      <path d="M 44.28125 53.078125 
L 44.28125 44.578125 
Q 40.484375 46.53125 36.375 47.5 
Q 32.28125 48.484375 27.875 48.484375 
Q 21.1875 48.484375 17.84375 46.4375 
Q 14.5 44.390625 14.5 40.28125 
Q 14.5 37.15625 16.890625 35.375 
Q 19.28125 33.59375 26.515625 31.984375 
L 29.59375 31.296875 
Q 39.15625 29.25 43.1875 25.515625 
Q 47.21875 21.78125 47.21875 15.09375 
Q 47.21875 7.46875 41.1875 3.015625 
Q 35.15625 -1.421875 24.609375 -1.421875 
Q 20.21875 -1.421875 15.453125 -0.5625 
Q 10.6875 0.296875 5.421875 2 
L 5.421875 11.28125 
Q 10.40625 8.6875 15.234375 7.390625 
Q 20.0625 6.109375 24.8125 6.109375 
Q 31.15625 6.109375 34.5625 8.28125 
Q 37.984375 10.453125 37.984375 14.40625 
Q 37.984375 18.0625 35.515625 20.015625 
Q 33.0625 21.96875 24.703125 23.78125 
L 21.578125 24.515625 
Q 13.234375 26.265625 9.515625 29.90625 
Q 5.8125 33.546875 5.8125 39.890625 
Q 5.8125 47.609375 11.28125 51.796875 
Q 16.75 56 26.8125 56 
Q 31.78125 56 36.171875 55.265625 
Q 40.578125 54.546875 44.28125 53.078125 
z
" id="DejaVuSans-73"/>
      <path d="M 25.390625 72.90625 
L 33.6875 72.90625 
L 8.296875 -9.28125 
L 0 -9.28125 
z
" id="DejaVuSans-2f"/>
      <path d="M 45.40625 46.390625 
L 45.40625 75.984375 
L 54.390625 75.984375 
L 54.390625 0 
L 45.40625 0 
L 45.40625 8.203125 
Q 42.578125 3.328125 38.25 0.953125 
Q 33.9375 -1.421875 27.875 -1.421875 
Q 17.96875 -1.421875 11.734375 6.484375 
Q 5.515625 14.40625 5.515625 27.296875 
Q 5.515625 40.1875 11.734375 48.09375 
Q 17.96875 56 27.875 56 
Q 33.9375 56 38.25 53.625 
Q 42.578125 51.265625 45.40625 46.390625 
z
M 14.796875 27.296875 
Q 14.796875 17.390625 18.875 11.75 
Q 22.953125 6.109375 30.078125 6.109375 
Q 37.203125 6.109375 41.296875 11.75 
Q 45.40625 17.390625 45.40625 27.296875 
Q 45.40625 37.203125 41.296875 42.84375 
Q 37.203125 48.484375 30.078125 48.484375 
Q 22.953125 48.484375 18.875 42.84375 
Q 14.796875 37.203125 14.796875 27.296875 
z
" id="DejaVuSans-64"/>
      <path d="M 9.421875 54.6875 
L 18.40625 54.6875 
L 18.40625 0 
L 9.421875 0 
z
M 9.421875 75.984375 
L 18.40625 75.984375 
L 18.40625 64.59375 
L 9.421875 64.59375 
z
" id="DejaVuSans-69"/>
      <path d="M 52 44.1875 
Q 55.375 50.25 60.0625 53.125 
Q 64.75 56 71.09375 56 
Q 79.640625 56 84.28125 50.015625 
Q 88.921875 44.046875 88.921875 33.015625 
L 88.921875 0 
L 79.890625 0 
L 79.890625 32.71875 
Q 79.890625 40.578125 77.09375 44.375 
Q 74.3125 48.1875 68.609375 48.1875 
Q 61.625 48.1875 57.5625 43.546875 
Q 53.515625 38.921875 53.515625 30.90625 
L 53.515625 0 
L 44.484375 0 
L 44.484375 32.71875 
Q 44.484375 40.625 41.703125 44.40625 
Q 38.921875 48.1875 33.109375 48.1875 
Q 26.21875 48.1875 22.15625 43.53125 
Q 18.109375 38.875 18.109375 30.90625 
L 18.109375 0 
L 9.078125 0 
L 9.078125 54.6875 
L 18.109375 54.6875 
L 18.109375 46.1875 
Q 21.1875 51.21875 25.484375 53.609375 
Q 29.78125 56 35.6875 56 
Q 41.65625 56 45.828125 52.96875 
Q 50 49.953125 52 44.1875 
z
" id="DejaVuSans-6d"/>
      <path d="M 54.890625 33.015625 
L 54.890625 0 
L 45.90625 0 
L 45.90625 32.71875 
Q 45.90625 40.484375 42.875 44.328125 
Q 39.84375 48.1875 33.796875 48.1875 
Q 26.515625 48.1875 22.3125 43.546875 
Q 18.109375 38.921875 18.109375 30.90625 
L 18.109375 0 
L 9.078125 0 
L 9.078125 54.6875 
L 18.109375 54.6875 
L 18.109375 46.1875 
Q 21.34375 51.125 25.703125 53.5625 
Q 30.078125 56 35.796875 56 
Q 45.21875 56 50.046875 50.171875 
Q 54.890625 44.34375 54.890625 33.015625 
z
" id="DejaVuSans-6e"/>
      <path d="M 8.015625 75.875 
L 15.828125 75.875 
Q 23.140625 64.359375 26.78125 53.3125 
Q 30.421875 42.28125 30.421875 31.390625 
Q 30.421875 20.453125 26.78125 9.375 
Q 23.140625 -1.703125 15.828125 -13.1875 
L 8.015625 -13.1875 
Q 14.5 -2 17.703125 9.0625 
Q 20.90625 20.125 20.90625 31.390625 
Q 20.90625 42.671875 17.703125 53.65625 
Q 14.5 64.65625 8.015625 75.875 
z
" id="DejaVuSans-29"/>
     </defs>
     <g transform="translate(107.015156 342.278812)scale(0.18 -0.18)">
      <use xlink:href="#DejaVuSans-6c"/>
      <use x="27.783203" xlink:href="#DejaVuSans-6f"/>
      <use x="88.964844" xlink:href="#DejaVuSans-67"/>
      <use x="152.441406" xlink:href="#DejaVuSans-31"/>
      <use x="216.064453" xlink:href="#DejaVuSans-30"/>
      <use x="279.6875" xlink:href="#DejaVuSans-20"/>
      <use x="311.474609" xlink:href="#DejaVuSans-6f"/>
      <use x="372.65625" xlink:href="#DejaVuSans-66"/>
      <use x="407.861328" xlink:href="#DejaVuSans-20"/>
      <use x="439.648438" xlink:href="#DejaVuSans-28"/>
      <use x="478.662109" xlink:href="#DejaVuSans-23"/>
      <use x="562.451172" xlink:href="#DejaVuSans-20"/>
      <use x="594.238281" xlink:href="#DejaVuSans-66"/>
      <use x="629.365234" xlink:href="#DejaVuSans-2d"/>
      <use x="665.449219" xlink:href="#DejaVuSans-65"/>
      <use x="726.972656" xlink:href="#DejaVuSans-76"/>
      <use x="786.152344" xlink:href="#DejaVuSans-61"/>
      <use x="847.431641" xlink:href="#DejaVuSans-6c"/>
      <use x="875.214844" xlink:href="#DejaVuSans-73"/>
      <use x="927.314453" xlink:href="#DejaVuSans-20"/>
      <use x="959.101562" xlink:href="#DejaVuSans-2f"/>
      <use x="992.792969" xlink:href="#DejaVuSans-20"/>
      <use x="1024.580078" xlink:href="#DejaVuSans-64"/>
      <use x="1088.056641" xlink:href="#DejaVuSans-69"/>
      <use x="1115.839844" xlink:href="#DejaVuSans-6d"/>
      <use x="1213.251953" xlink:href="#DejaVuSans-65"/>
      <use x="1274.775391" xlink:href="#DejaVuSans-6e"/>
      <use x="1338.154297" xlink:href="#DejaVuSans-73"/>
      <use x="1390.253906" xlink:href="#DejaVuSans-69"/>
      <use x="1418.037109" xlink:href="#DejaVuSans-6f"/>
      <use x="1479.21875" xlink:href="#DejaVuSans-6e"/>
      <use x="1542.597656" xlink:href="#DejaVuSans-29"/>
     </g>
    </g>
   </g>
   <g id="matplotlib.axis_2">
    <g id="ytick_1">
     <g id="line2d_11">
      <path clip-path="url(#p8473655e2f)" d="M 70.8 298.245375 
L 427.92 298.245375 
" style="fill:none;stroke:#b0b0b0;stroke-linecap:square;stroke-width:0.8;"/>
     </g>
     <g id="line2d_12">
      <defs>
       <path d="M 0 0 
L -3.5 0 
" id="maff5e44d33" style="stroke:#000000;stroke-width:0.8;"/>
      </defs>
      <g>
       <use style="stroke:#000000;stroke-width:0.8;" x="70.8" xlink:href="#maff5e44d33" y="298.245375"/>
      </g>
     </g>
     <g id="text_7">
      <!-- 0.0 -->
      <defs>
       <path d="M 10.6875 12.40625 
L 21 12.40625 
L 21 0 
L 10.6875 0 
z
" id="DejaVuSans-2e"/>
      </defs>
      <g transform="translate(31.99375 305.843812)scale(0.2 -0.2)">
       <use xlink:href="#DejaVuSans-30"/>
       <use x="63.623047" xlink:href="#DejaVuSans-2e"/>
       <use x="95.410156" xlink:href="#DejaVuSans-30"/>
      </g>
     </g>
    </g>
    <g id="ytick_2">
     <g id="line2d_13">
      <path clip-path="url(#p8473655e2f)" d="M 70.8 245.549929 
L 427.92 245.549929 
" style="fill:none;stroke:#b0b0b0;stroke-linecap:square;stroke-width:0.8;"/>
     </g>
     <g id="line2d_14">
      <g>
       <use style="stroke:#000000;stroke-width:0.8;" x="70.8" xlink:href="#maff5e44d33" y="245.549929"/>
      </g>
     </g>
     <g id="text_8">
      <!-- 0.2 -->
      <g transform="translate(31.99375 253.148367)scale(0.2 -0.2)">
       <use xlink:href="#DejaVuSans-30"/>
       <use x="63.623047" xlink:href="#DejaVuSans-2e"/>
       <use x="95.410156" xlink:href="#DejaVuSans-32"/>
      </g>
     </g>
    </g>
    <g id="ytick_3">
     <g id="line2d_15">
      <path clip-path="url(#p8473655e2f)" d="M 70.8 192.854484 
L 427.92 192.854484 
" style="fill:none;stroke:#b0b0b0;stroke-linecap:square;stroke-width:0.8;"/>
     </g>
     <g id="line2d_16">
      <g>
       <use style="stroke:#000000;stroke-width:0.8;" x="70.8" xlink:href="#maff5e44d33" y="192.854484"/>
      </g>
     </g>
     <g id="text_9">
      <!-- 0.4 -->
      <g transform="translate(31.99375 200.452921)scale(0.2 -0.2)">
       <use xlink:href="#DejaVuSans-30"/>
       <use x="63.623047" xlink:href="#DejaVuSans-2e"/>
       <use x="95.410156" xlink:href="#DejaVuSans-34"/>
      </g>
     </g>
    </g>
    <g id="ytick_4">
     <g id="line2d_17">
      <path clip-path="url(#p8473655e2f)" d="M 70.8 140.159038 
L 427.92 140.159038 
" style="fill:none;stroke:#b0b0b0;stroke-linecap:square;stroke-width:0.8;"/>
     </g>
     <g id="line2d_18">
      <g>
       <use style="stroke:#000000;stroke-width:0.8;" x="70.8" xlink:href="#maff5e44d33" y="140.159038"/>
      </g>
     </g>
     <g id="text_10">
      <!-- 0.6 -->
      <g transform="translate(31.99375 147.757476)scale(0.2 -0.2)">
       <use xlink:href="#DejaVuSans-30"/>
       <use x="63.623047" xlink:href="#DejaVuSans-2e"/>
       <use x="95.410156" xlink:href="#DejaVuSans-36"/>
      </g>
     </g>
    </g>
    <g id="ytick_5">
     <g id="line2d_19">
      <path clip-path="url(#p8473655e2f)" d="M 70.8 87.463593 
L 427.92 87.463593 
" style="fill:none;stroke:#b0b0b0;stroke-linecap:square;stroke-width:0.8;"/>
     </g>
     <g id="line2d_20">
      <g>
       <use style="stroke:#000000;stroke-width:0.8;" x="70.8" xlink:href="#maff5e44d33" y="87.463593"/>
      </g>
     </g>
     <g id="text_11">
      <!-- 0.8 -->
      <g transform="translate(31.99375 95.06203)scale(0.2 -0.2)">
       <use xlink:href="#DejaVuSans-30"/>
       <use x="63.623047" xlink:href="#DejaVuSans-2e"/>
       <use x="95.410156" xlink:href="#DejaVuSans-38"/>
      </g>
     </g>
    </g>
    <g id="ytick_6">
     <g id="line2d_21">
      <path clip-path="url(#p8473655e2f)" d="M 70.8 34.768147 
L 427.92 34.768147 
" style="fill:none;stroke:#b0b0b0;stroke-linecap:square;stroke-width:0.8;"/>
     </g>
     <g id="line2d_22">
      <g>
       <use style="stroke:#000000;stroke-width:0.8;" x="70.8" xlink:href="#maff5e44d33" y="34.768147"/>
      </g>
     </g>
     <g id="text_12">
      <!-- 1.0 -->
      <g transform="translate(31.99375 42.366585)scale(0.2 -0.2)">
       <use xlink:href="#DejaVuSans-31"/>
       <use x="63.623047" xlink:href="#DejaVuSans-2e"/>
       <use x="95.410156" xlink:href="#DejaVuSans-30"/>
      </g>
     </g>
    </g>
    <g id="text_13">
     <!-- Proportion of function+target pairs -->
     <defs>
      <path d="M 19.671875 64.796875 
L 19.671875 37.40625 
L 32.078125 37.40625 
Q 38.96875 37.40625 42.71875 40.96875 
Q 46.484375 44.53125 46.484375 51.125 
Q 46.484375 57.671875 42.71875 61.234375 
Q 38.96875 64.796875 32.078125 64.796875 
z
M 9.8125 72.90625 
L 32.078125 72.90625 
Q 44.34375 72.90625 50.609375 67.359375 
Q 56.890625 61.8125 56.890625 51.125 
Q 56.890625 40.328125 50.609375 34.8125 
Q 44.34375 29.296875 32.078125 29.296875 
L 19.671875 29.296875 
L 19.671875 0 
L 9.8125 0 
z
" id="DejaVuSans-50"/>
      <path d="M 41.109375 46.296875 
Q 39.59375 47.171875 37.8125 47.578125 
Q 36.03125 48 33.890625 48 
Q 26.265625 48 22.1875 43.046875 
Q 18.109375 38.09375 18.109375 28.8125 
L 18.109375 0 
L 9.078125 0 
L 9.078125 54.6875 
L 18.109375 54.6875 
L 18.109375 46.1875 
Q 20.953125 51.171875 25.484375 53.578125 
Q 30.03125 56 36.53125 56 
Q 37.453125 56 38.578125 55.875 
Q 39.703125 55.765625 41.0625 55.515625 
z
" id="DejaVuSans-72"/>
      <path d="M 18.109375 8.203125 
L 18.109375 -20.796875 
L 9.078125 -20.796875 
L 9.078125 54.6875 
L 18.109375 54.6875 
L 18.109375 46.390625 
Q 20.953125 51.265625 25.265625 53.625 
Q 29.59375 56 35.59375 56 
Q 45.5625 56 51.78125 48.09375 
Q 58.015625 40.1875 58.015625 27.296875 
Q 58.015625 14.40625 51.78125 6.484375 
Q 45.5625 -1.421875 35.59375 -1.421875 
Q 29.59375 -1.421875 25.265625 0.953125 
Q 20.953125 3.328125 18.109375 8.203125 
z
M 48.6875 27.296875 
Q 48.6875 37.203125 44.609375 42.84375 
Q 40.53125 48.484375 33.40625 48.484375 
Q 26.265625 48.484375 22.1875 42.84375 
Q 18.109375 37.203125 18.109375 27.296875 
Q 18.109375 17.390625 22.1875 11.75 
Q 26.265625 6.109375 33.40625 6.109375 
Q 40.53125 6.109375 44.609375 11.75 
Q 48.6875 17.390625 48.6875 27.296875 
z
" id="DejaVuSans-70"/>
      <path d="M 18.3125 70.21875 
L 18.3125 54.6875 
L 36.8125 54.6875 
L 36.8125 47.703125 
L 18.3125 47.703125 
L 18.3125 18.015625 
Q 18.3125 11.328125 20.140625 9.421875 
Q 21.96875 7.515625 27.59375 7.515625 
L 36.8125 7.515625 
L 36.8125 0 
L 27.59375 0 
Q 17.1875 0 13.234375 3.875 
Q 9.28125 7.765625 9.28125 18.015625 
L 9.28125 47.703125 
L 2.6875 47.703125 
L 2.6875 54.6875 
L 9.28125 54.6875 
L 9.28125 70.21875 
z
" id="DejaVuSans-74"/>
      <path d="M 8.5 21.578125 
L 8.5 54.6875 
L 17.484375 54.6875 
L 17.484375 21.921875 
Q 17.484375 14.15625 20.5 10.265625 
Q 23.53125 6.390625 29.59375 6.390625 
Q 36.859375 6.390625 41.078125 11.03125 
Q 45.3125 15.671875 45.3125 23.6875 
L 45.3125 54.6875 
L 54.296875 54.6875 
L 54.296875 0 
L 45.3125 0 
L 45.3125 8.40625 
Q 42.046875 3.421875 37.71875 1 
Q 33.40625 -1.421875 27.6875 -1.421875 
Q 18.265625 -1.421875 13.375 4.4375 
Q 8.5 10.296875 8.5 21.578125 
z
M 31.109375 56 
z
" id="DejaVuSans-75"/>
      <path d="M 48.78125 52.59375 
L 48.78125 44.1875 
Q 44.96875 46.296875 41.140625 47.34375 
Q 37.3125 48.390625 33.40625 48.390625 
Q 24.65625 48.390625 19.8125 42.84375 
Q 14.984375 37.3125 14.984375 27.296875 
Q 14.984375 17.28125 19.8125 11.734375 
Q 24.65625 6.203125 33.40625 6.203125 
Q 37.3125 6.203125 41.140625 7.25 
Q 44.96875 8.296875 48.78125 10.40625 
L 48.78125 2.09375 
Q 45.015625 0.34375 40.984375 -0.53125 
Q 36.96875 -1.421875 32.421875 -1.421875 
Q 20.0625 -1.421875 12.78125 6.34375 
Q 5.515625 14.109375 5.515625 27.296875 
Q 5.515625 40.671875 12.859375 48.328125 
Q 20.21875 56 33.015625 56 
Q 37.15625 56 41.109375 55.140625 
Q 45.0625 54.296875 48.78125 52.59375 
z
" id="DejaVuSans-63"/>
      <path d="M 46 62.703125 
L 46 35.5 
L 73.1875 35.5 
L 73.1875 27.203125 
L 46 27.203125 
L 46 0 
L 37.796875 0 
L 37.796875 27.203125 
L 10.59375 27.203125 
L 10.59375 35.5 
L 37.796875 35.5 
L 37.796875 62.703125 
z
" id="DejaVuSans-2b"/>
     </defs>
     <g transform="translate(24.250312 323.17875)rotate(-90)scale(0.18 -0.18)">
      <use xlink:href="#DejaVuSans-50"/>
      <use x="60.287109" xlink:href="#DejaVuSans-72"/>
      <use x="101.369141" xlink:href="#DejaVuSans-6f"/>
      <use x="162.550781" xlink:href="#DejaVuSans-70"/>
      <use x="226.027344" xlink:href="#DejaVuSans-6f"/>
      <use x="287.208984" xlink:href="#DejaVuSans-72"/>
      <use x="328.322266" xlink:href="#DejaVuSans-74"/>
      <use x="367.53125" xlink:href="#DejaVuSans-69"/>
      <use x="395.314453" xlink:href="#DejaVuSans-6f"/>
      <use x="456.496094" xlink:href="#DejaVuSans-6e"/>
      <use x="519.875" xlink:href="#DejaVuSans-20"/>
      <use x="551.662109" xlink:href="#DejaVuSans-6f"/>
      <use x="612.84375" xlink:href="#DejaVuSans-66"/>
      <use x="648.048828" xlink:href="#DejaVuSans-20"/>
      <use x="679.835938" xlink:href="#DejaVuSans-66"/>
      <use x="715.041016" xlink:href="#DejaVuSans-75"/>
      <use x="778.419922" xlink:href="#DejaVuSans-6e"/>
      <use x="841.798828" xlink:href="#DejaVuSans-63"/>
      <use x="896.779297" xlink:href="#DejaVuSans-74"/>
      <use x="935.988281" xlink:href="#DejaVuSans-69"/>
      <use x="963.771484" xlink:href="#DejaVuSans-6f"/>
      <use x="1024.953125" xlink:href="#DejaVuSans-6e"/>
      <use x="1088.332031" xlink:href="#DejaVuSans-2b"/>
      <use x="1172.121094" xlink:href="#DejaVuSans-74"/>
      <use x="1211.330078" xlink:href="#DejaVuSans-61"/>
      <use x="1272.609375" xlink:href="#DejaVuSans-72"/>
      <use x="1313.707031" xlink:href="#DejaVuSans-67"/>
      <use x="1377.183594" xlink:href="#DejaVuSans-65"/>
      <use x="1438.707031" xlink:href="#DejaVuSans-74"/>
      <use x="1477.916016" xlink:href="#DejaVuSans-20"/>
      <use x="1509.703125" xlink:href="#DejaVuSans-70"/>
      <use x="1573.179688" xlink:href="#DejaVuSans-61"/>
      <use x="1634.458984" xlink:href="#DejaVuSans-69"/>
      <use x="1662.242188" xlink:href="#DejaVuSans-72"/>
      <use x="1703.355469" xlink:href="#DejaVuSans-73"/>
     </g>
    </g>
   </g>
   <g id="line2d_23">
    <defs>
     <path d="M 0 1.5 
C 0.397805 1.5 0.77937 1.341951 1.06066 1.06066 
C 1.341951 0.77937 1.5 0.397805 1.5 0 
C 1.5 -0.397805 1.341951 -0.77937 1.06066 -1.06066 
C 0.77937 -1.341951 0.397805 -1.5 0 -1.5 
C -0.397805 -1.5 -0.77937 -1.341951 -1.06066 -1.06066 
C -1.341951 -0.77937 -1.5 -0.397805 -1.5 0 
C -1.5 0.397805 -1.341951 0.77937 -1.06066 1.06066 
C -0.77937 1.341951 -0.397805 1.5 0 1.5 
z
" id="m8ed2af7c36" style="stroke:#00bfbf;"/>
    </defs>
    <g>
     <use style="fill:#00bfbf;stroke:#00bfbf;" x="341.062421" xlink:href="#m8ed2af7c36" y="107.095229"/>
     <use style="fill:#00bfbf;stroke:#00bfbf;" x="341.062421" xlink:href="#m8ed2af7c36" y="107.095229"/>
    </g>
   </g>
   <g id="line2d_24">
    <path d="M 138.817886 298.245375 
L 138.817886 297.728753 
L 140.339496 297.728753 
L 140.339496 297.212131 
L 177.334945 297.212131 
L 177.334945 296.695509 
L 184.98156 296.695509 
L 184.98156 295.662265 
L 188.408388 295.662265 
L 188.408388 294.112399 
L 189.324902 294.112399 
L 189.324902 290.496045 
L 189.535255 290.496045 
L 189.535255 287.912935 
L 197.501198 287.912935 
L 197.501198 286.879691 
L 200.074003 286.879691 
L 200.074003 285.846447 
L 200.25983 285.846447 
L 200.25983 283.263337 
L 201.645365 283.263337 
L 201.645365 282.746715 
L 207.25868 282.746715 
L 207.25868 281.713471 
L 208.28837 281.713471 
L 208.28837 274.997384 
L 208.494613 274.997384 
L 208.494613 274.480762 
L 209.200206 274.480762 
L 209.200206 271.38103 
L 210.554443 271.38103 
L 210.554443 270.347786 
L 216.340441 270.347786 
L 216.340441 269.831164 
L 218.972217 269.831164 
L 218.972217 269.314542 
L 219.998004 269.314542 
L 219.998004 267.764676 
L 221.971607 267.764676 
L 221.971607 266.21481 
L 222.253059 266.21481 
L 222.253059 262.598456 
L 223.90387 262.598456 
L 223.90387 261.565212 
L 224.372921 261.565212 
L 224.372921 260.531968 
L 227.979408 260.531968 
L 227.979408 260.015346 
L 228.373628 260.015346 
L 228.373628 257.432236 
L 228.569485 257.432236 
L 228.569485 254.849126 
L 229.046753 254.849126 
L 229.046753 250.71615 
L 232.120474 250.71615 
L 232.120474 247.616418 
L 232.63907 247.616418 
L 232.63907 245.033307 
L 233.686274 245.033307 
L 233.686274 244.000063 
L 233.880585 244.000063 
L 233.880585 242.966819 
L 240.821533 242.966819 
L 240.821533 241.416953 
L 243.109757 241.416953 
L 243.109757 240.383709 
L 244.015724 240.383709 
L 244.015724 239.350465 
L 244.703407 239.350465 
L 244.703407 225.918293 
L 247.210111 225.918293 
L 247.210111 224.368427 
L 248.599072 224.368427 
L 248.599072 222.818561 
L 250.487418 222.818561 
L 250.487418 221.785317 
L 251.864909 221.785317 
L 251.864909 216.102475 
L 253.866158 216.102475 
L 253.866158 215.069231 
L 254.066541 215.069231 
L 254.094761 208.353144 
L 255.196742 208.353144 
L 255.196742 207.3199 
L 255.589182 207.3199 
L 255.589182 205.770034 
L 255.976571 205.770034 
L 255.976571 202.670302 
L 260.172916 202.670302 
L 260.172916 199.57057 
L 260.55192 199.57057 
L 260.55192 199.053948 
L 263.176388 199.053948 
L 263.176388 198.020704 
L 263.585171 198.020704 
L 263.585171 196.98746 
L 264.422349 196.98746 
L 264.422349 195.954216 
L 265.023968 195.954216 
L 265.023968 193.887728 
L 268.174718 193.887728 
L 268.174718 193.371106 
L 269.327143 193.371106 
L 269.327143 191.82124 
L 269.992252 191.82124 
L 269.992252 191.304618 
L 271.155944 191.304618 
L 271.155944 189.754752 
L 271.419514 189.754752 
L 271.422128 187.688264 
L 272.197343 187.688264 
L 272.199845 185.621776 
L 272.904381 185.621776 
L 272.904381 185.105154 
L 273.318972 185.105154 
L 273.318972 183.038666 
L 273.972353 183.038666 
L 273.972353 180.455556 
L 274.134048 180.455556 
L 274.13609 179.422312 
L 274.649749 179.422312 
L 274.650344 177.872445 
L 274.819901 177.872445 
L 274.819901 177.355823 
L 276.250309 177.355823 
L 276.250309 176.839201 
L 277.145885 176.839201 
L 277.145885 174.772713 
L 278.654785 174.772713 
L 278.656291 173.739469 
L 279.307731 173.739469 
L 279.30903 172.189603 
L 280.374052 172.189603 
L 280.375636 169.606493 
L 280.533218 169.606493 
L 280.533218 169.089871 
L 281.006062 169.089871 
L 281.006062 168.573249 
L 281.354977 168.573249 
L 281.354977 168.056627 
L 282.109599 168.056627 
L 282.109599 167.540005 
L 282.541465 167.540005 
L 282.542357 166.506761 
L 283.820366 166.506761 
L 283.820425 165.473517 
L 284.655403 165.473517 
L 284.655403 164.956895 
L 284.780043 164.956895 
L 284.780043 164.440273 
L 285.667738 164.440273 
L 285.667738 163.923651 
L 285.940294 163.923651 
L 285.942771 162.890407 
L 286.380284 162.890407 
L 286.442155 160.307297 
L 286.702981 160.307297 
L 286.702981 159.790675 
L 286.979761 159.790675 
L 286.979761 159.274053 
L 287.993394 159.274053 
L 287.993394 158.757431 
L 288.198005 158.757431 
L 288.234577 157.724187 
L 288.312945 157.724187 
L 288.312945 157.207565 
L 288.946674 157.207565 
L 288.94761 156.174321 
L 289.150317 156.174321 
L 289.172855 154.624455 
L 289.844418 154.624455 
L 289.938315 153.591211 
L 290.142445 153.591211 
L 290.142445 153.074589 
L 290.302401 153.074589 
L 290.356048 152.041345 
L 290.431729 152.041345 
L 290.431729 151.524723 
L 290.562366 151.524723 
L 290.562366 151.008101 
L 290.903738 151.008101 
L 290.97535 149.974857 
L 291.566518 149.974857 
L 291.566518 149.458235 
L 291.953526 149.458235 
L 292.00496 148.424991 
L 292.170919 148.424991 
L 292.234857 146.875125 
L 292.729929 146.875125 
L 292.729929 146.358503 
L 293.107936 146.358503 
L 293.148093 145.325259 
L 293.325444 145.325259 
L 293.325444 144.808637 
L 293.619506 144.808637 
L 293.619506 144.292014 
L 294.399702 144.292014 
L 294.508676 143.25877 
L 294.747914 143.25877 
L 294.747914 142.742148 
L 295.319485 142.742148 
L 295.413268 141.708904 
L 295.466179 141.708904 
L 295.466179 141.192282 
L 296.014162 141.192282 
L 296.107273 140.159038 
L 296.311564 140.159038 
L 296.311564 139.642416 
L 297.000373 139.642416 
L 297.094738 138.609172 
L 297.462977 138.609172 
L 297.462977 138.09255 
L 297.679359 138.09255 
L 297.679359 137.575928 
L 298.23942 137.575928 
L 298.23942 137.059306 
L 299.217691 137.059306 
L 299.217691 136.542684 
L 299.420887 136.542684 
L 299.420887 136.026062 
L 300.343254 136.026062 
L 300.343254 135.50944 
L 300.50315 135.50944 
L 300.508866 134.476196 
L 301.442324 134.476196 
L 301.442324 133.959574 
L 303.008912 133.959574 
L 303.008912 133.442952 
L 303.202433 133.442952 
L 303.202433 132.92633 
L 303.982238 132.92633 
L 303.982238 132.409708 
L 304.792182 132.409708 
L 304.792182 131.893086 
L 305.038317 131.893086 
L 305.038317 131.376464 
L 305.162885 131.376464 
L 305.162885 130.859842 
L 305.296532 130.859842 
L 305.296532 130.34322 
L 305.598589 130.34322 
L 305.598589 129.826598 
L 305.898212 129.826598 
L 305.898212 129.309976 
L 306.24155 129.309976 
L 306.24155 128.793354 
L 307.627159 128.793354 
L 307.627159 128.276732 
L 307.795539 128.276732 
L 307.795539 127.76011 
L 307.977265 127.76011 
L 307.977265 127.243488 
L 308.179998 127.243488 
L 308.179998 126.726866 
L 309.072435 126.726866 
L 309.072435 126.210244 
L 309.273509 126.210244 
L 309.290555 125.177 
L 309.958352 125.177 
L 309.958352 124.660378 
L 310.120107 124.660378 
L 310.120107 124.143756 
L 310.257487 124.143756 
L 310.257487 123.627134 
L 310.732455 123.627134 
L 310.732455 123.110512 
L 311.385479 123.110512 
L 311.385479 122.59389 
L 312.016958 122.59389 
L 312.077419 121.560646 
L 313.383863 121.560646 
L 313.383863 121.044024 
L 313.814624 121.044024 
L 313.830536 120.01078 
L 314.266875 120.01078 
L 314.266875 119.494158 
L 314.428605 119.494158 
L 314.428605 118.977536 
L 314.570162 118.977536 
L 314.570162 118.460914 
L 315.937869 118.460914 
L 315.937869 117.944292 
L 316.348833 117.944292 
L 316.348833 117.42767 
L 316.919632 117.42767 
L 316.919632 116.911048 
L 317.511489 116.911048 
L 317.511489 116.394426 
L 318.171697 116.394426 
L 318.171697 115.877804 
L 318.707011 115.877804 
L 318.707011 115.361182 
L 319.113424 115.361182 
L 319.113424 114.84456 
L 319.35252 114.84456 
L 319.35252 114.327938 
L 319.517094 114.327938 
L 319.517094 113.811316 
L 321.742268 113.811316 
L 321.742268 113.294694 
L 325.494929 113.294694 
L 325.494929 112.778072 
L 325.998787 112.778072 
L 325.998787 112.26145 
L 326.489605 112.26145 
L 326.489605 111.744828 
L 327.534566 111.744828 
L 327.534566 111.228206 
L 328.624937 111.228206 
L 328.624937 110.711584 
L 329.259252 110.711584 
L 329.259252 110.194961 
L 331.350399 110.194961 
L 331.350399 109.678339 
L 332.313539 109.678339 
L 332.313539 109.161717 
L 334.151582 109.161717 
L 334.151582 108.645095 
L 335.746327 108.645095 
L 335.746327 108.128473 
L 336.097051 108.128473 
L 336.097051 107.611851 
L 341.062421 107.611851 
L 341.062421 107.095229 
L 358.8 107.095229 
L 358.8 107.095229 
" style="fill:none;stroke:#00bfbf;stroke-linecap:square;stroke-width:1.5;"/>
   </g>
   <g id="line2d_25">
    <defs>
     <path d="M -6 0 
L 6 0 
M 0 6 
L 0 -6 
" id="m47da6e48e8" style="stroke:#00bfbf;stroke-width:1.5;"/>
    </defs>
    <g>
     <use style="fill:none;stroke:#00bfbf;stroke-width:1.5;" x="248.599072" xlink:href="#m47da6e48e8" y="224.368427"/>
     <use style="fill:none;stroke:#00bfbf;stroke-width:1.5;" x="281.006062" xlink:href="#m47da6e48e8" y="168.573249"/>
     <use style="fill:none;stroke:#00bfbf;stroke-width:1.5;" x="341.062421" xlink:href="#m47da6e48e8" y="107.095229"/>
     <use style="fill:none;stroke:#00bfbf;stroke-width:1.5;" x="341.062421" xlink:href="#m47da6e48e8" y="107.095229"/>
     <use style="fill:none;stroke:#00bfbf;stroke-width:1.5;" x="358.8" xlink:href="#m47da6e48e8" y="107.095229"/>
    </g>
   </g>
   <g id="line2d_26"/>
   <g id="line2d_27">
    <path clip-path="url(#p8473655e2f)" d="M 264.140305 196.98746 
" style="fill:none;stroke:#00bfbf;stroke-linecap:square;stroke-width:1.5;"/>
    <defs>
     <path d="M -12 12 
L 12 -12 
M -12 -12 
L 12 12 
" id="mf94c9d5a16" style="stroke:#00bfbf;stroke-width:3;"/>
    </defs>
    <g clip-path="url(#p8473655e2f)">
     <use style="fill:#00bfbf;stroke:#00bfbf;stroke-width:3;" x="264.140305" xlink:href="#mf94c9d5a16" y="196.98746"/>
    </g>
   </g>
   <g id="line2d_28">
    <defs>
     <path d="M 0 1.5 
C 0.397805 1.5 0.77937 1.341951 1.06066 1.06066 
C 1.341951 0.77937 1.5 0.397805 1.5 0 
C 1.5 -0.397805 1.341951 -0.77937 1.06066 -1.06066 
C 0.77937 -1.341951 0.397805 -1.5 0 -1.5 
C -0.397805 -1.5 -0.77937 -1.341951 -1.06066 -1.06066 
C -1.341951 -0.77937 -1.5 -0.397805 -1.5 0 
C -1.5 0.397805 -1.341951 0.77937 -1.06066 1.06066 
C -0.77937 1.341951 -0.397805 1.5 0 1.5 
z
" id="m6760eb4621" style="stroke:#008000;"/>
    </defs>
    <g>
     <use style="fill:#008000;stroke:#008000;" x="340.359953" xlink:href="#m6760eb4621" y="138.09255"/>
     <use style="fill:#008000;stroke:#008000;" x="340.359953" xlink:href="#m6760eb4621" y="138.09255"/>
    </g>
   </g>
   <g id="line2d_29">
    <path d="M 145.111405 298.245375 
L 145.111405 297.728753 
L 156.833025 297.728753 
L 156.833025 297.212131 
L 166.540176 297.212131 
L 166.540176 296.178887 
L 180.366408 296.178887 
L 180.366408 295.662265 
L 181.37262 295.662265 
L 181.37262 295.145643 
L 182.498263 295.145643 
L 182.498263 291.529289 
L 182.681059 291.529289 
L 182.681059 291.012667 
L 184.931524 291.012667 
L 184.931524 290.496045 
L 185.386661 290.496045 
L 185.386661 289.979423 
L 188.058511 289.979423 
L 188.058511 289.462801 
L 188.888589 289.462801 
L 188.888589 288.946179 
L 189.581666 288.946179 
L 189.581666 288.429557 
L 192.938273 288.429557 
L 193.046778 286.879691 
L 194.779847 286.879691 
L 194.779847 285.846447 
L 195.275345 285.846447 
L 195.275345 285.329825 
L 197.683754 285.329825 
L 197.683754 282.746715 
L 204.370227 282.746715 
L 204.370227 281.713471 
L 205.759876 281.713471 
L 205.759876 281.196849 
L 206.231537 281.196849 
L 206.231537 280.680226 
L 206.497284 280.680226 
L 206.497284 279.646982 
L 210.562801 279.646982 
L 210.562801 278.613738 
L 211.010765 278.613738 
L 211.010765 278.097116 
L 212.898248 278.097116 
L 212.898248 277.580494 
L 214.112995 277.580494 
L 214.112995 274.480762 
L 215.915552 274.480762 
L 215.915552 273.96414 
L 216.070591 273.96414 
L 216.070591 273.447518 
L 217.975624 273.447518 
L 217.975624 272.930896 
L 218.442506 272.930896 
L 218.442506 272.414274 
L 220.72505 272.414274 
L 220.72505 271.38103 
L 221.480778 271.38103 
L 221.544165 266.731432 
L 221.824752 266.731432 
L 221.824752 264.148322 
L 221.961518 264.148322 
L 221.961518 263.6317 
L 222.319953 263.6317 
L 222.319953 261.565212 
L 224.952572 261.565212 
L 224.952572 261.04859 
L 226.296472 261.04859 
L 226.296472 260.531968 
L 226.479625 260.531968 
L 226.494314 258.982102 
L 226.630831 258.982102 
L 226.630831 249.682906 
L 227.05322 249.682906 
L 227.070288 247.616418 
L 228.238747 247.616418 
L 228.238747 246.583173 
L 230.866102 246.583173 
L 230.866102 245.549929 
L 233.577953 245.549929 
L 233.641712 243.483441 
L 234.131635 243.483441 
L 234.131635 241.416953 
L 235.30639 241.416953 
L 235.30639 237.800599 
L 237.038127 237.800599 
L 237.038127 236.250733 
L 239.008292 236.250733 
L 239.008292 234.184245 
L 241.125591 234.184245 
L 241.125591 232.117757 
L 242.271541 232.117757 
L 242.271541 231.601135 
L 243.328958 231.601135 
L 243.328958 229.534647 
L 244.378081 229.534647 
L 244.378081 228.501403 
L 245.331185 228.501403 
L 245.331185 225.401671 
L 245.660364 225.401671 
L 245.660364 224.885049 
L 246.634901 224.885049 
L 246.669748 219.718829 
L 247.998913 219.718829 
L 247.998913 218.685585 
L 248.18712 218.685585 
L 248.18712 218.168963 
L 248.691869 218.168963 
L 248.691869 216.102475 
L 250.614381 216.102475 
L 250.614381 215.585853 
L 255.713048 215.585853 
L 255.713048 213.519365 
L 257.020857 213.519365 
L 257.020857 213.002743 
L 257.432599 213.002743 
L 257.432599 212.48612 
L 258.849358 212.48612 
L 258.849358 210.936254 
L 259.007923 210.936254 
L 259.007923 209.386388 
L 259.908692 209.386388 
L 259.908993 208.353144 
L 261.095464 208.353144 
L 261.095464 205.770034 
L 263.587627 205.770034 
L 263.587627 201.120436 
L 264.875723 201.120436 
L 264.875723 200.087192 
L 266.413555 200.087192 
L 266.413555 199.57057 
L 269.34232 199.57057 
L 269.389327 198.537326 
L 270.219539 198.537326 
L 270.219539 198.020704 
L 270.62285 198.020704 
L 270.62285 197.504082 
L 270.887571 197.504082 
L 270.887571 196.98746 
L 271.559289 196.98746 
L 271.600818 195.954216 
L 273.237521 195.954216 
L 273.314413 193.371106 
L 273.449545 193.371106 
L 273.449545 189.23813 
L 273.678707 189.23813 
L 273.678707 188.721508 
L 274.704933 188.721508 
L 274.704933 188.204886 
L 274.899158 188.204886 
L 274.899158 187.688264 
L 275.514506 187.688264 
L 275.568343 186.65502 
L 275.696244 186.65502 
L 275.696244 186.138398 
L 276.942126 186.138398 
L 276.942126 185.621776 
L 277.154737 185.621776 
L 277.157724 184.588532 
L 277.558194 184.588532 
L 277.558194 184.07191 
L 278.2651 184.07191 
L 278.2651 183.555288 
L 279.082434 183.555288 
L 279.082434 183.038666 
L 279.318069 183.038666 
L 279.413627 182.005422 
L 279.468082 182.005422 
L 279.468082 181.4888 
L 279.615495 181.4888 
L 279.615495 180.455556 
L 280.173488 180.455556 
L 280.173488 179.938934 
L 281.041948 179.938934 
L 281.041948 179.422312 
L 281.721502 179.422312 
L 281.721502 178.90569 
L 282.273799 178.90569 
L 282.273799 178.389067 
L 283.498118 178.389067 
L 283.498118 177.872445 
L 283.722377 177.872445 
L 283.801065 176.839201 
L 283.844666 176.839201 
L 283.844666 176.322579 
L 284.698082 176.322579 
L 284.698082 175.805957 
L 285.122269 175.805957 
L 285.122269 175.289335 
L 285.84471 175.289335 
L 285.84471 174.772713 
L 286.694661 174.772713 
L 286.694661 174.256091 
L 287.846847 174.256091 
L 287.846847 173.739469 
L 290.327505 173.739469 
L 290.327505 173.222847 
L 290.602452 173.222847 
L 290.602452 172.706225 
L 290.822949 172.706225 
L 290.822949 172.189603 
L 290.948643 172.189603 
L 290.948643 171.672981 
L 291.2111 171.672981 
L 291.2111 171.156359 
L 291.984549 171.156359 
L 291.984549 170.639737 
L 292.575142 170.639737 
L 292.575142 170.123115 
L 292.865959 170.123115 
L 292.865959 169.606493 
L 293.126422 169.606493 
L 293.126422 169.089871 
L 293.253305 169.089871 
L 293.28905 168.056627 
L 293.898025 168.056627 
L 293.969721 167.023383 
L 294.807858 167.023383 
L 294.807858 166.506761 
L 294.979012 166.506761 
L 294.979012 165.990139 
L 295.790765 165.990139 
L 295.839522 164.440273 
L 295.994132 164.440273 
L 295.994132 163.923651 
L 296.613614 163.923651 
L 296.71576 162.890407 
L 297.808548 162.890407 
L 297.808548 162.373785 
L 298.48723 162.373785 
L 298.527428 161.340541 
L 299.198683 161.340541 
L 299.198683 160.823919 
L 299.721852 160.823919 
L 299.721852 160.307297 
L 300.147242 160.307297 
L 300.147242 159.790675 
L 300.787968 159.790675 
L 300.787968 159.274053 
L 301.267786 159.274053 
L 301.267786 158.757431 
L 301.675266 158.757431 
L 301.675266 158.240809 
L 302.356941 158.240809 
L 302.356941 157.724187 
L 302.995265 157.724187 
L 303.01655 156.690943 
L 303.190459 156.690943 
L 303.190459 156.174321 
L 303.634379 156.174321 
L 303.634379 155.657699 
L 303.758974 155.657699 
L 303.758974 155.141077 
L 303.943965 155.141077 
L 303.943965 154.624455 
L 304.305243 154.624455 
L 304.305243 154.107833 
L 304.512455 154.107833 
L 304.512455 153.591211 
L 306.095576 153.591211 
L 306.095576 153.074589 
L 306.2088 153.074589 
L 306.2088 152.557967 
L 306.449241 152.557967 
L 306.449241 152.041345 
L 306.741651 152.041345 
L 306.741651 151.524723 
L 307.875503 151.524723 
L 307.875503 151.008101 
L 309.605115 151.008101 
L 309.605115 150.491479 
L 312.420448 150.491479 
L 312.420448 149.974857 
L 312.78236 149.974857 
L 312.78236 149.458235 
L 313.330035 149.458235 
L 313.415228 148.424991 
L 313.44452 148.424991 
L 313.44452 147.908369 
L 313.700353 147.908369 
L 313.700353 147.391747 
L 313.916637 147.391747 
L 314.010315 146.358503 
L 314.046152 146.358503 
L 314.118163 145.325259 
L 314.443779 145.325259 
L 314.443779 144.808637 
L 315.085219 144.808637 
L 315.085219 144.292014 
L 316.265611 144.292014 
L 316.265611 143.775392 
L 317.927006 143.775392 
L 317.927006 143.25877 
L 319.186689 143.25877 
L 319.186689 142.742148 
L 320.75684 142.742148 
L 320.75684 142.225526 
L 320.906923 142.225526 
L 320.906923 141.708904 
L 322.874606 141.708904 
L 322.976852 140.67566 
L 323.959434 140.67566 
L 323.982579 139.642416 
L 328.876109 139.642416 
L 328.876109 139.125794 
L 339.509539 139.125794 
L 339.509539 138.609172 
L 340.359953 138.609172 
L 340.359953 138.09255 
L 358.8 138.09255 
L 358.8 138.09255 
" style="fill:none;stroke:#008000;stroke-linecap:square;stroke-width:1.5;"/>
   </g>
   <g id="line2d_30">
    <defs>
     <path d="M -0 6 
L 6 -6 
L -6 -6 
z
" id="m2b188b43be" style="stroke:#008000;stroke-linejoin:miter;stroke-width:1.5;"/>
    </defs>
    <g>
     <use style="fill:none;stroke:#008000;stroke-linejoin:miter;stroke-width:1.5;" x="221.544165" xlink:href="#m2b188b43be" y="266.731432"/>
     <use style="fill:none;stroke:#008000;stroke-linejoin:miter;stroke-width:1.5;" x="248.691869" xlink:href="#m2b188b43be" y="218.168963"/>
     <use style="fill:none;stroke:#008000;stroke-linejoin:miter;stroke-width:1.5;" x="307.875503" xlink:href="#m2b188b43be" y="151.524723"/>
     <use style="fill:none;stroke:#008000;stroke-linejoin:miter;stroke-width:1.5;" x="340.359953" xlink:href="#m2b188b43be" y="138.09255"/>
     <use style="fill:none;stroke:#008000;stroke-linejoin:miter;stroke-width:1.5;" x="358.8" xlink:href="#m2b188b43be" y="138.09255"/>
    </g>
   </g>
   <g id="line2d_31"/>
   <g id="line2d_32">
    <path clip-path="url(#p8473655e2f)" d="M 270.887571 196.98746 
" style="fill:none;stroke:#008000;stroke-linecap:square;stroke-width:1.5;"/>
    <defs>
     <path d="M -12 12 
L 12 -12 
M -12 -12 
L 12 12 
" id="m593c1b1b42" style="stroke:#008000;stroke-width:3;"/>
    </defs>
    <g clip-path="url(#p8473655e2f)">
     <use style="fill:#008000;stroke:#008000;stroke-width:3;" x="270.887571" xlink:href="#m593c1b1b42" y="196.98746"/>
    </g>
   </g>
   <g id="line2d_33">
    <defs>
     <path d="M 0 1.5 
C 0.397805 1.5 0.77937 1.341951 1.06066 1.06066 
C 1.341951 0.77937 1.5 0.397805 1.5 0 
C 1.5 -0.397805 1.341951 -0.77937 1.06066 -1.06066 
C 0.77937 -1.341951 0.397805 -1.5 0 -1.5 
C -0.397805 -1.5 -0.77937 -1.341951 -1.06066 -1.06066 
C -1.341951 -0.77937 -1.5 -0.397805 -1.5 0 
C -1.5 0.397805 -1.341951 0.77937 -1.06066 1.06066 
C -0.77937 1.341951 -0.397805 1.5 0 1.5 
z
" id="mf6597e4b00" style="stroke:#0000ff;"/>
    </defs>
    <g>
     <use style="fill:#0000ff;stroke:#0000ff;" x="335.572109" xlink:href="#mf6597e4b00" y="138.09255"/>
     <use style="fill:#0000ff;stroke:#0000ff;" x="335.572109" xlink:href="#mf6597e4b00" y="138.09255"/>
    </g>
   </g>
   <g id="line2d_34">
    <path d="M 177.784567 298.245375 
L 177.784567 296.695509 
L 184.209626 296.695509 
L 184.209626 296.178887 
L 184.800768 296.178887 
L 184.800768 295.145643 
L 192.610053 295.145643 
L 192.610053 294.112399 
L 193.027678 294.112399 
L 193.027678 293.079155 
L 200.524323 293.079155 
L 200.524323 292.045911 
L 200.714252 292.045911 
L 200.714252 291.012667 
L 201.100325 291.012667 
L 201.100325 290.496045 
L 201.473469 290.496045 
L 201.485377 288.429557 
L 202.15364 288.429557 
L 202.15364 287.912935 
L 202.648972 287.912935 
L 202.648972 287.396313 
L 203.850189 287.396313 
L 203.906414 286.363069 
L 204.354013 286.363069 
L 204.354013 285.846447 
L 205.028512 285.846447 
L 205.028512 285.329825 
L 205.232366 285.329825 
L 205.278637 280.163604 
L 209.324229 280.163604 
L 209.324229 279.13036 
L 210.122904 279.13036 
L 210.122904 276.030628 
L 210.982802 276.030628 
L 210.982802 274.997384 
L 212.094835 274.997384 
L 212.094835 274.480762 
L 216.157038 274.480762 
L 216.157038 273.96414 
L 216.692549 273.96414 
L 216.79189 271.897652 
L 217.601184 271.897652 
L 217.695612 268.281298 
L 218.127609 268.281298 
L 218.127609 267.764676 
L 218.524653 267.764676 
L 218.524653 267.248054 
L 218.699031 267.248054 
L 218.699031 265.698188 
L 219.013328 265.698188 
L 219.013328 262.081834 
L 220.44766 262.081834 
L 220.44766 261.04859 
L 220.873412 261.04859 
L 220.873412 258.982102 
L 221.915539 258.982102 
L 221.915539 258.46548 
L 224.607804 258.46548 
L 224.607804 257.948858 
L 225.737105 257.948858 
L 225.763433 255.365748 
L 226.024605 255.365748 
L 226.024605 249.166284 
L 227.001915 249.166284 
L 227.001915 245.549929 
L 227.153124 245.549929 
L 227.153124 245.033307 
L 227.264853 245.033307 
L 227.264853 244.516685 
L 227.901953 244.516685 
L 227.901953 239.350465 
L 228.030141 239.350465 
L 228.124208 237.283977 
L 228.281666 237.283977 
L 228.281666 236.767355 
L 229.796539 236.767355 
L 229.796539 236.250733 
L 230.608269 236.250733 
L 230.608269 235.734111 
L 231.1396 235.734111 
L 231.1396 234.700867 
L 232.598633 234.700867 
L 232.598633 232.634379 
L 232.835778 232.634379 
L 232.835778 232.117757 
L 233.701191 232.117757 
L 233.701191 230.567891 
L 237.549534 230.567891 
L 237.612692 226.951537 
L 238.131834 226.951537 
L 238.131834 226.434915 
L 238.245381 226.434915 
L 238.245381 225.918293 
L 238.401698 225.918293 
L 238.401698 225.401671 
L 238.945304 225.401671 
L 238.945304 224.885049 
L 240.019479 224.885049 
L 240.019479 223.851805 
L 241.097686 223.851805 
L 241.097686 222.301939 
L 241.460476 222.301939 
L 241.460476 220.752073 
L 241.619381 220.752073 
L 241.619381 220.235451 
L 243.432438 220.235451 
L 243.432438 219.202207 
L 243.910333 219.202207 
L 243.910333 218.685585 
L 246.376767 218.685585 
L 246.376767 217.652341 
L 246.768344 217.652341 
L 246.768344 217.135719 
L 247.228801 217.135719 
L 247.228801 216.102475 
L 247.545469 216.102475 
L 247.545469 215.069231 
L 248.323813 215.069231 
L 248.323813 214.035987 
L 249.886301 214.035987 
L 249.886301 213.002743 
L 250.863529 213.002743 
L 250.863529 212.48612 
L 251.31195 212.48612 
L 251.31195 210.936254 
L 251.603612 210.936254 
L 251.645918 208.353144 
L 252.760683 208.353144 
L 252.760683 207.836522 
L 253.815057 207.836522 
L 253.815057 207.3199 
L 254.878323 207.3199 
L 254.878323 206.803278 
L 255.573498 206.803278 
L 255.573498 205.770034 
L 256.488311 205.770034 
L 256.488311 205.253412 
L 256.746757 205.253412 
L 256.746757 203.703546 
L 257.12792 203.703546 
L 257.12792 203.186924 
L 259.206187 203.186924 
L 259.206187 202.670302 
L 259.410809 202.670302 
L 259.410809 200.603814 
L 259.584012 200.603814 
L 259.584012 199.053948 
L 261.24271 199.053948 
L 261.24271 198.537326 
L 262.067679 198.537326 
L 262.067679 197.504082 
L 262.251936 197.504082 
L 262.251936 196.98746 
L 265.790628 196.98746 
L 265.790628 194.920972 
L 267.551492 194.920972 
L 267.551492 194.40435 
L 268.222185 194.40435 
L 268.222185 193.887728 
L 268.694037 193.887728 
L 268.780629 191.82124 
L 270.45001 191.82124 
L 270.45001 190.271374 
L 270.596676 190.271374 
L 270.596676 189.23813 
L 270.997302 189.23813 
L 270.997302 187.171642 
L 271.344096 187.171642 
L 271.344096 186.138398 
L 271.769359 186.138398 
L 271.769359 184.588532 
L 272.095766 184.588532 
L 272.095766 184.07191 
L 273.915717 184.07191 
L 273.915717 178.389067 
L 274.123348 178.389067 
L 274.123348 177.872445 
L 275.301501 177.872445 
L 275.304025 176.839201 
L 276.694591 176.839201 
L 276.694591 176.322579 
L 277.26628 176.322579 
L 277.26628 175.805957 
L 277.550114 175.805957 
L 277.635365 174.772713 
L 277.981647 174.772713 
L 277.981647 174.256091 
L 278.538841 174.256091 
L 278.538841 173.739469 
L 279.206092 173.739469 
L 279.206092 173.222847 
L 280.741455 173.222847 
L 280.741455 172.706225 
L 281.170104 172.706225 
L 281.170104 172.189603 
L 281.285285 172.189603 
L 281.369253 171.156359 
L 281.414132 171.156359 
L 281.414132 170.639737 
L 281.976135 170.639737 
L 281.976135 170.123115 
L 282.407345 170.123115 
L 282.409041 169.089871 
L 282.533531 169.089871 
L 282.533531 168.056627 
L 282.86262 168.056627 
L 282.86262 167.540005 
L 283.558606 167.540005 
L 283.623083 165.990139 
L 283.780112 165.990139 
L 283.78901 164.440273 
L 284.193768 164.440273 
L 284.299483 163.407029 
L 284.67077 163.407029 
L 284.67077 162.890407 
L 285.051196 162.890407 
L 285.051196 162.373785 
L 285.226545 162.373785 
L 285.283644 161.340541 
L 286.152206 161.340541 
L 286.152206 160.823919 
L 286.740382 160.823919 
L 286.740382 160.307297 
L 287.073755 160.307297 
L 287.151737 159.274053 
L 287.550212 159.274053 
L 287.550212 158.757431 
L 288.088043 158.757431 
L 288.088043 158.240809 
L 288.232741 158.240809 
L 288.288241 157.207565 
L 288.372781 157.207565 
L 288.415699 155.657699 
L 290.394972 155.657699 
L 290.394972 155.141077 
L 291.090891 155.141077 
L 291.090891 154.624455 
L 293.365499 154.624455 
L 293.365499 154.107833 
L 294.901368 154.107833 
L 294.901368 153.591211 
L 295.97725 153.591211 
L 295.97725 153.074589 
L 296.330194 153.074589 
L 296.330194 152.557967 
L 296.515482 152.557967 
L 296.515482 152.041345 
L 297.012972 152.041345 
L 297.012972 151.524723 
L 297.455944 151.524723 
L 297.455944 151.008101 
L 298.116492 151.008101 
L 298.116492 150.491479 
L 298.331842 150.491479 
L 298.331842 149.974857 
L 298.735898 149.974857 
L 298.735898 149.458235 
L 298.879369 149.458235 
L 298.879369 148.941613 
L 299.319328 148.941613 
L 299.319328 148.424991 
L 299.83846 148.424991 
L 299.919426 147.391747 
L 301.187987 147.391747 
L 301.187987 146.875125 
L 302.056764 146.875125 
L 302.056764 146.358503 
L 302.437388 146.358503 
L 302.437388 145.841881 
L 303.841601 145.841881 
L 303.841601 145.325259 
L 304.905862 145.325259 
L 304.905862 144.808637 
L 307.479032 144.808637 
L 307.479032 144.292014 
L 307.693606 144.292014 
L 307.693606 143.775392 
L 308.164479 143.775392 
L 308.24326 142.225526 
L 309.584534 142.225526 
L 309.584534 141.708904 
L 311.720641 141.708904 
L 311.720641 141.192282 
L 319.362161 141.192282 
L 319.362161 140.67566 
L 319.907061 140.67566 
L 319.907061 140.159038 
L 322.227032 140.159038 
L 322.227032 139.642416 
L 325.743674 139.642416 
L 325.743674 139.125794 
L 334.855078 139.125794 
L 334.855078 138.609172 
L 335.572109 138.609172 
L 335.572109 138.09255 
L 358.8 138.09255 
L 358.8 138.09255 
" style="fill:none;stroke:#0000ff;stroke-linecap:square;stroke-width:1.5;"/>
   </g>
   <g id="line2d_35">
    <defs>
     <path d="M 0 -6 
L -1.347084 -1.854102 
L -5.706339 -1.854102 
L -2.179628 0.708204 
L -3.526712 4.854102 
L -0 2.291796 
L 3.526712 4.854102 
L 2.179628 0.708204 
L 5.706339 -1.854102 
L 1.347084 -1.854102 
z
" id="m369b40e5e2" style="stroke:#0000ff;stroke-linejoin:bevel;stroke-width:1.5;"/>
    </defs>
    <g>
     <use style="fill:none;stroke:#0000ff;stroke-linejoin:bevel;stroke-width:1.5;" x="226.024605" xlink:href="#m369b40e5e2" y="249.166284"/>
     <use style="fill:none;stroke:#0000ff;stroke-linejoin:bevel;stroke-width:1.5;" x="270.997302" xlink:href="#m369b40e5e2" y="187.171642"/>
     <use style="fill:none;stroke:#0000ff;stroke-linejoin:bevel;stroke-width:1.5;" x="335.572109" xlink:href="#m369b40e5e2" y="138.09255"/>
     <use style="fill:none;stroke:#0000ff;stroke-linejoin:bevel;stroke-width:1.5;" x="358.8" xlink:href="#m369b40e5e2" y="138.09255"/>
    </g>
   </g>
   <g id="line2d_36"/>
   <g id="line2d_37">
    <path clip-path="url(#p8473655e2f)" d="M 256.746757 203.703546 
" style="fill:none;stroke:#0000ff;stroke-linecap:square;stroke-width:1.5;"/>
    <defs>
     <path d="M -12 12 
L 12 -12 
M -12 -12 
L 12 12 
" id="mc812aac6e5" style="stroke:#0000ff;stroke-width:3;"/>
    </defs>
    <g clip-path="url(#p8473655e2f)">
     <use style="fill:#0000ff;stroke:#0000ff;stroke-width:3;" x="256.746757" xlink:href="#mc812aac6e5" y="203.703546"/>
    </g>
   </g>
   <g id="line2d_38">
    <defs>
     <path d="M 0 1.5 
C 0.397805 1.5 0.77937 1.341951 1.06066 1.06066 
C 1.341951 0.77937 1.5 0.397805 1.5 0 
C 1.5 -0.397805 1.341951 -0.77937 1.06066 -1.06066 
C 0.77937 -1.341951 0.397805 -1.5 0 -1.5 
C -0.397805 -1.5 -0.77937 -1.341951 -1.06066 -1.06066 
C -1.341951 -0.77937 -1.5 -0.397805 -1.5 0 
C -1.5 0.397805 -1.341951 0.77937 -1.06066 1.06066 
C -0.77937 1.341951 -0.397805 1.5 0 1.5 
z
" id="ma5276ba9dc" style="stroke:#000000;"/>
    </defs>
    <g>
     <use style="stroke:#000000;" x="328.697263" xlink:href="#ma5276ba9dc" y="158.757431"/>
     <use style="stroke:#000000;" x="328.697263" xlink:href="#ma5276ba9dc" y="158.757431"/>
    </g>
   </g>
   <g id="line2d_39">
    <path d="M 190.899213 298.245375 
L 190.899213 297.728753 
L 192.176421 297.728753 
L 192.176421 297.212131 
L 203.55578 297.212131 
L 203.55578 296.695509 
L 212.187942 296.695509 
L 212.187942 296.178887 
L 214.985063 296.178887 
L 214.985063 295.662265 
L 217.442523 295.662265 
L 217.526639 294.629021 
L 217.734491 294.629021 
L 217.734491 293.595777 
L 218.488377 293.595777 
L 218.510427 292.045911 
L 219.665445 292.045911 
L 219.718729 291.012667 
L 219.801775 291.012667 
L 219.881035 289.462801 
L 220.167431 289.462801 
L 220.192519 288.429557 
L 220.372534 288.429557 
L 220.459602 285.329825 
L 220.685395 285.329825 
L 220.685395 284.296581 
L 221.189558 284.296581 
L 221.189558 282.230093 
L 221.562622 282.230093 
L 221.579642 279.13036 
L 221.761206 279.13036 
L 221.761206 277.063872 
L 222.172455 277.063872 
L 222.172455 276.54725 
L 222.968675 276.54725 
L 222.968675 276.030628 
L 223.442042 276.030628 
L 223.442042 275.514006 
L 223.735037 275.514006 
L 223.735037 274.997384 
L 224.210817 274.997384 
L 224.210817 273.447518 
L 224.428718 273.447518 
L 224.53455 272.414274 
L 224.748561 272.414274 
L 224.850589 269.831164 
L 224.936986 269.831164 
L 224.936986 269.314542 
L 226.647046 269.314542 
L 226.647046 267.248054 
L 226.947314 267.248054 
L 226.967917 265.181566 
L 227.286778 265.181566 
L 227.286778 264.664944 
L 227.457322 264.664944 
L 227.457322 264.148322 
L 228.782347 264.148322 
L 228.782347 263.6317 
L 230.594035 263.6317 
L 230.594035 262.598456 
L 231.085855 262.598456 
L 231.163133 261.04859 
L 231.93129 261.04859 
L 232.001768 258.982102 
L 232.117259 258.982102 
L 232.117259 257.948858 
L 232.487901 257.948858 
L 232.487901 257.432236 
L 233.518986 257.432236 
L 233.518986 256.915614 
L 233.895729 256.915614 
L 233.933338 255.88237 
L 234.024896 255.88237 
L 234.024896 255.365748 
L 234.407265 255.365748 
L 234.407265 253.815882 
L 234.7927 253.815882 
L 234.7927 253.29926 
L 235.034859 253.29926 
L 235.119326 251.232772 
L 235.341922 251.232772 
L 235.341922 249.682906 
L 235.713173 249.682906 
L 235.809327 247.616418 
L 237.401663 247.616418 
L 237.401663 247.099796 
L 238.952324 247.099796 
L 238.980087 245.033307 
L 240.01576 245.033307 
L 240.01576 244.516685 
L 240.360318 244.516685 
L 240.385979 243.483441 
L 241.475338 243.483441 
L 241.475338 242.450197 
L 242.722267 242.450197 
L 242.722267 241.416953 
L 243.245971 241.416953 
L 243.245971 240.900331 
L 244.35893 240.900331 
L 244.35893 239.867087 
L 244.506887 239.867087 
L 244.61213 238.833843 
L 244.684107 238.833843 
L 244.684107 236.767355 
L 245.083959 236.767355 
L 245.083959 235.217489 
L 245.620939 235.217489 
L 245.620939 231.601135 
L 246.35069 231.601135 
L 246.35069 230.567891 
L 246.640893 230.567891 
L 246.640893 230.051269 
L 247.306755 230.051269 
L 247.306755 229.534647 
L 247.946836 229.534647 
L 247.946836 228.501403 
L 248.212336 228.501403 
L 248.212336 227.984781 
L 248.423843 227.984781 
L 248.423843 227.468159 
L 248.795711 227.468159 
L 248.795711 226.434915 
L 249.194241 226.434915 
L 249.194241 225.918293 
L 249.600199 225.918293 
L 249.600199 224.885049 
L 249.994143 224.885049 
L 249.994143 223.851805 
L 250.327055 223.851805 
L 250.327055 223.335183 
L 251.589631 223.335183 
L 251.589631 222.818561 
L 251.911206 222.818561 
L 251.981378 220.235451 
L 252.514579 220.235451 
L 252.514579 219.718829 
L 253.42362 219.718829 
L 253.42362 218.685585 
L 254.48161 218.685585 
L 254.48161 217.652341 
L 254.880901 217.652341 
L 254.880901 217.135719 
L 255.4212 217.135719 
L 255.4212 216.102475 
L 256.117124 216.102475 
L 256.117124 215.585853 
L 257.745269 215.585853 
L 257.745269 213.002743 
L 259.732256 213.002743 
L 259.735364 211.452876 
L 261.353125 211.452876 
L 261.353125 210.936254 
L 262.001059 210.936254 
L 262.001059 210.419632 
L 263.016458 210.419632 
L 263.016458 208.869766 
L 263.372221 208.869766 
L 263.372221 208.353144 
L 263.730797 208.353144 
L 263.730797 207.3199 
L 264.776167 207.3199 
L 264.795078 206.286656 
L 265.025974 206.286656 
L 265.025974 205.253412 
L 266.517083 205.253412 
L 266.584832 202.15368 
L 266.940398 202.15368 
L 267.02973 201.120436 
L 268.019285 201.120436 
L 268.094952 199.053948 
L 268.320362 199.053948 
L 268.406276 197.504082 
L 268.762219 197.504082 
L 268.80045 195.954216 
L 270.13344 195.954216 
L 270.13344 195.437594 
L 270.470044 195.437594 
L 270.470044 194.920972 
L 272.256739 194.920972 
L 272.256739 194.40435 
L 273.372587 194.40435 
L 273.372587 193.371106 
L 274.448541 193.371106 
L 274.448541 192.854484 
L 275.292358 192.854484 
L 275.308423 191.82124 
L 276.062674 191.82124 
L 276.062674 190.787996 
L 276.357324 190.787996 
L 276.357324 190.271374 
L 277.237596 190.271374 
L 277.237596 189.754752 
L 277.599972 189.754752 
L 277.599972 189.23813 
L 277.767117 189.23813 
L 277.767117 188.721508 
L 278.936224 188.721508 
L 278.936224 188.204886 
L 279.068485 188.204886 
L 279.068485 187.688264 
L 279.701683 187.688264 
L 279.701683 187.171642 
L 280.112195 187.171642 
L 280.112195 186.65502 
L 280.346793 186.65502 
L 280.346793 186.138398 
L 280.882779 186.138398 
L 280.882779 185.621776 
L 282.190336 185.621776 
L 282.190336 185.105154 
L 282.986799 185.105154 
L 282.986799 184.588532 
L 283.186729 184.588532 
L 283.186729 184.07191 
L 283.446657 184.07191 
L 283.446657 183.555288 
L 285.471507 183.555288 
L 285.471507 183.038666 
L 285.89769 183.038666 
L 285.89769 182.522044 
L 286.012821 182.522044 
L 286.012821 182.005422 
L 286.284629 182.005422 
L 286.284629 181.4888 
L 286.58098 181.4888 
L 286.58098 180.972178 
L 287.441083 180.972178 
L 287.441083 180.455556 
L 289.986543 180.455556 
L 289.986543 179.938934 
L 290.613178 179.938934 
L 290.613178 179.422312 
L 290.822872 179.422312 
L 290.822872 178.90569 
L 291.203908 178.90569 
L 291.203908 178.389067 
L 291.954166 178.389067 
L 291.954166 177.872445 
L 292.215462 177.872445 
L 292.215462 177.355823 
L 294.096963 177.355823 
L 294.096963 176.839201 
L 295.618249 176.839201 
L 295.618249 176.322579 
L 295.993373 176.322579 
L 295.993373 175.805957 
L 297.692887 175.805957 
L 297.692887 175.289335 
L 297.940357 175.289335 
L 297.973685 174.256091 
L 298.267504 174.256091 
L 298.305126 173.222847 
L 298.66032 173.222847 
L 298.66032 172.706225 
L 298.795494 172.706225 
L 298.795494 172.189603 
L 299.843225 172.189603 
L 299.843225 171.672981 
L 301.965299 171.672981 
L 301.965299 171.156359 
L 304.043039 171.156359 
L 304.043039 170.639737 
L 304.297951 170.639737 
L 304.297951 170.123115 
L 305.007617 170.123115 
L 305.007617 169.606493 
L 306.455043 169.606493 
L 306.455043 169.089871 
L 307.437963 169.089871 
L 307.437963 168.573249 
L 308.479993 168.573249 
L 308.479993 168.056627 
L 308.74758 168.056627 
L 308.74758 167.540005 
L 309.510778 167.540005 
L 309.510778 167.023383 
L 309.657238 167.023383 
L 309.657238 166.506761 
L 309.890014 166.506761 
L 309.914862 165.473517 
L 310.810525 165.473517 
L 310.810525 164.956895 
L 311.290442 164.956895 
L 311.290442 164.440273 
L 311.428415 164.440273 
L 311.428415 163.923651 
L 311.714979 163.923651 
L 311.714979 163.407029 
L 312.581222 163.407029 
L 312.581222 162.890407 
L 315.092181 162.890407 
L 315.092181 162.373785 
L 315.915735 162.373785 
L 315.915735 161.857163 
L 321.392856 161.857163 
L 321.392856 161.340541 
L 321.521791 161.340541 
L 321.521791 160.823919 
L 322.662141 160.823919 
L 322.662141 160.307297 
L 324.530969 160.307297 
L 324.530969 159.790675 
L 325.963951 159.790675 
L 325.963951 159.274053 
L 328.697263 159.274053 
L 328.697263 158.757431 
L 358.8 158.757431 
L 358.8 158.757431 
" style="fill:none;stroke:#000000;stroke-linecap:square;stroke-width:1.5;"/>
   </g>
   <g id="line2d_40">
    <defs>
     <path d="M 0 6 
C 1.591219 6 3.117479 5.367802 4.242641 4.242641 
C 5.367802 3.117479 6 1.591219 6 0 
C 6 -1.591219 5.367802 -3.117479 4.242641 -4.242641 
C 3.117479 -5.367802 1.591219 -6 0 -6 
C -1.591219 -6 -3.117479 -5.367802 -4.242641 -4.242641 
C -5.367802 -3.117479 -6 -1.591219 -6 0 
C -6 1.591219 -5.367802 3.117479 -4.242641 4.242641 
C -3.117479 5.367802 -1.591219 6 0 6 
z
" id="mae47207477" style="stroke:#000000;stroke-width:1.5;"/>
    </defs>
    <g>
     <use style="fill:none;stroke:#000000;stroke-width:1.5;" x="256.117124" xlink:href="#mae47207477" y="215.585853"/>
     <use style="fill:none;stroke:#000000;stroke-width:1.5;" x="328.697263" xlink:href="#mae47207477" y="159.274053"/>
     <use style="fill:none;stroke:#000000;stroke-width:1.5;" x="328.697263" xlink:href="#mae47207477" y="158.757431"/>
     <use style="fill:none;stroke:#000000;stroke-width:1.5;" x="358.8" xlink:href="#mae47207477" y="158.757431"/>
    </g>
   </g>
   <g id="line2d_41"/>
   <g id="line2d_42">
    <path clip-path="url(#p8473655e2f)" d="M 268.406276 197.504082 
" style="fill:none;stroke:#000000;stroke-linecap:square;stroke-width:1.5;"/>
    <defs>
     <path d="M -12 12 
L 12 -12 
M -12 -12 
L 12 12 
" id="mcc474420b5" style="stroke:#000000;stroke-width:3;"/>
    </defs>
    <g clip-path="url(#p8473655e2f)">
     <use style="stroke:#000000;stroke-width:3;" x="268.406276" xlink:href="#mcc474420b5" y="197.504082"/>
    </g>
   </g>
   <g id="line2d_43">
    <defs>
     <path d="M 0 1.5 
C 0.397805 1.5 0.77937 1.341951 1.06066 1.06066 
C 1.341951 0.77937 1.5 0.397805 1.5 0 
C 1.5 -0.397805 1.341951 -0.77937 1.06066 -1.06066 
C 0.77937 -1.341951 0.397805 -1.5 0 -1.5 
C -0.397805 -1.5 -0.77937 -1.341951 -1.06066 -1.06066 
C -1.341951 -0.77937 -1.5 -0.397805 -1.5 0 
C -1.5 0.397805 -1.341951 0.77937 -1.06066 1.06066 
C -0.77937 1.341951 -0.397805 1.5 0 1.5 
z
" id="m2f50401648" style="stroke:#ff0000;"/>
    </defs>
    <g>
     <use style="fill:#ff0000;stroke:#ff0000;" x="328.583083" xlink:href="#m2f50401648" y="189.754752"/>
     <use style="fill:#ff0000;stroke:#ff0000;" x="328.583083" xlink:href="#m2f50401648" y="189.754752"/>
    </g>
   </g>
   <g id="line2d_44">
    <path d="M 220.127636 298.245375 
L 220.127636 297.728753 
L 226.482808 297.728753 
L 226.482808 297.212131 
L 230.062097 297.212131 
L 230.107015 296.178887 
L 230.301947 296.178887 
L 230.389769 294.112399 
L 230.528548 294.112399 
L 230.548336 292.562533 
L 230.650906 292.562533 
L 230.757633 291.529289 
L 230.873382 291.529289 
L 230.873382 291.012667 
L 231.20537 291.012667 
L 231.20537 290.496045 
L 231.35678 290.496045 
L 231.35678 289.979423 
L 231.489941 289.979423 
L 231.489941 289.462801 
L 231.754415 289.462801 
L 231.754415 288.946179 
L 231.882484 288.946179 
L 231.977262 286.879691 
L 232.260103 286.879691 
L 232.316371 285.329825 
L 232.681182 285.329825 
L 232.681182 284.296581 
L 233.8524 284.296581 
L 233.8524 283.779959 
L 234.29935 283.779959 
L 234.29935 283.263337 
L 234.586745 283.263337 
L 234.688488 281.196849 
L 234.934343 281.196849 
L 234.934343 280.680226 
L 235.674917 280.680226 
L 235.674917 279.646982 
L 235.811855 279.646982 
L 235.811855 278.613738 
L 236.494321 278.613738 
L 236.494321 278.097116 
L 237.346714 278.097116 
L 237.346714 277.580494 
L 237.798031 277.580494 
L 237.798031 277.063872 
L 237.933076 277.063872 
L 238.030576 274.480762 
L 238.070334 274.480762 
L 238.12992 272.930896 
L 238.303706 272.930896 
L 238.303706 272.414274 
L 238.830096 272.414274 
L 238.830096 271.897652 
L 239.439379 271.897652 
L 239.439379 271.38103 
L 240.373491 271.38103 
L 240.373491 270.864408 
L 240.549271 270.864408 
L 240.605416 269.314542 
L 240.675267 269.314542 
L 240.675267 267.764676 
L 242.449555 267.764676 
L 242.513887 266.731432 
L 242.655414 266.731432 
L 242.655414 265.698188 
L 243.030787 265.698188 
L 243.030787 265.181566 
L 243.525966 265.181566 
L 243.525966 264.148322 
L 243.921077 264.148322 
L 244.019799 262.598456 
L 244.813086 262.598456 
L 244.813086 262.081834 
L 245.031174 262.081834 
L 245.136382 260.015346 
L 245.50057 260.015346 
L 245.609508 258.982102 
L 245.675828 258.982102 
L 245.75315 256.915614 
L 245.880024 256.915614 
L 245.880024 256.398992 
L 245.995457 256.398992 
L 245.995457 255.88237 
L 246.724336 255.88237 
L 246.724336 254.849126 
L 247.439747 254.849126 
L 247.439747 254.332504 
L 248.007064 254.332504 
L 248.007064 253.815882 
L 248.155375 253.815882 
L 248.188414 252.266016 
L 249.178736 252.266016 
L 249.184016 250.199528 
L 249.372111 250.199528 
L 249.372111 249.682906 
L 249.88293 249.682906 
L 249.986535 247.616418 
L 250.913351 247.616418 
L 250.913351 247.099796 
L 251.209845 247.099796 
L 251.209845 246.583173 
L 252.230608 246.583173 
L 252.308855 243.483441 
L 252.375969 243.483441 
L 252.375969 242.966819 
L 252.645633 242.966819 
L 252.645633 242.450197 
L 253.933181 242.450197 
L 253.933181 241.933575 
L 254.05703 241.933575 
L 254.05703 241.416953 
L 254.212364 241.416953 
L 254.212364 240.383709 
L 254.555347 240.383709 
L 254.567068 239.350465 
L 254.826341 239.350465 
L 254.826341 238.833843 
L 255.548793 238.833843 
L 255.548793 237.800599 
L 255.668396 237.800599 
L 255.668396 236.767355 
L 256.465059 236.767355 
L 256.465059 236.250733 
L 257.714747 236.250733 
L 257.791032 232.634379 
L 258.340023 232.634379 
L 258.340023 232.117757 
L 258.879601 232.117757 
L 258.879601 231.084513 
L 259.14007 231.084513 
L 259.14007 230.567891 
L 259.341803 230.567891 
L 259.341803 229.534647 
L 259.822412 229.534647 
L 259.822412 228.501403 
L 259.96782 228.501403 
L 259.96782 227.468159 
L 260.349519 227.468159 
L 260.349519 226.951537 
L 261.272128 226.951537 
L 261.371316 225.918293 
L 262.088162 225.918293 
L 262.088162 225.401671 
L 262.231025 225.401671 
L 262.231025 224.368427 
L 262.347622 224.368427 
L 262.347622 223.851805 
L 262.8272 223.851805 
L 262.8272 222.818561 
L 263.339195 222.818561 
L 263.339195 222.301939 
L 263.897234 222.301939 
L 263.897234 221.785317 
L 264.720056 221.785317 
L 264.720056 221.268695 
L 264.99158 221.268695 
L 264.99158 219.718829 
L 265.585201 219.718829 
L 265.619162 218.168963 
L 266.161423 218.168963 
L 266.161423 217.652341 
L 266.413671 217.652341 
L 266.413671 216.619097 
L 266.620569 216.619097 
L 266.620569 215.585853 
L 268.214041 215.585853 
L 268.214041 215.069231 
L 268.919468 215.069231 
L 268.980329 213.002743 
L 269.366265 213.002743 
L 269.366265 212.48612 
L 269.845139 212.48612 
L 269.945887 210.419632 
L 269.975746 210.419632 
L 269.975746 209.386388 
L 270.973977 209.386388 
L 271.068464 207.836522 
L 271.219222 207.836522 
L 271.219222 207.3199 
L 272.408394 207.3199 
L 272.446969 203.186924 
L 273.401993 203.186924 
L 273.401993 202.670302 
L 275.027084 202.670302 
L 275.027084 202.15368 
L 279.919604 202.15368 
L 279.919604 201.637058 
L 280.335745 201.637058 
L 280.335745 201.120436 
L 284.651471 201.120436 
L 284.651471 200.603814 
L 284.795068 200.603814 
L 284.804861 199.57057 
L 285.741341 199.57057 
L 285.741341 199.053948 
L 289.032144 199.053948 
L 289.032144 198.537326 
L 289.600196 198.537326 
L 289.600196 198.020704 
L 290.068593 198.020704 
L 290.068593 197.504082 
L 290.856482 197.504082 
L 290.856482 196.98746 
L 291.12645 196.98746 
L 291.151872 195.954216 
L 292.135171 195.954216 
L 292.135171 195.437594 
L 295.913366 195.437594 
L 295.913366 194.920972 
L 296.272332 194.920972 
L 296.272332 194.40435 
L 297.046434 194.40435 
L 297.046434 193.887728 
L 302.769786 193.887728 
L 302.769786 193.371106 
L 304.139273 193.371106 
L 304.139273 192.854484 
L 309.427593 192.854484 
L 309.427593 192.337862 
L 309.804186 192.337862 
L 309.804186 191.82124 
L 310.806967 191.82124 
L 310.806967 191.304618 
L 314.712192 191.304618 
L 314.712192 190.787996 
L 318.562518 190.787996 
L 318.562518 190.271374 
L 328.583083 190.271374 
L 328.583083 189.754752 
L 358.8 189.754752 
L 358.8 189.754752 
" style="fill:none;stroke:#ff0000;stroke-linecap:square;stroke-width:1.5;"/>
   </g>
   <g id="line2d_45">
    <defs>
     <path d="M -6 6 
L 6 6 
L 6 -6 
L -6 -6 
z
" id="m3a04ba7da2" style="stroke:#ff0000;stroke-linejoin:miter;stroke-width:1.5;"/>
    </defs>
    <g>
     <use style="fill:none;stroke:#ff0000;stroke-linejoin:miter;stroke-width:1.5;" x="249.372111" xlink:href="#m3a04ba7da2" y="250.199528"/>
     <use style="fill:none;stroke:#ff0000;stroke-linejoin:miter;stroke-width:1.5;" x="314.712192" xlink:href="#m3a04ba7da2" y="191.304618"/>
     <use style="fill:none;stroke:#ff0000;stroke-linejoin:miter;stroke-width:1.5;" x="328.583083" xlink:href="#m3a04ba7da2" y="189.754752"/>
     <use style="fill:none;stroke:#ff0000;stroke-linejoin:miter;stroke-width:1.5;" x="358.8" xlink:href="#m3a04ba7da2" y="189.754752"/>
    </g>
   </g>
   <g id="line2d_46"/>
   <g id="line2d_47">
    <path clip-path="url(#p8473655e2f)" d="M 272.12294 207.3199 
" style="fill:none;stroke:#ff0000;stroke-linecap:square;stroke-width:1.5;"/>
    <defs>
     <path d="M -12 12 
L 12 -12 
M -12 -12 
L 12 12 
" id="m250c5a7a2f" style="stroke:#ff0000;stroke-width:3;"/>
    </defs>
    <g clip-path="url(#p8473655e2f)">
     <use style="fill:#ff0000;stroke:#ff0000;stroke-width:3;" x="272.12294" xlink:href="#m250c5a7a2f" y="207.3199"/>
    </g>
   </g>
   <g id="line2d_48">
    <path d="M 358.8 189.754752 
L 390.48 292.97583 
" style="fill:none;stroke:#ff0000;stroke-linecap:square;stroke-width:1.5;"/>
    <g>
     <use style="fill:none;stroke:#ff0000;stroke-linejoin:miter;stroke-width:1.5;" x="358.8" xlink:href="#m3a04ba7da2" y="189.754752"/>
     <use style="fill:none;stroke:#ff0000;stroke-linejoin:miter;stroke-width:1.5;" x="390.48" xlink:href="#m3a04ba7da2" y="292.97583"/>
    </g>
   </g>
   <g id="line2d_49">
    <path d="M 358.8 158.757431 
L 390.48 229.741296 
" style="fill:none;stroke:#000000;stroke-linecap:square;stroke-width:1.5;"/>
    <g>
     <use style="fill:none;stroke:#000000;stroke-width:1.5;" x="358.8" xlink:href="#mae47207477" y="158.757431"/>
     <use style="fill:none;stroke:#000000;stroke-width:1.5;" x="390.48" xlink:href="#mae47207477" y="229.741296"/>
    </g>
   </g>
   <g id="line2d_50">
    <path d="M 358.8 138.09255 
L 390.48 166.506761 
" style="fill:none;stroke:#008000;stroke-linecap:square;stroke-width:1.5;"/>
    <g>
     <use style="fill:none;stroke:#008000;stroke-linejoin:miter;stroke-width:1.5;" x="358.8" xlink:href="#m2b188b43be" y="138.09255"/>
     <use style="fill:none;stroke:#008000;stroke-linejoin:miter;stroke-width:1.5;" x="390.48" xlink:href="#m2b188b43be" y="166.506761"/>
    </g>
   </g>
   <g id="line2d_51">
    <path d="M 358.8 138.09255 
L 390.48 103.272226 
" style="fill:none;stroke:#0000ff;stroke-linecap:square;stroke-width:1.5;"/>
    <g>
     <use style="fill:none;stroke:#0000ff;stroke-linejoin:bevel;stroke-width:1.5;" x="358.8" xlink:href="#m369b40e5e2" y="138.09255"/>
     <use style="fill:none;stroke:#0000ff;stroke-linejoin:bevel;stroke-width:1.5;" x="390.48" xlink:href="#m369b40e5e2" y="103.272226"/>
    </g>
   </g>
   <g id="line2d_52">
    <path d="M 358.8 107.095229 
L 390.48 40.037692 
" style="fill:none;stroke:#00bfbf;stroke-linecap:square;stroke-width:1.5;"/>
    <g>
     <use style="fill:none;stroke:#00bfbf;stroke-width:1.5;" x="358.8" xlink:href="#m47da6e48e8" y="107.095229"/>
     <use style="fill:none;stroke:#00bfbf;stroke-width:1.5;" x="390.48" xlink:href="#m47da6e48e8" y="40.037692"/>
    </g>
   </g>
   <g id="line2d_53">
    <path d="M 358.8 298.245375 
L 358.8 34.768147 
" style="fill:none;stroke:#000000;stroke-linecap:square;stroke-width:1.5;"/>
   </g>
   <g id="patch_3">
    <path d="M 70.8 298.245375 
L 70.8 32.133375 
" style="fill:none;stroke:#000000;stroke-linecap:square;stroke-linejoin:miter;stroke-width:0.8;"/>
   </g>
   <g id="patch_4">
    <path d="M 427.92 298.245375 
L 427.92 32.133375 
" style="fill:none;stroke:#000000;stroke-linecap:square;stroke-linejoin:miter;stroke-width:0.8;"/>
   </g>
   <g id="patch_5">
    <path d="M 70.8 298.245375 
L 427.92 298.245375 
" style="fill:none;stroke:#000000;stroke-linecap:square;stroke-linejoin:miter;stroke-width:0.8;"/>
   </g>
   <g id="patch_6">
    <path d="M 70.8 32.133375 
L 427.92 32.133375 
" style="fill:none;stroke:#000000;stroke-linecap:square;stroke-linejoin:miter;stroke-width:0.8;"/>
   </g>
   <g id="text_14">
    <!-- 20-D -->
    <defs>
     <path d="M 19.671875 64.796875 
L 19.671875 8.109375 
L 31.59375 8.109375 
Q 46.6875 8.109375 53.6875 14.9375 
Q 60.6875 21.78125 60.6875 36.53125 
Q 60.6875 51.171875 53.6875 57.984375 
Q 46.6875 64.796875 31.59375 64.796875 
z
M 9.8125 72.90625 
L 30.078125 72.90625 
Q 51.265625 72.90625 61.171875 64.09375 
Q 71.09375 55.28125 71.09375 36.53125 
Q 71.09375 17.671875 61.125 8.828125 
Q 51.171875 0 30.078125 0 
L 9.8125 0 
z
" id="DejaVuSans-44"/>
    </defs>
    <g transform="translate(396.24 297.114893)scale(0.15 -0.15)">
     <use xlink:href="#DejaVuSans-32"/>
     <use x="63.623047" xlink:href="#DejaVuSans-30"/>
     <use x="127.246094" xlink:href="#DejaVuSans-2d"/>
     <use x="163.330078" xlink:href="#DejaVuSans-44"/>
    </g>
   </g>
   <g id="text_15">
    <!-- 10-D -->
    <g transform="translate(396.24 233.880358)scale(0.15 -0.15)">
     <use xlink:href="#DejaVuSans-31"/>
     <use x="63.623047" xlink:href="#DejaVuSans-30"/>
     <use x="127.246094" xlink:href="#DejaVuSans-2d"/>
     <use x="163.330078" xlink:href="#DejaVuSans-44"/>
    </g>
   </g>
   <g id="text_16">
    <!-- 3-D -->
    <defs>
     <path d="M 40.578125 39.3125 
Q 47.65625 37.796875 51.625 33 
Q 55.609375 28.21875 55.609375 21.1875 
Q 55.609375 10.40625 48.1875 4.484375 
Q 40.765625 -1.421875 27.09375 -1.421875 
Q 22.515625 -1.421875 17.65625 -0.515625 
Q 12.796875 0.390625 7.625 2.203125 
L 7.625 11.71875 
Q 11.71875 9.328125 16.59375 8.109375 
Q 21.484375 6.890625 26.8125 6.890625 
Q 36.078125 6.890625 40.9375 10.546875 
Q 45.796875 14.203125 45.796875 21.1875 
Q 45.796875 27.640625 41.28125 31.265625 
Q 36.765625 34.90625 28.71875 34.90625 
L 20.21875 34.90625 
L 20.21875 43.015625 
L 29.109375 43.015625 
Q 36.375 43.015625 40.234375 45.921875 
Q 44.09375 48.828125 44.09375 54.296875 
Q 44.09375 59.90625 40.109375 62.90625 
Q 36.140625 65.921875 28.71875 65.921875 
Q 24.65625 65.921875 20.015625 65.03125 
Q 15.375 64.15625 9.8125 62.3125 
L 9.8125 71.09375 
Q 15.4375 72.65625 20.34375 73.4375 
Q 25.25 74.21875 29.59375 74.21875 
Q 40.828125 74.21875 47.359375 69.109375 
Q 53.90625 64.015625 53.90625 55.328125 
Q 53.90625 49.265625 50.4375 45.09375 
Q 46.96875 40.921875 40.578125 39.3125 
z
" id="DejaVuSans-33"/>
    </defs>
    <g transform="translate(396.24 170.645824)scale(0.15 -0.15)">
     <use xlink:href="#DejaVuSans-33"/>
     <use x="63.623047" xlink:href="#DejaVuSans-2d"/>
     <use x="99.707031" xlink:href="#DejaVuSans-44"/>
    </g>
   </g>
   <g id="text_17">
    <!-- 5-D -->
    <defs>
     <path d="M 10.796875 72.90625 
L 49.515625 72.90625 
L 49.515625 64.59375 
L 19.828125 64.59375 
L 19.828125 46.734375 
Q 21.96875 47.46875 24.109375 47.828125 
Q 26.265625 48.1875 28.421875 48.1875 
Q 40.625 48.1875 47.75 41.5 
Q 54.890625 34.8125 54.890625 23.390625 
Q 54.890625 11.625 47.5625 5.09375 
Q 40.234375 -1.421875 26.90625 -1.421875 
Q 22.3125 -1.421875 17.546875 -0.640625 
Q 12.796875 0.140625 7.71875 1.703125 
L 7.71875 11.625 
Q 12.109375 9.234375 16.796875 8.0625 
Q 21.484375 6.890625 26.703125 6.890625 
Q 35.15625 6.890625 40.078125 11.328125 
Q 45.015625 15.765625 45.015625 23.390625 
Q 45.015625 31 40.078125 35.4375 
Q 35.15625 39.890625 26.703125 39.890625 
Q 22.75 39.890625 18.8125 39.015625 
Q 14.890625 38.140625 10.796875 36.28125 
z
" id="DejaVuSans-35"/>
    </defs>
    <g transform="translate(396.24 107.411289)scale(0.15 -0.15)">
     <use xlink:href="#DejaVuSans-35"/>
     <use x="63.623047" xlink:href="#DejaVuSans-2d"/>
     <use x="99.707031" xlink:href="#DejaVuSans-44"/>
    </g>
   </g>
   <g id="text_18">
    <!-- 2-D -->
    <g transform="translate(396.24 44.176754)scale(0.15 -0.15)">
     <use xlink:href="#DejaVuSans-32"/>
     <use x="63.623047" xlink:href="#DejaVuSans-2d"/>
     <use x="99.707031" xlink:href="#DejaVuSans-44"/>
    </g>
   </g>
   <g id="text_19">
    <!-- bbob - f2 -->
    <defs>
     <path d="M 48.6875 27.296875 
Q 48.6875 37.203125 44.609375 42.84375 
Q 40.53125 48.484375 33.40625 48.484375 
Q 26.265625 48.484375 22.1875 42.84375 
Q 18.109375 37.203125 18.109375 27.296875 
Q 18.109375 17.390625 22.1875 11.75 
Q 26.265625 6.109375 33.40625 6.109375 
Q 40.53125 6.109375 44.609375 11.75 
Q 48.6875 17.390625 48.6875 27.296875 
z
M 18.109375 46.390625 
Q 20.953125 51.265625 25.265625 53.625 
Q 29.59375 56 35.59375 56 
Q 45.5625 56 51.78125 48.09375 
Q 58.015625 40.1875 58.015625 27.296875 
Q 58.015625 14.40625 51.78125 6.484375 
Q 45.5625 -1.421875 35.59375 -1.421875 
Q 29.59375 -1.421875 25.265625 0.953125 
Q 20.953125 3.328125 18.109375 8.203125 
L 18.109375 0 
L 9.078125 0 
L 9.078125 75.984375 
L 18.109375 75.984375 
z
" id="DejaVuSans-62"/>
    </defs>
    <g transform="translate(74.3712 50.114612)scale(0.1666 -0.1666)">
     <use xlink:href="#DejaVuSans-62"/>
     <use x="63.476562" xlink:href="#DejaVuSans-62"/>
     <use x="126.953125" xlink:href="#DejaVuSans-6f"/>
     <use x="188.134766" xlink:href="#DejaVuSans-62"/>
     <use x="251.611328" xlink:href="#DejaVuSans-20"/>
     <use x="283.398438" xlink:href="#DejaVuSans-2d"/>
     <use x="319.482422" xlink:href="#DejaVuSans-20"/>
     <use x="351.269531" xlink:href="#DejaVuSans-66"/>
     <use x="386.474609" xlink:href="#DejaVuSans-32"/>
    </g>
    <!-- 51 targets in 100..1e-08 -->
    <g transform="translate(74.3712 68.770168)scale(0.1666 -0.1666)">
     <use xlink:href="#DejaVuSans-35"/>
     <use x="63.623047" xlink:href="#DejaVuSans-31"/>
     <use x="127.246094" xlink:href="#DejaVuSans-20"/>
     <use x="159.033203" xlink:href="#DejaVuSans-74"/>
     <use x="198.242188" xlink:href="#DejaVuSans-61"/>
     <use x="259.521484" xlink:href="#DejaVuSans-72"/>
     <use x="300.619141" xlink:href="#DejaVuSans-67"/>
     <use x="364.095703" xlink:href="#DejaVuSans-65"/>
     <use x="425.619141" xlink:href="#DejaVuSans-74"/>
     <use x="464.828125" xlink:href="#DejaVuSans-73"/>
     <use x="516.927734" xlink:href="#DejaVuSans-20"/>
     <use x="548.714844" xlink:href="#DejaVuSans-69"/>
     <use x="576.498047" xlink:href="#DejaVuSans-6e"/>
     <use x="639.876953" xlink:href="#DejaVuSans-20"/>
     <use x="671.664062" xlink:href="#DejaVuSans-31"/>
     <use x="735.287109" xlink:href="#DejaVuSans-30"/>
     <use x="798.910156" xlink:href="#DejaVuSans-30"/>
     <use x="862.533203" xlink:href="#DejaVuSans-2e"/>
     <use x="894.320312" xlink:href="#DejaVuSans-2e"/>
     <use x="926.107422" xlink:href="#DejaVuSans-31"/>
     <use x="989.730469" xlink:href="#DejaVuSans-65"/>
     <use x="1051.253906" xlink:href="#DejaVuSans-2d"/>
     <use x="1087.337891" xlink:href="#DejaVuSans-30"/>
     <use x="1150.960938" xlink:href="#DejaVuSans-38"/>
    </g>
    <!-- 15 instances -->
    <g transform="translate(74.3712 87.425723)scale(0.1666 -0.1666)">
     <use xlink:href="#DejaVuSans-31"/>
     <use x="63.623047" xlink:href="#DejaVuSans-35"/>
     <use x="127.246094" xlink:href="#DejaVuSans-20"/>
     <use x="159.033203" xlink:href="#DejaVuSans-69"/>
     <use x="186.816406" xlink:href="#DejaVuSans-6e"/>
     <use x="250.195312" xlink:href="#DejaVuSans-73"/>
     <use x="302.294922" xlink:href="#DejaVuSans-74"/>
     <use x="341.503906" xlink:href="#DejaVuSans-61"/>
     <use x="402.783203" xlink:href="#DejaVuSans-6e"/>
     <use x="466.162109" xlink:href="#DejaVuSans-63"/>
     <use x="521.142578" xlink:href="#DejaVuSans-65"/>
     <use x="582.666016" xlink:href="#DejaVuSans-73"/>
    </g>
   </g>
   <g id="text_20">
    <!-- v0.0.0 -->
    <g style="fill:#808080;" transform="translate(233.67875 293.504568)scale(0.1 -0.1)">
     <use xlink:href="#DejaVuSans-76"/>
     <use x="59.179688" xlink:href="#DejaVuSans-30"/>
     <use x="122.802734" xlink:href="#DejaVuSans-2e"/>
     <use x="154.589844" xlink:href="#DejaVuSans-30"/>
     <use x="218.212891" xlink:href="#DejaVuSans-2e"/>
     <use x="250" xlink:href="#DejaVuSans-30"/>
    </g>
   </g>
   <g id="text_21">
    <!-- 2 Ellipsoid separable -->
    <defs>
     <path d="M 9.8125 72.90625 
L 55.90625 72.90625 
L 55.90625 64.59375 
L 19.671875 64.59375 
L 19.671875 43.015625 
L 54.390625 43.015625 
L 54.390625 34.71875 
L 19.671875 34.71875 
L 19.671875 8.296875 
L 56.78125 8.296875 
L 56.78125 0 
L 9.8125 0 
z
" id="DejaVuSans-45"/>
    </defs>
    <g transform="translate(125.120625 26.133375)scale(0.24 -0.24)">
     <use xlink:href="#DejaVuSans-32"/>
     <use x="63.623047" xlink:href="#DejaVuSans-20"/>
     <use x="95.410156" xlink:href="#DejaVuSans-45"/>
     <use x="158.59375" xlink:href="#DejaVuSans-6c"/>
     <use x="186.376953" xlink:href="#DejaVuSans-6c"/>
     <use x="214.160156" xlink:href="#DejaVuSans-69"/>
     <use x="241.943359" xlink:href="#DejaVuSans-70"/>
     <use x="305.419922" xlink:href="#DejaVuSans-73"/>
     <use x="357.519531" xlink:href="#DejaVuSans-6f"/>
     <use x="418.701172" xlink:href="#DejaVuSans-69"/>
     <use x="446.484375" xlink:href="#DejaVuSans-64"/>
     <use x="509.960938" xlink:href="#DejaVuSans-20"/>
     <use x="541.748047" xlink:href="#DejaVuSans-73"/>
     <use x="593.847656" xlink:href="#DejaVuSans-65"/>
     <use x="655.371094" xlink:href="#DejaVuSans-70"/>
     <use x="718.847656" xlink:href="#DejaVuSans-61"/>
     <use x="780.126953" xlink:href="#DejaVuSans-72"/>
     <use x="821.240234" xlink:href="#DejaVuSans-61"/>
     <use x="882.519531" xlink:href="#DejaVuSans-62"/>
     <use x="945.996094" xlink:href="#DejaVuSans-6c"/>
     <use x="973.779297" xlink:href="#DejaVuSans-65"/>
    </g>
   </g>
  </g>
 </g>
 <defs>
  <clipPath id="p8473655e2f">
   <rect height="266.112" width="357.12" x="70.8" y="32.133375"/>
  </clipPath>
 </defs>
</svg>
