<?xml version="1.0" encoding="utf-8" standalone="no"?>
<!DOCTYPE svg PUBLIC "-//W3C//DTD SVG 1.1//EN"
  "http://www.w3.org/Graphics/SVG/1.1/DTD/svg11.dtd">
<!-- Created with matplotlib (http://matplotlib.org/) -->
<svg height="353pt" version="1.1" viewBox="0 0 438 353" width="438pt" xmlns="http://www.w3.org/2000/svg" xmlns:xlink="http://www.w3.org/1999/xlink">
 <defs>
  <style type="text/css">
*{stroke-linecap:butt;stroke-linejoin:round;}
  </style>
 </defs>
 <g id="figure_1">
  <g id="patch_1">
   <path d="M 0 353.22225 
L 438.62 353.22225 
L 438.62 0 
L 0 0 
z
" style="fill:#ffffff;"/>
  </g>
  <g id="axes_1">
   <g id="patch_2">
    <path d="M 70.8 298.245375 
L 427.92 298.245375 
L 427.92 32.133375 
L 70.8 32.133375 
z
" style="fill:#ffffff;"/>
   </g>
   <g id="matplotlib.axis_1">
    <g id="xtick_1">
     <g id="line2d_1">
      <path clip-path="url(#p495e60b031)" d="M 70.8 298.245375 
L 70.8 32.133375 
" style="fill:none;stroke:#b0b0b0;stroke-linecap:square;stroke-width:0.8;"/>
     </g>
     <g id="line2d_2">
      <defs>
       <path d="M 0 0 
L 0 3.5 
" id="m586bf8639c" style="stroke:#000000;stroke-width:0.8;"/>
      </defs>
      <g>
       <use style="stroke:#000000;stroke-width:0.8;" x="70.8" xlink:href="#m586bf8639c" y="298.245375"/>
      </g>
     </g>
     <g id="text_1">
      <!-- 0 -->
      <defs>
       <path d="M 31.78125 66.40625 
Q 24.171875 66.40625 20.328125 58.90625 
Q 16.5 51.421875 16.5 36.375 
Q 16.5 21.390625 20.328125 13.890625 
Q 24.171875 6.390625 31.78125 6.390625 
Q 39.453125 6.390625 43.28125 13.890625 
Q 47.125 21.390625 47.125 36.375 
Q 47.125 51.421875 43.28125 58.90625 
Q 39.453125 66.40625 31.78125 66.40625 
z
M 31.78125 74.21875 
Q 44.046875 74.21875 50.515625 64.515625 
Q 56.984375 54.828125 56.984375 36.375 
Q 56.984375 17.96875 50.515625 8.265625 
Q 44.046875 -1.421875 31.78125 -1.421875 
Q 19.53125 -1.421875 13.0625 8.265625 
Q 6.59375 17.96875 6.59375 36.375 
Q 6.59375 54.828125 13.0625 64.515625 
Q 19.53125 74.21875 31.78125 74.21875 
z
" id="DejaVuSans-30"/>
      </defs>
      <g transform="translate(64.4375 320.44225)scale(0.2 -0.2)">
       <use xlink:href="#DejaVuSans-30"/>
      </g>
     </g>
    </g>
    <g id="xtick_2">
     <g id="line2d_3">
      <path clip-path="url(#p495e60b031)" d="M 153.085714 298.245375 
L 153.085714 32.133375 
" style="fill:none;stroke:#b0b0b0;stroke-linecap:square;stroke-width:0.8;"/>
     </g>
     <g id="line2d_4">
      <g>
       <use style="stroke:#000000;stroke-width:0.8;" x="153.085714" xlink:href="#m586bf8639c" y="298.245375"/>
      </g>
     </g>
     <g id="text_2">
      <!-- 2 -->
      <defs>
       <path d="M 19.1875 8.296875 
L 53.609375 8.296875 
L 53.609375 0 
L 7.328125 0 
L 7.328125 8.296875 
Q 12.9375 14.109375 22.625 23.890625 
Q 32.328125 33.6875 34.8125 36.53125 
Q 39.546875 41.84375 41.421875 45.53125 
Q 43.3125 49.21875 43.3125 52.78125 
Q 43.3125 58.59375 39.234375 62.25 
Q 35.15625 65.921875 28.609375 65.921875 
Q 23.96875 65.921875 18.8125 64.3125 
Q 13.671875 62.703125 7.8125 59.421875 
L 7.8125 69.390625 
Q 13.765625 71.78125 18.9375 73 
Q 24.125 74.21875 28.421875 74.21875 
Q 39.75 74.21875 46.484375 68.546875 
Q 53.21875 62.890625 53.21875 53.421875 
Q 53.21875 48.921875 51.53125 44.890625 
Q 49.859375 40.875 45.40625 35.40625 
Q 44.1875 33.984375 37.640625 27.21875 
Q 31.109375 20.453125 19.1875 8.296875 
z
" id="DejaVuSans-32"/>
      </defs>
      <g transform="translate(146.723214 320.44225)scale(0.2 -0.2)">
       <use xlink:href="#DejaVuSans-32"/>
      </g>
     </g>
    </g>
    <g id="xtick_3">
     <g id="line2d_5">
      <path clip-path="url(#p495e60b031)" d="M 235.371429 298.245375 
L 235.371429 32.133375 
" style="fill:none;stroke:#b0b0b0;stroke-linecap:square;stroke-width:0.8;"/>
     </g>
     <g id="line2d_6">
      <g>
       <use style="stroke:#000000;stroke-width:0.8;" x="235.371429" xlink:href="#m586bf8639c" y="298.245375"/>
      </g>
     </g>
     <g id="text_3">
      <!-- 4 -->
      <defs>
       <path d="M 37.796875 64.3125 
L 12.890625 25.390625 
L 37.796875 25.390625 
z
M 35.203125 72.90625 
L 47.609375 72.90625 
L 47.609375 25.390625 
L 58.015625 25.390625 
L 58.015625 17.1875 
L 47.609375 17.1875 
L 47.609375 0 
L 37.796875 0 
L 37.796875 17.1875 
L 4.890625 17.1875 
L 4.890625 26.703125 
z
" id="DejaVuSans-34"/>
      </defs>
      <g transform="translate(229.008929 320.44225)scale(0.2 -0.2)">
       <use xlink:href="#DejaVuSans-34"/>
      </g>
     </g>
    </g>
    <g id="xtick_4">
     <g id="line2d_7">
      <path clip-path="url(#p495e60b031)" d="M 317.657143 298.245375 
L 317.657143 32.133375 
" style="fill:none;stroke:#b0b0b0;stroke-linecap:square;stroke-width:0.8;"/>
     </g>
     <g id="line2d_8">
      <g>
       <use style="stroke:#000000;stroke-width:0.8;" x="317.657143" xlink:href="#m586bf8639c" y="298.245375"/>
      </g>
     </g>
     <g id="text_4">
      <!-- 6 -->
      <defs>
       <path d="M 33.015625 40.375 
Q 26.375 40.375 22.484375 35.828125 
Q 18.609375 31.296875 18.609375 23.390625 
Q 18.609375 15.53125 22.484375 10.953125 
Q 26.375 6.390625 33.015625 6.390625 
Q 39.65625 6.390625 43.53125 10.953125 
Q 47.40625 15.53125 47.40625 23.390625 
Q 47.40625 31.296875 43.53125 35.828125 
Q 39.65625 40.375 33.015625 40.375 
z
M 52.59375 71.296875 
L 52.59375 62.3125 
Q 48.875 64.0625 45.09375 64.984375 
Q 41.3125 65.921875 37.59375 65.921875 
Q 27.828125 65.921875 22.671875 59.328125 
Q 17.53125 52.734375 16.796875 39.40625 
Q 19.671875 43.65625 24.015625 45.921875 
Q 28.375 48.1875 33.59375 48.1875 
Q 44.578125 48.1875 50.953125 41.515625 
Q 57.328125 34.859375 57.328125 23.390625 
Q 57.328125 12.15625 50.6875 5.359375 
Q 44.046875 -1.421875 33.015625 -1.421875 
Q 20.359375 -1.421875 13.671875 8.265625 
Q 6.984375 17.96875 6.984375 36.375 
Q 6.984375 53.65625 15.1875 63.9375 
Q 23.390625 74.21875 37.203125 74.21875 
Q 40.921875 74.21875 44.703125 73.484375 
Q 48.484375 72.75 52.59375 71.296875 
z
" id="DejaVuSans-36"/>
      </defs>
      <g transform="translate(311.294643 320.44225)scale(0.2 -0.2)">
       <use xlink:href="#DejaVuSans-36"/>
      </g>
     </g>
    </g>
    <g id="xtick_5">
     <g id="line2d_9">
      <path clip-path="url(#p495e60b031)" d="M 399.942857 298.245375 
L 399.942857 32.133375 
" style="fill:none;stroke:#b0b0b0;stroke-linecap:square;stroke-width:0.8;"/>
     </g>
     <g id="line2d_10">
      <g>
       <use style="stroke:#000000;stroke-width:0.8;" x="399.942857" xlink:href="#m586bf8639c" y="298.245375"/>
      </g>
     </g>
     <g id="text_5">
      <!-- 8 -->
      <defs>
       <path d="M 31.78125 34.625 
Q 24.75 34.625 20.71875 30.859375 
Q 16.703125 27.09375 16.703125 20.515625 
Q 16.703125 13.921875 20.71875 10.15625 
Q 24.75 6.390625 31.78125 6.390625 
Q 38.8125 6.390625 42.859375 10.171875 
Q 46.921875 13.96875 46.921875 20.515625 
Q 46.921875 27.09375 42.890625 30.859375 
Q 38.875 34.625 31.78125 34.625 
z
M 21.921875 38.8125 
Q 15.578125 40.375 12.03125 44.71875 
Q 8.5 49.078125 8.5 55.328125 
Q 8.5 64.0625 14.71875 69.140625 
Q 20.953125 74.21875 31.78125 74.21875 
Q 42.671875 74.21875 48.875 69.140625 
Q 55.078125 64.0625 55.078125 55.328125 
Q 55.078125 49.078125 51.53125 44.71875 
Q 48 40.375 41.703125 38.8125 
Q 48.828125 37.15625 52.796875 32.3125 
Q 56.78125 27.484375 56.78125 20.515625 
Q 56.78125 9.90625 50.3125 4.234375 
Q 43.84375 -1.421875 31.78125 -1.421875 
Q 19.734375 -1.421875 13.25 4.234375 
Q 6.78125 9.90625 6.78125 20.515625 
Q 6.78125 27.484375 10.78125 32.3125 
Q 14.796875 37.15625 21.921875 38.8125 
z
M 18.3125 54.390625 
Q 18.3125 48.734375 21.84375 45.5625 
Q 25.390625 42.390625 31.78125 42.390625 
Q 38.140625 42.390625 41.71875 45.5625 
Q 45.3125 48.734375 45.3125 54.390625 
Q 45.3125 60.0625 41.71875 63.234375 
Q 38.140625 66.40625 31.78125 66.40625 
Q 25.390625 66.40625 21.84375 63.234375 
Q 18.3125 60.0625 18.3125 54.390625 
z
" id="DejaVuSans-38"/>
      </defs>
      <g transform="translate(393.580357 320.44225)scale(0.2 -0.2)">
       <use xlink:href="#DejaVuSans-38"/>
      </g>
     </g>
    </g>
    <g id="text_6">
     <!-- log10 of (# f-evals / dimension) -->
     <defs>
      <path d="M 9.421875 75.984375 
L 18.40625 75.984375 
L 18.40625 0 
L 9.421875 0 
z
" id="DejaVuSans-6c"/>
      <path d="M 30.609375 48.390625 
Q 23.390625 48.390625 19.1875 42.75 
Q 14.984375 37.109375 14.984375 27.296875 
Q 14.984375 17.484375 19.15625 11.84375 
Q 23.34375 6.203125 30.609375 6.203125 
Q 37.796875 6.203125 41.984375 11.859375 
Q 46.1875 17.53125 46.1875 27.296875 
Q 46.1875 37.015625 41.984375 42.703125 
Q 37.796875 48.390625 30.609375 48.390625 
z
M 30.609375 56 
Q 42.328125 56 49.015625 48.375 
Q 55.71875 40.765625 55.71875 27.296875 
Q 55.71875 13.875 49.015625 6.21875 
Q 42.328125 -1.421875 30.609375 -1.421875 
Q 18.84375 -1.421875 12.171875 6.21875 
Q 5.515625 13.875 5.515625 27.296875 
Q 5.515625 40.765625 12.171875 48.375 
Q 18.84375 56 30.609375 56 
z
" id="DejaVuSans-6f"/>
      <path d="M 45.40625 27.984375 
Q 45.40625 37.75 41.375 43.109375 
Q 37.359375 48.484375 30.078125 48.484375 
Q 22.859375 48.484375 18.828125 43.109375 
Q 14.796875 37.75 14.796875 27.984375 
Q 14.796875 18.265625 18.828125 12.890625 
Q 22.859375 7.515625 30.078125 7.515625 
Q 37.359375 7.515625 41.375 12.890625 
Q 45.40625 18.265625 45.40625 27.984375 
z
M 54.390625 6.78125 
Q 54.390625 -7.171875 48.1875 -13.984375 
Q 42 -20.796875 29.203125 -20.796875 
Q 24.46875 -20.796875 20.265625 -20.09375 
Q 16.0625 -19.390625 12.109375 -17.921875 
L 12.109375 -9.1875 
Q 16.0625 -11.328125 19.921875 -12.34375 
Q 23.78125 -13.375 27.78125 -13.375 
Q 36.625 -13.375 41.015625 -8.765625 
Q 45.40625 -4.15625 45.40625 5.171875 
L 45.40625 9.625 
Q 42.625 4.78125 38.28125 2.390625 
Q 33.9375 0 27.875 0 
Q 17.828125 0 11.671875 7.65625 
Q 5.515625 15.328125 5.515625 27.984375 
Q 5.515625 40.671875 11.671875 48.328125 
Q 17.828125 56 27.875 56 
Q 33.9375 56 38.28125 53.609375 
Q 42.625 51.21875 45.40625 46.390625 
L 45.40625 54.6875 
L 54.390625 54.6875 
z
" id="DejaVuSans-67"/>
      <path d="M 12.40625 8.296875 
L 28.515625 8.296875 
L 28.515625 63.921875 
L 10.984375 60.40625 
L 10.984375 69.390625 
L 28.421875 72.90625 
L 38.28125 72.90625 
L 38.28125 8.296875 
L 54.390625 8.296875 
L 54.390625 0 
L 12.40625 0 
z
" id="DejaVuSans-31"/>
      <path id="DejaVuSans-20"/>
      <path d="M 37.109375 75.984375 
L 37.109375 68.5 
L 28.515625 68.5 
Q 23.6875 68.5 21.796875 66.546875 
Q 19.921875 64.59375 19.921875 59.515625 
L 19.921875 54.6875 
L 34.71875 54.6875 
L 34.71875 47.703125 
L 19.921875 47.703125 
L 19.921875 0 
L 10.890625 0 
L 10.890625 47.703125 
L 2.296875 47.703125 
L 2.296875 54.6875 
L 10.890625 54.6875 
L 10.890625 58.5 
Q 10.890625 67.625 15.140625 71.796875 
Q 19.390625 75.984375 28.609375 75.984375 
z
" id="DejaVuSans-66"/>
      <path d="M 31 75.875 
Q 24.46875 64.65625 21.28125 53.65625 
Q 18.109375 42.671875 18.109375 31.390625 
Q 18.109375 20.125 21.3125 9.0625 
Q 24.515625 -2 31 -13.1875 
L 23.1875 -13.1875 
Q 15.875 -1.703125 12.234375 9.375 
Q 8.59375 20.453125 8.59375 31.390625 
Q 8.59375 42.28125 12.203125 53.3125 
Q 15.828125 64.359375 23.1875 75.875 
z
" id="DejaVuSans-28"/>
      <path d="M 51.125 44 
L 36.921875 44 
L 32.8125 27.6875 
L 47.125 27.6875 
z
M 43.796875 71.78125 
L 38.71875 51.515625 
L 52.984375 51.515625 
L 58.109375 71.78125 
L 65.921875 71.78125 
L 60.890625 51.515625 
L 76.125 51.515625 
L 76.125 44 
L 58.984375 44 
L 54.984375 27.6875 
L 70.515625 27.6875 
L 70.515625 20.21875 
L 53.078125 20.21875 
L 48 0 
L 40.1875 0 
L 45.21875 20.21875 
L 30.90625 20.21875 
L 25.875 0 
L 18.015625 0 
L 23.09375 20.21875 
L 7.71875 20.21875 
L 7.71875 27.6875 
L 24.90625 27.6875 
L 29 44 
L 13.28125 44 
L 13.28125 51.515625 
L 30.90625 51.515625 
L 35.890625 71.78125 
z
" id="DejaVuSans-23"/>
      <path d="M 4.890625 31.390625 
L 31.203125 31.390625 
L 31.203125 23.390625 
L 4.890625 23.390625 
z
" id="DejaVuSans-2d"/>
      <path d="M 56.203125 29.59375 
L 56.203125 25.203125 
L 14.890625 25.203125 
Q 15.484375 15.921875 20.484375 11.0625 
Q 25.484375 6.203125 34.421875 6.203125 
Q 39.59375 6.203125 44.453125 7.46875 
Q 49.3125 8.734375 54.109375 11.28125 
L 54.109375 2.78125 
Q 49.265625 0.734375 44.1875 -0.34375 
Q 39.109375 -1.421875 33.890625 -1.421875 
Q 20.796875 -1.421875 13.15625 6.1875 
Q 5.515625 13.8125 5.515625 26.8125 
Q 5.515625 40.234375 12.765625 48.109375 
Q 20.015625 56 32.328125 56 
Q 43.359375 56 49.78125 48.890625 
Q 56.203125 41.796875 56.203125 29.59375 
z
M 47.21875 32.234375 
Q 47.125 39.59375 43.09375 43.984375 
Q 39.0625 48.390625 32.421875 48.390625 
Q 24.90625 48.390625 20.390625 44.140625 
Q 15.875 39.890625 15.1875 32.171875 
z
" id="DejaVuSans-65"/>
      <path d="M 2.984375 54.6875 
L 12.5 54.6875 
L 29.59375 8.796875 
L 46.6875 54.6875 
L 56.203125 54.6875 
L 35.6875 0 
L 23.484375 0 
z
" id="DejaVuSans-76"/>
      <path d="M 34.28125 27.484375 
Q 23.390625 27.484375 19.1875 25 
Q 14.984375 22.515625 14.984375 16.5 
Q 14.984375 11.71875 18.140625 8.90625 
Q 21.296875 6.109375 26.703125 6.109375 
Q 34.1875 6.109375 38.703125 11.40625 
Q 43.21875 16.703125 43.21875 25.484375 
L 43.21875 27.484375 
z
M 52.203125 31.203125 
L 52.203125 0 
L 43.21875 0 
L 43.21875 8.296875 
Q 40.140625 3.328125 35.546875 0.953125 
Q 30.953125 -1.421875 24.3125 -1.421875 
Q 15.921875 -1.421875 10.953125 3.296875 
Q 6 8.015625 6 15.921875 
Q 6 25.140625 12.171875 29.828125 
Q 18.359375 34.515625 30.609375 34.515625 
L 43.21875 34.515625 
L 43.21875 35.40625 
Q 43.21875 41.609375 39.140625 45 
Q 35.0625 48.390625 27.6875 48.390625 
Q 23 48.390625 18.546875 47.265625 
Q 14.109375 46.140625 10.015625 43.890625 
L 10.015625 52.203125 
Q 14.9375 54.109375 19.578125 55.046875 
Q 24.21875 56 28.609375 56 
Q 40.484375 56 46.34375 49.84375 
Q 52.203125 43.703125 52.203125 31.203125 
z
" id="DejaVuSans-61"/>
      <path d="M 44.28125 53.078125 
L 44.28125 44.578125 
Q 40.484375 46.53125 36.375 47.5 
Q 32.28125 48.484375 27.875 48.484375 
Q 21.1875 48.484375 17.84375 46.4375 
Q 14.5 44.390625 14.5 40.28125 
Q 14.5 37.15625 16.890625 35.375 
Q 19.28125 33.59375 26.515625 31.984375 
L 29.59375 31.296875 
Q 39.15625 29.25 43.1875 25.515625 
Q 47.21875 21.78125 47.21875 15.09375 
Q 47.21875 7.46875 41.1875 3.015625 
Q 35.15625 -1.421875 24.609375 -1.421875 
Q 20.21875 -1.421875 15.453125 -0.5625 
Q 10.6875 0.296875 5.421875 2 
L 5.421875 11.28125 
Q 10.40625 8.6875 15.234375 7.390625 
Q 20.0625 6.109375 24.8125 6.109375 
Q 31.15625 6.109375 34.5625 8.28125 
Q 37.984375 10.453125 37.984375 14.40625 
Q 37.984375 18.0625 35.515625 20.015625 
Q 33.0625 21.96875 24.703125 23.78125 
L 21.578125 24.515625 
Q 13.234375 26.265625 9.515625 29.90625 
Q 5.8125 33.546875 5.8125 39.890625 
Q 5.8125 47.609375 11.28125 51.796875 
Q 16.75 56 26.8125 56 
Q 31.78125 56 36.171875 55.265625 
Q 40.578125 54.546875 44.28125 53.078125 
z
" id="DejaVuSans-73"/>
      <path d="M 25.390625 72.90625 
L 33.6875 72.90625 
L 8.296875 -9.28125 
L 0 -9.28125 
z
" id="DejaVuSans-2f"/>
      <path d="M 45.40625 46.390625 
L 45.40625 75.984375 
L 54.390625 75.984375 
L 54.390625 0 
L 45.40625 0 
L 45.40625 8.203125 
Q 42.578125 3.328125 38.25 0.953125 
Q 33.9375 -1.421875 27.875 -1.421875 
Q 17.96875 -1.421875 11.734375 6.484375 
Q 5.515625 14.40625 5.515625 27.296875 
Q 5.515625 40.1875 11.734375 48.09375 
Q 17.96875 56 27.875 56 
Q 33.9375 56 38.25 53.625 
Q 42.578125 51.265625 45.40625 46.390625 
z
M 14.796875 27.296875 
Q 14.796875 17.390625 18.875 11.75 
Q 22.953125 6.109375 30.078125 6.109375 
Q 37.203125 6.109375 41.296875 11.75 
Q 45.40625 17.390625 45.40625 27.296875 
Q 45.40625 37.203125 41.296875 42.84375 
Q 37.203125 48.484375 30.078125 48.484375 
Q 22.953125 48.484375 18.875 42.84375 
Q 14.796875 37.203125 14.796875 27.296875 
z
" id="DejaVuSans-64"/>
      <path d="M 9.421875 54.6875 
L 18.40625 54.6875 
L 18.40625 0 
L 9.421875 0 
z
M 9.421875 75.984375 
L 18.40625 75.984375 
L 18.40625 64.59375 
L 9.421875 64.59375 
z
" id="DejaVuSans-69"/>
      <path d="M 52 44.1875 
Q 55.375 50.25 60.0625 53.125 
Q 64.75 56 71.09375 56 
Q 79.640625 56 84.28125 50.015625 
Q 88.921875 44.046875 88.921875 33.015625 
L 88.921875 0 
L 79.890625 0 
L 79.890625 32.71875 
Q 79.890625 40.578125 77.09375 44.375 
Q 74.3125 48.1875 68.609375 48.1875 
Q 61.625 48.1875 57.5625 43.546875 
Q 53.515625 38.921875 53.515625 30.90625 
L 53.515625 0 
L 44.484375 0 
L 44.484375 32.71875 
Q 44.484375 40.625 41.703125 44.40625 
Q 38.921875 48.1875 33.109375 48.1875 
Q 26.21875 48.1875 22.15625 43.53125 
Q 18.109375 38.875 18.109375 30.90625 
L 18.109375 0 
L 9.078125 0 
L 9.078125 54.6875 
L 18.109375 54.6875 
L 18.109375 46.1875 
Q 21.1875 51.21875 25.484375 53.609375 
Q 29.78125 56 35.6875 56 
Q 41.65625 56 45.828125 52.96875 
Q 50 49.953125 52 44.1875 
z
" id="DejaVuSans-6d"/>
      <path d="M 54.890625 33.015625 
L 54.890625 0 
L 45.90625 0 
L 45.90625 32.71875 
Q 45.90625 40.484375 42.875 44.328125 
Q 39.84375 48.1875 33.796875 48.1875 
Q 26.515625 48.1875 22.3125 43.546875 
Q 18.109375 38.921875 18.109375 30.90625 
L 18.109375 0 
L 9.078125 0 
L 9.078125 54.6875 
L 18.109375 54.6875 
L 18.109375 46.1875 
Q 21.34375 51.125 25.703125 53.5625 
Q 30.078125 56 35.796875 56 
Q 45.21875 56 50.046875 50.171875 
Q 54.890625 44.34375 54.890625 33.015625 
z
" id="DejaVuSans-6e"/>
      <path d="M 8.015625 75.875 
L 15.828125 75.875 
Q 23.140625 64.359375 26.78125 53.3125 
Q 30.421875 42.28125 30.421875 31.390625 
Q 30.421875 20.453125 26.78125 9.375 
Q 23.140625 -1.703125 15.828125 -13.1875 
L 8.015625 -13.1875 
Q 14.5 -2 17.703125 9.0625 
Q 20.90625 20.125 20.90625 31.390625 
Q 20.90625 42.671875 17.703125 53.65625 
Q 14.5 64.65625 8.015625 75.875 
z
" id="DejaVuSans-29"/>
     </defs>
     <g transform="translate(107.015156 342.278812)scale(0.18 -0.18)">
      <use xlink:href="#DejaVuSans-6c"/>
      <use x="27.783203" xlink:href="#DejaVuSans-6f"/>
      <use x="88.964844" xlink:href="#DejaVuSans-67"/>
      <use x="152.441406" xlink:href="#DejaVuSans-31"/>
      <use x="216.064453" xlink:href="#DejaVuSans-30"/>
      <use x="279.6875" xlink:href="#DejaVuSans-20"/>
      <use x="311.474609" xlink:href="#DejaVuSans-6f"/>
      <use x="372.65625" xlink:href="#DejaVuSans-66"/>
      <use x="407.861328" xlink:href="#DejaVuSans-20"/>
      <use x="439.648438" xlink:href="#DejaVuSans-28"/>
      <use x="478.662109" xlink:href="#DejaVuSans-23"/>
      <use x="562.451172" xlink:href="#DejaVuSans-20"/>
      <use x="594.238281" xlink:href="#DejaVuSans-66"/>
      <use x="629.365234" xlink:href="#DejaVuSans-2d"/>
      <use x="665.449219" xlink:href="#DejaVuSans-65"/>
      <use x="726.972656" xlink:href="#DejaVuSans-76"/>
      <use x="786.152344" xlink:href="#DejaVuSans-61"/>
      <use x="847.431641" xlink:href="#DejaVuSans-6c"/>
      <use x="875.214844" xlink:href="#DejaVuSans-73"/>
      <use x="927.314453" xlink:href="#DejaVuSans-20"/>
      <use x="959.101562" xlink:href="#DejaVuSans-2f"/>
      <use x="992.792969" xlink:href="#DejaVuSans-20"/>
      <use x="1024.580078" xlink:href="#DejaVuSans-64"/>
      <use x="1088.056641" xlink:href="#DejaVuSans-69"/>
      <use x="1115.839844" xlink:href="#DejaVuSans-6d"/>
      <use x="1213.251953" xlink:href="#DejaVuSans-65"/>
      <use x="1274.775391" xlink:href="#DejaVuSans-6e"/>
      <use x="1338.154297" xlink:href="#DejaVuSans-73"/>
      <use x="1390.253906" xlink:href="#DejaVuSans-69"/>
      <use x="1418.037109" xlink:href="#DejaVuSans-6f"/>
      <use x="1479.21875" xlink:href="#DejaVuSans-6e"/>
      <use x="1542.597656" xlink:href="#DejaVuSans-29"/>
     </g>
    </g>
   </g>
   <g id="matplotlib.axis_2">
    <g id="ytick_1">
     <g id="line2d_11">
      <path clip-path="url(#p495e60b031)" d="M 70.8 298.245375 
L 427.92 298.245375 
" style="fill:none;stroke:#b0b0b0;stroke-linecap:square;stroke-width:0.8;"/>
     </g>
     <g id="line2d_12">
      <defs>
       <path d="M 0 0 
L -3.5 0 
" id="m7b9e56a680" style="stroke:#000000;stroke-width:0.8;"/>
      </defs>
      <g>
       <use style="stroke:#000000;stroke-width:0.8;" x="70.8" xlink:href="#m7b9e56a680" y="298.245375"/>
      </g>
     </g>
     <g id="text_7">
      <!-- 0.0 -->
      <defs>
       <path d="M 10.6875 12.40625 
L 21 12.40625 
L 21 0 
L 10.6875 0 
z
" id="DejaVuSans-2e"/>
      </defs>
      <g transform="translate(31.99375 305.843812)scale(0.2 -0.2)">
       <use xlink:href="#DejaVuSans-30"/>
       <use x="63.623047" xlink:href="#DejaVuSans-2e"/>
       <use x="95.410156" xlink:href="#DejaVuSans-30"/>
      </g>
     </g>
    </g>
    <g id="ytick_2">
     <g id="line2d_13">
      <path clip-path="url(#p495e60b031)" d="M 70.8 245.549929 
L 427.92 245.549929 
" style="fill:none;stroke:#b0b0b0;stroke-linecap:square;stroke-width:0.8;"/>
     </g>
     <g id="line2d_14">
      <g>
       <use style="stroke:#000000;stroke-width:0.8;" x="70.8" xlink:href="#m7b9e56a680" y="245.549929"/>
      </g>
     </g>
     <g id="text_8">
      <!-- 0.2 -->
      <g transform="translate(31.99375 253.148367)scale(0.2 -0.2)">
       <use xlink:href="#DejaVuSans-30"/>
       <use x="63.623047" xlink:href="#DejaVuSans-2e"/>
       <use x="95.410156" xlink:href="#DejaVuSans-32"/>
      </g>
     </g>
    </g>
    <g id="ytick_3">
     <g id="line2d_15">
      <path clip-path="url(#p495e60b031)" d="M 70.8 192.854484 
L 427.92 192.854484 
" style="fill:none;stroke:#b0b0b0;stroke-linecap:square;stroke-width:0.8;"/>
     </g>
     <g id="line2d_16">
      <g>
       <use style="stroke:#000000;stroke-width:0.8;" x="70.8" xlink:href="#m7b9e56a680" y="192.854484"/>
      </g>
     </g>
     <g id="text_9">
      <!-- 0.4 -->
      <g transform="translate(31.99375 200.452921)scale(0.2 -0.2)">
       <use xlink:href="#DejaVuSans-30"/>
       <use x="63.623047" xlink:href="#DejaVuSans-2e"/>
       <use x="95.410156" xlink:href="#DejaVuSans-34"/>
      </g>
     </g>
    </g>
    <g id="ytick_4">
     <g id="line2d_17">
      <path clip-path="url(#p495e60b031)" d="M 70.8 140.159038 
L 427.92 140.159038 
" style="fill:none;stroke:#b0b0b0;stroke-linecap:square;stroke-width:0.8;"/>
     </g>
     <g id="line2d_18">
      <g>
       <use style="stroke:#000000;stroke-width:0.8;" x="70.8" xlink:href="#m7b9e56a680" y="140.159038"/>
      </g>
     </g>
     <g id="text_10">
      <!-- 0.6 -->
      <g transform="translate(31.99375 147.757476)scale(0.2 -0.2)">
       <use xlink:href="#DejaVuSans-30"/>
       <use x="63.623047" xlink:href="#DejaVuSans-2e"/>
       <use x="95.410156" xlink:href="#DejaVuSans-36"/>
      </g>
     </g>
    </g>
    <g id="ytick_5">
     <g id="line2d_19">
      <path clip-path="url(#p495e60b031)" d="M 70.8 87.463593 
L 427.92 87.463593 
" style="fill:none;stroke:#b0b0b0;stroke-linecap:square;stroke-width:0.8;"/>
     </g>
     <g id="line2d_20">
      <g>
       <use style="stroke:#000000;stroke-width:0.8;" x="70.8" xlink:href="#m7b9e56a680" y="87.463593"/>
      </g>
     </g>
     <g id="text_11">
      <!-- 0.8 -->
      <g transform="translate(31.99375 95.06203)scale(0.2 -0.2)">
       <use xlink:href="#DejaVuSans-30"/>
       <use x="63.623047" xlink:href="#DejaVuSans-2e"/>
       <use x="95.410156" xlink:href="#DejaVuSans-38"/>
      </g>
     </g>
    </g>
    <g id="ytick_6">
     <g id="line2d_21">
      <path clip-path="url(#p495e60b031)" d="M 70.8 34.768147 
L 427.92 34.768147 
" style="fill:none;stroke:#b0b0b0;stroke-linecap:square;stroke-width:0.8;"/>
     </g>
     <g id="line2d_22">
      <g>
       <use style="stroke:#000000;stroke-width:0.8;" x="70.8" xlink:href="#m7b9e56a680" y="34.768147"/>
      </g>
     </g>
     <g id="text_12">
      <!-- 1.0 -->
      <g transform="translate(31.99375 42.366585)scale(0.2 -0.2)">
       <use xlink:href="#DejaVuSans-31"/>
       <use x="63.623047" xlink:href="#DejaVuSans-2e"/>
       <use x="95.410156" xlink:href="#DejaVuSans-30"/>
      </g>
     </g>
    </g>
    <g id="text_13">
     <!-- Proportion of function+target pairs -->
     <defs>
      <path d="M 19.671875 64.796875 
L 19.671875 37.40625 
L 32.078125 37.40625 
Q 38.96875 37.40625 42.71875 40.96875 
Q 46.484375 44.53125 46.484375 51.125 
Q 46.484375 57.671875 42.71875 61.234375 
Q 38.96875 64.796875 32.078125 64.796875 
z
M 9.8125 72.90625 
L 32.078125 72.90625 
Q 44.34375 72.90625 50.609375 67.359375 
Q 56.890625 61.8125 56.890625 51.125 
Q 56.890625 40.328125 50.609375 34.8125 
Q 44.34375 29.296875 32.078125 29.296875 
L 19.671875 29.296875 
L 19.671875 0 
L 9.8125 0 
z
" id="DejaVuSans-50"/>
      <path d="M 41.109375 46.296875 
Q 39.59375 47.171875 37.8125 47.578125 
Q 36.03125 48 33.890625 48 
Q 26.265625 48 22.1875 43.046875 
Q 18.109375 38.09375 18.109375 28.8125 
L 18.109375 0 
L 9.078125 0 
L 9.078125 54.6875 
L 18.109375 54.6875 
L 18.109375 46.1875 
Q 20.953125 51.171875 25.484375 53.578125 
Q 30.03125 56 36.53125 56 
Q 37.453125 56 38.578125 55.875 
Q 39.703125 55.765625 41.0625 55.515625 
z
" id="DejaVuSans-72"/>
      <path d="M 18.109375 8.203125 
L 18.109375 -20.796875 
L 9.078125 -20.796875 
L 9.078125 54.6875 
L 18.109375 54.6875 
L 18.109375 46.390625 
Q 20.953125 51.265625 25.265625 53.625 
Q 29.59375 56 35.59375 56 
Q 45.5625 56 51.78125 48.09375 
Q 58.015625 40.1875 58.015625 27.296875 
Q 58.015625 14.40625 51.78125 6.484375 
Q 45.5625 -1.421875 35.59375 -1.421875 
Q 29.59375 -1.421875 25.265625 0.953125 
Q 20.953125 3.328125 18.109375 8.203125 
z
M 48.6875 27.296875 
Q 48.6875 37.203125 44.609375 42.84375 
Q 40.53125 48.484375 33.40625 48.484375 
Q 26.265625 48.484375 22.1875 42.84375 
Q 18.109375 37.203125 18.109375 27.296875 
Q 18.109375 17.390625 22.1875 11.75 
Q 26.265625 6.109375 33.40625 6.109375 
Q 40.53125 6.109375 44.609375 11.75 
Q 48.6875 17.390625 48.6875 27.296875 
z
" id="DejaVuSans-70"/>
      <path d="M 18.3125 70.21875 
L 18.3125 54.6875 
L 36.8125 54.6875 
L 36.8125 47.703125 
L 18.3125 47.703125 
L 18.3125 18.015625 
Q 18.3125 11.328125 20.140625 9.421875 
Q 21.96875 7.515625 27.59375 7.515625 
L 36.8125 7.515625 
L 36.8125 0 
L 27.59375 0 
Q 17.1875 0 13.234375 3.875 
Q 9.28125 7.765625 9.28125 18.015625 
L 9.28125 47.703125 
L 2.6875 47.703125 
L 2.6875 54.6875 
L 9.28125 54.6875 
L 9.28125 70.21875 
z
" id="DejaVuSans-74"/>
      <path d="M 8.5 21.578125 
L 8.5 54.6875 
L 17.484375 54.6875 
L 17.484375 21.921875 
Q 17.484375 14.15625 20.5 10.265625 
Q 23.53125 6.390625 29.59375 6.390625 
Q 36.859375 6.390625 41.078125 11.03125 
Q 45.3125 15.671875 45.3125 23.6875 
L 45.3125 54.6875 
L 54.296875 54.6875 
L 54.296875 0 
L 45.3125 0 
L 45.3125 8.40625 
Q 42.046875 3.421875 37.71875 1 
Q 33.40625 -1.421875 27.6875 -1.421875 
Q 18.265625 -1.421875 13.375 4.4375 
Q 8.5 10.296875 8.5 21.578125 
z
M 31.109375 56 
z
" id="DejaVuSans-75"/>
      <path d="M 48.78125 52.59375 
L 48.78125 44.1875 
Q 44.96875 46.296875 41.140625 47.34375 
Q 37.3125 48.390625 33.40625 48.390625 
Q 24.65625 48.390625 19.8125 42.84375 
Q 14.984375 37.3125 14.984375 27.296875 
Q 14.984375 17.28125 19.8125 11.734375 
Q 24.65625 6.203125 33.40625 6.203125 
Q 37.3125 6.203125 41.140625 7.25 
Q 44.96875 8.296875 48.78125 10.40625 
L 48.78125 2.09375 
Q 45.015625 0.34375 40.984375 -0.53125 
Q 36.96875 -1.421875 32.421875 -1.421875 
Q 20.0625 -1.421875 12.78125 6.34375 
Q 5.515625 14.109375 5.515625 27.296875 
Q 5.515625 40.671875 12.859375 48.328125 
Q 20.21875 56 33.015625 56 
Q 37.15625 56 41.109375 55.140625 
Q 45.0625 54.296875 48.78125 52.59375 
z
" id="DejaVuSans-63"/>
      <path d="M 46 62.703125 
L 46 35.5 
L 73.1875 35.5 
L 73.1875 27.203125 
L 46 27.203125 
L 46 0 
L 37.796875 0 
L 37.796875 27.203125 
L 10.59375 27.203125 
L 10.59375 35.5 
L 37.796875 35.5 
L 37.796875 62.703125 
z
" id="DejaVuSans-2b"/>
     </defs>
     <g transform="translate(24.250312 323.17875)rotate(-90)scale(0.18 -0.18)">
      <use xlink:href="#DejaVuSans-50"/>
      <use x="60.287109" xlink:href="#DejaVuSans-72"/>
      <use x="101.369141" xlink:href="#DejaVuSans-6f"/>
      <use x="162.550781" xlink:href="#DejaVuSans-70"/>
      <use x="226.027344" xlink:href="#DejaVuSans-6f"/>
      <use x="287.208984" xlink:href="#DejaVuSans-72"/>
      <use x="328.322266" xlink:href="#DejaVuSans-74"/>
      <use x="367.53125" xlink:href="#DejaVuSans-69"/>
      <use x="395.314453" xlink:href="#DejaVuSans-6f"/>
      <use x="456.496094" xlink:href="#DejaVuSans-6e"/>
      <use x="519.875" xlink:href="#DejaVuSans-20"/>
      <use x="551.662109" xlink:href="#DejaVuSans-6f"/>
      <use x="612.84375" xlink:href="#DejaVuSans-66"/>
      <use x="648.048828" xlink:href="#DejaVuSans-20"/>
      <use x="679.835938" xlink:href="#DejaVuSans-66"/>
      <use x="715.041016" xlink:href="#DejaVuSans-75"/>
      <use x="778.419922" xlink:href="#DejaVuSans-6e"/>
      <use x="841.798828" xlink:href="#DejaVuSans-63"/>
      <use x="896.779297" xlink:href="#DejaVuSans-74"/>
      <use x="935.988281" xlink:href="#DejaVuSans-69"/>
      <use x="963.771484" xlink:href="#DejaVuSans-6f"/>
      <use x="1024.953125" xlink:href="#DejaVuSans-6e"/>
      <use x="1088.332031" xlink:href="#DejaVuSans-2b"/>
      <use x="1172.121094" xlink:href="#DejaVuSans-74"/>
      <use x="1211.330078" xlink:href="#DejaVuSans-61"/>
      <use x="1272.609375" xlink:href="#DejaVuSans-72"/>
      <use x="1313.707031" xlink:href="#DejaVuSans-67"/>
      <use x="1377.183594" xlink:href="#DejaVuSans-65"/>
      <use x="1438.707031" xlink:href="#DejaVuSans-74"/>
      <use x="1477.916016" xlink:href="#DejaVuSans-20"/>
      <use x="1509.703125" xlink:href="#DejaVuSans-70"/>
      <use x="1573.179688" xlink:href="#DejaVuSans-61"/>
      <use x="1634.458984" xlink:href="#DejaVuSans-69"/>
      <use x="1662.242188" xlink:href="#DejaVuSans-72"/>
      <use x="1703.355469" xlink:href="#DejaVuSans-73"/>
     </g>
    </g>
   </g>
   <g id="line2d_23">
    <defs>
     <path d="M 0 1.5 
C 0.397805 1.5 0.77937 1.341951 1.06066 1.06066 
C 1.341951 0.77937 1.5 0.397805 1.5 0 
C 1.5 -0.397805 1.341951 -0.77937 1.06066 -1.06066 
C 0.77937 -1.341951 0.397805 -1.5 0 -1.5 
C -0.397805 -1.5 -0.77937 -1.341951 -1.06066 -1.06066 
C -1.341951 -0.77937 -1.5 -0.397805 -1.5 0 
C -1.5 0.397805 -1.341951 0.77937 -1.06066 1.06066 
C -0.77937 1.341951 -0.397805 1.5 0 1.5 
z
" id="m406be9d79d" style="stroke:#000080;"/>
    </defs>
    <g>
     <use style="fill:#000080;stroke:#000080;" x="345.019135" xlink:href="#m406be9d79d" y="39.934367"/>
     <use style="fill:#000080;stroke:#000080;" x="345.019135" xlink:href="#m406be9d79d" y="39.934367"/>
    </g>
   </g>
   <g id="line2d_24">
    <path d="M 42.042377 298.245375 
L 42.042377 292.562533 
L 121.424184 292.562533 
L 121.424184 291.529289 
L 122.04395 291.529289 
L 122.04395 288.429557 
L 122.245852 288.429557 
L 122.245852 284.296581 
L 122.838219 284.296581 
L 122.838219 282.230093 
L 123.03139 282.230093 
L 123.03139 281.196849 
L 123.222494 281.196849 
L 123.222494 278.613738 
L 123.411577 278.613738 
L 123.411577 272.414274 
L 123.598679 272.414274 
L 123.598679 267.764676 
L 123.783843 267.764676 
L 123.783843 266.731432 
L 123.967107 266.731432 
L 123.967107 264.664944 
L 124.328091 264.664944 
L 124.328091 263.115078 
L 134.429184 263.115078 
L 134.429184 261.565212 
L 135.028171 261.565212 
L 135.028171 260.015346 
L 142.075629 260.015346 
L 142.141685 258.982102 
L 142.597363 258.982102 
L 142.597363 258.46548 
L 142.72545 258.46548 
L 142.72545 257.948858 
L 143.228811 257.948858 
L 143.228811 257.432236 
L 143.597239 257.432236 
L 143.597239 256.915614 
L 146.915654 256.915614 
L 146.915654 255.365748 
L 147.314958 255.365748 
L 147.314958 254.849126 
L 148.040421 254.849126 
L 148.040421 254.332504 
L 148.461969 254.332504 
L 148.461969 253.29926 
L 148.828507 253.29926 
L 148.828507 252.782638 
L 151.083601 252.782638 
L 151.163369 251.232772 
L 151.711995 251.232772 
L 151.789013 247.616418 
L 152.131543 247.616418 
L 152.131543 247.099796 
L 152.244276 247.099796 
L 152.244276 246.583173 
L 154.394562 246.583173 
L 154.427743 245.033307 
L 154.690998 245.033307 
L 154.690998 244.516685 
L 154.885925 244.516685 
L 154.885925 244.000063 
L 155.458263 244.000063 
L 155.458263 243.483441 
L 157.215245 243.483441 
L 157.215245 242.450197 
L 159.724855 242.450197 
L 159.724855 241.416953 
L 160.637672 241.416953 
L 160.684447 239.867087 
L 161.595122 239.867087 
L 161.705761 237.800599 
L 161.793781 237.800599 
L 161.793781 237.283977 
L 162.58805 237.283977 
L 162.58805 236.250733 
L 163.766148 236.250733 
L 163.785794 234.184245 
L 164.116515 234.184245 
L 164.116515 233.667623 
L 165.309407 233.667623 
L 165.309407 233.151001 
L 165.613325 233.151001 
L 165.613325 231.084513 
L 166.376739 231.084513 
L 166.410676 230.051269 
L 166.545786 230.051269 
L 166.545786 229.534647 
L 166.679881 229.534647 
L 166.679881 228.501403 
L 167.027167 228.501403 
L 167.027167 227.984781 
L 167.287308 227.984781 
L 167.287308 227.468159 
L 168.061214 227.468159 
L 168.092101 224.885049 
L 168.215117 224.885049 
L 168.215117 224.368427 
L 169.400834 224.368427 
L 169.400834 223.335183 
L 170.700403 223.335183 
L 170.713732 221.268695 
L 170.859704 221.268695 
L 170.859704 220.752073 
L 171.082976 220.752073 
L 171.109061 219.202207 
L 171.774236 219.202207 
L 171.774236 218.685585 
L 172.810889 218.685585 
L 172.810889 218.168963 
L 173.069682 218.168963 
L 173.069682 217.135719 
L 173.301738 217.135719 
L 173.313262 216.102475 
L 173.94703 216.102475 
L 173.94703 215.069231 
L 174.941762 215.069231 
L 174.952275 214.035987 
L 175.804032 214.035987 
L 175.893998 212.48612 
L 176.414799 212.48612 
L 176.414799 211.452876 
L 176.750586 211.452876 
L 176.779076 208.869766 
L 178.131014 208.869766 
L 178.227527 207.836522 
L 178.565571 207.836522 
L 178.565571 207.3199 
L 178.897338 207.3199 
L 178.973033 205.770034 
L 179.542945 205.770034 
L 179.542945 204.73679 
L 180.523565 204.73679 
L 180.523565 203.703546 
L 180.82875 203.703546 
L 180.82875 203.186924 
L 182.274085 203.186924 
L 182.274085 202.670302 
L 182.489074 202.670302 
L 182.489074 202.15368 
L 182.681059 202.15368 
L 182.681059 200.603814 
L 183.611208 200.603814 
L 183.611208 199.57057 
L 184.303291 199.57057 
L 184.303291 199.053948 
L 184.703593 199.053948 
L 184.800768 198.020704 
L 185.112988 198.020704 
L 185.112988 197.504082 
L 185.443233 197.504082 
L 185.443233 195.954216 
L 185.710013 195.954216 
L 185.710013 194.40435 
L 186.371138 194.40435 
L 186.371138 193.887728 
L 186.514791 193.887728 
L 186.514791 192.854484 
L 187.104766 192.854484 
L 187.115411 191.82124 
L 187.860567 191.82124 
L 187.860567 191.304618 
L 187.982638 191.304618 
L 187.982638 190.787996 
L 188.269258 190.787996 
L 188.269258 190.271374 
L 188.741831 190.271374 
L 188.741831 189.754752 
L 189.437398 189.754752 
L 189.437398 189.23813 
L 189.756935 189.23813 
L 189.756935 188.721508 
L 189.916861 188.721508 
L 189.916861 187.171642 
L 190.12939 187.171642 
L 190.12939 186.138398 
L 190.463384 186.138398 
L 190.568956 184.07191 
L 190.933624 184.07191 
L 190.933624 183.555288 
L 191.450349 183.555288 
L 191.450349 183.038666 
L 191.801729 183.038666 
L 191.801729 182.522044 
L 192.094056 182.522044 
L 192.094056 182.005422 
L 192.246433 182.005422 
L 192.246433 180.455556 
L 200.31711 180.455556 
L 200.332354 178.90569 
L 200.569489 178.90569 
L 200.569489 177.355823 
L 200.818353 177.355823 
L 200.818353 176.839201 
L 201.561402 176.839201 
L 201.561402 176.322579 
L 201.733631 176.322579 
L 201.733631 175.805957 
L 202.624417 175.805957 
L 202.624417 175.289335 
L 202.839792 175.289335 
L 202.839792 174.772713 
L 203.55578 174.772713 
L 203.55578 173.739469 
L 203.808426 173.739469 
L 203.808426 173.222847 
L 204.055489 173.222847 
L 204.055489 172.706225 
L 205.057777 172.706225 
L 205.057777 172.189603 
L 206.082447 172.189603 
L 206.082447 171.672981 
L 209.587886 171.672981 
L 209.587886 171.156359 
L 210.535084 171.156359 
L 210.535084 170.639737 
L 211.042868 170.639737 
L 211.042868 170.123115 
L 211.320993 170.123115 
L 211.320993 169.606493 
L 212.563282 169.606493 
L 212.563282 167.540005 
L 213.18133 167.540005 
L 213.18133 167.023383 
L 216.672207 167.023383 
L 216.672207 165.990139 
L 217.026881 165.990139 
L 217.110489 163.923651 
L 217.392255 163.923651 
L 217.392255 163.407029 
L 217.600218 163.407029 
L 217.600218 162.890407 
L 217.85348 162.890407 
L 217.85348 162.373785 
L 218.401291 162.373785 
L 218.401291 161.857163 
L 218.574126 161.857163 
L 218.638967 160.307297 
L 218.858221 160.307297 
L 218.858221 158.757431 
L 219.228946 158.757431 
L 219.228946 158.240809 
L 219.798358 158.240809 
L 219.798358 156.690943 
L 219.965871 156.690943 
L 219.965871 156.174321 
L 220.124281 156.174321 
L 220.205467 155.141077 
L 221.327724 155.141077 
L 221.327724 153.074589 
L 221.444196 153.074589 
L 221.444196 152.557967 
L 221.919333 152.557967 
L 221.919333 152.041345 
L 222.095241 152.041345 
L 222.095241 150.491479 
L 222.26497 150.491479 
L 222.26497 149.458235 
L 222.653631 149.458235 
L 222.653631 148.424991 
L 224.739169 148.424991 
L 224.739169 145.841881 
L 224.986898 145.841881 
L 224.986898 145.325259 
L 225.580787 145.325259 
L 225.580787 144.292014 
L 225.882953 144.292014 
L 225.882953 143.775392 
L 226.945883 143.775392 
L 227.04354 140.159038 
L 227.061756 140.159038 
L 227.061756 139.642416 
L 230.098616 139.642416 
L 230.130749 137.059306 
L 231.132353 137.059306 
L 231.132353 136.026062 
L 231.581517 136.026062 
L 231.650745 133.959574 
L 231.706988 133.959574 
L 231.706988 133.442952 
L 232.086792 133.442952 
L 232.086792 132.409708 
L 232.20963 132.409708 
L 232.20963 131.893086 
L 232.414469 131.893086 
L 232.414469 130.859842 
L 232.785048 130.859842 
L 232.805275 129.309976 
L 233.033195 129.309976 
L 233.033195 128.793354 
L 233.224828 128.793354 
L 233.24255 127.76011 
L 234.228155 127.76011 
L 234.228155 127.243488 
L 234.786608 127.243488 
L 234.786608 126.726866 
L 237.268311 126.726866 
L 237.268311 125.693622 
L 237.584299 125.693622 
L 237.584299 125.177 
L 238.165179 125.177 
L 238.165179 124.660378 
L 238.494955 124.660378 
L 238.494955 123.627134 
L 238.698128 123.627134 
L 238.70495 119.494158 
L 239.350291 119.494158 
L 239.377442 117.42767 
L 239.784028 117.42767 
L 239.784028 116.911048 
L 240.360318 116.911048 
L 240.360318 116.394426 
L 242.265063 116.394426 
L 242.265063 114.84456 
L 242.718714 114.84456 
L 242.818399 112.778072 
L 242.850642 112.778072 
L 242.863335 111.744828 
L 243.658381 111.744828 
L 243.658381 110.194961 
L 244.446454 110.194961 
L 244.53783 108.128473 
L 245.106356 108.128473 
L 245.106356 107.611851 
L 246.324574 107.611851 
L 246.324574 107.095229 
L 246.78835 107.095229 
L 246.78835 106.061985 
L 247.139689 106.061985 
L 247.139689 105.545363 
L 247.696883 105.545363 
L 247.696883 103.478875 
L 248.04029 103.478875 
L 248.04029 102.962253 
L 250.326977 102.962253 
L 250.326977 102.445631 
L 251.687838 102.445631 
L 251.714203 100.379143 
L 252.229738 100.379143 
L 252.229738 99.345899 
L 253.018357 99.345899 
L 253.099632 98.312655 
L 253.30056 98.312655 
L 253.30056 97.279411 
L 254.116241 97.279411 
L 254.116241 96.762789 
L 254.924681 96.762789 
L 254.924681 96.246167 
L 255.113066 96.246167 
L 255.113066 94.696301 
L 255.306044 94.696301 
L 255.306044 94.179679 
L 255.62833 94.179679 
L 255.62833 93.663057 
L 255.933714 93.663057 
L 255.933714 93.146435 
L 256.156529 93.146435 
L 256.156529 92.629813 
L 256.381451 92.629813 
L 256.381451 92.113191 
L 257.907129 92.113191 
L 257.907129 91.596569 
L 259.094372 91.596569 
L 259.144227 89.013459 
L 259.606856 89.013459 
L 259.606856 88.496837 
L 260.174655 88.496837 
L 260.174655 87.980215 
L 261.71743 87.980215 
L 261.71743 86.430349 
L 262.938245 86.430349 
L 262.938245 85.397105 
L 264.102587 85.397105 
L 264.102587 84.880483 
L 264.566496 84.880483 
L 264.575979 83.847239 
L 265.089789 83.847239 
L 265.146187 82.297373 
L 265.207321 82.297373 
L 265.300673 81.264129 
L 265.329165 81.264129 
L 265.329165 80.230885 
L 265.744067 80.230885 
L 265.853299 79.197641 
L 266.265604 79.197641 
L 266.265604 78.681019 
L 267.177831 78.681019 
L 267.177831 77.131153 
L 267.474845 77.131153 
L 267.474845 76.614531 
L 268.754276 76.614531 
L 268.839589 75.581286 
L 269.02504 75.581286 
L 269.02504 75.064664 
L 269.796386 75.064664 
L 269.834651 72.481554 
L 270.291907 72.481554 
L 270.360774 69.381822 
L 271.160501 69.381822 
L 271.160501 68.348578 
L 271.347008 68.348578 
L 271.347008 67.831956 
L 272.075391 67.831956 
L 272.075391 67.315334 
L 273.159161 67.315334 
L 273.159161 66.798712 
L 273.297336 66.798712 
L 273.297336 65.765468 
L 273.446334 65.765468 
L 273.446334 64.732224 
L 273.964544 64.732224 
L 273.964544 64.215602 
L 274.401825 64.215602 
L 274.401825 63.182358 
L 274.739962 63.182358 
L 274.739962 62.665736 
L 280.311808 62.665736 
L 280.311808 62.149114 
L 281.43444 62.149114 
L 281.43444 61.632492 
L 283.568867 61.632492 
L 283.568867 61.11587 
L 283.917955 61.11587 
L 283.917955 60.599248 
L 284.116826 60.599248 
L 284.116826 60.082626 
L 284.55407 60.082626 
L 284.55407 59.566004 
L 285.481981 59.566004 
L 285.481981 59.049382 
L 285.751408 59.049382 
L 285.751408 58.53276 
L 286.045972 58.53276 
L 286.045972 58.016138 
L 286.3157 58.016138 
L 286.3157 57.499516 
L 286.956927 57.499516 
L 286.956927 56.982894 
L 290.859152 56.982894 
L 290.859152 56.466272 
L 291.152522 56.466272 
L 291.152522 55.94965 
L 292.288379 55.94965 
L 292.288379 55.433028 
L 292.446428 55.433028 
L 292.446428 54.916406 
L 293.472433 54.916406 
L 293.472433 54.399784 
L 296.887993 54.399784 
L 296.887993 53.883162 
L 297.431032 53.883162 
L 297.431032 53.36654 
L 297.62902 53.36654 
L 297.62902 52.849918 
L 300.284666 52.849918 
L 300.284666 52.333296 
L 301.053643 52.333296 
L 301.053643 51.816674 
L 303.938734 51.816674 
L 303.938734 51.300052 
L 304.537135 51.300052 
L 304.537135 50.78343 
L 304.849762 50.78343 
L 304.849762 50.266808 
L 306.950325 50.266808 
L 306.950325 49.750186 
L 308.22871 49.750186 
L 308.288117 48.716942 
L 311.380333 48.716942 
L 311.460705 47.683698 
L 311.703326 47.683698 
L 311.703326 47.167076 
L 313.301185 47.167076 
L 313.301185 46.650454 
L 319.726034 46.650454 
L 319.726034 46.133832 
L 319.995085 46.133832 
L 319.995085 45.61721 
L 320.716395 45.61721 
L 320.716395 45.100588 
L 321.675444 45.100588 
L 321.675444 44.583966 
L 327.599429 44.583966 
L 327.599429 44.067344 
L 327.781986 44.067344 
L 327.781986 43.550722 
L 330.817691 43.550722 
L 330.817691 43.0341 
L 333.799636 43.0341 
L 333.799636 42.517478 
L 334.155933 42.517478 
L 334.155933 42.000855 
L 335.757819 42.000855 
L 335.757819 41.484233 
L 338.270573 41.484233 
L 338.270573 40.967611 
L 341.746168 40.967611 
L 341.746168 40.450989 
L 345.019135 40.450989 
L 345.019135 39.934367 
L 358.8 39.934367 
L 358.8 39.934367 
" style="fill:none;stroke:#000080;stroke-linecap:square;stroke-width:1.5;"/>
   </g>
   <g id="line2d_25">
    <defs>
     <path d="M 0 6 
C 1.591219 6 3.117479 5.367802 4.242641 4.242641 
C 5.367802 3.117479 6 1.591219 6 0 
C 6 -1.591219 5.367802 -3.117479 4.242641 -4.242641 
C 3.117479 -5.367802 1.591219 -6 0 -6 
C -1.591219 -6 -3.117479 -5.367802 -4.242641 -4.242641 
C -5.367802 -3.117479 -6 -1.591219 -6 0 
C -6 1.591219 -5.367802 3.117479 -4.242641 4.242641 
C -3.117479 5.367802 -1.591219 6 0 6 
z
" id="mfa34f0b153" style="stroke:#000080;stroke-width:1.5;"/>
    </defs>
    <g>
     <use style="fill:none;stroke:#000080;stroke-width:1.5;" x="123.222494" xlink:href="#mfa34f0b153" y="278.613738"/>
     <use style="fill:none;stroke:#000080;stroke-width:1.5;" x="166.679881" xlink:href="#mfa34f0b153" y="228.501403"/>
     <use style="fill:none;stroke:#000080;stroke-width:1.5;" x="230.130749" xlink:href="#mfa34f0b153" y="137.059306"/>
     <use style="fill:none;stroke:#000080;stroke-width:1.5;" x="286.956927" xlink:href="#mfa34f0b153" y="56.982894"/>
     <use style="fill:none;stroke:#000080;stroke-width:1.5;" x="345.019135" xlink:href="#mfa34f0b153" y="39.934367"/>
     <use style="fill:none;stroke:#000080;stroke-width:1.5;" x="358.8" xlink:href="#mfa34f0b153" y="39.934367"/>
    </g>
   </g>
   <g id="line2d_26"/>
   <g id="line2d_27">
    <path clip-path="url(#p495e60b031)" d="M 273.297336 65.765468 
" style="fill:none;stroke:#000080;stroke-linecap:square;stroke-width:1.5;"/>
    <defs>
     <path d="M -12 12 
L 12 -12 
M -12 -12 
L 12 12 
" id="ma7ea699da5" style="stroke:#000080;stroke-width:3;"/>
    </defs>
    <g clip-path="url(#p495e60b031)">
     <use style="fill:#000080;stroke:#000080;stroke-width:3;" x="273.297336" xlink:href="#ma7ea699da5" y="65.765468"/>
    </g>
   </g>
   <g id="line2d_28">
    <defs>
     <path d="M 0 1.5 
C 0.397805 1.5 0.77937 1.341951 1.06066 1.06066 
C 1.341951 0.77937 1.5 0.397805 1.5 0 
C 1.5 -0.397805 1.341951 -0.77937 1.06066 -1.06066 
C 0.77937 -1.341951 0.397805 -1.5 0 -1.5 
C -0.397805 -1.5 -0.77937 -1.341951 -1.06066 -1.06066 
C -1.341951 -0.77937 -1.5 -0.397805 -1.5 0 
C -1.5 0.397805 -1.341951 0.77937 -1.06066 1.06066 
C -0.77937 1.341951 -0.397805 1.5 0 1.5 
z
" id="m08c5af7909" style="stroke:#ff00ff;"/>
    </defs>
    <g>
     <use style="fill:#ff00ff;stroke:#ff00ff;" x="336.556837" xlink:href="#m08c5af7909" y="138.09255"/>
     <use style="fill:#ff00ff;stroke:#ff00ff;" x="336.556837" xlink:href="#m08c5af7909" y="138.09255"/>
    </g>
   </g>
   <g id="line2d_29">
    <path d="M 177.784567 298.245375 
L 177.784567 297.212131 
L 180.047886 297.212131 
L 180.047886 295.145643 
L 181.518781 295.145643 
L 181.518781 294.112399 
L 182.399232 294.112399 
L 182.399232 293.595777 
L 185.331869 293.595777 
L 185.331869 293.079155 
L 193.027678 293.079155 
L 193.027678 292.045911 
L 200.524323 292.045911 
L 200.524323 291.012667 
L 200.714252 291.012667 
L 200.714252 289.462801 
L 201.100325 289.462801 
L 201.100325 288.429557 
L 201.473469 288.429557 
L 201.551916 285.846447 
L 202.15364 285.846447 
L 202.15364 285.329825 
L 202.648972 285.329825 
L 202.648972 284.813203 
L 203.411012 284.813203 
L 203.411012 283.779959 
L 203.850189 283.779959 
L 203.906414 281.713471 
L 204.354013 281.713471 
L 204.354013 280.163604 
L 205.028512 280.163604 
L 205.028512 279.646982 
L 205.232366 279.646982 
L 205.278637 274.480762 
L 210.122904 274.480762 
L 210.122904 272.930896 
L 210.414159 272.930896 
L 210.414159 271.897652 
L 210.982802 271.897652 
L 210.982802 271.38103 
L 212.094835 271.38103 
L 212.197096 269.314542 
L 216.157038 269.314542 
L 216.157038 268.79792 
L 217.601184 268.79792 
L 217.601184 266.731432 
L 218.524653 266.731432 
L 218.524653 265.698188 
L 219.013328 265.698188 
L 219.013328 265.181566 
L 220.275476 265.181566 
L 220.275476 264.664944 
L 220.44766 264.664944 
L 220.44766 263.115078 
L 220.873412 263.115078 
L 220.873412 262.081834 
L 221.915539 262.081834 
L 221.915539 261.04859 
L 222.710336 261.04859 
L 222.710336 260.531968 
L 225.737105 260.531968 
L 225.763433 258.46548 
L 226.024605 258.46548 
L 226.024605 253.29926 
L 227.001915 253.29926 
L 227.001915 250.199528 
L 227.264853 250.199528 
L 227.264853 249.166284 
L 227.901953 249.166284 
L 227.901953 247.099796 
L 228.124208 247.099796 
L 228.124208 246.066551 
L 228.281666 246.066551 
L 228.281666 245.549929 
L 229.796539 245.549929 
L 229.796539 244.516685 
L 230.002834 244.516685 
L 230.002834 242.966819 
L 230.608269 242.966819 
L 230.608269 242.450197 
L 231.1396 242.450197 
L 231.1396 240.900331 
L 232.394639 240.900331 
L 232.394639 239.350465 
L 232.598633 239.350465 
L 232.598633 236.767355 
L 232.835778 236.767355 
L 232.835778 236.250733 
L 233.701191 236.250733 
L 233.701191 235.734111 
L 235.018829 235.734111 
L 235.018829 235.217489 
L 235.95294 235.217489 
L 235.95294 234.184245 
L 237.549534 234.184245 
L 237.612692 231.601135 
L 238.131834 231.601135 
L 238.131834 229.018025 
L 238.245381 229.018025 
L 238.245381 227.468159 
L 238.898723 227.468159 
L 238.898723 226.434915 
L 241.097686 226.434915 
L 241.097686 225.918293 
L 241.460476 225.918293 
L 241.460476 225.401671 
L 241.619381 225.401671 
L 241.619381 224.368427 
L 243.432438 224.368427 
L 243.432438 222.301939 
L 243.665346 222.301939 
L 243.665346 221.268695 
L 243.910333 221.268695 
L 243.910333 220.752073 
L 247.545469 220.752073 
L 247.545469 217.135719 
L 248.323813 217.135719 
L 248.323813 214.552609 
L 249.886301 214.552609 
L 249.886301 213.519365 
L 250.863529 213.519365 
L 250.863529 212.48612 
L 251.31195 212.48612 
L 251.31195 210.419632 
L 251.603612 210.419632 
L 251.645918 208.353144 
L 253.815057 208.353144 
L 253.815057 207.836522 
L 255.341727 207.836522 
L 255.341727 207.3199 
L 256.087947 207.3199 
L 256.087947 206.286656 
L 256.488311 206.286656 
L 256.488311 205.770034 
L 256.690057 205.770034 
L 256.746757 203.186924 
L 259.206187 203.186924 
L 259.206187 202.670302 
L 259.410809 202.670302 
L 259.410809 202.15368 
L 259.584012 202.15368 
L 259.584012 201.637058 
L 262.067679 201.637058 
L 262.067679 200.087192 
L 262.251936 200.087192 
L 262.251936 199.57057 
L 262.689682 199.57057 
L 262.689682 198.020704 
L 262.819357 198.020704 
L 262.819357 197.504082 
L 264.058871 197.504082 
L 264.058871 196.98746 
L 265.187662 196.98746 
L 265.187662 196.470838 
L 265.790628 196.470838 
L 265.790628 192.854484 
L 267.551492 192.854484 
L 267.551492 191.82124 
L 268.696251 191.82124 
L 268.69769 190.787996 
L 270.078067 190.787996 
L 270.078067 190.271374 
L 270.45001 190.271374 
L 270.45001 188.721508 
L 270.782727 188.721508 
L 270.782727 187.688264 
L 270.997302 187.688264 
L 270.997302 185.105154 
L 271.217408 185.105154 
L 271.217408 184.588532 
L 271.847624 184.588532 
L 271.847624 184.07191 
L 273.915717 184.07191 
L 273.915717 176.322579 
L 274.872786 176.322579 
L 274.872786 175.805957 
L 275.134622 175.805957 
L 275.134622 175.289335 
L 275.304025 175.289335 
L 275.304025 174.772713 
L 276.493976 174.772713 
L 276.493976 173.739469 
L 277.494146 173.739469 
L 277.550991 172.189603 
L 277.635365 172.189603 
L 277.636238 171.156359 
L 279.185546 171.156359 
L 279.185546 170.639737 
L 279.632711 170.639737 
L 279.703851 169.606493 
L 279.85427 169.606493 
L 279.85427 169.089871 
L 280.161419 169.089871 
L 280.161419 168.573249 
L 280.332772 168.573249 
L 280.332772 168.056627 
L 281.215293 168.056627 
L 281.304456 167.023383 
L 281.40435 167.023383 
L 281.40435 166.506761 
L 281.595757 166.506761 
L 281.595757 165.990139 
L 281.977872 165.990139 
L 281.977872 165.473517 
L 282.46827 165.473517 
L 282.46827 164.956895 
L 282.632132 164.956895 
L 282.632132 164.440273 
L 283.871825 164.440273 
L 283.871825 163.923651 
L 284.18614 163.923651 
L 284.18614 163.407029 
L 284.447013 163.407029 
L 284.447013 162.890407 
L 286.352931 162.890407 
L 286.352931 162.373785 
L 286.88723 162.373785 
L 286.88723 161.857163 
L 287.359741 161.857163 
L 287.359741 161.340541 
L 288.785408 161.340541 
L 288.785408 160.823919 
L 289.386292 160.823919 
L 289.391995 159.790675 
L 290.426693 159.790675 
L 290.426693 159.274053 
L 290.835374 159.274053 
L 290.835374 158.757431 
L 291.01837 158.757431 
L 291.01837 158.240809 
L 291.419271 158.240809 
L 291.419271 157.724187 
L 291.826762 157.724187 
L 291.826762 157.207565 
L 292.215507 157.207565 
L 292.215507 156.690943 
L 292.440464 156.690943 
L 292.440464 156.174321 
L 293.788538 156.174321 
L 293.788538 155.657699 
L 294.238779 155.657699 
L 294.238779 155.141077 
L 294.460585 155.141077 
L 294.460585 154.624455 
L 295.121696 154.624455 
L 295.121696 154.107833 
L 295.944394 154.107833 
L 295.95103 153.074589 
L 296.506648 153.074589 
L 296.506648 152.557967 
L 296.673607 152.557967 
L 296.673607 152.041345 
L 297.063598 152.041345 
L 297.063598 151.524723 
L 297.33944 151.524723 
L 297.33944 151.008101 
L 299.048933 151.008101 
L 299.085871 149.974857 
L 299.543689 149.974857 
L 299.543689 149.458235 
L 300.142776 149.458235 
L 300.142776 148.941613 
L 301.564283 148.941613 
L 301.564283 148.424991 
L 302.044234 148.424991 
L 302.044234 147.908369 
L 302.610117 147.908369 
L 302.685495 146.875125 
L 303.156061 146.875125 
L 303.156061 146.358503 
L 304.355394 146.358503 
L 304.355394 145.841881 
L 304.548087 145.841881 
L 304.548087 145.325259 
L 306.813086 145.325259 
L 306.813086 144.808637 
L 308.756988 144.808637 
L 308.756988 144.292014 
L 311.111073 144.292014 
L 311.111073 143.775392 
L 311.632673 143.775392 
L 311.632673 143.25877 
L 312.638518 143.25877 
L 312.638518 142.742148 
L 314.355658 142.742148 
L 314.355658 142.225526 
L 320.703993 142.225526 
L 320.703993 141.708904 
L 321.749825 141.708904 
L 321.749825 141.192282 
L 322.681396 141.192282 
L 322.681396 140.67566 
L 325.011088 140.67566 
L 325.011088 140.159038 
L 331.832336 140.159038 
L 331.832336 139.642416 
L 332.298446 139.642416 
L 332.298446 139.125794 
L 336.209399 139.125794 
L 336.209399 138.609172 
L 336.556837 138.609172 
L 336.556837 138.09255 
L 358.8 138.09255 
L 358.8 138.09255 
" style="fill:none;stroke:#ff00ff;stroke-linecap:square;stroke-width:1.5;"/>
   </g>
   <g id="line2d_30">
    <defs>
     <path d="M -0 8.485281 
L 5.091169 0 
L 0 -8.485281 
L -5.091169 -0 
z
" id="maba6a63d21" style="stroke:#ff00ff;stroke-linejoin:miter;stroke-width:1.5;"/>
    </defs>
    <g>
     <use style="fill:none;stroke:#ff00ff;stroke-linejoin:miter;stroke-width:1.5;" x="253.815057" xlink:href="#maba6a63d21" y="208.353144"/>
     <use style="fill:none;stroke:#ff00ff;stroke-linejoin:miter;stroke-width:1.5;" x="336.556837" xlink:href="#maba6a63d21" y="138.09255"/>
     <use style="fill:none;stroke:#ff00ff;stroke-linejoin:miter;stroke-width:1.5;" x="336.556837" xlink:href="#maba6a63d21" y="138.09255"/>
     <use style="fill:none;stroke:#ff00ff;stroke-linejoin:miter;stroke-width:1.5;" x="358.8" xlink:href="#maba6a63d21" y="138.09255"/>
    </g>
   </g>
   <g id="line2d_31"/>
   <g id="line2d_32">
    <path clip-path="url(#p495e60b031)" d="M 256.746757 203.186924 
" style="fill:none;stroke:#ff00ff;stroke-linecap:square;stroke-width:1.5;"/>
    <defs>
     <path d="M -12 12 
L 12 -12 
M -12 -12 
L 12 12 
" id="m9dc139f334" style="stroke:#ff00ff;stroke-width:3;"/>
    </defs>
    <g clip-path="url(#p495e60b031)">
     <use style="fill:#ff00ff;stroke:#ff00ff;stroke-width:3;" x="256.746757" xlink:href="#m9dc139f334" y="203.186924"/>
    </g>
   </g>
   <g id="line2d_33">
    <defs>
     <path d="M 0 1.5 
C 0.397805 1.5 0.77937 1.341951 1.06066 1.06066 
C 1.341951 0.77937 1.5 0.397805 1.5 0 
C 1.5 -0.397805 1.341951 -0.77937 1.06066 -1.06066 
C 0.77937 -1.341951 0.397805 -1.5 0 -1.5 
C -0.397805 -1.5 -0.77937 -1.341951 -1.06066 -1.06066 
C -1.341951 -0.77937 -1.5 -0.397805 -1.5 0 
C -1.5 0.397805 -1.341951 0.77937 -1.06066 1.06066 
C -0.77937 1.341951 -0.397805 1.5 0 1.5 
z
" id="m2910701b9b" style="stroke:#ffa500;"/>
    </defs>
    <g>
     <use style="fill:#ffa500;stroke:#ffa500;" x="338.354074" xlink:href="#m2910701b9b" y="107.095229"/>
     <use style="fill:#ffa500;stroke:#ffa500;" x="338.354074" xlink:href="#m2910701b9b" y="107.095229"/>
    </g>
   </g>
   <g id="line2d_34">
    <path d="M 121.212725 298.245375 
L 121.212725 296.178887 
L 121.63317 296.178887 
L 121.63317 295.145643 
L 123.411577 295.145643 
L 123.411577 293.595777 
L 123.967107 293.595777 
L 123.967107 292.562533 
L 124.148511 292.562533 
L 124.148511 291.529289 
L 133.914217 291.529289 
L 133.914217 291.012667 
L 135.028171 291.012667 
L 135.028171 289.979423 
L 135.3203 289.979423 
L 135.416624 288.946179 
L 142.468351 288.946179 
L 142.468351 288.429557 
L 143.166661 288.429557 
L 143.166661 287.912935 
L 143.718379 287.912935 
L 143.718379 286.363069 
L 148.040421 286.363069 
L 148.087754 285.329825 
L 148.600303 285.329825 
L 148.600303 284.813203 
L 148.8738 284.813203 
L 148.8738 283.779959 
L 150.597364 283.779959 
L 150.597364 283.263337 
L 151.517985 283.263337 
L 151.517985 281.196849 
L 153.957503 281.196849 
L 153.957503 280.163604 
L 154.526919 280.163604 
L 154.526919 279.646982 
L 155.426942 279.646982 
L 155.426942 279.13036 
L 157.356496 279.13036 
L 157.356496 278.613738 
L 157.855948 278.613738 
L 157.855948 278.097116 
L 160.258996 278.097116 
L 160.258996 277.063872 
L 160.962556 277.063872 
L 160.962556 276.54725 
L 162.982598 276.54725 
L 163.023627 275.514006 
L 163.608197 275.514006 
L 163.608197 274.997384 
L 163.864163 274.997384 
L 163.864163 273.96414 
L 164.535615 273.96414 
L 164.535615 273.447518 
L 166.994381 273.447518 
L 166.994381 272.414274 
L 167.874762 272.414274 
L 167.874762 271.897652 
L 169.543665 271.897652 
L 169.543665 270.864408 
L 169.727655 270.864408 
L 169.727655 269.831164 
L 170.620217 269.831164 
L 170.620217 269.314542 
L 171.148117 269.314542 
L 171.148117 268.281298 
L 171.393509 268.281298 
L 171.393509 267.248054 
L 172.608314 267.248054 
L 172.608314 266.731432 
L 174.483716 266.731432 
L 174.483716 266.21481 
L 178.625574 266.21481 
L 178.668311 264.664944 
L 179.305627 264.664944 
L 179.305627 264.148322 
L 179.551072 264.148322 
L 179.551072 263.6317 
L 182.392303 263.6317 
L 182.392303 263.115078 
L 183.058948 263.115078 
L 183.078969 261.04859 
L 184.538401 261.04859 
L 184.538401 260.531968 
L 184.975563 260.531968 
L 184.975563 260.015346 
L 185.738772 260.015346 
L 185.738772 259.498724 
L 185.972868 259.498724 
L 185.97854 257.948858 
L 186.706364 257.948858 
L 186.706364 257.432236 
L 186.997963 257.432236 
L 186.997963 256.398992 
L 187.489268 256.398992 
L 187.499687 252.782638 
L 188.329018 252.782638 
L 188.329018 252.266016 
L 189.789035 252.266016 
L 189.789035 251.749394 
L 191.395994 251.749394 
L 191.395994 250.71615 
L 193.334613 250.71615 
L 193.334613 250.199528 
L 199.208268 250.199528 
L 199.208268 249.682906 
L 200.481561 249.682906 
L 200.481561 249.166284 
L 201.180424 249.166284 
L 201.180424 248.13304 
L 201.351551 248.13304 
L 201.351551 247.099796 
L 201.84598 247.099796 
L 201.84598 246.583173 
L 203.400321 246.583173 
L 203.432375 244.516685 
L 203.517573 244.516685 
L 203.517573 243.483441 
L 210.510677 243.483441 
L 210.510677 242.966819 
L 211.081872 242.966819 
L 211.081872 242.450197 
L 211.248076 242.450197 
L 211.248076 241.933575 
L 211.517618 241.933575 
L 211.517618 241.416953 
L 211.644813 241.416953 
L 211.644813 240.900331 
L 212.646339 240.900331 
L 212.646339 240.383709 
L 215.154261 240.383709 
L 215.154261 239.867087 
L 216.199931 239.867087 
L 216.199931 239.350465 
L 217.088629 239.350465 
L 217.088629 238.833843 
L 217.534398 238.833843 
L 217.554751 237.800599 
L 217.783807 237.800599 
L 217.783807 237.283977 
L 217.917188 237.283977 
L 218.007132 236.250733 
L 218.137924 236.250733 
L 218.137924 234.700867 
L 218.264043 234.700867 
L 218.269628 232.634379 
L 218.375406 232.634379 
L 218.375406 231.084513 
L 218.823068 231.084513 
L 218.823068 230.567891 
L 219.283546 230.567891 
L 219.283546 229.534647 
L 219.547138 229.534647 
L 219.547138 229.018025 
L 219.743598 229.018025 
L 219.743598 228.501403 
L 219.976025 228.501403 
L 219.976025 227.984781 
L 220.107495 227.984781 
L 220.107495 225.918293 
L 222.013165 225.918293 
L 222.08021 222.818561 
L 223.217689 222.818561 
L 223.217689 221.785317 
L 223.83755 221.785317 
L 223.83755 221.268695 
L 224.897212 221.268695 
L 224.897212 219.202207 
L 226.233213 219.202207 
L 226.233213 218.685585 
L 226.932707 218.685585 
L 226.932707 218.168963 
L 228.108654 218.168963 
L 228.108654 217.652341 
L 229.853082 217.652341 
L 229.853082 216.619097 
L 231.913301 216.619097 
L 231.913301 214.035987 
L 232.129689 214.035987 
L 232.20067 213.002743 
L 232.313827 213.002743 
L 232.313827 211.969498 
L 233.175597 211.969498 
L 233.175597 211.452876 
L 233.946308 211.452876 
L 233.946308 210.936254 
L 235.450232 210.936254 
L 235.450232 210.419632 
L 235.626894 210.419632 
L 235.626894 209.386388 
L 236.077726 209.386388 
L 236.077726 208.353144 
L 236.197894 208.353144 
L 236.270084 204.73679 
L 236.386944 204.73679 
L 236.386944 203.703546 
L 236.859056 203.703546 
L 236.859056 203.186924 
L 237.350073 203.186924 
L 237.350073 202.670302 
L 237.524842 202.670302 
L 237.524842 202.15368 
L 237.800527 202.15368 
L 237.800527 200.603814 
L 238.962558 200.603814 
L 238.962558 200.087192 
L 239.341994 200.087192 
L 239.341994 199.053948 
L 239.804117 199.053948 
L 239.804117 198.537326 
L 239.974239 198.537326 
L 239.974239 198.020704 
L 240.355993 198.020704 
L 240.442302 196.470838 
L 240.714398 196.470838 
L 240.714398 195.437594 
L 241.310656 195.437594 
L 241.310656 194.920972 
L 241.425622 194.920972 
L 241.425622 194.40435 
L 242.291285 194.40435 
L 242.332966 192.854484 
L 242.473046 192.854484 
L 242.473046 192.337862 
L 243.516001 192.337862 
L 243.516001 191.82124 
L 243.63004 191.82124 
L 243.63004 191.304618 
L 243.7637 191.304618 
L 243.786921 188.204886 
L 244.640233 188.204886 
L 244.640233 187.171642 
L 244.78114 187.171642 
L 244.78114 186.65502 
L 245.792683 186.65502 
L 245.792683 186.138398 
L 246.21369 186.138398 
L 246.21369 185.621776 
L 246.433427 185.621776 
L 246.525358 183.555288 
L 247.172212 183.555288 
L 247.172212 183.038666 
L 247.342359 183.038666 
L 247.342359 182.005422 
L 247.486792 182.005422 
L 247.574194 180.455556 
L 248.968434 180.455556 
L 249.057704 179.422312 
L 249.416741 179.422312 
L 249.416741 178.90569 
L 250.686513 178.90569 
L 250.789345 176.839201 
L 251.099819 176.839201 
L 251.099819 176.322579 
L 253.20927 176.322579 
L 253.20927 175.805957 
L 253.331323 175.805957 
L 253.331323 174.772713 
L 253.781929 174.772713 
L 253.781929 173.222847 
L 254.923485 173.222847 
L 254.923485 172.706225 
L 255.667162 172.706225 
L 255.668998 171.672981 
L 255.865405 171.672981 
L 255.958459 169.089871 
L 257.007482 169.089871 
L 257.117447 165.990139 
L 257.372022 165.990139 
L 257.461202 163.923651 
L 257.556962 163.923651 
L 257.556962 163.407029 
L 258.018251 163.407029 
L 258.113381 161.340541 
L 258.465576 161.340541 
L 258.465576 160.307297 
L 259.202609 160.307297 
L 259.202609 159.274053 
L 259.672739 159.274053 
L 259.672739 158.757431 
L 260.022407 158.757431 
L 260.022407 158.240809 
L 261.365519 158.240809 
L 261.365519 157.724187 
L 262.188152 157.724187 
L 262.188152 156.174321 
L 262.605976 156.174321 
L 262.605976 155.657699 
L 264.769273 155.657699 
L 264.769273 155.141077 
L 265.256373 155.141077 
L 265.31051 152.041345 
L 265.739692 152.041345 
L 265.739692 151.524723 
L 266.206337 151.524723 
L 266.262559 150.491479 
L 267.979429 150.491479 
L 267.979429 148.424991 
L 268.208425 148.424991 
L 268.208425 147.908369 
L 268.403829 147.908369 
L 268.459276 146.358503 
L 268.530928 146.358503 
L 268.530928 144.808637 
L 269.26165 144.808637 
L 269.346021 143.25877 
L 269.469795 143.25877 
L 269.469795 142.225526 
L 270.919564 142.225526 
L 270.919564 140.159038 
L 271.058852 140.159038 
L 271.128551 137.575928 
L 273.202614 137.575928 
L 273.202614 136.542684 
L 273.343869 136.542684 
L 273.428844 135.50944 
L 274.022156 135.50944 
L 274.022156 134.476196 
L 274.415455 134.476196 
L 274.415455 133.442952 
L 274.675871 133.442952 
L 274.675871 132.92633 
L 276.48664 132.92633 
L 276.48664 132.409708 
L 281.552141 132.409708 
L 281.552141 131.893086 
L 282.813881 131.893086 
L 282.813881 131.376464 
L 283.069533 131.376464 
L 283.069533 130.859842 
L 283.326925 130.859842 
L 283.326925 130.34322 
L 283.702583 130.34322 
L 283.702583 129.826598 
L 285.497486 129.826598 
L 285.497486 129.309976 
L 285.803245 129.309976 
L 285.803245 128.793354 
L 286.204557 128.793354 
L 286.204557 128.276732 
L 290.830419 128.276732 
L 290.830419 127.76011 
L 291.679389 127.76011 
L 291.679389 127.243488 
L 292.158111 127.243488 
L 292.158111 126.726866 
L 293.61062 126.726866 
L 293.61062 126.210244 
L 295.322048 126.210244 
L 295.322048 125.693622 
L 296.617883 125.693622 
L 296.617883 125.177 
L 297.578753 125.177 
L 297.578753 124.660378 
L 297.709281 124.660378 
L 297.709281 124.143756 
L 299.010884 124.143756 
L 299.010884 123.627134 
L 301.315184 123.627134 
L 301.315184 123.110512 
L 301.925328 123.110512 
L 301.925328 122.59389 
L 302.342059 122.59389 
L 302.342059 122.077268 
L 304.08357 122.077268 
L 304.08357 121.560646 
L 304.727623 121.560646 
L 304.727623 121.044024 
L 306.199243 121.044024 
L 306.199243 120.527402 
L 306.57588 120.527402 
L 306.596326 119.494158 
L 306.978664 119.494158 
L 306.978664 118.977536 
L 307.835407 118.977536 
L 307.835407 118.460914 
L 312.776128 118.460914 
L 312.776128 117.944292 
L 313.532906 117.944292 
L 313.532906 117.42767 
L 315.15702 117.42767 
L 315.15702 116.911048 
L 315.291753 116.911048 
L 315.291753 116.394426 
L 316.953966 116.394426 
L 316.969672 115.361182 
L 317.307696 115.361182 
L 317.307696 114.84456 
L 317.618907 114.84456 
L 317.618907 114.327938 
L 317.753339 114.327938 
L 317.753339 113.811316 
L 318.045634 113.811316 
L 318.045634 113.294694 
L 318.254528 113.294694 
L 318.254528 112.778072 
L 322.494841 112.778072 
L 322.494841 112.26145 
L 323.003652 112.26145 
L 323.003652 111.744828 
L 324.104438 111.744828 
L 324.104438 111.228206 
L 325.081693 111.228206 
L 325.081693 110.711584 
L 325.569518 110.711584 
L 325.569518 110.194961 
L 327.217001 110.194961 
L 327.217001 109.678339 
L 329.778529 109.678339 
L 329.778529 109.161717 
L 330.771246 109.161717 
L 330.771246 108.645095 
L 331.20516 108.645095 
L 331.20516 108.128473 
L 336.341795 108.128473 
L 336.341795 107.611851 
L 338.354074 107.611851 
L 338.354074 107.095229 
L 358.8 107.095229 
L 358.8 107.095229 
" style="fill:none;stroke:#ffa500;stroke-linecap:square;stroke-width:1.5;"/>
   </g>
   <g id="line2d_35">
    <defs>
     <path d="M 0 -6 
L -1.347084 -1.854102 
L -5.706339 -1.854102 
L -2.179628 0.708204 
L -3.526712 4.854102 
L -0 2.291796 
L 3.526712 4.854102 
L 2.179628 0.708204 
L 5.706339 -1.854102 
L 1.347084 -1.854102 
z
" id="m04c13f040c" style="stroke:#ffa500;stroke-linejoin:bevel;stroke-width:1.5;"/>
    </defs>
    <g>
     <use style="fill:none;stroke:#ffa500;stroke-linejoin:bevel;stroke-width:1.5;" x="231.913301" xlink:href="#m04c13f040c" y="216.619097"/>
     <use style="fill:none;stroke:#ffa500;stroke-linejoin:bevel;stroke-width:1.5;" x="274.022156" xlink:href="#m04c13f040c" y="134.476196"/>
     <use style="fill:none;stroke:#ffa500;stroke-linejoin:bevel;stroke-width:1.5;" x="338.354074" xlink:href="#m04c13f040c" y="107.095229"/>
     <use style="fill:none;stroke:#ffa500;stroke-linejoin:bevel;stroke-width:1.5;" x="338.354074" xlink:href="#m04c13f040c" y="107.095229"/>
     <use style="fill:none;stroke:#ffa500;stroke-linejoin:bevel;stroke-width:1.5;" x="358.8" xlink:href="#m04c13f040c" y="107.095229"/>
    </g>
   </g>
   <g id="line2d_36"/>
   <g id="line2d_37">
    <path clip-path="url(#p495e60b031)" d="M 272.858486 137.575928 
" style="fill:none;stroke:#ffa500;stroke-linecap:square;stroke-width:1.5;"/>
    <defs>
     <path d="M -12 12 
L 12 -12 
M -12 -12 
L 12 12 
" id="m053422f661" style="stroke:#ffa500;stroke-width:3;"/>
    </defs>
    <g clip-path="url(#p495e60b031)">
     <use style="fill:#ffa500;stroke:#ffa500;stroke-width:3;" x="272.858486" xlink:href="#m053422f661" y="137.575928"/>
    </g>
   </g>
   <g id="line2d_38">
    <defs>
     <path d="M 0 1.5 
C 0.397805 1.5 0.77937 1.341951 1.06066 1.06066 
C 1.341951 0.77937 1.5 0.397805 1.5 0 
C 1.5 -0.397805 1.341951 -0.77937 1.06066 -1.06066 
C 0.77937 -1.341951 0.397805 -1.5 0 -1.5 
C -0.397805 -1.5 -0.77937 -1.341951 -1.06066 -1.06066 
C -1.341951 -0.77937 -1.5 -0.397805 -1.5 0 
C -1.5 0.397805 -1.341951 0.77937 -1.06066 1.06066 
C -0.77937 1.341951 -0.397805 1.5 0 1.5 
z
" id="m2424c5df33" style="stroke:#6495ed;"/>
    </defs>
    <g>
     <use style="fill:#6495ed;stroke:#6495ed;" x="333.242439" xlink:href="#m2424c5df33" y="112.26145"/>
     <use style="fill:#6495ed;stroke:#6495ed;" x="333.242439" xlink:href="#m2424c5df33" y="112.26145"/>
    </g>
   </g>
   <g id="line2d_39">
    <path d="M 121.424184 298.245375 
L 121.424184 297.728753 
L 122.245852 297.728753 
L 122.245852 296.695509 
L 122.838219 296.695509 
L 122.838219 295.662265 
L 123.222494 295.662265 
L 123.222494 294.629021 
L 123.411577 294.629021 
L 123.411577 293.595777 
L 124.328091 293.595777 
L 124.328091 292.045911 
L 133.491283 292.045911 
L 133.491283 290.496045 
L 134.018404 290.496045 
L 134.018404 289.979423 
L 134.327371 289.979423 
L 134.327371 288.946179 
L 136.533745 288.946179 
L 136.533745 288.429557 
L 147.01632 288.429557 
L 147.01632 287.912935 
L 147.945378 287.912935 
L 147.945378 287.396313 
L 152.65165 287.396313 
L 152.65165 286.879691 
L 156.958146 286.879691 
L 156.958146 286.363069 
L 158.073523 286.363069 
L 158.073523 285.846447 
L 158.918259 285.846447 
L 158.918259 285.329825 
L 159.300888 285.329825 
L 159.300888 283.779959 
L 160.378197 283.779959 
L 160.378197 283.263337 
L 161.00849 283.263337 
L 161.00849 282.230093 
L 161.461444 282.230093 
L 161.506115 280.680226 
L 163.084994 280.680226 
L 163.084994 280.163604 
L 164.212632 280.163604 
L 164.212632 279.646982 
L 164.441225 279.646982 
L 164.441225 278.613738 
L 164.9267 278.613738 
L 164.9267 278.097116 
L 166.274538 278.097116 
L 166.342737 277.063872 
L 166.545786 277.063872 
L 166.545786 276.54725 
L 169.038679 276.54725 
L 169.038679 273.96414 
L 169.586293 273.96414 
L 169.586293 273.447518 
L 170.965121 273.447518 
L 170.965121 272.930896 
L 171.521321 272.930896 
L 171.521321 272.414274 
L 171.88689 272.414274 
L 171.88689 271.897652 
L 172.39129 271.897652 
L 172.39129 271.38103 
L 172.739654 271.38103 
L 172.739654 269.831164 
L 173.450975 269.831164 
L 173.450975 269.314542 
L 174.962783 269.314542 
L 174.962783 268.79792 
L 176.655289 268.79792 
L 176.655289 267.764676 
L 177.504312 267.764676 
L 177.504312 267.248054 
L 177.730666 267.248054 
L 177.730666 266.731432 
L 178.462237 266.731432 
L 178.462237 265.698188 
L 180.259996 265.698188 
L 180.259996 265.181566 
L 181.350592 265.181566 
L 181.350592 264.664944 
L 181.742995 264.664944 
L 181.742995 263.6317 
L 184.673117 263.6317 
L 184.685313 262.598456 
L 184.843117 262.598456 
L 184.843117 261.565212 
L 188.30912 261.565212 
L 188.30912 260.531968 
L 188.526785 260.531968 
L 188.526785 260.015346 
L 191.074875 260.015346 
L 191.074875 259.498724 
L 192.464703 259.498724 
L 192.464703 258.46548 
L 198.08085 258.46548 
L 198.08085 257.948858 
L 198.43734 257.948858 
L 198.43734 256.915614 
L 198.711938 256.915614 
L 198.711938 256.398992 
L 198.985118 256.398992 
L 198.985118 255.365748 
L 204.071976 255.365748 
L 204.160335 254.332504 
L 205.059726 254.332504 
L 205.059726 253.29926 
L 207.702098 253.29926 
L 207.702098 252.782638 
L 208.653128 252.782638 
L 208.653128 252.266016 
L 209.770008 252.266016 
L 209.853671 250.71615 
L 210.470405 250.71615 
L 210.470405 250.199528 
L 211.238423 250.199528 
L 211.238423 249.682906 
L 212.073785 249.682906 
L 212.073785 248.649662 
L 212.978515 248.649662 
L 212.978515 247.616418 
L 215.560633 247.616418 
L 215.560633 247.099796 
L 217.480011 247.099796 
L 217.480011 246.583173 
L 217.833465 246.583173 
L 217.908643 245.033307 
L 219.77271 245.033307 
L 219.842727 244.000063 
L 221.467555 244.000063 
L 221.481556 239.350465 
L 221.881358 239.350465 
L 221.899596 235.734111 
L 222.969748 235.734111 
L 222.969748 235.217489 
L 223.20216 235.217489 
L 223.20216 234.700867 
L 223.611929 234.700867 
L 223.611929 233.667623 
L 223.86819 233.667623 
L 223.86819 233.151001 
L 224.560746 233.151001 
L 224.656691 230.567891 
L 227.373652 230.567891 
L 227.373652 230.051269 
L 227.879683 230.051269 
L 227.879683 229.534647 
L 229.986901 229.534647 
L 229.986901 227.468159 
L 230.203435 227.468159 
L 230.203435 226.951537 
L 230.390477 226.951537 
L 230.397088 225.401671 
L 230.715714 225.401671 
L 230.715714 224.368427 
L 231.333277 224.368427 
L 231.333277 223.851805 
L 231.583284 223.851805 
L 231.583284 223.335183 
L 231.848132 223.335183 
L 231.848132 222.301939 
L 232.073473 222.301939 
L 232.073473 221.785317 
L 232.323154 221.785317 
L 232.323154 221.268695 
L 232.435962 221.268695 
L 232.435962 220.752073 
L 232.630323 220.752073 
L 232.630323 220.235451 
L 233.653257 220.235451 
L 233.703153 218.685585 
L 233.81306 218.685585 
L 233.831767 217.135719 
L 233.986128 217.135719 
L 234.072037 216.102475 
L 234.257086 216.102475 
L 234.257086 215.585853 
L 234.473337 215.585853 
L 234.473337 214.552609 
L 234.749645 214.552609 
L 234.749645 214.035987 
L 234.901812 214.035987 
L 234.901812 213.519365 
L 235.506713 213.519365 
L 235.580685 211.452876 
L 235.848861 211.452876 
L 235.848861 210.936254 
L 236.157585 210.936254 
L 236.157585 210.419632 
L 237.136386 210.419632 
L 237.136386 209.386388 
L 239.5106 209.386388 
L 239.5106 208.353144 
L 239.81471 208.353144 
L 239.81471 207.836522 
L 240.242348 207.836522 
L 240.242348 207.3199 
L 240.374639 207.3199 
L 240.464621 205.770034 
L 240.536763 205.770034 
L 240.536763 205.253412 
L 241.203199 205.253412 
L 241.203199 204.73679 
L 241.457171 204.73679 
L 241.457171 204.220168 
L 241.907004 204.220168 
L 241.907004 203.703546 
L 242.440595 203.703546 
L 242.441798 202.670302 
L 243.738882 202.670302 
L 243.738882 201.637058 
L 244.522633 201.637058 
L 244.522633 200.087192 
L 245.557194 200.087192 
L 245.557194 199.57057 
L 245.849036 199.57057 
L 245.849036 199.053948 
L 246.630905 199.053948 
L 246.630905 197.504082 
L 246.744155 197.504082 
L 246.765322 194.920972 
L 247.729661 194.920972 
L 247.729661 194.40435 
L 248.125557 194.40435 
L 248.125557 190.787996 
L 248.790231 190.787996 
L 248.790231 190.271374 
L 249.46877 190.271374 
L 249.46877 189.23813 
L 250.177805 189.23813 
L 250.177805 186.138398 
L 250.379666 186.138398 
L 250.379666 185.621776 
L 250.898933 185.621776 
L 250.898933 184.07191 
L 251.957382 184.07191 
L 252.05247 179.938934 
L 252.28488 179.938934 
L 252.28488 179.422312 
L 253.563792 179.422312 
L 253.563792 178.90569 
L 253.940641 178.90569 
L 253.940641 178.389067 
L 254.88312 178.389067 
L 254.88312 177.872445 
L 255.01573 177.872445 
L 255.053065 176.322579 
L 255.457176 176.322579 
L 255.457176 175.289335 
L 256.609348 175.289335 
L 256.609348 174.772713 
L 256.798324 174.772713 
L 256.798324 170.123115 
L 257.345609 170.123115 
L 257.345609 169.606493 
L 257.489207 169.606493 
L 257.489207 169.089871 
L 258.315598 169.089871 
L 258.315598 168.573249 
L 258.541366 168.573249 
L 258.541366 167.023383 
L 258.741916 167.023383 
L 258.741916 163.923651 
L 259.713598 163.923651 
L 259.713598 163.407029 
L 260.06095 163.407029 
L 260.06095 162.373785 
L 260.820176 162.373785 
L 260.820176 161.857163 
L 261.199312 161.857163 
L 261.199312 160.823919 
L 261.477709 160.823919 
L 261.500411 159.790675 
L 262.006131 159.790675 
L 262.006131 159.274053 
L 263.314414 159.274053 
L 263.314414 158.240809 
L 264.04394 158.240809 
L 264.04394 157.724187 
L 264.547167 157.724187 
L 264.609685 156.174321 
L 265.210416 156.174321 
L 265.279843 154.624455 
L 268.148255 154.624455 
L 268.232357 153.591211 
L 268.622648 153.591211 
L 268.622648 152.041345 
L 269.611921 152.041345 
L 269.611921 151.524723 
L 270.260544 151.524723 
L 270.260544 151.008101 
L 272.973657 151.008101 
L 272.973657 150.491479 
L 273.275545 150.491479 
L 273.275545 149.974857 
L 273.408786 149.974857 
L 273.408786 148.424991 
L 273.900542 148.424991 
L 273.947018 147.391747 
L 274.800638 147.391747 
L 274.89608 146.358503 
L 275.033772 146.358503 
L 275.033772 145.841881 
L 275.3816 145.841881 
L 275.3816 144.808637 
L 276.475362 144.808637 
L 276.475362 144.292014 
L 277.252604 144.292014 
L 277.252604 143.775392 
L 277.722417 143.775392 
L 277.722417 143.25877 
L 279.162328 143.25877 
L 279.162328 142.742148 
L 279.663628 142.742148 
L 279.663628 142.225526 
L 280.329136 142.225526 
L 280.329136 141.192282 
L 281.480672 141.192282 
L 281.480672 140.67566 
L 281.619674 140.67566 
L 281.619674 140.159038 
L 282.639514 140.159038 
L 282.639514 139.642416 
L 283.689888 139.642416 
L 283.689888 139.125794 
L 284.727504 139.125794 
L 284.727504 138.609172 
L 284.979534 138.609172 
L 284.979534 138.09255 
L 285.368779 138.09255 
L 285.399951 136.542684 
L 285.815183 136.542684 
L 285.815183 136.026062 
L 286.452321 136.026062 
L 286.452321 135.50944 
L 287.080602 135.50944 
L 287.080602 134.992818 
L 287.276756 134.992818 
L 287.276756 134.476196 
L 287.676636 134.476196 
L 287.676636 133.959574 
L 288.898787 133.959574 
L 288.898787 133.442952 
L 289.056195 133.442952 
L 289.056195 132.92633 
L 289.168456 132.92633 
L 289.168456 132.409708 
L 289.806754 132.409708 
L 289.806754 131.893086 
L 289.925211 131.893086 
L 289.925211 131.376464 
L 293.707611 131.376464 
L 293.707611 130.859842 
L 294.230746 130.859842 
L 294.230746 130.34322 
L 294.482601 130.34322 
L 294.493958 129.309976 
L 298.637877 129.309976 
L 298.637877 128.793354 
L 299.4035 128.793354 
L 299.4035 128.276732 
L 300.341304 128.276732 
L 300.440262 127.243488 
L 300.672385 127.243488 
L 300.740358 126.210244 
L 301.0017 126.210244 
L 301.0017 125.693622 
L 303.879864 125.693622 
L 303.879864 125.177 
L 306.364767 125.177 
L 306.364767 124.660378 
L 306.636386 124.660378 
L 306.636386 124.143756 
L 307.802932 124.143756 
L 307.802932 123.627134 
L 310.796043 123.627134 
L 310.796043 123.110512 
L 311.275297 123.110512 
L 311.275297 122.59389 
L 312.064185 122.59389 
L 312.064185 122.077268 
L 312.501271 122.077268 
L 312.501271 121.560646 
L 313.10546 121.560646 
L 313.10546 121.044024 
L 313.773657 121.044024 
L 313.773657 120.527402 
L 313.983356 120.527402 
L 313.983356 120.01078 
L 317.772516 120.01078 
L 317.772516 119.494158 
L 320.3826 119.494158 
L 320.3826 118.977536 
L 321.033593 118.977536 
L 321.033593 118.460914 
L 321.304451 118.460914 
L 321.366041 117.42767 
L 325.124071 117.42767 
L 325.124071 116.911048 
L 326.25976 116.911048 
L 326.25976 116.394426 
L 327.046672 116.394426 
L 327.046672 115.877804 
L 328.12502 115.877804 
L 328.12502 115.361182 
L 329.058903 115.361182 
L 329.058903 114.84456 
L 329.539624 114.84456 
L 329.539624 114.327938 
L 329.943707 114.327938 
L 329.943707 113.811316 
L 331.094031 113.811316 
L 331.094031 113.294694 
L 332.722704 113.294694 
L 332.722704 112.778072 
L 333.242439 112.778072 
L 333.242439 112.26145 
L 358.8 112.26145 
L 358.8 112.26145 
" style="fill:none;stroke:#6495ed;stroke-linecap:square;stroke-width:1.5;"/>
   </g>
   <g id="line2d_40">
    <defs>
     <path d="M -0 6 
L 6 -6 
L -6 -6 
z
" id="mf53efa8fa2" style="stroke:#6495ed;stroke-linejoin:miter;stroke-width:1.5;"/>
    </defs>
    <g>
     <use style="fill:none;stroke:#6495ed;stroke-linejoin:miter;stroke-width:1.5;" x="178.462237" xlink:href="#mf53efa8fa2" y="265.698188"/>
     <use style="fill:none;stroke:#6495ed;stroke-linejoin:miter;stroke-width:1.5;" x="249.46877" xlink:href="#mf53efa8fa2" y="189.23813"/>
     <use style="fill:none;stroke:#6495ed;stroke-linejoin:miter;stroke-width:1.5;" x="289.806754" xlink:href="#mf53efa8fa2" y="131.893086"/>
     <use style="fill:none;stroke:#6495ed;stroke-linejoin:miter;stroke-width:1.5;" x="333.242439" xlink:href="#mf53efa8fa2" y="112.26145"/>
     <use style="fill:none;stroke:#6495ed;stroke-linejoin:miter;stroke-width:1.5;" x="358.8" xlink:href="#mf53efa8fa2" y="112.26145"/>
    </g>
   </g>
   <g id="line2d_41"/>
   <g id="line2d_42">
    <path clip-path="url(#p495e60b031)" d="M 272.686693 151.008101 
" style="fill:none;stroke:#6495ed;stroke-linecap:square;stroke-width:1.5;"/>
    <defs>
     <path d="M -12 12 
L 12 -12 
M -12 -12 
L 12 12 
" id="m7b2ae865e9" style="stroke:#6495ed;stroke-width:3;"/>
    </defs>
    <g clip-path="url(#p495e60b031)">
     <use style="fill:#6495ed;stroke:#6495ed;stroke-width:3;" x="272.686693" xlink:href="#m7b2ae865e9" y="151.008101"/>
    </g>
   </g>
   <g id="line2d_43">
    <defs>
     <path d="M 0 1.5 
C 0.397805 1.5 0.77937 1.341951 1.06066 1.06066 
C 1.341951 0.77937 1.5 0.397805 1.5 0 
C 1.5 -0.397805 1.341951 -0.77937 1.06066 -1.06066 
C 0.77937 -1.341951 0.397805 -1.5 0 -1.5 
C -0.397805 -1.5 -0.77937 -1.341951 -1.06066 -1.06066 
C -1.341951 -0.77937 -1.5 -0.397805 -1.5 0 
C -1.5 0.397805 -1.341951 0.77937 -1.06066 1.06066 
C -0.77937 1.341951 -0.397805 1.5 0 1.5 
z
" id="m09eb933bc6" style="stroke:#ff0000;"/>
    </defs>
    <g>
     <use style="fill:#ff0000;stroke:#ff0000;" x="198.14124" xlink:href="#m09eb933bc6" y="34.768147"/>
     <use style="fill:#ff0000;stroke:#ff0000;" x="198.14124" xlink:href="#m09eb933bc6" y="34.768147"/>
    </g>
   </g>
   <g id="line2d_44">
    <path d="M 42.042377 298.245375 
L 42.042377 295.145643 
L 119.888555 295.145643 
L 119.888555 294.629021 
L 120.998733 294.629021 
L 120.998733 293.079155 
L 121.212725 293.079155 
L 121.212725 292.562533 
L 121.839741 292.562533 
L 121.839741 291.529289 
L 122.04395 291.529289 
L 122.04395 290.496045 
L 122.642937 290.496045 
L 122.642937 287.912935 
L 122.838219 287.912935 
L 122.838219 285.329825 
L 123.03139 285.329825 
L 123.03139 283.779959 
L 123.411577 283.779959 
L 123.411577 283.263337 
L 123.783843 283.263337 
L 123.783843 282.230093 
L 124.328091 282.230093 
L 124.328091 280.680226 
L 134.327371 280.680226 
L 134.327371 279.646982 
L 134.731187 279.646982 
L 134.731187 278.613738 
L 135.512432 278.613738 
L 135.512432 278.097116 
L 140.266416 278.097116 
L 140.266416 277.580494 
L 141.875983 277.580494 
L 141.875983 277.063872 
L 142.273069 277.063872 
L 142.273069 276.54725 
L 143.958223 276.54725 
L 143.958223 276.030628 
L 146.036293 276.030628 
L 146.036293 275.514006 
L 148.783099 275.514006 
L 148.783099 273.96414 
L 149.098559 273.96414 
L 149.098559 273.447518 
L 150.801573 273.447518 
L 150.801573 272.930896 
L 151.12353 272.930896 
L 151.12353 272.414274 
L 152.206777 272.414274 
L 152.206777 271.38103 
L 155.174385 271.38103 
L 155.174385 270.864408 
L 157.496639 270.864408 
L 157.496639 270.347786 
L 157.607967 270.347786 
L 157.607967 269.314542 
L 158.500882 269.314542 
L 158.500882 268.79792 
L 159.675495 268.79792 
L 159.675495 268.281298 
L 160.258996 268.281298 
L 160.258996 267.248054 
L 160.824043 267.248054 
L 160.824043 266.731432 
L 162.163105 266.731432 
L 162.163105 266.21481 
L 164.365352 266.21481 
L 164.365352 265.698188 
L 165.091722 265.698188 
L 165.091722 265.181566 
L 165.417263 265.181566 
L 165.417263 264.664944 
L 166.068365 264.664944 
L 166.120132 263.115078 
L 166.257447 263.115078 
L 166.257447 261.565212 
L 167.010781 261.565212 
L 167.010781 260.015346 
L 168.473749 260.015346 
L 168.473749 259.498724 
L 168.639126 259.498724 
L 168.639126 258.982102 
L 169.097119 258.982102 
L 169.111699 255.88237 
L 169.242389 255.88237 
L 169.242389 255.365748 
L 169.443803 255.365748 
L 169.500935 253.815882 
L 171.406331 253.815882 
L 171.406331 253.29926 
L 172.70393 253.29926 
L 172.739654 252.266016 
L 172.928987 252.266016 
L 172.928987 251.749394 
L 173.151245 251.749394 
L 173.151245 251.232772 
L 173.689447 251.232772 
L 173.689447 249.682906 
L 173.801896 249.682906 
L 173.813102 247.616418 
L 174.623438 247.616418 
L 174.623438 246.583173 
L 174.910183 246.583173 
L 174.910183 245.033307 
L 175.130069 245.033307 
L 175.213128 242.966819 
L 175.953724 242.966819 
L 175.953724 242.450197 
L 176.171028 242.450197 
L 176.180843 240.900331 
L 177.108148 240.900331 
L 177.108148 240.383709 
L 177.284281 240.383709 
L 177.284281 239.350465 
L 177.558899 239.350465 
L 177.558899 231.084513 
L 178.148601 231.084513 
L 178.148601 230.567891 
L 178.642681 230.567891 
L 178.642681 217.652341 
L 178.804385 217.652341 
L 178.804385 205.253412 
L 179.223057 205.253412 
L 179.223057 204.220168 
L 179.485949 204.220168 
L 179.485949 203.186924 
L 179.648314 203.186924 
L 179.648314 199.57057 
L 180.874081 199.57057 
L 180.874081 199.053948 
L 181.031841 199.053948 
L 181.054265 196.98746 
L 181.151112 196.98746 
L 181.151112 195.437594 
L 181.423913 195.437594 
L 181.423913 185.105154 
L 181.699818 185.105154 
L 181.778896 167.023383 
L 182.267107 167.023383 
L 182.267107 166.506761 
L 182.789845 166.506761 
L 182.837232 140.159038 
L 182.965222 140.159038 
L 182.965222 126.726866 
L 183.218486 126.726866 
L 183.218486 115.361182 
L 183.900186 115.361182 
L 183.900186 114.84456 
L 184.458316 114.84456 
L 184.464489 113.294694 
L 185.148665 113.294694 
L 185.148665 112.778072 
L 185.600304 112.778072 
L 185.600304 111.744828 
L 186.420995 111.744828 
L 186.420995 111.228206 
L 186.706364 111.228206 
L 186.706364 97.796033 
L 187.184451 97.796033 
L 187.184451 97.279411 
L 187.639748 97.279411 
L 187.639748 85.913727 
L 188.333989 85.913727 
L 188.333989 73.514798 
L 188.536616 73.514798 
L 188.536616 63.182358 
L 190.62151 63.182358 
L 190.62151 50.78343 
L 197.575432 50.78343 
L 197.575432 50.266808 
L 197.854742 50.266808 
L 197.854742 49.233564 
L 198.14124 49.233564 
L 198.14124 34.768147 
L 358.8 34.768147 
L 358.8 34.768147 
" style="fill:none;stroke:#ff0000;stroke-linecap:square;stroke-width:1.5;"/>
   </g>
   <g id="line2d_45">
    <defs>
     <path d="M 0 -6 
L -5.196152 -3 
L -5.196152 3 
L -0 6 
L 5.196152 3 
L 5.196152 -3 
z
" id="mda98555cc4" style="stroke:#ff0000;stroke-linejoin:miter;stroke-width:1.5;"/>
    </defs>
    <g>
     <use style="fill:none;stroke:#ff0000;stroke-linejoin:miter;stroke-width:1.5;" x="135.512432" xlink:href="#mda98555cc4" y="278.097116"/>
     <use style="fill:none;stroke:#ff0000;stroke-linejoin:miter;stroke-width:1.5;" x="178.642681" xlink:href="#mda98555cc4" y="230.567891"/>
     <use style="fill:none;stroke:#ff0000;stroke-linejoin:miter;stroke-width:1.5;" x="188.333989" xlink:href="#mda98555cc4" y="73.514798"/>
     <use style="fill:none;stroke:#ff0000;stroke-linejoin:miter;stroke-width:1.5;" x="198.14124" xlink:href="#mda98555cc4" y="49.233564"/>
     <use style="fill:none;stroke:#ff0000;stroke-linejoin:miter;stroke-width:1.5;" x="198.14124" xlink:href="#mda98555cc4" y="34.768147"/>
     <use style="fill:none;stroke:#ff0000;stroke-linejoin:miter;stroke-width:1.5;" x="358.8" xlink:href="#mda98555cc4" y="34.768147"/>
    </g>
   </g>
   <g id="line2d_46"/>
   <g id="line2d_47">
    <path d="M 358.8 138.09255 
L 390.48 292.97583 
" style="fill:none;stroke:#ff00ff;stroke-linecap:square;stroke-width:1.5;"/>
    <g>
     <use style="fill:none;stroke:#ff00ff;stroke-linejoin:miter;stroke-width:1.5;" x="358.8" xlink:href="#maba6a63d21" y="138.09255"/>
     <use style="fill:none;stroke:#ff00ff;stroke-linejoin:miter;stroke-width:1.5;" x="390.48" xlink:href="#maba6a63d21" y="292.97583"/>
    </g>
   </g>
   <g id="line2d_48">
    <path d="M 358.8 112.26145 
L 390.48 229.741296 
" style="fill:none;stroke:#6495ed;stroke-linecap:square;stroke-width:1.5;"/>
    <g>
     <use style="fill:none;stroke:#6495ed;stroke-linejoin:miter;stroke-width:1.5;" x="358.8" xlink:href="#mf53efa8fa2" y="112.26145"/>
     <use style="fill:none;stroke:#6495ed;stroke-linejoin:miter;stroke-width:1.5;" x="390.48" xlink:href="#mf53efa8fa2" y="229.741296"/>
    </g>
   </g>
   <g id="line2d_49">
    <path d="M 358.8 107.095229 
L 390.48 166.506761 
" style="fill:none;stroke:#ffa500;stroke-linecap:square;stroke-width:1.5;"/>
    <g>
     <use style="fill:none;stroke:#ffa500;stroke-linejoin:bevel;stroke-width:1.5;" x="358.8" xlink:href="#m04c13f040c" y="107.095229"/>
     <use style="fill:none;stroke:#ffa500;stroke-linejoin:bevel;stroke-width:1.5;" x="390.48" xlink:href="#m04c13f040c" y="166.506761"/>
    </g>
   </g>
   <g id="line2d_50">
    <path d="M 358.8 39.934367 
L 390.48 103.272226 
" style="fill:none;stroke:#000080;stroke-linecap:square;stroke-width:1.5;"/>
    <g>
     <use style="fill:none;stroke:#000080;stroke-width:1.5;" x="358.8" xlink:href="#mfa34f0b153" y="39.934367"/>
     <use style="fill:none;stroke:#000080;stroke-width:1.5;" x="390.48" xlink:href="#mfa34f0b153" y="103.272226"/>
    </g>
   </g>
   <g id="line2d_51">
    <path d="M 358.8 34.768147 
L 390.48 40.037692 
" style="fill:none;stroke:#ff0000;stroke-linecap:square;stroke-width:1.5;"/>
    <g>
     <use style="fill:none;stroke:#ff0000;stroke-linejoin:miter;stroke-width:1.5;" x="358.8" xlink:href="#mda98555cc4" y="34.768147"/>
     <use style="fill:none;stroke:#ff0000;stroke-linejoin:miter;stroke-width:1.5;" x="390.48" xlink:href="#mda98555cc4" y="40.037692"/>
    </g>
   </g>
   <g id="line2d_52">
    <path d="M 358.8 298.245375 
L 358.8 34.768147 
" style="fill:none;stroke:#000000;stroke-linecap:square;stroke-width:1.5;"/>
   </g>
   <g id="patch_3">
    <path d="M 70.8 298.245375 
L 70.8 32.133375 
" style="fill:none;stroke:#000000;stroke-linecap:square;stroke-linejoin:miter;stroke-width:0.8;"/>
   </g>
   <g id="patch_4">
    <path d="M 427.92 298.245375 
L 427.92 32.133375 
" style="fill:none;stroke:#000000;stroke-linecap:square;stroke-linejoin:miter;stroke-width:0.8;"/>
   </g>
   <g id="patch_5">
    <path d="M 70.8 298.245375 
L 427.92 298.245375 
" style="fill:none;stroke:#000000;stroke-linecap:square;stroke-linejoin:miter;stroke-width:0.8;"/>
   </g>
   <g id="patch_6">
    <path d="M 70.8 32.133375 
L 427.92 32.133375 
" style="fill:none;stroke:#000000;stroke-linecap:square;stroke-linejoin:miter;stroke-width:0.8;"/>
   </g>
   <g id="text_14">
    <!-- f2 -->
    <g transform="translate(396.24 297.114893)scale(0.15 -0.15)">
     <use xlink:href="#DejaVuSans-66"/>
     <use x="35.205078" xlink:href="#DejaVuSans-32"/>
    </g>
   </g>
   <g id="text_15">
    <!-- f4 -->
    <g transform="translate(396.24 233.880358)scale(0.15 -0.15)">
     <use xlink:href="#DejaVuSans-66"/>
     <use x="35.205078" xlink:href="#DejaVuSans-34"/>
    </g>
   </g>
   <g id="text_16">
    <!-- f3 -->
    <defs>
     <path d="M 40.578125 39.3125 
Q 47.65625 37.796875 51.625 33 
Q 55.609375 28.21875 55.609375 21.1875 
Q 55.609375 10.40625 48.1875 4.484375 
Q 40.765625 -1.421875 27.09375 -1.421875 
Q 22.515625 -1.421875 17.65625 -0.515625 
Q 12.796875 0.390625 7.625 2.203125 
L 7.625 11.71875 
Q 11.71875 9.328125 16.59375 8.109375 
Q 21.484375 6.890625 26.8125 6.890625 
Q 36.078125 6.890625 40.9375 10.546875 
Q 45.796875 14.203125 45.796875 21.1875 
Q 45.796875 27.640625 41.28125 31.265625 
Q 36.765625 34.90625 28.71875 34.90625 
L 20.21875 34.90625 
L 20.21875 43.015625 
L 29.109375 43.015625 
Q 36.375 43.015625 40.234375 45.921875 
Q 44.09375 48.828125 44.09375 54.296875 
Q 44.09375 59.90625 40.109375 62.90625 
Q 36.140625 65.921875 28.71875 65.921875 
Q 24.65625 65.921875 20.015625 65.03125 
Q 15.375 64.15625 9.8125 62.3125 
L 9.8125 71.09375 
Q 15.4375 72.65625 20.34375 73.4375 
Q 25.25 74.21875 29.59375 74.21875 
Q 40.828125 74.21875 47.359375 69.109375 
Q 53.90625 64.015625 53.90625 55.328125 
Q 53.90625 49.265625 50.4375 45.09375 
Q 46.96875 40.921875 40.578125 39.3125 
z
" id="DejaVuSans-33"/>
    </defs>
    <g transform="translate(396.24 170.645824)scale(0.15 -0.15)">
     <use xlink:href="#DejaVuSans-66"/>
     <use x="35.205078" xlink:href="#DejaVuSans-33"/>
    </g>
   </g>
   <g id="text_17">
    <!-- f1 -->
    <g transform="translate(396.24 107.411289)scale(0.15 -0.15)">
     <use xlink:href="#DejaVuSans-66"/>
     <use x="35.205078" xlink:href="#DejaVuSans-31"/>
    </g>
   </g>
   <g id="text_18">
    <!-- f5 -->
    <defs>
     <path d="M 10.796875 72.90625 
L 49.515625 72.90625 
L 49.515625 64.59375 
L 19.828125 64.59375 
L 19.828125 46.734375 
Q 21.96875 47.46875 24.109375 47.828125 
Q 26.265625 48.1875 28.421875 48.1875 
Q 40.625 48.1875 47.75 41.5 
Q 54.890625 34.8125 54.890625 23.390625 
Q 54.890625 11.625 47.5625 5.09375 
Q 40.234375 -1.421875 26.90625 -1.421875 
Q 22.3125 -1.421875 17.546875 -0.640625 
Q 12.796875 0.140625 7.71875 1.703125 
L 7.71875 11.625 
Q 12.109375 9.234375 16.796875 8.0625 
Q 21.484375 6.890625 26.703125 6.890625 
Q 35.15625 6.890625 40.078125 11.328125 
Q 45.015625 15.765625 45.015625 23.390625 
Q 45.015625 31 40.078125 35.4375 
Q 35.15625 39.890625 26.703125 39.890625 
Q 22.75 39.890625 18.8125 39.015625 
Q 14.890625 38.140625 10.796875 36.28125 
z
" id="DejaVuSans-35"/>
    </defs>
    <g transform="translate(396.24 44.176754)scale(0.15 -0.15)">
     <use xlink:href="#DejaVuSans-66"/>
     <use x="35.205078" xlink:href="#DejaVuSans-35"/>
    </g>
   </g>
   <g id="text_19">
    <!-- bbob -->
    <defs>
     <path d="M 48.6875 27.296875 
Q 48.6875 37.203125 44.609375 42.84375 
Q 40.53125 48.484375 33.40625 48.484375 
Q 26.265625 48.484375 22.1875 42.84375 
Q 18.109375 37.203125 18.109375 27.296875 
Q 18.109375 17.390625 22.1875 11.75 
Q 26.265625 6.109375 33.40625 6.109375 
Q 40.53125 6.109375 44.609375 11.75 
Q 48.6875 17.390625 48.6875 27.296875 
z
M 18.109375 46.390625 
Q 20.953125 51.265625 25.265625 53.625 
Q 29.59375 56 35.59375 56 
Q 45.5625 56 51.78125 48.09375 
Q 58.015625 40.1875 58.015625 27.296875 
Q 58.015625 14.40625 51.78125 6.484375 
Q 45.5625 -1.421875 35.59375 -1.421875 
Q 29.59375 -1.421875 25.265625 0.953125 
Q 20.953125 3.328125 18.109375 8.203125 
L 18.109375 0 
L 9.078125 0 
L 9.078125 75.984375 
L 18.109375 75.984375 
z
" id="DejaVuSans-62"/>
    </defs>
    <g transform="translate(74.3712 50.114612)scale(0.1666 -0.1666)">
     <use xlink:href="#DejaVuSans-62"/>
     <use x="63.476562" xlink:href="#DejaVuSans-62"/>
     <use x="126.953125" xlink:href="#DejaVuSans-6f"/>
     <use x="188.134766" xlink:href="#DejaVuSans-62"/>
    </g>
    <!-- Separable functions, 5-D -->
    <defs>
     <path d="M 53.515625 70.515625 
L 53.515625 60.890625 
Q 47.90625 63.578125 42.921875 64.890625 
Q 37.9375 66.21875 33.296875 66.21875 
Q 25.25 66.21875 20.875 63.09375 
Q 16.5 59.96875 16.5 54.203125 
Q 16.5 49.359375 19.40625 46.890625 
Q 22.3125 44.4375 30.421875 42.921875 
L 36.375 41.703125 
Q 47.40625 39.59375 52.65625 34.296875 
Q 57.90625 29 57.90625 20.125 
Q 57.90625 9.515625 50.796875 4.046875 
Q 43.703125 -1.421875 29.984375 -1.421875 
Q 24.8125 -1.421875 18.96875 -0.25 
Q 13.140625 0.921875 6.890625 3.21875 
L 6.890625 13.375 
Q 12.890625 10.015625 18.65625 8.296875 
Q 24.421875 6.59375 29.984375 6.59375 
Q 38.421875 6.59375 43.015625 9.90625 
Q 47.609375 13.234375 47.609375 19.390625 
Q 47.609375 24.75 44.3125 27.78125 
Q 41.015625 30.8125 33.5 32.328125 
L 27.484375 33.5 
Q 16.453125 35.6875 11.515625 40.375 
Q 6.59375 45.0625 6.59375 53.421875 
Q 6.59375 63.09375 13.40625 68.65625 
Q 20.21875 74.21875 32.171875 74.21875 
Q 37.3125 74.21875 42.625 73.28125 
Q 47.953125 72.359375 53.515625 70.515625 
z
" id="DejaVuSans-53"/>
     <path d="M 11.71875 12.40625 
L 22.015625 12.40625 
L 22.015625 4 
L 14.015625 -11.625 
L 7.71875 -11.625 
L 11.71875 4 
z
" id="DejaVuSans-2c"/>
     <path d="M 19.671875 64.796875 
L 19.671875 8.109375 
L 31.59375 8.109375 
Q 46.6875 8.109375 53.6875 14.9375 
Q 60.6875 21.78125 60.6875 36.53125 
Q 60.6875 51.171875 53.6875 57.984375 
Q 46.6875 64.796875 31.59375 64.796875 
z
M 9.8125 72.90625 
L 30.078125 72.90625 
Q 51.265625 72.90625 61.171875 64.09375 
Q 71.09375 55.28125 71.09375 36.53125 
Q 71.09375 17.671875 61.125 8.828125 
Q 51.171875 0 30.078125 0 
L 9.8125 0 
z
" id="DejaVuSans-44"/>
    </defs>
    <g transform="translate(74.3712 68.770168)scale(0.1666 -0.1666)">
     <use xlink:href="#DejaVuSans-53"/>
     <use x="63.476562" xlink:href="#DejaVuSans-65"/>
     <use x="125" xlink:href="#DejaVuSans-70"/>
     <use x="188.476562" xlink:href="#DejaVuSans-61"/>
     <use x="249.755859" xlink:href="#DejaVuSans-72"/>
     <use x="290.869141" xlink:href="#DejaVuSans-61"/>
     <use x="352.148438" xlink:href="#DejaVuSans-62"/>
     <use x="415.625" xlink:href="#DejaVuSans-6c"/>
     <use x="443.408203" xlink:href="#DejaVuSans-65"/>
     <use x="504.931641" xlink:href="#DejaVuSans-20"/>
     <use x="536.71875" xlink:href="#DejaVuSans-66"/>
     <use x="571.923828" xlink:href="#DejaVuSans-75"/>
     <use x="635.302734" xlink:href="#DejaVuSans-6e"/>
     <use x="698.681641" xlink:href="#DejaVuSans-63"/>
     <use x="753.662109" xlink:href="#DejaVuSans-74"/>
     <use x="792.871094" xlink:href="#DejaVuSans-69"/>
     <use x="820.654297" xlink:href="#DejaVuSans-6f"/>
     <use x="881.835938" xlink:href="#DejaVuSans-6e"/>
     <use x="945.214844" xlink:href="#DejaVuSans-73"/>
     <use x="997.314453" xlink:href="#DejaVuSans-2c"/>
     <use x="1029.101562" xlink:href="#DejaVuSans-20"/>
     <use x="1060.888672" xlink:href="#DejaVuSans-35"/>
     <use x="1124.511719" xlink:href="#DejaVuSans-2d"/>
     <use x="1160.595703" xlink:href="#DejaVuSans-44"/>
    </g>
    <!-- 51 targets in 100..1e-08 -->
    <g transform="translate(74.3712 87.425723)scale(0.1666 -0.1666)">
     <use xlink:href="#DejaVuSans-35"/>
     <use x="63.623047" xlink:href="#DejaVuSans-31"/>
     <use x="127.246094" xlink:href="#DejaVuSans-20"/>
     <use x="159.033203" xlink:href="#DejaVuSans-74"/>
     <use x="198.242188" xlink:href="#DejaVuSans-61"/>
     <use x="259.521484" xlink:href="#DejaVuSans-72"/>
     <use x="300.619141" xlink:href="#DejaVuSans-67"/>
     <use x="364.095703" xlink:href="#DejaVuSans-65"/>
     <use x="425.619141" xlink:href="#DejaVuSans-74"/>
     <use x="464.828125" xlink:href="#DejaVuSans-73"/>
     <use x="516.927734" xlink:href="#DejaVuSans-20"/>
     <use x="548.714844" xlink:href="#DejaVuSans-69"/>
     <use x="576.498047" xlink:href="#DejaVuSans-6e"/>
     <use x="639.876953" xlink:href="#DejaVuSans-20"/>
     <use x="671.664062" xlink:href="#DejaVuSans-31"/>
     <use x="735.287109" xlink:href="#DejaVuSans-30"/>
     <use x="798.910156" xlink:href="#DejaVuSans-30"/>
     <use x="862.533203" xlink:href="#DejaVuSans-2e"/>
     <use x="894.320312" xlink:href="#DejaVuSans-2e"/>
     <use x="926.107422" xlink:href="#DejaVuSans-31"/>
     <use x="989.730469" xlink:href="#DejaVuSans-65"/>
     <use x="1051.253906" xlink:href="#DejaVuSans-2d"/>
     <use x="1087.337891" xlink:href="#DejaVuSans-30"/>
     <use x="1150.960938" xlink:href="#DejaVuSans-38"/>
    </g>
    <!-- 15 instances -->
    <g transform="translate(74.3712 106.081279)scale(0.1666 -0.1666)">
     <use xlink:href="#DejaVuSans-31"/>
     <use x="63.623047" xlink:href="#DejaVuSans-35"/>
     <use x="127.246094" xlink:href="#DejaVuSans-20"/>
     <use x="159.033203" xlink:href="#DejaVuSans-69"/>
     <use x="186.816406" xlink:href="#DejaVuSans-6e"/>
     <use x="250.195312" xlink:href="#DejaVuSans-73"/>
     <use x="302.294922" xlink:href="#DejaVuSans-74"/>
     <use x="341.503906" xlink:href="#DejaVuSans-61"/>
     <use x="402.783203" xlink:href="#DejaVuSans-6e"/>
     <use x="466.162109" xlink:href="#DejaVuSans-63"/>
     <use x="521.142578" xlink:href="#DejaVuSans-65"/>
     <use x="582.666016" xlink:href="#DejaVuSans-73"/>
    </g>
   </g>
   <g id="text_20">
    <!-- v0.0.0 -->
    <g style="fill:#808080;" transform="translate(233.67875 293.504568)scale(0.1 -0.1)">
     <use xlink:href="#DejaVuSans-76"/>
     <use x="59.179688" xlink:href="#DejaVuSans-30"/>
     <use x="122.802734" xlink:href="#DejaVuSans-2e"/>
     <use x="154.589844" xlink:href="#DejaVuSans-30"/>
     <use x="218.212891" xlink:href="#DejaVuSans-2e"/>
     <use x="250" xlink:href="#DejaVuSans-30"/>
    </g>
   </g>
  </g>
 </g>
 <defs>
  <clipPath id="p495e60b031">
   <rect height="266.112" width="357.12" x="70.8" y="32.133375"/>
  </clipPath>
 </defs>
</svg>
