<?xml version="1.0" encoding="utf-8" standalone="no"?>
<!DOCTYPE svg PUBLIC "-//W3C//DTD SVG 1.1//EN"
  "http://www.w3.org/Graphics/SVG/1.1/DTD/svg11.dtd">
<!-- Created with matplotlib (http://matplotlib.org/) -->
<svg height="353pt" version="1.1" viewBox="0 0 438 353" width="438pt" xmlns="http://www.w3.org/2000/svg" xmlns:xlink="http://www.w3.org/1999/xlink">
 <defs>
  <style type="text/css">
*{stroke-linecap:butt;stroke-linejoin:round;}
  </style>
 </defs>
 <g id="figure_1">
  <g id="patch_1">
   <path d="M 0 353.22225 
L 438.62 353.22225 
L 438.62 0 
L 0 0 
z
" style="fill:#ffffff;"/>
  </g>
  <g id="axes_1">
   <g id="patch_2">
    <path d="M 70.8 298.245375 
L 427.92 298.245375 
L 427.92 32.133375 
L 70.8 32.133375 
z
" style="fill:#ffffff;"/>
   </g>
   <g id="matplotlib.axis_1">
    <g id="xtick_1">
     <g id="line2d_1">
      <path clip-path="url(#pce92daf793)" d="M 70.8 298.245375 
L 70.8 32.133375 
" style="fill:none;stroke:#b0b0b0;stroke-linecap:square;stroke-width:0.8;"/>
     </g>
     <g id="line2d_2">
      <defs>
       <path d="M 0 0 
L 0 3.5 
" id="m27dc0ecd03" style="stroke:#000000;stroke-width:0.8;"/>
      </defs>
      <g>
       <use style="stroke:#000000;stroke-width:0.8;" x="70.8" xlink:href="#m27dc0ecd03" y="298.245375"/>
      </g>
     </g>
     <g id="text_1">
      <!-- 0 -->
      <defs>
       <path d="M 31.78125 66.40625 
Q 24.171875 66.40625 20.328125 58.90625 
Q 16.5 51.421875 16.5 36.375 
Q 16.5 21.390625 20.328125 13.890625 
Q 24.171875 6.390625 31.78125 6.390625 
Q 39.453125 6.390625 43.28125 13.890625 
Q 47.125 21.390625 47.125 36.375 
Q 47.125 51.421875 43.28125 58.90625 
Q 39.453125 66.40625 31.78125 66.40625 
z
M 31.78125 74.21875 
Q 44.046875 74.21875 50.515625 64.515625 
Q 56.984375 54.828125 56.984375 36.375 
Q 56.984375 17.96875 50.515625 8.265625 
Q 44.046875 -1.421875 31.78125 -1.421875 
Q 19.53125 -1.421875 13.0625 8.265625 
Q 6.59375 17.96875 6.59375 36.375 
Q 6.59375 54.828125 13.0625 64.515625 
Q 19.53125 74.21875 31.78125 74.21875 
z
" id="DejaVuSans-30"/>
      </defs>
      <g transform="translate(64.4375 320.44225)scale(0.2 -0.2)">
       <use xlink:href="#DejaVuSans-30"/>
      </g>
     </g>
    </g>
    <g id="xtick_2">
     <g id="line2d_3">
      <path clip-path="url(#pce92daf793)" d="M 153.085714 298.245375 
L 153.085714 32.133375 
" style="fill:none;stroke:#b0b0b0;stroke-linecap:square;stroke-width:0.8;"/>
     </g>
     <g id="line2d_4">
      <g>
       <use style="stroke:#000000;stroke-width:0.8;" x="153.085714" xlink:href="#m27dc0ecd03" y="298.245375"/>
      </g>
     </g>
     <g id="text_2">
      <!-- 2 -->
      <defs>
       <path d="M 19.1875 8.296875 
L 53.609375 8.296875 
L 53.609375 0 
L 7.328125 0 
L 7.328125 8.296875 
Q 12.9375 14.109375 22.625 23.890625 
Q 32.328125 33.6875 34.8125 36.53125 
Q 39.546875 41.84375 41.421875 45.53125 
Q 43.3125 49.21875 43.3125 52.78125 
Q 43.3125 58.59375 39.234375 62.25 
Q 35.15625 65.921875 28.609375 65.921875 
Q 23.96875 65.921875 18.8125 64.3125 
Q 13.671875 62.703125 7.8125 59.421875 
L 7.8125 69.390625 
Q 13.765625 71.78125 18.9375 73 
Q 24.125 74.21875 28.421875 74.21875 
Q 39.75 74.21875 46.484375 68.546875 
Q 53.21875 62.890625 53.21875 53.421875 
Q 53.21875 48.921875 51.53125 44.890625 
Q 49.859375 40.875 45.40625 35.40625 
Q 44.1875 33.984375 37.640625 27.21875 
Q 31.109375 20.453125 19.1875 8.296875 
z
" id="DejaVuSans-32"/>
      </defs>
      <g transform="translate(146.723214 320.44225)scale(0.2 -0.2)">
       <use xlink:href="#DejaVuSans-32"/>
      </g>
     </g>
    </g>
    <g id="xtick_3">
     <g id="line2d_5">
      <path clip-path="url(#pce92daf793)" d="M 235.371429 298.245375 
L 235.371429 32.133375 
" style="fill:none;stroke:#b0b0b0;stroke-linecap:square;stroke-width:0.8;"/>
     </g>
     <g id="line2d_6">
      <g>
       <use style="stroke:#000000;stroke-width:0.8;" x="235.371429" xlink:href="#m27dc0ecd03" y="298.245375"/>
      </g>
     </g>
     <g id="text_3">
      <!-- 4 -->
      <defs>
       <path d="M 37.796875 64.3125 
L 12.890625 25.390625 
L 37.796875 25.390625 
z
M 35.203125 72.90625 
L 47.609375 72.90625 
L 47.609375 25.390625 
L 58.015625 25.390625 
L 58.015625 17.1875 
L 47.609375 17.1875 
L 47.609375 0 
L 37.796875 0 
L 37.796875 17.1875 
L 4.890625 17.1875 
L 4.890625 26.703125 
z
" id="DejaVuSans-34"/>
      </defs>
      <g transform="translate(229.008929 320.44225)scale(0.2 -0.2)">
       <use xlink:href="#DejaVuSans-34"/>
      </g>
     </g>
    </g>
    <g id="xtick_4">
     <g id="line2d_7">
      <path clip-path="url(#pce92daf793)" d="M 317.657143 298.245375 
L 317.657143 32.133375 
" style="fill:none;stroke:#b0b0b0;stroke-linecap:square;stroke-width:0.8;"/>
     </g>
     <g id="line2d_8">
      <g>
       <use style="stroke:#000000;stroke-width:0.8;" x="317.657143" xlink:href="#m27dc0ecd03" y="298.245375"/>
      </g>
     </g>
     <g id="text_4">
      <!-- 6 -->
      <defs>
       <path d="M 33.015625 40.375 
Q 26.375 40.375 22.484375 35.828125 
Q 18.609375 31.296875 18.609375 23.390625 
Q 18.609375 15.53125 22.484375 10.953125 
Q 26.375 6.390625 33.015625 6.390625 
Q 39.65625 6.390625 43.53125 10.953125 
Q 47.40625 15.53125 47.40625 23.390625 
Q 47.40625 31.296875 43.53125 35.828125 
Q 39.65625 40.375 33.015625 40.375 
z
M 52.59375 71.296875 
L 52.59375 62.3125 
Q 48.875 64.0625 45.09375 64.984375 
Q 41.3125 65.921875 37.59375 65.921875 
Q 27.828125 65.921875 22.671875 59.328125 
Q 17.53125 52.734375 16.796875 39.40625 
Q 19.671875 43.65625 24.015625 45.921875 
Q 28.375 48.1875 33.59375 48.1875 
Q 44.578125 48.1875 50.953125 41.515625 
Q 57.328125 34.859375 57.328125 23.390625 
Q 57.328125 12.15625 50.6875 5.359375 
Q 44.046875 -1.421875 33.015625 -1.421875 
Q 20.359375 -1.421875 13.671875 8.265625 
Q 6.984375 17.96875 6.984375 36.375 
Q 6.984375 53.65625 15.1875 63.9375 
Q 23.390625 74.21875 37.203125 74.21875 
Q 40.921875 74.21875 44.703125 73.484375 
Q 48.484375 72.75 52.59375 71.296875 
z
" id="DejaVuSans-36"/>
      </defs>
      <g transform="translate(311.294643 320.44225)scale(0.2 -0.2)">
       <use xlink:href="#DejaVuSans-36"/>
      </g>
     </g>
    </g>
    <g id="xtick_5">
     <g id="line2d_9">
      <path clip-path="url(#pce92daf793)" d="M 399.942857 298.245375 
L 399.942857 32.133375 
" style="fill:none;stroke:#b0b0b0;stroke-linecap:square;stroke-width:0.8;"/>
     </g>
     <g id="line2d_10">
      <g>
       <use style="stroke:#000000;stroke-width:0.8;" x="399.942857" xlink:href="#m27dc0ecd03" y="298.245375"/>
      </g>
     </g>
     <g id="text_5">
      <!-- 8 -->
      <defs>
       <path d="M 31.78125 34.625 
Q 24.75 34.625 20.71875 30.859375 
Q 16.703125 27.09375 16.703125 20.515625 
Q 16.703125 13.921875 20.71875 10.15625 
Q 24.75 6.390625 31.78125 6.390625 
Q 38.8125 6.390625 42.859375 10.171875 
Q 46.921875 13.96875 46.921875 20.515625 
Q 46.921875 27.09375 42.890625 30.859375 
Q 38.875 34.625 31.78125 34.625 
z
M 21.921875 38.8125 
Q 15.578125 40.375 12.03125 44.71875 
Q 8.5 49.078125 8.5 55.328125 
Q 8.5 64.0625 14.71875 69.140625 
Q 20.953125 74.21875 31.78125 74.21875 
Q 42.671875 74.21875 48.875 69.140625 
Q 55.078125 64.0625 55.078125 55.328125 
Q 55.078125 49.078125 51.53125 44.71875 
Q 48 40.375 41.703125 38.8125 
Q 48.828125 37.15625 52.796875 32.3125 
Q 56.78125 27.484375 56.78125 20.515625 
Q 56.78125 9.90625 50.3125 4.234375 
Q 43.84375 -1.421875 31.78125 -1.421875 
Q 19.734375 -1.421875 13.25 4.234375 
Q 6.78125 9.90625 6.78125 20.515625 
Q 6.78125 27.484375 10.78125 32.3125 
Q 14.796875 37.15625 21.921875 38.8125 
z
M 18.3125 54.390625 
Q 18.3125 48.734375 21.84375 45.5625 
Q 25.390625 42.390625 31.78125 42.390625 
Q 38.140625 42.390625 41.71875 45.5625 
Q 45.3125 48.734375 45.3125 54.390625 
Q 45.3125 60.0625 41.71875 63.234375 
Q 38.140625 66.40625 31.78125 66.40625 
Q 25.390625 66.40625 21.84375 63.234375 
Q 18.3125 60.0625 18.3125 54.390625 
z
" id="DejaVuSans-38"/>
      </defs>
      <g transform="translate(393.580357 320.44225)scale(0.2 -0.2)">
       <use xlink:href="#DejaVuSans-38"/>
      </g>
     </g>
    </g>
    <g id="text_6">
     <!-- log10 of (# f-evals / dimension) -->
     <defs>
      <path d="M 9.421875 75.984375 
L 18.40625 75.984375 
L 18.40625 0 
L 9.421875 0 
z
" id="DejaVuSans-6c"/>
      <path d="M 30.609375 48.390625 
Q 23.390625 48.390625 19.1875 42.75 
Q 14.984375 37.109375 14.984375 27.296875 
Q 14.984375 17.484375 19.15625 11.84375 
Q 23.34375 6.203125 30.609375 6.203125 
Q 37.796875 6.203125 41.984375 11.859375 
Q 46.1875 17.53125 46.1875 27.296875 
Q 46.1875 37.015625 41.984375 42.703125 
Q 37.796875 48.390625 30.609375 48.390625 
z
M 30.609375 56 
Q 42.328125 56 49.015625 48.375 
Q 55.71875 40.765625 55.71875 27.296875 
Q 55.71875 13.875 49.015625 6.21875 
Q 42.328125 -1.421875 30.609375 -1.421875 
Q 18.84375 -1.421875 12.171875 6.21875 
Q 5.515625 13.875 5.515625 27.296875 
Q 5.515625 40.765625 12.171875 48.375 
Q 18.84375 56 30.609375 56 
z
" id="DejaVuSans-6f"/>
      <path d="M 45.40625 27.984375 
Q 45.40625 37.75 41.375 43.109375 
Q 37.359375 48.484375 30.078125 48.484375 
Q 22.859375 48.484375 18.828125 43.109375 
Q 14.796875 37.75 14.796875 27.984375 
Q 14.796875 18.265625 18.828125 12.890625 
Q 22.859375 7.515625 30.078125 7.515625 
Q 37.359375 7.515625 41.375 12.890625 
Q 45.40625 18.265625 45.40625 27.984375 
z
M 54.390625 6.78125 
Q 54.390625 -7.171875 48.1875 -13.984375 
Q 42 -20.796875 29.203125 -20.796875 
Q 24.46875 -20.796875 20.265625 -20.09375 
Q 16.0625 -19.390625 12.109375 -17.921875 
L 12.109375 -9.1875 
Q 16.0625 -11.328125 19.921875 -12.34375 
Q 23.78125 -13.375 27.78125 -13.375 
Q 36.625 -13.375 41.015625 -8.765625 
Q 45.40625 -4.15625 45.40625 5.171875 
L 45.40625 9.625 
Q 42.625 4.78125 38.28125 2.390625 
Q 33.9375 0 27.875 0 
Q 17.828125 0 11.671875 7.65625 
Q 5.515625 15.328125 5.515625 27.984375 
Q 5.515625 40.671875 11.671875 48.328125 
Q 17.828125 56 27.875 56 
Q 33.9375 56 38.28125 53.609375 
Q 42.625 51.21875 45.40625 46.390625 
L 45.40625 54.6875 
L 54.390625 54.6875 
z
" id="DejaVuSans-67"/>
      <path d="M 12.40625 8.296875 
L 28.515625 8.296875 
L 28.515625 63.921875 
L 10.984375 60.40625 
L 10.984375 69.390625 
L 28.421875 72.90625 
L 38.28125 72.90625 
L 38.28125 8.296875 
L 54.390625 8.296875 
L 54.390625 0 
L 12.40625 0 
z
" id="DejaVuSans-31"/>
      <path id="DejaVuSans-20"/>
      <path d="M 37.109375 75.984375 
L 37.109375 68.5 
L 28.515625 68.5 
Q 23.6875 68.5 21.796875 66.546875 
Q 19.921875 64.59375 19.921875 59.515625 
L 19.921875 54.6875 
L 34.71875 54.6875 
L 34.71875 47.703125 
L 19.921875 47.703125 
L 19.921875 0 
L 10.890625 0 
L 10.890625 47.703125 
L 2.296875 47.703125 
L 2.296875 54.6875 
L 10.890625 54.6875 
L 10.890625 58.5 
Q 10.890625 67.625 15.140625 71.796875 
Q 19.390625 75.984375 28.609375 75.984375 
z
" id="DejaVuSans-66"/>
      <path d="M 31 75.875 
Q 24.46875 64.65625 21.28125 53.65625 
Q 18.109375 42.671875 18.109375 31.390625 
Q 18.109375 20.125 21.3125 9.0625 
Q 24.515625 -2 31 -13.1875 
L 23.1875 -13.1875 
Q 15.875 -1.703125 12.234375 9.375 
Q 8.59375 20.453125 8.59375 31.390625 
Q 8.59375 42.28125 12.203125 53.3125 
Q 15.828125 64.359375 23.1875 75.875 
z
" id="DejaVuSans-28"/>
      <path d="M 51.125 44 
L 36.921875 44 
L 32.8125 27.6875 
L 47.125 27.6875 
z
M 43.796875 71.78125 
L 38.71875 51.515625 
L 52.984375 51.515625 
L 58.109375 71.78125 
L 65.921875 71.78125 
L 60.890625 51.515625 
L 76.125 51.515625 
L 76.125 44 
L 58.984375 44 
L 54.984375 27.6875 
L 70.515625 27.6875 
L 70.515625 20.21875 
L 53.078125 20.21875 
L 48 0 
L 40.1875 0 
L 45.21875 20.21875 
L 30.90625 20.21875 
L 25.875 0 
L 18.015625 0 
L 23.09375 20.21875 
L 7.71875 20.21875 
L 7.71875 27.6875 
L 24.90625 27.6875 
L 29 44 
L 13.28125 44 
L 13.28125 51.515625 
L 30.90625 51.515625 
L 35.890625 71.78125 
z
" id="DejaVuSans-23"/>
      <path d="M 4.890625 31.390625 
L 31.203125 31.390625 
L 31.203125 23.390625 
L 4.890625 23.390625 
z
" id="DejaVuSans-2d"/>
      <path d="M 56.203125 29.59375 
L 56.203125 25.203125 
L 14.890625 25.203125 
Q 15.484375 15.921875 20.484375 11.0625 
Q 25.484375 6.203125 34.421875 6.203125 
Q 39.59375 6.203125 44.453125 7.46875 
Q 49.3125 8.734375 54.109375 11.28125 
L 54.109375 2.78125 
Q 49.265625 0.734375 44.1875 -0.34375 
Q 39.109375 -1.421875 33.890625 -1.421875 
Q 20.796875 -1.421875 13.15625 6.1875 
Q 5.515625 13.8125 5.515625 26.8125 
Q 5.515625 40.234375 12.765625 48.109375 
Q 20.015625 56 32.328125 56 
Q 43.359375 56 49.78125 48.890625 
Q 56.203125 41.796875 56.203125 29.59375 
z
M 47.21875 32.234375 
Q 47.125 39.59375 43.09375 43.984375 
Q 39.0625 48.390625 32.421875 48.390625 
Q 24.90625 48.390625 20.390625 44.140625 
Q 15.875 39.890625 15.1875 32.171875 
z
" id="DejaVuSans-65"/>
      <path d="M 2.984375 54.6875 
L 12.5 54.6875 
L 29.59375 8.796875 
L 46.6875 54.6875 
L 56.203125 54.6875 
L 35.6875 0 
L 23.484375 0 
z
" id="DejaVuSans-76"/>
      <path d="M 34.28125 27.484375 
Q 23.390625 27.484375 19.1875 25 
Q 14.984375 22.515625 14.984375 16.5 
Q 14.984375 11.71875 18.140625 8.90625 
Q 21.296875 6.109375 26.703125 6.109375 
Q 34.1875 6.109375 38.703125 11.40625 
Q 43.21875 16.703125 43.21875 25.484375 
L 43.21875 27.484375 
z
M 52.203125 31.203125 
L 52.203125 0 
L 43.21875 0 
L 43.21875 8.296875 
Q 40.140625 3.328125 35.546875 0.953125 
Q 30.953125 -1.421875 24.3125 -1.421875 
Q 15.921875 -1.421875 10.953125 3.296875 
Q 6 8.015625 6 15.921875 
Q 6 25.140625 12.171875 29.828125 
Q 18.359375 34.515625 30.609375 34.515625 
L 43.21875 34.515625 
L 43.21875 35.40625 
Q 43.21875 41.609375 39.140625 45 
Q 35.0625 48.390625 27.6875 48.390625 
Q 23 48.390625 18.546875 47.265625 
Q 14.109375 46.140625 10.015625 43.890625 
L 10.015625 52.203125 
Q 14.9375 54.109375 19.578125 55.046875 
Q 24.21875 56 28.609375 56 
Q 40.484375 56 46.34375 49.84375 
Q 52.203125 43.703125 52.203125 31.203125 
z
" id="DejaVuSans-61"/>
      <path d="M 44.28125 53.078125 
L 44.28125 44.578125 
Q 40.484375 46.53125 36.375 47.5 
Q 32.28125 48.484375 27.875 48.484375 
Q 21.1875 48.484375 17.84375 46.4375 
Q 14.5 44.390625 14.5 40.28125 
Q 14.5 37.15625 16.890625 35.375 
Q 19.28125 33.59375 26.515625 31.984375 
L 29.59375 31.296875 
Q 39.15625 29.25 43.1875 25.515625 
Q 47.21875 21.78125 47.21875 15.09375 
Q 47.21875 7.46875 41.1875 3.015625 
Q 35.15625 -1.421875 24.609375 -1.421875 
Q 20.21875 -1.421875 15.453125 -0.5625 
Q 10.6875 0.296875 5.421875 2 
L 5.421875 11.28125 
Q 10.40625 8.6875 15.234375 7.390625 
Q 20.0625 6.109375 24.8125 6.109375 
Q 31.15625 6.109375 34.5625 8.28125 
Q 37.984375 10.453125 37.984375 14.40625 
Q 37.984375 18.0625 35.515625 20.015625 
Q 33.0625 21.96875 24.703125 23.78125 
L 21.578125 24.515625 
Q 13.234375 26.265625 9.515625 29.90625 
Q 5.8125 33.546875 5.8125 39.890625 
Q 5.8125 47.609375 11.28125 51.796875 
Q 16.75 56 26.8125 56 
Q 31.78125 56 36.171875 55.265625 
Q 40.578125 54.546875 44.28125 53.078125 
z
" id="DejaVuSans-73"/>
      <path d="M 25.390625 72.90625 
L 33.6875 72.90625 
L 8.296875 -9.28125 
L 0 -9.28125 
z
" id="DejaVuSans-2f"/>
      <path d="M 45.40625 46.390625 
L 45.40625 75.984375 
L 54.390625 75.984375 
L 54.390625 0 
L 45.40625 0 
L 45.40625 8.203125 
Q 42.578125 3.328125 38.25 0.953125 
Q 33.9375 -1.421875 27.875 -1.421875 
Q 17.96875 -1.421875 11.734375 6.484375 
Q 5.515625 14.40625 5.515625 27.296875 
Q 5.515625 40.1875 11.734375 48.09375 
Q 17.96875 56 27.875 56 
Q 33.9375 56 38.25 53.625 
Q 42.578125 51.265625 45.40625 46.390625 
z
M 14.796875 27.296875 
Q 14.796875 17.390625 18.875 11.75 
Q 22.953125 6.109375 30.078125 6.109375 
Q 37.203125 6.109375 41.296875 11.75 
Q 45.40625 17.390625 45.40625 27.296875 
Q 45.40625 37.203125 41.296875 42.84375 
Q 37.203125 48.484375 30.078125 48.484375 
Q 22.953125 48.484375 18.875 42.84375 
Q 14.796875 37.203125 14.796875 27.296875 
z
" id="DejaVuSans-64"/>
      <path d="M 9.421875 54.6875 
L 18.40625 54.6875 
L 18.40625 0 
L 9.421875 0 
z
M 9.421875 75.984375 
L 18.40625 75.984375 
L 18.40625 64.59375 
L 9.421875 64.59375 
z
" id="DejaVuSans-69"/>
      <path d="M 52 44.1875 
Q 55.375 50.25 60.0625 53.125 
Q 64.75 56 71.09375 56 
Q 79.640625 56 84.28125 50.015625 
Q 88.921875 44.046875 88.921875 33.015625 
L 88.921875 0 
L 79.890625 0 
L 79.890625 32.71875 
Q 79.890625 40.578125 77.09375 44.375 
Q 74.3125 48.1875 68.609375 48.1875 
Q 61.625 48.1875 57.5625 43.546875 
Q 53.515625 38.921875 53.515625 30.90625 
L 53.515625 0 
L 44.484375 0 
L 44.484375 32.71875 
Q 44.484375 40.625 41.703125 44.40625 
Q 38.921875 48.1875 33.109375 48.1875 
Q 26.21875 48.1875 22.15625 43.53125 
Q 18.109375 38.875 18.109375 30.90625 
L 18.109375 0 
L 9.078125 0 
L 9.078125 54.6875 
L 18.109375 54.6875 
L 18.109375 46.1875 
Q 21.1875 51.21875 25.484375 53.609375 
Q 29.78125 56 35.6875 56 
Q 41.65625 56 45.828125 52.96875 
Q 50 49.953125 52 44.1875 
z
" id="DejaVuSans-6d"/>
      <path d="M 54.890625 33.015625 
L 54.890625 0 
L 45.90625 0 
L 45.90625 32.71875 
Q 45.90625 40.484375 42.875 44.328125 
Q 39.84375 48.1875 33.796875 48.1875 
Q 26.515625 48.1875 22.3125 43.546875 
Q 18.109375 38.921875 18.109375 30.90625 
L 18.109375 0 
L 9.078125 0 
L 9.078125 54.6875 
L 18.109375 54.6875 
L 18.109375 46.1875 
Q 21.34375 51.125 25.703125 53.5625 
Q 30.078125 56 35.796875 56 
Q 45.21875 56 50.046875 50.171875 
Q 54.890625 44.34375 54.890625 33.015625 
z
" id="DejaVuSans-6e"/>
      <path d="M 8.015625 75.875 
L 15.828125 75.875 
Q 23.140625 64.359375 26.78125 53.3125 
Q 30.421875 42.28125 30.421875 31.390625 
Q 30.421875 20.453125 26.78125 9.375 
Q 23.140625 -1.703125 15.828125 -13.1875 
L 8.015625 -13.1875 
Q 14.5 -2 17.703125 9.0625 
Q 20.90625 20.125 20.90625 31.390625 
Q 20.90625 42.671875 17.703125 53.65625 
Q 14.5 64.65625 8.015625 75.875 
z
" id="DejaVuSans-29"/>
     </defs>
     <g transform="translate(107.015156 342.278812)scale(0.18 -0.18)">
      <use xlink:href="#DejaVuSans-6c"/>
      <use x="27.783203" xlink:href="#DejaVuSans-6f"/>
      <use x="88.964844" xlink:href="#DejaVuSans-67"/>
      <use x="152.441406" xlink:href="#DejaVuSans-31"/>
      <use x="216.064453" xlink:href="#DejaVuSans-30"/>
      <use x="279.6875" xlink:href="#DejaVuSans-20"/>
      <use x="311.474609" xlink:href="#DejaVuSans-6f"/>
      <use x="372.65625" xlink:href="#DejaVuSans-66"/>
      <use x="407.861328" xlink:href="#DejaVuSans-20"/>
      <use x="439.648438" xlink:href="#DejaVuSans-28"/>
      <use x="478.662109" xlink:href="#DejaVuSans-23"/>
      <use x="562.451172" xlink:href="#DejaVuSans-20"/>
      <use x="594.238281" xlink:href="#DejaVuSans-66"/>
      <use x="629.365234" xlink:href="#DejaVuSans-2d"/>
      <use x="665.449219" xlink:href="#DejaVuSans-65"/>
      <use x="726.972656" xlink:href="#DejaVuSans-76"/>
      <use x="786.152344" xlink:href="#DejaVuSans-61"/>
      <use x="847.431641" xlink:href="#DejaVuSans-6c"/>
      <use x="875.214844" xlink:href="#DejaVuSans-73"/>
      <use x="927.314453" xlink:href="#DejaVuSans-20"/>
      <use x="959.101562" xlink:href="#DejaVuSans-2f"/>
      <use x="992.792969" xlink:href="#DejaVuSans-20"/>
      <use x="1024.580078" xlink:href="#DejaVuSans-64"/>
      <use x="1088.056641" xlink:href="#DejaVuSans-69"/>
      <use x="1115.839844" xlink:href="#DejaVuSans-6d"/>
      <use x="1213.251953" xlink:href="#DejaVuSans-65"/>
      <use x="1274.775391" xlink:href="#DejaVuSans-6e"/>
      <use x="1338.154297" xlink:href="#DejaVuSans-73"/>
      <use x="1390.253906" xlink:href="#DejaVuSans-69"/>
      <use x="1418.037109" xlink:href="#DejaVuSans-6f"/>
      <use x="1479.21875" xlink:href="#DejaVuSans-6e"/>
      <use x="1542.597656" xlink:href="#DejaVuSans-29"/>
     </g>
    </g>
   </g>
   <g id="matplotlib.axis_2">
    <g id="ytick_1">
     <g id="line2d_11">
      <path clip-path="url(#pce92daf793)" d="M 70.8 298.245375 
L 427.92 298.245375 
" style="fill:none;stroke:#b0b0b0;stroke-linecap:square;stroke-width:0.8;"/>
     </g>
     <g id="line2d_12">
      <defs>
       <path d="M 0 0 
L -3.5 0 
" id="m1a5fb90718" style="stroke:#000000;stroke-width:0.8;"/>
      </defs>
      <g>
       <use style="stroke:#000000;stroke-width:0.8;" x="70.8" xlink:href="#m1a5fb90718" y="298.245375"/>
      </g>
     </g>
     <g id="text_7">
      <!-- 0.0 -->
      <defs>
       <path d="M 10.6875 12.40625 
L 21 12.40625 
L 21 0 
L 10.6875 0 
z
" id="DejaVuSans-2e"/>
      </defs>
      <g transform="translate(31.99375 305.843812)scale(0.2 -0.2)">
       <use xlink:href="#DejaVuSans-30"/>
       <use x="63.623047" xlink:href="#DejaVuSans-2e"/>
       <use x="95.410156" xlink:href="#DejaVuSans-30"/>
      </g>
     </g>
    </g>
    <g id="ytick_2">
     <g id="line2d_13">
      <path clip-path="url(#pce92daf793)" d="M 70.8 245.549929 
L 427.92 245.549929 
" style="fill:none;stroke:#b0b0b0;stroke-linecap:square;stroke-width:0.8;"/>
     </g>
     <g id="line2d_14">
      <g>
       <use style="stroke:#000000;stroke-width:0.8;" x="70.8" xlink:href="#m1a5fb90718" y="245.549929"/>
      </g>
     </g>
     <g id="text_8">
      <!-- 0.2 -->
      <g transform="translate(31.99375 253.148367)scale(0.2 -0.2)">
       <use xlink:href="#DejaVuSans-30"/>
       <use x="63.623047" xlink:href="#DejaVuSans-2e"/>
       <use x="95.410156" xlink:href="#DejaVuSans-32"/>
      </g>
     </g>
    </g>
    <g id="ytick_3">
     <g id="line2d_15">
      <path clip-path="url(#pce92daf793)" d="M 70.8 192.854484 
L 427.92 192.854484 
" style="fill:none;stroke:#b0b0b0;stroke-linecap:square;stroke-width:0.8;"/>
     </g>
     <g id="line2d_16">
      <g>
       <use style="stroke:#000000;stroke-width:0.8;" x="70.8" xlink:href="#m1a5fb90718" y="192.854484"/>
      </g>
     </g>
     <g id="text_9">
      <!-- 0.4 -->
      <g transform="translate(31.99375 200.452921)scale(0.2 -0.2)">
       <use xlink:href="#DejaVuSans-30"/>
       <use x="63.623047" xlink:href="#DejaVuSans-2e"/>
       <use x="95.410156" xlink:href="#DejaVuSans-34"/>
      </g>
     </g>
    </g>
    <g id="ytick_4">
     <g id="line2d_17">
      <path clip-path="url(#pce92daf793)" d="M 70.8 140.159038 
L 427.92 140.159038 
" style="fill:none;stroke:#b0b0b0;stroke-linecap:square;stroke-width:0.8;"/>
     </g>
     <g id="line2d_18">
      <g>
       <use style="stroke:#000000;stroke-width:0.8;" x="70.8" xlink:href="#m1a5fb90718" y="140.159038"/>
      </g>
     </g>
     <g id="text_10">
      <!-- 0.6 -->
      <g transform="translate(31.99375 147.757476)scale(0.2 -0.2)">
       <use xlink:href="#DejaVuSans-30"/>
       <use x="63.623047" xlink:href="#DejaVuSans-2e"/>
       <use x="95.410156" xlink:href="#DejaVuSans-36"/>
      </g>
     </g>
    </g>
    <g id="ytick_5">
     <g id="line2d_19">
      <path clip-path="url(#pce92daf793)" d="M 70.8 87.463593 
L 427.92 87.463593 
" style="fill:none;stroke:#b0b0b0;stroke-linecap:square;stroke-width:0.8;"/>
     </g>
     <g id="line2d_20">
      <g>
       <use style="stroke:#000000;stroke-width:0.8;" x="70.8" xlink:href="#m1a5fb90718" y="87.463593"/>
      </g>
     </g>
     <g id="text_11">
      <!-- 0.8 -->
      <g transform="translate(31.99375 95.06203)scale(0.2 -0.2)">
       <use xlink:href="#DejaVuSans-30"/>
       <use x="63.623047" xlink:href="#DejaVuSans-2e"/>
       <use x="95.410156" xlink:href="#DejaVuSans-38"/>
      </g>
     </g>
    </g>
    <g id="ytick_6">
     <g id="line2d_21">
      <path clip-path="url(#pce92daf793)" d="M 70.8 34.768147 
L 427.92 34.768147 
" style="fill:none;stroke:#b0b0b0;stroke-linecap:square;stroke-width:0.8;"/>
     </g>
     <g id="line2d_22">
      <g>
       <use style="stroke:#000000;stroke-width:0.8;" x="70.8" xlink:href="#m1a5fb90718" y="34.768147"/>
      </g>
     </g>
     <g id="text_12">
      <!-- 1.0 -->
      <g transform="translate(31.99375 42.366585)scale(0.2 -0.2)">
       <use xlink:href="#DejaVuSans-31"/>
       <use x="63.623047" xlink:href="#DejaVuSans-2e"/>
       <use x="95.410156" xlink:href="#DejaVuSans-30"/>
      </g>
     </g>
    </g>
    <g id="text_13">
     <!-- Proportion of function+target pairs -->
     <defs>
      <path d="M 19.671875 64.796875 
L 19.671875 37.40625 
L 32.078125 37.40625 
Q 38.96875 37.40625 42.71875 40.96875 
Q 46.484375 44.53125 46.484375 51.125 
Q 46.484375 57.671875 42.71875 61.234375 
Q 38.96875 64.796875 32.078125 64.796875 
z
M 9.8125 72.90625 
L 32.078125 72.90625 
Q 44.34375 72.90625 50.609375 67.359375 
Q 56.890625 61.8125 56.890625 51.125 
Q 56.890625 40.328125 50.609375 34.8125 
Q 44.34375 29.296875 32.078125 29.296875 
L 19.671875 29.296875 
L 19.671875 0 
L 9.8125 0 
z
" id="DejaVuSans-50"/>
      <path d="M 41.109375 46.296875 
Q 39.59375 47.171875 37.8125 47.578125 
Q 36.03125 48 33.890625 48 
Q 26.265625 48 22.1875 43.046875 
Q 18.109375 38.09375 18.109375 28.8125 
L 18.109375 0 
L 9.078125 0 
L 9.078125 54.6875 
L 18.109375 54.6875 
L 18.109375 46.1875 
Q 20.953125 51.171875 25.484375 53.578125 
Q 30.03125 56 36.53125 56 
Q 37.453125 56 38.578125 55.875 
Q 39.703125 55.765625 41.0625 55.515625 
z
" id="DejaVuSans-72"/>
      <path d="M 18.109375 8.203125 
L 18.109375 -20.796875 
L 9.078125 -20.796875 
L 9.078125 54.6875 
L 18.109375 54.6875 
L 18.109375 46.390625 
Q 20.953125 51.265625 25.265625 53.625 
Q 29.59375 56 35.59375 56 
Q 45.5625 56 51.78125 48.09375 
Q 58.015625 40.1875 58.015625 27.296875 
Q 58.015625 14.40625 51.78125 6.484375 
Q 45.5625 -1.421875 35.59375 -1.421875 
Q 29.59375 -1.421875 25.265625 0.953125 
Q 20.953125 3.328125 18.109375 8.203125 
z
M 48.6875 27.296875 
Q 48.6875 37.203125 44.609375 42.84375 
Q 40.53125 48.484375 33.40625 48.484375 
Q 26.265625 48.484375 22.1875 42.84375 
Q 18.109375 37.203125 18.109375 27.296875 
Q 18.109375 17.390625 22.1875 11.75 
Q 26.265625 6.109375 33.40625 6.109375 
Q 40.53125 6.109375 44.609375 11.75 
Q 48.6875 17.390625 48.6875 27.296875 
z
" id="DejaVuSans-70"/>
      <path d="M 18.3125 70.21875 
L 18.3125 54.6875 
L 36.8125 54.6875 
L 36.8125 47.703125 
L 18.3125 47.703125 
L 18.3125 18.015625 
Q 18.3125 11.328125 20.140625 9.421875 
Q 21.96875 7.515625 27.59375 7.515625 
L 36.8125 7.515625 
L 36.8125 0 
L 27.59375 0 
Q 17.1875 0 13.234375 3.875 
Q 9.28125 7.765625 9.28125 18.015625 
L 9.28125 47.703125 
L 2.6875 47.703125 
L 2.6875 54.6875 
L 9.28125 54.6875 
L 9.28125 70.21875 
z
" id="DejaVuSans-74"/>
      <path d="M 8.5 21.578125 
L 8.5 54.6875 
L 17.484375 54.6875 
L 17.484375 21.921875 
Q 17.484375 14.15625 20.5 10.265625 
Q 23.53125 6.390625 29.59375 6.390625 
Q 36.859375 6.390625 41.078125 11.03125 
Q 45.3125 15.671875 45.3125 23.6875 
L 45.3125 54.6875 
L 54.296875 54.6875 
L 54.296875 0 
L 45.3125 0 
L 45.3125 8.40625 
Q 42.046875 3.421875 37.71875 1 
Q 33.40625 -1.421875 27.6875 -1.421875 
Q 18.265625 -1.421875 13.375 4.4375 
Q 8.5 10.296875 8.5 21.578125 
z
M 31.109375 56 
z
" id="DejaVuSans-75"/>
      <path d="M 48.78125 52.59375 
L 48.78125 44.1875 
Q 44.96875 46.296875 41.140625 47.34375 
Q 37.3125 48.390625 33.40625 48.390625 
Q 24.65625 48.390625 19.8125 42.84375 
Q 14.984375 37.3125 14.984375 27.296875 
Q 14.984375 17.28125 19.8125 11.734375 
Q 24.65625 6.203125 33.40625 6.203125 
Q 37.3125 6.203125 41.140625 7.25 
Q 44.96875 8.296875 48.78125 10.40625 
L 48.78125 2.09375 
Q 45.015625 0.34375 40.984375 -0.53125 
Q 36.96875 -1.421875 32.421875 -1.421875 
Q 20.0625 -1.421875 12.78125 6.34375 
Q 5.515625 14.109375 5.515625 27.296875 
Q 5.515625 40.671875 12.859375 48.328125 
Q 20.21875 56 33.015625 56 
Q 37.15625 56 41.109375 55.140625 
Q 45.0625 54.296875 48.78125 52.59375 
z
" id="DejaVuSans-63"/>
      <path d="M 46 62.703125 
L 46 35.5 
L 73.1875 35.5 
L 73.1875 27.203125 
L 46 27.203125 
L 46 0 
L 37.796875 0 
L 37.796875 27.203125 
L 10.59375 27.203125 
L 10.59375 35.5 
L 37.796875 35.5 
L 37.796875 62.703125 
z
" id="DejaVuSans-2b"/>
     </defs>
     <g transform="translate(24.250312 323.17875)rotate(-90)scale(0.18 -0.18)">
      <use xlink:href="#DejaVuSans-50"/>
      <use x="60.287109" xlink:href="#DejaVuSans-72"/>
      <use x="101.369141" xlink:href="#DejaVuSans-6f"/>
      <use x="162.550781" xlink:href="#DejaVuSans-70"/>
      <use x="226.027344" xlink:href="#DejaVuSans-6f"/>
      <use x="287.208984" xlink:href="#DejaVuSans-72"/>
      <use x="328.322266" xlink:href="#DejaVuSans-74"/>
      <use x="367.53125" xlink:href="#DejaVuSans-69"/>
      <use x="395.314453" xlink:href="#DejaVuSans-6f"/>
      <use x="456.496094" xlink:href="#DejaVuSans-6e"/>
      <use x="519.875" xlink:href="#DejaVuSans-20"/>
      <use x="551.662109" xlink:href="#DejaVuSans-6f"/>
      <use x="612.84375" xlink:href="#DejaVuSans-66"/>
      <use x="648.048828" xlink:href="#DejaVuSans-20"/>
      <use x="679.835938" xlink:href="#DejaVuSans-66"/>
      <use x="715.041016" xlink:href="#DejaVuSans-75"/>
      <use x="778.419922" xlink:href="#DejaVuSans-6e"/>
      <use x="841.798828" xlink:href="#DejaVuSans-63"/>
      <use x="896.779297" xlink:href="#DejaVuSans-74"/>
      <use x="935.988281" xlink:href="#DejaVuSans-69"/>
      <use x="963.771484" xlink:href="#DejaVuSans-6f"/>
      <use x="1024.953125" xlink:href="#DejaVuSans-6e"/>
      <use x="1088.332031" xlink:href="#DejaVuSans-2b"/>
      <use x="1172.121094" xlink:href="#DejaVuSans-74"/>
      <use x="1211.330078" xlink:href="#DejaVuSans-61"/>
      <use x="1272.609375" xlink:href="#DejaVuSans-72"/>
      <use x="1313.707031" xlink:href="#DejaVuSans-67"/>
      <use x="1377.183594" xlink:href="#DejaVuSans-65"/>
      <use x="1438.707031" xlink:href="#DejaVuSans-74"/>
      <use x="1477.916016" xlink:href="#DejaVuSans-20"/>
      <use x="1509.703125" xlink:href="#DejaVuSans-70"/>
      <use x="1573.179688" xlink:href="#DejaVuSans-61"/>
      <use x="1634.458984" xlink:href="#DejaVuSans-69"/>
      <use x="1662.242188" xlink:href="#DejaVuSans-72"/>
      <use x="1703.355469" xlink:href="#DejaVuSans-73"/>
     </g>
    </g>
   </g>
   <g id="line2d_23">
    <defs>
     <path d="M 0 1.5 
C 0.397805 1.5 0.77937 1.341951 1.06066 1.06066 
C 1.341951 0.77937 1.5 0.397805 1.5 0 
C 1.5 -0.397805 1.341951 -0.77937 1.06066 -1.06066 
C 0.77937 -1.341951 0.397805 -1.5 0 -1.5 
C -0.397805 -1.5 -0.77937 -1.341951 -1.06066 -1.06066 
C -1.341951 -0.77937 -1.5 -0.397805 -1.5 0 
C -1.5 0.397805 -1.341951 0.77937 -1.06066 1.06066 
C -0.77937 1.341951 -0.397805 1.5 0 1.5 
z
" id="m472c6f51bb" style="stroke:#000080;"/>
    </defs>
    <g>
     <use style="fill:#000080;stroke:#000080;" x="321.907775" xlink:href="#m472c6f51bb" y="34.768147"/>
     <use style="fill:#000080;stroke:#000080;" x="321.907775" xlink:href="#m472c6f51bb" y="34.768147"/>
    </g>
   </g>
   <g id="line2d_24">
    <path d="M 51.169868 298.245375 
L 51.169868 286.879691 
L 128.785487 286.879691 
L 128.785487 282.746715 
L 129.016046 282.746715 
L 129.016046 282.230093 
L 129.468428 282.230093 
L 129.468428 281.196849 
L 131.373343 281.196849 
L 131.373343 278.613738 
L 131.572989 278.613738 
L 131.572989 276.54725 
L 131.770429 276.54725 
L 131.770429 272.930896 
L 131.96571 272.930896 
L 131.96571 268.281298 
L 132.158881 268.281298 
L 132.158881 264.664944 
L 132.349986 264.664944 
L 132.349986 255.88237 
L 132.726171 255.88237 
L 132.726171 251.232772 
L 132.911334 251.232772 
L 132.911334 245.033307 
L 133.455583 245.033307 
L 133.455583 242.450197 
L 141.96499 242.450197 
L 141.96499 241.416953 
L 143.657911 241.416953 
L 143.657911 239.867087 
L 144.639923 239.867087 
L 144.639923 239.350465 
L 145.018098 239.350465 
L 145.111405 238.317221 
L 149.320526 238.317221 
L 149.320526 237.800599 
L 151.20312 237.800599 
L 151.20312 237.283977 
L 151.980117 237.283977 
L 151.980117 236.250733 
L 152.231785 236.250733 
L 152.231785 233.667623 
L 155.37462 233.667623 
L 155.37462 233.151001 
L 155.941909 233.151001 
L 155.941909 232.117757 
L 156.491741 232.117757 
L 156.540897 230.051269 
L 157.262453 230.051269 
L 157.262453 229.534647 
L 157.403332 229.534647 
L 157.403332 229.018025 
L 158.754211 229.018025 
L 158.754211 226.951537 
L 159.055245 226.951537 
L 159.055245 226.434915 
L 161.334269 226.434915 
L 161.371767 224.885049 
L 162.105674 224.885049 
L 162.105674 223.335183 
L 163.981076 223.335183 
L 163.981076 222.301939 
L 164.365352 222.301939 
L 164.365352 221.268695 
L 165.140326 221.268695 
L 165.140326 220.752073 
L 165.619232 220.752073 
L 165.619232 220.235451 
L 166.735458 220.235451 
L 166.735458 218.685585 
L 167.681082 218.685585 
L 167.681082 218.168963 
L 167.83828 218.168963 
L 167.83828 217.135719 
L 168.827684 217.135719 
L 168.827684 216.619097 
L 169.69477 216.619097 
L 169.74173 213.002743 
L 169.811939 213.002743 
L 169.811939 212.48612 
L 170.227495 212.48612 
L 170.227495 211.969498 
L 170.811179 211.969498 
L 170.811179 210.936254 
L 171.652441 210.936254 
L 171.652441 210.419632 
L 171.778421 210.419632 
L 171.778421 209.386388 
L 172.576328 209.386388 
L 172.576328 208.353144 
L 173.22472 208.353144 
L 173.22472 207.836522 
L 173.587634 207.836522 
L 173.587634 207.3199 
L 173.794422 207.3199 
L 173.794422 206.286656 
L 174.45492 206.286656 
L 174.490908 204.73679 
L 175.195856 204.73679 
L 175.195856 203.703546 
L 175.316413 203.703546 
L 175.316413 203.186924 
L 175.940469 203.186924 
L 175.940469 202.15368 
L 176.939668 202.15368 
L 176.939668 200.087192 
L 177.826377 200.087192 
L 177.826377 199.57057 
L 178.869221 199.57057 
L 178.869221 199.053948 
L 180.013608 199.053948 
L 180.013608 198.537326 
L 180.145088 198.537326 
L 180.158183 196.98746 
L 180.533822 196.98746 
L 180.533822 195.954216 
L 180.775717 195.954216 
L 180.775717 195.437594 
L 181.591416 195.437594 
L 181.591416 194.40435 
L 182.348352 194.40435 
L 182.348352 193.887728 
L 182.884493 193.887728 
L 182.884493 193.371106 
L 183.317479 193.371106 
L 183.317479 192.337862 
L 183.665076 192.337862 
L 183.665076 191.304618 
L 183.97435 191.304618 
L 183.97435 189.754752 
L 185.170432 189.754752 
L 185.170432 189.23813 
L 185.590648 189.23813 
L 185.638875 188.204886 
L 185.859058 188.204886 
L 185.859058 186.65502 
L 186.085958 186.65502 
L 186.123496 184.588532 
L 186.849158 184.588532 
L 186.849158 183.555288 
L 189.285675 183.555288 
L 189.285675 183.038666 
L 189.65875 183.038666 
L 189.689491 182.005422 
L 190.580648 182.005422 
L 190.580648 180.972178 
L 191.254456 180.972178 
L 191.254456 179.938934 
L 191.6785 179.938934 
L 191.685368 178.389067 
L 193.021306 178.389067 
L 193.021306 177.872445 
L 193.635133 177.872445 
L 193.635133 175.805957 
L 193.946422 175.805957 
L 193.946422 174.772713 
L 194.234526 174.772713 
L 194.234526 172.706225 
L 194.347297 172.706225 
L 194.347297 171.672981 
L 194.605749 171.672981 
L 194.605749 170.639737 
L 195.252862 170.639737 
L 195.252862 168.573249 
L 196.055688 168.573249 
L 196.055688 168.056627 
L 196.216277 168.056627 
L 196.216277 167.540005 
L 196.575023 167.540005 
L 196.575023 166.506761 
L 196.967632 166.506761 
L 196.967632 165.990139 
L 198.043364 165.990139 
L 198.043364 164.956895 
L 198.746199 164.956895 
L 198.76007 163.923651 
L 199.77522 163.923651 
L 199.77522 163.407029 
L 205.130406 163.407029 
L 205.130406 162.890407 
L 208.027517 162.890407 
L 208.027517 161.857163 
L 208.678615 161.857163 
L 208.678615 159.274053 
L 208.923659 159.274053 
L 208.923659 158.757431 
L 209.077392 158.757431 
L 209.077392 158.240809 
L 209.250381 158.240809 
L 209.250381 157.724187 
L 209.801926 157.724187 
L 209.801926 157.207565 
L 210.505409 157.207565 
L 210.505409 156.174321 
L 210.776395 156.174321 
L 210.776395 154.624455 
L 211.13837 154.624455 
L 211.13837 152.557967 
L 212.342916 152.557967 
L 212.342916 152.041345 
L 212.454942 152.041345 
L 212.454942 151.524723 
L 213.937941 151.524723 
L 213.937941 151.008101 
L 215.248552 151.008101 
L 215.248552 150.491479 
L 217.94722 150.491479 
L 217.94722 148.941613 
L 218.212146 148.941613 
L 218.212146 147.391747 
L 218.356276 147.391747 
L 218.356276 145.841881 
L 219.092602 145.841881 
L 219.092602 145.325259 
L 219.304636 145.325259 
L 219.304636 144.808637 
L 220.1592 144.808637 
L 220.1592 144.292014 
L 220.437497 144.292014 
L 220.437497 143.775392 
L 220.752068 143.775392 
L 220.848994 140.67566 
L 220.981416 140.67566 
L 220.981416 140.159038 
L 221.102277 140.159038 
L 221.102277 139.642416 
L 222.040817 139.642416 
L 222.040817 139.125794 
L 222.243128 139.125794 
L 222.243128 138.609172 
L 222.641005 138.609172 
L 222.641005 137.575928 
L 222.818642 137.575928 
L 222.818642 135.50944 
L 222.995722 135.50944 
L 223.036155 133.442952 
L 223.408801 133.442952 
L 223.408801 132.92633 
L 224.058788 132.92633 
L 224.058788 132.409708 
L 225.819024 132.409708 
L 225.819024 131.376464 
L 226.380404 131.376464 
L 226.45904 128.793354 
L 226.775952 128.793354 
L 226.775952 128.276732 
L 226.953326 128.276732 
L 226.953326 127.243488 
L 227.271977 127.243488 
L 227.271977 126.726866 
L 228.964252 126.726866 
L 229.068802 124.660378 
L 229.362996 124.660378 
L 229.362996 123.627134 
L 231.285728 123.627134 
L 231.285728 123.110512 
L 232.598772 123.110512 
L 232.598772 121.560646 
L 234.516875 121.560646 
L 234.516875 120.527402 
L 235.219501 120.527402 
L 235.219501 120.01078 
L 235.733437 120.01078 
L 235.733437 118.977536 
L 235.997048 118.977536 
L 235.997048 118.460914 
L 236.200054 118.460914 
L 236.200054 117.42767 
L 236.779636 117.42767 
L 236.779636 116.911048 
L 237.100413 116.911048 
L 237.196932 110.194961 
L 237.993095 110.194961 
L 237.993095 109.161717 
L 238.879548 109.161717 
L 238.879548 108.645095 
L 239.471155 108.645095 
L 239.471155 108.128473 
L 240.526947 108.128473 
L 240.526947 107.611851 
L 240.938588 107.611851 
L 240.938588 106.061985 
L 242.030685 106.061985 
L 242.030685 105.545363 
L 242.178193 105.545363 
L 242.178193 103.478875 
L 243.191071 103.478875 
L 243.191071 102.962253 
L 244.552444 102.962253 
L 244.555294 101.412387 
L 244.85801 101.412387 
L 244.85801 100.379143 
L 245.04234 100.379143 
L 245.04234 98.829277 
L 245.15465 98.829277 
L 245.15465 97.796033 
L 245.415577 97.796033 
L 245.415577 97.279411 
L 246.29493 97.279411 
L 246.29493 96.762789 
L 249.67362 96.762789 
L 249.739305 95.212923 
L 251.065703 95.212923 
L 251.065703 94.179679 
L 251.304626 94.179679 
L 251.304626 93.663057 
L 255.865027 93.663057 
L 255.865027 93.146435 
L 256.207153 93.146435 
L 256.207153 92.629813 
L 257.110356 92.629813 
L 257.110356 90.563325 
L 258.870315 90.563325 
L 258.893802 89.013459 
L 260.029271 89.013459 
L 260.029271 86.430349 
L 260.146512 86.430349 
L 260.146512 84.880483 
L 260.866591 84.880483 
L 260.866591 84.363861 
L 261.04981 84.363861 
L 261.04981 83.847239 
L 261.551205 83.847239 
L 261.551205 83.330617 
L 262.33057 83.330617 
L 262.33057 82.813995 
L 262.943312 82.813995 
L 262.943312 81.780751 
L 263.43051 81.780751 
L 263.43051 80.230885 
L 265.919243 80.230885 
L 265.962727 78.164397 
L 268.33462 78.164397 
L 268.33462 77.647775 
L 268.7009 77.647775 
L 268.7009 75.064664 
L 269.667052 75.064664 
L 269.667052 74.548042 
L 269.894432 74.548042 
L 269.894432 71.964932 
L 270.18316 71.964932 
L 270.18316 68.8652 
L 270.64553 68.8652 
L 270.64553 67.315334 
L 271.32337 67.315334 
L 271.32337 66.798712 
L 271.926456 66.798712 
L 272.010415 65.765468 
L 272.548634 65.765468 
L 272.548634 64.732224 
L 272.724742 64.732224 
L 272.724742 62.665736 
L 274.336158 62.665736 
L 274.336158 59.566004 
L 274.82324 59.566004 
L 274.82324 59.049382 
L 275.487969 59.049382 
L 275.566396 57.499516 
L 277.332275 57.499516 
L 277.332275 56.466272 
L 281.692864 56.466272 
L 281.692864 55.94965 
L 282.828494 55.94965 
L 282.828494 55.433028 
L 283.321904 55.433028 
L 283.321904 54.916406 
L 283.656005 54.916406 
L 283.656005 54.399784 
L 283.960864 54.399784 
L 283.960864 53.883162 
L 284.374678 53.883162 
L 284.374678 53.36654 
L 284.651796 53.36654 
L 284.651796 52.849918 
L 285.140765 52.849918 
L 285.140765 52.333296 
L 285.818722 52.333296 
L 285.818722 51.816674 
L 286.190015 51.816674 
L 286.190015 51.300052 
L 287.177839 51.300052 
L 287.177839 50.266808 
L 287.306577 50.266808 
L 287.306577 49.750186 
L 287.629728 49.750186 
L 287.629728 49.233564 
L 291.522292 49.233564 
L 291.522292 48.716942 
L 291.662196 48.716942 
L 291.662196 48.20032 
L 292.554669 48.20032 
L 292.554669 47.683698 
L 292.77864 47.683698 
L 292.799768 46.650454 
L 293.014367 46.650454 
L 293.014367 46.133832 
L 293.681425 46.133832 
L 293.681425 45.61721 
L 294.03865 45.61721 
L 294.136107 44.583966 
L 294.292922 44.583966 
L 294.292922 44.067344 
L 294.692658 44.067344 
L 294.692658 43.550722 
L 295.908436 43.550722 
L 295.908436 43.0341 
L 297.384217 43.0341 
L 297.384217 42.517478 
L 297.895844 42.517478 
L 297.895844 42.000855 
L 300.25533 42.000855 
L 300.25533 41.484233 
L 301.596951 41.484233 
L 301.596951 40.967611 
L 302.091247 40.967611 
L 302.091247 40.450989 
L 303.692537 40.450989 
L 303.692537 39.934367 
L 305.413068 39.934367 
L 305.413068 39.417745 
L 308.953363 39.417745 
L 308.953363 38.901123 
L 309.906638 38.901123 
L 309.906638 38.384501 
L 310.141232 38.384501 
L 310.141232 37.867879 
L 312.875437 37.867879 
L 312.875437 37.351257 
L 313.290693 37.351257 
L 313.290693 36.834635 
L 317.092534 36.834635 
L 317.092534 36.318013 
L 318.084606 36.318013 
L 318.084606 35.801391 
L 320.843474 35.801391 
L 320.843474 35.284769 
L 321.907775 35.284769 
L 321.907775 34.768147 
L 358.8 34.768147 
L 358.8 34.768147 
" style="fill:none;stroke:#000080;stroke-linecap:square;stroke-width:1.5;"/>
   </g>
   <g id="line2d_25">
    <defs>
     <path d="M 0 6 
C 1.591219 6 3.117479 5.367802 4.242641 4.242641 
C 5.367802 3.117479 6 1.591219 6 0 
C 6 -1.591219 5.367802 -3.117479 4.242641 -4.242641 
C 3.117479 -5.367802 1.591219 -6 0 -6 
C -1.591219 -6 -3.117479 -5.367802 -4.242641 -4.242641 
C -5.367802 -3.117479 -6 -1.591219 -6 0 
C -6 1.591219 -5.367802 3.117479 -4.242641 4.242641 
C -3.117479 5.367802 -1.591219 6 0 6 
z
" id="m02d590bc6c" style="stroke:#000080;stroke-width:1.5;"/>
    </defs>
    <g>
     <use style="fill:none;stroke:#000080;stroke-width:1.5;" x="132.349986" xlink:href="#m02d590bc6c" y="264.664944"/>
     <use style="fill:none;stroke:#000080;stroke-width:1.5;" x="189.689491" xlink:href="#m02d590bc6c" y="182.522044"/>
     <use style="fill:none;stroke:#000080;stroke-width:1.5;" x="249.67362" xlink:href="#m02d590bc6c" y="96.762789"/>
     <use style="fill:none;stroke:#000080;stroke-width:1.5;" x="317.092534" xlink:href="#m02d590bc6c" y="36.834635"/>
     <use style="fill:none;stroke:#000080;stroke-width:1.5;" x="321.907775" xlink:href="#m02d590bc6c" y="34.768147"/>
     <use style="fill:none;stroke:#000080;stroke-width:1.5;" x="358.8" xlink:href="#m02d590bc6c" y="34.768147"/>
    </g>
   </g>
   <g id="line2d_26"/>
   <g id="line2d_27">
    <path clip-path="url(#pce92daf793)" d="M 273.23931 62.665736 
" style="fill:none;stroke:#000080;stroke-linecap:square;stroke-width:1.5;"/>
    <defs>
     <path d="M -12 12 
L 12 -12 
M -12 -12 
L 12 12 
" id="m946eea2e11" style="stroke:#000080;stroke-width:3;"/>
    </defs>
    <g clip-path="url(#pce92daf793)">
     <use style="fill:#000080;stroke:#000080;stroke-width:3;" x="273.23931" xlink:href="#m946eea2e11" y="62.665736"/>
    </g>
   </g>
   <g id="line2d_28">
    <defs>
     <path d="M 0 1.5 
C 0.397805 1.5 0.77937 1.341951 1.06066 1.06066 
C 1.341951 0.77937 1.5 0.397805 1.5 0 
C 1.5 -0.397805 1.341951 -0.77937 1.06066 -1.06066 
C 0.77937 -1.341951 0.397805 -1.5 0 -1.5 
C -0.397805 -1.5 -0.77937 -1.341951 -1.06066 -1.06066 
C -1.341951 -0.77937 -1.5 -0.397805 -1.5 0 
C -1.5 0.397805 -1.341951 0.77937 -1.06066 1.06066 
C -0.77937 1.341951 -0.397805 1.5 0 1.5 
z
" id="m64c97dca5f" style="stroke:#ff00ff;"/>
    </defs>
    <g>
     <use style="fill:#ff00ff;stroke:#ff00ff;" x="341.049146" xlink:href="#m64c97dca5f" y="138.09255"/>
     <use style="fill:#ff00ff;stroke:#ff00ff;" x="341.049146" xlink:href="#m64c97dca5f" y="138.09255"/>
    </g>
   </g>
   <g id="line2d_29">
    <path d="M 144.350945 298.245375 
L 144.350945 297.728753 
L 145.111405 297.728753 
L 145.111405 297.212131 
L 156.833025 297.212131 
L 156.833025 292.045911 
L 166.540176 292.045911 
L 166.540176 291.529289 
L 180.366408 291.529289 
L 180.366408 291.012667 
L 182.681059 291.012667 
L 182.681059 289.979423 
L 184.931524 289.979423 
L 184.931524 288.429557 
L 185.386661 288.429557 
L 185.386661 287.912935 
L 188.888589 287.912935 
L 188.888589 287.396313 
L 189.581666 287.396313 
L 189.581666 286.363069 
L 192.938273 286.363069 
L 193.046778 284.296581 
L 194.779847 284.296581 
L 194.779847 283.779959 
L 205.759876 283.779959 
L 205.759876 283.263337 
L 206.497284 283.263337 
L 206.497284 282.746715 
L 210.562801 282.746715 
L 210.562801 280.680226 
L 211.010765 280.680226 
L 211.010765 279.646982 
L 212.898248 279.646982 
L 212.898248 278.613738 
L 214.112995 278.613738 
L 214.112995 274.997384 
L 215.915552 274.997384 
L 215.915552 273.447518 
L 216.070591 273.447518 
L 216.070591 272.930896 
L 217.975624 272.930896 
L 217.975624 270.864408 
L 218.442506 270.864408 
L 218.442506 269.831164 
L 218.733522 269.831164 
L 218.733522 269.314542 
L 220.72505 269.314542 
L 220.72505 268.281298 
L 221.480778 268.281298 
L 221.544165 265.181566 
L 221.824752 265.181566 
L 221.824752 261.565212 
L 221.961518 261.565212 
L 221.961518 259.498724 
L 222.319953 259.498724 
L 222.319953 256.915614 
L 223.235788 256.915614 
L 223.235788 256.398992 
L 224.952572 256.398992 
L 224.952572 255.88237 
L 226.296472 255.88237 
L 226.296472 254.849126 
L 226.630831 254.849126 
L 226.630831 246.066551 
L 227.070288 246.066551 
L 227.070288 244.516685 
L 228.238747 244.516685 
L 228.238747 242.450197 
L 230.866102 242.450197 
L 230.866102 241.416953 
L 231.826937 241.416953 
L 231.826937 240.900331 
L 233.577953 240.900331 
L 233.641712 237.800599 
L 234.131635 237.800599 
L 234.131635 235.217489 
L 235.30639 235.217489 
L 235.30639 231.601135 
L 237.038127 231.601135 
L 237.038127 231.084513 
L 239.008292 231.084513 
L 239.008292 230.567891 
L 241.125591 230.567891 
L 241.125591 226.951537 
L 242.271541 226.951537 
L 242.271541 224.368427 
L 243.328958 224.368427 
L 243.395984 220.752073 
L 244.378081 220.752073 
L 244.378081 219.718829 
L 244.856259 219.718829 
L 244.856259 219.202207 
L 245.331185 219.202207 
L 245.331185 217.652341 
L 246.634901 217.652341 
L 246.634901 214.035987 
L 247.998913 214.035987 
L 247.998913 212.48612 
L 248.691869 212.48612 
L 248.691869 207.836522 
L 250.614381 207.836522 
L 250.614381 207.3199 
L 255.713048 207.3199 
L 255.713048 205.770034 
L 257.020857 205.770034 
L 257.020857 204.73679 
L 257.432599 204.73679 
L 257.432599 203.703546 
L 259.007923 203.703546 
L 259.007923 203.186924 
L 260.365481 203.186924 
L 260.365481 202.670302 
L 261.095464 202.670302 
L 261.095464 200.603814 
L 261.256369 200.603814 
L 261.256369 200.087192 
L 263.587627 200.087192 
L 263.587627 196.98746 
L 267.675013 196.98746 
L 267.675013 196.470838 
L 268.698041 196.470838 
L 268.698041 195.954216 
L 270.219539 195.954216 
L 270.219539 194.40435 
L 271.502927 194.40435 
L 271.502927 193.371106 
L 273.237521 193.371106 
L 273.314413 190.271374 
L 273.449545 190.271374 
L 273.449545 187.688264 
L 273.678707 187.688264 
L 273.678707 187.171642 
L 274.507375 187.171642 
L 274.507375 186.65502 
L 274.979493 186.65502 
L 274.979493 186.138398 
L 275.236211 186.138398 
L 275.236211 185.621776 
L 275.568343 185.621776 
L 275.568343 185.105154 
L 275.696244 185.105154 
L 275.696244 184.588532 
L 276.138709 184.588532 
L 276.138709 184.07191 
L 276.260794 184.07191 
L 276.260794 182.522044 
L 276.564543 182.522044 
L 276.564543 182.005422 
L 277.240038 182.005422 
L 277.331251 180.972178 
L 278.396058 180.972178 
L 278.396058 180.455556 
L 279.257739 180.455556 
L 279.257739 179.938934 
L 279.468082 179.938934 
L 279.468082 179.422312 
L 280.971031 179.422312 
L 280.971031 178.90569 
L 281.29938 178.90569 
L 281.29938 178.389067 
L 282.060934 178.389067 
L 282.060934 177.872445 
L 282.211556 177.872445 
L 282.211556 177.355823 
L 283.108144 177.355823 
L 283.108144 176.839201 
L 284.532454 176.839201 
L 284.532454 176.322579 
L 285.560722 176.322579 
L 285.603964 175.289335 
L 285.882723 175.289335 
L 285.949727 174.256091 
L 286.355699 174.256091 
L 286.355699 173.739469 
L 287.436624 173.739469 
L 287.436624 173.222847 
L 287.558734 173.222847 
L 287.558734 172.706225 
L 288.55014 172.706225 
L 288.575267 171.672981 
L 289.604758 171.672981 
L 289.604758 171.156359 
L 290.237515 171.156359 
L 290.237515 170.639737 
L 291.98495 170.639737 
L 291.98495 170.123115 
L 292.465396 170.123115 
L 292.465396 169.606493 
L 292.903534 169.606493 
L 292.903534 169.089871 
L 293.360326 169.089871 
L 293.37642 168.056627 
L 293.821994 168.056627 
L 293.821994 167.540005 
L 294.42795 167.540005 
L 294.42795 167.023383 
L 295.466612 167.023383 
L 295.466612 166.506761 
L 296.131548 166.506761 
L 296.131548 165.990139 
L 296.940071 165.990139 
L 296.940071 165.473517 
L 297.875492 165.473517 
L 297.875492 164.956895 
L 298.022615 164.956895 
L 298.022615 164.440273 
L 298.620176 164.440273 
L 298.682155 163.407029 
L 299.212533 163.407029 
L 299.212533 162.890407 
L 300.521575 162.890407 
L 300.521575 162.373785 
L 300.682493 162.373785 
L 300.763179 161.340541 
L 301.898292 161.340541 
L 301.902363 160.307297 
L 302.24264 160.307297 
L 302.24264 159.790675 
L 303.699888 159.790675 
L 303.699888 159.274053 
L 303.892104 159.274053 
L 303.892104 158.757431 
L 304.054636 158.757431 
L 304.149614 157.724187 
L 304.887218 157.724187 
L 304.887218 157.207565 
L 305.237641 157.207565 
L 305.237641 156.690943 
L 305.824408 156.690943 
L 305.840074 155.657699 
L 305.982213 155.657699 
L 306.06487 154.107833 
L 307.718322 154.107833 
L 307.726422 153.074589 
L 308.342649 153.074589 
L 308.342649 152.557967 
L 309.115822 152.557967 
L 309.115822 152.041345 
L 309.261722 152.041345 
L 309.261722 151.524723 
L 310.144134 151.524723 
L 310.144134 151.008101 
L 311.345064 151.008101 
L 311.345064 150.491479 
L 311.58733 150.491479 
L 311.58733 149.974857 
L 312.538211 149.974857 
L 312.538211 149.458235 
L 313.260675 149.458235 
L 313.260675 148.941613 
L 314.522324 148.941613 
L 314.522324 148.424991 
L 315.258864 148.424991 
L 315.258864 147.908369 
L 315.377536 147.908369 
L 315.377536 147.391747 
L 316.14052 147.391747 
L 316.14052 146.875125 
L 316.387812 146.875125 
L 316.387812 146.358503 
L 316.52089 146.358503 
L 316.52089 145.841881 
L 316.691131 145.841881 
L 316.691131 145.325259 
L 317.313447 145.325259 
L 317.313447 144.808637 
L 319.181429 144.808637 
L 319.181429 144.292014 
L 319.920732 144.292014 
L 319.920732 143.775392 
L 320.415277 143.775392 
L 320.415277 143.25877 
L 320.819888 143.25877 
L 320.819888 142.742148 
L 321.841843 142.742148 
L 321.841843 142.225526 
L 322.302057 142.225526 
L 322.302057 141.708904 
L 322.416346 141.708904 
L 322.416346 141.192282 
L 323.156193 141.192282 
L 323.156193 140.67566 
L 327.458729 140.67566 
L 327.458729 140.159038 
L 327.669807 140.159038 
L 327.669807 139.642416 
L 331.683329 139.642416 
L 331.683329 139.125794 
L 337.079373 139.125794 
L 337.079373 138.609172 
L 341.049146 138.609172 
L 341.049146 138.09255 
L 358.8 138.09255 
L 358.8 138.09255 
" style="fill:none;stroke:#ff00ff;stroke-linecap:square;stroke-width:1.5;"/>
   </g>
   <g id="line2d_30">
    <defs>
     <path d="M -0 8.485281 
L 5.091169 0 
L 0 -8.485281 
L -5.091169 -0 
z
" id="mfc3572a2f8" style="stroke:#ff00ff;stroke-linejoin:miter;stroke-width:1.5;"/>
    </defs>
    <g>
     <use style="fill:none;stroke:#ff00ff;stroke-linejoin:miter;stroke-width:1.5;" x="218.733522" xlink:href="#mfc3572a2f8" y="269.314542"/>
     <use style="fill:none;stroke:#ff00ff;stroke-linejoin:miter;stroke-width:1.5;" x="248.691869" xlink:href="#mfc3572a2f8" y="207.836522"/>
     <use style="fill:none;stroke:#ff00ff;stroke-linejoin:miter;stroke-width:1.5;" x="315.258864" xlink:href="#mfc3572a2f8" y="148.424991"/>
     <use style="fill:none;stroke:#ff00ff;stroke-linejoin:miter;stroke-width:1.5;" x="341.049146" xlink:href="#mfc3572a2f8" y="138.09255"/>
     <use style="fill:none;stroke:#ff00ff;stroke-linejoin:miter;stroke-width:1.5;" x="358.8" xlink:href="#mfc3572a2f8" y="138.09255"/>
    </g>
   </g>
   <g id="line2d_31"/>
   <g id="line2d_32">
    <path clip-path="url(#pce92daf793)" d="M 270.887571 194.40435 
" style="fill:none;stroke:#ff00ff;stroke-linecap:square;stroke-width:1.5;"/>
    <defs>
     <path d="M -12 12 
L 12 -12 
M -12 -12 
L 12 12 
" id="m6c7fa97d39" style="stroke:#ff00ff;stroke-width:3;"/>
    </defs>
    <g clip-path="url(#pce92daf793)">
     <use style="fill:#ff00ff;stroke:#ff00ff;stroke-width:3;" x="270.887571" xlink:href="#m6c7fa97d39" y="194.40435"/>
    </g>
   </g>
   <g id="line2d_33">
    <defs>
     <path d="M 0 1.5 
C 0.397805 1.5 0.77937 1.341951 1.06066 1.06066 
C 1.341951 0.77937 1.5 0.397805 1.5 0 
C 1.5 -0.397805 1.341951 -0.77937 1.06066 -1.06066 
C 0.77937 -1.341951 0.397805 -1.5 0 -1.5 
C -0.397805 -1.5 -0.77937 -1.341951 -1.06066 -1.06066 
C -1.341951 -0.77937 -1.5 -0.397805 -1.5 0 
C -1.5 0.397805 -1.341951 0.77937 -1.06066 1.06066 
C -0.77937 1.341951 -0.397805 1.5 0 1.5 
z
" id="m141524b05f" style="stroke:#ffa500;"/>
    </defs>
    <g>
     <use style="fill:#ffa500;stroke:#ffa500;" x="323.790055" xlink:href="#m141524b05f" y="112.26145"/>
     <use style="fill:#ffa500;stroke:#ffa500;" x="323.790055" xlink:href="#m141524b05f" y="112.26145"/>
    </g>
   </g>
   <g id="line2d_34">
    <path d="M 51.169868 298.245375 
L 51.169868 296.178887 
L 127.832295 296.178887 
L 127.832295 295.662265 
L 130.760662 295.662265 
L 130.760662 293.595777 
L 130.967232 293.595777 
L 130.967232 290.496045 
L 131.171441 290.496045 
L 131.171441 288.429557 
L 131.770429 288.429557 
L 131.770429 285.329825 
L 132.158881 285.329825 
L 132.158881 282.230093 
L 132.911334 282.230093 
L 132.911334 281.713471 
L 133.094598 281.713471 
L 133.094598 278.613738 
L 141.741636 278.613738 
L 141.741636 278.097116 
L 143.454862 278.097116 
L 143.454862 277.580494 
L 143.858679 277.580494 
L 143.858679 276.54725 
L 144.350945 276.54725 
L 144.350945 276.030628 
L 145.661236 276.030628 
L 145.661236 275.514006 
L 151.003475 275.514006 
L 151.003475 274.997384 
L 151.660465 274.997384 
L 151.660465 273.447518 
L 151.980117 273.447518 
L 151.980117 272.930896 
L 152.785403 272.930896 
L 152.785403 272.414274 
L 154.680107 272.414274 
L 154.680107 271.897652 
L 155.686281 271.897652 
L 155.686281 271.38103 
L 156.833025 271.38103 
L 156.833025 270.864408 
L 157.403332 270.864408 
L 157.403332 270.347786 
L 158.091535 270.347786 
L 158.091535 269.314542 
L 160.050479 269.314542 
L 160.050479 268.281298 
L 161.031412 268.281298 
L 161.031412 267.764676 
L 162.914006 267.764676 
L 162.914006 266.731432 
L 163.753039 266.731432 
L 163.753039 266.21481 
L 164.523059 266.21481 
L 164.523059 265.698188 
L 166.342737 265.698188 
L 166.342737 265.181566 
L 167.942316 265.181566 
L 167.942316 264.148322 
L 168.950658 264.148322 
L 168.950658 263.6317 
L 169.788567 263.6317 
L 169.788567 263.115078 
L 170.744796 263.115078 
L 170.744796 262.081834 
L 176.479247 262.081834 
L 176.479247 261.565212 
L 177.676602 261.565212 
L 177.676602 260.531968 
L 179.69405 260.531968 
L 179.787846 259.498724 
L 180.236552 259.498724 
L 180.236552 257.948858 
L 182.313578 257.948858 
L 182.313578 256.915614 
L 183.611208 256.915614 
L 183.611208 255.365748 
L 186.263566 255.365748 
L 186.263566 254.849126 
L 186.457837 254.849126 
L 186.457837 253.29926 
L 187.632857 253.29926 
L 187.632857 251.749394 
L 188.125685 251.749394 
L 188.125685 251.232772 
L 188.719145 251.232772 
L 188.719145 250.71615 
L 188.888589 250.71615 
L 188.888589 250.199528 
L 190.061836 250.199528 
L 190.061836 249.682906 
L 190.920728 249.682906 
L 190.920728 249.166284 
L 191.863026 249.166284 
L 191.863026 248.649662 
L 194.992257 248.649662 
L 194.992257 248.13304 
L 195.337027 248.13304 
L 195.337027 247.099796 
L 196.637591 247.099796 
L 196.637591 246.583173 
L 197.241439 246.583173 
L 197.241439 246.066551 
L 197.659193 246.066551 
L 197.659193 245.549929 
L 197.966221 245.549929 
L 197.966221 244.516685 
L 199.21638 244.516685 
L 199.21638 242.450197 
L 200.548593 242.450197 
L 200.586188 238.317221 
L 200.677756 238.317221 
L 200.677756 237.283977 
L 200.953764 237.283977 
L 200.953764 236.767355 
L 206.691067 236.767355 
L 206.691067 235.734111 
L 209.142136 235.734111 
L 209.142136 235.217489 
L 209.37074 235.217489 
L 209.37074 234.700867 
L 211.110607 234.700867 
L 211.198377 231.601135 
L 213.781106 231.601135 
L 213.781106 227.468159 
L 214.373365 227.468159 
L 214.373365 226.951537 
L 214.555685 226.951537 
L 214.555685 226.434915 
L 214.843581 226.434915 
L 214.927931 224.885049 
L 215.106558 224.885049 
L 215.106558 221.785317 
L 215.250389 221.785317 
L 215.250389 221.268695 
L 215.43311 221.268695 
L 215.43311 220.235451 
L 217.114791 220.235451 
L 217.114791 217.652341 
L 217.335144 217.652341 
L 217.335144 216.619097 
L 218.237026 216.619097 
L 218.237026 215.585853 
L 219.055533 215.585853 
L 219.055533 215.069231 
L 221.380713 215.069231 
L 221.447052 211.969498 
L 221.699737 211.969498 
L 221.699737 210.936254 
L 222.958776 210.936254 
L 222.958776 210.419632 
L 223.398327 210.419632 
L 223.398327 207.836522 
L 223.987974 207.836522 
L 223.987974 206.286656 
L 225.353527 206.286656 
L 225.353527 204.73679 
L 226.330092 204.73679 
L 226.428609 202.670302 
L 226.751847 202.670302 
L 226.751847 202.15368 
L 226.948555 202.15368 
L 226.948555 201.637058 
L 227.305684 201.637058 
L 227.305684 201.120436 
L 228.732586 201.120436 
L 228.732586 199.57057 
L 229.046753 199.57057 
L 229.046753 199.053948 
L 230.040278 199.053948 
L 230.040278 196.98746 
L 231.01189 196.98746 
L 231.108174 192.854484 
L 231.142166 192.854484 
L 231.142166 191.82124 
L 231.330589 191.82124 
L 231.330589 190.787996 
L 234.221423 190.787996 
L 234.221423 190.271374 
L 234.462436 190.271374 
L 234.462436 189.754752 
L 234.871335 189.754752 
L 234.871335 189.23813 
L 236.463083 189.23813 
L 236.463083 188.204886 
L 237.647754 188.204886 
L 237.647754 187.688264 
L 239.385247 187.688264 
L 239.385247 187.171642 
L 240.374098 187.171642 
L 240.374098 185.621776 
L 240.602661 185.621776 
L 240.602661 184.588532 
L 240.909778 184.588532 
L 240.909778 183.555288 
L 241.222871 183.555288 
L 241.297409 182.005422 
L 243.894888 182.005422 
L 243.964616 179.938934 
L 245.063819 179.938934 
L 245.063819 179.422312 
L 246.447468 179.422312 
L 246.447468 177.872445 
L 246.911166 177.872445 
L 246.911166 176.839201 
L 248.029441 176.839201 
L 248.029441 175.289335 
L 249.142011 175.289335 
L 249.142011 174.256091 
L 249.396485 174.256091 
L 249.396485 173.739469 
L 250.25757 173.739469 
L 250.25757 172.706225 
L 250.744605 172.706225 
L 250.744605 172.189603 
L 252.104659 172.189603 
L 252.104659 171.672981 
L 252.541712 171.672981 
L 252.541712 170.123115 
L 254.047598 170.123115 
L 254.047598 169.089871 
L 254.979907 169.089871 
L 254.979907 167.023383 
L 255.55014 167.023383 
L 255.55014 164.440273 
L 256.072284 164.440273 
L 256.072284 162.890407 
L 256.876827 162.890407 
L 256.876827 162.373785 
L 257.207834 162.373785 
L 257.207834 161.857163 
L 258.224526 161.857163 
L 258.224526 161.340541 
L 259.745171 161.340541 
L 259.745171 160.307297 
L 260.15187 160.307297 
L 260.15187 159.274053 
L 261.695249 159.274053 
L 261.745003 156.174321 
L 262.029404 156.174321 
L 262.029404 155.657699 
L 262.239706 155.657699 
L 262.302489 153.074589 
L 263.054602 153.074589 
L 263.054602 151.008101 
L 263.374805 151.008101 
L 263.374805 148.424991 
L 263.785684 148.424991 
L 263.785684 147.908369 
L 265.08595 147.908369 
L 265.08595 147.391747 
L 265.928832 147.391747 
L 265.928832 145.841881 
L 266.310742 145.841881 
L 266.310742 145.325259 
L 266.546605 145.325259 
L 266.546605 144.292014 
L 266.800743 144.292014 
L 266.800743 143.775392 
L 268.108295 143.775392 
L 268.108295 143.25877 
L 268.276347 143.25877 
L 268.276347 142.225526 
L 268.888428 142.225526 
L 268.888428 141.708904 
L 269.632593 141.708904 
L 269.632593 136.542684 
L 270.093976 136.542684 
L 270.093976 135.50944 
L 271.76636 135.50944 
L 271.76636 134.992818 
L 272.139842 134.992818 
L 272.197798 133.442952 
L 272.389239 133.442952 
L 272.389239 132.92633 
L 274.252263 132.92633 
L 274.252263 132.409708 
L 278.486318 132.409708 
L 278.486318 131.376464 
L 280.603165 131.376464 
L 280.603165 130.859842 
L 282.964051 130.859842 
L 282.964051 130.34322 
L 283.116543 130.34322 
L 283.116543 129.826598 
L 283.449259 129.826598 
L 283.449259 129.309976 
L 284.407792 129.309976 
L 284.407792 128.793354 
L 284.65021 128.793354 
L 284.65021 128.276732 
L 286.425643 128.276732 
L 286.425643 127.76011 
L 286.67285 127.76011 
L 286.67285 127.243488 
L 290.430799 127.243488 
L 290.430799 126.726866 
L 290.713162 126.726866 
L 290.713162 126.210244 
L 290.966346 126.210244 
L 290.966346 125.693622 
L 294.976427 125.693622 
L 294.976427 125.177 
L 295.932802 125.177 
L 295.932802 124.660378 
L 297.101429 124.660378 
L 297.101429 124.143756 
L 297.295943 124.143756 
L 297.295943 123.627134 
L 297.449796 123.627134 
L 297.449796 123.110512 
L 299.705496 123.110512 
L 299.705496 122.59389 
L 300.452163 122.59389 
L 300.452163 122.077268 
L 300.951447 122.077268 
L 300.951447 121.560646 
L 301.786265 121.560646 
L 301.786265 121.044024 
L 303.276403 121.044024 
L 303.276403 120.527402 
L 303.449027 120.527402 
L 303.449027 120.01078 
L 307.341854 120.01078 
L 307.414622 118.460914 
L 308.989079 118.460914 
L 308.989079 117.944292 
L 309.748183 117.944292 
L 309.748183 117.42767 
L 310.468691 117.42767 
L 310.468691 116.911048 
L 311.313585 116.911048 
L 311.313585 116.394426 
L 312.567583 116.394426 
L 312.567583 115.877804 
L 313.425435 115.877804 
L 313.425435 115.361182 
L 320.55262 115.361182 
L 320.64835 114.327938 
L 321.549134 114.327938 
L 321.549134 113.811316 
L 322.035176 113.811316 
L 322.035176 113.294694 
L 322.600591 113.294694 
L 322.600591 112.778072 
L 323.790055 112.778072 
L 323.790055 112.26145 
L 358.8 112.26145 
L 358.8 112.26145 
" style="fill:none;stroke:#ffa500;stroke-linecap:square;stroke-width:1.5;"/>
   </g>
   <g id="line2d_35">
    <defs>
     <path d="M 0 -6 
L -1.347084 -1.854102 
L -5.706339 -1.854102 
L -2.179628 0.708204 
L -3.526712 4.854102 
L -0 2.291796 
L 3.526712 4.854102 
L 2.179628 0.708204 
L 5.706339 -1.854102 
L 1.347084 -1.854102 
z
" id="mae587f9a0d" style="stroke:#ffa500;stroke-linejoin:bevel;stroke-width:1.5;"/>
    </defs>
    <g>
     <use style="fill:none;stroke:#ffa500;stroke-linejoin:bevel;stroke-width:1.5;" x="132.158881" xlink:href="#mae587f9a0d" y="285.329825"/>
     <use style="fill:none;stroke:#ffa500;stroke-linejoin:bevel;stroke-width:1.5;" x="200.953764" xlink:href="#mae587f9a0d" y="237.283977"/>
     <use style="fill:none;stroke:#ffa500;stroke-linejoin:bevel;stroke-width:1.5;" x="261.695249" xlink:href="#mae587f9a0d" y="159.274053"/>
     <use style="fill:none;stroke:#ffa500;stroke-linejoin:bevel;stroke-width:1.5;" x="313.425435" xlink:href="#mae587f9a0d" y="115.361182"/>
     <use style="fill:none;stroke:#ffa500;stroke-linejoin:bevel;stroke-width:1.5;" x="323.790055" xlink:href="#mae587f9a0d" y="112.26145"/>
     <use style="fill:none;stroke:#ffa500;stroke-linejoin:bevel;stroke-width:1.5;" x="358.8" xlink:href="#mae587f9a0d" y="112.26145"/>
    </g>
   </g>
   <g id="line2d_36"/>
   <g id="line2d_37">
    <path clip-path="url(#pce92daf793)" d="M 269.301968 141.708904 
" style="fill:none;stroke:#ffa500;stroke-linecap:square;stroke-width:1.5;"/>
    <defs>
     <path d="M -12 12 
L 12 -12 
M -12 -12 
L 12 12 
" id="meec795bba8" style="stroke:#ffa500;stroke-width:3;"/>
    </defs>
    <g clip-path="url(#pce92daf793)">
     <use style="fill:#ffa500;stroke:#ffa500;stroke-width:3;" x="269.301968" xlink:href="#meec795bba8" y="141.708904"/>
    </g>
   </g>
   <g id="line2d_38">
    <defs>
     <path d="M 0 1.5 
C 0.397805 1.5 0.77937 1.341951 1.06066 1.06066 
C 1.341951 0.77937 1.5 0.397805 1.5 0 
C 1.5 -0.397805 1.341951 -0.77937 1.06066 -1.06066 
C 0.77937 -1.341951 0.397805 -1.5 0 -1.5 
C -0.397805 -1.5 -0.77937 -1.341951 -1.06066 -1.06066 
C -1.341951 -0.77937 -1.5 -0.397805 -1.5 0 
C -1.5 0.397805 -1.341951 0.77937 -1.06066 1.06066 
C -0.77937 1.341951 -0.397805 1.5 0 1.5 
z
" id="m50fc8d7ed4" style="stroke:#6495ed;"/>
    </defs>
    <g>
     <use style="fill:#6495ed;stroke:#6495ed;" x="341.424578" xlink:href="#m50fc8d7ed4" y="117.42767"/>
     <use style="fill:#6495ed;stroke:#6495ed;" x="341.424578" xlink:href="#m50fc8d7ed4" y="117.42767"/>
    </g>
   </g>
   <g id="line2d_39">
    <path d="M 51.169868 298.245375 
L 51.169868 297.212131 
L 129.016046 297.212131 
L 129.016046 296.178887 
L 130.126224 296.178887 
L 130.126224 294.629021 
L 130.551676 294.629021 
L 130.551676 291.012667 
L 131.770429 291.012667 
L 131.770429 289.462801 
L 131.96571 289.462801 
L 131.96571 288.429557 
L 132.349986 288.429557 
L 132.349986 287.396313 
L 132.726171 287.396313 
L 132.726171 285.329825 
L 132.911334 285.329825 
L 132.911334 281.713471 
L 143.041708 281.713471 
L 143.041708 280.680226 
L 143.858679 280.680226 
L 143.858679 280.163604 
L 144.350945 280.163604 
L 144.350945 279.13036 
L 145.296568 279.13036 
L 145.296568 277.063872 
L 152.72473 277.063872 
L 152.72473 276.54725 
L 155.322144 276.54725 
L 155.322144 276.030628 
L 156.243913 276.030628 
L 156.243913 275.514006 
L 157.955999 275.514006 
L 157.955999 274.997384 
L 158.091535 274.997384 
L 158.091535 274.480762 
L 159.225015 274.480762 
L 159.225015 273.96414 
L 161.069551 273.96414 
L 161.069551 273.447518 
L 163.050927 273.447518 
L 163.050927 271.897652 
L 164.741536 271.897652 
L 164.741536 271.38103 
L 165.291368 271.38103 
L 165.291368 270.864408 
L 167.575509 270.864408 
L 167.575509 269.314542 
L 168.802987 269.314542 
L 168.802987 268.79792 
L 169.951534 268.79792 
L 169.951534 267.764676 
L 171.589116 267.764676 
L 171.589116 267.248054 
L 172.151118 267.248054 
L 172.151118 266.731432 
L 172.616302 266.731432 
L 172.616302 265.698188 
L 173.378426 265.698188 
L 173.416646 264.664944 
L 181.188221 264.664944 
L 181.188221 263.6317 
L 183.372239 263.6317 
L 183.459507 262.081834 
L 184.921499 262.081834 
L 185.031457 258.46548 
L 187.555151 258.46548 
L 187.555151 257.432236 
L 187.693063 257.432236 
L 187.693063 256.915614 
L 188.751544 256.915614 
L 188.751544 255.88237 
L 189.426492 255.88237 
L 189.426492 255.365748 
L 189.64336 255.365748 
L 189.64336 254.849126 
L 192.835546 254.849126 
L 192.835546 253.815882 
L 193.154628 253.815882 
L 193.26183 252.782638 
L 195.258486 252.782638 
L 195.258486 251.749394 
L 195.724637 251.749394 
L 195.724637 250.71615 
L 197.291687 250.71615 
L 197.291687 250.199528 
L 198.723057 250.199528 
L 198.723057 249.682906 
L 199.661326 249.682906 
L 199.661326 249.166284 
L 202.220026 249.166284 
L 202.220026 248.649662 
L 202.700947 248.649662 
L 202.793384 247.616418 
L 203.398895 247.616418 
L 203.398895 247.099796 
L 203.629135 247.099796 
L 203.629135 246.583173 
L 204.09805 246.583173 
L 204.09805 246.066551 
L 208.617491 246.066551 
L 208.617491 245.549929 
L 209.136965 245.549929 
L 209.136965 245.033307 
L 209.906258 245.033307 
L 209.906258 244.516685 
L 211.278838 244.516685 
L 211.278838 243.483441 
L 211.778694 243.483441 
L 211.778694 242.966819 
L 212.355878 242.966819 
L 212.355878 240.383709 
L 212.649314 240.383709 
L 212.649314 239.867087 
L 212.83739 239.867087 
L 212.83739 239.350465 
L 213.31036 239.350465 
L 213.31036 238.833843 
L 213.644998 238.833843 
L 213.644998 238.317221 
L 214.500226 238.317221 
L 214.500226 236.767355 
L 214.888617 236.767355 
L 214.888617 234.184245 
L 216.142368 234.184245 
L 216.142368 233.151001 
L 216.684415 233.151001 
L 216.684415 232.634379 
L 217.182502 232.634379 
L 217.182502 232.117757 
L 217.578627 232.117757 
L 217.578627 230.051269 
L 218.784832 230.051269 
L 218.784832 228.501403 
L 219.313417 228.501403 
L 219.313417 226.434915 
L 219.530091 226.434915 
L 219.530091 223.851805 
L 220.642393 223.851805 
L 220.642393 223.335183 
L 221.100953 223.335183 
L 221.100953 222.301939 
L 221.62919 222.301939 
L 221.62919 220.235451 
L 221.899596 220.235451 
L 221.899596 218.685585 
L 222.901418 218.685585 
L 222.901418 217.135719 
L 223.588218 217.135719 
L 223.591673 215.585853 
L 226.901733 215.585853 
L 226.901733 214.552609 
L 227.770104 214.552609 
L 227.770104 214.035987 
L 227.963187 214.035987 
L 227.963187 213.519365 
L 228.204978 213.519365 
L 228.290166 210.936254 
L 228.535463 210.936254 
L 228.535463 210.419632 
L 228.689353 210.419632 
L 228.689353 209.386388 
L 229.380495 209.386388 
L 229.466074 207.836522 
L 229.844969 207.836522 
L 229.844969 206.803278 
L 230.008142 206.803278 
L 230.008142 205.770034 
L 230.319025 205.770034 
L 230.319025 205.253412 
L 230.49595 205.253412 
L 230.49595 203.186924 
L 232.275904 203.186924 
L 232.275904 201.637058 
L 234.145036 201.637058 
L 234.186453 199.053948 
L 235.623958 199.053948 
L 235.623958 198.020704 
L 236.061917 198.020704 
L 236.061917 196.98746 
L 236.611506 196.98746 
L 236.611506 196.470838 
L 236.813183 196.470838 
L 236.813183 194.40435 
L 237.542573 194.40435 
L 237.542573 192.854484 
L 238.40592 192.854484 
L 238.40592 192.337862 
L 240.008456 192.337862 
L 240.008456 191.304618 
L 240.328575 191.304618 
L 240.328575 190.787996 
L 240.623981 190.787996 
L 240.623981 189.754752 
L 241.348208 189.754752 
L 241.348208 189.23813 
L 242.569012 189.23813 
L 242.569012 186.65502 
L 243.062572 186.65502 
L 243.062572 184.588532 
L 245.114644 184.588532 
L 245.114644 184.07191 
L 245.566689 184.07191 
L 245.566689 183.555288 
L 246.526442 183.555288 
L 246.559909 182.005422 
L 246.928954 182.005422 
L 246.928954 181.4888 
L 247.666799 181.4888 
L 247.666799 178.90569 
L 249.402732 178.90569 
L 249.402732 177.872445 
L 249.54098 177.872445 
L 249.54098 177.355823 
L 252.199665 177.355823 
L 252.302945 173.739469 
L 252.326943 173.739469 
L 252.326943 173.222847 
L 253.535195 173.222847 
L 253.535195 171.672981 
L 253.978355 171.672981 
L 253.978355 171.156359 
L 254.398473 171.156359 
L 254.398473 170.639737 
L 254.987657 170.639737 
L 254.987657 169.606493 
L 255.320716 169.606493 
L 255.320716 168.573249 
L 256.10031 168.573249 
L 256.10031 166.506761 
L 256.649621 166.506761 
L 256.686516 164.956895 
L 257.4584 164.956895 
L 257.4584 164.440273 
L 258.860079 164.440273 
L 258.860079 163.923651 
L 260.304204 163.923651 
L 260.304204 161.857163 
L 260.768091 161.857163 
L 260.768091 161.340541 
L 263.574976 161.340541 
L 263.574976 160.823919 
L 264.005214 160.823919 
L 264.005214 160.307297 
L 264.443253 160.307297 
L 264.443253 159.790675 
L 265.316151 159.790675 
L 265.316151 159.274053 
L 266.38313 159.274053 
L 266.38313 158.757431 
L 266.933598 158.757431 
L 266.933598 158.240809 
L 267.257778 158.240809 
L 267.257778 157.724187 
L 268.445079 157.724187 
L 268.445079 157.207565 
L 269.12839 157.207565 
L 269.12839 156.690943 
L 269.380539 156.690943 
L 269.380539 154.107833 
L 270.53018 154.107833 
L 270.593673 151.524723 
L 271.270571 151.524723 
L 271.270571 147.908369 
L 271.926841 147.908369 
L 271.926841 146.875125 
L 272.207275 146.875125 
L 272.223866 143.775392 
L 273.74302 143.775392 
L 273.74302 142.225526 
L 275.272194 142.225526 
L 275.272194 141.708904 
L 275.980963 141.708904 
L 275.980963 141.192282 
L 276.828136 141.192282 
L 276.828136 140.67566 
L 278.978547 140.67566 
L 278.978547 140.159038 
L 279.324177 140.159038 
L 279.324177 139.642416 
L 280.508158 139.642416 
L 280.508158 139.125794 
L 280.833868 139.125794 
L 280.833868 138.609172 
L 281.128923 138.609172 
L 281.128923 138.09255 
L 281.304164 138.09255 
L 281.304164 137.575928 
L 281.916692 137.575928 
L 281.916692 137.059306 
L 282.298851 137.059306 
L 282.298851 136.542684 
L 283.216449 136.542684 
L 283.320561 135.50944 
L 284.600807 135.50944 
L 284.600807 134.992818 
L 284.934761 134.992818 
L 284.934761 134.476196 
L 285.390508 134.476196 
L 285.390508 133.959574 
L 286.024564 133.959574 
L 286.024564 133.442952 
L 289.59737 133.442952 
L 289.59737 132.92633 
L 289.717339 132.92633 
L 289.717339 132.409708 
L 291.122359 132.409708 
L 291.21662 131.376464 
L 291.402473 131.376464 
L 291.402473 130.859842 
L 294.357766 130.859842 
L 294.357766 130.34322 
L 298.25159 130.34322 
L 298.25159 129.826598 
L 298.46986 129.826598 
L 298.46986 129.309976 
L 298.673368 129.309976 
L 298.673368 128.793354 
L 299.098702 128.793354 
L 299.098702 128.276732 
L 300.245848 128.276732 
L 300.245848 127.76011 
L 303.507449 127.76011 
L 303.507449 127.243488 
L 305.242927 127.243488 
L 305.242927 126.726866 
L 308.231066 126.726866 
L 308.231066 126.210244 
L 308.826805 126.210244 
L 308.826805 125.693622 
L 313.34045 125.693622 
L 313.34045 125.177 
L 314.683182 125.177 
L 314.683182 124.660378 
L 315.512007 124.660378 
L 315.512007 124.143756 
L 315.878286 124.143756 
L 315.878286 123.627134 
L 316.173122 123.627134 
L 316.173122 123.110512 
L 316.79284 123.110512 
L 316.79284 122.59389 
L 318.303793 122.59389 
L 318.303793 122.077268 
L 318.750321 122.077268 
L 318.750321 121.560646 
L 320.927488 121.560646 
L 320.927488 121.044024 
L 321.79459 121.044024 
L 321.79459 120.527402 
L 325.218836 120.527402 
L 325.218836 120.01078 
L 326.163346 120.01078 
L 326.163346 119.494158 
L 332.378704 119.494158 
L 332.378704 118.977536 
L 337.740759 118.977536 
L 337.740759 118.460914 
L 338.825548 118.460914 
L 338.825548 117.944292 
L 341.424578 117.944292 
L 341.424578 117.42767 
L 358.8 117.42767 
L 358.8 117.42767 
" style="fill:none;stroke:#6495ed;stroke-linecap:square;stroke-width:1.5;"/>
   </g>
   <g id="line2d_40">
    <defs>
     <path d="M -0 6 
L 6 -6 
L -6 -6 
z
" id="m7f955c739c" style="stroke:#6495ed;stroke-linejoin:miter;stroke-width:1.5;"/>
    </defs>
    <g>
     <use style="fill:none;stroke:#6495ed;stroke-linejoin:miter;stroke-width:1.5;" x="163.050927" xlink:href="#m7f955c739c" y="273.447518"/>
     <use style="fill:none;stroke:#6495ed;stroke-linejoin:miter;stroke-width:1.5;" x="230.008142" xlink:href="#m7f955c739c" y="205.770034"/>
     <use style="fill:none;stroke:#6495ed;stroke-linejoin:miter;stroke-width:1.5;" x="260.768091" xlink:href="#m7f955c739c" y="161.340541"/>
     <use style="fill:none;stroke:#6495ed;stroke-linejoin:miter;stroke-width:1.5;" x="337.740759" xlink:href="#m7f955c739c" y="118.977536"/>
     <use style="fill:none;stroke:#6495ed;stroke-linejoin:miter;stroke-width:1.5;" x="341.424578" xlink:href="#m7f955c739c" y="117.42767"/>
     <use style="fill:none;stroke:#6495ed;stroke-linejoin:miter;stroke-width:1.5;" x="358.8" xlink:href="#m7f955c739c" y="117.42767"/>
    </g>
   </g>
   <g id="line2d_41"/>
   <g id="line2d_42">
    <path clip-path="url(#pce92daf793)" d="M 270.593673 151.524723 
" style="fill:none;stroke:#6495ed;stroke-linecap:square;stroke-width:1.5;"/>
    <defs>
     <path d="M -12 12 
L 12 -12 
M -12 -12 
L 12 12 
" id="mb2778e7c42" style="stroke:#6495ed;stroke-width:3;"/>
    </defs>
    <g clip-path="url(#pce92daf793)">
     <use style="fill:#6495ed;stroke:#6495ed;stroke-width:3;" x="270.593673" xlink:href="#mb2778e7c42" y="151.524723"/>
    </g>
   </g>
   <g id="line2d_43">
    <defs>
     <path d="M 0 1.5 
C 0.397805 1.5 0.77937 1.341951 1.06066 1.06066 
C 1.341951 0.77937 1.5 0.397805 1.5 0 
C 1.5 -0.397805 1.341951 -0.77937 1.06066 -1.06066 
C 0.77937 -1.341951 0.397805 -1.5 0 -1.5 
C -0.397805 -1.5 -0.77937 -1.341951 -1.06066 -1.06066 
C -1.341951 -0.77937 -1.5 -0.397805 -1.5 0 
C -1.5 0.397805 -1.341951 0.77937 -1.06066 1.06066 
C -0.77937 1.341951 -0.397805 1.5 0 1.5 
z
" id="md6525e3b98" style="stroke:#ff0000;"/>
    </defs>
    <g>
     <use style="fill:#ff0000;stroke:#ff0000;" x="194.12104" xlink:href="#md6525e3b98" y="34.768147"/>
     <use style="fill:#ff0000;stroke:#ff0000;" x="194.12104" xlink:href="#md6525e3b98" y="34.768147"/>
    </g>
   </g>
   <g id="line2d_44">
    <path d="M 51.169868 298.245375 
L 51.169868 291.012667 
L 130.126224 291.012667 
L 130.126224 290.496045 
L 130.760662 290.496045 
L 130.760662 289.979423 
L 131.171441 289.979423 
L 131.171441 287.396313 
L 131.96571 287.396313 
L 131.96571 286.363069 
L 132.158881 286.363069 
L 132.158881 282.230093 
L 132.349986 282.230093 
L 132.349986 278.613738 
L 132.539068 278.613738 
L 132.539068 277.580494 
L 132.726171 277.580494 
L 132.726171 275.514006 
L 133.094598 275.514006 
L 133.094598 273.96414 
L 133.455583 273.96414 
L 133.455583 269.314542 
L 142.294872 269.314542 
L 142.294872 268.79792 
L 143.958223 268.79792 
L 143.958223 267.764676 
L 145.479832 267.764676 
L 145.479832 267.248054 
L 150.733762 267.248054 
L 150.733762 266.731432 
L 151.40056 266.731432 
L 151.40056 266.21481 
L 152.66385 266.21481 
L 152.66385 265.698188 
L 152.785403 265.698188 
L 152.785403 265.181566 
L 155.057426 265.181566 
L 155.057426 264.664944 
L 156.343457 264.664944 
L 156.343457 262.081834 
L 156.687558 262.081834 
L 156.687558 261.565212 
L 156.929349 261.565212 
L 156.929349 260.531968 
L 157.635691 260.531968 
L 157.727795 259.498724 
L 160.567279 259.498724 
L 160.567279 258.46548 
L 160.839486 258.46548 
L 160.839486 257.948858 
L 161.925004 257.948858 
L 161.925004 257.432236 
L 163.422138 257.432236 
L 163.422138 256.398992 
L 164.301877 256.398992 
L 164.301877 255.88237 
L 164.865192 255.88237 
L 164.865192 254.849126 
L 165.018567 254.849126 
L 165.018567 254.332504 
L 166.983439 254.332504 
L 166.983439 253.29926 
L 168.629147 253.29926 
L 168.629147 252.782638 
L 170.113029 252.782638 
L 170.113029 250.199528 
L 171.030692 250.199528 
L 171.030692 249.166284 
L 171.440479 249.166284 
L 171.440479 248.13304 
L 173.850405 248.13304 
L 173.850405 247.616418 
L 174.364631 247.616418 
L 174.364631 247.099796 
L 175.957036 247.099796 
L 175.957036 245.033307 
L 176.138273 245.033307 
L 176.138273 244.516685 
L 176.511384 244.516685 
L 176.511384 244.000063 
L 176.970988 244.000063 
L 177.080178 241.416953 
L 177.691636 241.416953 
L 177.691636 240.900331 
L 178.36988 240.900331 
L 178.36988 226.951537 
L 178.826963 226.951537 
L 178.855147 213.002743 
L 179.70748 213.002743 
L 179.70748 211.969498 
L 180.079469 211.969498 
L 180.079469 198.537326 
L 180.674266 198.537326 
L 180.674266 198.020704 
L 180.838833 198.020704 
L 180.838833 197.504082 
L 181.225253 197.504082 
L 181.225253 188.721508 
L 181.627623 188.721508 
L 181.735806 168.573249 
L 182.635535 168.573249 
L 182.715126 165.990139 
L 182.873252 165.990139 
L 182.873252 157.207565 
L 183.578809 157.207565 
L 183.578809 142.742148 
L 183.921407 142.742148 
L 183.921407 132.92633 
L 184.226313 132.92633 
L 184.226313 117.944292 
L 185.001536 117.944292 
L 185.001536 117.42767 
L 185.170432 117.42767 
L 185.170432 114.327938 
L 185.590648 114.327938 
L 185.590648 112.778072 
L 186.938948 112.778072 
L 186.938948 111.744828 
L 187.606992 111.744828 
L 187.606992 110.711584 
L 187.965733 110.711584 
L 187.965733 98.312655 
L 188.433119 98.312655 
L 188.433119 96.762789 
L 189.191176 96.762789 
L 189.191176 84.363861 
L 189.604826 84.363861 
L 189.604826 83.847239 
L 190.870486 83.847239 
L 190.870486 82.813995 
L 191.08482 82.813995 
L 191.08482 68.8652 
L 191.856226 68.8652 
L 191.856226 67.831956 
L 192.628302 67.831956 
L 192.628302 59.566004 
L 193.12931 59.566004 
L 193.12931 46.650454 
L 194.12104 46.650454 
L 194.12104 34.768147 
L 358.8 34.768147 
L 358.8 34.768147 
" style="fill:none;stroke:#ff0000;stroke-linecap:square;stroke-width:1.5;"/>
   </g>
   <g id="line2d_45">
    <defs>
     <path d="M 0 -6 
L -5.196152 -3 
L -5.196152 3 
L -0 6 
L 5.196152 3 
L 5.196152 -3 
z
" id="m593aa6e283" style="stroke:#ff0000;stroke-linejoin:miter;stroke-width:1.5;"/>
    </defs>
    <g>
     <use style="fill:none;stroke:#ff0000;stroke-linejoin:miter;stroke-width:1.5;" x="155.057426" xlink:href="#m593aa6e283" y="264.664944"/>
     <use style="fill:none;stroke:#ff0000;stroke-linejoin:miter;stroke-width:1.5;" x="180.079469" xlink:href="#m593aa6e283" y="211.969498"/>
     <use style="fill:none;stroke:#ff0000;stroke-linejoin:miter;stroke-width:1.5;" x="193.12931" xlink:href="#m593aa6e283" y="46.650454"/>
     <use style="fill:none;stroke:#ff0000;stroke-linejoin:miter;stroke-width:1.5;" x="194.12104" xlink:href="#m593aa6e283" y="34.768147"/>
     <use style="fill:none;stroke:#ff0000;stroke-linejoin:miter;stroke-width:1.5;" x="194.12104" xlink:href="#m593aa6e283" y="34.768147"/>
     <use style="fill:none;stroke:#ff0000;stroke-linejoin:miter;stroke-width:1.5;" x="358.8" xlink:href="#m593aa6e283" y="34.768147"/>
    </g>
   </g>
   <g id="line2d_46"/>
   <g id="line2d_47">
    <path d="M 358.8 138.09255 
L 390.48 292.97583 
" style="fill:none;stroke:#ff00ff;stroke-linecap:square;stroke-width:1.5;"/>
    <g>
     <use style="fill:none;stroke:#ff00ff;stroke-linejoin:miter;stroke-width:1.5;" x="358.8" xlink:href="#mfc3572a2f8" y="138.09255"/>
     <use style="fill:none;stroke:#ff00ff;stroke-linejoin:miter;stroke-width:1.5;" x="390.48" xlink:href="#mfc3572a2f8" y="292.97583"/>
    </g>
   </g>
   <g id="line2d_48">
    <path d="M 358.8 117.42767 
L 390.48 229.741296 
" style="fill:none;stroke:#6495ed;stroke-linecap:square;stroke-width:1.5;"/>
    <g>
     <use style="fill:none;stroke:#6495ed;stroke-linejoin:miter;stroke-width:1.5;" x="358.8" xlink:href="#m7f955c739c" y="117.42767"/>
     <use style="fill:none;stroke:#6495ed;stroke-linejoin:miter;stroke-width:1.5;" x="390.48" xlink:href="#m7f955c739c" y="229.741296"/>
    </g>
   </g>
   <g id="line2d_49">
    <path d="M 358.8 112.26145 
L 390.48 166.506761 
" style="fill:none;stroke:#ffa500;stroke-linecap:square;stroke-width:1.5;"/>
    <g>
     <use style="fill:none;stroke:#ffa500;stroke-linejoin:bevel;stroke-width:1.5;" x="358.8" xlink:href="#mae587f9a0d" y="112.26145"/>
     <use style="fill:none;stroke:#ffa500;stroke-linejoin:bevel;stroke-width:1.5;" x="390.48" xlink:href="#mae587f9a0d" y="166.506761"/>
    </g>
   </g>
   <g id="line2d_50">
    <path d="M 358.8 34.768147 
L 390.48 103.272226 
" style="fill:none;stroke:#000080;stroke-linecap:square;stroke-width:1.5;"/>
    <g>
     <use style="fill:none;stroke:#000080;stroke-width:1.5;" x="358.8" xlink:href="#m02d590bc6c" y="34.768147"/>
     <use style="fill:none;stroke:#000080;stroke-width:1.5;" x="390.48" xlink:href="#m02d590bc6c" y="103.272226"/>
    </g>
   </g>
   <g id="line2d_51">
    <path d="M 358.8 34.768147 
L 390.48 40.037692 
" style="fill:none;stroke:#ff0000;stroke-linecap:square;stroke-width:1.5;"/>
    <g>
     <use style="fill:none;stroke:#ff0000;stroke-linejoin:miter;stroke-width:1.5;" x="358.8" xlink:href="#m593aa6e283" y="34.768147"/>
     <use style="fill:none;stroke:#ff0000;stroke-linejoin:miter;stroke-width:1.5;" x="390.48" xlink:href="#m593aa6e283" y="40.037692"/>
    </g>
   </g>
   <g id="line2d_52">
    <path d="M 358.8 298.245375 
L 358.8 34.768147 
" style="fill:none;stroke:#000000;stroke-linecap:square;stroke-width:1.5;"/>
   </g>
   <g id="patch_3">
    <path d="M 70.8 298.245375 
L 70.8 32.133375 
" style="fill:none;stroke:#000000;stroke-linecap:square;stroke-linejoin:miter;stroke-width:0.8;"/>
   </g>
   <g id="patch_4">
    <path d="M 427.92 298.245375 
L 427.92 32.133375 
" style="fill:none;stroke:#000000;stroke-linecap:square;stroke-linejoin:miter;stroke-width:0.8;"/>
   </g>
   <g id="patch_5">
    <path d="M 70.8 298.245375 
L 427.92 298.245375 
" style="fill:none;stroke:#000000;stroke-linecap:square;stroke-linejoin:miter;stroke-width:0.8;"/>
   </g>
   <g id="patch_6">
    <path d="M 70.8 32.133375 
L 427.92 32.133375 
" style="fill:none;stroke:#000000;stroke-linecap:square;stroke-linejoin:miter;stroke-width:0.8;"/>
   </g>
   <g id="text_14">
    <!-- f2 -->
    <g transform="translate(396.24 297.114893)scale(0.15 -0.15)">
     <use xlink:href="#DejaVuSans-66"/>
     <use x="35.205078" xlink:href="#DejaVuSans-32"/>
    </g>
   </g>
   <g id="text_15">
    <!-- f4 -->
    <g transform="translate(396.24 233.880358)scale(0.15 -0.15)">
     <use xlink:href="#DejaVuSans-66"/>
     <use x="35.205078" xlink:href="#DejaVuSans-34"/>
    </g>
   </g>
   <g id="text_16">
    <!-- f3 -->
    <defs>
     <path d="M 40.578125 39.3125 
Q 47.65625 37.796875 51.625 33 
Q 55.609375 28.21875 55.609375 21.1875 
Q 55.609375 10.40625 48.1875 4.484375 
Q 40.765625 -1.421875 27.09375 -1.421875 
Q 22.515625 -1.421875 17.65625 -0.515625 
Q 12.796875 0.390625 7.625 2.203125 
L 7.625 11.71875 
Q 11.71875 9.328125 16.59375 8.109375 
Q 21.484375 6.890625 26.8125 6.890625 
Q 36.078125 6.890625 40.9375 10.546875 
Q 45.796875 14.203125 45.796875 21.1875 
Q 45.796875 27.640625 41.28125 31.265625 
Q 36.765625 34.90625 28.71875 34.90625 
L 20.21875 34.90625 
L 20.21875 43.015625 
L 29.109375 43.015625 
Q 36.375 43.015625 40.234375 45.921875 
Q 44.09375 48.828125 44.09375 54.296875 
Q 44.09375 59.90625 40.109375 62.90625 
Q 36.140625 65.921875 28.71875 65.921875 
Q 24.65625 65.921875 20.015625 65.03125 
Q 15.375 64.15625 9.8125 62.3125 
L 9.8125 71.09375 
Q 15.4375 72.65625 20.34375 73.4375 
Q 25.25 74.21875 29.59375 74.21875 
Q 40.828125 74.21875 47.359375 69.109375 
Q 53.90625 64.015625 53.90625 55.328125 
Q 53.90625 49.265625 50.4375 45.09375 
Q 46.96875 40.921875 40.578125 39.3125 
z
" id="DejaVuSans-33"/>
    </defs>
    <g transform="translate(396.24 170.645824)scale(0.15 -0.15)">
     <use xlink:href="#DejaVuSans-66"/>
     <use x="35.205078" xlink:href="#DejaVuSans-33"/>
    </g>
   </g>
   <g id="text_17">
    <!-- f1 -->
    <g transform="translate(396.24 107.411289)scale(0.15 -0.15)">
     <use xlink:href="#DejaVuSans-66"/>
     <use x="35.205078" xlink:href="#DejaVuSans-31"/>
    </g>
   </g>
   <g id="text_18">
    <!-- f5 -->
    <defs>
     <path d="M 10.796875 72.90625 
L 49.515625 72.90625 
L 49.515625 64.59375 
L 19.828125 64.59375 
L 19.828125 46.734375 
Q 21.96875 47.46875 24.109375 47.828125 
Q 26.265625 48.1875 28.421875 48.1875 
Q 40.625 48.1875 47.75 41.5 
Q 54.890625 34.8125 54.890625 23.390625 
Q 54.890625 11.625 47.5625 5.09375 
Q 40.234375 -1.421875 26.90625 -1.421875 
Q 22.3125 -1.421875 17.546875 -0.640625 
Q 12.796875 0.140625 7.71875 1.703125 
L 7.71875 11.625 
Q 12.109375 9.234375 16.796875 8.0625 
Q 21.484375 6.890625 26.703125 6.890625 
Q 35.15625 6.890625 40.078125 11.328125 
Q 45.015625 15.765625 45.015625 23.390625 
Q 45.015625 31 40.078125 35.4375 
Q 35.15625 39.890625 26.703125 39.890625 
Q 22.75 39.890625 18.8125 39.015625 
Q 14.890625 38.140625 10.796875 36.28125 
z
" id="DejaVuSans-35"/>
    </defs>
    <g transform="translate(396.24 44.176754)scale(0.15 -0.15)">
     <use xlink:href="#DejaVuSans-66"/>
     <use x="35.205078" xlink:href="#DejaVuSans-35"/>
    </g>
   </g>
   <g id="text_19">
    <!-- bbob -->
    <defs>
     <path d="M 48.6875 27.296875 
Q 48.6875 37.203125 44.609375 42.84375 
Q 40.53125 48.484375 33.40625 48.484375 
Q 26.265625 48.484375 22.1875 42.84375 
Q 18.109375 37.203125 18.109375 27.296875 
Q 18.109375 17.390625 22.1875 11.75 
Q 26.265625 6.109375 33.40625 6.109375 
Q 40.53125 6.109375 44.609375 11.75 
Q 48.6875 17.390625 48.6875 27.296875 
z
M 18.109375 46.390625 
Q 20.953125 51.265625 25.265625 53.625 
Q 29.59375 56 35.59375 56 
Q 45.5625 56 51.78125 48.09375 
Q 58.015625 40.1875 58.015625 27.296875 
Q 58.015625 14.40625 51.78125 6.484375 
Q 45.5625 -1.421875 35.59375 -1.421875 
Q 29.59375 -1.421875 25.265625 0.953125 
Q 20.953125 3.328125 18.109375 8.203125 
L 18.109375 0 
L 9.078125 0 
L 9.078125 75.984375 
L 18.109375 75.984375 
z
" id="DejaVuSans-62"/>
    </defs>
    <g transform="translate(74.3712 50.114612)scale(0.1666 -0.1666)">
     <use xlink:href="#DejaVuSans-62"/>
     <use x="63.476562" xlink:href="#DejaVuSans-62"/>
     <use x="126.953125" xlink:href="#DejaVuSans-6f"/>
     <use x="188.134766" xlink:href="#DejaVuSans-62"/>
    </g>
    <!-- Separable functions, 3-D -->
    <defs>
     <path d="M 53.515625 70.515625 
L 53.515625 60.890625 
Q 47.90625 63.578125 42.921875 64.890625 
Q 37.9375 66.21875 33.296875 66.21875 
Q 25.25 66.21875 20.875 63.09375 
Q 16.5 59.96875 16.5 54.203125 
Q 16.5 49.359375 19.40625 46.890625 
Q 22.3125 44.4375 30.421875 42.921875 
L 36.375 41.703125 
Q 47.40625 39.59375 52.65625 34.296875 
Q 57.90625 29 57.90625 20.125 
Q 57.90625 9.515625 50.796875 4.046875 
Q 43.703125 -1.421875 29.984375 -1.421875 
Q 24.8125 -1.421875 18.96875 -0.25 
Q 13.140625 0.921875 6.890625 3.21875 
L 6.890625 13.375 
Q 12.890625 10.015625 18.65625 8.296875 
Q 24.421875 6.59375 29.984375 6.59375 
Q 38.421875 6.59375 43.015625 9.90625 
Q 47.609375 13.234375 47.609375 19.390625 
Q 47.609375 24.75 44.3125 27.78125 
Q 41.015625 30.8125 33.5 32.328125 
L 27.484375 33.5 
Q 16.453125 35.6875 11.515625 40.375 
Q 6.59375 45.0625 6.59375 53.421875 
Q 6.59375 63.09375 13.40625 68.65625 
Q 20.21875 74.21875 32.171875 74.21875 
Q 37.3125 74.21875 42.625 73.28125 
Q 47.953125 72.359375 53.515625 70.515625 
z
" id="DejaVuSans-53"/>
     <path d="M 11.71875 12.40625 
L 22.015625 12.40625 
L 22.015625 4 
L 14.015625 -11.625 
L 7.71875 -11.625 
L 11.71875 4 
z
" id="DejaVuSans-2c"/>
     <path d="M 19.671875 64.796875 
L 19.671875 8.109375 
L 31.59375 8.109375 
Q 46.6875 8.109375 53.6875 14.9375 
Q 60.6875 21.78125 60.6875 36.53125 
Q 60.6875 51.171875 53.6875 57.984375 
Q 46.6875 64.796875 31.59375 64.796875 
z
M 9.8125 72.90625 
L 30.078125 72.90625 
Q 51.265625 72.90625 61.171875 64.09375 
Q 71.09375 55.28125 71.09375 36.53125 
Q 71.09375 17.671875 61.125 8.828125 
Q 51.171875 0 30.078125 0 
L 9.8125 0 
z
" id="DejaVuSans-44"/>
    </defs>
    <g transform="translate(74.3712 68.770168)scale(0.1666 -0.1666)">
     <use xlink:href="#DejaVuSans-53"/>
     <use x="63.476562" xlink:href="#DejaVuSans-65"/>
     <use x="125" xlink:href="#DejaVuSans-70"/>
     <use x="188.476562" xlink:href="#DejaVuSans-61"/>
     <use x="249.755859" xlink:href="#DejaVuSans-72"/>
     <use x="290.869141" xlink:href="#DejaVuSans-61"/>
     <use x="352.148438" xlink:href="#DejaVuSans-62"/>
     <use x="415.625" xlink:href="#DejaVuSans-6c"/>
     <use x="443.408203" xlink:href="#DejaVuSans-65"/>
     <use x="504.931641" xlink:href="#DejaVuSans-20"/>
     <use x="536.71875" xlink:href="#DejaVuSans-66"/>
     <use x="571.923828" xlink:href="#DejaVuSans-75"/>
     <use x="635.302734" xlink:href="#DejaVuSans-6e"/>
     <use x="698.681641" xlink:href="#DejaVuSans-63"/>
     <use x="753.662109" xlink:href="#DejaVuSans-74"/>
     <use x="792.871094" xlink:href="#DejaVuSans-69"/>
     <use x="820.654297" xlink:href="#DejaVuSans-6f"/>
     <use x="881.835938" xlink:href="#DejaVuSans-6e"/>
     <use x="945.214844" xlink:href="#DejaVuSans-73"/>
     <use x="997.314453" xlink:href="#DejaVuSans-2c"/>
     <use x="1029.101562" xlink:href="#DejaVuSans-20"/>
     <use x="1060.888672" xlink:href="#DejaVuSans-33"/>
     <use x="1124.511719" xlink:href="#DejaVuSans-2d"/>
     <use x="1160.595703" xlink:href="#DejaVuSans-44"/>
    </g>
    <!-- 51 targets in 100..1e-08 -->
    <g transform="translate(74.3712 87.425723)scale(0.1666 -0.1666)">
     <use xlink:href="#DejaVuSans-35"/>
     <use x="63.623047" xlink:href="#DejaVuSans-31"/>
     <use x="127.246094" xlink:href="#DejaVuSans-20"/>
     <use x="159.033203" xlink:href="#DejaVuSans-74"/>
     <use x="198.242188" xlink:href="#DejaVuSans-61"/>
     <use x="259.521484" xlink:href="#DejaVuSans-72"/>
     <use x="300.619141" xlink:href="#DejaVuSans-67"/>
     <use x="364.095703" xlink:href="#DejaVuSans-65"/>
     <use x="425.619141" xlink:href="#DejaVuSans-74"/>
     <use x="464.828125" xlink:href="#DejaVuSans-73"/>
     <use x="516.927734" xlink:href="#DejaVuSans-20"/>
     <use x="548.714844" xlink:href="#DejaVuSans-69"/>
     <use x="576.498047" xlink:href="#DejaVuSans-6e"/>
     <use x="639.876953" xlink:href="#DejaVuSans-20"/>
     <use x="671.664062" xlink:href="#DejaVuSans-31"/>
     <use x="735.287109" xlink:href="#DejaVuSans-30"/>
     <use x="798.910156" xlink:href="#DejaVuSans-30"/>
     <use x="862.533203" xlink:href="#DejaVuSans-2e"/>
     <use x="894.320312" xlink:href="#DejaVuSans-2e"/>
     <use x="926.107422" xlink:href="#DejaVuSans-31"/>
     <use x="989.730469" xlink:href="#DejaVuSans-65"/>
     <use x="1051.253906" xlink:href="#DejaVuSans-2d"/>
     <use x="1087.337891" xlink:href="#DejaVuSans-30"/>
     <use x="1150.960938" xlink:href="#DejaVuSans-38"/>
    </g>
    <!-- 15 instances -->
    <g transform="translate(74.3712 106.081279)scale(0.1666 -0.1666)">
     <use xlink:href="#DejaVuSans-31"/>
     <use x="63.623047" xlink:href="#DejaVuSans-35"/>
     <use x="127.246094" xlink:href="#DejaVuSans-20"/>
     <use x="159.033203" xlink:href="#DejaVuSans-69"/>
     <use x="186.816406" xlink:href="#DejaVuSans-6e"/>
     <use x="250.195312" xlink:href="#DejaVuSans-73"/>
     <use x="302.294922" xlink:href="#DejaVuSans-74"/>
     <use x="341.503906" xlink:href="#DejaVuSans-61"/>
     <use x="402.783203" xlink:href="#DejaVuSans-6e"/>
     <use x="466.162109" xlink:href="#DejaVuSans-63"/>
     <use x="521.142578" xlink:href="#DejaVuSans-65"/>
     <use x="582.666016" xlink:href="#DejaVuSans-73"/>
    </g>
   </g>
   <g id="text_20">
    <!-- v0.0.0 -->
    <g style="fill:#808080;" transform="translate(233.67875 293.504568)scale(0.1 -0.1)">
     <use xlink:href="#DejaVuSans-76"/>
     <use x="59.179688" xlink:href="#DejaVuSans-30"/>
     <use x="122.802734" xlink:href="#DejaVuSans-2e"/>
     <use x="154.589844" xlink:href="#DejaVuSans-30"/>
     <use x="218.212891" xlink:href="#DejaVuSans-2e"/>
     <use x="250" xlink:href="#DejaVuSans-30"/>
    </g>
   </g>
  </g>
 </g>
 <defs>
  <clipPath id="pce92daf793">
   <rect height="266.112" width="357.12" x="70.8" y="32.133375"/>
  </clipPath>
 </defs>
</svg>
