<?xml version="1.0" encoding="utf-8" standalone="no"?>
<!DOCTYPE svg PUBLIC "-//W3C//DTD SVG 1.1//EN"
  "http://www.w3.org/Graphics/SVG/1.1/DTD/svg11.dtd">
<!-- Created with matplotlib (http://matplotlib.org/) -->
<svg height="353pt" version="1.1" viewBox="0 0 439 353" width="439pt" xmlns="http://www.w3.org/2000/svg" xmlns:xlink="http://www.w3.org/1999/xlink">
 <defs>
  <style type="text/css">
*{stroke-linecap:butt;stroke-linejoin:round;}
  </style>
 </defs>
 <g id="figure_1">
  <g id="patch_1">
   <path d="M 0 353.22225 
L 439.489219 353.22225 
L 439.489219 0 
L 0 0 
z
" style="fill:#ffffff;"/>
  </g>
  <g id="axes_1">
   <g id="patch_2">
    <path d="M 70.8 298.245375 
L 427.92 298.245375 
L 427.92 32.133375 
L 70.8 32.133375 
z
" style="fill:#ffffff;"/>
   </g>
   <g id="matplotlib.axis_1">
    <g id="xtick_1">
     <g id="line2d_1">
      <path clip-path="url(#pa25bccdf7b)" d="M 70.8 298.245375 
L 70.8 32.133375 
" style="fill:none;stroke:#b0b0b0;stroke-linecap:square;stroke-width:0.8;"/>
     </g>
     <g id="line2d_2">
      <defs>
       <path d="M 0 0 
L 0 3.5 
" id="mada3d1f32f" style="stroke:#000000;stroke-width:0.8;"/>
      </defs>
      <g>
       <use style="stroke:#000000;stroke-width:0.8;" x="70.8" xlink:href="#mada3d1f32f" y="298.245375"/>
      </g>
     </g>
     <g id="text_1">
      <!-- 0 -->
      <defs>
       <path d="M 31.78125 66.40625 
Q 24.171875 66.40625 20.328125 58.90625 
Q 16.5 51.421875 16.5 36.375 
Q 16.5 21.390625 20.328125 13.890625 
Q 24.171875 6.390625 31.78125 6.390625 
Q 39.453125 6.390625 43.28125 13.890625 
Q 47.125 21.390625 47.125 36.375 
Q 47.125 51.421875 43.28125 58.90625 
Q 39.453125 66.40625 31.78125 66.40625 
z
M 31.78125 74.21875 
Q 44.046875 74.21875 50.515625 64.515625 
Q 56.984375 54.828125 56.984375 36.375 
Q 56.984375 17.96875 50.515625 8.265625 
Q 44.046875 -1.421875 31.78125 -1.421875 
Q 19.53125 -1.421875 13.0625 8.265625 
Q 6.59375 17.96875 6.59375 36.375 
Q 6.59375 54.828125 13.0625 64.515625 
Q 19.53125 74.21875 31.78125 74.21875 
z
" id="DejaVuSans-30"/>
      </defs>
      <g transform="translate(64.4375 320.44225)scale(0.2 -0.2)">
       <use xlink:href="#DejaVuSans-30"/>
      </g>
     </g>
    </g>
    <g id="xtick_2">
     <g id="line2d_3">
      <path clip-path="url(#pa25bccdf7b)" d="M 153.085714 298.245375 
L 153.085714 32.133375 
" style="fill:none;stroke:#b0b0b0;stroke-linecap:square;stroke-width:0.8;"/>
     </g>
     <g id="line2d_4">
      <g>
       <use style="stroke:#000000;stroke-width:0.8;" x="153.085714" xlink:href="#mada3d1f32f" y="298.245375"/>
      </g>
     </g>
     <g id="text_2">
      <!-- 2 -->
      <defs>
       <path d="M 19.1875 8.296875 
L 53.609375 8.296875 
L 53.609375 0 
L 7.328125 0 
L 7.328125 8.296875 
Q 12.9375 14.109375 22.625 23.890625 
Q 32.328125 33.6875 34.8125 36.53125 
Q 39.546875 41.84375 41.421875 45.53125 
Q 43.3125 49.21875 43.3125 52.78125 
Q 43.3125 58.59375 39.234375 62.25 
Q 35.15625 65.921875 28.609375 65.921875 
Q 23.96875 65.921875 18.8125 64.3125 
Q 13.671875 62.703125 7.8125 59.421875 
L 7.8125 69.390625 
Q 13.765625 71.78125 18.9375 73 
Q 24.125 74.21875 28.421875 74.21875 
Q 39.75 74.21875 46.484375 68.546875 
Q 53.21875 62.890625 53.21875 53.421875 
Q 53.21875 48.921875 51.53125 44.890625 
Q 49.859375 40.875 45.40625 35.40625 
Q 44.1875 33.984375 37.640625 27.21875 
Q 31.109375 20.453125 19.1875 8.296875 
z
" id="DejaVuSans-32"/>
      </defs>
      <g transform="translate(146.723214 320.44225)scale(0.2 -0.2)">
       <use xlink:href="#DejaVuSans-32"/>
      </g>
     </g>
    </g>
    <g id="xtick_3">
     <g id="line2d_5">
      <path clip-path="url(#pa25bccdf7b)" d="M 235.371429 298.245375 
L 235.371429 32.133375 
" style="fill:none;stroke:#b0b0b0;stroke-linecap:square;stroke-width:0.8;"/>
     </g>
     <g id="line2d_6">
      <g>
       <use style="stroke:#000000;stroke-width:0.8;" x="235.371429" xlink:href="#mada3d1f32f" y="298.245375"/>
      </g>
     </g>
     <g id="text_3">
      <!-- 4 -->
      <defs>
       <path d="M 37.796875 64.3125 
L 12.890625 25.390625 
L 37.796875 25.390625 
z
M 35.203125 72.90625 
L 47.609375 72.90625 
L 47.609375 25.390625 
L 58.015625 25.390625 
L 58.015625 17.1875 
L 47.609375 17.1875 
L 47.609375 0 
L 37.796875 0 
L 37.796875 17.1875 
L 4.890625 17.1875 
L 4.890625 26.703125 
z
" id="DejaVuSans-34"/>
      </defs>
      <g transform="translate(229.008929 320.44225)scale(0.2 -0.2)">
       <use xlink:href="#DejaVuSans-34"/>
      </g>
     </g>
    </g>
    <g id="xtick_4">
     <g id="line2d_7">
      <path clip-path="url(#pa25bccdf7b)" d="M 317.657143 298.245375 
L 317.657143 32.133375 
" style="fill:none;stroke:#b0b0b0;stroke-linecap:square;stroke-width:0.8;"/>
     </g>
     <g id="line2d_8">
      <g>
       <use style="stroke:#000000;stroke-width:0.8;" x="317.657143" xlink:href="#mada3d1f32f" y="298.245375"/>
      </g>
     </g>
     <g id="text_4">
      <!-- 6 -->
      <defs>
       <path d="M 33.015625 40.375 
Q 26.375 40.375 22.484375 35.828125 
Q 18.609375 31.296875 18.609375 23.390625 
Q 18.609375 15.53125 22.484375 10.953125 
Q 26.375 6.390625 33.015625 6.390625 
Q 39.65625 6.390625 43.53125 10.953125 
Q 47.40625 15.53125 47.40625 23.390625 
Q 47.40625 31.296875 43.53125 35.828125 
Q 39.65625 40.375 33.015625 40.375 
z
M 52.59375 71.296875 
L 52.59375 62.3125 
Q 48.875 64.0625 45.09375 64.984375 
Q 41.3125 65.921875 37.59375 65.921875 
Q 27.828125 65.921875 22.671875 59.328125 
Q 17.53125 52.734375 16.796875 39.40625 
Q 19.671875 43.65625 24.015625 45.921875 
Q 28.375 48.1875 33.59375 48.1875 
Q 44.578125 48.1875 50.953125 41.515625 
Q 57.328125 34.859375 57.328125 23.390625 
Q 57.328125 12.15625 50.6875 5.359375 
Q 44.046875 -1.421875 33.015625 -1.421875 
Q 20.359375 -1.421875 13.671875 8.265625 
Q 6.984375 17.96875 6.984375 36.375 
Q 6.984375 53.65625 15.1875 63.9375 
Q 23.390625 74.21875 37.203125 74.21875 
Q 40.921875 74.21875 44.703125 73.484375 
Q 48.484375 72.75 52.59375 71.296875 
z
" id="DejaVuSans-36"/>
      </defs>
      <g transform="translate(311.294643 320.44225)scale(0.2 -0.2)">
       <use xlink:href="#DejaVuSans-36"/>
      </g>
     </g>
    </g>
    <g id="xtick_5">
     <g id="line2d_9">
      <path clip-path="url(#pa25bccdf7b)" d="M 399.942857 298.245375 
L 399.942857 32.133375 
" style="fill:none;stroke:#b0b0b0;stroke-linecap:square;stroke-width:0.8;"/>
     </g>
     <g id="line2d_10">
      <g>
       <use style="stroke:#000000;stroke-width:0.8;" x="399.942857" xlink:href="#mada3d1f32f" y="298.245375"/>
      </g>
     </g>
     <g id="text_5">
      <!-- 8 -->
      <defs>
       <path d="M 31.78125 34.625 
Q 24.75 34.625 20.71875 30.859375 
Q 16.703125 27.09375 16.703125 20.515625 
Q 16.703125 13.921875 20.71875 10.15625 
Q 24.75 6.390625 31.78125 6.390625 
Q 38.8125 6.390625 42.859375 10.171875 
Q 46.921875 13.96875 46.921875 20.515625 
Q 46.921875 27.09375 42.890625 30.859375 
Q 38.875 34.625 31.78125 34.625 
z
M 21.921875 38.8125 
Q 15.578125 40.375 12.03125 44.71875 
Q 8.5 49.078125 8.5 55.328125 
Q 8.5 64.0625 14.71875 69.140625 
Q 20.953125 74.21875 31.78125 74.21875 
Q 42.671875 74.21875 48.875 69.140625 
Q 55.078125 64.0625 55.078125 55.328125 
Q 55.078125 49.078125 51.53125 44.71875 
Q 48 40.375 41.703125 38.8125 
Q 48.828125 37.15625 52.796875 32.3125 
Q 56.78125 27.484375 56.78125 20.515625 
Q 56.78125 9.90625 50.3125 4.234375 
Q 43.84375 -1.421875 31.78125 -1.421875 
Q 19.734375 -1.421875 13.25 4.234375 
Q 6.78125 9.90625 6.78125 20.515625 
Q 6.78125 27.484375 10.78125 32.3125 
Q 14.796875 37.15625 21.921875 38.8125 
z
M 18.3125 54.390625 
Q 18.3125 48.734375 21.84375 45.5625 
Q 25.390625 42.390625 31.78125 42.390625 
Q 38.140625 42.390625 41.71875 45.5625 
Q 45.3125 48.734375 45.3125 54.390625 
Q 45.3125 60.0625 41.71875 63.234375 
Q 38.140625 66.40625 31.78125 66.40625 
Q 25.390625 66.40625 21.84375 63.234375 
Q 18.3125 60.0625 18.3125 54.390625 
z
" id="DejaVuSans-38"/>
      </defs>
      <g transform="translate(393.580357 320.44225)scale(0.2 -0.2)">
       <use xlink:href="#DejaVuSans-38"/>
      </g>
     </g>
    </g>
    <g id="text_6">
     <!-- log10 of (# f-evals / dimension) -->
     <defs>
      <path d="M 9.421875 75.984375 
L 18.40625 75.984375 
L 18.40625 0 
L 9.421875 0 
z
" id="DejaVuSans-6c"/>
      <path d="M 30.609375 48.390625 
Q 23.390625 48.390625 19.1875 42.75 
Q 14.984375 37.109375 14.984375 27.296875 
Q 14.984375 17.484375 19.15625 11.84375 
Q 23.34375 6.203125 30.609375 6.203125 
Q 37.796875 6.203125 41.984375 11.859375 
Q 46.1875 17.53125 46.1875 27.296875 
Q 46.1875 37.015625 41.984375 42.703125 
Q 37.796875 48.390625 30.609375 48.390625 
z
M 30.609375 56 
Q 42.328125 56 49.015625 48.375 
Q 55.71875 40.765625 55.71875 27.296875 
Q 55.71875 13.875 49.015625 6.21875 
Q 42.328125 -1.421875 30.609375 -1.421875 
Q 18.84375 -1.421875 12.171875 6.21875 
Q 5.515625 13.875 5.515625 27.296875 
Q 5.515625 40.765625 12.171875 48.375 
Q 18.84375 56 30.609375 56 
z
" id="DejaVuSans-6f"/>
      <path d="M 45.40625 27.984375 
Q 45.40625 37.75 41.375 43.109375 
Q 37.359375 48.484375 30.078125 48.484375 
Q 22.859375 48.484375 18.828125 43.109375 
Q 14.796875 37.75 14.796875 27.984375 
Q 14.796875 18.265625 18.828125 12.890625 
Q 22.859375 7.515625 30.078125 7.515625 
Q 37.359375 7.515625 41.375 12.890625 
Q 45.40625 18.265625 45.40625 27.984375 
z
M 54.390625 6.78125 
Q 54.390625 -7.171875 48.1875 -13.984375 
Q 42 -20.796875 29.203125 -20.796875 
Q 24.46875 -20.796875 20.265625 -20.09375 
Q 16.0625 -19.390625 12.109375 -17.921875 
L 12.109375 -9.1875 
Q 16.0625 -11.328125 19.921875 -12.34375 
Q 23.78125 -13.375 27.78125 -13.375 
Q 36.625 -13.375 41.015625 -8.765625 
Q 45.40625 -4.15625 45.40625 5.171875 
L 45.40625 9.625 
Q 42.625 4.78125 38.28125 2.390625 
Q 33.9375 0 27.875 0 
Q 17.828125 0 11.671875 7.65625 
Q 5.515625 15.328125 5.515625 27.984375 
Q 5.515625 40.671875 11.671875 48.328125 
Q 17.828125 56 27.875 56 
Q 33.9375 56 38.28125 53.609375 
Q 42.625 51.21875 45.40625 46.390625 
L 45.40625 54.6875 
L 54.390625 54.6875 
z
" id="DejaVuSans-67"/>
      <path d="M 12.40625 8.296875 
L 28.515625 8.296875 
L 28.515625 63.921875 
L 10.984375 60.40625 
L 10.984375 69.390625 
L 28.421875 72.90625 
L 38.28125 72.90625 
L 38.28125 8.296875 
L 54.390625 8.296875 
L 54.390625 0 
L 12.40625 0 
z
" id="DejaVuSans-31"/>
      <path id="DejaVuSans-20"/>
      <path d="M 37.109375 75.984375 
L 37.109375 68.5 
L 28.515625 68.5 
Q 23.6875 68.5 21.796875 66.546875 
Q 19.921875 64.59375 19.921875 59.515625 
L 19.921875 54.6875 
L 34.71875 54.6875 
L 34.71875 47.703125 
L 19.921875 47.703125 
L 19.921875 0 
L 10.890625 0 
L 10.890625 47.703125 
L 2.296875 47.703125 
L 2.296875 54.6875 
L 10.890625 54.6875 
L 10.890625 58.5 
Q 10.890625 67.625 15.140625 71.796875 
Q 19.390625 75.984375 28.609375 75.984375 
z
" id="DejaVuSans-66"/>
      <path d="M 31 75.875 
Q 24.46875 64.65625 21.28125 53.65625 
Q 18.109375 42.671875 18.109375 31.390625 
Q 18.109375 20.125 21.3125 9.0625 
Q 24.515625 -2 31 -13.1875 
L 23.1875 -13.1875 
Q 15.875 -1.703125 12.234375 9.375 
Q 8.59375 20.453125 8.59375 31.390625 
Q 8.59375 42.28125 12.203125 53.3125 
Q 15.828125 64.359375 23.1875 75.875 
z
" id="DejaVuSans-28"/>
      <path d="M 51.125 44 
L 36.921875 44 
L 32.8125 27.6875 
L 47.125 27.6875 
z
M 43.796875 71.78125 
L 38.71875 51.515625 
L 52.984375 51.515625 
L 58.109375 71.78125 
L 65.921875 71.78125 
L 60.890625 51.515625 
L 76.125 51.515625 
L 76.125 44 
L 58.984375 44 
L 54.984375 27.6875 
L 70.515625 27.6875 
L 70.515625 20.21875 
L 53.078125 20.21875 
L 48 0 
L 40.1875 0 
L 45.21875 20.21875 
L 30.90625 20.21875 
L 25.875 0 
L 18.015625 0 
L 23.09375 20.21875 
L 7.71875 20.21875 
L 7.71875 27.6875 
L 24.90625 27.6875 
L 29 44 
L 13.28125 44 
L 13.28125 51.515625 
L 30.90625 51.515625 
L 35.890625 71.78125 
z
" id="DejaVuSans-23"/>
      <path d="M 4.890625 31.390625 
L 31.203125 31.390625 
L 31.203125 23.390625 
L 4.890625 23.390625 
z
" id="DejaVuSans-2d"/>
      <path d="M 56.203125 29.59375 
L 56.203125 25.203125 
L 14.890625 25.203125 
Q 15.484375 15.921875 20.484375 11.0625 
Q 25.484375 6.203125 34.421875 6.203125 
Q 39.59375 6.203125 44.453125 7.46875 
Q 49.3125 8.734375 54.109375 11.28125 
L 54.109375 2.78125 
Q 49.265625 0.734375 44.1875 -0.34375 
Q 39.109375 -1.421875 33.890625 -1.421875 
Q 20.796875 -1.421875 13.15625 6.1875 
Q 5.515625 13.8125 5.515625 26.8125 
Q 5.515625 40.234375 12.765625 48.109375 
Q 20.015625 56 32.328125 56 
Q 43.359375 56 49.78125 48.890625 
Q 56.203125 41.796875 56.203125 29.59375 
z
M 47.21875 32.234375 
Q 47.125 39.59375 43.09375 43.984375 
Q 39.0625 48.390625 32.421875 48.390625 
Q 24.90625 48.390625 20.390625 44.140625 
Q 15.875 39.890625 15.1875 32.171875 
z
" id="DejaVuSans-65"/>
      <path d="M 2.984375 54.6875 
L 12.5 54.6875 
L 29.59375 8.796875 
L 46.6875 54.6875 
L 56.203125 54.6875 
L 35.6875 0 
L 23.484375 0 
z
" id="DejaVuSans-76"/>
      <path d="M 34.28125 27.484375 
Q 23.390625 27.484375 19.1875 25 
Q 14.984375 22.515625 14.984375 16.5 
Q 14.984375 11.71875 18.140625 8.90625 
Q 21.296875 6.109375 26.703125 6.109375 
Q 34.1875 6.109375 38.703125 11.40625 
Q 43.21875 16.703125 43.21875 25.484375 
L 43.21875 27.484375 
z
M 52.203125 31.203125 
L 52.203125 0 
L 43.21875 0 
L 43.21875 8.296875 
Q 40.140625 3.328125 35.546875 0.953125 
Q 30.953125 -1.421875 24.3125 -1.421875 
Q 15.921875 -1.421875 10.953125 3.296875 
Q 6 8.015625 6 15.921875 
Q 6 25.140625 12.171875 29.828125 
Q 18.359375 34.515625 30.609375 34.515625 
L 43.21875 34.515625 
L 43.21875 35.40625 
Q 43.21875 41.609375 39.140625 45 
Q 35.0625 48.390625 27.6875 48.390625 
Q 23 48.390625 18.546875 47.265625 
Q 14.109375 46.140625 10.015625 43.890625 
L 10.015625 52.203125 
Q 14.9375 54.109375 19.578125 55.046875 
Q 24.21875 56 28.609375 56 
Q 40.484375 56 46.34375 49.84375 
Q 52.203125 43.703125 52.203125 31.203125 
z
" id="DejaVuSans-61"/>
      <path d="M 44.28125 53.078125 
L 44.28125 44.578125 
Q 40.484375 46.53125 36.375 47.5 
Q 32.28125 48.484375 27.875 48.484375 
Q 21.1875 48.484375 17.84375 46.4375 
Q 14.5 44.390625 14.5 40.28125 
Q 14.5 37.15625 16.890625 35.375 
Q 19.28125 33.59375 26.515625 31.984375 
L 29.59375 31.296875 
Q 39.15625 29.25 43.1875 25.515625 
Q 47.21875 21.78125 47.21875 15.09375 
Q 47.21875 7.46875 41.1875 3.015625 
Q 35.15625 -1.421875 24.609375 -1.421875 
Q 20.21875 -1.421875 15.453125 -0.5625 
Q 10.6875 0.296875 5.421875 2 
L 5.421875 11.28125 
Q 10.40625 8.6875 15.234375 7.390625 
Q 20.0625 6.109375 24.8125 6.109375 
Q 31.15625 6.109375 34.5625 8.28125 
Q 37.984375 10.453125 37.984375 14.40625 
Q 37.984375 18.0625 35.515625 20.015625 
Q 33.0625 21.96875 24.703125 23.78125 
L 21.578125 24.515625 
Q 13.234375 26.265625 9.515625 29.90625 
Q 5.8125 33.546875 5.8125 39.890625 
Q 5.8125 47.609375 11.28125 51.796875 
Q 16.75 56 26.8125 56 
Q 31.78125 56 36.171875 55.265625 
Q 40.578125 54.546875 44.28125 53.078125 
z
" id="DejaVuSans-73"/>
      <path d="M 25.390625 72.90625 
L 33.6875 72.90625 
L 8.296875 -9.28125 
L 0 -9.28125 
z
" id="DejaVuSans-2f"/>
      <path d="M 45.40625 46.390625 
L 45.40625 75.984375 
L 54.390625 75.984375 
L 54.390625 0 
L 45.40625 0 
L 45.40625 8.203125 
Q 42.578125 3.328125 38.25 0.953125 
Q 33.9375 -1.421875 27.875 -1.421875 
Q 17.96875 -1.421875 11.734375 6.484375 
Q 5.515625 14.40625 5.515625 27.296875 
Q 5.515625 40.1875 11.734375 48.09375 
Q 17.96875 56 27.875 56 
Q 33.9375 56 38.25 53.625 
Q 42.578125 51.265625 45.40625 46.390625 
z
M 14.796875 27.296875 
Q 14.796875 17.390625 18.875 11.75 
Q 22.953125 6.109375 30.078125 6.109375 
Q 37.203125 6.109375 41.296875 11.75 
Q 45.40625 17.390625 45.40625 27.296875 
Q 45.40625 37.203125 41.296875 42.84375 
Q 37.203125 48.484375 30.078125 48.484375 
Q 22.953125 48.484375 18.875 42.84375 
Q 14.796875 37.203125 14.796875 27.296875 
z
" id="DejaVuSans-64"/>
      <path d="M 9.421875 54.6875 
L 18.40625 54.6875 
L 18.40625 0 
L 9.421875 0 
z
M 9.421875 75.984375 
L 18.40625 75.984375 
L 18.40625 64.59375 
L 9.421875 64.59375 
z
" id="DejaVuSans-69"/>
      <path d="M 52 44.1875 
Q 55.375 50.25 60.0625 53.125 
Q 64.75 56 71.09375 56 
Q 79.640625 56 84.28125 50.015625 
Q 88.921875 44.046875 88.921875 33.015625 
L 88.921875 0 
L 79.890625 0 
L 79.890625 32.71875 
Q 79.890625 40.578125 77.09375 44.375 
Q 74.3125 48.1875 68.609375 48.1875 
Q 61.625 48.1875 57.5625 43.546875 
Q 53.515625 38.921875 53.515625 30.90625 
L 53.515625 0 
L 44.484375 0 
L 44.484375 32.71875 
Q 44.484375 40.625 41.703125 44.40625 
Q 38.921875 48.1875 33.109375 48.1875 
Q 26.21875 48.1875 22.15625 43.53125 
Q 18.109375 38.875 18.109375 30.90625 
L 18.109375 0 
L 9.078125 0 
L 9.078125 54.6875 
L 18.109375 54.6875 
L 18.109375 46.1875 
Q 21.1875 51.21875 25.484375 53.609375 
Q 29.78125 56 35.6875 56 
Q 41.65625 56 45.828125 52.96875 
Q 50 49.953125 52 44.1875 
z
" id="DejaVuSans-6d"/>
      <path d="M 54.890625 33.015625 
L 54.890625 0 
L 45.90625 0 
L 45.90625 32.71875 
Q 45.90625 40.484375 42.875 44.328125 
Q 39.84375 48.1875 33.796875 48.1875 
Q 26.515625 48.1875 22.3125 43.546875 
Q 18.109375 38.921875 18.109375 30.90625 
L 18.109375 0 
L 9.078125 0 
L 9.078125 54.6875 
L 18.109375 54.6875 
L 18.109375 46.1875 
Q 21.34375 51.125 25.703125 53.5625 
Q 30.078125 56 35.796875 56 
Q 45.21875 56 50.046875 50.171875 
Q 54.890625 44.34375 54.890625 33.015625 
z
" id="DejaVuSans-6e"/>
      <path d="M 8.015625 75.875 
L 15.828125 75.875 
Q 23.140625 64.359375 26.78125 53.3125 
Q 30.421875 42.28125 30.421875 31.390625 
Q 30.421875 20.453125 26.78125 9.375 
Q 23.140625 -1.703125 15.828125 -13.1875 
L 8.015625 -13.1875 
Q 14.5 -2 17.703125 9.0625 
Q 20.90625 20.125 20.90625 31.390625 
Q 20.90625 42.671875 17.703125 53.65625 
Q 14.5 64.65625 8.015625 75.875 
z
" id="DejaVuSans-29"/>
     </defs>
     <g transform="translate(107.015156 342.278812)scale(0.18 -0.18)">
      <use xlink:href="#DejaVuSans-6c"/>
      <use x="27.783203" xlink:href="#DejaVuSans-6f"/>
      <use x="88.964844" xlink:href="#DejaVuSans-67"/>
      <use x="152.441406" xlink:href="#DejaVuSans-31"/>
      <use x="216.064453" xlink:href="#DejaVuSans-30"/>
      <use x="279.6875" xlink:href="#DejaVuSans-20"/>
      <use x="311.474609" xlink:href="#DejaVuSans-6f"/>
      <use x="372.65625" xlink:href="#DejaVuSans-66"/>
      <use x="407.861328" xlink:href="#DejaVuSans-20"/>
      <use x="439.648438" xlink:href="#DejaVuSans-28"/>
      <use x="478.662109" xlink:href="#DejaVuSans-23"/>
      <use x="562.451172" xlink:href="#DejaVuSans-20"/>
      <use x="594.238281" xlink:href="#DejaVuSans-66"/>
      <use x="629.365234" xlink:href="#DejaVuSans-2d"/>
      <use x="665.449219" xlink:href="#DejaVuSans-65"/>
      <use x="726.972656" xlink:href="#DejaVuSans-76"/>
      <use x="786.152344" xlink:href="#DejaVuSans-61"/>
      <use x="847.431641" xlink:href="#DejaVuSans-6c"/>
      <use x="875.214844" xlink:href="#DejaVuSans-73"/>
      <use x="927.314453" xlink:href="#DejaVuSans-20"/>
      <use x="959.101562" xlink:href="#DejaVuSans-2f"/>
      <use x="992.792969" xlink:href="#DejaVuSans-20"/>
      <use x="1024.580078" xlink:href="#DejaVuSans-64"/>
      <use x="1088.056641" xlink:href="#DejaVuSans-69"/>
      <use x="1115.839844" xlink:href="#DejaVuSans-6d"/>
      <use x="1213.251953" xlink:href="#DejaVuSans-65"/>
      <use x="1274.775391" xlink:href="#DejaVuSans-6e"/>
      <use x="1338.154297" xlink:href="#DejaVuSans-73"/>
      <use x="1390.253906" xlink:href="#DejaVuSans-69"/>
      <use x="1418.037109" xlink:href="#DejaVuSans-6f"/>
      <use x="1479.21875" xlink:href="#DejaVuSans-6e"/>
      <use x="1542.597656" xlink:href="#DejaVuSans-29"/>
     </g>
    </g>
   </g>
   <g id="matplotlib.axis_2">
    <g id="ytick_1">
     <g id="line2d_11">
      <path clip-path="url(#pa25bccdf7b)" d="M 70.8 298.245375 
L 427.92 298.245375 
" style="fill:none;stroke:#b0b0b0;stroke-linecap:square;stroke-width:0.8;"/>
     </g>
     <g id="line2d_12">
      <defs>
       <path d="M 0 0 
L -3.5 0 
" id="mef2c4e2f71" style="stroke:#000000;stroke-width:0.8;"/>
      </defs>
      <g>
       <use style="stroke:#000000;stroke-width:0.8;" x="70.8" xlink:href="#mef2c4e2f71" y="298.245375"/>
      </g>
     </g>
     <g id="text_7">
      <!-- 0.0 -->
      <defs>
       <path d="M 10.6875 12.40625 
L 21 12.40625 
L 21 0 
L 10.6875 0 
z
" id="DejaVuSans-2e"/>
      </defs>
      <g transform="translate(31.99375 305.843812)scale(0.2 -0.2)">
       <use xlink:href="#DejaVuSans-30"/>
       <use x="63.623047" xlink:href="#DejaVuSans-2e"/>
       <use x="95.410156" xlink:href="#DejaVuSans-30"/>
      </g>
     </g>
    </g>
    <g id="ytick_2">
     <g id="line2d_13">
      <path clip-path="url(#pa25bccdf7b)" d="M 70.8 245.549929 
L 427.92 245.549929 
" style="fill:none;stroke:#b0b0b0;stroke-linecap:square;stroke-width:0.8;"/>
     </g>
     <g id="line2d_14">
      <g>
       <use style="stroke:#000000;stroke-width:0.8;" x="70.8" xlink:href="#mef2c4e2f71" y="245.549929"/>
      </g>
     </g>
     <g id="text_8">
      <!-- 0.2 -->
      <g transform="translate(31.99375 253.148367)scale(0.2 -0.2)">
       <use xlink:href="#DejaVuSans-30"/>
       <use x="63.623047" xlink:href="#DejaVuSans-2e"/>
       <use x="95.410156" xlink:href="#DejaVuSans-32"/>
      </g>
     </g>
    </g>
    <g id="ytick_3">
     <g id="line2d_15">
      <path clip-path="url(#pa25bccdf7b)" d="M 70.8 192.854484 
L 427.92 192.854484 
" style="fill:none;stroke:#b0b0b0;stroke-linecap:square;stroke-width:0.8;"/>
     </g>
     <g id="line2d_16">
      <g>
       <use style="stroke:#000000;stroke-width:0.8;" x="70.8" xlink:href="#mef2c4e2f71" y="192.854484"/>
      </g>
     </g>
     <g id="text_9">
      <!-- 0.4 -->
      <g transform="translate(31.99375 200.452921)scale(0.2 -0.2)">
       <use xlink:href="#DejaVuSans-30"/>
       <use x="63.623047" xlink:href="#DejaVuSans-2e"/>
       <use x="95.410156" xlink:href="#DejaVuSans-34"/>
      </g>
     </g>
    </g>
    <g id="ytick_4">
     <g id="line2d_17">
      <path clip-path="url(#pa25bccdf7b)" d="M 70.8 140.159038 
L 427.92 140.159038 
" style="fill:none;stroke:#b0b0b0;stroke-linecap:square;stroke-width:0.8;"/>
     </g>
     <g id="line2d_18">
      <g>
       <use style="stroke:#000000;stroke-width:0.8;" x="70.8" xlink:href="#mef2c4e2f71" y="140.159038"/>
      </g>
     </g>
     <g id="text_10">
      <!-- 0.6 -->
      <g transform="translate(31.99375 147.757476)scale(0.2 -0.2)">
       <use xlink:href="#DejaVuSans-30"/>
       <use x="63.623047" xlink:href="#DejaVuSans-2e"/>
       <use x="95.410156" xlink:href="#DejaVuSans-36"/>
      </g>
     </g>
    </g>
    <g id="ytick_5">
     <g id="line2d_19">
      <path clip-path="url(#pa25bccdf7b)" d="M 70.8 87.463593 
L 427.92 87.463593 
" style="fill:none;stroke:#b0b0b0;stroke-linecap:square;stroke-width:0.8;"/>
     </g>
     <g id="line2d_20">
      <g>
       <use style="stroke:#000000;stroke-width:0.8;" x="70.8" xlink:href="#mef2c4e2f71" y="87.463593"/>
      </g>
     </g>
     <g id="text_11">
      <!-- 0.8 -->
      <g transform="translate(31.99375 95.06203)scale(0.2 -0.2)">
       <use xlink:href="#DejaVuSans-30"/>
       <use x="63.623047" xlink:href="#DejaVuSans-2e"/>
       <use x="95.410156" xlink:href="#DejaVuSans-38"/>
      </g>
     </g>
    </g>
    <g id="ytick_6">
     <g id="line2d_21">
      <path clip-path="url(#pa25bccdf7b)" d="M 70.8 34.768147 
L 427.92 34.768147 
" style="fill:none;stroke:#b0b0b0;stroke-linecap:square;stroke-width:0.8;"/>
     </g>
     <g id="line2d_22">
      <g>
       <use style="stroke:#000000;stroke-width:0.8;" x="70.8" xlink:href="#mef2c4e2f71" y="34.768147"/>
      </g>
     </g>
     <g id="text_12">
      <!-- 1.0 -->
      <g transform="translate(31.99375 42.366585)scale(0.2 -0.2)">
       <use xlink:href="#DejaVuSans-31"/>
       <use x="63.623047" xlink:href="#DejaVuSans-2e"/>
       <use x="95.410156" xlink:href="#DejaVuSans-30"/>
      </g>
     </g>
    </g>
    <g id="text_13">
     <!-- Proportion of function+target pairs -->
     <defs>
      <path d="M 19.671875 64.796875 
L 19.671875 37.40625 
L 32.078125 37.40625 
Q 38.96875 37.40625 42.71875 40.96875 
Q 46.484375 44.53125 46.484375 51.125 
Q 46.484375 57.671875 42.71875 61.234375 
Q 38.96875 64.796875 32.078125 64.796875 
z
M 9.8125 72.90625 
L 32.078125 72.90625 
Q 44.34375 72.90625 50.609375 67.359375 
Q 56.890625 61.8125 56.890625 51.125 
Q 56.890625 40.328125 50.609375 34.8125 
Q 44.34375 29.296875 32.078125 29.296875 
L 19.671875 29.296875 
L 19.671875 0 
L 9.8125 0 
z
" id="DejaVuSans-50"/>
      <path d="M 41.109375 46.296875 
Q 39.59375 47.171875 37.8125 47.578125 
Q 36.03125 48 33.890625 48 
Q 26.265625 48 22.1875 43.046875 
Q 18.109375 38.09375 18.109375 28.8125 
L 18.109375 0 
L 9.078125 0 
L 9.078125 54.6875 
L 18.109375 54.6875 
L 18.109375 46.1875 
Q 20.953125 51.171875 25.484375 53.578125 
Q 30.03125 56 36.53125 56 
Q 37.453125 56 38.578125 55.875 
Q 39.703125 55.765625 41.0625 55.515625 
z
" id="DejaVuSans-72"/>
      <path d="M 18.109375 8.203125 
L 18.109375 -20.796875 
L 9.078125 -20.796875 
L 9.078125 54.6875 
L 18.109375 54.6875 
L 18.109375 46.390625 
Q 20.953125 51.265625 25.265625 53.625 
Q 29.59375 56 35.59375 56 
Q 45.5625 56 51.78125 48.09375 
Q 58.015625 40.1875 58.015625 27.296875 
Q 58.015625 14.40625 51.78125 6.484375 
Q 45.5625 -1.421875 35.59375 -1.421875 
Q 29.59375 -1.421875 25.265625 0.953125 
Q 20.953125 3.328125 18.109375 8.203125 
z
M 48.6875 27.296875 
Q 48.6875 37.203125 44.609375 42.84375 
Q 40.53125 48.484375 33.40625 48.484375 
Q 26.265625 48.484375 22.1875 42.84375 
Q 18.109375 37.203125 18.109375 27.296875 
Q 18.109375 17.390625 22.1875 11.75 
Q 26.265625 6.109375 33.40625 6.109375 
Q 40.53125 6.109375 44.609375 11.75 
Q 48.6875 17.390625 48.6875 27.296875 
z
" id="DejaVuSans-70"/>
      <path d="M 18.3125 70.21875 
L 18.3125 54.6875 
L 36.8125 54.6875 
L 36.8125 47.703125 
L 18.3125 47.703125 
L 18.3125 18.015625 
Q 18.3125 11.328125 20.140625 9.421875 
Q 21.96875 7.515625 27.59375 7.515625 
L 36.8125 7.515625 
L 36.8125 0 
L 27.59375 0 
Q 17.1875 0 13.234375 3.875 
Q 9.28125 7.765625 9.28125 18.015625 
L 9.28125 47.703125 
L 2.6875 47.703125 
L 2.6875 54.6875 
L 9.28125 54.6875 
L 9.28125 70.21875 
z
" id="DejaVuSans-74"/>
      <path d="M 8.5 21.578125 
L 8.5 54.6875 
L 17.484375 54.6875 
L 17.484375 21.921875 
Q 17.484375 14.15625 20.5 10.265625 
Q 23.53125 6.390625 29.59375 6.390625 
Q 36.859375 6.390625 41.078125 11.03125 
Q 45.3125 15.671875 45.3125 23.6875 
L 45.3125 54.6875 
L 54.296875 54.6875 
L 54.296875 0 
L 45.3125 0 
L 45.3125 8.40625 
Q 42.046875 3.421875 37.71875 1 
Q 33.40625 -1.421875 27.6875 -1.421875 
Q 18.265625 -1.421875 13.375 4.4375 
Q 8.5 10.296875 8.5 21.578125 
z
M 31.109375 56 
z
" id="DejaVuSans-75"/>
      <path d="M 48.78125 52.59375 
L 48.78125 44.1875 
Q 44.96875 46.296875 41.140625 47.34375 
Q 37.3125 48.390625 33.40625 48.390625 
Q 24.65625 48.390625 19.8125 42.84375 
Q 14.984375 37.3125 14.984375 27.296875 
Q 14.984375 17.28125 19.8125 11.734375 
Q 24.65625 6.203125 33.40625 6.203125 
Q 37.3125 6.203125 41.140625 7.25 
Q 44.96875 8.296875 48.78125 10.40625 
L 48.78125 2.09375 
Q 45.015625 0.34375 40.984375 -0.53125 
Q 36.96875 -1.421875 32.421875 -1.421875 
Q 20.0625 -1.421875 12.78125 6.34375 
Q 5.515625 14.109375 5.515625 27.296875 
Q 5.515625 40.671875 12.859375 48.328125 
Q 20.21875 56 33.015625 56 
Q 37.15625 56 41.109375 55.140625 
Q 45.0625 54.296875 48.78125 52.59375 
z
" id="DejaVuSans-63"/>
      <path d="M 46 62.703125 
L 46 35.5 
L 73.1875 35.5 
L 73.1875 27.203125 
L 46 27.203125 
L 46 0 
L 37.796875 0 
L 37.796875 27.203125 
L 10.59375 27.203125 
L 10.59375 35.5 
L 37.796875 35.5 
L 37.796875 62.703125 
z
" id="DejaVuSans-2b"/>
     </defs>
     <g transform="translate(24.250312 323.17875)rotate(-90)scale(0.18 -0.18)">
      <use xlink:href="#DejaVuSans-50"/>
      <use x="60.287109" xlink:href="#DejaVuSans-72"/>
      <use x="101.369141" xlink:href="#DejaVuSans-6f"/>
      <use x="162.550781" xlink:href="#DejaVuSans-70"/>
      <use x="226.027344" xlink:href="#DejaVuSans-6f"/>
      <use x="287.208984" xlink:href="#DejaVuSans-72"/>
      <use x="328.322266" xlink:href="#DejaVuSans-74"/>
      <use x="367.53125" xlink:href="#DejaVuSans-69"/>
      <use x="395.314453" xlink:href="#DejaVuSans-6f"/>
      <use x="456.496094" xlink:href="#DejaVuSans-6e"/>
      <use x="519.875" xlink:href="#DejaVuSans-20"/>
      <use x="551.662109" xlink:href="#DejaVuSans-6f"/>
      <use x="612.84375" xlink:href="#DejaVuSans-66"/>
      <use x="648.048828" xlink:href="#DejaVuSans-20"/>
      <use x="679.835938" xlink:href="#DejaVuSans-66"/>
      <use x="715.041016" xlink:href="#DejaVuSans-75"/>
      <use x="778.419922" xlink:href="#DejaVuSans-6e"/>
      <use x="841.798828" xlink:href="#DejaVuSans-63"/>
      <use x="896.779297" xlink:href="#DejaVuSans-74"/>
      <use x="935.988281" xlink:href="#DejaVuSans-69"/>
      <use x="963.771484" xlink:href="#DejaVuSans-6f"/>
      <use x="1024.953125" xlink:href="#DejaVuSans-6e"/>
      <use x="1088.332031" xlink:href="#DejaVuSans-2b"/>
      <use x="1172.121094" xlink:href="#DejaVuSans-74"/>
      <use x="1211.330078" xlink:href="#DejaVuSans-61"/>
      <use x="1272.609375" xlink:href="#DejaVuSans-72"/>
      <use x="1313.707031" xlink:href="#DejaVuSans-67"/>
      <use x="1377.183594" xlink:href="#DejaVuSans-65"/>
      <use x="1438.707031" xlink:href="#DejaVuSans-74"/>
      <use x="1477.916016" xlink:href="#DejaVuSans-20"/>
      <use x="1509.703125" xlink:href="#DejaVuSans-70"/>
      <use x="1573.179688" xlink:href="#DejaVuSans-61"/>
      <use x="1634.458984" xlink:href="#DejaVuSans-69"/>
      <use x="1662.242188" xlink:href="#DejaVuSans-72"/>
      <use x="1703.355469" xlink:href="#DejaVuSans-73"/>
     </g>
    </g>
   </g>
   <g id="line2d_23">
    <defs>
     <path d="M 0 1.5 
C 0.397805 1.5 0.77937 1.341951 1.06066 1.06066 
C 1.341951 0.77937 1.5 0.397805 1.5 0 
C 1.5 -0.397805 1.341951 -0.77937 1.06066 -1.06066 
C 0.77937 -1.341951 0.397805 -1.5 0 -1.5 
C -0.397805 -1.5 -0.77937 -1.341951 -1.06066 -1.06066 
C -1.341951 -0.77937 -1.5 -0.397805 -1.5 0 
C -1.5 0.397805 -1.341951 0.77937 -1.06066 1.06066 
C -0.77937 1.341951 -0.397805 1.5 0 1.5 
z
" id="m5d07e3f1cf" style="stroke:#00bfbf;"/>
    </defs>
    <g>
     <use style="fill:#00bfbf;stroke:#00bfbf;" x="323.564991" xlink:href="#m5d07e3f1cf" y="112.26145"/>
     <use style="fill:#00bfbf;stroke:#00bfbf;" x="323.564991" xlink:href="#m5d07e3f1cf" y="112.26145"/>
    </g>
   </g>
   <g id="line2d_24">
    <path d="M 58.414766 298.245375 
L 58.414766 295.145643 
L 137.796573 295.145643 
L 137.796573 293.079155 
L 138.005559 293.079155 
L 138.005559 292.045911 
L 139.015326 292.045911 
L 139.015326 290.496045 
L 139.210608 290.496045 
L 139.210608 285.846447 
L 139.403779 285.846447 
L 139.403779 284.813203 
L 139.594883 284.813203 
L 139.594883 282.746715 
L 139.783966 282.746715 
L 139.783966 272.414274 
L 140.156232 272.414274 
L 140.156232 269.314542 
L 151.302113 269.314542 
L 151.302113 268.79792 
L 151.498468 268.79792 
L 151.595842 267.764676 
L 151.692688 267.764676 
L 151.692688 267.248054 
L 151.980117 267.248054 
L 151.980117 266.21481 
L 152.1692 266.21481 
L 152.1692 265.181566 
L 157.97866 265.181566 
L 157.97866 264.148322 
L 158.905362 264.148322 
L 158.905362 263.6317 
L 159.351292 263.6317 
L 159.351292 263.115078 
L 163.033869 263.115078 
L 163.033869 262.081834 
L 163.736638 262.081834 
L 163.736638 261.04859 
L 164.029565 261.04859 
L 164.029565 260.531968 
L 164.64823 260.531968 
L 164.64823 259.498724 
L 166.969752 259.498724 
L 166.969752 258.46548 
L 167.173962 258.46548 
L 167.173962 256.915614 
L 168.122934 256.915614 
L 168.122934 254.849126 
L 170.020925 254.849126 
L 170.020925 254.332504 
L 171.830651 254.332504 
L 171.830651 253.815882 
L 176.36631 253.815882 
L 176.36631 251.749394 
L 176.631385 251.749394 
L 176.631385 251.232772 
L 178.07815 251.232772 
L 178.07815 250.199528 
L 180.392267 250.199528 
L 180.392267 249.166284 
L 181.500576 249.166284 
L 181.500576 248.649662 
L 182.126964 248.649662 
L 182.126964 248.13304 
L 182.918175 248.13304 
L 182.918175 247.099796 
L 184.058733 247.099796 
L 184.058733 246.066551 
L 186.337823 246.066551 
L 186.337823 244.516685 
L 187.032744 244.516685 
L 187.032744 242.966819 
L 188.519408 242.966819 
L 188.519408 242.450197 
L 188.775805 242.450197 
L 188.775805 239.350465 
L 189.13582 239.350465 
L 189.13582 238.317221 
L 189.336654 238.317221 
L 189.336654 237.800599 
L 191.166305 237.800599 
L 191.166305 234.700867 
L 193.433896 234.700867 
L 193.433896 233.667623 
L 194.71331 233.667623 
L 194.71331 230.567891 
L 195.261297 230.567891 
L 195.261297 229.018025 
L 195.760206 229.018025 
L 195.760206 228.501403 
L 198.764691 228.501403 
L 198.764691 227.984781 
L 199.957682 227.984781 
L 199.957682 227.468159 
L 200.781243 227.468159 
L 200.781243 226.951537 
L 201.873958 226.951537 
L 201.873958 226.434915 
L 203.407805 226.434915 
L 203.407805 225.918293 
L 204.166484 225.918293 
L 204.166484 225.401671 
L 205.403354 225.401671 
L 205.403354 224.368427 
L 208.856803 224.368427 
L 208.856803 223.335183 
L 209.238815 223.335183 
L 209.238815 222.301939 
L 209.361805 222.301939 
L 209.361805 221.785317 
L 210.500618 221.785317 
L 210.500618 221.268695 
L 215.37393 221.268695 
L 215.37393 217.135719 
L 216.06094 217.135719 
L 216.06094 211.969498 
L 216.275528 211.969498 
L 216.275528 210.419632 
L 216.64369 210.419632 
L 216.64369 209.386388 
L 217.651833 209.386388 
L 217.651833 207.3199 
L 220.869792 207.3199 
L 220.869792 206.286656 
L 221.758526 206.286656 
L 221.758526 203.703546 
L 222.041445 203.703546 
L 222.041445 203.186924 
L 224.905559 203.186924 
L 224.905559 200.603814 
L 227.149728 200.603814 
L 227.149728 200.087192 
L 227.498734 200.087192 
L 227.498734 199.053948 
L 228.524981 199.053948 
L 228.524981 198.537326 
L 228.927985 198.537326 
L 228.927985 197.504082 
L 229.25932 197.504082 
L 229.25932 193.887728 
L 231.015311 193.887728 
L 231.015311 192.854484 
L 234.054542 192.854484 
L 234.054542 192.337862 
L 236.909622 192.337862 
L 236.909622 191.304618 
L 237.645919 191.304618 
L 237.645919 190.787996 
L 238.327345 190.787996 
L 238.327345 189.754752 
L 238.564282 189.754752 
L 238.564282 188.721508 
L 239.189829 188.721508 
L 239.189829 187.688264 
L 239.379298 187.688264 
L 239.379298 185.621776 
L 240.279993 185.621776 
L 240.279993 183.555288 
L 240.721154 183.555288 
L 240.721154 182.522044 
L 240.95145 182.522044 
L 240.95145 181.4888 
L 241.923481 181.4888 
L 241.923481 180.972178 
L 243.720303 180.972178 
L 243.720303 177.872445 
L 244.277598 177.872445 
L 244.277598 177.355823 
L 245.971581 177.355823 
L 245.971581 175.805957 
L 246.749166 175.805957 
L 246.749166 172.706225 
L 246.924587 172.706225 
L 246.924587 171.156359 
L 248.371351 171.156359 
L 248.371351 170.639737 
L 250.66785 170.639737 
L 250.66785 170.123115 
L 251.056049 170.123115 
L 251.056049 169.089871 
L 251.813724 169.089871 
L 251.813724 168.573249 
L 253.967419 168.573249 
L 253.967419 167.023383 
L 254.090374 167.023383 
L 254.104784 163.923651 
L 255.461355 163.923651 
L 255.461355 163.407029 
L 258.338541 163.407029 
L 258.338541 162.373785 
L 259.972917 162.373785 
L 259.972917 161.340541 
L 260.751406 161.340541 
L 260.751406 160.823919 
L 260.926899 160.823919 
L 260.926899 159.790675 
L 261.191058 159.790675 
L 261.191058 159.274053 
L 262.559567 159.274053 
L 262.559567 153.591211 
L 263.741793 153.591211 
L 263.741793 152.041345 
L 264.039128 152.041345 
L 264.039128 151.524723 
L 265.896437 151.524723 
L 265.896437 149.974857 
L 267.321456 149.974857 
L 267.321456 147.908369 
L 268.961837 147.908369 
L 268.961837 146.358503 
L 271.348678 146.358503 
L 271.348678 142.742148 
L 272.287777 142.742148 
L 272.334235 141.708904 
L 272.680583 141.708904 
L 272.680583 141.192282 
L 275.105413 141.192282 
L 275.105413 140.67566 
L 275.728388 140.67566 
L 275.728388 137.575928 
L 276.296492 137.575928 
L 276.32622 136.026062 
L 277.48391 136.026062 
L 277.48391 135.50944 
L 278.823432 135.50944 
L 278.823432 134.992818 
L 279.499935 134.992818 
L 279.499935 134.476196 
L 279.792342 134.476196 
L 279.792342 133.959574 
L 280.241689 133.959574 
L 280.241689 133.442952 
L 280.492719 133.442952 
L 280.492719 132.409708 
L 281.699883 132.409708 
L 281.699883 131.893086 
L 283.107156 131.893086 
L 283.107156 131.376464 
L 286.506825 131.376464 
L 286.507847 130.34322 
L 287.749006 130.34322 
L 287.749006 129.826598 
L 287.926396 129.826598 
L 287.926396 129.309976 
L 288.408749 129.309976 
L 288.408749 128.793354 
L 288.520293 128.793354 
L 288.520293 128.276732 
L 289.393733 128.276732 
L 289.393733 127.76011 
L 291.084939 127.76011 
L 291.084939 127.243488 
L 291.425679 127.243488 
L 291.474902 126.210244 
L 291.802393 126.210244 
L 291.802393 125.693622 
L 292.10761 125.693622 
L 292.10761 125.177 
L 292.945186 125.177 
L 292.945186 124.660378 
L 293.235464 124.660378 
L 293.235464 124.143756 
L 294.680907 124.143756 
L 294.680907 123.627134 
L 295.247797 123.627134 
L 295.247797 123.110512 
L 295.879444 123.110512 
L 295.879444 122.59389 
L 297.083241 122.59389 
L 297.083241 122.077268 
L 298.470435 122.077268 
L 298.470435 121.560646 
L 299.654103 121.560646 
L 299.654103 121.044024 
L 299.939859 121.044024 
L 299.939859 120.527402 
L 303.162264 120.527402 
L 303.162264 120.01078 
L 304.686424 120.01078 
L 304.686424 119.494158 
L 305.379348 119.494158 
L 305.379348 118.977536 
L 307.584996 118.977536 
L 307.584996 118.460914 
L 308.112163 118.460914 
L 308.17649 117.42767 
L 308.942701 117.42767 
L 308.942701 116.911048 
L 309.673743 116.911048 
L 309.673743 116.394426 
L 309.937859 116.394426 
L 310.047847 115.361182 
L 312.790019 115.361182 
L 312.790019 114.84456 
L 312.914103 114.84456 
L 312.914103 114.327938 
L 315.161233 114.327938 
L 315.161233 113.811316 
L 322.712875 113.811316 
L 322.712875 113.294694 
L 323.320254 113.294694 
L 323.320254 112.778072 
L 323.564991 112.778072 
L 323.564991 112.26145 
L 358.8 112.26145 
L 358.8 112.26145 
" style="fill:none;stroke:#00bfbf;stroke-linecap:square;stroke-width:1.5;"/>
   </g>
   <g id="line2d_25">
    <defs>
     <path d="M -6 0 
L 6 0 
M 0 6 
L 0 -6 
" id="m996a724b8b" style="stroke:#00bfbf;stroke-width:1.5;"/>
    </defs>
    <g>
     <use style="fill:none;stroke:#00bfbf;stroke-width:1.5;" x="58.414766" xlink:href="#m996a724b8b" y="295.145643"/>
     <use style="fill:none;stroke:#00bfbf;stroke-width:1.5;" x="188.775805" xlink:href="#m996a724b8b" y="242.450197"/>
     <use style="fill:none;stroke:#00bfbf;stroke-width:1.5;" x="241.923481" xlink:href="#m996a724b8b" y="181.4888"/>
     <use style="fill:none;stroke:#00bfbf;stroke-width:1.5;" x="291.474902" xlink:href="#m996a724b8b" y="126.726866"/>
     <use style="fill:none;stroke:#00bfbf;stroke-width:1.5;" x="323.564991" xlink:href="#m996a724b8b" y="112.26145"/>
     <use style="fill:none;stroke:#00bfbf;stroke-width:1.5;" x="358.8" xlink:href="#m996a724b8b" y="112.26145"/>
    </g>
   </g>
   <g id="line2d_26"/>
   <g id="line2d_27">
    <path clip-path="url(#pa25bccdf7b)" d="M 267.321456 147.908369 
" style="fill:none;stroke:#00bfbf;stroke-linecap:square;stroke-width:1.5;"/>
    <defs>
     <path d="M -12 12 
L 12 -12 
M -12 -12 
L 12 12 
" id="ma873398004" style="stroke:#00bfbf;stroke-width:3;"/>
    </defs>
    <g clip-path="url(#pa25bccdf7b)">
     <use style="fill:#00bfbf;stroke:#00bfbf;stroke-width:3;" x="267.321456" xlink:href="#ma873398004" y="147.908369"/>
    </g>
   </g>
   <g id="line2d_28">
    <defs>
     <path d="M 0 1.5 
C 0.397805 1.5 0.77937 1.341951 1.06066 1.06066 
C 1.341951 0.77937 1.5 0.397805 1.5 0 
C 1.5 -0.397805 1.341951 -0.77937 1.06066 -1.06066 
C 0.77937 -1.341951 0.397805 -1.5 0 -1.5 
C -0.397805 -1.5 -0.77937 -1.341951 -1.06066 -1.06066 
C -1.341951 -0.77937 -1.5 -0.397805 -1.5 0 
C -1.5 0.397805 -1.341951 0.77937 -1.06066 1.06066 
C -0.77937 1.341951 -0.397805 1.5 0 1.5 
z
" id="m6096d90a8b" style="stroke:#008000;"/>
    </defs>
    <g>
     <use style="fill:#008000;stroke:#008000;" x="326.912018" xlink:href="#m6096d90a8b" y="112.26145"/>
     <use style="fill:#008000;stroke:#008000;" x="326.912018" xlink:href="#m6096d90a8b" y="112.26145"/>
    </g>
   </g>
   <g id="line2d_29">
    <path d="M 51.169868 298.245375 
L 51.169868 295.662265 
L 130.967232 295.662265 
L 130.967232 291.529289 
L 131.171441 291.529289 
L 131.171441 288.429557 
L 131.770429 288.429557 
L 131.770429 287.912935 
L 132.158881 287.912935 
L 132.158881 286.879691 
L 132.726171 286.879691 
L 132.726171 286.363069 
L 132.911334 286.363069 
L 132.911334 284.296581 
L 133.094598 284.296581 
L 133.094598 279.13036 
L 133.276002 279.13036 
L 133.276002 277.580494 
L 141.741636 277.580494 
L 141.741636 277.063872 
L 143.454862 277.063872 
L 143.454862 276.54725 
L 143.858679 276.54725 
L 143.858679 274.997384 
L 144.350945 274.997384 
L 144.350945 274.480762 
L 145.018098 274.480762 
L 145.018098 273.447518 
L 151.660465 273.447518 
L 151.660465 272.930896 
L 152.785403 272.930896 
L 152.785403 272.414274 
L 152.906134 272.414274 
L 152.906134 271.897652 
L 155.686281 271.897652 
L 155.686281 271.38103 
L 156.833025 271.38103 
L 156.833025 270.347786 
L 157.403332 270.347786 
L 157.403332 269.831164 
L 158.091535 269.831164 
L 158.091535 269.314542 
L 160.050479 269.314542 
L 160.050479 268.281298 
L 161.031412 268.281298 
L 161.031412 267.248054 
L 161.483794 267.248054 
L 161.483794 266.731432 
L 161.961284 266.731432 
L 161.961284 266.21481 
L 162.914006 266.21481 
L 162.914006 265.698188 
L 163.555235 265.698188 
L 163.555235 265.181566 
L 164.045699 265.181566 
L 164.045699 264.148322 
L 164.710488 264.148322 
L 164.710488 263.6317 
L 166.027998 263.6317 
L 166.027998 263.115078 
L 167.942316 263.115078 
L 167.942316 262.081834 
L 170.363894 262.081834 
L 170.363894 261.565212 
L 170.744796 261.565212 
L 170.744796 261.04859 
L 173.681925 261.04859 
L 173.681925 260.531968 
L 176.479247 260.531968 
L 176.479247 260.015346 
L 179.69405 260.015346 
L 179.69405 259.498724 
L 181.299089 259.498724 
L 181.299089 258.982102 
L 183.611208 258.982102 
L 183.611208 258.46548 
L 185.580987 258.46548 
L 185.580987 257.432236 
L 186.263566 257.432236 
L 186.263566 256.915614 
L 186.448633 256.915614 
L 186.457837 255.88237 
L 186.695472 255.88237 
L 186.695472 254.332504 
L 187.632857 254.332504 
L 187.632857 252.266016 
L 188.719145 252.266016 
L 188.719145 251.749394 
L 188.888589 251.749394 
L 188.888589 251.232772 
L 189.167473 251.232772 
L 189.167473 250.71615 
L 190.181757 250.71615 
L 190.181757 250.199528 
L 190.747879 250.199528 
L 190.747879 249.682906 
L 190.920728 249.682906 
L 190.920728 248.649662 
L 191.58897 248.649662 
L 191.58897 248.13304 
L 191.863026 248.13304 
L 191.863026 247.616418 
L 192.738699 247.616418 
L 192.738699 247.099796 
L 194.992257 247.099796 
L 194.992257 246.583173 
L 195.337027 246.583173 
L 195.337027 246.066551 
L 196.077184 246.066551 
L 196.077184 245.549929 
L 197.033933 245.549929 
L 197.033933 245.033307 
L 197.659193 245.033307 
L 197.659193 244.516685 
L 197.966221 244.516685 
L 197.966221 244.000063 
L 198.320246 244.000063 
L 198.320246 243.483441 
L 198.555542 243.483441 
L 198.555542 242.966819 
L 199.21638 242.966819 
L 199.21638 241.933575 
L 200.548593 241.933575 
L 200.548593 239.350465 
L 200.953764 239.350465 
L 200.961938 237.800599 
L 209.142136 237.800599 
L 209.142136 237.283977 
L 209.37074 237.283977 
L 209.37074 236.767355 
L 209.722023 236.767355 
L 209.722023 235.734111 
L 210.044427 235.734111 
L 210.044427 235.217489 
L 210.893964 235.217489 
L 210.893964 234.184245 
L 211.110607 234.184245 
L 211.198377 230.051269 
L 212.017973 230.051269 
L 212.017973 229.534647 
L 213.293975 229.534647 
L 213.293975 229.018025 
L 213.781106 229.018025 
L 213.781106 228.501403 
L 214.373365 228.501403 
L 214.373365 227.468159 
L 214.555685 227.468159 
L 214.555685 224.885049 
L 214.843581 224.885049 
L 214.927931 221.268695 
L 215.106558 221.268695 
L 215.106558 218.168963 
L 215.43311 218.168963 
L 215.43311 217.652341 
L 216.219078 217.652341 
L 216.219078 216.619097 
L 217.114791 216.619097 
L 217.114791 213.519365 
L 217.335144 213.519365 
L 217.335144 212.48612 
L 217.630144 212.48612 
L 217.630144 211.969498 
L 219.287063 211.969498 
L 219.287063 211.452876 
L 220.532041 211.452876 
L 220.532041 209.90301 
L 221.318049 209.90301 
L 221.380713 208.869766 
L 221.436662 208.869766 
L 221.496322 204.220168 
L 221.699737 204.220168 
L 221.699737 203.703546 
L 222.958776 203.703546 
L 222.958776 203.186924 
L 223.398327 203.186924 
L 223.398327 199.57057 
L 223.987974 199.57057 
L 223.987974 198.537326 
L 225.353527 198.537326 
L 225.353527 196.470838 
L 226.330092 196.470838 
L 226.330092 195.954216 
L 226.751847 195.954216 
L 226.751847 194.920972 
L 226.948555 194.920972 
L 226.948555 194.40435 
L 228.732586 194.40435 
L 228.732586 193.887728 
L 229.046753 193.887728 
L 229.046753 191.82124 
L 230.040278 191.82124 
L 230.040278 190.271374 
L 231.088504 190.271374 
L 231.142166 187.171642 
L 231.330589 187.171642 
L 231.330589 186.138398 
L 233.45041 186.138398 
L 233.45041 185.621776 
L 234.462436 185.621776 
L 234.462436 185.105154 
L 237.647754 185.105154 
L 237.647754 184.07191 
L 239.385247 184.07191 
L 239.385247 183.555288 
L 240.374098 183.555288 
L 240.374098 183.038666 
L 241.297409 183.038666 
L 241.297409 182.005422 
L 241.499743 182.005422 
L 241.499743 181.4888 
L 241.941015 181.4888 
L 241.941015 180.972178 
L 243.894888 180.972178 
L 243.964616 179.422312 
L 244.788174 179.422312 
L 244.788174 178.90569 
L 245.063819 178.90569 
L 245.063819 177.355823 
L 246.911166 177.355823 
L 246.911166 176.322579 
L 248.029441 176.322579 
L 248.029441 173.739469 
L 249.142011 173.739469 
L 249.142011 172.189603 
L 249.318885 172.189603 
L 249.318885 171.672981 
L 250.657726 171.672981 
L 250.744605 169.606493 
L 252.104659 169.606493 
L 252.104659 169.089871 
L 252.541712 169.089871 
L 252.541712 167.540005 
L 254.047598 167.540005 
L 254.047598 165.990139 
L 254.979907 165.990139 
L 254.979907 163.407029 
L 255.55014 163.407029 
L 255.55014 162.373785 
L 256.072284 162.373785 
L 256.072284 160.823919 
L 256.239785 160.823919 
L 256.239785 159.274053 
L 256.654147 159.274053 
L 256.654147 158.757431 
L 257.207834 158.757431 
L 257.207834 158.240809 
L 258.224526 158.240809 
L 258.293517 157.207565 
L 261.695249 157.207565 
L 261.745003 155.141077 
L 262.029404 155.141077 
L 262.029404 154.624455 
L 262.239706 154.624455 
L 262.239706 153.074589 
L 262.90049 153.074589 
L 262.90049 152.041345 
L 263.054602 152.041345 
L 263.054602 151.008101 
L 263.374805 151.008101 
L 263.374805 147.908369 
L 265.928832 147.908369 
L 265.928832 146.875125 
L 266.310742 146.875125 
L 266.310742 146.358503 
L 266.546605 146.358503 
L 266.546605 145.841881 
L 266.800743 145.841881 
L 266.800743 145.325259 
L 268.276347 145.325259 
L 268.276347 144.292014 
L 269.301968 144.292014 
L 269.355928 142.742148 
L 269.632593 142.742148 
L 269.632593 139.125794 
L 270.093976 139.125794 
L 270.093976 138.609172 
L 271.76636 138.609172 
L 271.76636 138.09255 
L 272.139842 138.09255 
L 272.197798 135.50944 
L 272.389239 135.50944 
L 272.389239 133.959574 
L 274.252263 133.959574 
L 274.252263 133.442952 
L 276.204705 133.442952 
L 276.204705 132.92633 
L 278.002736 132.92633 
L 278.002736 132.409708 
L 278.349144 132.409708 
L 278.349144 131.893086 
L 278.486318 131.893086 
L 278.505775 130.859842 
L 279.046183 130.859842 
L 279.046183 130.34322 
L 279.888732 130.34322 
L 279.987965 129.309976 
L 280.215854 129.309976 
L 280.215854 128.793354 
L 280.710673 128.793354 
L 280.710673 128.276732 
L 281.853279 128.276732 
L 281.853279 127.76011 
L 283.193718 127.76011 
L 283.193718 127.243488 
L 283.531408 127.243488 
L 283.531408 126.726866 
L 286.313243 126.726866 
L 286.313243 126.210244 
L 286.545869 126.210244 
L 286.622991 125.177 
L 287.720208 125.177 
L 287.720208 124.660378 
L 289.309266 124.660378 
L 289.309266 124.143756 
L 289.962828 124.143756 
L 289.962828 123.627134 
L 290.476362 123.627134 
L 290.476362 123.110512 
L 290.791447 123.110512 
L 290.81126 122.077268 
L 291.68257 122.077268 
L 291.68257 121.560646 
L 292.520633 121.560646 
L 292.520633 121.044024 
L 294.780365 121.044024 
L 294.780365 120.527402 
L 295.922794 120.527402 
L 295.922794 120.01078 
L 297.253489 120.01078 
L 297.253489 119.494158 
L 297.476351 119.494158 
L 297.476351 118.977536 
L 300.801359 118.977536 
L 300.801359 118.460914 
L 301.397384 118.460914 
L 301.469549 117.42767 
L 303.154809 117.42767 
L 303.154809 116.911048 
L 305.999903 116.911048 
L 305.999903 116.394426 
L 307.168202 116.394426 
L 307.168202 115.877804 
L 309.17939 115.877804 
L 309.17939 115.361182 
L 313.133728 115.361182 
L 313.133728 114.84456 
L 318.228648 114.84456 
L 318.228648 114.327938 
L 320.097182 114.327938 
L 320.097182 113.811316 
L 322.328546 113.811316 
L 322.328546 113.294694 
L 324.700475 113.294694 
L 324.700475 112.778072 
L 326.912018 112.778072 
L 326.912018 112.26145 
L 358.8 112.26145 
L 358.8 112.26145 
" style="fill:none;stroke:#008000;stroke-linecap:square;stroke-width:1.5;"/>
   </g>
   <g id="line2d_30">
    <defs>
     <path d="M -0 6 
L 6 -6 
L -6 -6 
z
" id="mb128c50dce" style="stroke:#008000;stroke-linejoin:miter;stroke-width:1.5;"/>
    </defs>
    <g>
     <use style="fill:none;stroke:#008000;stroke-linejoin:miter;stroke-width:1.5;" x="145.018098" xlink:href="#mb128c50dce" y="274.480762"/>
     <use style="fill:none;stroke:#008000;stroke-linejoin:miter;stroke-width:1.5;" x="212.017973" xlink:href="#mb128c50dce" y="229.534647"/>
     <use style="fill:none;stroke:#008000;stroke-linejoin:miter;stroke-width:1.5;" x="256.239785" xlink:href="#mb128c50dce" y="159.274053"/>
     <use style="fill:none;stroke:#008000;stroke-linejoin:miter;stroke-width:1.5;" x="320.097182" xlink:href="#mb128c50dce" y="113.811316"/>
     <use style="fill:none;stroke:#008000;stroke-linejoin:miter;stroke-width:1.5;" x="326.912018" xlink:href="#mb128c50dce" y="112.26145"/>
     <use style="fill:none;stroke:#008000;stroke-linejoin:miter;stroke-width:1.5;" x="358.8" xlink:href="#mb128c50dce" y="112.26145"/>
    </g>
   </g>
   <g id="line2d_31"/>
   <g id="line2d_32">
    <path clip-path="url(#pa25bccdf7b)" d="M 269.301968 143.25877 
" style="fill:none;stroke:#008000;stroke-linecap:square;stroke-width:1.5;"/>
    <defs>
     <path d="M -12 12 
L 12 -12 
M -12 -12 
L 12 12 
" id="mb802174f22" style="stroke:#008000;stroke-width:3;"/>
    </defs>
    <g clip-path="url(#pa25bccdf7b)">
     <use style="fill:#008000;stroke:#008000;stroke-width:3;" x="269.301968" xlink:href="#mb802174f22" y="143.25877"/>
    </g>
   </g>
   <g id="line2d_33">
    <defs>
     <path d="M 0 1.5 
C 0.397805 1.5 0.77937 1.341951 1.06066 1.06066 
C 1.341951 0.77937 1.5 0.397805 1.5 0 
C 1.5 -0.397805 1.341951 -0.77937 1.06066 -1.06066 
C 0.77937 -1.341951 0.397805 -1.5 0 -1.5 
C -0.397805 -1.5 -0.77937 -1.341951 -1.06066 -1.06066 
C -1.341951 -0.77937 -1.5 -0.397805 -1.5 0 
C -1.5 0.397805 -1.341951 0.77937 -1.06066 1.06066 
C -0.77937 1.341951 -0.397805 1.5 0 1.5 
z
" id="mc548032627" style="stroke:#0000ff;"/>
    </defs>
    <g>
     <use style="fill:#0000ff;stroke:#0000ff;" x="350.723828" xlink:href="#mc548032627" y="107.095229"/>
     <use style="fill:#0000ff;stroke:#0000ff;" x="350.723828" xlink:href="#mc548032627" y="107.095229"/>
    </g>
   </g>
   <g id="line2d_34">
    <path d="M 42.042377 298.245375 
L 42.042377 297.728753 
L 121.839741 297.728753 
L 121.839741 296.695509 
L 122.245852 296.695509 
L 122.245852 295.145643 
L 123.222494 295.145643 
L 123.222494 294.112399 
L 123.598679 294.112399 
L 123.598679 293.595777 
L 123.783843 293.595777 
L 123.783843 293.079155 
L 123.967107 293.079155 
L 123.967107 292.045911 
L 124.148511 292.045911 
L 124.148511 290.496045 
L 133.914217 290.496045 
L 133.914217 289.462801 
L 135.028171 289.462801 
L 135.028171 288.946179 
L 135.416624 288.946179 
L 135.416624 288.429557 
L 141.94278 288.429557 
L 141.94278 287.912935 
L 142.468351 287.912935 
L 142.468351 287.396313 
L 143.718379 287.396313 
L 143.718379 286.879691 
L 147.413405 286.879691 
L 147.413405 285.846447 
L 148.087754 285.846447 
L 148.087754 285.329825 
L 150.597364 285.329825 
L 150.597364 284.813203 
L 151.517985 284.813203 
L 151.517985 284.296581 
L 152.1692 284.296581 
L 152.1692 283.779959 
L 153.957503 283.779959 
L 153.957503 283.263337 
L 155.675979 283.263337 
L 155.675979 282.746715 
L 156.580124 282.746715 
L 156.580124 281.713471 
L 158.527256 281.713471 
L 158.527256 280.680226 
L 159.300888 280.680226 
L 159.300888 279.646982 
L 160.258996 279.646982 
L 160.258996 279.13036 
L 162.67184 279.13036 
L 162.67184 278.097116 
L 163.023627 278.097116 
L 163.023627 277.580494 
L 163.528695 277.580494 
L 163.608197 276.54725 
L 164.535615 276.54725 
L 164.535615 275.514006 
L 165.381384 275.514006 
L 165.381384 274.997384 
L 166.994381 274.997384 
L 166.994381 274.480762 
L 167.527797 274.480762 
L 167.527797 272.414274 
L 169.543665 272.414274 
L 169.543665 271.38103 
L 169.727655 271.38103 
L 169.727655 270.864408 
L 170.172643 270.864408 
L 170.172643 270.347786 
L 170.593408 270.347786 
L 170.593408 269.831164 
L 171.148117 269.831164 
L 171.148117 268.79792 
L 171.836909 268.79792 
L 171.861917 267.764676 
L 172.608314 267.764676 
L 172.620294 266.731432 
L 173.393724 266.731432 
L 173.393724 266.21481 
L 174.66621 266.21481 
L 174.66621 265.181566 
L 176.845377 265.181566 
L 176.845377 264.664944 
L 178.625574 264.664944 
L 178.625574 264.148322 
L 179.090146 264.148322 
L 179.090146 263.6317 
L 179.305627 263.6317 
L 179.305627 263.115078 
L 179.551072 263.115078 
L 179.551072 262.598456 
L 180.500465 262.598456 
L 180.508168 261.565212 
L 183.078969 261.565212 
L 183.178735 258.982102 
L 184.538401 258.982102 
L 184.538401 258.46548 
L 184.951555 258.46548 
L 184.975563 257.432236 
L 185.97854 257.432236 
L 185.97854 256.915614 
L 186.662757 256.915614 
L 186.706364 255.88237 
L 186.997963 255.88237 
L 186.997963 254.849126 
L 187.489268 254.849126 
L 187.499687 252.266016 
L 188.536616 252.266016 
L 188.536616 251.749394 
L 190.489835 251.749394 
L 190.489835 251.232772 
L 191.395994 251.232772 
L 191.395994 250.199528 
L 191.834447 250.199528 
L 191.834447 249.166284 
L 193.334613 249.166284 
L 193.334613 248.649662 
L 199.208268 248.649662 
L 199.208268 247.616418 
L 200.001715 247.616418 
L 200.001715 247.099796 
L 200.481561 247.099796 
L 200.481561 246.583173 
L 201.180424 246.583173 
L 201.180424 246.066551 
L 201.84598 246.066551 
L 201.84598 245.549929 
L 203.400321 245.549929 
L 203.432375 244.000063 
L 203.517573 244.000063 
L 203.517573 243.483441 
L 211.248076 243.483441 
L 211.248076 242.450197 
L 213.090783 242.450197 
L 213.090783 241.933575 
L 215.154261 241.933575 
L 215.154261 241.416953 
L 217.088629 241.416953 
L 217.088629 240.900331 
L 217.474174 240.900331 
L 217.554751 239.350465 
L 217.917188 239.350465 
L 218.007132 237.800599 
L 218.137924 237.800599 
L 218.166028 234.700867 
L 218.264043 234.700867 
L 218.269628 232.634379 
L 218.375406 232.634379 
L 218.375406 232.117757 
L 218.546658 232.117757 
L 218.644436 230.051269 
L 218.823068 230.051269 
L 218.906781 229.018025 
L 219.283546 229.018025 
L 219.283546 228.501403 
L 219.547138 228.501403 
L 219.547138 227.984781 
L 219.743598 227.984781 
L 219.743598 226.434915 
L 219.976025 226.434915 
L 219.976025 225.918293 
L 220.107495 225.918293 
L 220.107495 223.851805 
L 220.925624 223.851805 
L 220.925624 223.335183 
L 221.238097 223.335183 
L 221.238097 222.301939 
L 222.013165 222.301939 
L 222.08021 220.235451 
L 224.897212 220.235451 
L 224.897212 218.685585 
L 225.219891 218.685585 
L 225.219891 216.619097 
L 226.123818 216.619097 
L 226.123818 215.069231 
L 226.353786 215.069231 
L 226.353786 214.552609 
L 228.460911 214.552609 
L 228.568962 213.002743 
L 228.581508 213.002743 
L 228.581508 212.48612 
L 229.853082 212.48612 
L 229.853082 211.969498 
L 231.556759 211.969498 
L 231.556759 210.936254 
L 232.313827 210.936254 
L 232.325697 209.386388 
L 233.946308 209.386388 
L 233.967195 208.353144 
L 235.155353 208.353144 
L 235.155353 207.836522 
L 235.450232 207.836522 
L 235.450232 207.3199 
L 236.077726 207.3199 
L 236.077726 206.803278 
L 236.270084 206.803278 
L 236.270084 204.220168 
L 236.386944 204.220168 
L 236.386944 203.186924 
L 236.580361 203.186924 
L 236.580361 202.15368 
L 236.859056 202.15368 
L 236.859056 201.637058 
L 237.350073 201.637058 
L 237.350073 201.120436 
L 237.800527 201.120436 
L 237.800527 198.020704 
L 239.974239 198.020704 
L 239.974239 196.470838 
L 240.355993 196.470838 
L 240.442302 192.337862 
L 240.714398 192.337862 
L 240.714398 191.304618 
L 241.400903 191.304618 
L 241.425622 189.754752 
L 242.310199 189.754752 
L 242.332966 188.721508 
L 242.473046 188.721508 
L 242.473046 186.65502 
L 243.516001 186.65502 
L 243.516001 186.138398 
L 243.63004 186.138398 
L 243.63004 185.621776 
L 243.7637 185.621776 
L 243.7637 185.105154 
L 244.640233 185.105154 
L 244.640233 184.588532 
L 245.792683 184.588532 
L 245.792683 183.555288 
L 246.433427 183.555288 
L 246.433427 183.038666 
L 247.172212 183.038666 
L 247.172212 182.522044 
L 247.342359 182.522044 
L 247.342359 181.4888 
L 248.352869 181.4888 
L 248.352869 180.972178 
L 248.968434 180.972178 
L 248.968434 180.455556 
L 249.605114 180.455556 
L 249.605114 179.938934 
L 250.280029 179.938934 
L 250.280029 179.422312 
L 250.789345 179.422312 
L 250.789345 178.389067 
L 251.099819 178.389067 
L 251.099819 177.355823 
L 251.521012 177.355823 
L 251.521012 176.839201 
L 252.45039 176.839201 
L 252.45039 175.805957 
L 253.20927 175.805957 
L 253.20927 175.289335 
L 253.331323 175.289335 
L 253.331323 174.256091 
L 253.781929 174.256091 
L 253.812129 173.222847 
L 254.954326 173.222847 
L 254.954326 172.706225 
L 255.667162 172.706225 
L 255.667162 172.189603 
L 255.865405 172.189603 
L 255.958459 168.056627 
L 257.007482 168.056627 
L 257.117447 165.990139 
L 257.372022 165.990139 
L 257.461202 162.890407 
L 257.556962 162.890407 
L 257.556962 162.373785 
L 257.844146 162.373785 
L 257.844146 161.857163 
L 258.018251 161.857163 
L 258.018251 161.340541 
L 258.465576 161.340541 
L 258.465576 160.823919 
L 259.202609 160.823919 
L 259.202609 159.790675 
L 259.643365 159.790675 
L 259.672739 157.724187 
L 261.365519 157.724187 
L 261.365519 157.207565 
L 262.188152 157.207565 
L 262.188152 155.657699 
L 262.584559 155.657699 
L 262.695027 153.591211 
L 262.786487 153.591211 
L 262.810665 152.557967 
L 264.769273 152.557967 
L 264.769273 152.041345 
L 265.083217 152.041345 
L 265.083217 151.524723 
L 265.256373 151.524723 
L 265.297459 149.974857 
L 266.206337 149.974857 
L 266.262559 146.875125 
L 267.979429 146.875125 
L 267.979429 145.841881 
L 268.403829 145.841881 
L 268.459276 144.808637 
L 269.26165 144.808637 
L 269.26165 144.292014 
L 269.92386 144.292014 
L 269.92386 143.25877 
L 270.919564 143.25877 
L 270.919564 140.67566 
L 271.063459 140.67566 
L 271.128551 139.125794 
L 271.70647 139.125794 
L 271.70647 138.09255 
L 273.343869 138.09255 
L 273.428844 136.542684 
L 274.415455 136.542684 
L 274.415455 136.026062 
L 274.675871 136.026062 
L 274.675871 135.50944 
L 277.500877 135.50944 
L 277.500877 134.992818 
L 279.173941 134.992818 
L 279.173941 134.476196 
L 280.696634 134.476196 
L 280.747829 133.442952 
L 280.896458 133.442952 
L 280.896458 132.409708 
L 282.535342 132.409708 
L 282.535342 131.893086 
L 284.923351 131.893086 
L 284.923351 131.376464 
L 286.204557 131.376464 
L 286.204557 130.859842 
L 288.336066 130.859842 
L 288.336066 130.34322 
L 290.536559 130.34322 
L 290.536559 129.826598 
L 291.17036 129.826598 
L 291.17036 129.309976 
L 291.682096 129.309976 
L 291.765256 128.276732 
L 292.079127 128.276732 
L 292.079127 127.76011 
L 292.392504 127.76011 
L 292.392504 127.243488 
L 293.18206 127.243488 
L 293.18206 126.726866 
L 293.739557 126.726866 
L 293.739557 126.210244 
L 293.899921 126.210244 
L 293.899921 125.693622 
L 295.408341 125.693622 
L 295.408341 125.177 
L 295.631922 125.177 
L 295.631922 124.660378 
L 295.957098 124.660378 
L 295.957098 124.143756 
L 296.775971 124.143756 
L 296.775971 123.627134 
L 302.487724 123.627134 
L 302.487724 123.110512 
L 303.108795 123.110512 
L 303.108795 122.59389 
L 305.343929 122.59389 
L 305.343929 122.077268 
L 306.218972 122.077268 
L 306.314905 121.044024 
L 308.203409 121.044024 
L 308.203409 120.527402 
L 309.660864 120.527402 
L 309.697323 119.494158 
L 310.512929 119.494158 
L 310.512929 118.977536 
L 311.254956 118.977536 
L 311.254956 118.460914 
L 313.665042 118.460914 
L 313.665042 117.944292 
L 314.10657 117.944292 
L 314.10657 117.42767 
L 317.270739 117.42767 
L 317.270739 116.911048 
L 317.84389 116.911048 
L 317.84389 116.394426 
L 319.111556 116.394426 
L 319.111556 115.877804 
L 320.297914 115.877804 
L 320.297914 115.361182 
L 321.500104 115.361182 
L 321.500104 114.84456 
L 321.819136 114.84456 
L 321.819136 114.327938 
L 322.500173 114.327938 
L 322.500173 113.811316 
L 323.052801 113.811316 
L 323.052801 113.294694 
L 323.259951 113.294694 
L 323.259951 112.778072 
L 324.626642 112.778072 
L 324.626642 112.26145 
L 324.841453 112.26145 
L 324.841453 111.744828 
L 326.254124 111.744828 
L 326.254124 111.228206 
L 326.483192 111.228206 
L 326.483192 110.711584 
L 327.122461 110.711584 
L 327.122461 110.194961 
L 327.87325 110.194961 
L 327.87325 109.678339 
L 330.650164 109.678339 
L 330.650164 109.161717 
L 331.740952 109.161717 
L 331.740952 108.645095 
L 334.022559 108.645095 
L 334.022559 108.128473 
L 336.750465 108.128473 
L 336.750465 107.611851 
L 350.723828 107.611851 
L 350.723828 107.095229 
L 358.8 107.095229 
L 358.8 107.095229 
" style="fill:none;stroke:#0000ff;stroke-linecap:square;stroke-width:1.5;"/>
   </g>
   <g id="line2d_35">
    <defs>
     <path d="M 0 -6 
L -1.347084 -1.854102 
L -5.706339 -1.854102 
L -2.179628 0.708204 
L -3.526712 4.854102 
L -0 2.291796 
L 3.526712 4.854102 
L 2.179628 0.708204 
L 5.706339 -1.854102 
L 1.347084 -1.854102 
z
" id="m67bb6885be" style="stroke:#0000ff;stroke-linejoin:bevel;stroke-width:1.5;"/>
    </defs>
    <g>
     <use style="fill:none;stroke:#0000ff;stroke-linejoin:bevel;stroke-width:1.5;" x="148.087754" xlink:href="#m67bb6885be" y="285.329825"/>
     <use style="fill:none;stroke:#0000ff;stroke-linejoin:bevel;stroke-width:1.5;" x="222.013165" xlink:href="#m67bb6885be" y="221.785317"/>
     <use style="fill:none;stroke:#0000ff;stroke-linejoin:bevel;stroke-width:1.5;" x="261.365519" xlink:href="#m67bb6885be" y="157.207565"/>
     <use style="fill:none;stroke:#0000ff;stroke-linejoin:bevel;stroke-width:1.5;" x="327.87325" xlink:href="#m67bb6885be" y="110.194961"/>
     <use style="fill:none;stroke:#0000ff;stroke-linejoin:bevel;stroke-width:1.5;" x="350.723828" xlink:href="#m67bb6885be" y="107.095229"/>
     <use style="fill:none;stroke:#0000ff;stroke-linejoin:bevel;stroke-width:1.5;" x="358.8" xlink:href="#m67bb6885be" y="107.095229"/>
    </g>
   </g>
   <g id="line2d_36"/>
   <g id="line2d_37">
    <path clip-path="url(#pa25bccdf7b)" d="M 272.858486 138.09255 
" style="fill:none;stroke:#0000ff;stroke-linecap:square;stroke-width:1.5;"/>
    <defs>
     <path d="M -12 12 
L 12 -12 
M -12 -12 
L 12 12 
" id="mc3b1d47806" style="stroke:#0000ff;stroke-width:3;"/>
    </defs>
    <g clip-path="url(#pa25bccdf7b)">
     <use style="fill:#0000ff;stroke:#0000ff;stroke-width:3;" x="272.858486" xlink:href="#mc3b1d47806" y="138.09255"/>
    </g>
   </g>
   <g id="line2d_38">
    <defs>
     <path d="M 0 1.5 
C 0.397805 1.5 0.77937 1.341951 1.06066 1.06066 
C 1.341951 0.77937 1.5 0.397805 1.5 0 
C 1.5 -0.397805 1.341951 -0.77937 1.06066 -1.06066 
C 0.77937 -1.341951 0.397805 -1.5 0 -1.5 
C -0.397805 -1.5 -0.77937 -1.341951 -1.06066 -1.06066 
C -1.341951 -0.77937 -1.5 -0.397805 -1.5 0 
C -1.5 0.397805 -1.341951 0.77937 -1.06066 1.06066 
C -0.77937 1.341951 -0.397805 1.5 0 1.5 
z
" id="m68bfa63a0c" style="stroke:#000000;"/>
    </defs>
    <g>
     <use style="stroke:#000000;" x="355.483846" xlink:href="#m68bfa63a0c" y="132.92633"/>
     <use style="stroke:#000000;" x="355.483846" xlink:href="#m68bfa63a0c" y="132.92633"/>
    </g>
   </g>
   <g id="line2d_39">
    <path d="M 157.801138 298.245375 
L 157.801138 297.212131 
L 158.114025 297.212131 
L 158.114025 296.695509 
L 158.918259 296.695509 
L 158.918259 295.662265 
L 159.059509 295.662265 
L 159.059509 295.145643 
L 160.881887 295.145643 
L 160.881887 294.112399 
L 163.795609 294.112399 
L 163.795609 293.079155 
L 165.435176 293.079155 
L 165.435176 292.562533 
L 165.929583 292.562533 
L 165.929583 292.045911 
L 166.478359 292.045911 
L 166.478359 291.529289 
L 168.420807 291.529289 
L 168.420807 291.012667 
L 168.654085 291.012667 
L 168.654085 290.496045 
L 168.921221 290.496045 
L 168.921221 289.979423 
L 169.220674 289.979423 
L 169.220674 289.462801 
L 169.755794 289.462801 
L 169.755794 288.946179 
L 169.951534 288.946179 
L 169.951534 288.429557 
L 171.251851 288.429557 
L 171.251851 287.912935 
L 171.380677 287.912935 
L 171.380677 287.396313 
L 171.793061 287.396313 
L 171.793061 286.879691 
L 172.103927 286.879691 
L 172.103927 285.846447 
L 172.781243 285.846447 
L 172.781243 285.329825 
L 174.085479 285.329825 
L 174.085479 284.813203 
L 174.505283 284.813203 
L 174.505283 284.296581 
L 174.687558 284.296581 
L 174.692891 283.263337 
L 177.080178 283.263337 
L 177.080178 282.746715 
L 177.339544 282.746715 
L 177.339544 281.196849 
L 178.174948 281.196849 
L 178.179336 280.163604 
L 178.625574 280.163604 
L 178.625574 279.646982 
L 178.740729 279.646982 
L 178.740729 279.13036 
L 179.51854 279.13036 
L 179.51854 278.613738 
L 180.581186 278.613738 
L 180.581186 278.097116 
L 180.904238 278.097116 
L 180.904238 277.580494 
L 181.36161 277.580494 
L 181.36161 276.54725 
L 182.263617 276.54725 
L 182.315898 275.514006 
L 182.544138 275.514006 
L 182.544138 274.997384 
L 182.961866 274.997384 
L 182.961866 274.480762 
L 184.297062 274.480762 
L 184.405758 273.447518 
L 184.879336 273.447518 
L 184.966564 271.897652 
L 185.793288 271.897652 
L 185.793288 270.864408 
L 186.925508 270.864408 
L 186.979206 269.831164 
L 190.632439 269.831164 
L 190.632439 269.314542 
L 193.634517 269.314542 
L 193.634517 268.79792 
L 193.836564 268.79792 
L 193.836564 268.281298 
L 201.683078 268.281298 
L 201.683078 266.731432 
L 202.978296 266.731432 
L 202.978296 265.181566 
L 203.418492 265.181566 
L 203.418492 264.664944 
L 205.257444 264.664944 
L 205.257444 263.6317 
L 205.755503 263.6317 
L 205.755503 263.115078 
L 210.756803 263.115078 
L 210.756803 262.598456 
L 211.551535 262.598456 
L 211.551535 262.081834 
L 211.895854 262.081834 
L 211.895854 261.565212 
L 212.022374 261.565212 
L 212.034251 260.531968 
L 217.808653 260.531968 
L 217.808653 259.498724 
L 218.085816 259.498724 
L 218.136518 257.948858 
L 218.231897 257.948858 
L 218.246347 255.88237 
L 218.413296 255.88237 
L 218.498027 254.332504 
L 219.171525 254.332504 
L 219.171525 253.29926 
L 219.350685 253.29926 
L 219.350685 252.782638 
L 219.744454 252.782638 
L 219.744454 252.266016 
L 219.900159 252.266016 
L 219.900159 250.71615 
L 220.122603 250.71615 
L 220.210477 249.166284 
L 220.408073 249.166284 
L 220.411375 247.616418 
L 220.682143 247.616418 
L 220.744237 246.583173 
L 220.839594 246.583173 
L 220.861744 245.549929 
L 221.120666 245.549929 
L 221.120666 244.516685 
L 221.260939 244.516685 
L 221.290827 243.483441 
L 221.802492 243.483441 
L 221.802492 242.966819 
L 223.557671 242.966819 
L 223.557671 241.933575 
L 223.7076 241.933575 
L 223.7076 241.416953 
L 224.149982 241.416953 
L 224.149982 239.867087 
L 224.36002 239.867087 
L 224.36002 239.350465 
L 224.685309 239.350465 
L 224.685309 238.833843 
L 227.440898 238.833843 
L 227.440898 238.317221 
L 228.557715 238.317221 
L 228.631604 236.250733 
L 228.818739 236.250733 
L 228.818739 235.217489 
L 229.050316 235.217489 
L 229.050316 234.700867 
L 230.39213 234.700867 
L 230.39213 234.184245 
L 230.938992 234.184245 
L 230.938992 233.667623 
L 231.430002 233.667623 
L 231.472503 232.634379 
L 231.769395 232.634379 
L 231.769395 232.117757 
L 231.887913 232.117757 
L 231.995078 231.084513 
L 232.187222 231.084513 
L 232.291975 230.051269 
L 232.321459 230.051269 
L 232.423111 226.951537 
L 232.484541 226.951537 
L 232.484541 226.434915 
L 232.805069 226.434915 
L 232.805069 225.401671 
L 234.615381 225.401671 
L 234.615381 224.885049 
L 234.831969 224.885049 
L 234.831969 224.368427 
L 235.057423 224.368427 
L 235.057423 223.851805 
L 235.683874 223.851805 
L 235.683874 223.335183 
L 236.101584 223.335183 
L 236.183728 221.785317 
L 236.620061 221.785317 
L 236.680442 220.235451 
L 237.244353 220.235451 
L 237.244353 219.718829 
L 237.403417 219.718829 
L 237.403417 219.202207 
L 237.525158 219.202207 
L 237.586667 217.652341 
L 238.339608 217.652341 
L 238.404412 216.102475 
L 238.47424 216.102475 
L 238.47424 215.069231 
L 238.85702 215.069231 
L 238.918659 213.002743 
L 239.049014 213.002743 
L 239.128685 211.452876 
L 240.686418 211.452876 
L 240.686418 210.936254 
L 241.22433 210.936254 
L 241.22433 210.419632 
L 241.519978 210.419632 
L 241.614972 209.386388 
L 241.631217 209.386388 
L 241.631217 207.836522 
L 242.756457 207.836522 
L 242.756457 206.803278 
L 243.441654 206.803278 
L 243.441654 206.286656 
L 244.029157 206.286656 
L 244.109543 204.73679 
L 244.463327 204.73679 
L 244.463327 204.220168 
L 244.604352 204.220168 
L 244.604352 203.703546 
L 244.828038 203.703546 
L 244.828038 203.186924 
L 245.61117 203.186924 
L 245.711025 200.603814 
L 245.97701 200.603814 
L 245.97701 200.087192 
L 246.186593 200.087192 
L 246.186593 199.57057 
L 246.302103 199.57057 
L 246.302103 199.053948 
L 247.431561 199.053948 
L 247.499485 198.020704 
L 248.087009 198.020704 
L 248.197612 196.98746 
L 248.565461 196.98746 
L 248.636617 195.437594 
L 248.788292 195.437594 
L 248.788292 194.40435 
L 248.97002 194.40435 
L 249.010376 191.82124 
L 249.128502 191.82124 
L 249.128502 191.304618 
L 249.869163 191.304618 
L 249.869163 190.271374 
L 251.449296 190.271374 
L 251.454889 188.721508 
L 251.636142 188.721508 
L 251.636142 187.171642 
L 251.883712 187.171642 
L 251.883712 186.65502 
L 252.682054 186.65502 
L 252.682054 186.138398 
L 252.893001 186.138398 
L 252.994783 184.07191 
L 253.123135 184.07191 
L 253.123135 183.555288 
L 253.542025 183.555288 
L 253.542025 182.522044 
L 253.850729 182.522044 
L 253.898308 180.455556 
L 254.539646 180.455556 
L 254.539646 179.938934 
L 255.16189 179.938934 
L 255.242576 178.90569 
L 255.601108 178.90569 
L 255.601108 177.872445 
L 257.530356 177.872445 
L 257.530356 177.355823 
L 258.019006 177.355823 
L 258.019006 176.839201 
L 258.14428 176.839201 
L 258.14428 176.322579 
L 258.273542 176.322579 
L 258.273542 174.772713 
L 258.39375 174.772713 
L 258.419643 173.222847 
L 259.350397 173.222847 
L 259.376433 172.189603 
L 259.943897 172.189603 
L 259.943897 171.672981 
L 260.265695 171.672981 
L 260.265695 171.156359 
L 260.943564 171.156359 
L 260.943564 170.639737 
L 261.591383 170.639737 
L 261.591383 168.573249 
L 261.964147 168.573249 
L 262.01635 167.540005 
L 262.162718 167.540005 
L 262.220033 165.473517 
L 262.680345 165.473517 
L 262.680345 164.440273 
L 262.925482 164.440273 
L 262.925482 163.923651 
L 263.383402 163.923651 
L 263.383402 163.407029 
L 265.220302 163.407029 
L 265.220302 162.373785 
L 265.352573 162.373785 
L 265.352573 161.340541 
L 265.839016 161.340541 
L 265.852001 159.274053 
L 266.109871 159.274053 
L 266.109871 158.757431 
L 266.232882 158.757431 
L 266.232882 157.724187 
L 266.684474 157.724187 
L 266.684474 157.207565 
L 267.400458 157.207565 
L 267.400458 156.174321 
L 268.810078 156.174321 
L 268.810078 154.624455 
L 269.336998 154.624455 
L 269.336998 154.107833 
L 270.86116 154.107833 
L 270.86116 153.074589 
L 271.051916 153.074589 
L 271.128551 149.974857 
L 271.203342 149.974857 
L 271.265267 147.908369 
L 271.946926 147.908369 
L 272.012262 146.875125 
L 273.18708 146.875125 
L 273.18708 145.841881 
L 273.976843 145.841881 
L 274.045374 144.808637 
L 274.549468 144.808637 
L 274.549468 143.25877 
L 275.039381 143.25877 
L 275.039381 142.742148 
L 283.457115 142.742148 
L 283.457115 142.225526 
L 285.711096 142.225526 
L 285.711096 141.192282 
L 291.185632 141.192282 
L 291.185632 140.67566 
L 292.342942 140.67566 
L 292.342942 140.159038 
L 295.745944 140.159038 
L 295.745944 139.642416 
L 296.120273 139.642416 
L 296.120273 139.125794 
L 300.870185 139.125794 
L 300.939962 138.09255 
L 303.179736 138.09255 
L 303.179736 137.575928 
L 303.898209 137.575928 
L 303.898209 137.059306 
L 304.280511 137.059306 
L 304.280511 136.542684 
L 316.982686 136.542684 
L 316.982686 136.026062 
L 318.230021 136.026062 
L 318.230021 135.50944 
L 319.3572 135.50944 
L 319.3572 134.992818 
L 320.455724 134.992818 
L 320.455724 134.476196 
L 323.149847 134.476196 
L 323.149847 133.959574 
L 345.594708 133.959574 
L 345.594708 133.442952 
L 355.483846 133.442952 
L 355.483846 132.92633 
L 358.8 132.92633 
L 358.8 132.92633 
" style="fill:none;stroke:#000000;stroke-linecap:square;stroke-width:1.5;"/>
   </g>
   <g id="line2d_40">
    <defs>
     <path d="M 0 6 
C 1.591219 6 3.117479 5.367802 4.242641 4.242641 
C 5.367802 3.117479 6 1.591219 6 0 
C 6 -1.591219 5.367802 -3.117479 4.242641 -4.242641 
C 3.117479 -5.367802 1.591219 -6 0 -6 
C -1.591219 -6 -3.117479 -5.367802 -4.242641 -4.242641 
C -5.367802 -3.117479 -6 -1.591219 -6 0 
C -6 1.591219 -5.367802 3.117479 -4.242641 4.242641 
C -3.117479 5.367802 -1.591219 6 0 6 
z
" id="mbe35a5fb30" style="stroke:#000000;stroke-width:1.5;"/>
    </defs>
    <g>
     <use style="fill:none;stroke:#000000;stroke-width:1.5;" x="239.128685" xlink:href="#mbe35a5fb30" y="211.452876"/>
     <use style="fill:none;stroke:#000000;stroke-width:1.5;" x="265.220302" xlink:href="#mbe35a5fb30" y="162.373785"/>
     <use style="fill:none;stroke:#000000;stroke-width:1.5;" x="323.149847" xlink:href="#mbe35a5fb30" y="133.959574"/>
     <use style="fill:none;stroke:#000000;stroke-width:1.5;" x="355.483846" xlink:href="#mbe35a5fb30" y="132.92633"/>
     <use style="fill:none;stroke:#000000;stroke-width:1.5;" x="358.8" xlink:href="#mbe35a5fb30" y="132.92633"/>
    </g>
   </g>
   <g id="line2d_41"/>
   <g id="line2d_42">
    <path clip-path="url(#pa25bccdf7b)" d="M 272.918 146.875125 
" style="fill:none;stroke:#000000;stroke-linecap:square;stroke-width:1.5;"/>
    <defs>
     <path d="M -12 12 
L 12 -12 
M -12 -12 
L 12 12 
" id="meca1b6c6af" style="stroke:#000000;stroke-width:3;"/>
    </defs>
    <g clip-path="url(#pa25bccdf7b)">
     <use style="stroke:#000000;stroke-width:3;" x="272.918" xlink:href="#meca1b6c6af" y="146.875125"/>
    </g>
   </g>
   <g id="line2d_43">
    <defs>
     <path d="M 0 1.5 
C 0.397805 1.5 0.77937 1.341951 1.06066 1.06066 
C 1.341951 0.77937 1.5 0.397805 1.5 0 
C 1.5 -0.397805 1.341951 -0.77937 1.06066 -1.06066 
C 0.77937 -1.341951 0.397805 -1.5 0 -1.5 
C -0.397805 -1.5 -0.77937 -1.341951 -1.06066 -1.06066 
C -1.341951 -0.77937 -1.5 -0.397805 -1.5 0 
C -1.5 0.397805 -1.341951 0.77937 -1.06066 1.06066 
C -0.77937 1.341951 -0.397805 1.5 0 1.5 
z
" id="mfadfee2893" style="stroke:#ff0000;"/>
    </defs>
    <g>
     <use style="fill:#ff0000;stroke:#ff0000;" x="344.876757" xlink:href="#mfadfee2893" y="153.591211"/>
     <use style="fill:#ff0000;stroke:#ff0000;" x="344.876757" xlink:href="#mfadfee2893" y="153.591211"/>
    </g>
   </g>
   <g id="line2d_44">
    <path d="M 169.829448 298.245375 
L 169.829448 297.728753 
L 169.829448 297.728753 
L 169.829448 297.728753 
L 169.864415 297.728753 
L 169.864415 297.212131 
L 169.982793 297.212131 
L 169.982793 296.178887 
L 170.583344 296.178887 
L 170.583344 295.662265 
L 170.91249 295.662265 
L 170.91249 295.145643 
L 171.232446 295.145643 
L 171.326039 294.112399 
L 171.59123 294.112399 
L 171.59123 293.595777 
L 172.890691 293.595777 
L 172.890691 293.079155 
L 174.623438 293.079155 
L 174.623438 292.562533 
L 174.99689 292.562533 
L 174.99689 291.529289 
L 176.072581 291.529289 
L 176.072581 291.012667 
L 176.300641 291.012667 
L 176.300641 289.979423 
L 177.049828 289.979423 
L 177.049828 288.429557 
L 177.735164 288.429557 
L 177.735164 287.912935 
L 178.058285 287.912935 
L 178.058285 287.396313 
L 178.393014 287.396313 
L 178.393014 286.879691 
L 178.8868 286.879691 
L 178.8868 285.846447 
L 180.232642 285.846447 
L 180.232642 285.329825 
L 180.672994 285.329825 
L 180.672994 284.813203 
L 193.180857 284.813203 
L 193.180857 284.296581 
L 199.629217 284.296581 
L 199.629217 283.263337 
L 208.498231 283.263337 
L 208.498231 282.746715 
L 217.645088 282.746715 
L 217.711462 281.196849 
L 217.928811 281.196849 
L 217.928811 280.163604 
L 218.160411 280.163604 
L 218.160411 279.646982 
L 218.384655 279.646982 
L 218.384655 278.613738 
L 218.580072 278.613738 
L 218.580072 278.097116 
L 218.705844 278.097116 
L 218.765684 276.54725 
L 218.866324 276.54725 
L 218.924733 273.96414 
L 219.081045 273.96414 
L 219.175949 272.414274 
L 219.271891 272.414274 
L 219.271891 271.897652 
L 219.56554 271.897652 
L 219.56554 270.864408 
L 221.298488 270.864408 
L 221.298488 269.831164 
L 221.619806 269.831164 
L 221.680653 268.79792 
L 221.753358 268.79792 
L 221.753358 268.281298 
L 221.942459 268.281298 
L 221.942459 267.248054 
L 222.126392 267.248054 
L 222.126392 266.731432 
L 225.951044 266.731432 
L 225.951044 266.21481 
L 227.408004 266.21481 
L 227.513995 264.664944 
L 229.559781 264.664944 
L 229.559781 264.148322 
L 230.57862 264.148322 
L 230.653 262.598456 
L 230.92857 262.598456 
L 230.976964 259.498724 
L 231.313219 259.498724 
L 231.318151 257.948858 
L 231.592338 257.948858 
L 231.608447 256.398992 
L 231.948502 256.398992 
L 231.948502 255.365748 
L 233.301532 255.365748 
L 233.301532 254.849126 
L 233.75291 254.849126 
L 233.75291 254.332504 
L 234.09748 254.332504 
L 234.09748 253.815882 
L 234.243863 253.815882 
L 234.243863 252.782638 
L 235.054786 252.782638 
L 235.054786 252.266016 
L 235.203305 252.266016 
L 235.203305 251.749394 
L 235.70879 251.749394 
L 235.70879 251.232772 
L 235.889264 251.232772 
L 235.889264 250.71615 
L 236.100126 250.71615 
L 236.162971 249.682906 
L 236.290208 249.682906 
L 236.290208 248.649662 
L 236.790862 248.649662 
L 236.790862 248.13304 
L 236.902817 248.13304 
L 236.902817 247.616418 
L 237.796861 247.616418 
L 237.796861 247.099796 
L 237.982085 247.099796 
L 238.023414 246.066551 
L 238.302189 246.066551 
L 238.304388 245.033307 
L 238.702948 245.033307 
L 238.702948 244.000063 
L 239.02602 244.000063 
L 239.02602 243.483441 
L 239.191416 243.483441 
L 239.191416 242.966819 
L 240.598216 242.966819 
L 240.601483 241.933575 
L 241.118683 241.933575 
L 241.144442 240.900331 
L 241.430396 240.900331 
L 241.453739 239.350465 
L 241.731382 239.350465 
L 241.731382 238.833843 
L 243.23113 238.833843 
L 243.23113 237.800599 
L 243.573902 237.800599 
L 243.573902 236.767355 
L 243.8479 236.767355 
L 243.927 235.217489 
L 244.085476 235.217489 
L 244.085476 234.700867 
L 244.539649 234.700867 
L 244.539649 234.184245 
L 244.768472 234.184245 
L 244.768472 232.634379 
L 244.964763 232.634379 
L 244.990074 231.084513 
L 246.448237 231.084513 
L 246.448237 230.567891 
L 247.464148 230.567891 
L 247.464148 229.534647 
L 248.299866 229.534647 
L 248.30853 227.984781 
L 248.568108 227.984781 
L 248.572547 226.434915 
L 248.932709 226.434915 
L 248.932709 224.885049 
L 249.373621 224.885049 
L 249.373621 223.851805 
L 249.730228 223.851805 
L 249.730228 222.818561 
L 250.153446 222.818561 
L 250.153446 222.301939 
L 250.612198 222.301939 
L 250.612198 221.785317 
L 251.367073 221.785317 
L 251.367073 219.718829 
L 251.588658 219.718829 
L 251.593776 218.685585 
L 251.837202 218.685585 
L 251.837202 218.168963 
L 252.373485 218.168963 
L 252.373485 217.652341 
L 252.544024 217.652341 
L 252.544024 217.135719 
L 253.284208 217.135719 
L 253.378183 215.585853 
L 253.715519 215.585853 
L 253.715519 215.069231 
L 253.969029 215.069231 
L 254.066321 213.519365 
L 254.380331 213.519365 
L 254.487956 212.48612 
L 255.035091 212.48612 
L 255.035091 211.452876 
L 255.183275 211.452876 
L 255.183275 210.936254 
L 255.62879 210.936254 
L 255.62879 210.419632 
L 255.796806 210.419632 
L 255.796806 209.90301 
L 256.006662 209.90301 
L 256.006662 208.869766 
L 256.422589 208.869766 
L 256.527016 207.836522 
L 256.632659 207.836522 
L 256.632659 206.803278 
L 256.811327 206.803278 
L 256.811327 205.253412 
L 257.699825 205.253412 
L 257.699825 204.220168 
L 258.383796 204.220168 
L 258.383796 203.703546 
L 258.529344 203.703546 
L 258.529344 203.186924 
L 259.630384 203.186924 
L 259.630384 202.670302 
L 260.450787 202.670302 
L 260.471914 201.120436 
L 260.738881 201.120436 
L 260.738881 200.603814 
L 260.866005 200.603814 
L 260.866005 199.053948 
L 261.083278 199.053948 
L 261.083278 198.020704 
L 261.32825 198.020704 
L 261.368 196.98746 
L 261.565105 196.98746 
L 261.565105 195.437594 
L 261.692116 195.437594 
L 261.692116 194.920972 
L 262.137328 194.920972 
L 262.20195 193.371106 
L 262.283882 193.371106 
L 262.283882 192.854484 
L 263.131099 192.854484 
L 263.210938 190.787996 
L 263.865855 190.787996 
L 263.865855 189.23813 
L 263.988233 189.23813 
L 264.050438 188.204886 
L 264.317616 188.204886 
L 264.317616 187.688264 
L 265.452108 187.688264 
L 265.452108 187.171642 
L 265.944168 187.171642 
L 265.944168 186.138398 
L 266.163719 186.138398 
L 266.163719 185.621776 
L 267.126203 185.621776 
L 267.147524 184.588532 
L 268.161534 184.588532 
L 268.161534 184.07191 
L 268.280932 184.07191 
L 268.280932 183.555288 
L 268.540814 183.555288 
L 268.540814 183.038666 
L 268.974417 183.038666 
L 268.974417 182.522044 
L 269.318284 182.522044 
L 269.318284 181.4888 
L 269.509095 181.4888 
L 269.509095 180.972178 
L 269.736706 180.972178 
L 269.804399 179.422312 
L 269.912139 179.422312 
L 269.912139 178.90569 
L 270.033876 178.90569 
L 270.033876 178.389067 
L 271.425454 178.389067 
L 271.425454 177.872445 
L 271.638114 177.872445 
L 271.638114 177.355823 
L 271.823839 177.355823 
L 271.823839 176.322579 
L 272.081643 176.322579 
L 272.087253 175.289335 
L 272.765062 175.289335 
L 272.766957 174.256091 
L 273.121955 174.256091 
L 273.194935 173.222847 
L 273.243559 173.222847 
L 273.320649 171.672981 
L 273.391111 171.672981 
L 273.391111 171.156359 
L 273.654081 171.156359 
L 273.654081 170.639737 
L 274.160006 170.639737 
L 274.160006 169.606493 
L 274.466013 169.606493 
L 274.466013 169.089871 
L 274.908957 169.089871 
L 274.908957 168.056627 
L 275.03121 168.056627 
L 275.03121 167.540005 
L 275.17438 167.540005 
L 275.17438 166.506761 
L 284.105239 166.506761 
L 284.105239 165.990139 
L 284.447632 165.990139 
L 284.447632 165.473517 
L 285.417921 165.473517 
L 285.417921 164.956895 
L 285.572072 164.956895 
L 285.572072 164.440273 
L 286.291567 164.440273 
L 286.399962 162.890407 
L 286.680928 162.890407 
L 286.680928 162.373785 
L 287.721897 162.373785 
L 287.721897 161.857163 
L 292.842285 161.857163 
L 292.842285 161.340541 
L 293.487091 161.340541 
L 293.487091 160.823919 
L 294.174377 160.823919 
L 294.174377 160.307297 
L 299.123701 160.307297 
L 299.123701 159.790675 
L 299.50782 159.790675 
L 299.50782 159.274053 
L 301.481922 159.274053 
L 301.481922 158.757431 
L 302.917368 158.757431 
L 302.917368 158.240809 
L 306.106204 158.240809 
L 306.106204 157.724187 
L 309.437575 157.724187 
L 309.437575 157.207565 
L 316.857738 157.207565 
L 316.857738 156.690943 
L 319.967405 156.690943 
L 319.967405 156.174321 
L 325.431647 156.174321 
L 325.431647 155.657699 
L 328.990938 155.657699 
L 328.990938 155.141077 
L 337.179828 155.141077 
L 337.179828 154.624455 
L 337.666343 154.624455 
L 337.666343 154.107833 
L 344.876757 154.107833 
L 344.876757 153.591211 
L 358.8 153.591211 
L 358.8 153.591211 
" style="fill:none;stroke:#ff0000;stroke-linecap:square;stroke-width:1.5;"/>
   </g>
   <g id="line2d_45">
    <defs>
     <path d="M -6 6 
L 6 6 
L 6 -6 
L -6 -6 
z
" id="m305c91f022" style="stroke:#ff0000;stroke-linejoin:miter;stroke-width:1.5;"/>
    </defs>
    <g>
     <use style="fill:none;stroke:#ff0000;stroke-linejoin:miter;stroke-width:1.5;" x="260.866005" xlink:href="#m305c91f022" y="199.053948"/>
     <use style="fill:none;stroke:#ff0000;stroke-linejoin:miter;stroke-width:1.5;" x="344.876757" xlink:href="#m305c91f022" y="154.107833"/>
     <use style="fill:none;stroke:#ff0000;stroke-linejoin:miter;stroke-width:1.5;" x="344.876757" xlink:href="#m305c91f022" y="153.591211"/>
     <use style="fill:none;stroke:#ff0000;stroke-linejoin:miter;stroke-width:1.5;" x="358.8" xlink:href="#m305c91f022" y="153.591211"/>
    </g>
   </g>
   <g id="line2d_46"/>
   <g id="line2d_47">
    <path clip-path="url(#pa25bccdf7b)" d="M 274.466013 169.089871 
" style="fill:none;stroke:#ff0000;stroke-linecap:square;stroke-width:1.5;"/>
    <defs>
     <path d="M -12 12 
L 12 -12 
M -12 -12 
L 12 12 
" id="m563f3440d8" style="stroke:#ff0000;stroke-width:3;"/>
    </defs>
    <g clip-path="url(#pa25bccdf7b)">
     <use style="fill:#ff0000;stroke:#ff0000;stroke-width:3;" x="274.466013" xlink:href="#m563f3440d8" y="169.089871"/>
    </g>
   </g>
   <g id="line2d_48">
    <path d="M 358.8 153.591211 
L 390.48 292.97583 
" style="fill:none;stroke:#ff0000;stroke-linecap:square;stroke-width:1.5;"/>
    <g>
     <use style="fill:none;stroke:#ff0000;stroke-linejoin:miter;stroke-width:1.5;" x="358.8" xlink:href="#m305c91f022" y="153.591211"/>
     <use style="fill:none;stroke:#ff0000;stroke-linejoin:miter;stroke-width:1.5;" x="390.48" xlink:href="#m305c91f022" y="292.97583"/>
    </g>
   </g>
   <g id="line2d_49">
    <path d="M 358.8 132.92633 
L 390.48 229.741296 
" style="fill:none;stroke:#000000;stroke-linecap:square;stroke-width:1.5;"/>
    <g>
     <use style="fill:none;stroke:#000000;stroke-width:1.5;" x="358.8" xlink:href="#mbe35a5fb30" y="132.92633"/>
     <use style="fill:none;stroke:#000000;stroke-width:1.5;" x="390.48" xlink:href="#mbe35a5fb30" y="229.741296"/>
    </g>
   </g>
   <g id="line2d_50">
    <path d="M 358.8 112.26145 
L 390.48 166.506761 
" style="fill:none;stroke:#008000;stroke-linecap:square;stroke-width:1.5;"/>
    <g>
     <use style="fill:none;stroke:#008000;stroke-linejoin:miter;stroke-width:1.5;" x="358.8" xlink:href="#mb128c50dce" y="112.26145"/>
     <use style="fill:none;stroke:#008000;stroke-linejoin:miter;stroke-width:1.5;" x="390.48" xlink:href="#mb128c50dce" y="166.506761"/>
    </g>
   </g>
   <g id="line2d_51">
    <path d="M 358.8 112.26145 
L 390.48 103.272226 
" style="fill:none;stroke:#00bfbf;stroke-linecap:square;stroke-width:1.5;"/>
    <g>
     <use style="fill:none;stroke:#00bfbf;stroke-width:1.5;" x="358.8" xlink:href="#m996a724b8b" y="112.26145"/>
     <use style="fill:none;stroke:#00bfbf;stroke-width:1.5;" x="390.48" xlink:href="#m996a724b8b" y="103.272226"/>
    </g>
   </g>
   <g id="line2d_52">
    <path d="M 358.8 107.095229 
L 390.48 40.037692 
" style="fill:none;stroke:#0000ff;stroke-linecap:square;stroke-width:1.5;"/>
    <g>
     <use style="fill:none;stroke:#0000ff;stroke-linejoin:bevel;stroke-width:1.5;" x="358.8" xlink:href="#m67bb6885be" y="107.095229"/>
     <use style="fill:none;stroke:#0000ff;stroke-linejoin:bevel;stroke-width:1.5;" x="390.48" xlink:href="#m67bb6885be" y="40.037692"/>
    </g>
   </g>
   <g id="line2d_53">
    <path d="M 358.8 298.245375 
L 358.8 34.768147 
" style="fill:none;stroke:#000000;stroke-linecap:square;stroke-width:1.5;"/>
   </g>
   <g id="patch_3">
    <path d="M 70.8 298.245375 
L 70.8 32.133375 
" style="fill:none;stroke:#000000;stroke-linecap:square;stroke-linejoin:miter;stroke-width:0.8;"/>
   </g>
   <g id="patch_4">
    <path d="M 427.92 298.245375 
L 427.92 32.133375 
" style="fill:none;stroke:#000000;stroke-linecap:square;stroke-linejoin:miter;stroke-width:0.8;"/>
   </g>
   <g id="patch_5">
    <path d="M 70.8 298.245375 
L 427.92 298.245375 
" style="fill:none;stroke:#000000;stroke-linecap:square;stroke-linejoin:miter;stroke-width:0.8;"/>
   </g>
   <g id="patch_6">
    <path d="M 70.8 32.133375 
L 427.92 32.133375 
" style="fill:none;stroke:#000000;stroke-linecap:square;stroke-linejoin:miter;stroke-width:0.8;"/>
   </g>
   <g id="text_14">
    <!-- 20-D -->
    <defs>
     <path d="M 19.671875 64.796875 
L 19.671875 8.109375 
L 31.59375 8.109375 
Q 46.6875 8.109375 53.6875 14.9375 
Q 60.6875 21.78125 60.6875 36.53125 
Q 60.6875 51.171875 53.6875 57.984375 
Q 46.6875 64.796875 31.59375 64.796875 
z
M 9.8125 72.90625 
L 30.078125 72.90625 
Q 51.265625 72.90625 61.171875 64.09375 
Q 71.09375 55.28125 71.09375 36.53125 
Q 71.09375 17.671875 61.125 8.828125 
Q 51.171875 0 30.078125 0 
L 9.8125 0 
z
" id="DejaVuSans-44"/>
    </defs>
    <g transform="translate(396.24 297.114893)scale(0.15 -0.15)">
     <use xlink:href="#DejaVuSans-32"/>
     <use x="63.623047" xlink:href="#DejaVuSans-30"/>
     <use x="127.246094" xlink:href="#DejaVuSans-2d"/>
     <use x="163.330078" xlink:href="#DejaVuSans-44"/>
    </g>
   </g>
   <g id="text_15">
    <!-- 10-D -->
    <g transform="translate(396.24 233.880358)scale(0.15 -0.15)">
     <use xlink:href="#DejaVuSans-31"/>
     <use x="63.623047" xlink:href="#DejaVuSans-30"/>
     <use x="127.246094" xlink:href="#DejaVuSans-2d"/>
     <use x="163.330078" xlink:href="#DejaVuSans-44"/>
    </g>
   </g>
   <g id="text_16">
    <!-- 3-D -->
    <defs>
     <path d="M 40.578125 39.3125 
Q 47.65625 37.796875 51.625 33 
Q 55.609375 28.21875 55.609375 21.1875 
Q 55.609375 10.40625 48.1875 4.484375 
Q 40.765625 -1.421875 27.09375 -1.421875 
Q 22.515625 -1.421875 17.65625 -0.515625 
Q 12.796875 0.390625 7.625 2.203125 
L 7.625 11.71875 
Q 11.71875 9.328125 16.59375 8.109375 
Q 21.484375 6.890625 26.8125 6.890625 
Q 36.078125 6.890625 40.9375 10.546875 
Q 45.796875 14.203125 45.796875 21.1875 
Q 45.796875 27.640625 41.28125 31.265625 
Q 36.765625 34.90625 28.71875 34.90625 
L 20.21875 34.90625 
L 20.21875 43.015625 
L 29.109375 43.015625 
Q 36.375 43.015625 40.234375 45.921875 
Q 44.09375 48.828125 44.09375 54.296875 
Q 44.09375 59.90625 40.109375 62.90625 
Q 36.140625 65.921875 28.71875 65.921875 
Q 24.65625 65.921875 20.015625 65.03125 
Q 15.375 64.15625 9.8125 62.3125 
L 9.8125 71.09375 
Q 15.4375 72.65625 20.34375 73.4375 
Q 25.25 74.21875 29.59375 74.21875 
Q 40.828125 74.21875 47.359375 69.109375 
Q 53.90625 64.015625 53.90625 55.328125 
Q 53.90625 49.265625 50.4375 45.09375 
Q 46.96875 40.921875 40.578125 39.3125 
z
" id="DejaVuSans-33"/>
    </defs>
    <g transform="translate(396.24 170.645824)scale(0.15 -0.15)">
     <use xlink:href="#DejaVuSans-33"/>
     <use x="63.623047" xlink:href="#DejaVuSans-2d"/>
     <use x="99.707031" xlink:href="#DejaVuSans-44"/>
    </g>
   </g>
   <g id="text_17">
    <!-- 2-D -->
    <g transform="translate(396.24 107.411289)scale(0.15 -0.15)">
     <use xlink:href="#DejaVuSans-32"/>
     <use x="63.623047" xlink:href="#DejaVuSans-2d"/>
     <use x="99.707031" xlink:href="#DejaVuSans-44"/>
    </g>
   </g>
   <g id="text_18">
    <!-- 5-D -->
    <defs>
     <path d="M 10.796875 72.90625 
L 49.515625 72.90625 
L 49.515625 64.59375 
L 19.828125 64.59375 
L 19.828125 46.734375 
Q 21.96875 47.46875 24.109375 47.828125 
Q 26.265625 48.1875 28.421875 48.1875 
Q 40.625 48.1875 47.75 41.5 
Q 54.890625 34.8125 54.890625 23.390625 
Q 54.890625 11.625 47.5625 5.09375 
Q 40.234375 -1.421875 26.90625 -1.421875 
Q 22.3125 -1.421875 17.546875 -0.640625 
Q 12.796875 0.140625 7.71875 1.703125 
L 7.71875 11.625 
Q 12.109375 9.234375 16.796875 8.0625 
Q 21.484375 6.890625 26.703125 6.890625 
Q 35.15625 6.890625 40.078125 11.328125 
Q 45.015625 15.765625 45.015625 23.390625 
Q 45.015625 31 40.078125 35.4375 
Q 35.15625 39.890625 26.703125 39.890625 
Q 22.75 39.890625 18.8125 39.015625 
Q 14.890625 38.140625 10.796875 36.28125 
z
" id="DejaVuSans-35"/>
    </defs>
    <g transform="translate(396.24 44.176754)scale(0.15 -0.15)">
     <use xlink:href="#DejaVuSans-35"/>
     <use x="63.623047" xlink:href="#DejaVuSans-2d"/>
     <use x="99.707031" xlink:href="#DejaVuSans-44"/>
    </g>
   </g>
   <g id="text_19">
    <!-- bbob - f3 -->
    <defs>
     <path d="M 48.6875 27.296875 
Q 48.6875 37.203125 44.609375 42.84375 
Q 40.53125 48.484375 33.40625 48.484375 
Q 26.265625 48.484375 22.1875 42.84375 
Q 18.109375 37.203125 18.109375 27.296875 
Q 18.109375 17.390625 22.1875 11.75 
Q 26.265625 6.109375 33.40625 6.109375 
Q 40.53125 6.109375 44.609375 11.75 
Q 48.6875 17.390625 48.6875 27.296875 
z
M 18.109375 46.390625 
Q 20.953125 51.265625 25.265625 53.625 
Q 29.59375 56 35.59375 56 
Q 45.5625 56 51.78125 48.09375 
Q 58.015625 40.1875 58.015625 27.296875 
Q 58.015625 14.40625 51.78125 6.484375 
Q 45.5625 -1.421875 35.59375 -1.421875 
Q 29.59375 -1.421875 25.265625 0.953125 
Q 20.953125 3.328125 18.109375 8.203125 
L 18.109375 0 
L 9.078125 0 
L 9.078125 75.984375 
L 18.109375 75.984375 
z
" id="DejaVuSans-62"/>
    </defs>
    <g transform="translate(74.3712 50.114612)scale(0.1666 -0.1666)">
     <use xlink:href="#DejaVuSans-62"/>
     <use x="63.476562" xlink:href="#DejaVuSans-62"/>
     <use x="126.953125" xlink:href="#DejaVuSans-6f"/>
     <use x="188.134766" xlink:href="#DejaVuSans-62"/>
     <use x="251.611328" xlink:href="#DejaVuSans-20"/>
     <use x="283.398438" xlink:href="#DejaVuSans-2d"/>
     <use x="319.482422" xlink:href="#DejaVuSans-20"/>
     <use x="351.269531" xlink:href="#DejaVuSans-66"/>
     <use x="386.474609" xlink:href="#DejaVuSans-33"/>
    </g>
    <!-- 51 targets in 100..1e-08 -->
    <g transform="translate(74.3712 68.770168)scale(0.1666 -0.1666)">
     <use xlink:href="#DejaVuSans-35"/>
     <use x="63.623047" xlink:href="#DejaVuSans-31"/>
     <use x="127.246094" xlink:href="#DejaVuSans-20"/>
     <use x="159.033203" xlink:href="#DejaVuSans-74"/>
     <use x="198.242188" xlink:href="#DejaVuSans-61"/>
     <use x="259.521484" xlink:href="#DejaVuSans-72"/>
     <use x="300.619141" xlink:href="#DejaVuSans-67"/>
     <use x="364.095703" xlink:href="#DejaVuSans-65"/>
     <use x="425.619141" xlink:href="#DejaVuSans-74"/>
     <use x="464.828125" xlink:href="#DejaVuSans-73"/>
     <use x="516.927734" xlink:href="#DejaVuSans-20"/>
     <use x="548.714844" xlink:href="#DejaVuSans-69"/>
     <use x="576.498047" xlink:href="#DejaVuSans-6e"/>
     <use x="639.876953" xlink:href="#DejaVuSans-20"/>
     <use x="671.664062" xlink:href="#DejaVuSans-31"/>
     <use x="735.287109" xlink:href="#DejaVuSans-30"/>
     <use x="798.910156" xlink:href="#DejaVuSans-30"/>
     <use x="862.533203" xlink:href="#DejaVuSans-2e"/>
     <use x="894.320312" xlink:href="#DejaVuSans-2e"/>
     <use x="926.107422" xlink:href="#DejaVuSans-31"/>
     <use x="989.730469" xlink:href="#DejaVuSans-65"/>
     <use x="1051.253906" xlink:href="#DejaVuSans-2d"/>
     <use x="1087.337891" xlink:href="#DejaVuSans-30"/>
     <use x="1150.960938" xlink:href="#DejaVuSans-38"/>
    </g>
    <!-- 15 instances -->
    <g transform="translate(74.3712 87.425723)scale(0.1666 -0.1666)">
     <use xlink:href="#DejaVuSans-31"/>
     <use x="63.623047" xlink:href="#DejaVuSans-35"/>
     <use x="127.246094" xlink:href="#DejaVuSans-20"/>
     <use x="159.033203" xlink:href="#DejaVuSans-69"/>
     <use x="186.816406" xlink:href="#DejaVuSans-6e"/>
     <use x="250.195312" xlink:href="#DejaVuSans-73"/>
     <use x="302.294922" xlink:href="#DejaVuSans-74"/>
     <use x="341.503906" xlink:href="#DejaVuSans-61"/>
     <use x="402.783203" xlink:href="#DejaVuSans-6e"/>
     <use x="466.162109" xlink:href="#DejaVuSans-63"/>
     <use x="521.142578" xlink:href="#DejaVuSans-65"/>
     <use x="582.666016" xlink:href="#DejaVuSans-73"/>
    </g>
   </g>
   <g id="text_20">
    <!-- v0.0.0 -->
    <g style="fill:#808080;" transform="translate(233.67875 293.504568)scale(0.1 -0.1)">
     <use xlink:href="#DejaVuSans-76"/>
     <use x="59.179688" xlink:href="#DejaVuSans-30"/>
     <use x="122.802734" xlink:href="#DejaVuSans-2e"/>
     <use x="154.589844" xlink:href="#DejaVuSans-30"/>
     <use x="218.212891" xlink:href="#DejaVuSans-2e"/>
     <use x="250" xlink:href="#DejaVuSans-30"/>
    </g>
   </g>
   <g id="text_21">
    <!-- 3 Rastrigin separable -->
    <defs>
     <path d="M 44.390625 34.1875 
Q 47.5625 33.109375 50.5625 29.59375 
Q 53.5625 26.078125 56.59375 19.921875 
L 66.609375 0 
L 56 0 
L 46.6875 18.703125 
Q 43.0625 26.03125 39.671875 28.421875 
Q 36.28125 30.8125 30.421875 30.8125 
L 19.671875 30.8125 
L 19.671875 0 
L 9.8125 0 
L 9.8125 72.90625 
L 32.078125 72.90625 
Q 44.578125 72.90625 50.734375 67.671875 
Q 56.890625 62.453125 56.890625 51.90625 
Q 56.890625 45.015625 53.6875 40.46875 
Q 50.484375 35.9375 44.390625 34.1875 
z
M 19.671875 64.796875 
L 19.671875 38.921875 
L 32.078125 38.921875 
Q 39.203125 38.921875 42.84375 42.21875 
Q 46.484375 45.515625 46.484375 51.90625 
Q 46.484375 58.296875 42.84375 61.546875 
Q 39.203125 64.796875 32.078125 64.796875 
z
" id="DejaVuSans-52"/>
    </defs>
    <g transform="translate(121.400625 26.133375)scale(0.24 -0.24)">
     <use xlink:href="#DejaVuSans-33"/>
     <use x="63.623047" xlink:href="#DejaVuSans-20"/>
     <use x="95.410156" xlink:href="#DejaVuSans-52"/>
     <use x="164.861328" xlink:href="#DejaVuSans-61"/>
     <use x="226.140625" xlink:href="#DejaVuSans-73"/>
     <use x="278.240234" xlink:href="#DejaVuSans-74"/>
     <use x="317.449219" xlink:href="#DejaVuSans-72"/>
     <use x="358.5625" xlink:href="#DejaVuSans-69"/>
     <use x="386.345703" xlink:href="#DejaVuSans-67"/>
     <use x="449.822266" xlink:href="#DejaVuSans-69"/>
     <use x="477.605469" xlink:href="#DejaVuSans-6e"/>
     <use x="540.984375" xlink:href="#DejaVuSans-20"/>
     <use x="572.771484" xlink:href="#DejaVuSans-73"/>
     <use x="624.871094" xlink:href="#DejaVuSans-65"/>
     <use x="686.394531" xlink:href="#DejaVuSans-70"/>
     <use x="749.871094" xlink:href="#DejaVuSans-61"/>
     <use x="811.150391" xlink:href="#DejaVuSans-72"/>
     <use x="852.263672" xlink:href="#DejaVuSans-61"/>
     <use x="913.542969" xlink:href="#DejaVuSans-62"/>
     <use x="977.019531" xlink:href="#DejaVuSans-6c"/>
     <use x="1004.802734" xlink:href="#DejaVuSans-65"/>
    </g>
   </g>
  </g>
 </g>
 <defs>
  <clipPath id="pa25bccdf7b">
   <rect height="266.112" width="357.12" x="70.8" y="32.133375"/>
  </clipPath>
 </defs>
</svg>
