<?xml version="1.0" encoding="utf-8" standalone="no"?>
<!DOCTYPE svg PUBLIC "-//W3C//DTD SVG 1.1//EN"
  "http://www.w3.org/Graphics/SVG/1.1/DTD/svg11.dtd">
<!-- Created with matplotlib (http://matplotlib.org/) -->
<svg height="353pt" version="1.1" viewBox="0 0 438 353" width="438pt" xmlns="http://www.w3.org/2000/svg" xmlns:xlink="http://www.w3.org/1999/xlink">
 <defs>
  <style type="text/css">
*{stroke-linecap:butt;stroke-linejoin:round;}
  </style>
 </defs>
 <g id="figure_1">
  <g id="patch_1">
   <path d="M 0 353.22225 
L 438.62 353.22225 
L 438.62 0 
L 0 0 
z
" style="fill:#ffffff;"/>
  </g>
  <g id="axes_1">
   <g id="patch_2">
    <path d="M 70.8 298.245375 
L 427.92 298.245375 
L 427.92 32.133375 
L 70.8 32.133375 
z
" style="fill:#ffffff;"/>
   </g>
   <g id="matplotlib.axis_1">
    <g id="xtick_1">
     <g id="line2d_1">
      <path clip-path="url(#pdc8fc50ebd)" d="M 70.8 298.245375 
L 70.8 32.133375 
" style="fill:none;stroke:#b0b0b0;stroke-linecap:square;stroke-width:0.8;"/>
     </g>
     <g id="line2d_2">
      <defs>
       <path d="M 0 0 
L 0 3.5 
" id="m94a9748798" style="stroke:#000000;stroke-width:0.8;"/>
      </defs>
      <g>
       <use style="stroke:#000000;stroke-width:0.8;" x="70.8" xlink:href="#m94a9748798" y="298.245375"/>
      </g>
     </g>
     <g id="text_1">
      <!-- 0 -->
      <defs>
       <path d="M 31.78125 66.40625 
Q 24.171875 66.40625 20.328125 58.90625 
Q 16.5 51.421875 16.5 36.375 
Q 16.5 21.390625 20.328125 13.890625 
Q 24.171875 6.390625 31.78125 6.390625 
Q 39.453125 6.390625 43.28125 13.890625 
Q 47.125 21.390625 47.125 36.375 
Q 47.125 51.421875 43.28125 58.90625 
Q 39.453125 66.40625 31.78125 66.40625 
z
M 31.78125 74.21875 
Q 44.046875 74.21875 50.515625 64.515625 
Q 56.984375 54.828125 56.984375 36.375 
Q 56.984375 17.96875 50.515625 8.265625 
Q 44.046875 -1.421875 31.78125 -1.421875 
Q 19.53125 -1.421875 13.0625 8.265625 
Q 6.59375 17.96875 6.59375 36.375 
Q 6.59375 54.828125 13.0625 64.515625 
Q 19.53125 74.21875 31.78125 74.21875 
z
" id="DejaVuSans-30"/>
      </defs>
      <g transform="translate(64.4375 320.44225)scale(0.2 -0.2)">
       <use xlink:href="#DejaVuSans-30"/>
      </g>
     </g>
    </g>
    <g id="xtick_2">
     <g id="line2d_3">
      <path clip-path="url(#pdc8fc50ebd)" d="M 153.085714 298.245375 
L 153.085714 32.133375 
" style="fill:none;stroke:#b0b0b0;stroke-linecap:square;stroke-width:0.8;"/>
     </g>
     <g id="line2d_4">
      <g>
       <use style="stroke:#000000;stroke-width:0.8;" x="153.085714" xlink:href="#m94a9748798" y="298.245375"/>
      </g>
     </g>
     <g id="text_2">
      <!-- 2 -->
      <defs>
       <path d="M 19.1875 8.296875 
L 53.609375 8.296875 
L 53.609375 0 
L 7.328125 0 
L 7.328125 8.296875 
Q 12.9375 14.109375 22.625 23.890625 
Q 32.328125 33.6875 34.8125 36.53125 
Q 39.546875 41.84375 41.421875 45.53125 
Q 43.3125 49.21875 43.3125 52.78125 
Q 43.3125 58.59375 39.234375 62.25 
Q 35.15625 65.921875 28.609375 65.921875 
Q 23.96875 65.921875 18.8125 64.3125 
Q 13.671875 62.703125 7.8125 59.421875 
L 7.8125 69.390625 
Q 13.765625 71.78125 18.9375 73 
Q 24.125 74.21875 28.421875 74.21875 
Q 39.75 74.21875 46.484375 68.546875 
Q 53.21875 62.890625 53.21875 53.421875 
Q 53.21875 48.921875 51.53125 44.890625 
Q 49.859375 40.875 45.40625 35.40625 
Q 44.1875 33.984375 37.640625 27.21875 
Q 31.109375 20.453125 19.1875 8.296875 
z
" id="DejaVuSans-32"/>
      </defs>
      <g transform="translate(146.723214 320.44225)scale(0.2 -0.2)">
       <use xlink:href="#DejaVuSans-32"/>
      </g>
     </g>
    </g>
    <g id="xtick_3">
     <g id="line2d_5">
      <path clip-path="url(#pdc8fc50ebd)" d="M 235.371429 298.245375 
L 235.371429 32.133375 
" style="fill:none;stroke:#b0b0b0;stroke-linecap:square;stroke-width:0.8;"/>
     </g>
     <g id="line2d_6">
      <g>
       <use style="stroke:#000000;stroke-width:0.8;" x="235.371429" xlink:href="#m94a9748798" y="298.245375"/>
      </g>
     </g>
     <g id="text_3">
      <!-- 4 -->
      <defs>
       <path d="M 37.796875 64.3125 
L 12.890625 25.390625 
L 37.796875 25.390625 
z
M 35.203125 72.90625 
L 47.609375 72.90625 
L 47.609375 25.390625 
L 58.015625 25.390625 
L 58.015625 17.1875 
L 47.609375 17.1875 
L 47.609375 0 
L 37.796875 0 
L 37.796875 17.1875 
L 4.890625 17.1875 
L 4.890625 26.703125 
z
" id="DejaVuSans-34"/>
      </defs>
      <g transform="translate(229.008929 320.44225)scale(0.2 -0.2)">
       <use xlink:href="#DejaVuSans-34"/>
      </g>
     </g>
    </g>
    <g id="xtick_4">
     <g id="line2d_7">
      <path clip-path="url(#pdc8fc50ebd)" d="M 317.657143 298.245375 
L 317.657143 32.133375 
" style="fill:none;stroke:#b0b0b0;stroke-linecap:square;stroke-width:0.8;"/>
     </g>
     <g id="line2d_8">
      <g>
       <use style="stroke:#000000;stroke-width:0.8;" x="317.657143" xlink:href="#m94a9748798" y="298.245375"/>
      </g>
     </g>
     <g id="text_4">
      <!-- 6 -->
      <defs>
       <path d="M 33.015625 40.375 
Q 26.375 40.375 22.484375 35.828125 
Q 18.609375 31.296875 18.609375 23.390625 
Q 18.609375 15.53125 22.484375 10.953125 
Q 26.375 6.390625 33.015625 6.390625 
Q 39.65625 6.390625 43.53125 10.953125 
Q 47.40625 15.53125 47.40625 23.390625 
Q 47.40625 31.296875 43.53125 35.828125 
Q 39.65625 40.375 33.015625 40.375 
z
M 52.59375 71.296875 
L 52.59375 62.3125 
Q 48.875 64.0625 45.09375 64.984375 
Q 41.3125 65.921875 37.59375 65.921875 
Q 27.828125 65.921875 22.671875 59.328125 
Q 17.53125 52.734375 16.796875 39.40625 
Q 19.671875 43.65625 24.015625 45.921875 
Q 28.375 48.1875 33.59375 48.1875 
Q 44.578125 48.1875 50.953125 41.515625 
Q 57.328125 34.859375 57.328125 23.390625 
Q 57.328125 12.15625 50.6875 5.359375 
Q 44.046875 -1.421875 33.015625 -1.421875 
Q 20.359375 -1.421875 13.671875 8.265625 
Q 6.984375 17.96875 6.984375 36.375 
Q 6.984375 53.65625 15.1875 63.9375 
Q 23.390625 74.21875 37.203125 74.21875 
Q 40.921875 74.21875 44.703125 73.484375 
Q 48.484375 72.75 52.59375 71.296875 
z
" id="DejaVuSans-36"/>
      </defs>
      <g transform="translate(311.294643 320.44225)scale(0.2 -0.2)">
       <use xlink:href="#DejaVuSans-36"/>
      </g>
     </g>
    </g>
    <g id="xtick_5">
     <g id="line2d_9">
      <path clip-path="url(#pdc8fc50ebd)" d="M 399.942857 298.245375 
L 399.942857 32.133375 
" style="fill:none;stroke:#b0b0b0;stroke-linecap:square;stroke-width:0.8;"/>
     </g>
     <g id="line2d_10">
      <g>
       <use style="stroke:#000000;stroke-width:0.8;" x="399.942857" xlink:href="#m94a9748798" y="298.245375"/>
      </g>
     </g>
     <g id="text_5">
      <!-- 8 -->
      <defs>
       <path d="M 31.78125 34.625 
Q 24.75 34.625 20.71875 30.859375 
Q 16.703125 27.09375 16.703125 20.515625 
Q 16.703125 13.921875 20.71875 10.15625 
Q 24.75 6.390625 31.78125 6.390625 
Q 38.8125 6.390625 42.859375 10.171875 
Q 46.921875 13.96875 46.921875 20.515625 
Q 46.921875 27.09375 42.890625 30.859375 
Q 38.875 34.625 31.78125 34.625 
z
M 21.921875 38.8125 
Q 15.578125 40.375 12.03125 44.71875 
Q 8.5 49.078125 8.5 55.328125 
Q 8.5 64.0625 14.71875 69.140625 
Q 20.953125 74.21875 31.78125 74.21875 
Q 42.671875 74.21875 48.875 69.140625 
Q 55.078125 64.0625 55.078125 55.328125 
Q 55.078125 49.078125 51.53125 44.71875 
Q 48 40.375 41.703125 38.8125 
Q 48.828125 37.15625 52.796875 32.3125 
Q 56.78125 27.484375 56.78125 20.515625 
Q 56.78125 9.90625 50.3125 4.234375 
Q 43.84375 -1.421875 31.78125 -1.421875 
Q 19.734375 -1.421875 13.25 4.234375 
Q 6.78125 9.90625 6.78125 20.515625 
Q 6.78125 27.484375 10.78125 32.3125 
Q 14.796875 37.15625 21.921875 38.8125 
z
M 18.3125 54.390625 
Q 18.3125 48.734375 21.84375 45.5625 
Q 25.390625 42.390625 31.78125 42.390625 
Q 38.140625 42.390625 41.71875 45.5625 
Q 45.3125 48.734375 45.3125 54.390625 
Q 45.3125 60.0625 41.71875 63.234375 
Q 38.140625 66.40625 31.78125 66.40625 
Q 25.390625 66.40625 21.84375 63.234375 
Q 18.3125 60.0625 18.3125 54.390625 
z
" id="DejaVuSans-38"/>
      </defs>
      <g transform="translate(393.580357 320.44225)scale(0.2 -0.2)">
       <use xlink:href="#DejaVuSans-38"/>
      </g>
     </g>
    </g>
    <g id="text_6">
     <!-- log10 of (# f-evals / dimension) -->
     <defs>
      <path d="M 9.421875 75.984375 
L 18.40625 75.984375 
L 18.40625 0 
L 9.421875 0 
z
" id="DejaVuSans-6c"/>
      <path d="M 30.609375 48.390625 
Q 23.390625 48.390625 19.1875 42.75 
Q 14.984375 37.109375 14.984375 27.296875 
Q 14.984375 17.484375 19.15625 11.84375 
Q 23.34375 6.203125 30.609375 6.203125 
Q 37.796875 6.203125 41.984375 11.859375 
Q 46.1875 17.53125 46.1875 27.296875 
Q 46.1875 37.015625 41.984375 42.703125 
Q 37.796875 48.390625 30.609375 48.390625 
z
M 30.609375 56 
Q 42.328125 56 49.015625 48.375 
Q 55.71875 40.765625 55.71875 27.296875 
Q 55.71875 13.875 49.015625 6.21875 
Q 42.328125 -1.421875 30.609375 -1.421875 
Q 18.84375 -1.421875 12.171875 6.21875 
Q 5.515625 13.875 5.515625 27.296875 
Q 5.515625 40.765625 12.171875 48.375 
Q 18.84375 56 30.609375 56 
z
" id="DejaVuSans-6f"/>
      <path d="M 45.40625 27.984375 
Q 45.40625 37.75 41.375 43.109375 
Q 37.359375 48.484375 30.078125 48.484375 
Q 22.859375 48.484375 18.828125 43.109375 
Q 14.796875 37.75 14.796875 27.984375 
Q 14.796875 18.265625 18.828125 12.890625 
Q 22.859375 7.515625 30.078125 7.515625 
Q 37.359375 7.515625 41.375 12.890625 
Q 45.40625 18.265625 45.40625 27.984375 
z
M 54.390625 6.78125 
Q 54.390625 -7.171875 48.1875 -13.984375 
Q 42 -20.796875 29.203125 -20.796875 
Q 24.46875 -20.796875 20.265625 -20.09375 
Q 16.0625 -19.390625 12.109375 -17.921875 
L 12.109375 -9.1875 
Q 16.0625 -11.328125 19.921875 -12.34375 
Q 23.78125 -13.375 27.78125 -13.375 
Q 36.625 -13.375 41.015625 -8.765625 
Q 45.40625 -4.15625 45.40625 5.171875 
L 45.40625 9.625 
Q 42.625 4.78125 38.28125 2.390625 
Q 33.9375 0 27.875 0 
Q 17.828125 0 11.671875 7.65625 
Q 5.515625 15.328125 5.515625 27.984375 
Q 5.515625 40.671875 11.671875 48.328125 
Q 17.828125 56 27.875 56 
Q 33.9375 56 38.28125 53.609375 
Q 42.625 51.21875 45.40625 46.390625 
L 45.40625 54.6875 
L 54.390625 54.6875 
z
" id="DejaVuSans-67"/>
      <path d="M 12.40625 8.296875 
L 28.515625 8.296875 
L 28.515625 63.921875 
L 10.984375 60.40625 
L 10.984375 69.390625 
L 28.421875 72.90625 
L 38.28125 72.90625 
L 38.28125 8.296875 
L 54.390625 8.296875 
L 54.390625 0 
L 12.40625 0 
z
" id="DejaVuSans-31"/>
      <path id="DejaVuSans-20"/>
      <path d="M 37.109375 75.984375 
L 37.109375 68.5 
L 28.515625 68.5 
Q 23.6875 68.5 21.796875 66.546875 
Q 19.921875 64.59375 19.921875 59.515625 
L 19.921875 54.6875 
L 34.71875 54.6875 
L 34.71875 47.703125 
L 19.921875 47.703125 
L 19.921875 0 
L 10.890625 0 
L 10.890625 47.703125 
L 2.296875 47.703125 
L 2.296875 54.6875 
L 10.890625 54.6875 
L 10.890625 58.5 
Q 10.890625 67.625 15.140625 71.796875 
Q 19.390625 75.984375 28.609375 75.984375 
z
" id="DejaVuSans-66"/>
      <path d="M 31 75.875 
Q 24.46875 64.65625 21.28125 53.65625 
Q 18.109375 42.671875 18.109375 31.390625 
Q 18.109375 20.125 21.3125 9.0625 
Q 24.515625 -2 31 -13.1875 
L 23.1875 -13.1875 
Q 15.875 -1.703125 12.234375 9.375 
Q 8.59375 20.453125 8.59375 31.390625 
Q 8.59375 42.28125 12.203125 53.3125 
Q 15.828125 64.359375 23.1875 75.875 
z
" id="DejaVuSans-28"/>
      <path d="M 51.125 44 
L 36.921875 44 
L 32.8125 27.6875 
L 47.125 27.6875 
z
M 43.796875 71.78125 
L 38.71875 51.515625 
L 52.984375 51.515625 
L 58.109375 71.78125 
L 65.921875 71.78125 
L 60.890625 51.515625 
L 76.125 51.515625 
L 76.125 44 
L 58.984375 44 
L 54.984375 27.6875 
L 70.515625 27.6875 
L 70.515625 20.21875 
L 53.078125 20.21875 
L 48 0 
L 40.1875 0 
L 45.21875 20.21875 
L 30.90625 20.21875 
L 25.875 0 
L 18.015625 0 
L 23.09375 20.21875 
L 7.71875 20.21875 
L 7.71875 27.6875 
L 24.90625 27.6875 
L 29 44 
L 13.28125 44 
L 13.28125 51.515625 
L 30.90625 51.515625 
L 35.890625 71.78125 
z
" id="DejaVuSans-23"/>
      <path d="M 4.890625 31.390625 
L 31.203125 31.390625 
L 31.203125 23.390625 
L 4.890625 23.390625 
z
" id="DejaVuSans-2d"/>
      <path d="M 56.203125 29.59375 
L 56.203125 25.203125 
L 14.890625 25.203125 
Q 15.484375 15.921875 20.484375 11.0625 
Q 25.484375 6.203125 34.421875 6.203125 
Q 39.59375 6.203125 44.453125 7.46875 
Q 49.3125 8.734375 54.109375 11.28125 
L 54.109375 2.78125 
Q 49.265625 0.734375 44.1875 -0.34375 
Q 39.109375 -1.421875 33.890625 -1.421875 
Q 20.796875 -1.421875 13.15625 6.1875 
Q 5.515625 13.8125 5.515625 26.8125 
Q 5.515625 40.234375 12.765625 48.109375 
Q 20.015625 56 32.328125 56 
Q 43.359375 56 49.78125 48.890625 
Q 56.203125 41.796875 56.203125 29.59375 
z
M 47.21875 32.234375 
Q 47.125 39.59375 43.09375 43.984375 
Q 39.0625 48.390625 32.421875 48.390625 
Q 24.90625 48.390625 20.390625 44.140625 
Q 15.875 39.890625 15.1875 32.171875 
z
" id="DejaVuSans-65"/>
      <path d="M 2.984375 54.6875 
L 12.5 54.6875 
L 29.59375 8.796875 
L 46.6875 54.6875 
L 56.203125 54.6875 
L 35.6875 0 
L 23.484375 0 
z
" id="DejaVuSans-76"/>
      <path d="M 34.28125 27.484375 
Q 23.390625 27.484375 19.1875 25 
Q 14.984375 22.515625 14.984375 16.5 
Q 14.984375 11.71875 18.140625 8.90625 
Q 21.296875 6.109375 26.703125 6.109375 
Q 34.1875 6.109375 38.703125 11.40625 
Q 43.21875 16.703125 43.21875 25.484375 
L 43.21875 27.484375 
z
M 52.203125 31.203125 
L 52.203125 0 
L 43.21875 0 
L 43.21875 8.296875 
Q 40.140625 3.328125 35.546875 0.953125 
Q 30.953125 -1.421875 24.3125 -1.421875 
Q 15.921875 -1.421875 10.953125 3.296875 
Q 6 8.015625 6 15.921875 
Q 6 25.140625 12.171875 29.828125 
Q 18.359375 34.515625 30.609375 34.515625 
L 43.21875 34.515625 
L 43.21875 35.40625 
Q 43.21875 41.609375 39.140625 45 
Q 35.0625 48.390625 27.6875 48.390625 
Q 23 48.390625 18.546875 47.265625 
Q 14.109375 46.140625 10.015625 43.890625 
L 10.015625 52.203125 
Q 14.9375 54.109375 19.578125 55.046875 
Q 24.21875 56 28.609375 56 
Q 40.484375 56 46.34375 49.84375 
Q 52.203125 43.703125 52.203125 31.203125 
z
" id="DejaVuSans-61"/>
      <path d="M 44.28125 53.078125 
L 44.28125 44.578125 
Q 40.484375 46.53125 36.375 47.5 
Q 32.28125 48.484375 27.875 48.484375 
Q 21.1875 48.484375 17.84375 46.4375 
Q 14.5 44.390625 14.5 40.28125 
Q 14.5 37.15625 16.890625 35.375 
Q 19.28125 33.59375 26.515625 31.984375 
L 29.59375 31.296875 
Q 39.15625 29.25 43.1875 25.515625 
Q 47.21875 21.78125 47.21875 15.09375 
Q 47.21875 7.46875 41.1875 3.015625 
Q 35.15625 -1.421875 24.609375 -1.421875 
Q 20.21875 -1.421875 15.453125 -0.5625 
Q 10.6875 0.296875 5.421875 2 
L 5.421875 11.28125 
Q 10.40625 8.6875 15.234375 7.390625 
Q 20.0625 6.109375 24.8125 6.109375 
Q 31.15625 6.109375 34.5625 8.28125 
Q 37.984375 10.453125 37.984375 14.40625 
Q 37.984375 18.0625 35.515625 20.015625 
Q 33.0625 21.96875 24.703125 23.78125 
L 21.578125 24.515625 
Q 13.234375 26.265625 9.515625 29.90625 
Q 5.8125 33.546875 5.8125 39.890625 
Q 5.8125 47.609375 11.28125 51.796875 
Q 16.75 56 26.8125 56 
Q 31.78125 56 36.171875 55.265625 
Q 40.578125 54.546875 44.28125 53.078125 
z
" id="DejaVuSans-73"/>
      <path d="M 25.390625 72.90625 
L 33.6875 72.90625 
L 8.296875 -9.28125 
L 0 -9.28125 
z
" id="DejaVuSans-2f"/>
      <path d="M 45.40625 46.390625 
L 45.40625 75.984375 
L 54.390625 75.984375 
L 54.390625 0 
L 45.40625 0 
L 45.40625 8.203125 
Q 42.578125 3.328125 38.25 0.953125 
Q 33.9375 -1.421875 27.875 -1.421875 
Q 17.96875 -1.421875 11.734375 6.484375 
Q 5.515625 14.40625 5.515625 27.296875 
Q 5.515625 40.1875 11.734375 48.09375 
Q 17.96875 56 27.875 56 
Q 33.9375 56 38.25 53.625 
Q 42.578125 51.265625 45.40625 46.390625 
z
M 14.796875 27.296875 
Q 14.796875 17.390625 18.875 11.75 
Q 22.953125 6.109375 30.078125 6.109375 
Q 37.203125 6.109375 41.296875 11.75 
Q 45.40625 17.390625 45.40625 27.296875 
Q 45.40625 37.203125 41.296875 42.84375 
Q 37.203125 48.484375 30.078125 48.484375 
Q 22.953125 48.484375 18.875 42.84375 
Q 14.796875 37.203125 14.796875 27.296875 
z
" id="DejaVuSans-64"/>
      <path d="M 9.421875 54.6875 
L 18.40625 54.6875 
L 18.40625 0 
L 9.421875 0 
z
M 9.421875 75.984375 
L 18.40625 75.984375 
L 18.40625 64.59375 
L 9.421875 64.59375 
z
" id="DejaVuSans-69"/>
      <path d="M 52 44.1875 
Q 55.375 50.25 60.0625 53.125 
Q 64.75 56 71.09375 56 
Q 79.640625 56 84.28125 50.015625 
Q 88.921875 44.046875 88.921875 33.015625 
L 88.921875 0 
L 79.890625 0 
L 79.890625 32.71875 
Q 79.890625 40.578125 77.09375 44.375 
Q 74.3125 48.1875 68.609375 48.1875 
Q 61.625 48.1875 57.5625 43.546875 
Q 53.515625 38.921875 53.515625 30.90625 
L 53.515625 0 
L 44.484375 0 
L 44.484375 32.71875 
Q 44.484375 40.625 41.703125 44.40625 
Q 38.921875 48.1875 33.109375 48.1875 
Q 26.21875 48.1875 22.15625 43.53125 
Q 18.109375 38.875 18.109375 30.90625 
L 18.109375 0 
L 9.078125 0 
L 9.078125 54.6875 
L 18.109375 54.6875 
L 18.109375 46.1875 
Q 21.1875 51.21875 25.484375 53.609375 
Q 29.78125 56 35.6875 56 
Q 41.65625 56 45.828125 52.96875 
Q 50 49.953125 52 44.1875 
z
" id="DejaVuSans-6d"/>
      <path d="M 54.890625 33.015625 
L 54.890625 0 
L 45.90625 0 
L 45.90625 32.71875 
Q 45.90625 40.484375 42.875 44.328125 
Q 39.84375 48.1875 33.796875 48.1875 
Q 26.515625 48.1875 22.3125 43.546875 
Q 18.109375 38.921875 18.109375 30.90625 
L 18.109375 0 
L 9.078125 0 
L 9.078125 54.6875 
L 18.109375 54.6875 
L 18.109375 46.1875 
Q 21.34375 51.125 25.703125 53.5625 
Q 30.078125 56 35.796875 56 
Q 45.21875 56 50.046875 50.171875 
Q 54.890625 44.34375 54.890625 33.015625 
z
" id="DejaVuSans-6e"/>
      <path d="M 8.015625 75.875 
L 15.828125 75.875 
Q 23.140625 64.359375 26.78125 53.3125 
Q 30.421875 42.28125 30.421875 31.390625 
Q 30.421875 20.453125 26.78125 9.375 
Q 23.140625 -1.703125 15.828125 -13.1875 
L 8.015625 -13.1875 
Q 14.5 -2 17.703125 9.0625 
Q 20.90625 20.125 20.90625 31.390625 
Q 20.90625 42.671875 17.703125 53.65625 
Q 14.5 64.65625 8.015625 75.875 
z
" id="DejaVuSans-29"/>
     </defs>
     <g transform="translate(107.015156 342.278812)scale(0.18 -0.18)">
      <use xlink:href="#DejaVuSans-6c"/>
      <use x="27.783203" xlink:href="#DejaVuSans-6f"/>
      <use x="88.964844" xlink:href="#DejaVuSans-67"/>
      <use x="152.441406" xlink:href="#DejaVuSans-31"/>
      <use x="216.064453" xlink:href="#DejaVuSans-30"/>
      <use x="279.6875" xlink:href="#DejaVuSans-20"/>
      <use x="311.474609" xlink:href="#DejaVuSans-6f"/>
      <use x="372.65625" xlink:href="#DejaVuSans-66"/>
      <use x="407.861328" xlink:href="#DejaVuSans-20"/>
      <use x="439.648438" xlink:href="#DejaVuSans-28"/>
      <use x="478.662109" xlink:href="#DejaVuSans-23"/>
      <use x="562.451172" xlink:href="#DejaVuSans-20"/>
      <use x="594.238281" xlink:href="#DejaVuSans-66"/>
      <use x="629.365234" xlink:href="#DejaVuSans-2d"/>
      <use x="665.449219" xlink:href="#DejaVuSans-65"/>
      <use x="726.972656" xlink:href="#DejaVuSans-76"/>
      <use x="786.152344" xlink:href="#DejaVuSans-61"/>
      <use x="847.431641" xlink:href="#DejaVuSans-6c"/>
      <use x="875.214844" xlink:href="#DejaVuSans-73"/>
      <use x="927.314453" xlink:href="#DejaVuSans-20"/>
      <use x="959.101562" xlink:href="#DejaVuSans-2f"/>
      <use x="992.792969" xlink:href="#DejaVuSans-20"/>
      <use x="1024.580078" xlink:href="#DejaVuSans-64"/>
      <use x="1088.056641" xlink:href="#DejaVuSans-69"/>
      <use x="1115.839844" xlink:href="#DejaVuSans-6d"/>
      <use x="1213.251953" xlink:href="#DejaVuSans-65"/>
      <use x="1274.775391" xlink:href="#DejaVuSans-6e"/>
      <use x="1338.154297" xlink:href="#DejaVuSans-73"/>
      <use x="1390.253906" xlink:href="#DejaVuSans-69"/>
      <use x="1418.037109" xlink:href="#DejaVuSans-6f"/>
      <use x="1479.21875" xlink:href="#DejaVuSans-6e"/>
      <use x="1542.597656" xlink:href="#DejaVuSans-29"/>
     </g>
    </g>
   </g>
   <g id="matplotlib.axis_2">
    <g id="ytick_1">
     <g id="line2d_11">
      <path clip-path="url(#pdc8fc50ebd)" d="M 70.8 298.245375 
L 427.92 298.245375 
" style="fill:none;stroke:#b0b0b0;stroke-linecap:square;stroke-width:0.8;"/>
     </g>
     <g id="line2d_12">
      <defs>
       <path d="M 0 0 
L -3.5 0 
" id="meb9588517c" style="stroke:#000000;stroke-width:0.8;"/>
      </defs>
      <g>
       <use style="stroke:#000000;stroke-width:0.8;" x="70.8" xlink:href="#meb9588517c" y="298.245375"/>
      </g>
     </g>
     <g id="text_7">
      <!-- 0.0 -->
      <defs>
       <path d="M 10.6875 12.40625 
L 21 12.40625 
L 21 0 
L 10.6875 0 
z
" id="DejaVuSans-2e"/>
      </defs>
      <g transform="translate(31.99375 305.843812)scale(0.2 -0.2)">
       <use xlink:href="#DejaVuSans-30"/>
       <use x="63.623047" xlink:href="#DejaVuSans-2e"/>
       <use x="95.410156" xlink:href="#DejaVuSans-30"/>
      </g>
     </g>
    </g>
    <g id="ytick_2">
     <g id="line2d_13">
      <path clip-path="url(#pdc8fc50ebd)" d="M 70.8 245.549929 
L 427.92 245.549929 
" style="fill:none;stroke:#b0b0b0;stroke-linecap:square;stroke-width:0.8;"/>
     </g>
     <g id="line2d_14">
      <g>
       <use style="stroke:#000000;stroke-width:0.8;" x="70.8" xlink:href="#meb9588517c" y="245.549929"/>
      </g>
     </g>
     <g id="text_8">
      <!-- 0.2 -->
      <g transform="translate(31.99375 253.148367)scale(0.2 -0.2)">
       <use xlink:href="#DejaVuSans-30"/>
       <use x="63.623047" xlink:href="#DejaVuSans-2e"/>
       <use x="95.410156" xlink:href="#DejaVuSans-32"/>
      </g>
     </g>
    </g>
    <g id="ytick_3">
     <g id="line2d_15">
      <path clip-path="url(#pdc8fc50ebd)" d="M 70.8 192.854484 
L 427.92 192.854484 
" style="fill:none;stroke:#b0b0b0;stroke-linecap:square;stroke-width:0.8;"/>
     </g>
     <g id="line2d_16">
      <g>
       <use style="stroke:#000000;stroke-width:0.8;" x="70.8" xlink:href="#meb9588517c" y="192.854484"/>
      </g>
     </g>
     <g id="text_9">
      <!-- 0.4 -->
      <g transform="translate(31.99375 200.452921)scale(0.2 -0.2)">
       <use xlink:href="#DejaVuSans-30"/>
       <use x="63.623047" xlink:href="#DejaVuSans-2e"/>
       <use x="95.410156" xlink:href="#DejaVuSans-34"/>
      </g>
     </g>
    </g>
    <g id="ytick_4">
     <g id="line2d_17">
      <path clip-path="url(#pdc8fc50ebd)" d="M 70.8 140.159038 
L 427.92 140.159038 
" style="fill:none;stroke:#b0b0b0;stroke-linecap:square;stroke-width:0.8;"/>
     </g>
     <g id="line2d_18">
      <g>
       <use style="stroke:#000000;stroke-width:0.8;" x="70.8" xlink:href="#meb9588517c" y="140.159038"/>
      </g>
     </g>
     <g id="text_10">
      <!-- 0.6 -->
      <g transform="translate(31.99375 147.757476)scale(0.2 -0.2)">
       <use xlink:href="#DejaVuSans-30"/>
       <use x="63.623047" xlink:href="#DejaVuSans-2e"/>
       <use x="95.410156" xlink:href="#DejaVuSans-36"/>
      </g>
     </g>
    </g>
    <g id="ytick_5">
     <g id="line2d_19">
      <path clip-path="url(#pdc8fc50ebd)" d="M 70.8 87.463593 
L 427.92 87.463593 
" style="fill:none;stroke:#b0b0b0;stroke-linecap:square;stroke-width:0.8;"/>
     </g>
     <g id="line2d_20">
      <g>
       <use style="stroke:#000000;stroke-width:0.8;" x="70.8" xlink:href="#meb9588517c" y="87.463593"/>
      </g>
     </g>
     <g id="text_11">
      <!-- 0.8 -->
      <g transform="translate(31.99375 95.06203)scale(0.2 -0.2)">
       <use xlink:href="#DejaVuSans-30"/>
       <use x="63.623047" xlink:href="#DejaVuSans-2e"/>
       <use x="95.410156" xlink:href="#DejaVuSans-38"/>
      </g>
     </g>
    </g>
    <g id="ytick_6">
     <g id="line2d_21">
      <path clip-path="url(#pdc8fc50ebd)" d="M 70.8 34.768147 
L 427.92 34.768147 
" style="fill:none;stroke:#b0b0b0;stroke-linecap:square;stroke-width:0.8;"/>
     </g>
     <g id="line2d_22">
      <g>
       <use style="stroke:#000000;stroke-width:0.8;" x="70.8" xlink:href="#meb9588517c" y="34.768147"/>
      </g>
     </g>
     <g id="text_12">
      <!-- 1.0 -->
      <g transform="translate(31.99375 42.366585)scale(0.2 -0.2)">
       <use xlink:href="#DejaVuSans-31"/>
       <use x="63.623047" xlink:href="#DejaVuSans-2e"/>
       <use x="95.410156" xlink:href="#DejaVuSans-30"/>
      </g>
     </g>
    </g>
    <g id="text_13">
     <!-- Proportion of function+target pairs -->
     <defs>
      <path d="M 19.671875 64.796875 
L 19.671875 37.40625 
L 32.078125 37.40625 
Q 38.96875 37.40625 42.71875 40.96875 
Q 46.484375 44.53125 46.484375 51.125 
Q 46.484375 57.671875 42.71875 61.234375 
Q 38.96875 64.796875 32.078125 64.796875 
z
M 9.8125 72.90625 
L 32.078125 72.90625 
Q 44.34375 72.90625 50.609375 67.359375 
Q 56.890625 61.8125 56.890625 51.125 
Q 56.890625 40.328125 50.609375 34.8125 
Q 44.34375 29.296875 32.078125 29.296875 
L 19.671875 29.296875 
L 19.671875 0 
L 9.8125 0 
z
" id="DejaVuSans-50"/>
      <path d="M 41.109375 46.296875 
Q 39.59375 47.171875 37.8125 47.578125 
Q 36.03125 48 33.890625 48 
Q 26.265625 48 22.1875 43.046875 
Q 18.109375 38.09375 18.109375 28.8125 
L 18.109375 0 
L 9.078125 0 
L 9.078125 54.6875 
L 18.109375 54.6875 
L 18.109375 46.1875 
Q 20.953125 51.171875 25.484375 53.578125 
Q 30.03125 56 36.53125 56 
Q 37.453125 56 38.578125 55.875 
Q 39.703125 55.765625 41.0625 55.515625 
z
" id="DejaVuSans-72"/>
      <path d="M 18.109375 8.203125 
L 18.109375 -20.796875 
L 9.078125 -20.796875 
L 9.078125 54.6875 
L 18.109375 54.6875 
L 18.109375 46.390625 
Q 20.953125 51.265625 25.265625 53.625 
Q 29.59375 56 35.59375 56 
Q 45.5625 56 51.78125 48.09375 
Q 58.015625 40.1875 58.015625 27.296875 
Q 58.015625 14.40625 51.78125 6.484375 
Q 45.5625 -1.421875 35.59375 -1.421875 
Q 29.59375 -1.421875 25.265625 0.953125 
Q 20.953125 3.328125 18.109375 8.203125 
z
M 48.6875 27.296875 
Q 48.6875 37.203125 44.609375 42.84375 
Q 40.53125 48.484375 33.40625 48.484375 
Q 26.265625 48.484375 22.1875 42.84375 
Q 18.109375 37.203125 18.109375 27.296875 
Q 18.109375 17.390625 22.1875 11.75 
Q 26.265625 6.109375 33.40625 6.109375 
Q 40.53125 6.109375 44.609375 11.75 
Q 48.6875 17.390625 48.6875 27.296875 
z
" id="DejaVuSans-70"/>
      <path d="M 18.3125 70.21875 
L 18.3125 54.6875 
L 36.8125 54.6875 
L 36.8125 47.703125 
L 18.3125 47.703125 
L 18.3125 18.015625 
Q 18.3125 11.328125 20.140625 9.421875 
Q 21.96875 7.515625 27.59375 7.515625 
L 36.8125 7.515625 
L 36.8125 0 
L 27.59375 0 
Q 17.1875 0 13.234375 3.875 
Q 9.28125 7.765625 9.28125 18.015625 
L 9.28125 47.703125 
L 2.6875 47.703125 
L 2.6875 54.6875 
L 9.28125 54.6875 
L 9.28125 70.21875 
z
" id="DejaVuSans-74"/>
      <path d="M 8.5 21.578125 
L 8.5 54.6875 
L 17.484375 54.6875 
L 17.484375 21.921875 
Q 17.484375 14.15625 20.5 10.265625 
Q 23.53125 6.390625 29.59375 6.390625 
Q 36.859375 6.390625 41.078125 11.03125 
Q 45.3125 15.671875 45.3125 23.6875 
L 45.3125 54.6875 
L 54.296875 54.6875 
L 54.296875 0 
L 45.3125 0 
L 45.3125 8.40625 
Q 42.046875 3.421875 37.71875 1 
Q 33.40625 -1.421875 27.6875 -1.421875 
Q 18.265625 -1.421875 13.375 4.4375 
Q 8.5 10.296875 8.5 21.578125 
z
M 31.109375 56 
z
" id="DejaVuSans-75"/>
      <path d="M 48.78125 52.59375 
L 48.78125 44.1875 
Q 44.96875 46.296875 41.140625 47.34375 
Q 37.3125 48.390625 33.40625 48.390625 
Q 24.65625 48.390625 19.8125 42.84375 
Q 14.984375 37.3125 14.984375 27.296875 
Q 14.984375 17.28125 19.8125 11.734375 
Q 24.65625 6.203125 33.40625 6.203125 
Q 37.3125 6.203125 41.140625 7.25 
Q 44.96875 8.296875 48.78125 10.40625 
L 48.78125 2.09375 
Q 45.015625 0.34375 40.984375 -0.53125 
Q 36.96875 -1.421875 32.421875 -1.421875 
Q 20.0625 -1.421875 12.78125 6.34375 
Q 5.515625 14.109375 5.515625 27.296875 
Q 5.515625 40.671875 12.859375 48.328125 
Q 20.21875 56 33.015625 56 
Q 37.15625 56 41.109375 55.140625 
Q 45.0625 54.296875 48.78125 52.59375 
z
" id="DejaVuSans-63"/>
      <path d="M 46 62.703125 
L 46 35.5 
L 73.1875 35.5 
L 73.1875 27.203125 
L 46 27.203125 
L 46 0 
L 37.796875 0 
L 37.796875 27.203125 
L 10.59375 27.203125 
L 10.59375 35.5 
L 37.796875 35.5 
L 37.796875 62.703125 
z
" id="DejaVuSans-2b"/>
     </defs>
     <g transform="translate(24.250312 323.17875)rotate(-90)scale(0.18 -0.18)">
      <use xlink:href="#DejaVuSans-50"/>
      <use x="60.287109" xlink:href="#DejaVuSans-72"/>
      <use x="101.369141" xlink:href="#DejaVuSans-6f"/>
      <use x="162.550781" xlink:href="#DejaVuSans-70"/>
      <use x="226.027344" xlink:href="#DejaVuSans-6f"/>
      <use x="287.208984" xlink:href="#DejaVuSans-72"/>
      <use x="328.322266" xlink:href="#DejaVuSans-74"/>
      <use x="367.53125" xlink:href="#DejaVuSans-69"/>
      <use x="395.314453" xlink:href="#DejaVuSans-6f"/>
      <use x="456.496094" xlink:href="#DejaVuSans-6e"/>
      <use x="519.875" xlink:href="#DejaVuSans-20"/>
      <use x="551.662109" xlink:href="#DejaVuSans-6f"/>
      <use x="612.84375" xlink:href="#DejaVuSans-66"/>
      <use x="648.048828" xlink:href="#DejaVuSans-20"/>
      <use x="679.835938" xlink:href="#DejaVuSans-66"/>
      <use x="715.041016" xlink:href="#DejaVuSans-75"/>
      <use x="778.419922" xlink:href="#DejaVuSans-6e"/>
      <use x="841.798828" xlink:href="#DejaVuSans-63"/>
      <use x="896.779297" xlink:href="#DejaVuSans-74"/>
      <use x="935.988281" xlink:href="#DejaVuSans-69"/>
      <use x="963.771484" xlink:href="#DejaVuSans-6f"/>
      <use x="1024.953125" xlink:href="#DejaVuSans-6e"/>
      <use x="1088.332031" xlink:href="#DejaVuSans-2b"/>
      <use x="1172.121094" xlink:href="#DejaVuSans-74"/>
      <use x="1211.330078" xlink:href="#DejaVuSans-61"/>
      <use x="1272.609375" xlink:href="#DejaVuSans-72"/>
      <use x="1313.707031" xlink:href="#DejaVuSans-67"/>
      <use x="1377.183594" xlink:href="#DejaVuSans-65"/>
      <use x="1438.707031" xlink:href="#DejaVuSans-74"/>
      <use x="1477.916016" xlink:href="#DejaVuSans-20"/>
      <use x="1509.703125" xlink:href="#DejaVuSans-70"/>
      <use x="1573.179688" xlink:href="#DejaVuSans-61"/>
      <use x="1634.458984" xlink:href="#DejaVuSans-69"/>
      <use x="1662.242188" xlink:href="#DejaVuSans-72"/>
      <use x="1703.355469" xlink:href="#DejaVuSans-73"/>
     </g>
    </g>
   </g>
   <g id="line2d_23">
    <defs>
     <path d="M 0 1.5 
C 0.397805 1.5 0.77937 1.341951 1.06066 1.06066 
C 1.341951 0.77937 1.5 0.397805 1.5 0 
C 1.5 -0.397805 1.341951 -0.77937 1.06066 -1.06066 
C 0.77937 -1.341951 0.397805 -1.5 0 -1.5 
C -0.397805 -1.5 -0.77937 -1.341951 -1.06066 -1.06066 
C -1.341951 -0.77937 -1.5 -0.397805 -1.5 0 
C -1.5 0.397805 -1.341951 0.77937 -1.06066 1.06066 
C -0.77937 1.341951 -0.397805 1.5 0 1.5 
z
" id="m4f81113cbc" style="stroke:#000080;"/>
    </defs>
    <g>
     <use style="fill:#000080;stroke:#000080;" x="336.611096" xlink:href="#m4f81113cbc" y="55.433028"/>
     <use style="fill:#000080;stroke:#000080;" x="336.611096" xlink:href="#m4f81113cbc" y="55.433028"/>
    </g>
   </g>
   <g id="line2d_24">
    <path d="M 29.657143 298.245375 
L 29.657143 294.112399 
L 121.106049 294.112399 
L 121.106049 291.529289 
L 122.04395 291.529289 
L 122.04395 289.979423 
L 122.245852 289.979423 
L 122.345953 288.429557 
L 122.445497 288.429557 
L 122.445497 286.363069 
L 122.935065 286.363069 
L 123.03139 285.329825 
L 123.317286 285.329825 
L 123.317286 283.779959 
L 124.148511 283.779959 
L 124.148511 280.680226 
L 133.861894 280.680226 
L 133.861894 280.163604 
L 134.53042 280.163604 
L 134.53042 279.646982 
L 135.077192 279.646982 
L 135.077192 279.13036 
L 135.796811 279.13036 
L 135.84377 277.580494 
L 136.488566 277.580494 
L 136.488566 277.063872 
L 143.536359 277.063872 
L 143.627601 275.514006 
L 146.062784 275.514006 
L 146.062784 274.480762 
L 148.064103 274.480762 
L 148.064103 273.96414 
L 150.638393 273.96414 
L 150.638393 273.447518 
L 151.478929 273.447518 
L 151.478929 272.930896 
L 152.244276 272.930896 
L 152.300377 271.897652 
L 152.393489 271.897652 
L 152.393489 271.38103 
L 152.978183 271.38103 
L 152.978183 270.347786 
L 153.803687 270.347786 
L 153.803687 269.831164 
L 154.690998 269.831164 
L 154.690998 269.314542 
L 154.918207 269.314542 
L 154.918207 268.79792 
L 156.178911 268.79792 
L 156.178911 267.764676 
L 157.398654 267.764676 
L 157.398654 266.731432 
L 158.114025 266.731432 
L 158.114025 266.21481 
L 158.749874 266.21481 
L 158.749874 265.698188 
L 160.567279 265.698188 
L 160.567279 264.664944 
L 160.754381 264.664944 
L 160.754381 263.6317 
L 160.97405 263.6317 
L 161.031412 262.081834 
L 161.859513 262.081834 
L 161.859513 261.565212 
L 162.291653 261.565212 
L 162.291653 261.04859 
L 162.619517 261.04859 
L 162.713588 260.015346 
L 162.734425 260.015346 
L 162.734425 259.498724 
L 163.105403 259.498724 
L 163.105403 258.982102 
L 164.212632 258.982102 
L 164.212632 258.46548 
L 165.754575 258.46548 
L 165.754575 257.948858 
L 166.214649 257.948858 
L 166.274538 255.88237 
L 166.969752 255.88237 
L 166.969752 255.365748 
L 167.198311 255.365748 
L 167.198311 254.332504 
L 167.383892 254.332504 
L 167.407957 253.29926 
L 167.78865 253.29926 
L 167.78865 252.782638 
L 169.400834 252.782638 
L 169.400834 251.749394 
L 169.657114 251.749394 
L 169.755794 250.199528 
L 169.818945 250.199528 
L 169.923702 248.13304 
L 170.925662 248.13304 
L 170.971689 246.583173 
L 172.011233 246.583173 
L 172.011233 246.066551 
L 173.145431 246.066551 
L 173.232437 244.000063 
L 174.255679 244.000063 
L 174.282979 242.966819 
L 175.025699 242.966819 
L 175.025699 242.450197 
L 175.973589 242.450197 
L 175.973589 241.933575 
L 176.205357 241.933575 
L 176.205357 241.416953 
L 176.448663 241.416953 
L 176.554677 239.867087 
L 176.83592 239.867087 
L 176.854828 238.317221 
L 177.617847 238.317221 
L 177.717165 237.283977 
L 177.980824 237.283977 
L 177.980824 236.767355 
L 178.998193 236.767355 
L 179.073463 235.734111 
L 179.40421 235.734111 
L 179.51447 234.184245 
L 180.150327 234.184245 
L 180.150327 233.151001 
L 180.446448 233.151001 
L 180.446448 232.117757 
L 180.650086 232.117757 
L 180.650086 231.601135 
L 180.832532 231.601135 
L 180.832532 231.084513 
L 181.065467 231.084513 
L 181.065467 230.567891 
L 181.177096 230.567891 
L 181.177096 230.051269 
L 181.453157 230.051269 
L 181.533332 229.018025 
L 181.591416 229.018025 
L 181.591416 228.501403 
L 181.868335 228.501403 
L 181.868335 227.984781 
L 182.981995 227.984781 
L 182.981995 226.434915 
L 183.549599 226.434915 
L 183.585293 224.885049 
L 183.836372 224.885049 
L 183.836372 224.368427 
L 184.18143 224.368427 
L 184.18143 222.818561 
L 184.34994 222.818561 
L 184.34994 221.785317 
L 185.562617 221.785317 
L 185.562617 220.752073 
L 185.844781 220.752073 
L 185.844781 219.718829 
L 186.159084 219.718829 
L 186.159084 219.202207 
L 186.484499 219.202207 
L 186.484499 218.685585 
L 186.629981 218.685585 
L 186.703642 216.619097 
L 186.895905 216.619097 
L 186.895905 216.102475 
L 187.131367 216.102475 
L 187.131367 215.069231 
L 187.577634 215.069231 
L 187.577634 214.552609 
L 187.794095 214.552609 
L 187.794095 214.035987 
L 187.959813 214.035987 
L 187.959813 213.519365 
L 188.126523 213.519365 
L 188.126523 212.48612 
L 188.610178 212.48612 
L 188.681001 210.419632 
L 189.040523 210.419632 
L 189.138196 209.386388 
L 189.360133 209.386388 
L 189.381239 207.3199 
L 190.075367 207.3199 
L 190.095645 206.286656 
L 190.377144 206.286656 
L 190.377144 205.770034 
L 190.823706 205.770034 
L 190.823706 205.253412 
L 191.263598 205.253412 
L 191.263598 203.703546 
L 191.635168 203.703546 
L 191.635168 203.186924 
L 192.76393 203.186924 
L 192.777501 202.15368 
L 192.876065 202.15368 
L 192.876065 201.637058 
L 193.452567 201.637058 
L 193.452567 201.120436 
L 203.117909 201.120436 
L 203.117909 200.087192 
L 203.888733 200.087192 
L 203.888733 199.57057 
L 204.690466 199.57057 
L 204.690466 199.053948 
L 204.876542 199.053948 
L 204.876542 198.020704 
L 211.925743 198.020704 
L 211.925743 197.504082 
L 212.544701 197.504082 
L 212.608053 196.470838 
L 217.215932 196.470838 
L 217.307994 195.437594 
L 217.355072 195.437594 
L 217.461034 193.371106 
L 217.527124 193.371106 
L 217.584753 192.337862 
L 217.674939 192.337862 
L 217.674939 191.82124 
L 217.823449 191.82124 
L 217.823449 191.304618 
L 218.223502 191.304618 
L 218.245415 188.721508 
L 218.371705 188.721508 
L 218.422064 186.65502 
L 218.554445 186.65502 
L 218.554445 186.138398 
L 218.706298 186.138398 
L 218.740775 183.555288 
L 218.835245 183.555288 
L 218.937736 182.005422 
L 218.957448 182.005422 
L 218.957448 181.4888 
L 219.206 181.4888 
L 219.206 180.972178 
L 219.51809 180.972178 
L 219.539339 178.389067 
L 219.681361 178.389067 
L 219.681361 176.839201 
L 219.986172 176.839201 
L 219.986172 176.322579 
L 220.125958 176.322579 
L 220.151523 175.289335 
L 220.294598 175.289335 
L 220.384526 174.256091 
L 220.525344 174.256091 
L 220.525344 173.739469 
L 220.646739 173.739469 
L 220.750718 172.706225 
L 220.764887 172.706225 
L 220.764887 171.672981 
L 221.515734 171.672981 
L 221.515734 171.156359 
L 222.395465 171.156359 
L 222.395465 170.639737 
L 222.822129 170.639737 
L 222.822129 169.606493 
L 223.366287 169.606493 
L 223.430542 168.056627 
L 223.755929 168.056627 
L 223.84232 165.990139 
L 224.37259 165.990139 
L 224.37259 165.473517 
L 227.036989 165.473517 
L 227.044679 164.440273 
L 227.871257 164.440273 
L 227.871257 163.407029 
L 228.649313 163.407029 
L 228.649313 162.890407 
L 229.696665 162.890407 
L 229.696665 162.373785 
L 230.321869 162.373785 
L 230.321869 161.340541 
L 230.603603 161.340541 
L 230.618996 160.307297 
L 230.846241 160.307297 
L 230.846241 159.790675 
L 231.311985 159.790675 
L 231.311985 159.274053 
L 231.595649 159.274053 
L 231.595649 158.240809 
L 231.941251 158.240809 
L 231.941251 157.724187 
L 232.06896 157.724187 
L 232.06896 156.690943 
L 232.257764 156.690943 
L 232.257764 156.174321 
L 232.626782 156.174321 
L 232.626782 155.657699 
L 233.736274 155.657699 
L 233.796871 154.624455 
L 233.933338 154.624455 
L 234.027015 153.591211 
L 234.080106 153.591211 
L 234.080106 153.074589 
L 234.240913 153.074589 
L 234.240913 152.557967 
L 234.486484 152.557967 
L 234.486484 152.041345 
L 234.739281 152.041345 
L 234.739281 150.491479 
L 234.990559 150.491479 
L 235.025935 148.424991 
L 235.372143 148.424991 
L 235.432255 146.875125 
L 236.071885 146.875125 
L 236.071885 146.358503 
L 237.25111 146.358503 
L 237.25111 145.841881 
L 237.494404 145.841881 
L 237.494404 144.808637 
L 237.894174 144.808637 
L 237.894174 143.775392 
L 238.126474 143.775392 
L 238.126474 143.25877 
L 238.910893 143.25877 
L 238.910893 142.742148 
L 239.955309 142.742148 
L 240.000597 141.708904 
L 240.156979 141.708904 
L 240.258122 140.67566 
L 240.460455 140.67566 
L 240.460455 140.159038 
L 240.803216 140.159038 
L 240.862842 138.09255 
L 240.929732 138.09255 
L 240.929732 134.992818 
L 241.139785 134.992818 
L 241.139785 133.959574 
L 241.268188 133.959574 
L 241.268188 132.409708 
L 242.137535 132.409708 
L 242.137535 130.34322 
L 243.152927 130.34322 
L 243.254133 129.309976 
L 243.588461 129.309976 
L 243.588461 128.793354 
L 243.812786 128.793354 
L 243.812786 128.276732 
L 245.471506 128.276732 
L 245.471506 127.76011 
L 245.629596 127.76011 
L 245.629596 126.726866 
L 245.836009 126.726866 
L 245.939268 125.177 
L 246.0439 125.177 
L 246.0439 124.660378 
L 246.163459 124.660378 
L 246.268053 123.110512 
L 246.641369 123.110512 
L 246.641369 122.077268 
L 248.005081 122.077268 
L 248.090342 120.527402 
L 248.238966 120.527402 
L 248.238966 120.01078 
L 248.49162 120.01078 
L 248.49162 118.977536 
L 249.4613 118.977536 
L 249.4613 117.944292 
L 249.929468 117.944292 
L 249.984366 115.361182 
L 250.465704 115.361182 
L 250.504892 114.327938 
L 250.624453 114.327938 
L 250.624453 113.811316 
L 251.209587 113.811316 
L 251.209587 113.294694 
L 251.688555 113.294694 
L 251.688555 112.778072 
L 251.871865 112.778072 
L 251.871865 111.744828 
L 252.402096 111.744828 
L 252.402096 111.228206 
L 252.685037 111.228206 
L 252.685037 110.711584 
L 253.042101 110.711584 
L 253.042101 110.194961 
L 253.767767 110.194961 
L 253.798755 108.645095 
L 254.900978 108.645095 
L 254.900978 107.611851 
L 255.420734 107.611851 
L 255.44585 106.578607 
L 256.385696 106.578607 
L 256.385696 106.061985 
L 256.911186 106.061985 
L 256.911186 104.512119 
L 257.531338 104.512119 
L 257.531338 103.995497 
L 258.072401 103.995497 
L 258.072401 102.962253 
L 258.492198 102.962253 
L 258.505078 101.929009 
L 258.68632 101.929009 
L 258.778401 100.379143 
L 258.821019 100.379143 
L 258.853503 98.312655 
L 259.245402 98.312655 
L 259.245402 97.796033 
L 259.495444 97.796033 
L 259.498361 96.762789 
L 259.848565 96.762789 
L 259.848565 95.729545 
L 260.212292 95.729545 
L 260.212292 95.212923 
L 260.408896 95.212923 
L 260.408896 94.696301 
L 261.267222 94.696301 
L 261.267222 94.179679 
L 261.458091 94.179679 
L 261.458091 93.146435 
L 261.730473 93.146435 
L 261.821463 91.596569 
L 262.146834 91.596569 
L 262.146834 91.079947 
L 262.7898 91.079947 
L 262.7898 90.563325 
L 263.67612 90.563325 
L 263.69041 89.013459 
L 263.874231 89.013459 
L 263.874231 88.496837 
L 264.279545 88.496837 
L 264.279545 87.980215 
L 265.916269 87.980215 
L 265.916269 87.463593 
L 266.156925 87.463593 
L 266.156925 85.397105 
L 266.865403 85.397105 
L 266.865403 84.880483 
L 267.796162 84.880483 
L 267.796162 84.363861 
L 268.451281 84.363861 
L 268.451281 83.847239 
L 268.914465 83.847239 
L 268.914465 83.330617 
L 269.046927 83.330617 
L 269.105449 81.780751 
L 269.616864 81.780751 
L 269.616864 81.264129 
L 270.112181 81.264129 
L 270.112181 80.747507 
L 270.331223 80.747507 
L 270.331223 79.714263 
L 271.09647 79.714263 
L 271.09647 78.681019 
L 271.412027 78.681019 
L 271.412027 78.164397 
L 271.834627 78.164397 
L 271.919957 76.614531 
L 272.337937 76.614531 
L 272.337937 76.097908 
L 272.839774 76.097908 
L 272.881164 75.064664 
L 273.034397 75.064664 
L 273.034397 74.548042 
L 273.778596 74.548042 
L 273.800448 72.481554 
L 274.124757 72.481554 
L 274.124757 71.44831 
L 274.420036 71.44831 
L 274.420036 70.415066 
L 283.264136 70.415066 
L 283.264136 69.898444 
L 283.714696 69.898444 
L 283.714696 69.381822 
L 283.88315 69.381822 
L 283.88315 68.8652 
L 284.243794 68.8652 
L 284.243794 68.348578 
L 285.026212 68.348578 
L 285.124877 67.315334 
L 285.154913 67.315334 
L 285.154913 66.798712 
L 286.030873 66.798712 
L 286.030873 66.28209 
L 286.218857 66.28209 
L 286.218857 65.765468 
L 286.561673 65.765468 
L 286.561673 65.248846 
L 291.341084 65.248846 
L 291.341084 64.732224 
L 293.365625 64.732224 
L 293.365625 64.215602 
L 293.731828 64.215602 
L 293.731828 63.69898 
L 294.169771 63.69898 
L 294.169771 63.182358 
L 294.517002 63.182358 
L 294.517002 62.665736 
L 297.760015 62.665736 
L 297.760015 62.149114 
L 298.253658 62.149114 
L 298.253658 61.632492 
L 298.879297 61.632492 
L 298.879297 61.11587 
L 300.45724 61.11587 
L 300.45724 60.599248 
L 302.474656 60.599248 
L 302.474656 60.082626 
L 303.564451 60.082626 
L 303.564451 59.566004 
L 304.311109 59.566004 
L 304.311109 59.049382 
L 307.869193 59.049382 
L 307.869193 58.53276 
L 309.974013 58.53276 
L 309.974013 58.016138 
L 310.770477 58.016138 
L 310.770477 57.499516 
L 319.456632 57.499516 
L 319.456632 56.982894 
L 327.075851 56.982894 
L 327.075851 56.466272 
L 334.236778 56.466272 
L 334.236778 55.94965 
L 336.611096 55.94965 
L 336.611096 55.433028 
L 358.8 55.433028 
L 358.8 55.433028 
" style="fill:none;stroke:#000080;stroke-linecap:square;stroke-width:1.5;"/>
   </g>
   <g id="line2d_25">
    <defs>
     <path d="M 0 6 
C 1.591219 6 3.117479 5.367802 4.242641 4.242641 
C 5.367802 3.117479 6 1.591219 6 0 
C 6 -1.591219 5.367802 -3.117479 4.242641 -4.242641 
C 3.117479 -5.367802 1.591219 -6 0 -6 
C -1.591219 -6 -3.117479 -5.367802 -4.242641 -4.242641 
C -5.367802 -3.117479 -6 -1.591219 -6 0 
C -6 1.591219 -5.367802 3.117479 -4.242641 4.242641 
C -3.117479 5.367802 -1.591219 6 0 6 
z
" id="m9da23ef2e4" style="stroke:#000080;stroke-width:1.5;"/>
    </defs>
    <g>
     <use style="fill:none;stroke:#000080;stroke-width:1.5;" x="29.657143" xlink:href="#m9da23ef2e4" y="294.112399"/>
     <use style="fill:none;stroke:#000080;stroke-width:1.5;" x="179.073463" xlink:href="#m9da23ef2e4" y="235.734111"/>
     <use style="fill:none;stroke:#000080;stroke-width:1.5;" x="227.044679" xlink:href="#m9da23ef2e4" y="164.440273"/>
     <use style="fill:none;stroke:#000080;stroke-width:1.5;" x="272.337937" xlink:href="#m9da23ef2e4" y="76.614531"/>
     <use style="fill:none;stroke:#000080;stroke-width:1.5;" x="336.611096" xlink:href="#m9da23ef2e4" y="55.433028"/>
     <use style="fill:none;stroke:#000080;stroke-width:1.5;" x="358.8" xlink:href="#m9da23ef2e4" y="55.433028"/>
    </g>
   </g>
   <g id="line2d_26"/>
   <g id="line2d_27">
    <path clip-path="url(#pdc8fc50ebd)" d="M 272.839774 75.581286 
" style="fill:none;stroke:#000080;stroke-linecap:square;stroke-width:1.5;"/>
    <defs>
     <path d="M -12 12 
L 12 -12 
M -12 -12 
L 12 12 
" id="m1ece1fca34" style="stroke:#000080;stroke-width:3;"/>
    </defs>
    <g clip-path="url(#pdc8fc50ebd)">
     <use style="fill:#000080;stroke:#000080;stroke-width:3;" x="272.839774" xlink:href="#m1ece1fca34" y="75.581286"/>
    </g>
   </g>
   <g id="line2d_28">
    <defs>
     <path d="M 0 1.5 
C 0.397805 1.5 0.77937 1.341951 1.06066 1.06066 
C 1.341951 0.77937 1.5 0.397805 1.5 0 
C 1.5 -0.397805 1.341951 -0.77937 1.06066 -1.06066 
C 0.77937 -1.341951 0.397805 -1.5 0 -1.5 
C -0.397805 -1.5 -0.77937 -1.341951 -1.06066 -1.06066 
C -1.341951 -0.77937 -1.5 -0.397805 -1.5 0 
C -1.5 0.397805 -1.341951 0.77937 -1.06066 1.06066 
C -0.77937 1.341951 -0.397805 1.5 0 1.5 
z
" id="m9c9066d11d" style="stroke:#ff00ff;"/>
    </defs>
    <g>
     <use style="fill:#ff00ff;stroke:#ff00ff;" x="343.744972" xlink:href="#m9c9066d11d" y="158.757431"/>
     <use style="fill:#ff00ff;stroke:#ff00ff;" x="343.744972" xlink:href="#m9c9066d11d" y="158.757431"/>
    </g>
   </g>
   <g id="line2d_29">
    <path d="M 190.899213 298.245375 
L 190.899213 297.728753 
L 203.55578 297.728753 
L 203.55578 297.212131 
L 211.369668 297.212131 
L 211.369668 296.695509 
L 212.187942 296.695509 
L 212.187942 296.178887 
L 214.24754 296.178887 
L 214.24754 295.662265 
L 214.985063 295.662265 
L 214.985063 295.145643 
L 217.480983 295.145643 
L 217.480983 294.629021 
L 217.734491 294.629021 
L 217.734491 294.112399 
L 218.205765 294.112399 
L 218.255663 292.562533 
L 218.318883 292.562533 
L 218.318883 292.045911 
L 218.744853 292.045911 
L 218.849665 290.496045 
L 219.302441 290.496045 
L 219.302441 289.979423 
L 219.629259 289.979423 
L 219.665445 287.912935 
L 220.167431 287.912935 
L 220.192519 286.363069 
L 220.372534 286.363069 
L 220.372534 285.846447 
L 220.685395 285.846447 
L 220.685395 284.813203 
L 220.95888 284.813203 
L 220.95888 283.779959 
L 221.189558 283.779959 
L 221.189558 283.263337 
L 221.562622 283.263337 
L 221.562622 282.230093 
L 221.761206 282.230093 
L 221.761206 281.196849 
L 222.172455 281.196849 
L 222.172455 280.680226 
L 222.968675 280.680226 
L 222.968675 280.163604 
L 223.594322 280.163604 
L 223.594322 279.646982 
L 223.735037 279.646982 
L 223.735037 278.097116 
L 224.378541 278.097116 
L 224.428718 276.030628 
L 224.748561 276.030628 
L 224.850589 272.930896 
L 224.936986 272.930896 
L 224.999993 271.897652 
L 226.424089 271.897652 
L 226.424089 271.38103 
L 226.647046 271.38103 
L 226.647046 269.831164 
L 226.947314 269.831164 
L 227.032716 266.21481 
L 227.288745 266.21481 
L 227.288745 265.698188 
L 227.457322 265.698188 
L 227.457322 263.6317 
L 228.622222 263.6317 
L 228.622222 262.598456 
L 230.559918 262.598456 
L 230.594035 260.015346 
L 231.163133 260.015346 
L 231.163133 259.498724 
L 231.93129 259.498724 
L 231.93129 258.982102 
L 232.240101 258.982102 
L 232.280083 257.432236 
L 232.356817 257.432236 
L 232.356817 255.88237 
L 233.133522 255.88237 
L 233.133522 254.849126 
L 233.33951 254.849126 
L 233.33951 254.332504 
L 233.518986 254.332504 
L 233.518986 253.815882 
L 233.933338 253.815882 
L 233.933338 251.232772 
L 234.407265 251.232772 
L 234.407265 250.71615 
L 235.034859 250.71615 
L 235.119326 249.682906 
L 235.341922 249.682906 
L 235.341922 249.166284 
L 235.757118 249.166284 
L 235.809327 247.099796 
L 238.952324 247.099796 
L 238.952324 246.066551 
L 240.360318 246.066551 
L 240.385979 244.516685 
L 240.700082 244.516685 
L 240.700082 244.000063 
L 240.850091 244.000063 
L 240.850091 243.483441 
L 241.475338 243.483441 
L 241.475338 242.966819 
L 242.722267 242.966819 
L 242.722267 242.450197 
L 243.245971 242.450197 
L 243.245971 241.933575 
L 243.59286 241.933575 
L 243.59286 241.416953 
L 243.90058 241.416953 
L 243.90058 240.383709 
L 244.186187 240.383709 
L 244.186187 239.350465 
L 244.506887 239.350465 
L 244.506887 238.833843 
L 244.684107 238.833843 
L 244.74184 236.767355 
L 245.083959 236.767355 
L 245.083959 236.250733 
L 245.315794 236.250733 
L 245.315794 235.734111 
L 245.620939 235.734111 
L 245.620939 233.667623 
L 246.622149 233.667623 
L 246.622149 233.151001 
L 247.306755 233.151001 
L 247.306755 232.117757 
L 247.931006 232.117757 
L 247.931006 231.084513 
L 248.212336 231.084513 
L 248.212336 230.567891 
L 249.194241 230.567891 
L 249.194241 227.984781 
L 249.600199 227.984781 
L 249.600199 226.434915 
L 249.765991 226.434915 
L 249.765991 225.918293 
L 249.899856 225.918293 
L 249.994143 222.818561 
L 250.327055 222.818561 
L 250.327055 222.301939 
L 251.293269 222.301939 
L 251.293269 221.785317 
L 251.589631 221.785317 
L 251.589631 221.268695 
L 251.911206 221.268695 
L 251.911206 220.235451 
L 253.280175 220.235451 
L 253.280175 219.718829 
L 253.42362 219.718829 
L 253.42362 218.168963 
L 254.936461 218.168963 
L 254.936461 216.619097 
L 255.410608 216.619097 
L 255.4212 215.585853 
L 256.117124 215.585853 
L 256.117124 213.519365 
L 256.693958 213.519365 
L 256.693958 213.002743 
L 259.735364 213.002743 
L 259.735364 212.48612 
L 261.353125 212.48612 
L 261.353125 209.386388 
L 261.509392 209.386388 
L 261.532219 207.836522 
L 262.001059 207.836522 
L 262.001059 205.253412 
L 263.016458 205.253412 
L 263.016458 204.220168 
L 263.372221 204.220168 
L 263.372221 203.703546 
L 263.730797 203.703546 
L 263.730797 202.670302 
L 264.776167 202.670302 
L 264.795078 201.120436 
L 265.025974 201.120436 
L 265.025974 200.603814 
L 266.517083 200.603814 
L 266.584832 195.954216 
L 266.940398 195.954216 
L 266.940398 195.437594 
L 267.081334 195.437594 
L 267.081334 194.920972 
L 268.019285 194.920972 
L 268.094952 193.371106 
L 268.320362 193.371106 
L 268.320362 192.854484 
L 270.13344 192.854484 
L 270.13344 191.304618 
L 273.372587 191.304618 
L 273.372587 190.271374 
L 273.878999 190.271374 
L 273.878999 189.754752 
L 274.03423 189.754752 
L 274.03423 189.23813 
L 275.212953 189.23813 
L 275.292358 187.171642 
L 275.5659 187.171642 
L 275.5659 186.65502 
L 278.053053 186.65502 
L 278.053053 186.138398 
L 279.068485 186.138398 
L 279.068485 185.621776 
L 279.181176 185.621776 
L 279.286599 184.588532 
L 280.339784 184.588532 
L 280.339784 184.07191 
L 280.555691 184.07191 
L 280.555691 183.555288 
L 280.98789 183.555288 
L 280.98789 183.038666 
L 281.864607 183.038666 
L 281.864607 182.522044 
L 282.030136 182.522044 
L 282.030136 182.005422 
L 284.823564 182.005422 
L 284.823564 181.4888 
L 285.183237 181.4888 
L 285.183237 180.972178 
L 285.973253 180.972178 
L 285.973253 180.455556 
L 287.969674 180.455556 
L 287.969674 179.938934 
L 288.477891 179.938934 
L 288.477891 179.422312 
L 289.554336 179.422312 
L 289.554336 178.90569 
L 290.113662 178.90569 
L 290.113662 178.389067 
L 290.611985 178.389067 
L 290.611985 177.872445 
L 291.042151 177.872445 
L 291.042151 177.355823 
L 291.233576 177.355823 
L 291.233576 176.839201 
L 293.805715 176.839201 
L 293.855978 175.805957 
L 295.037914 175.805957 
L 295.037914 175.289335 
L 296.334991 175.289335 
L 296.410942 174.256091 
L 297.124797 174.256091 
L 297.124797 173.739469 
L 297.745721 173.739469 
L 297.745721 173.222847 
L 297.947068 173.222847 
L 297.947068 172.706225 
L 298.890246 172.706225 
L 298.890246 172.189603 
L 299.014708 172.189603 
L 299.014708 171.672981 
L 299.298942 171.672981 
L 299.298942 171.156359 
L 299.868513 171.156359 
L 299.868513 170.639737 
L 301.425774 170.639737 
L 301.425774 170.123115 
L 302.683162 170.123115 
L 302.683162 169.606493 
L 303.926158 169.606493 
L 303.926158 169.089871 
L 304.945595 169.089871 
L 304.945595 168.573249 
L 305.113649 168.573249 
L 305.113649 168.056627 
L 305.610824 168.056627 
L 305.610824 167.540005 
L 305.853666 167.540005 
L 305.853666 167.023383 
L 307.150117 167.023383 
L 307.229264 165.990139 
L 308.957664 165.990139 
L 308.957664 165.473517 
L 310.743335 165.473517 
L 310.743335 164.956895 
L 311.557658 164.956895 
L 311.557658 164.440273 
L 312.721327 164.440273 
L 312.721327 163.923651 
L 316.63452 163.923651 
L 316.63452 163.407029 
L 319.154169 163.407029 
L 319.154169 162.890407 
L 319.702096 162.890407 
L 319.702096 162.373785 
L 320.648447 162.373785 
L 320.648447 161.857163 
L 321.679706 161.857163 
L 321.679706 161.340541 
L 325.623798 161.340541 
L 325.623798 160.823919 
L 325.94768 160.823919 
L 325.94768 160.307297 
L 329.068982 160.307297 
L 329.068982 159.790675 
L 329.393397 159.790675 
L 329.393397 159.274053 
L 343.744972 159.274053 
L 343.744972 158.757431 
L 358.8 158.757431 
L 358.8 158.757431 
" style="fill:none;stroke:#ff00ff;stroke-linecap:square;stroke-width:1.5;"/>
   </g>
   <g id="line2d_30">
    <defs>
     <path d="M -0 8.485281 
L 5.091169 0 
L 0 -8.485281 
L -5.091169 -0 
z
" id="m04586cbea6" style="stroke:#ff00ff;stroke-linejoin:miter;stroke-width:1.5;"/>
    </defs>
    <g>
     <use style="fill:none;stroke:#ff00ff;stroke-linejoin:miter;stroke-width:1.5;" x="226.967917" xlink:href="#m04586cbea6" y="268.281298"/>
     <use style="fill:none;stroke:#ff00ff;stroke-linejoin:miter;stroke-width:1.5;" x="275.5659" xlink:href="#m04586cbea6" y="186.65502"/>
     <use style="fill:none;stroke:#ff00ff;stroke-linejoin:miter;stroke-width:1.5;" x="343.744972" xlink:href="#m04586cbea6" y="158.757431"/>
     <use style="fill:none;stroke:#ff00ff;stroke-linejoin:miter;stroke-width:1.5;" x="358.8" xlink:href="#m04586cbea6" y="158.757431"/>
    </g>
   </g>
   <g id="line2d_31"/>
   <g id="line2d_32">
    <path clip-path="url(#pdc8fc50ebd)" d="M 268.406276 192.854484 
" style="fill:none;stroke:#ff00ff;stroke-linecap:square;stroke-width:1.5;"/>
    <defs>
     <path d="M -12 12 
L 12 -12 
M -12 -12 
L 12 12 
" id="mdc7448d4b7" style="stroke:#ff00ff;stroke-width:3;"/>
    </defs>
    <g clip-path="url(#pdc8fc50ebd)">
     <use style="fill:#ff00ff;stroke:#ff00ff;stroke-width:3;" x="268.406276" xlink:href="#mdc7448d4b7" y="192.854484"/>
    </g>
   </g>
   <g id="line2d_33">
    <defs>
     <path d="M 0 1.5 
C 0.397805 1.5 0.77937 1.341951 1.06066 1.06066 
C 1.341951 0.77937 1.5 0.397805 1.5 0 
C 1.5 -0.397805 1.341951 -0.77937 1.06066 -1.06066 
C 0.77937 -1.341951 0.397805 -1.5 0 -1.5 
C -0.397805 -1.5 -0.77937 -1.341951 -1.06066 -1.06066 
C -1.341951 -0.77937 -1.5 -0.397805 -1.5 0 
C -1.5 0.397805 -1.341951 0.77937 -1.06066 1.06066 
C -0.77937 1.341951 -0.397805 1.5 0 1.5 
z
" id="m29ec45d2dd" style="stroke:#ffa500;"/>
    </defs>
    <g>
     <use style="fill:#ffa500;stroke:#ffa500;" x="352.686335" xlink:href="#m29ec45d2dd" y="132.92633"/>
     <use style="fill:#ffa500;stroke:#ffa500;" x="352.686335" xlink:href="#m29ec45d2dd" y="132.92633"/>
    </g>
   </g>
   <g id="line2d_34">
    <path d="M 151.40056 298.245375 
L 151.40056 297.212131 
L 156.958146 297.212131 
L 156.958146 296.695509 
L 157.801138 296.695509 
L 157.801138 296.178887 
L 158.005815 296.178887 
L 158.005815 295.145643 
L 158.892456 295.145643 
L 158.918259 294.112399 
L 159.376441 294.112399 
L 159.376441 293.595777 
L 160.881887 293.595777 
L 160.881887 293.079155 
L 165.363417 293.079155 
L 165.363417 292.562533 
L 165.728176 292.562533 
L 165.728176 291.529289 
L 165.929583 291.529289 
L 165.929583 291.012667 
L 167.638928 291.012667 
L 167.638928 290.496045 
L 169.220674 290.496045 
L 169.220674 289.462801 
L 169.755794 289.462801 
L 169.755794 288.429557 
L 169.951534 288.429557 
L 169.951534 287.912935 
L 170.839869 287.912935 
L 170.839869 287.396313 
L 171.380677 287.396313 
L 171.457529 286.363069 
L 171.793061 286.363069 
L 171.793061 285.329825 
L 173.479532 285.329825 
L 173.479532 284.813203 
L 174.505283 284.813203 
L 174.505283 284.296581 
L 174.692891 284.296581 
L 174.692891 283.779959 
L 175.187214 283.779959 
L 175.187214 283.263337 
L 176.688701 283.263337 
L 176.688701 282.746715 
L 177.339544 282.746715 
L 177.339544 282.230093 
L 178.179336 282.230093 
L 178.179336 281.713471 
L 178.475187 281.713471 
L 178.475187 281.196849 
L 178.625574 281.196849 
L 178.625574 280.163604 
L 179.51854 280.163604 
L 179.51854 279.646982 
L 180.216992 279.646982 
L 180.216992 279.13036 
L 180.581186 279.13036 
L 180.581186 278.097116 
L 181.36161 278.097116 
L 181.36161 277.580494 
L 181.602286 277.580494 
L 181.602286 277.063872 
L 182.263617 277.063872 
L 182.315898 275.514006 
L 182.544138 275.514006 
L 182.544138 274.480762 
L 183.845958 274.480762 
L 183.845958 273.96414 
L 184.399565 273.96414 
L 184.482996 272.930896 
L 184.712726 272.930896 
L 184.712726 272.414274 
L 184.879336 272.414274 
L 184.966564 270.864408 
L 185.704256 270.864408 
L 185.704256 269.831164 
L 186.925508 269.831164 
L 186.979206 268.79792 
L 188.121494 268.79792 
L 188.121494 267.764676 
L 188.995078 267.764676 
L 188.995078 266.731432 
L 191.210787 266.731432 
L 191.210787 266.21481 
L 191.840575 266.21481 
L 191.881374 264.664944 
L 193.634517 264.664944 
L 193.634517 264.148322 
L 201.683078 264.148322 
L 201.683078 263.6317 
L 205.257444 263.6317 
L 205.257444 263.115078 
L 205.755503 263.115078 
L 205.755503 262.081834 
L 210.756803 262.081834 
L 210.756803 261.565212 
L 212.022374 261.565212 
L 212.022374 260.531968 
L 217.808653 260.531968 
L 217.808653 260.015346 
L 217.95322 260.015346 
L 217.97594 258.982102 
L 218.085816 258.982102 
L 218.085816 258.46548 
L 218.311457 258.46548 
L 218.413296 257.432236 
L 218.496649 257.432236 
L 218.556277 254.849126 
L 218.808175 254.849126 
L 218.832089 253.815882 
L 219.120132 253.815882 
L 219.171525 252.782638 
L 219.350685 252.782638 
L 219.426735 251.749394 
L 219.586517 251.749394 
L 219.586517 250.199528 
L 220.122603 250.199528 
L 220.210477 248.13304 
L 220.411375 248.13304 
L 220.427465 247.099796 
L 220.744237 247.099796 
L 220.839594 245.549929 
L 220.861744 245.549929 
L 220.966884 244.000063 
L 221.068226 244.000063 
L 221.120666 242.450197 
L 221.290827 242.450197 
L 221.290827 241.416953 
L 223.557671 241.416953 
L 223.557671 240.900331 
L 223.932024 240.900331 
L 223.932024 240.383709 
L 224.149982 240.383709 
L 224.149982 239.867087 
L 224.36002 239.867087 
L 224.36002 239.350465 
L 224.685309 239.350465 
L 224.685309 238.833843 
L 225.157655 238.833843 
L 225.157655 237.800599 
L 225.624312 237.800599 
L 225.624312 237.283977 
L 227.335872 237.283977 
L 227.440898 235.734111 
L 228.557715 235.734111 
L 228.631604 233.667623 
L 228.968429 233.667623 
L 229.050316 232.634379 
L 229.4761 232.634379 
L 229.4761 231.601135 
L 230.513781 231.601135 
L 230.513781 231.084513 
L 230.938992 231.084513 
L 230.938992 230.567891 
L 231.236025 230.567891 
L 231.236025 229.534647 
L 231.769395 229.534647 
L 231.769395 229.018025 
L 232.19875 229.018025 
L 232.238398 227.984781 
L 232.354702 227.984781 
L 232.423111 225.401671 
L 232.484541 225.401671 
L 232.484541 224.885049 
L 232.805069 224.885049 
L 232.805069 224.368427 
L 233.181455 224.368427 
L 233.181455 223.851805 
L 234.181424 223.851805 
L 234.181424 223.335183 
L 234.615381 223.335183 
L 234.615381 222.818561 
L 234.831969 222.818561 
L 234.831969 222.301939 
L 235.057423 222.301939 
L 235.057423 221.785317 
L 235.549753 221.785317 
L 235.549753 221.268695 
L 235.683874 221.268695 
L 235.683874 220.235451 
L 236.101584 220.235451 
L 236.183728 218.168963 
L 237.244353 218.168963 
L 237.244353 217.652341 
L 237.525158 217.652341 
L 237.525158 217.135719 
L 238.110233 217.135719 
L 238.110233 216.619097 
L 238.404412 216.619097 
L 238.47424 213.519365 
L 238.879499 213.519365 
L 238.879499 213.002743 
L 239.011888 213.002743 
L 239.049014 211.969498 
L 240.686418 211.969498 
L 240.686418 211.452876 
L 241.516558 211.452876 
L 241.614972 209.386388 
L 241.631217 209.386388 
L 241.631217 208.869766 
L 243.441654 208.869766 
L 243.549498 207.3199 
L 243.812006 207.3199 
L 243.812006 206.803278 
L 244.029157 206.803278 
L 244.029157 205.770034 
L 244.401775 205.770034 
L 244.482009 203.186924 
L 244.586971 203.186924 
L 244.604352 201.637058 
L 245.542233 201.637058 
L 245.575675 199.57057 
L 245.97701 199.57057 
L 245.97701 199.053948 
L 246.186593 199.053948 
L 246.186593 198.537326 
L 246.302103 198.537326 
L 246.302103 198.020704 
L 247.343456 198.020704 
L 247.431561 196.470838 
L 247.499485 196.470838 
L 247.499485 195.437594 
L 248.087009 195.437594 
L 248.087009 192.337862 
L 248.287251 192.337862 
L 248.287251 191.82124 
L 248.565461 191.82124 
L 248.636617 190.271374 
L 248.788292 190.271374 
L 248.788292 189.754752 
L 249.869163 189.754752 
L 249.878051 188.721508 
L 250.349324 188.721508 
L 250.349324 188.204886 
L 250.514006 188.204886 
L 250.514006 187.171642 
L 251.309533 187.171642 
L 251.309533 186.65502 
L 251.449296 186.65502 
L 251.454889 184.588532 
L 251.636142 184.588532 
L 251.636142 184.07191 
L 252.893001 184.07191 
L 252.893001 183.555288 
L 253.312151 183.555288 
L 253.312151 183.038666 
L 253.542025 183.038666 
L 253.542025 182.522044 
L 253.850729 182.522044 
L 253.884174 180.972178 
L 254.539646 180.972178 
L 254.539646 180.455556 
L 255.184189 180.455556 
L 255.286359 178.389067 
L 255.601108 178.389067 
L 255.601108 177.872445 
L 256.762308 177.872445 
L 256.762308 176.322579 
L 256.916377 176.322579 
L 256.916377 175.805957 
L 257.252541 175.805957 
L 257.252541 175.289335 
L 257.393499 175.289335 
L 257.393499 174.772713 
L 257.660682 174.772713 
L 257.672072 173.739469 
L 258.019006 173.739469 
L 258.019006 173.222847 
L 258.273542 173.222847 
L 258.273542 171.156359 
L 258.40739 171.156359 
L 258.40739 170.639737 
L 259.350397 170.639737 
L 259.350397 170.123115 
L 261.964147 170.123115 
L 261.964147 169.606493 
L 262.220033 169.606493 
L 262.220033 169.089871 
L 262.568695 169.089871 
L 262.568695 168.573249 
L 262.680345 168.573249 
L 262.680345 168.056627 
L 262.925482 168.056627 
L 262.925482 167.540005 
L 263.143942 167.540005 
L 263.143942 167.023383 
L 263.383402 167.023383 
L 263.383402 165.473517 
L 264.654887 165.473517 
L 264.654887 164.440273 
L 265.220302 164.440273 
L 265.220302 163.923651 
L 265.352573 163.923651 
L 265.352573 163.407029 
L 265.839016 163.407029 
L 265.852001 161.857163 
L 266.109871 161.857163 
L 266.109871 160.823919 
L 266.232882 160.823919 
L 266.232882 160.307297 
L 266.359405 160.307297 
L 266.359405 159.790675 
L 267.650713 159.790675 
L 267.706935 158.757431 
L 268.216785 158.757431 
L 268.216785 157.724187 
L 268.810078 157.724187 
L 268.810078 155.657699 
L 269.336998 155.657699 
L 269.336998 153.591211 
L 269.759134 153.591211 
L 269.759134 153.074589 
L 270.079246 153.074589 
L 270.079246 152.041345 
L 270.86116 152.041345 
L 270.86116 151.524723 
L 271.051916 151.524723 
L 271.051916 151.008101 
L 271.203342 151.008101 
L 271.265267 149.458235 
L 272.012262 149.458235 
L 272.012262 148.424991 
L 274.053558 148.424991 
L 274.053558 147.908369 
L 274.549468 147.908369 
L 274.549468 147.391747 
L 274.706937 147.391747 
L 274.706937 146.358503 
L 274.956171 146.358503 
L 275.039381 145.325259 
L 284.240976 145.325259 
L 284.240976 144.808637 
L 285.068817 144.808637 
L 285.116113 143.775392 
L 285.406774 143.775392 
L 285.406774 143.25877 
L 285.932342 143.25877 
L 285.932342 142.742148 
L 287.383059 142.742148 
L 287.383059 142.225526 
L 292.065924 142.225526 
L 292.065924 141.708904 
L 293.490739 141.708904 
L 293.490739 141.192282 
L 304.466799 141.192282 
L 304.466799 140.67566 
L 311.846875 140.67566 
L 311.846875 140.159038 
L 312.040802 140.159038 
L 312.040802 139.642416 
L 316.128782 139.642416 
L 316.128782 139.125794 
L 318.880309 139.125794 
L 318.951664 138.09255 
L 323.300591 138.09255 
L 323.300591 137.575928 
L 324.148586 137.575928 
L 324.148586 137.059306 
L 325.977647 137.059306 
L 325.977647 136.542684 
L 327.591987 136.542684 
L 327.591987 136.026062 
L 333.547009 136.026062 
L 333.547009 135.50944 
L 335.42412 135.50944 
L 335.42412 134.992818 
L 336.129096 134.992818 
L 336.129096 134.476196 
L 341.558203 134.476196 
L 341.558203 133.959574 
L 348.876507 133.959574 
L 348.876507 133.442952 
L 352.686335 133.442952 
L 352.686335 132.92633 
L 358.8 132.92633 
L 358.8 132.92633 
" style="fill:none;stroke:#ffa500;stroke-linecap:square;stroke-width:1.5;"/>
   </g>
   <g id="line2d_35">
    <defs>
     <path d="M 0 -6 
L -1.347084 -1.854102 
L -5.706339 -1.854102 
L -2.179628 0.708204 
L -3.526712 4.854102 
L -0 2.291796 
L 3.526712 4.854102 
L 2.179628 0.708204 
L 5.706339 -1.854102 
L 1.347084 -1.854102 
z
" id="m7d2e3c0aa4" style="stroke:#ffa500;stroke-linejoin:bevel;stroke-width:1.5;"/>
    </defs>
    <g>
     <use style="fill:none;stroke:#ffa500;stroke-linejoin:bevel;stroke-width:1.5;" x="232.238398" xlink:href="#m7d2e3c0aa4" y="228.501403"/>
     <use style="fill:none;stroke:#ffa500;stroke-linejoin:bevel;stroke-width:1.5;" x="263.143942" xlink:href="#m7d2e3c0aa4" y="167.540005"/>
     <use style="fill:none;stroke:#ffa500;stroke-linejoin:bevel;stroke-width:1.5;" x="323.300591" xlink:href="#m7d2e3c0aa4" y="137.575928"/>
     <use style="fill:none;stroke:#ffa500;stroke-linejoin:bevel;stroke-width:1.5;" x="352.686335" xlink:href="#m7d2e3c0aa4" y="132.92633"/>
     <use style="fill:none;stroke:#ffa500;stroke-linejoin:bevel;stroke-width:1.5;" x="358.8" xlink:href="#m7d2e3c0aa4" y="132.92633"/>
    </g>
   </g>
   <g id="line2d_36"/>
   <g id="line2d_37">
    <path clip-path="url(#pdc8fc50ebd)" d="M 272.918 148.424991 
" style="fill:none;stroke:#ffa500;stroke-linecap:square;stroke-width:1.5;"/>
    <defs>
     <path d="M -12 12 
L 12 -12 
M -12 -12 
L 12 12 
" id="m7e228f1af2" style="stroke:#ffa500;stroke-width:3;"/>
    </defs>
    <g clip-path="url(#pdc8fc50ebd)">
     <use style="fill:#ffa500;stroke:#ffa500;stroke-width:3;" x="272.918" xlink:href="#m7e228f1af2" y="148.424991"/>
    </g>
   </g>
   <g id="line2d_38">
    <defs>
     <path d="M 0 1.5 
C 0.397805 1.5 0.77937 1.341951 1.06066 1.06066 
C 1.341951 0.77937 1.5 0.397805 1.5 0 
C 1.5 -0.397805 1.341951 -0.77937 1.06066 -1.06066 
C 0.77937 -1.341951 0.397805 -1.5 0 -1.5 
C -0.397805 -1.5 -0.77937 -1.341951 -1.06066 -1.06066 
C -1.341951 -0.77937 -1.5 -0.397805 -1.5 0 
C -1.5 0.397805 -1.341951 0.77937 -1.06066 1.06066 
C -0.77937 1.341951 -0.397805 1.5 0 1.5 
z
" id="m608f9a4335" style="stroke:#6495ed;"/>
    </defs>
    <g>
     <use style="fill:#6495ed;stroke:#6495ed;" x="329.77391" xlink:href="#m608f9a4335" y="143.25877"/>
     <use style="fill:#6495ed;stroke:#6495ed;" x="329.77391" xlink:href="#m608f9a4335" y="143.25877"/>
    </g>
   </g>
   <g id="line2d_39">
    <path d="M 163.448837 298.245375 
L 163.448837 297.728753 
L 164.760139 297.728753 
L 164.760139 297.212131 
L 164.935908 297.212131 
L 164.935908 296.695509 
L 165.833541 296.695509 
L 165.833541 296.178887 
L 167.043537 296.178887 
L 167.043537 295.662265 
L 167.45599 295.662265 
L 167.45599 294.629021 
L 168.04575 294.629021 
L 168.04575 294.112399 
L 169.422331 294.112399 
L 169.422331 293.595777 
L 170.096945 293.595777 
L 170.096945 292.562533 
L 171.309937 292.562533 
L 171.309937 292.045911 
L 171.425548 292.045911 
L 171.425548 290.496045 
L 171.559487 290.496045 
L 171.559487 289.979423 
L 171.711342 289.979423 
L 171.711342 289.462801 
L 172.638249 289.462801 
L 172.638249 288.946179 
L 174.282979 288.946179 
L 174.282979 288.429557 
L 174.756763 288.429557 
L 174.756763 287.912935 
L 175.249346 287.912935 
L 175.249346 286.879691 
L 175.612604 286.879691 
L 175.612604 285.846447 
L 175.973589 285.846447 
L 175.973589 285.329825 
L 177.690133 285.329825 
L 177.690133 284.813203 
L 178.016276 284.813203 
L 178.016276 283.779959 
L 178.821321 283.779959 
L 178.821321 282.746715 
L 179.127627 282.746715 
L 179.127627 282.230093 
L 179.692707 282.230093 
L 179.692707 281.713471 
L 180.004368 281.713471 
L 180.004368 281.196849 
L 180.38839 281.196849 
L 180.38839 280.680226 
L 181.035581 280.680226 
L 181.035581 280.163604 
L 181.526058 280.163604 
L 181.526058 279.646982 
L 181.800402 279.646982 
L 181.800402 279.13036 
L 182.119928 279.13036 
L 182.119928 278.613738 
L 182.242661 278.613738 
L 182.242661 278.097116 
L 183.132247 278.097116 
L 183.132247 277.580494 
L 183.781949 277.580494 
L 183.781949 277.063872 
L 184.215886 277.063872 
L 184.297062 275.514006 
L 185.062324 275.514006 
L 185.062324 274.480762 
L 186.035156 274.480762 
L 186.035156 273.447518 
L 187.418782 273.447518 
L 187.418782 272.930896 
L 187.845249 272.930896 
L 187.845249 272.414274 
L 188.76853 272.414274 
L 188.76853 271.38103 
L 189.216424 271.38103 
L 189.216424 270.864408 
L 189.537579 270.864408 
L 189.537579 270.347786 
L 189.866752 270.347786 
L 189.880432 268.281298 
L 190.691341 268.281298 
L 190.691341 267.248054 
L 191.019364 267.248054 
L 191.045006 264.664944 
L 204.852895 264.664944 
L 204.852895 264.148322 
L 210.141247 264.148322 
L 210.141247 263.115078 
L 211.004477 263.115078 
L 211.004477 262.598456 
L 211.744312 262.598456 
L 211.744312 262.081834 
L 212.756274 262.081834 
L 212.756274 261.565212 
L 217.283917 261.565212 
L 217.283917 260.531968 
L 217.66724 260.531968 
L 217.66724 258.982102 
L 217.876802 258.982102 
L 217.876802 258.46548 
L 218.224901 258.46548 
L 218.329089 257.432236 
L 218.744853 257.432236 
L 218.744853 256.915614 
L 219.218801 256.915614 
L 219.218801 256.398992 
L 219.35813 256.398992 
L 219.35813 255.88237 
L 219.850821 255.88237 
L 219.913745 254.332504 
L 220.222161 254.332504 
L 220.222161 253.815882 
L 220.420041 253.815882 
L 220.497433 252.266016 
L 220.695148 252.266016 
L 220.695148 251.749394 
L 221.282967 251.749394 
L 221.282967 251.232772 
L 221.666038 251.232772 
L 221.765415 249.166284 
L 222.962951 249.166284 
L 223.073179 247.099796 
L 225.542422 247.099796 
L 225.592219 245.549929 
L 227.007052 245.549929 
L 227.007052 244.516685 
L 227.160481 244.516685 
L 227.160481 244.000063 
L 227.739181 244.000063 
L 227.842959 242.966819 
L 228.578372 242.966819 
L 228.578372 242.450197 
L 229.818008 242.450197 
L 229.818008 241.933575 
L 230.031767 241.933575 
L 230.031767 241.416953 
L 230.251093 241.416953 
L 230.251093 240.900331 
L 230.611768 240.900331 
L 230.611768 240.383709 
L 231.206498 240.383709 
L 231.206498 239.867087 
L 231.351635 239.867087 
L 231.351635 239.350465 
L 231.525985 239.350465 
L 231.525985 237.800599 
L 231.689212 237.800599 
L 231.689212 237.283977 
L 231.819164 237.283977 
L 231.819164 236.250733 
L 232.104821 236.250733 
L 232.104821 235.217489 
L 232.585899 235.217489 
L 232.585899 234.700867 
L 232.782363 234.700867 
L 232.823212 233.667623 
L 233.118732 233.667623 
L 233.118732 232.634379 
L 233.838777 232.634379 
L 233.872814 231.601135 
L 235.565137 231.601135 
L 235.565137 230.567891 
L 235.912075 230.567891 
L 235.912075 230.051269 
L 236.744426 230.051269 
L 236.744426 229.534647 
L 237.231799 229.534647 
L 237.32254 227.468159 
L 237.350233 227.468159 
L 237.350233 226.951537 
L 237.473766 226.951537 
L 237.50408 225.918293 
L 238.088299 225.918293 
L 238.088299 224.368427 
L 238.560246 224.368427 
L 238.615169 222.818561 
L 238.83466 222.818561 
L 238.83466 222.301939 
L 239.089547 222.301939 
L 239.089547 220.752073 
L 239.925006 220.752073 
L 239.925006 219.718829 
L 240.173512 219.718829 
L 240.200805 218.168963 
L 241.441912 218.168963 
L 241.441912 217.652341 
L 241.774139 217.652341 
L 241.774139 217.135719 
L 241.997502 217.135719 
L 241.997502 216.619097 
L 242.362955 216.619097 
L 242.362955 215.069231 
L 242.615373 215.069231 
L 242.615373 214.552609 
L 242.730436 214.552609 
L 242.730436 214.035987 
L 242.961284 214.035987 
L 242.961284 212.48612 
L 243.106628 212.48612 
L 243.106628 211.969498 
L 243.376359 211.969498 
L 243.447567 208.869766 
L 243.510676 208.869766 
L 243.510676 208.353144 
L 243.722542 208.353144 
L 243.722542 207.836522 
L 244.504208 207.836522 
L 244.504208 207.3199 
L 244.826039 207.3199 
L 244.935388 206.286656 
L 245.369891 206.286656 
L 245.369891 205.770034 
L 245.596255 205.770034 
L 245.596255 205.253412 
L 246.462843 205.253412 
L 246.462843 203.703546 
L 246.880166 203.703546 
L 246.880166 203.186924 
L 247.612152 203.186924 
L 247.612152 202.15368 
L 248.435114 202.15368 
L 248.435114 201.637058 
L 248.960919 201.637058 
L 248.993711 200.087192 
L 250.27615 200.087192 
L 250.27615 199.57057 
L 250.493934 199.57057 
L 250.560726 198.537326 
L 250.824971 198.537326 
L 250.824971 198.020704 
L 251.82319 198.020704 
L 251.82319 197.504082 
L 252.15481 197.504082 
L 252.15481 196.98746 
L 252.312802 196.98746 
L 252.376866 195.437594 
L 252.445374 195.437594 
L 252.445374 193.887728 
L 253.367516 193.887728 
L 253.367516 192.854484 
L 253.858985 192.854484 
L 253.858985 190.787996 
L 254.690888 190.787996 
L 254.690888 189.754752 
L 255.625626 189.754752 
L 255.625626 189.23813 
L 255.92659 189.23813 
L 256.001256 188.204886 
L 257.024935 188.204886 
L 257.024935 187.688264 
L 257.549217 187.688264 
L 257.591516 185.105154 
L 257.669405 185.105154 
L 257.669405 184.588532 
L 257.792254 184.588532 
L 257.792254 184.07191 
L 258.073755 184.07191 
L 258.073755 183.555288 
L 258.45635 183.555288 
L 258.45635 182.005422 
L 258.666828 182.005422 
L 258.666828 181.4888 
L 259.190505 181.4888 
L 259.190505 180.972178 
L 260.113643 180.972178 
L 260.113643 179.938934 
L 260.249496 179.938934 
L 260.249496 179.422312 
L 261.017726 179.422312 
L 261.017726 178.90569 
L 261.34277 178.90569 
L 261.34277 177.355823 
L 261.508854 177.355823 
L 261.508854 176.839201 
L 261.673204 176.839201 
L 261.673204 175.805957 
L 262.455439 175.805957 
L 262.539149 174.256091 
L 262.618969 174.256091 
L 262.618969 172.706225 
L 263.239526 172.706225 
L 263.239526 171.672981 
L 263.980127 171.672981 
L 264.08891 169.089871 
L 265.257748 169.089871 
L 265.257748 168.573249 
L 265.513628 168.573249 
L 265.533097 167.540005 
L 265.686023 167.540005 
L 265.686023 167.023383 
L 265.830668 167.023383 
L 265.830668 166.506761 
L 266.135027 166.506761 
L 266.232119 165.473517 
L 266.246632 165.473517 
L 266.246632 164.956895 
L 266.555249 164.956895 
L 266.555249 164.440273 
L 266.723428 164.440273 
L 266.726209 163.407029 
L 266.925247 163.407029 
L 266.925247 162.890407 
L 267.263107 162.890407 
L 267.351261 161.340541 
L 268.378829 161.340541 
L 268.378829 159.790675 
L 268.770158 159.790675 
L 268.770158 158.757431 
L 269.294359 158.757431 
L 269.294359 158.240809 
L 270.269974 158.240809 
L 270.269974 157.724187 
L 271.170143 157.724187 
L 271.170143 157.207565 
L 271.333354 157.207565 
L 271.381214 155.657699 
L 271.814416 155.657699 
L 271.814416 155.141077 
L 272.248619 155.141077 
L 272.248619 154.624455 
L 272.787902 154.624455 
L 272.787902 153.591211 
L 275.014778 153.591211 
L 275.014778 153.074589 
L 278.343198 153.074589 
L 278.343198 152.557967 
L 282.699794 152.557967 
L 282.771468 151.008101 
L 283.13059 151.008101 
L 283.13059 150.491479 
L 283.384556 150.491479 
L 283.384556 149.974857 
L 283.601044 149.974857 
L 283.601044 149.458235 
L 284.167346 149.458235 
L 284.167346 148.941613 
L 284.483632 148.941613 
L 284.483632 148.424991 
L 284.771963 148.424991 
L 284.771963 147.908369 
L 289.371263 147.908369 
L 289.371263 147.391747 
L 292.420947 147.391747 
L 292.460378 146.358503 
L 295.15285 146.358503 
L 295.15285 145.841881 
L 296.68311 145.841881 
L 296.68311 145.325259 
L 310.921661 145.325259 
L 310.921661 144.808637 
L 319.629487 144.808637 
L 319.629487 144.292014 
L 321.112088 144.292014 
L 321.112088 143.775392 
L 329.77391 143.775392 
L 329.77391 143.25877 
L 358.8 143.25877 
L 358.8 143.25877 
" style="fill:none;stroke:#6495ed;stroke-linecap:square;stroke-width:1.5;"/>
   </g>
   <g id="line2d_40">
    <defs>
     <path d="M -0 6 
L 6 -6 
L -6 -6 
z
" id="m4466658810" style="stroke:#6495ed;stroke-linejoin:miter;stroke-width:1.5;"/>
    </defs>
    <g>
     <use style="fill:none;stroke:#6495ed;stroke-linejoin:miter;stroke-width:1.5;" x="233.872814" xlink:href="#m4466658810" y="231.601135"/>
     <use style="fill:none;stroke:#6495ed;stroke-linejoin:miter;stroke-width:1.5;" x="264.08891" xlink:href="#m4466658810" y="170.123115"/>
     <use style="fill:none;stroke:#6495ed;stroke-linejoin:miter;stroke-width:1.5;" x="329.77391" xlink:href="#m4466658810" y="143.25877"/>
     <use style="fill:none;stroke:#6495ed;stroke-linejoin:miter;stroke-width:1.5;" x="329.77391" xlink:href="#m4466658810" y="143.25877"/>
     <use style="fill:none;stroke:#6495ed;stroke-linejoin:miter;stroke-width:1.5;" x="358.8" xlink:href="#m4466658810" y="143.25877"/>
    </g>
   </g>
   <g id="line2d_41"/>
   <g id="line2d_42">
    <path clip-path="url(#pdc8fc50ebd)" d="M 271.814416 155.141077 
" style="fill:none;stroke:#6495ed;stroke-linecap:square;stroke-width:1.5;"/>
    <defs>
     <path d="M -12 12 
L 12 -12 
M -12 -12 
L 12 12 
" id="m18deae1b96" style="stroke:#6495ed;stroke-width:3;"/>
    </defs>
    <g clip-path="url(#pdc8fc50ebd)">
     <use style="fill:#6495ed;stroke:#6495ed;stroke-width:3;" x="271.814416" xlink:href="#m18deae1b96" y="155.141077"/>
    </g>
   </g>
   <g id="line2d_43">
    <defs>
     <path d="M 0 1.5 
C 0.397805 1.5 0.77937 1.341951 1.06066 1.06066 
C 1.341951 0.77937 1.5 0.397805 1.5 0 
C 1.5 -0.397805 1.341951 -0.77937 1.06066 -1.06066 
C 0.77937 -1.341951 0.397805 -1.5 0 -1.5 
C -0.397805 -1.5 -0.77937 -1.341951 -1.06066 -1.06066 
C -1.341951 -0.77937 -1.5 -0.397805 -1.5 0 
C -1.5 0.397805 -1.341951 0.77937 -1.06066 1.06066 
C -0.77937 1.341951 -0.397805 1.5 0 1.5 
z
" id="m74fcf6f449" style="stroke:#ff0000;"/>
    </defs>
    <g>
     <use style="fill:#ff0000;stroke:#ff0000;" x="203.036237" xlink:href="#m74fcf6f449" y="34.768147"/>
     <use style="fill:#ff0000;stroke:#ff0000;" x="203.036237" xlink:href="#m74fcf6f449" y="34.768147"/>
    </g>
   </g>
   <g id="line2d_44">
    <path d="M 122.54449 298.245375 
L 122.54449 297.728753 
L 122.838219 297.728753 
L 122.838219 297.212131 
L 123.127198 297.212131 
L 123.127198 296.695509 
L 123.87571 296.695509 
L 123.87571 295.662265 
L 124.058039 295.662265 
L 124.148511 293.595777 
L 135.3203 293.595777 
L 135.3203 293.079155 
L 142.629471 293.079155 
L 142.629471 292.562533 
L 143.536359 292.562533 
L 143.536359 291.529289 
L 143.748536 291.529289 
L 143.748536 290.496045 
L 143.868658 290.496045 
L 143.868658 288.429557 
L 147.945378 288.429557 
L 147.945378 287.912935 
L 151.961099 287.912935 
L 151.961099 286.879691 
L 152.688227 286.879691 
L 152.688227 286.363069 
L 154.966521 286.363069 
L 155.014705 285.329825 
L 156.238921 285.329825 
L 156.238921 284.296581 
L 157.663372 284.296581 
L 157.663372 283.263337 
L 158.905362 283.263337 
L 158.905362 282.746715 
L 160.12695 282.746715 
L 160.12695 282.230093 
L 163.217238 282.230093 
L 163.217238 281.713471 
L 164.106874 281.713471 
L 164.19345 280.680226 
L 165.27331 280.680226 
L 165.27331 280.163604 
L 166.812977 280.163604 
L 166.870897 279.13036 
L 167.043537 279.13036 
L 167.043537 278.097116 
L 167.503894 278.097116 
L 167.503894 277.580494 
L 168.222778 277.580494 
L 168.222778 277.063872 
L 168.691427 277.063872 
L 168.721244 276.030628 
L 170.069339 276.030628 
L 170.069339 274.997384 
L 171.174107 274.997384 
L 171.174107 274.480762 
L 172.360938 274.480762 
L 172.42159 272.930896 
L 172.530248 272.930896 
L 172.530248 271.897652 
L 173.581961 271.897652 
L 173.581961 270.347786 
L 173.695086 270.347786 
L 173.695086 269.831164 
L 173.829898 269.831164 
L 173.829898 269.314542 
L 174.730177 269.314542 
L 174.735497 267.248054 
L 174.846859 267.248054 
L 174.846859 266.21481 
L 175.551725 266.21481 
L 175.551725 265.181566 
L 176.443829 265.181566 
L 176.443829 264.664944 
L 176.588277 264.664944 
L 176.636168 263.115078 
L 177.495198 263.115078 
L 177.549813 261.565212 
L 177.654027 261.565212 
L 177.654027 260.531968 
L 179.692707 260.531968 
L 179.692707 260.015346 
L 179.897099 260.015346 
L 179.897099 258.982102 
L 180.032073 258.982102 
L 180.032073 257.948858 
L 180.415507 257.948858 
L 180.415507 256.915614 
L 180.542793 256.915614 
L 180.542793 256.398992 
L 181.52242 256.398992 
L 181.613149 254.332504 
L 181.936011 254.332504 
L 181.967978 253.29926 
L 182.211182 253.29926 
L 182.211182 252.266016 
L 182.437297 252.266016 
L 182.437297 248.649662 
L 183.291134 248.649662 
L 183.291134 248.13304 
L 183.637085 248.13304 
L 183.637085 247.616418 
L 183.842763 247.616418 
L 183.842763 247.099796 
L 184.096576 247.099796 
L 184.096576 246.066551 
L 184.265884 246.066551 
L 184.265884 245.549929 
L 184.486079 245.549929 
L 184.584441 242.966819 
L 184.767424 242.966819 
L 184.870288 240.383709 
L 184.933528 240.383709 
L 184.993548 239.350465 
L 185.249364 239.350465 
L 185.249364 238.317221 
L 185.364177 238.317221 
L 185.451996 227.468159 
L 185.910363 227.468159 
L 186.004039 214.552609 
L 186.052106 214.552609 
L 186.156277 211.969498 
L 186.476229 211.969498 
L 186.575221 209.90301 
L 187.070125 209.90301 
L 187.070125 195.954216 
L 187.517905 195.954216 
L 187.595773 194.920972 
L 187.631995 194.920972 
L 187.631995 182.005422 
L 187.763332 182.005422 
L 187.763332 181.4888 
L 188.053463 181.4888 
L 188.076169 179.938934 
L 188.296673 179.938934 
L 188.311608 161.857163 
L 188.66881 161.857163 
L 188.756399 160.823919 
L 189.014227 160.823919 
L 189.062009 158.757431 
L 189.150071 158.757431 
L 189.150071 157.724187 
L 189.521308 157.724187 
L 189.618708 121.044024 
L 189.692562 121.044024 
L 189.692562 108.645095 
L 189.889546 108.645095 
L 189.921409 106.578607 
L 190.317195 106.578607 
L 190.379361 82.297373 
L 190.588682 82.297373 
L 190.636809 81.264129 
L 191.019364 81.264129 
L 191.019364 67.831956 
L 191.444086 67.831956 
L 191.444086 61.11587 
L 191.655816 61.11587 
L 191.655816 60.599248 
L 192.055758 60.599248 
L 192.055758 49.233564 
L 192.904951 49.233564 
L 192.904951 46.650454 
L 202.822127 46.650454 
L 202.822127 46.133832 
L 203.036237 46.133832 
L 203.036237 34.768147 
L 358.8 34.768147 
L 358.8 34.768147 
" style="fill:none;stroke:#ff0000;stroke-linecap:square;stroke-width:1.5;"/>
   </g>
   <g id="line2d_45">
    <defs>
     <path d="M 0 -6 
L -5.196152 -3 
L -5.196152 3 
L -0 6 
L 5.196152 3 
L 5.196152 -3 
z
" id="m92ca97142a" style="stroke:#ff0000;stroke-linejoin:miter;stroke-width:1.5;"/>
    </defs>
    <g>
     <use style="fill:none;stroke:#ff0000;stroke-linejoin:miter;stroke-width:1.5;" x="186.575221" xlink:href="#m92ca97142a" y="209.90301"/>
     <use style="fill:none;stroke:#ff0000;stroke-linejoin:miter;stroke-width:1.5;" x="192.055758" xlink:href="#m92ca97142a" y="49.233564"/>
     <use style="fill:none;stroke:#ff0000;stroke-linejoin:miter;stroke-width:1.5;" x="203.036237" xlink:href="#m92ca97142a" y="34.768147"/>
     <use style="fill:none;stroke:#ff0000;stroke-linejoin:miter;stroke-width:1.5;" x="203.036237" xlink:href="#m92ca97142a" y="34.768147"/>
     <use style="fill:none;stroke:#ff0000;stroke-linejoin:miter;stroke-width:1.5;" x="358.8" xlink:href="#m92ca97142a" y="34.768147"/>
    </g>
   </g>
   <g id="line2d_46"/>
   <g id="line2d_47">
    <path d="M 358.8 158.757431 
L 390.48 292.97583 
" style="fill:none;stroke:#ff00ff;stroke-linecap:square;stroke-width:1.5;"/>
    <g>
     <use style="fill:none;stroke:#ff00ff;stroke-linejoin:miter;stroke-width:1.5;" x="358.8" xlink:href="#m04586cbea6" y="158.757431"/>
     <use style="fill:none;stroke:#ff00ff;stroke-linejoin:miter;stroke-width:1.5;" x="390.48" xlink:href="#m04586cbea6" y="292.97583"/>
    </g>
   </g>
   <g id="line2d_48">
    <path d="M 358.8 143.25877 
L 390.48 229.741296 
" style="fill:none;stroke:#6495ed;stroke-linecap:square;stroke-width:1.5;"/>
    <g>
     <use style="fill:none;stroke:#6495ed;stroke-linejoin:miter;stroke-width:1.5;" x="358.8" xlink:href="#m4466658810" y="143.25877"/>
     <use style="fill:none;stroke:#6495ed;stroke-linejoin:miter;stroke-width:1.5;" x="390.48" xlink:href="#m4466658810" y="229.741296"/>
    </g>
   </g>
   <g id="line2d_49">
    <path d="M 358.8 132.92633 
L 390.48 166.506761 
" style="fill:none;stroke:#ffa500;stroke-linecap:square;stroke-width:1.5;"/>
    <g>
     <use style="fill:none;stroke:#ffa500;stroke-linejoin:bevel;stroke-width:1.5;" x="358.8" xlink:href="#m7d2e3c0aa4" y="132.92633"/>
     <use style="fill:none;stroke:#ffa500;stroke-linejoin:bevel;stroke-width:1.5;" x="390.48" xlink:href="#m7d2e3c0aa4" y="166.506761"/>
    </g>
   </g>
   <g id="line2d_50">
    <path d="M 358.8 55.433028 
L 390.48 103.272226 
" style="fill:none;stroke:#000080;stroke-linecap:square;stroke-width:1.5;"/>
    <g>
     <use style="fill:none;stroke:#000080;stroke-width:1.5;" x="358.8" xlink:href="#m9da23ef2e4" y="55.433028"/>
     <use style="fill:none;stroke:#000080;stroke-width:1.5;" x="390.48" xlink:href="#m9da23ef2e4" y="103.272226"/>
    </g>
   </g>
   <g id="line2d_51">
    <path d="M 358.8 34.768147 
L 390.48 40.037692 
" style="fill:none;stroke:#ff0000;stroke-linecap:square;stroke-width:1.5;"/>
    <g>
     <use style="fill:none;stroke:#ff0000;stroke-linejoin:miter;stroke-width:1.5;" x="358.8" xlink:href="#m92ca97142a" y="34.768147"/>
     <use style="fill:none;stroke:#ff0000;stroke-linejoin:miter;stroke-width:1.5;" x="390.48" xlink:href="#m92ca97142a" y="40.037692"/>
    </g>
   </g>
   <g id="line2d_52">
    <path d="M 358.8 298.245375 
L 358.8 34.768147 
" style="fill:none;stroke:#000000;stroke-linecap:square;stroke-width:1.5;"/>
   </g>
   <g id="patch_3">
    <path d="M 70.8 298.245375 
L 70.8 32.133375 
" style="fill:none;stroke:#000000;stroke-linecap:square;stroke-linejoin:miter;stroke-width:0.8;"/>
   </g>
   <g id="patch_4">
    <path d="M 427.92 298.245375 
L 427.92 32.133375 
" style="fill:none;stroke:#000000;stroke-linecap:square;stroke-linejoin:miter;stroke-width:0.8;"/>
   </g>
   <g id="patch_5">
    <path d="M 70.8 298.245375 
L 427.92 298.245375 
" style="fill:none;stroke:#000000;stroke-linecap:square;stroke-linejoin:miter;stroke-width:0.8;"/>
   </g>
   <g id="patch_6">
    <path d="M 70.8 32.133375 
L 427.92 32.133375 
" style="fill:none;stroke:#000000;stroke-linecap:square;stroke-linejoin:miter;stroke-width:0.8;"/>
   </g>
   <g id="text_14">
    <!-- f2 -->
    <g transform="translate(396.24 297.114893)scale(0.15 -0.15)">
     <use xlink:href="#DejaVuSans-66"/>
     <use x="35.205078" xlink:href="#DejaVuSans-32"/>
    </g>
   </g>
   <g id="text_15">
    <!-- f4 -->
    <g transform="translate(396.24 233.880358)scale(0.15 -0.15)">
     <use xlink:href="#DejaVuSans-66"/>
     <use x="35.205078" xlink:href="#DejaVuSans-34"/>
    </g>
   </g>
   <g id="text_16">
    <!-- f3 -->
    <defs>
     <path d="M 40.578125 39.3125 
Q 47.65625 37.796875 51.625 33 
Q 55.609375 28.21875 55.609375 21.1875 
Q 55.609375 10.40625 48.1875 4.484375 
Q 40.765625 -1.421875 27.09375 -1.421875 
Q 22.515625 -1.421875 17.65625 -0.515625 
Q 12.796875 0.390625 7.625 2.203125 
L 7.625 11.71875 
Q 11.71875 9.328125 16.59375 8.109375 
Q 21.484375 6.890625 26.8125 6.890625 
Q 36.078125 6.890625 40.9375 10.546875 
Q 45.796875 14.203125 45.796875 21.1875 
Q 45.796875 27.640625 41.28125 31.265625 
Q 36.765625 34.90625 28.71875 34.90625 
L 20.21875 34.90625 
L 20.21875 43.015625 
L 29.109375 43.015625 
Q 36.375 43.015625 40.234375 45.921875 
Q 44.09375 48.828125 44.09375 54.296875 
Q 44.09375 59.90625 40.109375 62.90625 
Q 36.140625 65.921875 28.71875 65.921875 
Q 24.65625 65.921875 20.015625 65.03125 
Q 15.375 64.15625 9.8125 62.3125 
L 9.8125 71.09375 
Q 15.4375 72.65625 20.34375 73.4375 
Q 25.25 74.21875 29.59375 74.21875 
Q 40.828125 74.21875 47.359375 69.109375 
Q 53.90625 64.015625 53.90625 55.328125 
Q 53.90625 49.265625 50.4375 45.09375 
Q 46.96875 40.921875 40.578125 39.3125 
z
" id="DejaVuSans-33"/>
    </defs>
    <g transform="translate(396.24 170.645824)scale(0.15 -0.15)">
     <use xlink:href="#DejaVuSans-66"/>
     <use x="35.205078" xlink:href="#DejaVuSans-33"/>
    </g>
   </g>
   <g id="text_17">
    <!-- f1 -->
    <g transform="translate(396.24 107.411289)scale(0.15 -0.15)">
     <use xlink:href="#DejaVuSans-66"/>
     <use x="35.205078" xlink:href="#DejaVuSans-31"/>
    </g>
   </g>
   <g id="text_18">
    <!-- f5 -->
    <defs>
     <path d="M 10.796875 72.90625 
L 49.515625 72.90625 
L 49.515625 64.59375 
L 19.828125 64.59375 
L 19.828125 46.734375 
Q 21.96875 47.46875 24.109375 47.828125 
Q 26.265625 48.1875 28.421875 48.1875 
Q 40.625 48.1875 47.75 41.5 
Q 54.890625 34.8125 54.890625 23.390625 
Q 54.890625 11.625 47.5625 5.09375 
Q 40.234375 -1.421875 26.90625 -1.421875 
Q 22.3125 -1.421875 17.546875 -0.640625 
Q 12.796875 0.140625 7.71875 1.703125 
L 7.71875 11.625 
Q 12.109375 9.234375 16.796875 8.0625 
Q 21.484375 6.890625 26.703125 6.890625 
Q 35.15625 6.890625 40.078125 11.328125 
Q 45.015625 15.765625 45.015625 23.390625 
Q 45.015625 31 40.078125 35.4375 
Q 35.15625 39.890625 26.703125 39.890625 
Q 22.75 39.890625 18.8125 39.015625 
Q 14.890625 38.140625 10.796875 36.28125 
z
" id="DejaVuSans-35"/>
    </defs>
    <g transform="translate(396.24 44.176754)scale(0.15 -0.15)">
     <use xlink:href="#DejaVuSans-66"/>
     <use x="35.205078" xlink:href="#DejaVuSans-35"/>
    </g>
   </g>
   <g id="text_19">
    <!-- bbob -->
    <defs>
     <path d="M 48.6875 27.296875 
Q 48.6875 37.203125 44.609375 42.84375 
Q 40.53125 48.484375 33.40625 48.484375 
Q 26.265625 48.484375 22.1875 42.84375 
Q 18.109375 37.203125 18.109375 27.296875 
Q 18.109375 17.390625 22.1875 11.75 
Q 26.265625 6.109375 33.40625 6.109375 
Q 40.53125 6.109375 44.609375 11.75 
Q 48.6875 17.390625 48.6875 27.296875 
z
M 18.109375 46.390625 
Q 20.953125 51.265625 25.265625 53.625 
Q 29.59375 56 35.59375 56 
Q 45.5625 56 51.78125 48.09375 
Q 58.015625 40.1875 58.015625 27.296875 
Q 58.015625 14.40625 51.78125 6.484375 
Q 45.5625 -1.421875 35.59375 -1.421875 
Q 29.59375 -1.421875 25.265625 0.953125 
Q 20.953125 3.328125 18.109375 8.203125 
L 18.109375 0 
L 9.078125 0 
L 9.078125 75.984375 
L 18.109375 75.984375 
z
" id="DejaVuSans-62"/>
    </defs>
    <g transform="translate(74.3712 50.114612)scale(0.1666 -0.1666)">
     <use xlink:href="#DejaVuSans-62"/>
     <use x="63.476562" xlink:href="#DejaVuSans-62"/>
     <use x="126.953125" xlink:href="#DejaVuSans-6f"/>
     <use x="188.134766" xlink:href="#DejaVuSans-62"/>
    </g>
    <!-- Separable functions, 10-D -->
    <defs>
     <path d="M 53.515625 70.515625 
L 53.515625 60.890625 
Q 47.90625 63.578125 42.921875 64.890625 
Q 37.9375 66.21875 33.296875 66.21875 
Q 25.25 66.21875 20.875 63.09375 
Q 16.5 59.96875 16.5 54.203125 
Q 16.5 49.359375 19.40625 46.890625 
Q 22.3125 44.4375 30.421875 42.921875 
L 36.375 41.703125 
Q 47.40625 39.59375 52.65625 34.296875 
Q 57.90625 29 57.90625 20.125 
Q 57.90625 9.515625 50.796875 4.046875 
Q 43.703125 -1.421875 29.984375 -1.421875 
Q 24.8125 -1.421875 18.96875 -0.25 
Q 13.140625 0.921875 6.890625 3.21875 
L 6.890625 13.375 
Q 12.890625 10.015625 18.65625 8.296875 
Q 24.421875 6.59375 29.984375 6.59375 
Q 38.421875 6.59375 43.015625 9.90625 
Q 47.609375 13.234375 47.609375 19.390625 
Q 47.609375 24.75 44.3125 27.78125 
Q 41.015625 30.8125 33.5 32.328125 
L 27.484375 33.5 
Q 16.453125 35.6875 11.515625 40.375 
Q 6.59375 45.0625 6.59375 53.421875 
Q 6.59375 63.09375 13.40625 68.65625 
Q 20.21875 74.21875 32.171875 74.21875 
Q 37.3125 74.21875 42.625 73.28125 
Q 47.953125 72.359375 53.515625 70.515625 
z
" id="DejaVuSans-53"/>
     <path d="M 11.71875 12.40625 
L 22.015625 12.40625 
L 22.015625 4 
L 14.015625 -11.625 
L 7.71875 -11.625 
L 11.71875 4 
z
" id="DejaVuSans-2c"/>
     <path d="M 19.671875 64.796875 
L 19.671875 8.109375 
L 31.59375 8.109375 
Q 46.6875 8.109375 53.6875 14.9375 
Q 60.6875 21.78125 60.6875 36.53125 
Q 60.6875 51.171875 53.6875 57.984375 
Q 46.6875 64.796875 31.59375 64.796875 
z
M 9.8125 72.90625 
L 30.078125 72.90625 
Q 51.265625 72.90625 61.171875 64.09375 
Q 71.09375 55.28125 71.09375 36.53125 
Q 71.09375 17.671875 61.125 8.828125 
Q 51.171875 0 30.078125 0 
L 9.8125 0 
z
" id="DejaVuSans-44"/>
    </defs>
    <g transform="translate(74.3712 68.770168)scale(0.1666 -0.1666)">
     <use xlink:href="#DejaVuSans-53"/>
     <use x="63.476562" xlink:href="#DejaVuSans-65"/>
     <use x="125" xlink:href="#DejaVuSans-70"/>
     <use x="188.476562" xlink:href="#DejaVuSans-61"/>
     <use x="249.755859" xlink:href="#DejaVuSans-72"/>
     <use x="290.869141" xlink:href="#DejaVuSans-61"/>
     <use x="352.148438" xlink:href="#DejaVuSans-62"/>
     <use x="415.625" xlink:href="#DejaVuSans-6c"/>
     <use x="443.408203" xlink:href="#DejaVuSans-65"/>
     <use x="504.931641" xlink:href="#DejaVuSans-20"/>
     <use x="536.71875" xlink:href="#DejaVuSans-66"/>
     <use x="571.923828" xlink:href="#DejaVuSans-75"/>
     <use x="635.302734" xlink:href="#DejaVuSans-6e"/>
     <use x="698.681641" xlink:href="#DejaVuSans-63"/>
     <use x="753.662109" xlink:href="#DejaVuSans-74"/>
     <use x="792.871094" xlink:href="#DejaVuSans-69"/>
     <use x="820.654297" xlink:href="#DejaVuSans-6f"/>
     <use x="881.835938" xlink:href="#DejaVuSans-6e"/>
     <use x="945.214844" xlink:href="#DejaVuSans-73"/>
     <use x="997.314453" xlink:href="#DejaVuSans-2c"/>
     <use x="1029.101562" xlink:href="#DejaVuSans-20"/>
     <use x="1060.888672" xlink:href="#DejaVuSans-31"/>
     <use x="1124.511719" xlink:href="#DejaVuSans-30"/>
     <use x="1188.134766" xlink:href="#DejaVuSans-2d"/>
     <use x="1224.21875" xlink:href="#DejaVuSans-44"/>
    </g>
    <!-- 51 targets in 100..1e-08 -->
    <g transform="translate(74.3712 87.425723)scale(0.1666 -0.1666)">
     <use xlink:href="#DejaVuSans-35"/>
     <use x="63.623047" xlink:href="#DejaVuSans-31"/>
     <use x="127.246094" xlink:href="#DejaVuSans-20"/>
     <use x="159.033203" xlink:href="#DejaVuSans-74"/>
     <use x="198.242188" xlink:href="#DejaVuSans-61"/>
     <use x="259.521484" xlink:href="#DejaVuSans-72"/>
     <use x="300.619141" xlink:href="#DejaVuSans-67"/>
     <use x="364.095703" xlink:href="#DejaVuSans-65"/>
     <use x="425.619141" xlink:href="#DejaVuSans-74"/>
     <use x="464.828125" xlink:href="#DejaVuSans-73"/>
     <use x="516.927734" xlink:href="#DejaVuSans-20"/>
     <use x="548.714844" xlink:href="#DejaVuSans-69"/>
     <use x="576.498047" xlink:href="#DejaVuSans-6e"/>
     <use x="639.876953" xlink:href="#DejaVuSans-20"/>
     <use x="671.664062" xlink:href="#DejaVuSans-31"/>
     <use x="735.287109" xlink:href="#DejaVuSans-30"/>
     <use x="798.910156" xlink:href="#DejaVuSans-30"/>
     <use x="862.533203" xlink:href="#DejaVuSans-2e"/>
     <use x="894.320312" xlink:href="#DejaVuSans-2e"/>
     <use x="926.107422" xlink:href="#DejaVuSans-31"/>
     <use x="989.730469" xlink:href="#DejaVuSans-65"/>
     <use x="1051.253906" xlink:href="#DejaVuSans-2d"/>
     <use x="1087.337891" xlink:href="#DejaVuSans-30"/>
     <use x="1150.960938" xlink:href="#DejaVuSans-38"/>
    </g>
    <!-- 15 instances -->
    <g transform="translate(74.3712 106.081279)scale(0.1666 -0.1666)">
     <use xlink:href="#DejaVuSans-31"/>
     <use x="63.623047" xlink:href="#DejaVuSans-35"/>
     <use x="127.246094" xlink:href="#DejaVuSans-20"/>
     <use x="159.033203" xlink:href="#DejaVuSans-69"/>
     <use x="186.816406" xlink:href="#DejaVuSans-6e"/>
     <use x="250.195312" xlink:href="#DejaVuSans-73"/>
     <use x="302.294922" xlink:href="#DejaVuSans-74"/>
     <use x="341.503906" xlink:href="#DejaVuSans-61"/>
     <use x="402.783203" xlink:href="#DejaVuSans-6e"/>
     <use x="466.162109" xlink:href="#DejaVuSans-63"/>
     <use x="521.142578" xlink:href="#DejaVuSans-65"/>
     <use x="582.666016" xlink:href="#DejaVuSans-73"/>
    </g>
   </g>
   <g id="text_20">
    <!-- v0.0.0 -->
    <g style="fill:#808080;" transform="translate(233.67875 293.504568)scale(0.1 -0.1)">
     <use xlink:href="#DejaVuSans-76"/>
     <use x="59.179688" xlink:href="#DejaVuSans-30"/>
     <use x="122.802734" xlink:href="#DejaVuSans-2e"/>
     <use x="154.589844" xlink:href="#DejaVuSans-30"/>
     <use x="218.212891" xlink:href="#DejaVuSans-2e"/>
     <use x="250" xlink:href="#DejaVuSans-30"/>
    </g>
   </g>
  </g>
 </g>
 <defs>
  <clipPath id="pdc8fc50ebd">
   <rect height="266.112" width="357.12" x="70.8" y="32.133375"/>
  </clipPath>
 </defs>
</svg>
