<?xml version="1.0" encoding="utf-8" standalone="no"?>
<!DOCTYPE svg PUBLIC "-//W3C//DTD SVG 1.1//EN"
  "http://www.w3.org/Graphics/SVG/1.1/DTD/svg11.dtd">
<!-- Created with matplotlib (http://matplotlib.org/) -->
<svg height="353pt" version="1.1" viewBox="0 0 438 353" width="438pt" xmlns="http://www.w3.org/2000/svg" xmlns:xlink="http://www.w3.org/1999/xlink">
 <defs>
  <style type="text/css">
*{stroke-linecap:butt;stroke-linejoin:round;}
  </style>
 </defs>
 <g id="figure_1">
  <g id="patch_1">
   <path d="M 0 353.22225 
L 438.62 353.22225 
L 438.62 0 
L 0 0 
z
" style="fill:#ffffff;"/>
  </g>
  <g id="axes_1">
   <g id="patch_2">
    <path d="M 70.8 298.245375 
L 427.92 298.245375 
L 427.92 32.133375 
L 70.8 32.133375 
z
" style="fill:#ffffff;"/>
   </g>
   <g id="matplotlib.axis_1">
    <g id="xtick_1">
     <g id="line2d_1">
      <path clip-path="url(#p380055282a)" d="M 70.8 298.245375 
L 70.8 32.133375 
" style="fill:none;stroke:#b0b0b0;stroke-linecap:square;stroke-width:0.8;"/>
     </g>
     <g id="line2d_2">
      <defs>
       <path d="M 0 0 
L 0 3.5 
" id="m66bdb58534" style="stroke:#000000;stroke-width:0.8;"/>
      </defs>
      <g>
       <use style="stroke:#000000;stroke-width:0.8;" x="70.8" xlink:href="#m66bdb58534" y="298.245375"/>
      </g>
     </g>
     <g id="text_1">
      <!-- 0 -->
      <defs>
       <path d="M 31.78125 66.40625 
Q 24.171875 66.40625 20.328125 58.90625 
Q 16.5 51.421875 16.5 36.375 
Q 16.5 21.390625 20.328125 13.890625 
Q 24.171875 6.390625 31.78125 6.390625 
Q 39.453125 6.390625 43.28125 13.890625 
Q 47.125 21.390625 47.125 36.375 
Q 47.125 51.421875 43.28125 58.90625 
Q 39.453125 66.40625 31.78125 66.40625 
z
M 31.78125 74.21875 
Q 44.046875 74.21875 50.515625 64.515625 
Q 56.984375 54.828125 56.984375 36.375 
Q 56.984375 17.96875 50.515625 8.265625 
Q 44.046875 -1.421875 31.78125 -1.421875 
Q 19.53125 -1.421875 13.0625 8.265625 
Q 6.59375 17.96875 6.59375 36.375 
Q 6.59375 54.828125 13.0625 64.515625 
Q 19.53125 74.21875 31.78125 74.21875 
z
" id="DejaVuSans-30"/>
      </defs>
      <g transform="translate(64.4375 320.44225)scale(0.2 -0.2)">
       <use xlink:href="#DejaVuSans-30"/>
      </g>
     </g>
    </g>
    <g id="xtick_2">
     <g id="line2d_3">
      <path clip-path="url(#p380055282a)" d="M 153.085714 298.245375 
L 153.085714 32.133375 
" style="fill:none;stroke:#b0b0b0;stroke-linecap:square;stroke-width:0.8;"/>
     </g>
     <g id="line2d_4">
      <g>
       <use style="stroke:#000000;stroke-width:0.8;" x="153.085714" xlink:href="#m66bdb58534" y="298.245375"/>
      </g>
     </g>
     <g id="text_2">
      <!-- 2 -->
      <defs>
       <path d="M 19.1875 8.296875 
L 53.609375 8.296875 
L 53.609375 0 
L 7.328125 0 
L 7.328125 8.296875 
Q 12.9375 14.109375 22.625 23.890625 
Q 32.328125 33.6875 34.8125 36.53125 
Q 39.546875 41.84375 41.421875 45.53125 
Q 43.3125 49.21875 43.3125 52.78125 
Q 43.3125 58.59375 39.234375 62.25 
Q 35.15625 65.921875 28.609375 65.921875 
Q 23.96875 65.921875 18.8125 64.3125 
Q 13.671875 62.703125 7.8125 59.421875 
L 7.8125 69.390625 
Q 13.765625 71.78125 18.9375 73 
Q 24.125 74.21875 28.421875 74.21875 
Q 39.75 74.21875 46.484375 68.546875 
Q 53.21875 62.890625 53.21875 53.421875 
Q 53.21875 48.921875 51.53125 44.890625 
Q 49.859375 40.875 45.40625 35.40625 
Q 44.1875 33.984375 37.640625 27.21875 
Q 31.109375 20.453125 19.1875 8.296875 
z
" id="DejaVuSans-32"/>
      </defs>
      <g transform="translate(146.723214 320.44225)scale(0.2 -0.2)">
       <use xlink:href="#DejaVuSans-32"/>
      </g>
     </g>
    </g>
    <g id="xtick_3">
     <g id="line2d_5">
      <path clip-path="url(#p380055282a)" d="M 235.371429 298.245375 
L 235.371429 32.133375 
" style="fill:none;stroke:#b0b0b0;stroke-linecap:square;stroke-width:0.8;"/>
     </g>
     <g id="line2d_6">
      <g>
       <use style="stroke:#000000;stroke-width:0.8;" x="235.371429" xlink:href="#m66bdb58534" y="298.245375"/>
      </g>
     </g>
     <g id="text_3">
      <!-- 4 -->
      <defs>
       <path d="M 37.796875 64.3125 
L 12.890625 25.390625 
L 37.796875 25.390625 
z
M 35.203125 72.90625 
L 47.609375 72.90625 
L 47.609375 25.390625 
L 58.015625 25.390625 
L 58.015625 17.1875 
L 47.609375 17.1875 
L 47.609375 0 
L 37.796875 0 
L 37.796875 17.1875 
L 4.890625 17.1875 
L 4.890625 26.703125 
z
" id="DejaVuSans-34"/>
      </defs>
      <g transform="translate(229.008929 320.44225)scale(0.2 -0.2)">
       <use xlink:href="#DejaVuSans-34"/>
      </g>
     </g>
    </g>
    <g id="xtick_4">
     <g id="line2d_7">
      <path clip-path="url(#p380055282a)" d="M 317.657143 298.245375 
L 317.657143 32.133375 
" style="fill:none;stroke:#b0b0b0;stroke-linecap:square;stroke-width:0.8;"/>
     </g>
     <g id="line2d_8">
      <g>
       <use style="stroke:#000000;stroke-width:0.8;" x="317.657143" xlink:href="#m66bdb58534" y="298.245375"/>
      </g>
     </g>
     <g id="text_4">
      <!-- 6 -->
      <defs>
       <path d="M 33.015625 40.375 
Q 26.375 40.375 22.484375 35.828125 
Q 18.609375 31.296875 18.609375 23.390625 
Q 18.609375 15.53125 22.484375 10.953125 
Q 26.375 6.390625 33.015625 6.390625 
Q 39.65625 6.390625 43.53125 10.953125 
Q 47.40625 15.53125 47.40625 23.390625 
Q 47.40625 31.296875 43.53125 35.828125 
Q 39.65625 40.375 33.015625 40.375 
z
M 52.59375 71.296875 
L 52.59375 62.3125 
Q 48.875 64.0625 45.09375 64.984375 
Q 41.3125 65.921875 37.59375 65.921875 
Q 27.828125 65.921875 22.671875 59.328125 
Q 17.53125 52.734375 16.796875 39.40625 
Q 19.671875 43.65625 24.015625 45.921875 
Q 28.375 48.1875 33.59375 48.1875 
Q 44.578125 48.1875 50.953125 41.515625 
Q 57.328125 34.859375 57.328125 23.390625 
Q 57.328125 12.15625 50.6875 5.359375 
Q 44.046875 -1.421875 33.015625 -1.421875 
Q 20.359375 -1.421875 13.671875 8.265625 
Q 6.984375 17.96875 6.984375 36.375 
Q 6.984375 53.65625 15.1875 63.9375 
Q 23.390625 74.21875 37.203125 74.21875 
Q 40.921875 74.21875 44.703125 73.484375 
Q 48.484375 72.75 52.59375 71.296875 
z
" id="DejaVuSans-36"/>
      </defs>
      <g transform="translate(311.294643 320.44225)scale(0.2 -0.2)">
       <use xlink:href="#DejaVuSans-36"/>
      </g>
     </g>
    </g>
    <g id="xtick_5">
     <g id="line2d_9">
      <path clip-path="url(#p380055282a)" d="M 399.942857 298.245375 
L 399.942857 32.133375 
" style="fill:none;stroke:#b0b0b0;stroke-linecap:square;stroke-width:0.8;"/>
     </g>
     <g id="line2d_10">
      <g>
       <use style="stroke:#000000;stroke-width:0.8;" x="399.942857" xlink:href="#m66bdb58534" y="298.245375"/>
      </g>
     </g>
     <g id="text_5">
      <!-- 8 -->
      <defs>
       <path d="M 31.78125 34.625 
Q 24.75 34.625 20.71875 30.859375 
Q 16.703125 27.09375 16.703125 20.515625 
Q 16.703125 13.921875 20.71875 10.15625 
Q 24.75 6.390625 31.78125 6.390625 
Q 38.8125 6.390625 42.859375 10.171875 
Q 46.921875 13.96875 46.921875 20.515625 
Q 46.921875 27.09375 42.890625 30.859375 
Q 38.875 34.625 31.78125 34.625 
z
M 21.921875 38.8125 
Q 15.578125 40.375 12.03125 44.71875 
Q 8.5 49.078125 8.5 55.328125 
Q 8.5 64.0625 14.71875 69.140625 
Q 20.953125 74.21875 31.78125 74.21875 
Q 42.671875 74.21875 48.875 69.140625 
Q 55.078125 64.0625 55.078125 55.328125 
Q 55.078125 49.078125 51.53125 44.71875 
Q 48 40.375 41.703125 38.8125 
Q 48.828125 37.15625 52.796875 32.3125 
Q 56.78125 27.484375 56.78125 20.515625 
Q 56.78125 9.90625 50.3125 4.234375 
Q 43.84375 -1.421875 31.78125 -1.421875 
Q 19.734375 -1.421875 13.25 4.234375 
Q 6.78125 9.90625 6.78125 20.515625 
Q 6.78125 27.484375 10.78125 32.3125 
Q 14.796875 37.15625 21.921875 38.8125 
z
M 18.3125 54.390625 
Q 18.3125 48.734375 21.84375 45.5625 
Q 25.390625 42.390625 31.78125 42.390625 
Q 38.140625 42.390625 41.71875 45.5625 
Q 45.3125 48.734375 45.3125 54.390625 
Q 45.3125 60.0625 41.71875 63.234375 
Q 38.140625 66.40625 31.78125 66.40625 
Q 25.390625 66.40625 21.84375 63.234375 
Q 18.3125 60.0625 18.3125 54.390625 
z
" id="DejaVuSans-38"/>
      </defs>
      <g transform="translate(393.580357 320.44225)scale(0.2 -0.2)">
       <use xlink:href="#DejaVuSans-38"/>
      </g>
     </g>
    </g>
    <g id="text_6">
     <!-- log10 of (# f-evals / dimension) -->
     <defs>
      <path d="M 9.421875 75.984375 
L 18.40625 75.984375 
L 18.40625 0 
L 9.421875 0 
z
" id="DejaVuSans-6c"/>
      <path d="M 30.609375 48.390625 
Q 23.390625 48.390625 19.1875 42.75 
Q 14.984375 37.109375 14.984375 27.296875 
Q 14.984375 17.484375 19.15625 11.84375 
Q 23.34375 6.203125 30.609375 6.203125 
Q 37.796875 6.203125 41.984375 11.859375 
Q 46.1875 17.53125 46.1875 27.296875 
Q 46.1875 37.015625 41.984375 42.703125 
Q 37.796875 48.390625 30.609375 48.390625 
z
M 30.609375 56 
Q 42.328125 56 49.015625 48.375 
Q 55.71875 40.765625 55.71875 27.296875 
Q 55.71875 13.875 49.015625 6.21875 
Q 42.328125 -1.421875 30.609375 -1.421875 
Q 18.84375 -1.421875 12.171875 6.21875 
Q 5.515625 13.875 5.515625 27.296875 
Q 5.515625 40.765625 12.171875 48.375 
Q 18.84375 56 30.609375 56 
z
" id="DejaVuSans-6f"/>
      <path d="M 45.40625 27.984375 
Q 45.40625 37.75 41.375 43.109375 
Q 37.359375 48.484375 30.078125 48.484375 
Q 22.859375 48.484375 18.828125 43.109375 
Q 14.796875 37.75 14.796875 27.984375 
Q 14.796875 18.265625 18.828125 12.890625 
Q 22.859375 7.515625 30.078125 7.515625 
Q 37.359375 7.515625 41.375 12.890625 
Q 45.40625 18.265625 45.40625 27.984375 
z
M 54.390625 6.78125 
Q 54.390625 -7.171875 48.1875 -13.984375 
Q 42 -20.796875 29.203125 -20.796875 
Q 24.46875 -20.796875 20.265625 -20.09375 
Q 16.0625 -19.390625 12.109375 -17.921875 
L 12.109375 -9.1875 
Q 16.0625 -11.328125 19.921875 -12.34375 
Q 23.78125 -13.375 27.78125 -13.375 
Q 36.625 -13.375 41.015625 -8.765625 
Q 45.40625 -4.15625 45.40625 5.171875 
L 45.40625 9.625 
Q 42.625 4.78125 38.28125 2.390625 
Q 33.9375 0 27.875 0 
Q 17.828125 0 11.671875 7.65625 
Q 5.515625 15.328125 5.515625 27.984375 
Q 5.515625 40.671875 11.671875 48.328125 
Q 17.828125 56 27.875 56 
Q 33.9375 56 38.28125 53.609375 
Q 42.625 51.21875 45.40625 46.390625 
L 45.40625 54.6875 
L 54.390625 54.6875 
z
" id="DejaVuSans-67"/>
      <path d="M 12.40625 8.296875 
L 28.515625 8.296875 
L 28.515625 63.921875 
L 10.984375 60.40625 
L 10.984375 69.390625 
L 28.421875 72.90625 
L 38.28125 72.90625 
L 38.28125 8.296875 
L 54.390625 8.296875 
L 54.390625 0 
L 12.40625 0 
z
" id="DejaVuSans-31"/>
      <path id="DejaVuSans-20"/>
      <path d="M 37.109375 75.984375 
L 37.109375 68.5 
L 28.515625 68.5 
Q 23.6875 68.5 21.796875 66.546875 
Q 19.921875 64.59375 19.921875 59.515625 
L 19.921875 54.6875 
L 34.71875 54.6875 
L 34.71875 47.703125 
L 19.921875 47.703125 
L 19.921875 0 
L 10.890625 0 
L 10.890625 47.703125 
L 2.296875 47.703125 
L 2.296875 54.6875 
L 10.890625 54.6875 
L 10.890625 58.5 
Q 10.890625 67.625 15.140625 71.796875 
Q 19.390625 75.984375 28.609375 75.984375 
z
" id="DejaVuSans-66"/>
      <path d="M 31 75.875 
Q 24.46875 64.65625 21.28125 53.65625 
Q 18.109375 42.671875 18.109375 31.390625 
Q 18.109375 20.125 21.3125 9.0625 
Q 24.515625 -2 31 -13.1875 
L 23.1875 -13.1875 
Q 15.875 -1.703125 12.234375 9.375 
Q 8.59375 20.453125 8.59375 31.390625 
Q 8.59375 42.28125 12.203125 53.3125 
Q 15.828125 64.359375 23.1875 75.875 
z
" id="DejaVuSans-28"/>
      <path d="M 51.125 44 
L 36.921875 44 
L 32.8125 27.6875 
L 47.125 27.6875 
z
M 43.796875 71.78125 
L 38.71875 51.515625 
L 52.984375 51.515625 
L 58.109375 71.78125 
L 65.921875 71.78125 
L 60.890625 51.515625 
L 76.125 51.515625 
L 76.125 44 
L 58.984375 44 
L 54.984375 27.6875 
L 70.515625 27.6875 
L 70.515625 20.21875 
L 53.078125 20.21875 
L 48 0 
L 40.1875 0 
L 45.21875 20.21875 
L 30.90625 20.21875 
L 25.875 0 
L 18.015625 0 
L 23.09375 20.21875 
L 7.71875 20.21875 
L 7.71875 27.6875 
L 24.90625 27.6875 
L 29 44 
L 13.28125 44 
L 13.28125 51.515625 
L 30.90625 51.515625 
L 35.890625 71.78125 
z
" id="DejaVuSans-23"/>
      <path d="M 4.890625 31.390625 
L 31.203125 31.390625 
L 31.203125 23.390625 
L 4.890625 23.390625 
z
" id="DejaVuSans-2d"/>
      <path d="M 56.203125 29.59375 
L 56.203125 25.203125 
L 14.890625 25.203125 
Q 15.484375 15.921875 20.484375 11.0625 
Q 25.484375 6.203125 34.421875 6.203125 
Q 39.59375 6.203125 44.453125 7.46875 
Q 49.3125 8.734375 54.109375 11.28125 
L 54.109375 2.78125 
Q 49.265625 0.734375 44.1875 -0.34375 
Q 39.109375 -1.421875 33.890625 -1.421875 
Q 20.796875 -1.421875 13.15625 6.1875 
Q 5.515625 13.8125 5.515625 26.8125 
Q 5.515625 40.234375 12.765625 48.109375 
Q 20.015625 56 32.328125 56 
Q 43.359375 56 49.78125 48.890625 
Q 56.203125 41.796875 56.203125 29.59375 
z
M 47.21875 32.234375 
Q 47.125 39.59375 43.09375 43.984375 
Q 39.0625 48.390625 32.421875 48.390625 
Q 24.90625 48.390625 20.390625 44.140625 
Q 15.875 39.890625 15.1875 32.171875 
z
" id="DejaVuSans-65"/>
      <path d="M 2.984375 54.6875 
L 12.5 54.6875 
L 29.59375 8.796875 
L 46.6875 54.6875 
L 56.203125 54.6875 
L 35.6875 0 
L 23.484375 0 
z
" id="DejaVuSans-76"/>
      <path d="M 34.28125 27.484375 
Q 23.390625 27.484375 19.1875 25 
Q 14.984375 22.515625 14.984375 16.5 
Q 14.984375 11.71875 18.140625 8.90625 
Q 21.296875 6.109375 26.703125 6.109375 
Q 34.1875 6.109375 38.703125 11.40625 
Q 43.21875 16.703125 43.21875 25.484375 
L 43.21875 27.484375 
z
M 52.203125 31.203125 
L 52.203125 0 
L 43.21875 0 
L 43.21875 8.296875 
Q 40.140625 3.328125 35.546875 0.953125 
Q 30.953125 -1.421875 24.3125 -1.421875 
Q 15.921875 -1.421875 10.953125 3.296875 
Q 6 8.015625 6 15.921875 
Q 6 25.140625 12.171875 29.828125 
Q 18.359375 34.515625 30.609375 34.515625 
L 43.21875 34.515625 
L 43.21875 35.40625 
Q 43.21875 41.609375 39.140625 45 
Q 35.0625 48.390625 27.6875 48.390625 
Q 23 48.390625 18.546875 47.265625 
Q 14.109375 46.140625 10.015625 43.890625 
L 10.015625 52.203125 
Q 14.9375 54.109375 19.578125 55.046875 
Q 24.21875 56 28.609375 56 
Q 40.484375 56 46.34375 49.84375 
Q 52.203125 43.703125 52.203125 31.203125 
z
" id="DejaVuSans-61"/>
      <path d="M 44.28125 53.078125 
L 44.28125 44.578125 
Q 40.484375 46.53125 36.375 47.5 
Q 32.28125 48.484375 27.875 48.484375 
Q 21.1875 48.484375 17.84375 46.4375 
Q 14.5 44.390625 14.5 40.28125 
Q 14.5 37.15625 16.890625 35.375 
Q 19.28125 33.59375 26.515625 31.984375 
L 29.59375 31.296875 
Q 39.15625 29.25 43.1875 25.515625 
Q 47.21875 21.78125 47.21875 15.09375 
Q 47.21875 7.46875 41.1875 3.015625 
Q 35.15625 -1.421875 24.609375 -1.421875 
Q 20.21875 -1.421875 15.453125 -0.5625 
Q 10.6875 0.296875 5.421875 2 
L 5.421875 11.28125 
Q 10.40625 8.6875 15.234375 7.390625 
Q 20.0625 6.109375 24.8125 6.109375 
Q 31.15625 6.109375 34.5625 8.28125 
Q 37.984375 10.453125 37.984375 14.40625 
Q 37.984375 18.0625 35.515625 20.015625 
Q 33.0625 21.96875 24.703125 23.78125 
L 21.578125 24.515625 
Q 13.234375 26.265625 9.515625 29.90625 
Q 5.8125 33.546875 5.8125 39.890625 
Q 5.8125 47.609375 11.28125 51.796875 
Q 16.75 56 26.8125 56 
Q 31.78125 56 36.171875 55.265625 
Q 40.578125 54.546875 44.28125 53.078125 
z
" id="DejaVuSans-73"/>
      <path d="M 25.390625 72.90625 
L 33.6875 72.90625 
L 8.296875 -9.28125 
L 0 -9.28125 
z
" id="DejaVuSans-2f"/>
      <path d="M 45.40625 46.390625 
L 45.40625 75.984375 
L 54.390625 75.984375 
L 54.390625 0 
L 45.40625 0 
L 45.40625 8.203125 
Q 42.578125 3.328125 38.25 0.953125 
Q 33.9375 -1.421875 27.875 -1.421875 
Q 17.96875 -1.421875 11.734375 6.484375 
Q 5.515625 14.40625 5.515625 27.296875 
Q 5.515625 40.1875 11.734375 48.09375 
Q 17.96875 56 27.875 56 
Q 33.9375 56 38.25 53.625 
Q 42.578125 51.265625 45.40625 46.390625 
z
M 14.796875 27.296875 
Q 14.796875 17.390625 18.875 11.75 
Q 22.953125 6.109375 30.078125 6.109375 
Q 37.203125 6.109375 41.296875 11.75 
Q 45.40625 17.390625 45.40625 27.296875 
Q 45.40625 37.203125 41.296875 42.84375 
Q 37.203125 48.484375 30.078125 48.484375 
Q 22.953125 48.484375 18.875 42.84375 
Q 14.796875 37.203125 14.796875 27.296875 
z
" id="DejaVuSans-64"/>
      <path d="M 9.421875 54.6875 
L 18.40625 54.6875 
L 18.40625 0 
L 9.421875 0 
z
M 9.421875 75.984375 
L 18.40625 75.984375 
L 18.40625 64.59375 
L 9.421875 64.59375 
z
" id="DejaVuSans-69"/>
      <path d="M 52 44.1875 
Q 55.375 50.25 60.0625 53.125 
Q 64.75 56 71.09375 56 
Q 79.640625 56 84.28125 50.015625 
Q 88.921875 44.046875 88.921875 33.015625 
L 88.921875 0 
L 79.890625 0 
L 79.890625 32.71875 
Q 79.890625 40.578125 77.09375 44.375 
Q 74.3125 48.1875 68.609375 48.1875 
Q 61.625 48.1875 57.5625 43.546875 
Q 53.515625 38.921875 53.515625 30.90625 
L 53.515625 0 
L 44.484375 0 
L 44.484375 32.71875 
Q 44.484375 40.625 41.703125 44.40625 
Q 38.921875 48.1875 33.109375 48.1875 
Q 26.21875 48.1875 22.15625 43.53125 
Q 18.109375 38.875 18.109375 30.90625 
L 18.109375 0 
L 9.078125 0 
L 9.078125 54.6875 
L 18.109375 54.6875 
L 18.109375 46.1875 
Q 21.1875 51.21875 25.484375 53.609375 
Q 29.78125 56 35.6875 56 
Q 41.65625 56 45.828125 52.96875 
Q 50 49.953125 52 44.1875 
z
" id="DejaVuSans-6d"/>
      <path d="M 54.890625 33.015625 
L 54.890625 0 
L 45.90625 0 
L 45.90625 32.71875 
Q 45.90625 40.484375 42.875 44.328125 
Q 39.84375 48.1875 33.796875 48.1875 
Q 26.515625 48.1875 22.3125 43.546875 
Q 18.109375 38.921875 18.109375 30.90625 
L 18.109375 0 
L 9.078125 0 
L 9.078125 54.6875 
L 18.109375 54.6875 
L 18.109375 46.1875 
Q 21.34375 51.125 25.703125 53.5625 
Q 30.078125 56 35.796875 56 
Q 45.21875 56 50.046875 50.171875 
Q 54.890625 44.34375 54.890625 33.015625 
z
" id="DejaVuSans-6e"/>
      <path d="M 8.015625 75.875 
L 15.828125 75.875 
Q 23.140625 64.359375 26.78125 53.3125 
Q 30.421875 42.28125 30.421875 31.390625 
Q 30.421875 20.453125 26.78125 9.375 
Q 23.140625 -1.703125 15.828125 -13.1875 
L 8.015625 -13.1875 
Q 14.5 -2 17.703125 9.0625 
Q 20.90625 20.125 20.90625 31.390625 
Q 20.90625 42.671875 17.703125 53.65625 
Q 14.5 64.65625 8.015625 75.875 
z
" id="DejaVuSans-29"/>
     </defs>
     <g transform="translate(107.015156 342.278812)scale(0.18 -0.18)">
      <use xlink:href="#DejaVuSans-6c"/>
      <use x="27.783203" xlink:href="#DejaVuSans-6f"/>
      <use x="88.964844" xlink:href="#DejaVuSans-67"/>
      <use x="152.441406" xlink:href="#DejaVuSans-31"/>
      <use x="216.064453" xlink:href="#DejaVuSans-30"/>
      <use x="279.6875" xlink:href="#DejaVuSans-20"/>
      <use x="311.474609" xlink:href="#DejaVuSans-6f"/>
      <use x="372.65625" xlink:href="#DejaVuSans-66"/>
      <use x="407.861328" xlink:href="#DejaVuSans-20"/>
      <use x="439.648438" xlink:href="#DejaVuSans-28"/>
      <use x="478.662109" xlink:href="#DejaVuSans-23"/>
      <use x="562.451172" xlink:href="#DejaVuSans-20"/>
      <use x="594.238281" xlink:href="#DejaVuSans-66"/>
      <use x="629.365234" xlink:href="#DejaVuSans-2d"/>
      <use x="665.449219" xlink:href="#DejaVuSans-65"/>
      <use x="726.972656" xlink:href="#DejaVuSans-76"/>
      <use x="786.152344" xlink:href="#DejaVuSans-61"/>
      <use x="847.431641" xlink:href="#DejaVuSans-6c"/>
      <use x="875.214844" xlink:href="#DejaVuSans-73"/>
      <use x="927.314453" xlink:href="#DejaVuSans-20"/>
      <use x="959.101562" xlink:href="#DejaVuSans-2f"/>
      <use x="992.792969" xlink:href="#DejaVuSans-20"/>
      <use x="1024.580078" xlink:href="#DejaVuSans-64"/>
      <use x="1088.056641" xlink:href="#DejaVuSans-69"/>
      <use x="1115.839844" xlink:href="#DejaVuSans-6d"/>
      <use x="1213.251953" xlink:href="#DejaVuSans-65"/>
      <use x="1274.775391" xlink:href="#DejaVuSans-6e"/>
      <use x="1338.154297" xlink:href="#DejaVuSans-73"/>
      <use x="1390.253906" xlink:href="#DejaVuSans-69"/>
      <use x="1418.037109" xlink:href="#DejaVuSans-6f"/>
      <use x="1479.21875" xlink:href="#DejaVuSans-6e"/>
      <use x="1542.597656" xlink:href="#DejaVuSans-29"/>
     </g>
    </g>
   </g>
   <g id="matplotlib.axis_2">
    <g id="ytick_1">
     <g id="line2d_11">
      <path clip-path="url(#p380055282a)" d="M 70.8 298.245375 
L 427.92 298.245375 
" style="fill:none;stroke:#b0b0b0;stroke-linecap:square;stroke-width:0.8;"/>
     </g>
     <g id="line2d_12">
      <defs>
       <path d="M 0 0 
L -3.5 0 
" id="m4cea1334a0" style="stroke:#000000;stroke-width:0.8;"/>
      </defs>
      <g>
       <use style="stroke:#000000;stroke-width:0.8;" x="70.8" xlink:href="#m4cea1334a0" y="298.245375"/>
      </g>
     </g>
     <g id="text_7">
      <!-- 0.0 -->
      <defs>
       <path d="M 10.6875 12.40625 
L 21 12.40625 
L 21 0 
L 10.6875 0 
z
" id="DejaVuSans-2e"/>
      </defs>
      <g transform="translate(31.99375 305.843812)scale(0.2 -0.2)">
       <use xlink:href="#DejaVuSans-30"/>
       <use x="63.623047" xlink:href="#DejaVuSans-2e"/>
       <use x="95.410156" xlink:href="#DejaVuSans-30"/>
      </g>
     </g>
    </g>
    <g id="ytick_2">
     <g id="line2d_13">
      <path clip-path="url(#p380055282a)" d="M 70.8 245.549929 
L 427.92 245.549929 
" style="fill:none;stroke:#b0b0b0;stroke-linecap:square;stroke-width:0.8;"/>
     </g>
     <g id="line2d_14">
      <g>
       <use style="stroke:#000000;stroke-width:0.8;" x="70.8" xlink:href="#m4cea1334a0" y="245.549929"/>
      </g>
     </g>
     <g id="text_8">
      <!-- 0.2 -->
      <g transform="translate(31.99375 253.148367)scale(0.2 -0.2)">
       <use xlink:href="#DejaVuSans-30"/>
       <use x="63.623047" xlink:href="#DejaVuSans-2e"/>
       <use x="95.410156" xlink:href="#DejaVuSans-32"/>
      </g>
     </g>
    </g>
    <g id="ytick_3">
     <g id="line2d_15">
      <path clip-path="url(#p380055282a)" d="M 70.8 192.854484 
L 427.92 192.854484 
" style="fill:none;stroke:#b0b0b0;stroke-linecap:square;stroke-width:0.8;"/>
     </g>
     <g id="line2d_16">
      <g>
       <use style="stroke:#000000;stroke-width:0.8;" x="70.8" xlink:href="#m4cea1334a0" y="192.854484"/>
      </g>
     </g>
     <g id="text_9">
      <!-- 0.4 -->
      <g transform="translate(31.99375 200.452921)scale(0.2 -0.2)">
       <use xlink:href="#DejaVuSans-30"/>
       <use x="63.623047" xlink:href="#DejaVuSans-2e"/>
       <use x="95.410156" xlink:href="#DejaVuSans-34"/>
      </g>
     </g>
    </g>
    <g id="ytick_4">
     <g id="line2d_17">
      <path clip-path="url(#p380055282a)" d="M 70.8 140.159038 
L 427.92 140.159038 
" style="fill:none;stroke:#b0b0b0;stroke-linecap:square;stroke-width:0.8;"/>
     </g>
     <g id="line2d_18">
      <g>
       <use style="stroke:#000000;stroke-width:0.8;" x="70.8" xlink:href="#m4cea1334a0" y="140.159038"/>
      </g>
     </g>
     <g id="text_10">
      <!-- 0.6 -->
      <g transform="translate(31.99375 147.757476)scale(0.2 -0.2)">
       <use xlink:href="#DejaVuSans-30"/>
       <use x="63.623047" xlink:href="#DejaVuSans-2e"/>
       <use x="95.410156" xlink:href="#DejaVuSans-36"/>
      </g>
     </g>
    </g>
    <g id="ytick_5">
     <g id="line2d_19">
      <path clip-path="url(#p380055282a)" d="M 70.8 87.463593 
L 427.92 87.463593 
" style="fill:none;stroke:#b0b0b0;stroke-linecap:square;stroke-width:0.8;"/>
     </g>
     <g id="line2d_20">
      <g>
       <use style="stroke:#000000;stroke-width:0.8;" x="70.8" xlink:href="#m4cea1334a0" y="87.463593"/>
      </g>
     </g>
     <g id="text_11">
      <!-- 0.8 -->
      <g transform="translate(31.99375 95.06203)scale(0.2 -0.2)">
       <use xlink:href="#DejaVuSans-30"/>
       <use x="63.623047" xlink:href="#DejaVuSans-2e"/>
       <use x="95.410156" xlink:href="#DejaVuSans-38"/>
      </g>
     </g>
    </g>
    <g id="ytick_6">
     <g id="line2d_21">
      <path clip-path="url(#p380055282a)" d="M 70.8 34.768147 
L 427.92 34.768147 
" style="fill:none;stroke:#b0b0b0;stroke-linecap:square;stroke-width:0.8;"/>
     </g>
     <g id="line2d_22">
      <g>
       <use style="stroke:#000000;stroke-width:0.8;" x="70.8" xlink:href="#m4cea1334a0" y="34.768147"/>
      </g>
     </g>
     <g id="text_12">
      <!-- 1.0 -->
      <g transform="translate(31.99375 42.366585)scale(0.2 -0.2)">
       <use xlink:href="#DejaVuSans-31"/>
       <use x="63.623047" xlink:href="#DejaVuSans-2e"/>
       <use x="95.410156" xlink:href="#DejaVuSans-30"/>
      </g>
     </g>
    </g>
    <g id="text_13">
     <!-- Proportion of function+target pairs -->
     <defs>
      <path d="M 19.671875 64.796875 
L 19.671875 37.40625 
L 32.078125 37.40625 
Q 38.96875 37.40625 42.71875 40.96875 
Q 46.484375 44.53125 46.484375 51.125 
Q 46.484375 57.671875 42.71875 61.234375 
Q 38.96875 64.796875 32.078125 64.796875 
z
M 9.8125 72.90625 
L 32.078125 72.90625 
Q 44.34375 72.90625 50.609375 67.359375 
Q 56.890625 61.8125 56.890625 51.125 
Q 56.890625 40.328125 50.609375 34.8125 
Q 44.34375 29.296875 32.078125 29.296875 
L 19.671875 29.296875 
L 19.671875 0 
L 9.8125 0 
z
" id="DejaVuSans-50"/>
      <path d="M 41.109375 46.296875 
Q 39.59375 47.171875 37.8125 47.578125 
Q 36.03125 48 33.890625 48 
Q 26.265625 48 22.1875 43.046875 
Q 18.109375 38.09375 18.109375 28.8125 
L 18.109375 0 
L 9.078125 0 
L 9.078125 54.6875 
L 18.109375 54.6875 
L 18.109375 46.1875 
Q 20.953125 51.171875 25.484375 53.578125 
Q 30.03125 56 36.53125 56 
Q 37.453125 56 38.578125 55.875 
Q 39.703125 55.765625 41.0625 55.515625 
z
" id="DejaVuSans-72"/>
      <path d="M 18.109375 8.203125 
L 18.109375 -20.796875 
L 9.078125 -20.796875 
L 9.078125 54.6875 
L 18.109375 54.6875 
L 18.109375 46.390625 
Q 20.953125 51.265625 25.265625 53.625 
Q 29.59375 56 35.59375 56 
Q 45.5625 56 51.78125 48.09375 
Q 58.015625 40.1875 58.015625 27.296875 
Q 58.015625 14.40625 51.78125 6.484375 
Q 45.5625 -1.421875 35.59375 -1.421875 
Q 29.59375 -1.421875 25.265625 0.953125 
Q 20.953125 3.328125 18.109375 8.203125 
z
M 48.6875 27.296875 
Q 48.6875 37.203125 44.609375 42.84375 
Q 40.53125 48.484375 33.40625 48.484375 
Q 26.265625 48.484375 22.1875 42.84375 
Q 18.109375 37.203125 18.109375 27.296875 
Q 18.109375 17.390625 22.1875 11.75 
Q 26.265625 6.109375 33.40625 6.109375 
Q 40.53125 6.109375 44.609375 11.75 
Q 48.6875 17.390625 48.6875 27.296875 
z
" id="DejaVuSans-70"/>
      <path d="M 18.3125 70.21875 
L 18.3125 54.6875 
L 36.8125 54.6875 
L 36.8125 47.703125 
L 18.3125 47.703125 
L 18.3125 18.015625 
Q 18.3125 11.328125 20.140625 9.421875 
Q 21.96875 7.515625 27.59375 7.515625 
L 36.8125 7.515625 
L 36.8125 0 
L 27.59375 0 
Q 17.1875 0 13.234375 3.875 
Q 9.28125 7.765625 9.28125 18.015625 
L 9.28125 47.703125 
L 2.6875 47.703125 
L 2.6875 54.6875 
L 9.28125 54.6875 
L 9.28125 70.21875 
z
" id="DejaVuSans-74"/>
      <path d="M 8.5 21.578125 
L 8.5 54.6875 
L 17.484375 54.6875 
L 17.484375 21.921875 
Q 17.484375 14.15625 20.5 10.265625 
Q 23.53125 6.390625 29.59375 6.390625 
Q 36.859375 6.390625 41.078125 11.03125 
Q 45.3125 15.671875 45.3125 23.6875 
L 45.3125 54.6875 
L 54.296875 54.6875 
L 54.296875 0 
L 45.3125 0 
L 45.3125 8.40625 
Q 42.046875 3.421875 37.71875 1 
Q 33.40625 -1.421875 27.6875 -1.421875 
Q 18.265625 -1.421875 13.375 4.4375 
Q 8.5 10.296875 8.5 21.578125 
z
M 31.109375 56 
z
" id="DejaVuSans-75"/>
      <path d="M 48.78125 52.59375 
L 48.78125 44.1875 
Q 44.96875 46.296875 41.140625 47.34375 
Q 37.3125 48.390625 33.40625 48.390625 
Q 24.65625 48.390625 19.8125 42.84375 
Q 14.984375 37.3125 14.984375 27.296875 
Q 14.984375 17.28125 19.8125 11.734375 
Q 24.65625 6.203125 33.40625 6.203125 
Q 37.3125 6.203125 41.140625 7.25 
Q 44.96875 8.296875 48.78125 10.40625 
L 48.78125 2.09375 
Q 45.015625 0.34375 40.984375 -0.53125 
Q 36.96875 -1.421875 32.421875 -1.421875 
Q 20.0625 -1.421875 12.78125 6.34375 
Q 5.515625 14.109375 5.515625 27.296875 
Q 5.515625 40.671875 12.859375 48.328125 
Q 20.21875 56 33.015625 56 
Q 37.15625 56 41.109375 55.140625 
Q 45.0625 54.296875 48.78125 52.59375 
z
" id="DejaVuSans-63"/>
      <path d="M 46 62.703125 
L 46 35.5 
L 73.1875 35.5 
L 73.1875 27.203125 
L 46 27.203125 
L 46 0 
L 37.796875 0 
L 37.796875 27.203125 
L 10.59375 27.203125 
L 10.59375 35.5 
L 37.796875 35.5 
L 37.796875 62.703125 
z
" id="DejaVuSans-2b"/>
     </defs>
     <g transform="translate(24.250312 323.17875)rotate(-90)scale(0.18 -0.18)">
      <use xlink:href="#DejaVuSans-50"/>
      <use x="60.287109" xlink:href="#DejaVuSans-72"/>
      <use x="101.369141" xlink:href="#DejaVuSans-6f"/>
      <use x="162.550781" xlink:href="#DejaVuSans-70"/>
      <use x="226.027344" xlink:href="#DejaVuSans-6f"/>
      <use x="287.208984" xlink:href="#DejaVuSans-72"/>
      <use x="328.322266" xlink:href="#DejaVuSans-74"/>
      <use x="367.53125" xlink:href="#DejaVuSans-69"/>
      <use x="395.314453" xlink:href="#DejaVuSans-6f"/>
      <use x="456.496094" xlink:href="#DejaVuSans-6e"/>
      <use x="519.875" xlink:href="#DejaVuSans-20"/>
      <use x="551.662109" xlink:href="#DejaVuSans-6f"/>
      <use x="612.84375" xlink:href="#DejaVuSans-66"/>
      <use x="648.048828" xlink:href="#DejaVuSans-20"/>
      <use x="679.835938" xlink:href="#DejaVuSans-66"/>
      <use x="715.041016" xlink:href="#DejaVuSans-75"/>
      <use x="778.419922" xlink:href="#DejaVuSans-6e"/>
      <use x="841.798828" xlink:href="#DejaVuSans-63"/>
      <use x="896.779297" xlink:href="#DejaVuSans-74"/>
      <use x="935.988281" xlink:href="#DejaVuSans-69"/>
      <use x="963.771484" xlink:href="#DejaVuSans-6f"/>
      <use x="1024.953125" xlink:href="#DejaVuSans-6e"/>
      <use x="1088.332031" xlink:href="#DejaVuSans-2b"/>
      <use x="1172.121094" xlink:href="#DejaVuSans-74"/>
      <use x="1211.330078" xlink:href="#DejaVuSans-61"/>
      <use x="1272.609375" xlink:href="#DejaVuSans-72"/>
      <use x="1313.707031" xlink:href="#DejaVuSans-67"/>
      <use x="1377.183594" xlink:href="#DejaVuSans-65"/>
      <use x="1438.707031" xlink:href="#DejaVuSans-74"/>
      <use x="1477.916016" xlink:href="#DejaVuSans-20"/>
      <use x="1509.703125" xlink:href="#DejaVuSans-70"/>
      <use x="1573.179688" xlink:href="#DejaVuSans-61"/>
      <use x="1634.458984" xlink:href="#DejaVuSans-69"/>
      <use x="1662.242188" xlink:href="#DejaVuSans-72"/>
      <use x="1703.355469" xlink:href="#DejaVuSans-73"/>
     </g>
    </g>
   </g>
   <g id="line2d_23">
    <defs>
     <path d="M 0 1.5 
C 0.397805 1.5 0.77937 1.341951 1.06066 1.06066 
C 1.341951 0.77937 1.5 0.397805 1.5 0 
C 1.5 -0.397805 1.341951 -0.77937 1.06066 -1.06066 
C 0.77937 -1.341951 0.397805 -1.5 0 -1.5 
C -0.397805 -1.5 -0.77937 -1.341951 -1.06066 -1.06066 
C -1.341951 -0.77937 -1.5 -0.397805 -1.5 0 
C -1.5 0.397805 -1.341951 0.77937 -1.06066 1.06066 
C -0.77937 1.341951 -0.397805 1.5 0 1.5 
z
" id="m29067cb57f" style="stroke:#000080;"/>
    </defs>
    <g>
     <use style="fill:#000080;stroke:#000080;" x="353.991387" xlink:href="#m29067cb57f" y="76.097908"/>
     <use style="fill:#000080;stroke:#000080;" x="353.991387" xlink:href="#m29067cb57f" y="76.097908"/>
    </g>
   </g>
   <g id="line2d_24">
    <path d="M 108.613499 298.245375 
L 108.613499 297.728753 
L 110.549831 297.728753 
L 110.549831 296.178887 
L 122.691958 296.178887 
L 122.740845 295.145643 
L 123.269953 295.145643 
L 123.269953 294.112399 
L 124.012631 294.112399 
L 124.012631 293.079155 
L 129.390083 293.079155 
L 129.390083 292.562533 
L 130.212129 292.562533 
L 130.212129 291.529289 
L 136.099865 291.529289 
L 136.099865 291.012667 
L 139.403779 291.012667 
L 139.403779 290.496045 
L 140.100884 290.496045 
L 140.100884 289.979423 
L 142.273069 289.979423 
L 142.354696 288.946179 
L 142.978903 288.946179 
L 142.978903 288.429557 
L 143.352466 288.429557 
L 143.352466 287.912935 
L 143.657911 287.912935 
L 143.657911 286.879691 
L 145.769201 286.879691 
L 145.769201 286.363069 
L 146.142022 286.363069 
L 146.142022 285.846447 
L 147.981078 285.846447 
L 147.981078 285.329825 
L 148.623255 285.329825 
L 148.623255 284.813203 
L 149.053833 284.813203 
L 149.053833 283.779959 
L 150.108081 283.779959 
L 150.108081 283.263337 
L 151.02354 283.263337 
L 151.02354 282.230093 
L 151.163369 282.230093 
L 151.163369 281.713471 
L 151.469152 281.713471 
L 151.469152 281.196849 
L 152.495354 281.196849 
L 152.523035 279.646982 
L 154.756211 279.646982 
L 154.756211 278.613738 
L 155.134599 278.613738 
L 155.134599 278.097116 
L 157.12283 278.097116 
L 157.222334 276.54725 
L 158.612702 276.54725 
L 158.612702 276.030628 
L 159.319806 276.030628 
L 159.319806 275.514006 
L 159.681673 275.514006 
L 159.774078 273.96414 
L 160.933788 273.96414 
L 160.962556 272.414274 
L 161.071456 272.414274 
L 161.071456 271.897652 
L 161.366148 271.897652 
L 161.366148 271.38103 
L 162.163105 271.38103 
L 162.163105 270.864408 
L 162.708375 270.864408 
L 162.708375 269.831164 
L 163.064562 269.831164 
L 163.064562 268.79792 
L 164.010185 268.79792 
L 164.010185 268.281298 
L 164.483762 268.281298 
L 164.483762 267.248054 
L 164.811198 267.248054 
L 164.811198 266.731432 
L 166.393716 266.731432 
L 166.393716 265.698188 
L 167.391918 265.698188 
L 167.49193 262.598456 
L 168.088243 262.598456 
L 168.088243 262.081834 
L 169.089824 262.081834 
L 169.195306 260.531968 
L 169.303773 260.531968 
L 169.303773 260.015346 
L 169.906285 260.015346 
L 169.906285 259.498724 
L 170.421549 259.498724 
L 170.50937 258.46548 
L 171.543595 258.46548 
L 171.651387 256.915614 
L 172.042185 256.915614 
L 172.042185 255.88237 
L 172.427644 255.88237 
L 172.497117 254.849126 
L 172.614305 254.849126 
L 172.614305 252.782638 
L 173.433819 252.782638 
L 173.433819 251.749394 
L 174.540274 251.749394 
L 174.540274 251.232772 
L 175.698497 251.232772 
L 175.698497 250.71615 
L 175.918908 250.71615 
L 175.918908 250.199528 
L 176.866636 250.199528 
L 176.866636 249.682906 
L 177.035803 249.682906 
L 177.035803 249.166284 
L 177.415251 249.166284 
L 177.415251 248.649662 
L 177.604261 248.649662 
L 177.604261 248.13304 
L 177.793534 248.13304 
L 177.793534 247.099796 
L 178.04282 247.099796 
L 178.04282 246.583173 
L 178.565571 246.583173 
L 178.565571 245.549929 
L 178.696035 245.549929 
L 178.696035 244.000063 
L 179.073463 244.000063 
L 179.113061 242.450197 
L 179.712849 242.450197 
L 179.712849 241.933575 
L 180.248278 241.933575 
L 180.248278 241.416953 
L 181.313819 241.416953 
L 181.313819 240.900331 
L 190.2403 240.900331 
L 190.2403 240.383709 
L 191.585517 240.383709 
L 191.585517 239.350465 
L 193.118222 239.350465 
L 193.118222 238.833843 
L 193.409595 238.833843 
L 193.409595 238.317221 
L 199.023415 238.317221 
L 199.023415 236.250733 
L 200.151773 236.250733 
L 200.151773 235.734111 
L 200.526207 235.734111 
L 200.526207 235.217489 
L 200.717359 235.217489 
L 200.717359 234.700867 
L 204.924233 234.700867 
L 204.924233 234.184245 
L 205.484908 234.184245 
L 205.484908 233.667623 
L 205.790619 233.667623 
L 205.790619 232.634379 
L 209.176227 232.634379 
L 209.176227 232.117757 
L 212.105021 232.117757 
L 212.105021 231.601135 
L 217.612049 231.601135 
L 217.657612 230.567891 
L 217.730895 230.567891 
L 217.746713 229.534647 
L 217.847525 229.534647 
L 217.847525 227.984781 
L 217.973338 227.984781 
L 218.0517 224.885049 
L 218.202496 224.885049 
L 218.205999 223.851805 
L 218.351104 223.851805 
L 218.436822 221.268695 
L 218.477112 221.268695 
L 218.561084 220.235451 
L 218.596984 220.235451 
L 218.699031 217.652341 
L 218.747345 217.652341 
L 218.833667 216.102475 
L 218.909699 216.102475 
L 218.988986 214.035987 
L 219.050114 214.035987 
L 219.154484 210.419632 
L 219.361194 210.419632 
L 219.46899 208.353144 
L 219.568569 208.353144 
L 219.568569 207.836522 
L 219.690173 207.836522 
L 219.757731 206.803278 
L 219.859976 206.803278 
L 219.859976 205.770034 
L 220.056202 205.770034 
L 220.091744 204.73679 
L 221.291024 204.73679 
L 221.291024 204.220168 
L 221.574228 204.220168 
L 221.574228 203.703546 
L 221.918195 203.703546 
L 221.918195 203.186924 
L 223.334424 203.186924 
L 223.334424 202.670302 
L 223.622622 202.670302 
L 223.636411 201.637058 
L 224.810622 201.637058 
L 224.810622 201.120436 
L 229.84079 201.120436 
L 229.84079 200.603814 
L 230.063059 200.603814 
L 230.063059 200.087192 
L 230.273449 200.087192 
L 230.273449 199.57057 
L 230.384927 199.57057 
L 230.465408 197.504082 
L 230.56857 197.504082 
L 230.652651 196.470838 
L 230.750345 196.470838 
L 230.792298 194.40435 
L 230.870738 194.40435 
L 230.964735 191.82124 
L 231.003678 191.82124 
L 231.003678 190.787996 
L 231.252796 190.787996 
L 231.332717 189.23813 
L 231.789057 189.23813 
L 231.789057 188.721508 
L 232.077448 188.721508 
L 232.077448 188.204886 
L 232.306511 188.204886 
L 232.3565 186.65502 
L 232.914268 186.65502 
L 232.914268 186.138398 
L 233.932079 186.138398 
L 233.932079 185.621776 
L 234.260604 185.621776 
L 234.260604 185.105154 
L 234.523246 185.105154 
L 234.523246 184.588532 
L 234.859847 184.588532 
L 234.859847 184.07191 
L 234.983896 184.07191 
L 234.983896 183.555288 
L 236.023368 183.555288 
L 236.023368 183.038666 
L 236.639295 183.038666 
L 236.639295 182.522044 
L 237.234938 182.522044 
L 237.328787 181.4888 
L 237.571349 181.4888 
L 237.571349 180.972178 
L 237.825153 180.972178 
L 237.825153 180.455556 
L 237.969652 180.455556 
L 238.065033 178.90569 
L 238.383365 178.90569 
L 238.46455 177.872445 
L 238.814335 177.872445 
L 238.814335 177.355823 
L 239.527742 177.355823 
L 239.541542 176.322579 
L 240.293361 176.322579 
L 240.37241 173.739469 
L 240.549338 173.739469 
L 240.549338 172.189603 
L 240.763289 172.189603 
L 240.763289 171.672981 
L 241.991952 171.672981 
L 241.991952 171.156359 
L 242.16993 171.156359 
L 242.16993 170.639737 
L 242.431751 170.639737 
L 242.436385 169.606493 
L 243.149516 169.606493 
L 243.222266 168.573249 
L 243.290419 168.573249 
L 243.323997 167.540005 
L 243.655009 167.540005 
L 243.655009 166.506761 
L 244.276459 166.506761 
L 244.276459 165.990139 
L 245.269698 165.990139 
L 245.269698 165.473517 
L 245.398102 165.473517 
L 245.500266 163.923651 
L 246.347983 163.923651 
L 246.347983 163.407029 
L 246.646456 163.407029 
L 246.646456 160.823919 
L 247.050548 160.823919 
L 247.050548 159.790675 
L 247.376797 159.790675 
L 247.376797 159.274053 
L 247.857511 159.274053 
L 247.857511 158.757431 
L 248.241618 158.757431 
L 248.267163 157.724187 
L 248.505633 157.724187 
L 248.517324 156.690943 
L 248.995462 156.690943 
L 249.064722 155.141077 
L 249.165407 155.141077 
L 249.165407 154.624455 
L 249.498821 154.624455 
L 249.498821 153.591211 
L 249.899302 153.591211 
L 249.957768 151.524723 
L 250.076679 151.524723 
L 250.076679 151.008101 
L 250.307082 151.008101 
L 250.307082 149.974857 
L 250.882027 149.974857 
L 250.882027 149.458235 
L 251.848859 149.458235 
L 251.868033 147.908369 
L 252.802428 147.908369 
L 252.802428 147.391747 
L 253.527704 147.391747 
L 253.527704 146.875125 
L 253.713758 146.875125 
L 253.806271 145.325259 
L 253.853651 145.325259 
L 253.878911 143.775392 
L 254.073412 143.775392 
L 254.073412 142.225526 
L 255.005282 142.225526 
L 255.005282 141.192282 
L 255.990891 141.192282 
L 256.082734 139.125794 
L 256.308913 139.125794 
L 256.308913 138.609172 
L 256.649259 138.609172 
L 256.649259 138.09255 
L 256.825155 138.09255 
L 256.825155 137.575928 
L 257.084375 137.575928 
L 257.193606 136.542684 
L 257.262043 136.542684 
L 257.262043 136.026062 
L 257.394776 136.026062 
L 257.394776 134.992818 
L 257.737503 134.992818 
L 257.825187 132.92633 
L 257.936769 132.92633 
L 257.936769 131.893086 
L 259.056651 131.893086 
L 259.056651 131.376464 
L 259.439871 131.376464 
L 259.536525 129.826598 
L 259.587629 129.826598 
L 259.587629 129.309976 
L 260.255689 129.309976 
L 260.255689 128.793354 
L 260.932648 128.793354 
L 260.991336 127.243488 
L 261.324969 127.243488 
L 261.431243 126.210244 
L 261.507137 126.210244 
L 261.507137 125.693622 
L 261.784605 125.693622 
L 261.784605 124.660378 
L 262.113182 124.660378 
L 262.113182 124.143756 
L 262.416682 124.143756 
L 262.416682 123.110512 
L 262.62068 123.110512 
L 262.62068 122.59389 
L 262.927814 122.59389 
L 262.983625 121.560646 
L 263.270974 121.560646 
L 263.270974 121.044024 
L 263.834148 121.044024 
L 263.93257 119.494158 
L 264.389819 119.494158 
L 264.497386 118.460914 
L 264.743257 118.460914 
L 264.743257 117.42767 
L 264.999734 117.42767 
L 264.999734 116.911048 
L 265.311563 116.911048 
L 265.311563 116.394426 
L 265.545927 116.394426 
L 265.599277 115.361182 
L 266.189165 115.361182 
L 266.266206 112.26145 
L 266.331341 112.26145 
L 266.331341 111.744828 
L 266.582169 111.744828 
L 266.582169 111.228206 
L 266.970555 111.228206 
L 266.970555 110.711584 
L 267.128137 110.711584 
L 267.128137 110.194961 
L 267.342128 110.194961 
L 267.342128 109.161717 
L 267.665716 109.161717 
L 267.665716 108.645095 
L 267.817891 108.645095 
L 267.850232 107.095229 
L 267.986903 107.095229 
L 267.986903 106.578607 
L 268.721073 106.578607 
L 268.721073 106.061985 
L 269.134071 106.061985 
L 269.134071 105.545363 
L 269.322587 105.545363 
L 269.322587 105.028741 
L 270.312259 105.028741 
L 270.401486 103.995497 
L 270.4407 103.995497 
L 270.4407 103.478875 
L 270.577157 103.478875 
L 270.577157 102.962253 
L 270.894033 102.962253 
L 270.912781 101.412387 
L 271.279224 101.412387 
L 271.279224 100.379143 
L 271.694049 100.379143 
L 271.802523 99.345899 
L 272.024637 99.345899 
L 272.099244 97.796033 
L 272.317372 97.796033 
L 272.343647 96.246167 
L 272.580432 96.246167 
L 272.580432 95.729545 
L 273.414845 95.729545 
L 273.414845 95.212923 
L 273.889722 95.212923 
L 273.889722 94.179679 
L 274.044861 94.179679 
L 274.044861 93.663057 
L 274.506845 93.663057 
L 274.506845 92.629813 
L 275.325017 92.629813 
L 275.370879 90.563325 
L 284.310072 90.563325 
L 284.310072 90.046703 
L 284.817266 90.046703 
L 284.817266 89.530081 
L 285.141461 89.530081 
L 285.141461 89.013459 
L 285.538725 89.013459 
L 285.538725 88.496837 
L 285.74803 88.496837 
L 285.804589 87.463593 
L 285.948305 87.463593 
L 285.948305 86.946971 
L 286.250198 86.946971 
L 286.316903 85.913727 
L 291.78727 85.913727 
L 291.78727 85.397105 
L 293.086837 85.397105 
L 293.086837 84.880483 
L 293.244392 84.880483 
L 293.244392 84.363861 
L 298.762728 84.363861 
L 298.762728 83.847239 
L 298.931687 83.847239 
L 298.931687 83.330617 
L 299.14668 83.330617 
L 299.14668 82.813995 
L 300.390697 82.813995 
L 300.390697 82.297373 
L 301.960326 82.297373 
L 301.960326 81.780751 
L 303.008206 81.780751 
L 303.008206 81.264129 
L 304.383771 81.264129 
L 304.383771 80.747507 
L 306.297851 80.747507 
L 306.297851 80.230885 
L 314.862995 80.230885 
L 314.862995 79.714263 
L 316.271556 79.714263 
L 316.271556 79.197641 
L 326.844318 79.197641 
L 326.844318 78.681019 
L 333.914924 78.681019 
L 333.914924 78.164397 
L 335.863532 78.164397 
L 335.863532 77.647775 
L 343.957796 77.647775 
L 343.957796 77.131153 
L 351.670051 77.131153 
L 351.670051 76.614531 
L 353.991387 76.614531 
L 353.991387 76.097908 
L 358.8 76.097908 
L 358.8 76.097908 
" style="fill:none;stroke:#000080;stroke-linecap:square;stroke-width:1.5;"/>
   </g>
   <g id="line2d_25">
    <defs>
     <path d="M 0 6 
C 1.591219 6 3.117479 5.367802 4.242641 4.242641 
C 5.367802 3.117479 6 1.591219 6 0 
C 6 -1.591219 5.367802 -3.117479 4.242641 -4.242641 
C 3.117479 -5.367802 1.591219 -6 0 -6 
C -1.591219 -6 -3.117479 -5.367802 -4.242641 -4.242641 
C -5.367802 -3.117479 -6 -1.591219 -6 0 
C -6 1.591219 -5.367802 3.117479 -4.242641 4.242641 
C -3.117479 5.367802 -1.591219 6 0 6 
z
" id="m4a9e4349ab" style="stroke:#000080;stroke-width:1.5;"/>
    </defs>
    <g>
     <use style="fill:none;stroke:#000080;stroke-width:1.5;" x="200.151773" xlink:href="#m4a9e4349ab" y="235.734111"/>
     <use style="fill:none;stroke:#000080;stroke-width:1.5;" x="246.347983" xlink:href="#m4a9e4349ab" y="163.407029"/>
     <use style="fill:none;stroke:#000080;stroke-width:1.5;" x="314.862995" xlink:href="#m4a9e4349ab" y="80.230885"/>
     <use style="fill:none;stroke:#000080;stroke-width:1.5;" x="353.991387" xlink:href="#m4a9e4349ab" y="76.097908"/>
     <use style="fill:none;stroke:#000080;stroke-width:1.5;" x="358.8" xlink:href="#m4a9e4349ab" y="76.097908"/>
    </g>
   </g>
   <g id="line2d_26"/>
   <g id="line2d_27">
    <path clip-path="url(#p380055282a)" d="M 273.690877 95.212923 
" style="fill:none;stroke:#000080;stroke-linecap:square;stroke-width:1.5;"/>
    <defs>
     <path d="M -12 12 
L 12 -12 
M -12 -12 
L 12 12 
" id="mbfcf44e156" style="stroke:#000080;stroke-width:3;"/>
    </defs>
    <g clip-path="url(#p380055282a)">
     <use style="fill:#000080;stroke:#000080;stroke-width:3;" x="273.690877" xlink:href="#mbfcf44e156" y="95.212923"/>
    </g>
   </g>
   <g id="line2d_28">
    <defs>
     <path d="M 0 1.5 
C 0.397805 1.5 0.77937 1.341951 1.06066 1.06066 
C 1.341951 0.77937 1.5 0.397805 1.5 0 
C 1.5 -0.397805 1.341951 -0.77937 1.06066 -1.06066 
C 0.77937 -1.341951 0.397805 -1.5 0 -1.5 
C -0.397805 -1.5 -0.77937 -1.341951 -1.06066 -1.06066 
C -1.341951 -0.77937 -1.5 -0.397805 -1.5 0 
C -1.5 0.397805 -1.341951 0.77937 -1.06066 1.06066 
C -0.77937 1.341951 -0.397805 1.5 0 1.5 
z
" id="me2bbf10dbb" style="stroke:#ff00ff;"/>
    </defs>
    <g>
     <use style="fill:#ff00ff;stroke:#ff00ff;" x="351.602538" xlink:href="#me2bbf10dbb" y="189.754752"/>
     <use style="fill:#ff00ff;stroke:#ff00ff;" x="351.602538" xlink:href="#me2bbf10dbb" y="189.754752"/>
    </g>
   </g>
   <g id="line2d_29">
    <path d="M 230.062097 298.245375 
L 230.062097 297.212131 
L 230.062097 297.212131 
L 230.062097 297.212131 
L 230.107015 297.212131 
L 230.107015 296.178887 
L 230.368741 296.178887 
L 230.389769 295.145643 
L 230.514484 295.145643 
L 230.548336 293.079155 
L 231.094824 293.079155 
L 231.20537 291.529289 
L 231.489941 291.529289 
L 231.590351 290.496045 
L 231.646674 290.496045 
L 231.754415 289.462801 
L 231.882484 289.462801 
L 231.977262 288.429557 
L 232.260103 288.429557 
L 232.316371 286.363069 
L 232.681182 286.363069 
L 232.681182 285.846447 
L 233.8524 285.846447 
L 233.8524 284.813203 
L 234.29935 284.813203 
L 234.306748 283.779959 
L 234.688488 283.779959 
L 234.760927 281.713471 
L 234.846603 281.713471 
L 234.846603 281.196849 
L 235.20078 281.196849 
L 235.20078 280.163604 
L 235.674917 280.163604 
L 235.674917 279.646982 
L 235.811855 279.646982 
L 235.811855 279.13036 
L 235.964352 279.13036 
L 235.964352 278.613738 
L 236.494321 278.613738 
L 236.494321 278.097116 
L 237.092463 278.097116 
L 237.092463 277.580494 
L 237.346714 277.580494 
L 237.346714 277.063872 
L 237.608751 277.063872 
L 237.608751 276.030628 
L 237.792181 276.030628 
L 237.867157 274.997384 
L 238.028497 274.997384 
L 238.12992 272.930896 
L 238.15746 272.930896 
L 238.197547 271.38103 
L 238.303706 271.38103 
L 238.303706 270.347786 
L 239.439379 270.347786 
L 239.439379 268.79792 
L 240.373491 268.79792 
L 240.445463 266.731432 
L 240.494492 266.731432 
L 240.605416 265.698188 
L 241.990718 265.698188 
L 241.990718 265.181566 
L 242.655414 265.181566 
L 242.762306 263.6317 
L 242.831821 263.6317 
L 242.831821 262.598456 
L 243.525966 262.598456 
L 243.525966 262.081834 
L 243.921077 262.081834 
L 243.921077 261.565212 
L 244.672591 261.565212 
L 244.672591 260.531968 
L 244.788684 260.531968 
L 244.788684 260.015346 
L 245.031174 260.015346 
L 245.122204 258.46548 
L 245.50057 258.46548 
L 245.609508 256.915614 
L 245.638902 256.915614 
L 245.696143 255.365748 
L 245.995457 255.365748 
L 246.033966 253.815882 
L 247.716504 253.815882 
L 247.808004 252.266016 
L 248.007064 252.266016 
L 248.007064 251.749394 
L 248.188414 251.749394 
L 248.188414 251.232772 
L 248.387658 251.232772 
L 248.387658 250.71615 
L 248.672896 250.71615 
L 248.672896 249.682906 
L 249.986535 249.682906 
L 249.986535 249.166284 
L 250.131362 249.166284 
L 250.131362 248.649662 
L 250.792888 248.649662 
L 250.792888 247.616418 
L 250.913351 247.616418 
L 250.913351 247.099796 
L 251.861644 247.099796 
L 251.861644 246.583173 
L 252.230608 246.583173 
L 252.331381 244.516685 
L 252.375969 244.516685 
L 252.375969 244.000063 
L 253.724029 244.000063 
L 253.724029 243.483441 
L 253.933181 243.483441 
L 254.010943 242.450197 
L 254.05703 242.450197 
L 254.05703 241.933575 
L 254.217841 241.933575 
L 254.217841 241.416953 
L 255.349234 241.416953 
L 255.349234 240.383709 
L 255.548793 240.383709 
L 255.548793 239.867087 
L 256.216058 239.867087 
L 256.216058 239.350465 
L 256.465059 239.350465 
L 256.523899 237.283977 
L 256.822277 237.283977 
L 256.822277 235.217489 
L 257.465899 235.217489 
L 257.465899 234.184245 
L 257.729964 234.184245 
L 257.750275 233.151001 
L 258.340023 233.151001 
L 258.411893 231.601135 
L 258.861567 231.601135 
L 258.879601 229.018025 
L 259.106044 229.018025 
L 259.14007 227.984781 
L 259.341803 227.984781 
L 259.341803 226.434915 
L 259.822412 226.434915 
L 259.822412 225.918293 
L 259.96782 225.918293 
L 259.96782 225.401671 
L 260.567542 225.401671 
L 260.567542 224.368427 
L 262.812357 224.368427 
L 262.8272 222.818561 
L 263.339195 222.818561 
L 263.339195 220.752073 
L 263.807898 220.752073 
L 263.807898 220.235451 
L 264.683994 220.235451 
L 264.720056 219.202207 
L 264.806849 219.202207 
L 264.806849 218.685585 
L 264.99158 218.685585 
L 264.99158 218.168963 
L 265.600462 218.168963 
L 265.600462 217.652341 
L 266.161423 217.652341 
L 266.161423 217.135719 
L 266.405036 217.135719 
L 266.413671 215.585853 
L 266.986597 215.585853 
L 266.986597 215.069231 
L 267.454194 215.069231 
L 267.454194 214.552609 
L 268.214041 214.552609 
L 268.214041 214.035987 
L 268.919468 214.035987 
L 268.980329 211.969498 
L 269.365572 211.969498 
L 269.365572 210.936254 
L 269.845139 210.936254 
L 269.945887 209.386388 
L 269.975746 209.386388 
L 269.975746 208.869766 
L 270.973977 208.869766 
L 270.973977 208.353144 
L 272.049831 208.353144 
L 272.049831 207.3199 
L 272.37262 207.3199 
L 272.408394 205.770034 
L 273.310103 205.770034 
L 273.401993 204.73679 
L 280.335745 204.73679 
L 280.335745 204.220168 
L 281.103218 204.220168 
L 281.103218 203.703546 
L 281.559223 203.703546 
L 281.559223 203.186924 
L 281.694127 203.186924 
L 281.694127 202.670302 
L 281.880606 202.670302 
L 281.880606 202.15368 
L 282.043319 202.15368 
L 282.043319 201.637058 
L 283.16601 201.637058 
L 283.16601 201.120436 
L 283.336911 201.120436 
L 283.357847 200.087192 
L 283.580481 200.087192 
L 283.580481 199.57057 
L 284.246877 199.57057 
L 284.246877 199.053948 
L 284.540626 199.053948 
L 284.540626 198.537326 
L 285.010276 198.537326 
L 285.010276 198.020704 
L 290.164495 198.020704 
L 290.164495 197.504082 
L 292.052944 197.504082 
L 292.052944 196.98746 
L 295.748459 196.98746 
L 295.748459 196.470838 
L 296.291877 196.470838 
L 296.291877 195.954216 
L 296.466246 195.954216 
L 296.466246 195.437594 
L 296.889449 195.437594 
L 296.981369 194.40435 
L 308.247529 194.40435 
L 308.247529 193.887728 
L 309.617445 193.887728 
L 309.617445 193.371106 
L 310.969571 193.371106 
L 310.969571 192.854484 
L 316.660804 192.854484 
L 316.660804 192.337862 
L 327.866151 192.337862 
L 327.866151 191.82124 
L 335.389601 191.82124 
L 335.389601 191.304618 
L 338.812681 191.304618 
L 338.812681 190.787996 
L 340.789659 190.787996 
L 340.789659 190.271374 
L 351.602538 190.271374 
L 351.602538 189.754752 
L 358.8 189.754752 
L 358.8 189.754752 
" style="fill:none;stroke:#ff00ff;stroke-linecap:square;stroke-width:1.5;"/>
   </g>
   <g id="line2d_30">
    <defs>
     <path d="M -0 8.485281 
L 5.091169 0 
L 0 -8.485281 
L -5.091169 -0 
z
" id="mffce15f467" style="stroke:#ff00ff;stroke-linejoin:miter;stroke-width:1.5;"/>
    </defs>
    <g>
     <use style="fill:none;stroke:#ff00ff;stroke-linejoin:miter;stroke-width:1.5;" x="249.986535" xlink:href="#mffce15f467" y="249.166284"/>
     <use style="fill:none;stroke:#ff00ff;stroke-linejoin:miter;stroke-width:1.5;" x="310.969571" xlink:href="#mffce15f467" y="192.854484"/>
     <use style="fill:none;stroke:#ff00ff;stroke-linejoin:miter;stroke-width:1.5;" x="351.602538" xlink:href="#mffce15f467" y="189.754752"/>
     <use style="fill:none;stroke:#ff00ff;stroke-linejoin:miter;stroke-width:1.5;" x="358.8" xlink:href="#mffce15f467" y="189.754752"/>
    </g>
   </g>
   <g id="line2d_31"/>
   <g id="line2d_32">
    <path clip-path="url(#p380055282a)" d="M 272.12294 207.3199 
" style="fill:none;stroke:#ff00ff;stroke-linecap:square;stroke-width:1.5;"/>
    <defs>
     <path d="M -12 12 
L 12 -12 
M -12 -12 
L 12 12 
" id="mf6fe983b9b" style="stroke:#ff00ff;stroke-width:3;"/>
    </defs>
    <g clip-path="url(#p380055282a)">
     <use style="fill:#ff00ff;stroke:#ff00ff;stroke-width:3;" x="272.12294" xlink:href="#mf6fe983b9b" y="207.3199"/>
    </g>
   </g>
   <g id="line2d_33">
    <defs>
     <path d="M 0 1.5 
C 0.397805 1.5 0.77937 1.341951 1.06066 1.06066 
C 1.341951 0.77937 1.5 0.397805 1.5 0 
C 1.5 -0.397805 1.341951 -0.77937 1.06066 -1.06066 
C 0.77937 -1.341951 0.397805 -1.5 0 -1.5 
C -0.397805 -1.5 -0.77937 -1.341951 -1.06066 -1.06066 
C -1.341951 -0.77937 -1.5 -0.397805 -1.5 0 
C -1.5 0.397805 -1.341951 0.77937 -1.06066 1.06066 
C -0.77937 1.341951 -0.397805 1.5 0 1.5 
z
" id="ma2f0953e53" style="stroke:#ffa500;"/>
    </defs>
    <g>
     <use style="fill:#ffa500;stroke:#ffa500;" x="344.571682" xlink:href="#ma2f0953e53" y="153.591211"/>
     <use style="fill:#ffa500;stroke:#ffa500;" x="344.571682" xlink:href="#ma2f0953e53" y="153.591211"/>
    </g>
   </g>
   <g id="line2d_34">
    <path d="M 167.870857 298.245375 
L 167.870857 297.728753 
L 169.864415 297.728753 
L 169.864415 296.695509 
L 170.072792 296.695509 
L 170.072792 296.178887 
L 170.553119 296.178887 
L 170.583344 295.145643 
L 170.91249 295.145643 
L 170.91249 294.629021 
L 171.089501 294.629021 
L 171.089501 294.112399 
L 172.890691 294.112399 
L 172.984811 292.045911 
L 175.275171 292.045911 
L 175.275171 291.529289 
L 175.801527 291.529289 
L 175.801527 291.012667 
L 176.300641 291.012667 
L 176.300641 289.979423 
L 176.617027 289.979423 
L 176.617027 288.946179 
L 177.049828 288.946179 
L 177.049828 288.429557 
L 178.058285 288.429557 
L 178.058285 287.912935 
L 178.393014 287.912935 
L 178.393014 287.396313 
L 179.463508 287.396313 
L 179.463508 286.363069 
L 180.232642 286.363069 
L 180.232642 285.329825 
L 180.672994 285.329825 
L 180.672994 284.296581 
L 191.507661 284.296581 
L 191.507661 283.779959 
L 199.629217 283.779959 
L 199.629217 283.263337 
L 205.375608 283.263337 
L 205.375608 282.746715 
L 213.478868 282.746715 
L 213.478868 281.713471 
L 217.330813 281.713471 
L 217.330813 281.196849 
L 217.645088 281.196849 
L 217.645088 280.680226 
L 217.766825 280.680226 
L 217.766825 280.163604 
L 218.160411 280.163604 
L 218.160411 279.646982 
L 218.40868 279.646982 
L 218.40868 278.613738 
L 218.572068 278.613738 
L 218.572068 277.580494 
L 218.765684 277.580494 
L 218.866324 276.030628 
L 219.081045 276.030628 
L 219.165773 274.997384 
L 219.271891 274.997384 
L 219.337979 272.930896 
L 219.411245 272.930896 
L 219.497902 270.864408 
L 219.56554 270.864408 
L 219.592568 269.314542 
L 219.849544 269.314542 
L 219.849544 268.79792 
L 221.298488 268.79792 
L 221.298488 268.281298 
L 221.680653 268.281298 
L 221.680653 267.764676 
L 222.126392 267.764676 
L 222.126392 266.731432 
L 225.551402 266.731432 
L 225.551402 266.21481 
L 227.408004 266.21481 
L 227.513995 264.664944 
L 229.559781 264.664944 
L 229.559781 264.148322 
L 230.451294 264.148322 
L 230.451294 263.6317 
L 230.704581 263.6317 
L 230.704581 262.598456 
L 230.92857 262.598456 
L 231.004591 261.04859 
L 231.092894 261.04859 
L 231.106737 260.015346 
L 231.230507 260.015346 
L 231.318151 257.948858 
L 231.608447 257.948858 
L 231.608447 257.432236 
L 231.826574 257.432236 
L 231.918721 256.398992 
L 231.948502 256.398992 
L 231.948502 255.88237 
L 232.523456 255.88237 
L 232.523456 254.849126 
L 233.180243 254.849126 
L 233.180243 254.332504 
L 233.301532 254.332504 
L 233.301532 253.29926 
L 233.75291 253.29926 
L 233.75291 252.782638 
L 235.751347 252.782638 
L 235.771277 251.232772 
L 236.290208 251.232772 
L 236.290208 250.199528 
L 236.444078 250.199528 
L 236.444078 249.682906 
L 236.902817 249.682906 
L 236.902817 249.166284 
L 237.188595 249.166284 
L 237.188595 248.649662 
L 237.617972 248.649662 
L 237.617972 248.13304 
L 237.982085 248.13304 
L 238.087072 246.583173 
L 238.190148 246.583173 
L 238.190148 245.549929 
L 238.536763 245.549929 
L 238.536763 245.033307 
L 239.02602 245.033307 
L 239.02602 244.516685 
L 239.191416 244.516685 
L 239.191416 244.000063 
L 240.598216 244.000063 
L 240.598216 243.483441 
L 241.118683 243.483441 
L 241.144442 241.933575 
L 241.430396 241.933575 
L 241.453739 240.383709 
L 241.731382 240.383709 
L 241.731382 239.867087 
L 242.530233 239.867087 
L 242.530233 239.350465 
L 242.778368 239.350465 
L 242.778368 238.317221 
L 243.003939 238.317221 
L 243.003939 237.800599 
L 243.23113 237.800599 
L 243.23113 237.283977 
L 243.573902 237.283977 
L 243.628802 236.250733 
L 243.8479 236.250733 
L 243.868013 234.700867 
L 244.085476 234.700867 
L 244.085476 233.667623 
L 244.539649 233.667623 
L 244.572723 231.601135 
L 244.990074 231.601135 
L 244.990074 231.084513 
L 246.121362 231.084513 
L 246.121362 230.567891 
L 246.448237 230.567891 
L 246.483146 229.534647 
L 246.787076 229.534647 
L 246.787076 228.501403 
L 247.464148 228.501403 
L 247.464148 227.984781 
L 248.551794 227.984781 
L 248.551794 227.468159 
L 249.373621 227.468159 
L 249.373621 226.951537 
L 249.953463 226.951537 
L 249.953463 225.401671 
L 250.153446 225.401671 
L 250.153446 224.885049 
L 250.612198 224.885049 
L 250.612198 224.368427 
L 251.279373 224.368427 
L 251.367073 221.785317 
L 251.485009 221.785317 
L 251.593776 219.202207 
L 251.837202 219.202207 
L 251.93742 218.168963 
L 252.373485 218.168963 
L 252.373485 217.135719 
L 253.197809 217.135719 
L 253.197809 216.619097 
L 253.476175 216.619097 
L 253.527251 215.585853 
L 253.599872 215.585853 
L 253.599872 215.069231 
L 253.711326 215.069231 
L 253.715519 214.035987 
L 254.047829 214.035987 
L 254.142976 211.969498 
L 254.342427 211.969498 
L 254.342427 211.452876 
L 254.671059 211.452876 
L 254.671059 210.936254 
L 255.183275 210.936254 
L 255.183275 210.419632 
L 255.35814 210.419632 
L 255.35814 209.90301 
L 255.62879 209.90301 
L 255.62879 209.386388 
L 255.796806 209.386388 
L 255.796806 208.869766 
L 256.088563 208.869766 
L 256.088563 208.353144 
L 256.632659 208.353144 
L 256.632659 207.836522 
L 256.811327 207.836522 
L 256.811327 206.803278 
L 257.652519 206.803278 
L 257.652519 206.286656 
L 258.013899 206.286656 
L 258.013899 205.770034 
L 258.383796 205.770034 
L 258.383796 205.253412 
L 258.575704 205.253412 
L 258.575704 204.220168 
L 258.860151 204.220168 
L 258.869531 203.186924 
L 259.593941 203.186924 
L 259.630384 202.15368 
L 260.450787 202.15368 
L 260.481406 200.603814 
L 260.738881 200.603814 
L 260.738881 200.087192 
L 260.963158 200.087192 
L 260.963158 199.57057 
L 261.524117 199.57057 
L 261.524117 199.053948 
L 261.692116 199.053948 
L 261.692116 198.020704 
L 262.119062 198.020704 
L 262.213351 195.954216 
L 262.534422 195.954216 
L 262.534422 194.920972 
L 263.044314 194.920972 
L 263.131099 193.371106 
L 263.210938 193.371106 
L 263.210938 192.854484 
L 263.988233 192.854484 
L 264.084039 190.787996 
L 264.317616 190.787996 
L 264.317616 189.754752 
L 264.730356 189.754752 
L 264.730356 188.721508 
L 264.883975 188.721508 
L 264.883975 188.204886 
L 265.926597 188.204886 
L 265.944168 185.621776 
L 266.754585 185.621776 
L 266.754585 185.105154 
L 266.868776 185.105154 
L 266.868776 184.588532 
L 267.126203 184.588532 
L 267.147524 183.555288 
L 267.512988 183.555288 
L 267.512988 182.522044 
L 267.686184 182.522044 
L 267.686184 182.005422 
L 267.960016 182.005422 
L 267.960016 181.4888 
L 268.280932 181.4888 
L 268.280932 180.972178 
L 269.057114 180.972178 
L 269.057114 179.938934 
L 269.318284 179.938934 
L 269.318284 178.90569 
L 269.804399 178.90569 
L 269.912139 176.839201 
L 270.033876 176.839201 
L 270.033876 176.322579 
L 270.977497 176.322579 
L 270.977497 175.805957 
L 271.425454 175.805957 
L 271.425454 175.289335 
L 272.509567 175.289335 
L 272.509567 174.772713 
L 272.765062 174.772713 
L 272.765062 174.256091 
L 273.328553 174.256091 
L 273.328553 172.706225 
L 273.654081 172.706225 
L 273.654081 171.156359 
L 274.591563 171.156359 
L 274.606072 169.606493 
L 275.03121 169.606493 
L 275.03121 169.089871 
L 275.164429 169.089871 
L 275.17438 168.056627 
L 275.397061 168.056627 
L 275.397061 167.540005 
L 284.144745 167.540005 
L 284.144745 167.023383 
L 285.75112 167.023383 
L 285.75112 166.506761 
L 285.862288 166.506761 
L 285.862288 165.990139 
L 291.814851 165.990139 
L 291.814851 165.473517 
L 293.798164 165.473517 
L 293.798164 164.956895 
L 294.069972 164.956895 
L 294.069972 164.440273 
L 294.476547 164.440273 
L 294.476547 163.923651 
L 298.66153 163.923651 
L 298.66153 163.407029 
L 299.667566 163.407029 
L 299.667566 162.890407 
L 302.810525 162.890407 
L 302.810525 162.373785 
L 302.970297 162.373785 
L 302.975869 161.340541 
L 303.261855 161.340541 
L 303.261855 160.823919 
L 303.469051 160.823919 
L 303.469051 160.307297 
L 303.952766 160.307297 
L 303.952766 159.790675 
L 304.902942 159.790675 
L 304.902942 159.274053 
L 305.109311 159.274053 
L 305.109311 158.757431 
L 309.349799 158.757431 
L 309.349799 158.240809 
L 309.56723 158.240809 
L 309.56723 157.724187 
L 310.161275 157.724187 
L 310.161275 157.207565 
L 310.830296 157.207565 
L 310.830296 156.690943 
L 313.220374 156.690943 
L 313.220374 156.174321 
L 321.244046 156.174321 
L 321.244046 155.657699 
L 322.600023 155.657699 
L 322.600023 155.141077 
L 328.248477 155.141077 
L 328.248477 154.624455 
L 337.711101 154.624455 
L 337.711101 154.107833 
L 344.571682 154.107833 
L 344.571682 153.591211 
L 358.8 153.591211 
L 358.8 153.591211 
" style="fill:none;stroke:#ffa500;stroke-linecap:square;stroke-width:1.5;"/>
   </g>
   <g id="line2d_35">
    <defs>
     <path d="M 0 -6 
L -1.347084 -1.854102 
L -5.706339 -1.854102 
L -2.179628 0.708204 
L -3.526712 4.854102 
L -0 2.291796 
L 3.526712 4.854102 
L 2.179628 0.708204 
L 5.706339 -1.854102 
L 1.347084 -1.854102 
z
" id="mbaa25df938" style="stroke:#ffa500;stroke-linejoin:bevel;stroke-width:1.5;"/>
    </defs>
    <g>
     <use style="fill:none;stroke:#ffa500;stroke-linejoin:bevel;stroke-width:1.5;" x="243.8479" xlink:href="#mbaa25df938" y="235.734111"/>
     <use style="fill:none;stroke:#ffa500;stroke-linejoin:bevel;stroke-width:1.5;" x="310.830296" xlink:href="#mbaa25df938" y="156.690943"/>
     <use style="fill:none;stroke:#ffa500;stroke-linejoin:bevel;stroke-width:1.5;" x="344.571682" xlink:href="#mbaa25df938" y="153.591211"/>
     <use style="fill:none;stroke:#ffa500;stroke-linejoin:bevel;stroke-width:1.5;" x="358.8" xlink:href="#mbaa25df938" y="153.591211"/>
    </g>
   </g>
   <g id="line2d_36"/>
   <g id="line2d_37">
    <path clip-path="url(#p380055282a)" d="M 274.466013 171.156359 
" style="fill:none;stroke:#ffa500;stroke-linecap:square;stroke-width:1.5;"/>
    <defs>
     <path d="M -12 12 
L 12 -12 
M -12 -12 
L 12 12 
" id="m537b393e0c" style="stroke:#ffa500;stroke-width:3;"/>
    </defs>
    <g clip-path="url(#p380055282a)">
     <use style="fill:#ffa500;stroke:#ffa500;stroke-width:3;" x="274.466013" xlink:href="#m537b393e0c" y="171.156359"/>
    </g>
   </g>
   <g id="line2d_38">
    <defs>
     <path d="M 0 1.5 
C 0.397805 1.5 0.77937 1.341951 1.06066 1.06066 
C 1.341951 0.77937 1.5 0.397805 1.5 0 
C 1.5 -0.397805 1.341951 -0.77937 1.06066 -1.06066 
C 0.77937 -1.341951 0.397805 -1.5 0 -1.5 
C -0.397805 -1.5 -0.77937 -1.341951 -1.06066 -1.06066 
C -1.341951 -0.77937 -1.5 -0.397805 -1.5 0 
C -1.5 0.397805 -1.341951 0.77937 -1.06066 1.06066 
C -0.77937 1.341951 -0.397805 1.5 0 1.5 
z
" id="m1b4ba916ed" style="stroke:#6495ed;"/>
    </defs>
    <g>
     <use style="fill:#6495ed;stroke:#6495ed;" x="340.883346" xlink:href="#m1b4ba916ed" y="158.757431"/>
     <use style="fill:#6495ed;stroke:#6495ed;" x="340.883346" xlink:href="#m1b4ba916ed" y="158.757431"/>
    </g>
   </g>
   <g id="line2d_39">
    <path d="M 172.629274 298.245375 
L 172.629274 297.212131 
L 172.970137 297.212131 
L 172.970137 296.695509 
L 173.709177 296.695509 
L 173.709177 296.178887 
L 173.896925 296.178887 
L 173.896925 294.629021 
L 174.255679 294.629021 
L 174.255679 294.112399 
L 175.106639 294.112399 
L 175.189807 293.079155 
L 176.067645 293.079155 
L 176.067645 292.562533 
L 177.678858 292.562533 
L 177.678858 290.496045 
L 177.827123 290.496045 
L 177.827123 289.462801 
L 179.3632 289.462801 
L 179.3632 288.946179 
L 180.988783 288.946179 
L 180.988783 287.912935 
L 204.294604 287.912935 
L 204.294604 286.879691 
L 205.357885 286.879691 
L 205.357885 285.846447 
L 205.969344 285.846447 
L 205.969344 285.329825 
L 217.595628 285.329825 
L 217.595628 284.296581 
L 218.026954 284.296581 
L 218.026954 283.779959 
L 218.359903 283.779959 
L 218.425985 282.230093 
L 218.619129 282.230093 
L 218.660604 279.646982 
L 218.835695 279.646982 
L 218.835695 279.13036 
L 219.09549 279.13036 
L 219.202467 277.580494 
L 219.282447 277.580494 
L 219.322632 276.030628 
L 219.637666 276.030628 
L 219.704779 274.480762 
L 221.324195 274.480762 
L 221.324195 273.447518 
L 222.625575 273.447518 
L 222.625575 272.930896 
L 224.761994 272.930896 
L 224.767332 271.897652 
L 226.387495 271.897652 
L 226.387495 271.38103 
L 228.325321 271.38103 
L 228.325321 270.864408 
L 229.26674 270.864408 
L 229.26674 269.831164 
L 230.252521 269.831164 
L 230.252521 269.314542 
L 230.430102 269.314542 
L 230.430102 268.79792 
L 230.564245 268.79792 
L 230.564245 267.764676 
L 230.792182 267.764676 
L 230.834844 266.731432 
L 231.091078 266.731432 
L 231.091078 266.21481 
L 231.310415 266.21481 
L 231.310415 265.698188 
L 231.706111 265.698188 
L 231.706111 264.148322 
L 232.831762 264.148322 
L 232.831762 263.6317 
L 233.019952 263.6317 
L 233.095813 261.04859 
L 235.648811 261.04859 
L 235.648811 260.015346 
L 236.242706 260.015346 
L 236.242706 259.498724 
L 236.39091 259.498724 
L 236.39091 258.982102 
L 237.1359 258.982102 
L 237.1359 258.46548 
L 237.414417 258.46548 
L 237.414417 257.948858 
L 237.910846 257.948858 
L 237.928818 256.915614 
L 238.036118 256.915614 
L 238.036118 255.88237 
L 238.741165 255.88237 
L 238.741165 255.365748 
L 239.256228 255.365748 
L 239.256228 254.849126 
L 239.623277 254.849126 
L 239.623277 254.332504 
L 240.034213 254.332504 
L 240.034213 253.815882 
L 240.357412 253.815882 
L 240.449229 252.266016 
L 240.843581 252.266016 
L 240.843581 251.232772 
L 241.153042 251.232772 
L 241.153042 250.71615 
L 242.610012 250.71615 
L 242.610012 249.682906 
L 243.192186 249.682906 
L 243.203025 247.099796 
L 243.325486 247.099796 
L 243.325486 245.549929 
L 243.680953 245.549929 
L 243.680953 244.516685 
L 244.154137 244.516685 
L 244.154137 243.483441 
L 244.749982 243.483441 
L 244.749982 242.966819 
L 245.46587 242.966819 
L 245.46587 242.450197 
L 245.976763 242.450197 
L 245.976763 241.933575 
L 246.256591 241.933575 
L 246.310872 240.900331 
L 246.462603 240.900331 
L 246.521385 238.833843 
L 247.023667 238.833843 
L 247.073954 237.283977 
L 247.358719 237.283977 
L 247.358719 236.767355 
L 247.607874 236.767355 
L 247.607874 235.734111 
L 248.611426 235.734111 
L 248.706559 234.184245 
L 248.996629 234.184245 
L 249.050808 233.151001 
L 249.542408 233.151001 
L 249.54738 232.117757 
L 249.892446 232.117757 
L 249.914708 230.567891 
L 250.011949 230.567891 
L 250.011949 230.051269 
L 250.352646 230.051269 
L 250.428277 228.501403 
L 250.824971 228.501403 
L 250.824971 227.984781 
L 251.609878 227.984781 
L 251.609878 227.468159 
L 252.338503 227.468159 
L 252.338503 226.951537 
L 252.664481 226.951537 
L 252.664481 226.434915 
L 252.835337 226.434915 
L 252.907103 224.885049 
L 252.970409 224.885049 
L 252.970409 224.368427 
L 253.353837 224.368427 
L 253.434676 223.335183 
L 253.845106 223.335183 
L 253.897611 222.301939 
L 254.635288 222.301939 
L 254.703641 219.718829 
L 254.983773 219.718829 
L 254.983773 219.202207 
L 255.236876 219.202207 
L 255.236876 218.168963 
L 255.449045 218.168963 
L 255.51248 217.135719 
L 255.689441 217.135719 
L 255.765646 215.585853 
L 256.595816 215.585853 
L 256.595816 214.552609 
L 257.542657 214.552609 
L 257.61075 213.519365 
L 257.851866 213.519365 
L 257.942302 211.452876 
L 258.050696 211.452876 
L 258.050696 210.936254 
L 258.253197 210.936254 
L 258.253197 210.419632 
L 258.372185 210.419632 
L 258.372185 209.90301 
L 258.680843 209.90301 
L 258.680843 208.353144 
L 259.70694 208.353144 
L 259.70694 207.836522 
L 259.879938 207.836522 
L 259.879938 207.3199 
L 260.036612 207.3199 
L 260.036612 206.286656 
L 260.313807 206.286656 
L 260.313807 205.770034 
L 261.068121 205.770034 
L 261.068121 205.253412 
L 261.433154 205.253412 
L 261.482703 203.186924 
L 262.013655 203.186924 
L 262.013655 202.670302 
L 262.295864 202.670302 
L 262.295864 202.15368 
L 262.699886 202.15368 
L 262.699886 201.637058 
L 262.998726 201.637058 
L 262.998726 201.120436 
L 263.20981 201.120436 
L 263.20981 200.603814 
L 263.386476 200.603814 
L 263.386476 200.087192 
L 263.962497 200.087192 
L 263.990286 198.537326 
L 264.758064 198.537326 
L 264.758064 198.020704 
L 265.732735 198.020704 
L 265.789081 196.98746 
L 266.405901 196.98746 
L 266.405901 195.954216 
L 266.641989 195.954216 
L 266.641989 194.920972 
L 267.098926 194.920972 
L 267.098926 194.40435 
L 267.466116 194.40435 
L 267.466116 193.887728 
L 267.728451 193.887728 
L 267.747023 191.82124 
L 268.033565 191.82124 
L 268.033565 190.787996 
L 268.396513 190.787996 
L 268.435787 188.721508 
L 268.513224 188.721508 
L 268.513224 188.204886 
L 269.666397 188.204886 
L 269.690039 186.65502 
L 270.085904 186.65502 
L 270.085904 185.621776 
L 270.452933 185.621776 
L 270.452933 185.105154 
L 270.770817 185.105154 
L 270.770817 184.588532 
L 271.120832 184.588532 
L 271.120832 183.555288 
L 271.537254 183.555288 
L 271.626726 181.4888 
L 271.91018 181.4888 
L 271.91018 180.972178 
L 272.037152 180.972178 
L 272.047973 179.938934 
L 272.299262 179.938934 
L 272.407754 178.90569 
L 272.547177 178.90569 
L 272.547177 177.872445 
L 273.599171 177.872445 
L 273.599171 177.355823 
L 274.020687 177.355823 
L 274.096835 175.805957 
L 274.686225 175.805957 
L 274.686225 175.289335 
L 275.12575 175.289335 
L 275.12575 174.772713 
L 284.242924 174.772713 
L 284.25649 173.739469 
L 285.769709 173.739469 
L 285.769709 173.222847 
L 285.936777 173.222847 
L 285.936777 172.706225 
L 286.811984 172.706225 
L 286.811984 172.189603 
L 293.005836 172.189603 
L 293.064061 171.156359 
L 293.956753 171.156359 
L 293.956753 170.639737 
L 294.129988 170.639737 
L 294.129988 170.123115 
L 294.419451 170.123115 
L 294.419451 169.606493 
L 298.684625 169.606493 
L 298.684625 169.089871 
L 302.215726 169.089871 
L 302.297585 167.540005 
L 302.751389 167.540005 
L 302.751389 167.023383 
L 308.393025 167.023383 
L 308.393025 166.506761 
L 310.401387 166.506761 
L 310.401387 165.990139 
L 310.972659 165.990139 
L 310.972659 165.473517 
L 312.150501 165.473517 
L 312.150501 164.956895 
L 312.483124 164.956895 
L 312.483124 164.440273 
L 313.01244 164.440273 
L 313.01244 163.923651 
L 316.256786 163.923651 
L 316.256786 163.407029 
L 316.941966 163.407029 
L 316.941966 162.890407 
L 317.180784 162.890407 
L 317.180784 162.373785 
L 321.881979 162.373785 
L 321.881979 161.857163 
L 323.572371 161.857163 
L 323.572371 161.340541 
L 324.836494 161.340541 
L 324.836494 160.823919 
L 328.551849 160.823919 
L 328.551849 160.307297 
L 331.757133 160.307297 
L 331.757133 159.790675 
L 338.889197 159.790675 
L 338.889197 159.274053 
L 340.883346 159.274053 
L 340.883346 158.757431 
L 358.8 158.757431 
L 358.8 158.757431 
" style="fill:none;stroke:#6495ed;stroke-linecap:square;stroke-width:1.5;"/>
   </g>
   <g id="line2d_40">
    <defs>
     <path d="M -0 6 
L 6 -6 
L -6 -6 
z
" id="m262ed0c2da" style="stroke:#6495ed;stroke-linejoin:miter;stroke-width:1.5;"/>
    </defs>
    <g>
     <use style="fill:none;stroke:#6495ed;stroke-linejoin:miter;stroke-width:1.5;" x="255.689441" xlink:href="#m262ed0c2da" y="216.619097"/>
     <use style="fill:none;stroke:#6495ed;stroke-linejoin:miter;stroke-width:1.5;" x="312.483124" xlink:href="#m262ed0c2da" y="164.956895"/>
     <use style="fill:none;stroke:#6495ed;stroke-linejoin:miter;stroke-width:1.5;" x="340.883346" xlink:href="#m262ed0c2da" y="158.757431"/>
     <use style="fill:none;stroke:#6495ed;stroke-linejoin:miter;stroke-width:1.5;" x="358.8" xlink:href="#m262ed0c2da" y="158.757431"/>
    </g>
   </g>
   <g id="line2d_41"/>
   <g id="line2d_42">
    <path clip-path="url(#p380055282a)" d="M 274.034559 176.839201 
" style="fill:none;stroke:#6495ed;stroke-linecap:square;stroke-width:1.5;"/>
    <defs>
     <path d="M -12 12 
L 12 -12 
M -12 -12 
L 12 12 
" id="m6b9bf00cf7" style="stroke:#6495ed;stroke-width:3;"/>
    </defs>
    <g clip-path="url(#p380055282a)">
     <use style="fill:#6495ed;stroke:#6495ed;stroke-width:3;" x="274.034559" xlink:href="#m6b9bf00cf7" y="176.839201"/>
    </g>
   </g>
   <g id="line2d_43">
    <defs>
     <path d="M 0 1.5 
C 0.397805 1.5 0.77937 1.341951 1.06066 1.06066 
C 1.341951 0.77937 1.5 0.397805 1.5 0 
C 1.5 -0.397805 1.341951 -0.77937 1.06066 -1.06066 
C 0.77937 -1.341951 0.397805 -1.5 0 -1.5 
C -0.397805 -1.5 -0.77937 -1.341951 -1.06066 -1.06066 
C -1.341951 -0.77937 -1.5 -0.397805 -1.5 0 
C -1.5 0.397805 -1.341951 0.77937 -1.06066 1.06066 
C -0.77937 1.341951 -0.397805 1.5 0 1.5 
z
" id="m2103799fb9" style="stroke:#ff0000;"/>
    </defs>
    <g>
     <use style="fill:#ff0000;stroke:#ff0000;" x="219.348933" xlink:href="#m2103799fb9" y="34.768147"/>
     <use style="fill:#ff0000;stroke:#ff0000;" x="219.348933" xlink:href="#m2103799fb9" y="34.768147"/>
    </g>
   </g>
   <g id="line2d_44">
    <path d="M 152.206777 298.245375 
L 152.206777 297.212131 
L 153.674488 297.212131 
L 153.674488 296.695509 
L 154.436029 296.695509 
L 154.436029 296.178887 
L 155.567453 296.178887 
L 155.614045 295.145643 
L 156.171395 295.145643 
L 156.171395 294.112399 
L 158.361778 294.112399 
L 158.361778 293.079155 
L 160.378197 293.079155 
L 160.4375 291.529289 
L 162.022793 291.529289 
L 162.022793 291.012667 
L 162.551268 291.012667 
L 162.551268 290.496045 
L 162.910569 290.496045 
L 162.910569 289.462801 
L 163.069672 289.462801 
L 163.069672 288.946179 
L 163.343479 288.946179 
L 163.343479 287.912935 
L 165.214496 287.912935 
L 165.214496 287.396313 
L 165.964379 287.396313 
L 166.046751 285.846447 
L 167.173962 285.846447 
L 167.173962 285.329825 
L 167.710005 285.329825 
L 167.710005 284.813203 
L 167.937129 284.813203 
L 168.034144 283.263337 
L 169.303773 283.263337 
L 169.303773 282.746715 
L 171.219499 282.746715 
L 171.219499 282.230093 
L 171.616584 282.230093 
L 171.616584 281.196849 
L 171.86504 281.196849 
L 171.914943 280.163604 
L 173.188987 280.163604 
L 173.188987 279.646982 
L 173.450975 279.646982 
L 173.450975 278.097116 
L 173.757002 278.097116 
L 173.757002 277.580494 
L 174.975909 277.580494 
L 174.978533 276.54725 
L 175.104034 276.54725 
L 175.104034 276.030628 
L 175.85157 276.030628 
L 175.85157 274.997384 
L 176.593072 274.997384 
L 176.593072 274.480762 
L 177.038141 274.480762 
L 177.038141 273.447518 
L 177.642729 273.447518 
L 177.642729 272.930896 
L 177.954188 272.930896 
L 177.954188 271.897652 
L 178.084766 271.897652 
L 178.155191 270.347786 
L 178.286494 270.347786 
L 178.286494 269.314542 
L 178.727971 269.314542 
L 178.798029 267.764676 
L 179.096399 267.764676 
L 179.096399 267.248054 
L 179.303567 267.248054 
L 179.303567 266.731432 
L 179.984552 266.731432 
L 179.984552 266.21481 
L 181.495111 266.21481 
L 181.495111 265.698188 
L 191.217133 265.698188 
L 191.217133 264.148322 
L 191.970807 264.148322 
L 191.970807 262.598456 
L 192.274362 262.598456 
L 192.274362 262.081834 
L 192.634489 262.081834 
L 192.634489 261.565212 
L 193.874879 261.565212 
L 193.874879 260.531968 
L 198.69803 260.531968 
L 198.69803 260.015346 
L 199.089557 260.015346 
L 199.089557 259.498724 
L 199.389221 259.498724 
L 199.389221 258.46548 
L 199.563059 258.46548 
L 199.563059 256.398992 
L 199.821664 256.398992 
L 199.821664 254.849126 
L 200.22729 254.849126 
L 200.22729 254.332504 
L 200.451946 254.332504 
L 200.488486 252.782638 
L 200.575753 252.782638 
L 200.575753 251.749394 
L 205.222228 251.749394 
L 205.222228 251.232772 
L 205.356927 251.232772 
L 205.356927 250.71615 
L 208.463626 250.71615 
L 208.463626 250.199528 
L 208.786137 250.199528 
L 208.786137 249.682906 
L 209.016057 249.682906 
L 209.016057 249.166284 
L 209.260785 249.166284 
L 209.260785 248.649662 
L 209.390127 248.649662 
L 209.390127 247.099796 
L 209.905763 247.099796 
L 209.905763 246.583173 
L 212.73377 246.583173 
L 212.73377 246.066551 
L 215.551155 246.066551 
L 215.551155 245.549929 
L 217.331549 245.549929 
L 217.425702 243.483441 
L 217.532701 243.483441 
L 217.532701 242.966819 
L 217.74863 242.966819 
L 217.851813 241.933575 
L 217.933791 241.933575 
L 218.015158 227.984781 
L 218.057586 227.984781 
L 218.159474 220.235451 
L 218.184973 220.235451 
L 218.260086 190.271374 
L 218.313082 190.271374 
L 218.414912 149.974857 
L 218.432442 149.974857 
L 218.537722 145.325259 
L 218.552384 145.325259 
L 218.639651 100.895765 
L 218.7181 100.895765 
L 218.759799 63.69898 
L 218.844484 63.69898 
L 218.923611 62.149114 
L 219.042317 62.149114 
L 219.121906 47.167076 
L 219.348933 47.167076 
L 219.348933 34.768147 
L 358.8 34.768147 
L 358.8 34.768147 
" style="fill:none;stroke:#ff0000;stroke-linecap:square;stroke-width:1.5;"/>
   </g>
   <g id="line2d_45">
    <defs>
     <path d="M 0 -6 
L -5.196152 -3 
L -5.196152 3 
L -0 6 
L 5.196152 3 
L 5.196152 -3 
z
" id="m29edb7fef9" style="stroke:#ff0000;stroke-linejoin:miter;stroke-width:1.5;"/>
    </defs>
    <g>
     <use style="fill:none;stroke:#ff0000;stroke-linejoin:miter;stroke-width:1.5;" x="181.495111" xlink:href="#m29edb7fef9" y="266.21481"/>
     <use style="fill:none;stroke:#ff0000;stroke-linejoin:miter;stroke-width:1.5;" x="218.372167" xlink:href="#m29edb7fef9" y="158.240809"/>
     <use style="fill:none;stroke:#ff0000;stroke-linejoin:miter;stroke-width:1.5;" x="219.348933" xlink:href="#m29edb7fef9" y="47.167076"/>
     <use style="fill:none;stroke:#ff0000;stroke-linejoin:miter;stroke-width:1.5;" x="219.348933" xlink:href="#m29edb7fef9" y="34.768147"/>
     <use style="fill:none;stroke:#ff0000;stroke-linejoin:miter;stroke-width:1.5;" x="358.8" xlink:href="#m29edb7fef9" y="34.768147"/>
    </g>
   </g>
   <g id="line2d_46"/>
   <g id="line2d_47">
    <path d="M 358.8 189.754752 
L 390.48 292.97583 
" style="fill:none;stroke:#ff00ff;stroke-linecap:square;stroke-width:1.5;"/>
    <g>
     <use style="fill:none;stroke:#ff00ff;stroke-linejoin:miter;stroke-width:1.5;" x="358.8" xlink:href="#mffce15f467" y="189.754752"/>
     <use style="fill:none;stroke:#ff00ff;stroke-linejoin:miter;stroke-width:1.5;" x="390.48" xlink:href="#mffce15f467" y="292.97583"/>
    </g>
   </g>
   <g id="line2d_48">
    <path d="M 358.8 158.757431 
L 390.48 229.741296 
" style="fill:none;stroke:#6495ed;stroke-linecap:square;stroke-width:1.5;"/>
    <g>
     <use style="fill:none;stroke:#6495ed;stroke-linejoin:miter;stroke-width:1.5;" x="358.8" xlink:href="#m262ed0c2da" y="158.757431"/>
     <use style="fill:none;stroke:#6495ed;stroke-linejoin:miter;stroke-width:1.5;" x="390.48" xlink:href="#m262ed0c2da" y="229.741296"/>
    </g>
   </g>
   <g id="line2d_49">
    <path d="M 358.8 153.591211 
L 390.48 166.506761 
" style="fill:none;stroke:#ffa500;stroke-linecap:square;stroke-width:1.5;"/>
    <g>
     <use style="fill:none;stroke:#ffa500;stroke-linejoin:bevel;stroke-width:1.5;" x="358.8" xlink:href="#mbaa25df938" y="153.591211"/>
     <use style="fill:none;stroke:#ffa500;stroke-linejoin:bevel;stroke-width:1.5;" x="390.48" xlink:href="#mbaa25df938" y="166.506761"/>
    </g>
   </g>
   <g id="line2d_50">
    <path d="M 358.8 76.097908 
L 390.48 103.272226 
" style="fill:none;stroke:#000080;stroke-linecap:square;stroke-width:1.5;"/>
    <g>
     <use style="fill:none;stroke:#000080;stroke-width:1.5;" x="358.8" xlink:href="#m4a9e4349ab" y="76.097908"/>
     <use style="fill:none;stroke:#000080;stroke-width:1.5;" x="390.48" xlink:href="#m4a9e4349ab" y="103.272226"/>
    </g>
   </g>
   <g id="line2d_51">
    <path d="M 358.8 34.768147 
L 390.48 40.037692 
" style="fill:none;stroke:#ff0000;stroke-linecap:square;stroke-width:1.5;"/>
    <g>
     <use style="fill:none;stroke:#ff0000;stroke-linejoin:miter;stroke-width:1.5;" x="358.8" xlink:href="#m29edb7fef9" y="34.768147"/>
     <use style="fill:none;stroke:#ff0000;stroke-linejoin:miter;stroke-width:1.5;" x="390.48" xlink:href="#m29edb7fef9" y="40.037692"/>
    </g>
   </g>
   <g id="line2d_52">
    <path d="M 358.8 298.245375 
L 358.8 34.768147 
" style="fill:none;stroke:#000000;stroke-linecap:square;stroke-width:1.5;"/>
   </g>
   <g id="patch_3">
    <path d="M 70.8 298.245375 
L 70.8 32.133375 
" style="fill:none;stroke:#000000;stroke-linecap:square;stroke-linejoin:miter;stroke-width:0.8;"/>
   </g>
   <g id="patch_4">
    <path d="M 427.92 298.245375 
L 427.92 32.133375 
" style="fill:none;stroke:#000000;stroke-linecap:square;stroke-linejoin:miter;stroke-width:0.8;"/>
   </g>
   <g id="patch_5">
    <path d="M 70.8 298.245375 
L 427.92 298.245375 
" style="fill:none;stroke:#000000;stroke-linecap:square;stroke-linejoin:miter;stroke-width:0.8;"/>
   </g>
   <g id="patch_6">
    <path d="M 70.8 32.133375 
L 427.92 32.133375 
" style="fill:none;stroke:#000000;stroke-linecap:square;stroke-linejoin:miter;stroke-width:0.8;"/>
   </g>
   <g id="text_14">
    <!-- f2 -->
    <g transform="translate(396.24 297.114893)scale(0.15 -0.15)">
     <use xlink:href="#DejaVuSans-66"/>
     <use x="35.205078" xlink:href="#DejaVuSans-32"/>
    </g>
   </g>
   <g id="text_15">
    <!-- f4 -->
    <g transform="translate(396.24 233.880358)scale(0.15 -0.15)">
     <use xlink:href="#DejaVuSans-66"/>
     <use x="35.205078" xlink:href="#DejaVuSans-34"/>
    </g>
   </g>
   <g id="text_16">
    <!-- f3 -->
    <defs>
     <path d="M 40.578125 39.3125 
Q 47.65625 37.796875 51.625 33 
Q 55.609375 28.21875 55.609375 21.1875 
Q 55.609375 10.40625 48.1875 4.484375 
Q 40.765625 -1.421875 27.09375 -1.421875 
Q 22.515625 -1.421875 17.65625 -0.515625 
Q 12.796875 0.390625 7.625 2.203125 
L 7.625 11.71875 
Q 11.71875 9.328125 16.59375 8.109375 
Q 21.484375 6.890625 26.8125 6.890625 
Q 36.078125 6.890625 40.9375 10.546875 
Q 45.796875 14.203125 45.796875 21.1875 
Q 45.796875 27.640625 41.28125 31.265625 
Q 36.765625 34.90625 28.71875 34.90625 
L 20.21875 34.90625 
L 20.21875 43.015625 
L 29.109375 43.015625 
Q 36.375 43.015625 40.234375 45.921875 
Q 44.09375 48.828125 44.09375 54.296875 
Q 44.09375 59.90625 40.109375 62.90625 
Q 36.140625 65.921875 28.71875 65.921875 
Q 24.65625 65.921875 20.015625 65.03125 
Q 15.375 64.15625 9.8125 62.3125 
L 9.8125 71.09375 
Q 15.4375 72.65625 20.34375 73.4375 
Q 25.25 74.21875 29.59375 74.21875 
Q 40.828125 74.21875 47.359375 69.109375 
Q 53.90625 64.015625 53.90625 55.328125 
Q 53.90625 49.265625 50.4375 45.09375 
Q 46.96875 40.921875 40.578125 39.3125 
z
" id="DejaVuSans-33"/>
    </defs>
    <g transform="translate(396.24 170.645824)scale(0.15 -0.15)">
     <use xlink:href="#DejaVuSans-66"/>
     <use x="35.205078" xlink:href="#DejaVuSans-33"/>
    </g>
   </g>
   <g id="text_17">
    <!-- f1 -->
    <g transform="translate(396.24 107.411289)scale(0.15 -0.15)">
     <use xlink:href="#DejaVuSans-66"/>
     <use x="35.205078" xlink:href="#DejaVuSans-31"/>
    </g>
   </g>
   <g id="text_18">
    <!-- f5 -->
    <defs>
     <path d="M 10.796875 72.90625 
L 49.515625 72.90625 
L 49.515625 64.59375 
L 19.828125 64.59375 
L 19.828125 46.734375 
Q 21.96875 47.46875 24.109375 47.828125 
Q 26.265625 48.1875 28.421875 48.1875 
Q 40.625 48.1875 47.75 41.5 
Q 54.890625 34.8125 54.890625 23.390625 
Q 54.890625 11.625 47.5625 5.09375 
Q 40.234375 -1.421875 26.90625 -1.421875 
Q 22.3125 -1.421875 17.546875 -0.640625 
Q 12.796875 0.140625 7.71875 1.703125 
L 7.71875 11.625 
Q 12.109375 9.234375 16.796875 8.0625 
Q 21.484375 6.890625 26.703125 6.890625 
Q 35.15625 6.890625 40.078125 11.328125 
Q 45.015625 15.765625 45.015625 23.390625 
Q 45.015625 31 40.078125 35.4375 
Q 35.15625 39.890625 26.703125 39.890625 
Q 22.75 39.890625 18.8125 39.015625 
Q 14.890625 38.140625 10.796875 36.28125 
z
" id="DejaVuSans-35"/>
    </defs>
    <g transform="translate(396.24 44.176754)scale(0.15 -0.15)">
     <use xlink:href="#DejaVuSans-66"/>
     <use x="35.205078" xlink:href="#DejaVuSans-35"/>
    </g>
   </g>
   <g id="text_19">
    <!-- bbob -->
    <defs>
     <path d="M 48.6875 27.296875 
Q 48.6875 37.203125 44.609375 42.84375 
Q 40.53125 48.484375 33.40625 48.484375 
Q 26.265625 48.484375 22.1875 42.84375 
Q 18.109375 37.203125 18.109375 27.296875 
Q 18.109375 17.390625 22.1875 11.75 
Q 26.265625 6.109375 33.40625 6.109375 
Q 40.53125 6.109375 44.609375 11.75 
Q 48.6875 17.390625 48.6875 27.296875 
z
M 18.109375 46.390625 
Q 20.953125 51.265625 25.265625 53.625 
Q 29.59375 56 35.59375 56 
Q 45.5625 56 51.78125 48.09375 
Q 58.015625 40.1875 58.015625 27.296875 
Q 58.015625 14.40625 51.78125 6.484375 
Q 45.5625 -1.421875 35.59375 -1.421875 
Q 29.59375 -1.421875 25.265625 0.953125 
Q 20.953125 3.328125 18.109375 8.203125 
L 18.109375 0 
L 9.078125 0 
L 9.078125 75.984375 
L 18.109375 75.984375 
z
" id="DejaVuSans-62"/>
    </defs>
    <g transform="translate(74.3712 50.114612)scale(0.1666 -0.1666)">
     <use xlink:href="#DejaVuSans-62"/>
     <use x="63.476562" xlink:href="#DejaVuSans-62"/>
     <use x="126.953125" xlink:href="#DejaVuSans-6f"/>
     <use x="188.134766" xlink:href="#DejaVuSans-62"/>
    </g>
    <!-- Separable functions, 20-D -->
    <defs>
     <path d="M 53.515625 70.515625 
L 53.515625 60.890625 
Q 47.90625 63.578125 42.921875 64.890625 
Q 37.9375 66.21875 33.296875 66.21875 
Q 25.25 66.21875 20.875 63.09375 
Q 16.5 59.96875 16.5 54.203125 
Q 16.5 49.359375 19.40625 46.890625 
Q 22.3125 44.4375 30.421875 42.921875 
L 36.375 41.703125 
Q 47.40625 39.59375 52.65625 34.296875 
Q 57.90625 29 57.90625 20.125 
Q 57.90625 9.515625 50.796875 4.046875 
Q 43.703125 -1.421875 29.984375 -1.421875 
Q 24.8125 -1.421875 18.96875 -0.25 
Q 13.140625 0.921875 6.890625 3.21875 
L 6.890625 13.375 
Q 12.890625 10.015625 18.65625 8.296875 
Q 24.421875 6.59375 29.984375 6.59375 
Q 38.421875 6.59375 43.015625 9.90625 
Q 47.609375 13.234375 47.609375 19.390625 
Q 47.609375 24.75 44.3125 27.78125 
Q 41.015625 30.8125 33.5 32.328125 
L 27.484375 33.5 
Q 16.453125 35.6875 11.515625 40.375 
Q 6.59375 45.0625 6.59375 53.421875 
Q 6.59375 63.09375 13.40625 68.65625 
Q 20.21875 74.21875 32.171875 74.21875 
Q 37.3125 74.21875 42.625 73.28125 
Q 47.953125 72.359375 53.515625 70.515625 
z
" id="DejaVuSans-53"/>
     <path d="M 11.71875 12.40625 
L 22.015625 12.40625 
L 22.015625 4 
L 14.015625 -11.625 
L 7.71875 -11.625 
L 11.71875 4 
z
" id="DejaVuSans-2c"/>
     <path d="M 19.671875 64.796875 
L 19.671875 8.109375 
L 31.59375 8.109375 
Q 46.6875 8.109375 53.6875 14.9375 
Q 60.6875 21.78125 60.6875 36.53125 
Q 60.6875 51.171875 53.6875 57.984375 
Q 46.6875 64.796875 31.59375 64.796875 
z
M 9.8125 72.90625 
L 30.078125 72.90625 
Q 51.265625 72.90625 61.171875 64.09375 
Q 71.09375 55.28125 71.09375 36.53125 
Q 71.09375 17.671875 61.125 8.828125 
Q 51.171875 0 30.078125 0 
L 9.8125 0 
z
" id="DejaVuSans-44"/>
    </defs>
    <g transform="translate(74.3712 68.770168)scale(0.1666 -0.1666)">
     <use xlink:href="#DejaVuSans-53"/>
     <use x="63.476562" xlink:href="#DejaVuSans-65"/>
     <use x="125" xlink:href="#DejaVuSans-70"/>
     <use x="188.476562" xlink:href="#DejaVuSans-61"/>
     <use x="249.755859" xlink:href="#DejaVuSans-72"/>
     <use x="290.869141" xlink:href="#DejaVuSans-61"/>
     <use x="352.148438" xlink:href="#DejaVuSans-62"/>
     <use x="415.625" xlink:href="#DejaVuSans-6c"/>
     <use x="443.408203" xlink:href="#DejaVuSans-65"/>
     <use x="504.931641" xlink:href="#DejaVuSans-20"/>
     <use x="536.71875" xlink:href="#DejaVuSans-66"/>
     <use x="571.923828" xlink:href="#DejaVuSans-75"/>
     <use x="635.302734" xlink:href="#DejaVuSans-6e"/>
     <use x="698.681641" xlink:href="#DejaVuSans-63"/>
     <use x="753.662109" xlink:href="#DejaVuSans-74"/>
     <use x="792.871094" xlink:href="#DejaVuSans-69"/>
     <use x="820.654297" xlink:href="#DejaVuSans-6f"/>
     <use x="881.835938" xlink:href="#DejaVuSans-6e"/>
     <use x="945.214844" xlink:href="#DejaVuSans-73"/>
     <use x="997.314453" xlink:href="#DejaVuSans-2c"/>
     <use x="1029.101562" xlink:href="#DejaVuSans-20"/>
     <use x="1060.888672" xlink:href="#DejaVuSans-32"/>
     <use x="1124.511719" xlink:href="#DejaVuSans-30"/>
     <use x="1188.134766" xlink:href="#DejaVuSans-2d"/>
     <use x="1224.21875" xlink:href="#DejaVuSans-44"/>
    </g>
    <!-- 51 targets in 100..1e-08 -->
    <g transform="translate(74.3712 87.425723)scale(0.1666 -0.1666)">
     <use xlink:href="#DejaVuSans-35"/>
     <use x="63.623047" xlink:href="#DejaVuSans-31"/>
     <use x="127.246094" xlink:href="#DejaVuSans-20"/>
     <use x="159.033203" xlink:href="#DejaVuSans-74"/>
     <use x="198.242188" xlink:href="#DejaVuSans-61"/>
     <use x="259.521484" xlink:href="#DejaVuSans-72"/>
     <use x="300.619141" xlink:href="#DejaVuSans-67"/>
     <use x="364.095703" xlink:href="#DejaVuSans-65"/>
     <use x="425.619141" xlink:href="#DejaVuSans-74"/>
     <use x="464.828125" xlink:href="#DejaVuSans-73"/>
     <use x="516.927734" xlink:href="#DejaVuSans-20"/>
     <use x="548.714844" xlink:href="#DejaVuSans-69"/>
     <use x="576.498047" xlink:href="#DejaVuSans-6e"/>
     <use x="639.876953" xlink:href="#DejaVuSans-20"/>
     <use x="671.664062" xlink:href="#DejaVuSans-31"/>
     <use x="735.287109" xlink:href="#DejaVuSans-30"/>
     <use x="798.910156" xlink:href="#DejaVuSans-30"/>
     <use x="862.533203" xlink:href="#DejaVuSans-2e"/>
     <use x="894.320312" xlink:href="#DejaVuSans-2e"/>
     <use x="926.107422" xlink:href="#DejaVuSans-31"/>
     <use x="989.730469" xlink:href="#DejaVuSans-65"/>
     <use x="1051.253906" xlink:href="#DejaVuSans-2d"/>
     <use x="1087.337891" xlink:href="#DejaVuSans-30"/>
     <use x="1150.960938" xlink:href="#DejaVuSans-38"/>
    </g>
    <!-- 15 instances -->
    <g transform="translate(74.3712 106.081279)scale(0.1666 -0.1666)">
     <use xlink:href="#DejaVuSans-31"/>
     <use x="63.623047" xlink:href="#DejaVuSans-35"/>
     <use x="127.246094" xlink:href="#DejaVuSans-20"/>
     <use x="159.033203" xlink:href="#DejaVuSans-69"/>
     <use x="186.816406" xlink:href="#DejaVuSans-6e"/>
     <use x="250.195312" xlink:href="#DejaVuSans-73"/>
     <use x="302.294922" xlink:href="#DejaVuSans-74"/>
     <use x="341.503906" xlink:href="#DejaVuSans-61"/>
     <use x="402.783203" xlink:href="#DejaVuSans-6e"/>
     <use x="466.162109" xlink:href="#DejaVuSans-63"/>
     <use x="521.142578" xlink:href="#DejaVuSans-65"/>
     <use x="582.666016" xlink:href="#DejaVuSans-73"/>
    </g>
   </g>
   <g id="text_20">
    <!-- v0.0.0 -->
    <g style="fill:#808080;" transform="translate(233.67875 293.504568)scale(0.1 -0.1)">
     <use xlink:href="#DejaVuSans-76"/>
     <use x="59.179688" xlink:href="#DejaVuSans-30"/>
     <use x="122.802734" xlink:href="#DejaVuSans-2e"/>
     <use x="154.589844" xlink:href="#DejaVuSans-30"/>
     <use x="218.212891" xlink:href="#DejaVuSans-2e"/>
     <use x="250" xlink:href="#DejaVuSans-30"/>
    </g>
   </g>
  </g>
 </g>
 <defs>
  <clipPath id="p380055282a">
   <rect height="266.112" width="357.12" x="70.8" y="32.133375"/>
  </clipPath>
 </defs>
</svg>
