<?xml version="1.0" encoding="utf-8" standalone="no"?>
<!DOCTYPE svg PUBLIC "-//W3C//DTD SVG 1.1//EN"
  "http://www.w3.org/Graphics/SVG/1.1/DTD/svg11.dtd">
<!-- Created with matplotlib (http://matplotlib.org/) -->
<svg height="334pt" version="1.1" viewBox="0 0 402 334" width="402pt" xmlns="http://www.w3.org/2000/svg" xmlns:xlink="http://www.w3.org/1999/xlink">
 <defs>
  <style type="text/css">
*{stroke-linecap:butt;stroke-linejoin:round;}
  </style>
 </defs>
 <g id="figure_1">
  <g id="patch_1">
   <path d="M 0 334.97575 
L 402.205 334.97575 
L 402.205 0 
L 0 0 
z
" style="fill:#ffffff;"/>
  </g>
  <g id="axes_1">
   <g id="patch_2">
    <path d="M 29.47 297.54825 
L 386.59 297.54825 
L 386.59 31.43625 
L 29.47 31.43625 
z
" style="fill:#ffffff;"/>
   </g>
   <g id="line2d_1">
    <path clip-path="url(#p688dc72212)" d="M 41.159282 199.453375 
L 86.143838 182.435618 
L 142.817676 165.958524 
L 219.719282 162.313841 
L 296.620888 147.919791 
L 373.522494 135.390524 
" style="fill:none;stroke:#f5deb3;stroke-linecap:square;stroke-width:10;"/>
    <defs>
     <path d="M -0 17.67767 
L 10.606602 0 
L 0 -17.67767 
L -10.606602 -0 
z
" id="m99e04165f9" style="stroke:#000000;stroke-linejoin:miter;"/>
    </defs>
    <g clip-path="url(#p688dc72212)">
     <use style="fill:#f5deb3;stroke:#000000;stroke-linejoin:miter;" x="41.159282" xlink:href="#m99e04165f9" y="199.453375"/>
     <use style="fill:#f5deb3;stroke:#000000;stroke-linejoin:miter;" x="86.143838" xlink:href="#m99e04165f9" y="182.435618"/>
     <use style="fill:#f5deb3;stroke:#000000;stroke-linejoin:miter;" x="142.817676" xlink:href="#m99e04165f9" y="165.958524"/>
     <use style="fill:#f5deb3;stroke:#000000;stroke-linejoin:miter;" x="219.719282" xlink:href="#m99e04165f9" y="162.313841"/>
     <use style="fill:#f5deb3;stroke:#000000;stroke-linejoin:miter;" x="296.620888" xlink:href="#m99e04165f9" y="147.919791"/>
     <use style="fill:#f5deb3;stroke:#000000;stroke-linejoin:miter;" x="373.522494" xlink:href="#m99e04165f9" y="135.390524"/>
    </g>
   </g>
   <g id="line2d_2">
    <defs>
     <path d="M -15 0 
L 15 0 
M 0 15 
L 0 -15 
" id="mc7717d9278" style="stroke:#bf00bf;stroke-width:5;"/>
    </defs>
    <g clip-path="url(#p688dc72212)">
     <use style="fill:#bf00bf;stroke:#bf00bf;stroke-width:5;" x="41.159282" xlink:href="#mc7717d9278" y="141.838679"/>
    </g>
   </g>
   <g id="line2d_3">
    <g clip-path="url(#p688dc72212)">
     <use style="fill:#bf00bf;stroke:#bf00bf;stroke-width:5;" x="86.143838" xlink:href="#mc7717d9278" y="109.473028"/>
    </g>
   </g>
   <g id="matplotlib.axis_1">
    <g id="xtick_1">
     <g id="line2d_4">
      <defs>
       <path d="M 0 0 
L 0 3.5 
" id="meead527902" style="stroke:#000000;stroke-width:0.8;"/>
      </defs>
      <g>
       <use style="stroke:#000000;stroke-width:0.8;" x="41.159282" xlink:href="#meead527902" y="297.54825"/>
      </g>
     </g>
     <g id="text_1">
      <!-- 2 -->
      <defs>
       <path d="M 19.1875 8.296875 
L 53.609375 8.296875 
L 53.609375 0 
L 7.328125 0 
L 7.328125 8.296875 
Q 12.9375 14.109375 22.625 23.890625 
Q 32.328125 33.6875 34.8125 36.53125 
Q 39.546875 41.84375 41.421875 45.53125 
Q 43.3125 49.21875 43.3125 52.78125 
Q 43.3125 58.59375 39.234375 62.25 
Q 35.15625 65.921875 28.609375 65.921875 
Q 23.96875 65.921875 18.8125 64.3125 
Q 13.671875 62.703125 7.8125 59.421875 
L 7.8125 69.390625 
Q 13.765625 71.78125 18.9375 73 
Q 24.125 74.21875 28.421875 74.21875 
Q 39.75 74.21875 46.484375 68.546875 
Q 53.21875 62.890625 53.21875 53.421875 
Q 53.21875 48.921875 51.53125 44.890625 
Q 49.859375 40.875 45.40625 35.40625 
Q 44.1875 33.984375 37.640625 27.21875 
Q 31.109375 20.453125 19.1875 8.296875 
z
" id="DejaVuSans-32"/>
      </defs>
      <g transform="translate(33.524282 322.7845)scale(0.24 -0.24)">
       <use xlink:href="#DejaVuSans-32"/>
      </g>
     </g>
    </g>
    <g id="xtick_2">
     <g id="line2d_5">
      <g>
       <use style="stroke:#000000;stroke-width:0.8;" x="86.143838" xlink:href="#meead527902" y="297.54825"/>
      </g>
     </g>
     <g id="text_2">
      <!-- 3 -->
      <defs>
       <path d="M 40.578125 39.3125 
Q 47.65625 37.796875 51.625 33 
Q 55.609375 28.21875 55.609375 21.1875 
Q 55.609375 10.40625 48.1875 4.484375 
Q 40.765625 -1.421875 27.09375 -1.421875 
Q 22.515625 -1.421875 17.65625 -0.515625 
Q 12.796875 0.390625 7.625 2.203125 
L 7.625 11.71875 
Q 11.71875 9.328125 16.59375 8.109375 
Q 21.484375 6.890625 26.8125 6.890625 
Q 36.078125 6.890625 40.9375 10.546875 
Q 45.796875 14.203125 45.796875 21.1875 
Q 45.796875 27.640625 41.28125 31.265625 
Q 36.765625 34.90625 28.71875 34.90625 
L 20.21875 34.90625 
L 20.21875 43.015625 
L 29.109375 43.015625 
Q 36.375 43.015625 40.234375 45.921875 
Q 44.09375 48.828125 44.09375 54.296875 
Q 44.09375 59.90625 40.109375 62.90625 
Q 36.140625 65.921875 28.71875 65.921875 
Q 24.65625 65.921875 20.015625 65.03125 
Q 15.375 64.15625 9.8125 62.3125 
L 9.8125 71.09375 
Q 15.4375 72.65625 20.34375 73.4375 
Q 25.25 74.21875 29.59375 74.21875 
Q 40.828125 74.21875 47.359375 69.109375 
Q 53.90625 64.015625 53.90625 55.328125 
Q 53.90625 49.265625 50.4375 45.09375 
Q 46.96875 40.921875 40.578125 39.3125 
z
" id="DejaVuSans-33"/>
      </defs>
      <g transform="translate(78.508838 322.7845)scale(0.24 -0.24)">
       <use xlink:href="#DejaVuSans-33"/>
      </g>
     </g>
    </g>
    <g id="xtick_3">
     <g id="line2d_6">
      <g>
       <use style="stroke:#000000;stroke-width:0.8;" x="142.817676" xlink:href="#meead527902" y="297.54825"/>
      </g>
     </g>
     <g id="text_3">
      <!-- 5 -->
      <defs>
       <path d="M 10.796875 72.90625 
L 49.515625 72.90625 
L 49.515625 64.59375 
L 19.828125 64.59375 
L 19.828125 46.734375 
Q 21.96875 47.46875 24.109375 47.828125 
Q 26.265625 48.1875 28.421875 48.1875 
Q 40.625 48.1875 47.75 41.5 
Q 54.890625 34.8125 54.890625 23.390625 
Q 54.890625 11.625 47.5625 5.09375 
Q 40.234375 -1.421875 26.90625 -1.421875 
Q 22.3125 -1.421875 17.546875 -0.640625 
Q 12.796875 0.140625 7.71875 1.703125 
L 7.71875 11.625 
Q 12.109375 9.234375 16.796875 8.0625 
Q 21.484375 6.890625 26.703125 6.890625 
Q 35.15625 6.890625 40.078125 11.328125 
Q 45.015625 15.765625 45.015625 23.390625 
Q 45.015625 31 40.078125 35.4375 
Q 35.15625 39.890625 26.703125 39.890625 
Q 22.75 39.890625 18.8125 39.015625 
Q 14.890625 38.140625 10.796875 36.28125 
z
" id="DejaVuSans-35"/>
      </defs>
      <g transform="translate(135.182676 322.7845)scale(0.24 -0.24)">
       <use xlink:href="#DejaVuSans-35"/>
      </g>
     </g>
    </g>
    <g id="xtick_4">
     <g id="line2d_7">
      <g>
       <use style="stroke:#000000;stroke-width:0.8;" x="219.719282" xlink:href="#meead527902" y="297.54825"/>
      </g>
     </g>
     <g id="text_4">
      <!-- 10 -->
      <defs>
       <path d="M 12.40625 8.296875 
L 28.515625 8.296875 
L 28.515625 63.921875 
L 10.984375 60.40625 
L 10.984375 69.390625 
L 28.421875 72.90625 
L 38.28125 72.90625 
L 38.28125 8.296875 
L 54.390625 8.296875 
L 54.390625 0 
L 12.40625 0 
z
" id="DejaVuSans-31"/>
       <path d="M 31.78125 66.40625 
Q 24.171875 66.40625 20.328125 58.90625 
Q 16.5 51.421875 16.5 36.375 
Q 16.5 21.390625 20.328125 13.890625 
Q 24.171875 6.390625 31.78125 6.390625 
Q 39.453125 6.390625 43.28125 13.890625 
Q 47.125 21.390625 47.125 36.375 
Q 47.125 51.421875 43.28125 58.90625 
Q 39.453125 66.40625 31.78125 66.40625 
z
M 31.78125 74.21875 
Q 44.046875 74.21875 50.515625 64.515625 
Q 56.984375 54.828125 56.984375 36.375 
Q 56.984375 17.96875 50.515625 8.265625 
Q 44.046875 -1.421875 31.78125 -1.421875 
Q 19.53125 -1.421875 13.0625 8.265625 
Q 6.59375 17.96875 6.59375 36.375 
Q 6.59375 54.828125 13.0625 64.515625 
Q 19.53125 74.21875 31.78125 74.21875 
z
" id="DejaVuSans-30"/>
      </defs>
      <g transform="translate(204.449282 322.7845)scale(0.24 -0.24)">
       <use xlink:href="#DejaVuSans-31"/>
       <use x="63.623047" xlink:href="#DejaVuSans-30"/>
      </g>
     </g>
    </g>
    <g id="xtick_5">
     <g id="line2d_8">
      <g>
       <use style="stroke:#000000;stroke-width:0.8;" x="296.620888" xlink:href="#meead527902" y="297.54825"/>
      </g>
     </g>
     <g id="text_5">
      <!-- 20 -->
      <g transform="translate(281.350888 322.7845)scale(0.24 -0.24)">
       <use xlink:href="#DejaVuSans-32"/>
       <use x="63.623047" xlink:href="#DejaVuSans-30"/>
      </g>
     </g>
    </g>
    <g id="xtick_6">
     <g id="line2d_9">
      <g>
       <use style="stroke:#000000;stroke-width:0.8;" x="373.522494" xlink:href="#meead527902" y="297.54825"/>
      </g>
     </g>
     <g id="text_6">
      <!-- 40 -->
      <defs>
       <path d="M 37.796875 64.3125 
L 12.890625 25.390625 
L 37.796875 25.390625 
z
M 35.203125 72.90625 
L 47.609375 72.90625 
L 47.609375 25.390625 
L 58.015625 25.390625 
L 58.015625 17.1875 
L 47.609375 17.1875 
L 47.609375 0 
L 37.796875 0 
L 37.796875 17.1875 
L 4.890625 17.1875 
L 4.890625 26.703125 
z
" id="DejaVuSans-34"/>
      </defs>
      <g transform="translate(358.252494 322.7845)scale(0.24 -0.24)">
       <use xlink:href="#DejaVuSans-34"/>
       <use x="63.623047" xlink:href="#DejaVuSans-30"/>
      </g>
     </g>
    </g>
    <g id="xtick_7">
     <g id="line2d_10">
      <defs>
       <path d="M 0 0 
L 0 2 
" id="m668bf78077" style="stroke:#000000;stroke-width:0.6;"/>
      </defs>
      <g>
       <use style="stroke:#000000;stroke-width:0.6;" x="41.159282" xlink:href="#m668bf78077" y="297.54825"/>
      </g>
     </g>
    </g>
    <g id="xtick_8">
     <g id="line2d_11">
      <g>
       <use style="stroke:#000000;stroke-width:0.6;" x="86.143838" xlink:href="#m668bf78077" y="297.54825"/>
      </g>
     </g>
    </g>
    <g id="xtick_9">
     <g id="line2d_12">
      <g>
       <use style="stroke:#000000;stroke-width:0.6;" x="118.060888" xlink:href="#m668bf78077" y="297.54825"/>
      </g>
     </g>
    </g>
    <g id="xtick_10">
     <g id="line2d_13">
      <g>
       <use style="stroke:#000000;stroke-width:0.6;" x="142.817676" xlink:href="#m668bf78077" y="297.54825"/>
      </g>
     </g>
    </g>
    <g id="xtick_11">
     <g id="line2d_14">
      <g>
       <use style="stroke:#000000;stroke-width:0.6;" x="163.045444" xlink:href="#m668bf78077" y="297.54825"/>
      </g>
     </g>
    </g>
    <g id="xtick_12">
     <g id="line2d_15">
      <g>
       <use style="stroke:#000000;stroke-width:0.6;" x="180.147779" xlink:href="#m668bf78077" y="297.54825"/>
      </g>
     </g>
    </g>
    <g id="xtick_13">
     <g id="line2d_16">
      <g>
       <use style="stroke:#000000;stroke-width:0.6;" x="194.962494" xlink:href="#m668bf78077" y="297.54825"/>
      </g>
     </g>
    </g>
    <g id="xtick_14">
     <g id="line2d_17">
      <g>
       <use style="stroke:#000000;stroke-width:0.6;" x="208.03" xlink:href="#m668bf78077" y="297.54825"/>
      </g>
     </g>
    </g>
    <g id="xtick_15">
     <g id="line2d_18">
      <g>
       <use style="stroke:#000000;stroke-width:0.6;" x="296.620888" xlink:href="#m668bf78077" y="297.54825"/>
      </g>
     </g>
    </g>
    <g id="xtick_16">
     <g id="line2d_19">
      <g>
       <use style="stroke:#000000;stroke-width:0.6;" x="341.605444" xlink:href="#m668bf78077" y="297.54825"/>
      </g>
     </g>
    </g>
    <g id="xtick_17">
     <g id="line2d_20">
      <g>
       <use style="stroke:#000000;stroke-width:0.6;" x="373.522494" xlink:href="#m668bf78077" y="297.54825"/>
      </g>
     </g>
    </g>
   </g>
   <g id="matplotlib.axis_2">
    <g id="ytick_1">
     <g id="line2d_21">
      <path clip-path="url(#p688dc72212)" d="M 29.47 290.15625 
L 386.59 290.15625 
" style="fill:none;stroke:#b0b0b0;stroke-linecap:square;stroke-width:0.8;"/>
     </g>
     <g id="line2d_22">
      <defs>
       <path d="M 0 0 
L -3.5 0 
" id="mba4b1a0cea" style="stroke:#000000;stroke-width:0.8;"/>
      </defs>
      <g>
       <use style="stroke:#000000;stroke-width:0.8;" x="29.47" xlink:href="#mba4b1a0cea" y="290.15625"/>
      </g>
     </g>
     <g id="text_7">
      <!-- 0 -->
      <g transform="translate(7.2 299.274375)scale(0.24 -0.24)">
       <use xlink:href="#DejaVuSans-30"/>
      </g>
     </g>
    </g>
    <g id="ytick_2">
     <g id="line2d_23">
      <path clip-path="url(#p688dc72212)" d="M 29.47 253.196253 
L 386.59 253.196253 
" style="fill:none;stroke:#b0b0b0;stroke-linecap:square;stroke-width:0.8;"/>
     </g>
     <g id="line2d_24">
      <g>
       <use style="stroke:#000000;stroke-width:0.8;" x="29.47" xlink:href="#mba4b1a0cea" y="253.196253"/>
      </g>
     </g>
     <g id="text_8">
      <!-- 1 -->
      <g transform="translate(7.2 262.314378)scale(0.24 -0.24)">
       <use xlink:href="#DejaVuSans-31"/>
      </g>
     </g>
    </g>
    <g id="ytick_3">
     <g id="line2d_25">
      <path clip-path="url(#p688dc72212)" d="M 29.47 216.236255 
L 386.59 216.236255 
" style="fill:none;stroke:#b0b0b0;stroke-linecap:square;stroke-width:0.8;"/>
     </g>
     <g id="line2d_26">
      <g>
       <use style="stroke:#000000;stroke-width:0.8;" x="29.47" xlink:href="#mba4b1a0cea" y="216.236255"/>
      </g>
     </g>
     <g id="text_9">
      <!-- 2 -->
      <g transform="translate(7.2 225.35438)scale(0.24 -0.24)">
       <use xlink:href="#DejaVuSans-32"/>
      </g>
     </g>
    </g>
    <g id="ytick_4">
     <g id="line2d_27">
      <path clip-path="url(#p688dc72212)" d="M 29.47 179.276257 
L 386.59 179.276257 
" style="fill:none;stroke:#b0b0b0;stroke-linecap:square;stroke-width:0.8;"/>
     </g>
     <g id="line2d_28">
      <g>
       <use style="stroke:#000000;stroke-width:0.8;" x="29.47" xlink:href="#mba4b1a0cea" y="179.276257"/>
      </g>
     </g>
     <g id="text_10">
      <!-- 3 -->
      <g transform="translate(7.2 188.394382)scale(0.24 -0.24)">
       <use xlink:href="#DejaVuSans-33"/>
      </g>
     </g>
    </g>
    <g id="ytick_5">
     <g id="line2d_29">
      <path clip-path="url(#p688dc72212)" d="M 29.47 142.316259 
L 386.59 142.316259 
" style="fill:none;stroke:#b0b0b0;stroke-linecap:square;stroke-width:0.8;"/>
     </g>
     <g id="line2d_30">
      <g>
       <use style="stroke:#000000;stroke-width:0.8;" x="29.47" xlink:href="#mba4b1a0cea" y="142.316259"/>
      </g>
     </g>
     <g id="text_11">
      <!-- 4 -->
      <g transform="translate(7.2 151.434384)scale(0.24 -0.24)">
       <use xlink:href="#DejaVuSans-34"/>
      </g>
     </g>
    </g>
    <g id="ytick_6">
     <g id="line2d_31">
      <path clip-path="url(#p688dc72212)" d="M 29.47 105.356262 
L 386.59 105.356262 
" style="fill:none;stroke:#b0b0b0;stroke-linecap:square;stroke-width:0.8;"/>
     </g>
     <g id="line2d_32">
      <g>
       <use style="stroke:#000000;stroke-width:0.8;" x="29.47" xlink:href="#mba4b1a0cea" y="105.356262"/>
      </g>
     </g>
     <g id="text_12">
      <!-- 5 -->
      <g transform="translate(7.2 114.474387)scale(0.24 -0.24)">
       <use xlink:href="#DejaVuSans-35"/>
      </g>
     </g>
    </g>
    <g id="ytick_7">
     <g id="line2d_33">
      <path clip-path="url(#p688dc72212)" d="M 29.47 68.396264 
L 386.59 68.396264 
" style="fill:none;stroke:#b0b0b0;stroke-linecap:square;stroke-width:0.8;"/>
     </g>
     <g id="line2d_34">
      <g>
       <use style="stroke:#000000;stroke-width:0.8;" x="29.47" xlink:href="#mba4b1a0cea" y="68.396264"/>
      </g>
     </g>
     <g id="text_13">
      <!-- 6 -->
      <defs>
       <path d="M 33.015625 40.375 
Q 26.375 40.375 22.484375 35.828125 
Q 18.609375 31.296875 18.609375 23.390625 
Q 18.609375 15.53125 22.484375 10.953125 
Q 26.375 6.390625 33.015625 6.390625 
Q 39.65625 6.390625 43.53125 10.953125 
Q 47.40625 15.53125 47.40625 23.390625 
Q 47.40625 31.296875 43.53125 35.828125 
Q 39.65625 40.375 33.015625 40.375 
z
M 52.59375 71.296875 
L 52.59375 62.3125 
Q 48.875 64.0625 45.09375 64.984375 
Q 41.3125 65.921875 37.59375 65.921875 
Q 27.828125 65.921875 22.671875 59.328125 
Q 17.53125 52.734375 16.796875 39.40625 
Q 19.671875 43.65625 24.015625 45.921875 
Q 28.375 48.1875 33.59375 48.1875 
Q 44.578125 48.1875 50.953125 41.515625 
Q 57.328125 34.859375 57.328125 23.390625 
Q 57.328125 12.15625 50.6875 5.359375 
Q 44.046875 -1.421875 33.015625 -1.421875 
Q 20.359375 -1.421875 13.671875 8.265625 
Q 6.984375 17.96875 6.984375 36.375 
Q 6.984375 53.65625 15.1875 63.9375 
Q 23.390625 74.21875 37.203125 74.21875 
Q 40.921875 74.21875 44.703125 73.484375 
Q 48.484375 72.75 52.59375 71.296875 
z
" id="DejaVuSans-36"/>
      </defs>
      <g transform="translate(7.2 77.514389)scale(0.24 -0.24)">
       <use xlink:href="#DejaVuSans-36"/>
      </g>
     </g>
    </g>
    <g id="ytick_8">
     <g id="line2d_35">
      <path clip-path="url(#p688dc72212)" d="M 29.47 31.436266 
L 386.59 31.436266 
" style="fill:none;stroke:#b0b0b0;stroke-linecap:square;stroke-width:0.8;"/>
     </g>
     <g id="line2d_36">
      <g>
       <use style="stroke:#000000;stroke-width:0.8;" x="29.47" xlink:href="#mba4b1a0cea" y="31.436266"/>
      </g>
     </g>
     <g id="text_14">
      <!-- 7 -->
      <defs>
       <path d="M 8.203125 72.90625 
L 55.078125 72.90625 
L 55.078125 68.703125 
L 28.609375 0 
L 18.3125 0 
L 43.21875 64.59375 
L 8.203125 64.59375 
z
" id="DejaVuSans-37"/>
      </defs>
      <g transform="translate(7.2 40.554391)scale(0.24 -0.24)">
       <use xlink:href="#DejaVuSans-37"/>
      </g>
     </g>
    </g>
   </g>
   <g id="line2d_37">
    <path clip-path="url(#p688dc72212)" d="M 38.515722 217.315058 
L 40.366214 216.316714 
L 38.515722 210.216839 
L 43.802842 210.216839 
L 41.95235 216.316714 
L 43.802842 217.315058 
L 38.515722 217.315058 
" style="fill:none;stroke:#000000;stroke-linecap:square;"/>
   </g>
   <g id="line2d_38">
    <path clip-path="url(#p688dc72212)" d="M 38.515722 217.315058 
L 43.802842 217.315058 
L 43.802842 210.216839 
L 38.515722 210.216839 
L 38.515722 217.315058 
" style="fill:none;"/>
    <defs>
     <path d="M 0 3 
C 0.795609 3 1.55874 2.683901 2.12132 2.12132 
C 2.683901 1.55874 3 0.795609 3 0 
C 3 -0.795609 2.683901 -1.55874 2.12132 -2.12132 
C 1.55874 -2.683901 0.795609 -3 0 -3 
C -0.795609 -3 -1.55874 -2.683901 -2.12132 -2.12132 
C -2.683901 -1.55874 -3 -0.795609 -3 0 
C -3 0.795609 -2.683901 1.55874 -2.12132 2.12132 
C -1.55874 2.683901 -0.795609 3 0 3 
z
" id="mbab19fbf21" style="stroke:#000000;stroke-width:2;"/>
    </defs>
    <g clip-path="url(#p688dc72212)">
     <use style="stroke:#000000;stroke-width:2;" x="38.515722" xlink:href="#mbab19fbf21" y="217.315058"/>
     <use style="stroke:#000000;stroke-width:2;" x="43.802842" xlink:href="#mbab19fbf21" y="217.315058"/>
     <use style="stroke:#000000;stroke-width:2;" x="43.802842" xlink:href="#mbab19fbf21" y="210.216839"/>
     <use style="stroke:#000000;stroke-width:2;" x="38.515722" xlink:href="#mbab19fbf21" y="210.216839"/>
     <use style="stroke:#000000;stroke-width:2;" x="38.515722" xlink:href="#mbab19fbf21" y="217.315058"/>
    </g>
   </g>
   <g id="line2d_39">
    <path clip-path="url(#p688dc72212)" d="M 38.515722 216.316714 
L 43.802842 216.316714 
" style="fill:none;stroke:#000000;stroke-linecap:square;stroke-width:2;"/>
   </g>
   <g id="line2d_40">
    <path clip-path="url(#p688dc72212)" d="M 83.500277 213.088312 
L 85.35077 211.983804 
L 83.500277 209.41006 
L 88.787398 209.41006 
L 86.936906 211.983804 
L 88.787398 213.088312 
L 83.500277 213.088312 
" style="fill:none;stroke:#000000;stroke-linecap:square;"/>
   </g>
   <g id="line2d_41">
    <path clip-path="url(#p688dc72212)" d="M 83.500277 213.088312 
L 88.787398 213.088312 
L 88.787398 209.41006 
L 83.500277 209.41006 
L 83.500277 213.088312 
" style="fill:none;"/>
    <g clip-path="url(#p688dc72212)">
     <use style="stroke:#000000;stroke-width:2;" x="83.500277" xlink:href="#mbab19fbf21" y="213.088312"/>
     <use style="stroke:#000000;stroke-width:2;" x="88.787398" xlink:href="#mbab19fbf21" y="213.088312"/>
     <use style="stroke:#000000;stroke-width:2;" x="88.787398" xlink:href="#mbab19fbf21" y="209.41006"/>
     <use style="stroke:#000000;stroke-width:2;" x="83.500277" xlink:href="#mbab19fbf21" y="209.41006"/>
     <use style="stroke:#000000;stroke-width:2;" x="83.500277" xlink:href="#mbab19fbf21" y="213.088312"/>
    </g>
   </g>
   <g id="line2d_42">
    <path clip-path="url(#p688dc72212)" d="M 83.500277 211.983804 
L 88.787398 211.983804 
" style="fill:none;stroke:#000000;stroke-linecap:square;stroke-width:2;"/>
   </g>
   <g id="line2d_43">
    <path clip-path="url(#p688dc72212)" d="M 140.174115 207.966254 
L 142.024608 207.966254 
L 140.174115 194.866701 
L 145.461236 194.866701 
L 143.610744 207.966254 
L 145.461236 207.966254 
L 140.174115 207.966254 
" style="fill:none;stroke:#000000;stroke-linecap:square;"/>
   </g>
   <g id="line2d_44">
    <path clip-path="url(#p688dc72212)" d="M 140.174115 207.966254 
L 145.461236 207.966254 
L 145.461236 194.866701 
L 140.174115 194.866701 
L 140.174115 207.966254 
" style="fill:none;"/>
    <g clip-path="url(#p688dc72212)">
     <use style="stroke:#000000;stroke-width:2;" x="140.174115" xlink:href="#mbab19fbf21" y="207.966254"/>
     <use style="stroke:#000000;stroke-width:2;" x="145.461236" xlink:href="#mbab19fbf21" y="207.966254"/>
     <use style="stroke:#000000;stroke-width:2;" x="145.461236" xlink:href="#mbab19fbf21" y="194.866701"/>
     <use style="stroke:#000000;stroke-width:2;" x="140.174115" xlink:href="#mbab19fbf21" y="194.866701"/>
     <use style="stroke:#000000;stroke-width:2;" x="140.174115" xlink:href="#mbab19fbf21" y="207.966254"/>
    </g>
   </g>
   <g id="line2d_45">
    <path clip-path="url(#p688dc72212)" d="M 140.174115 207.966254 
L 145.461236 207.966254 
" style="fill:none;stroke:#000000;stroke-linecap:square;stroke-width:2;"/>
   </g>
   <g id="line2d_46">
    <path clip-path="url(#p688dc72212)" d="M 217.075722 194.238943 
L 218.926214 190.376663 
L 217.075722 183.276792 
L 222.362842 183.276792 
L 220.51235 190.376663 
L 222.362842 194.238943 
L 217.075722 194.238943 
" style="fill:none;stroke:#000000;stroke-linecap:square;"/>
   </g>
   <g id="line2d_47">
    <path clip-path="url(#p688dc72212)" d="M 217.075722 194.238943 
L 222.362842 194.238943 
L 222.362842 183.276792 
L 217.075722 183.276792 
L 217.075722 194.238943 
" style="fill:none;"/>
    <g clip-path="url(#p688dc72212)">
     <use style="stroke:#000000;stroke-width:2;" x="217.075722" xlink:href="#mbab19fbf21" y="194.238943"/>
     <use style="stroke:#000000;stroke-width:2;" x="222.362842" xlink:href="#mbab19fbf21" y="194.238943"/>
     <use style="stroke:#000000;stroke-width:2;" x="222.362842" xlink:href="#mbab19fbf21" y="183.276792"/>
     <use style="stroke:#000000;stroke-width:2;" x="217.075722" xlink:href="#mbab19fbf21" y="183.276792"/>
     <use style="stroke:#000000;stroke-width:2;" x="217.075722" xlink:href="#mbab19fbf21" y="194.238943"/>
    </g>
   </g>
   <g id="line2d_48">
    <path clip-path="url(#p688dc72212)" d="M 217.075722 190.376663 
L 222.362842 190.376663 
" style="fill:none;stroke:#000000;stroke-linecap:square;stroke-width:2;"/>
   </g>
   <g id="line2d_49">
    <path clip-path="url(#p688dc72212)" d="M 293.977328 163.802676 
L 295.82782 160.97877 
L 293.977328 160.725492 
L 299.264449 160.725492 
L 297.413956 160.97877 
L 299.264449 163.802676 
L 293.977328 163.802676 
" style="fill:none;stroke:#000000;stroke-linecap:square;"/>
   </g>
   <g id="line2d_50">
    <path clip-path="url(#p688dc72212)" d="M 293.977328 163.802676 
L 299.264449 163.802676 
L 299.264449 160.725492 
L 293.977328 160.725492 
L 293.977328 163.802676 
" style="fill:none;"/>
    <g clip-path="url(#p688dc72212)">
     <use style="stroke:#000000;stroke-width:2;" x="293.977328" xlink:href="#mbab19fbf21" y="163.802676"/>
     <use style="stroke:#000000;stroke-width:2;" x="299.264449" xlink:href="#mbab19fbf21" y="163.802676"/>
     <use style="stroke:#000000;stroke-width:2;" x="299.264449" xlink:href="#mbab19fbf21" y="160.725492"/>
     <use style="stroke:#000000;stroke-width:2;" x="293.977328" xlink:href="#mbab19fbf21" y="160.725492"/>
     <use style="stroke:#000000;stroke-width:2;" x="293.977328" xlink:href="#mbab19fbf21" y="163.802676"/>
    </g>
   </g>
   <g id="line2d_51">
    <path clip-path="url(#p688dc72212)" d="M 293.977328 160.97877 
L 299.264449 160.97877 
" style="fill:none;stroke:#000000;stroke-linecap:square;stroke-width:2;"/>
   </g>
   <g id="line2d_52">
    <path clip-path="url(#p688dc72212)" d="M 41.159282 211.054697 
L 86.143838 208.603052 
" style="fill:none;stroke:#000000;stroke-linecap:square;stroke-width:4;"/>
   </g>
   <g id="line2d_53">
    <path clip-path="url(#p688dc72212)" d="M 86.143838 208.603052 
L 142.817676 201.023621 
" style="fill:none;stroke:#000000;stroke-linecap:square;stroke-width:4;"/>
   </g>
   <g id="line2d_54">
    <path clip-path="url(#p688dc72212)" d="M 142.817676 201.023621 
L 219.719282 187.353548 
" style="fill:none;stroke:#000000;stroke-linecap:square;stroke-width:4;"/>
   </g>
   <g id="line2d_55">
    <path clip-path="url(#p688dc72212)" d="M 219.719282 187.353548 
L 296.620888 159.515938 
" style="fill:none;stroke:#000000;stroke-linecap:square;stroke-width:4;"/>
   </g>
   <g id="line2d_56">
    <path clip-path="url(#p688dc72212)" d="M 41.159282 211.054697 
L 86.143838 208.603052 
L 142.817676 201.023621 
L 219.719282 187.353548 
L 296.620888 159.515938 
" style="fill:none;"/>
    <defs>
     <path d="M 0 10 
C 2.652031 10 5.195799 8.946337 7.071068 7.071068 
C 8.946337 5.195799 10 2.652031 10 0 
C 10 -2.652031 8.946337 -5.195799 7.071068 -7.071068 
C 5.195799 -8.946337 2.652031 -10 0 -10 
C -2.652031 -10 -5.195799 -8.946337 -7.071068 -7.071068 
C -8.946337 -5.195799 -10 -2.652031 -10 0 
C -10 2.652031 -8.946337 5.195799 -7.071068 7.071068 
C -5.195799 8.946337 -2.652031 10 0 10 
z
" id="m3347f96284" style="stroke:#000000;stroke-width:2;"/>
    </defs>
    <g clip-path="url(#p688dc72212)">
     <use style="stroke:#000000;stroke-width:2;" x="41.159282" xlink:href="#m3347f96284" y="211.054697"/>
     <use style="stroke:#000000;stroke-width:2;" x="86.143838" xlink:href="#m3347f96284" y="208.603052"/>
     <use style="stroke:#000000;stroke-width:2;" x="142.817676" xlink:href="#m3347f96284" y="201.023621"/>
     <use style="stroke:#000000;stroke-width:2;" x="219.719282" xlink:href="#m3347f96284" y="187.353548"/>
     <use style="stroke:#000000;stroke-width:2;" x="296.620888" xlink:href="#m3347f96284" y="159.515938"/>
    </g>
   </g>
   <g id="line2d_57">
    <path clip-path="url(#p688dc72212)" d="M 37.634535 188.960245 
L 40.101858 182.18996 
L 37.634535 153.878378 
L 44.684029 153.878378 
L 42.216706 182.18996 
L 44.684029 188.960245 
L 37.634535 188.960245 
" style="fill:none;stroke:#0000ff;stroke-linecap:square;"/>
   </g>
   <g id="line2d_58">
    <path clip-path="url(#p688dc72212)" d="M 37.634535 188.960245 
L 44.684029 188.960245 
L 44.684029 153.878378 
L 37.634535 153.878378 
L 37.634535 188.960245 
" style="fill:none;"/>
    <defs>
     <path d="M 0 1.5 
C 0.397805 1.5 0.77937 1.341951 1.06066 1.06066 
C 1.341951 0.77937 1.5 0.397805 1.5 0 
C 1.5 -0.397805 1.341951 -0.77937 1.06066 -1.06066 
C 0.77937 -1.341951 0.397805 -1.5 0 -1.5 
C -0.397805 -1.5 -0.77937 -1.341951 -1.06066 -1.06066 
C -1.341951 -0.77937 -1.5 -0.397805 -1.5 0 
C -1.5 0.397805 -1.341951 0.77937 -1.06066 1.06066 
C -0.77937 1.341951 -0.397805 1.5 0 1.5 
z
" id="m2e2a11b312" style="stroke:#0000ff;"/>
    </defs>
    <g clip-path="url(#p688dc72212)">
     <use style="fill:#0000ff;stroke:#0000ff;" x="37.634535" xlink:href="#m2e2a11b312" y="188.960245"/>
     <use style="fill:#0000ff;stroke:#0000ff;" x="44.684029" xlink:href="#m2e2a11b312" y="188.960245"/>
     <use style="fill:#0000ff;stroke:#0000ff;" x="44.684029" xlink:href="#m2e2a11b312" y="153.878378"/>
     <use style="fill:#0000ff;stroke:#0000ff;" x="37.634535" xlink:href="#m2e2a11b312" y="153.878378"/>
     <use style="fill:#0000ff;stroke:#0000ff;" x="37.634535" xlink:href="#m2e2a11b312" y="188.960245"/>
    </g>
   </g>
   <g id="line2d_59">
    <path clip-path="url(#p688dc72212)" d="M 37.634535 182.18996 
L 44.684029 182.18996 
" style="fill:none;stroke:#0000ff;stroke-linecap:square;stroke-width:2;"/>
   </g>
   <g id="line2d_60">
    <path clip-path="url(#p688dc72212)" d="M 82.619091 170.955197 
L 85.086414 156.336154 
L 82.619091 154.236403 
L 89.668585 154.236403 
L 87.201262 156.336154 
L 89.668585 170.955197 
L 82.619091 170.955197 
" style="fill:none;stroke:#0000ff;stroke-linecap:square;"/>
   </g>
   <g id="line2d_61">
    <path clip-path="url(#p688dc72212)" d="M 82.619091 170.955197 
L 89.668585 170.955197 
L 89.668585 154.236403 
L 82.619091 154.236403 
L 82.619091 170.955197 
" style="fill:none;"/>
    <g clip-path="url(#p688dc72212)">
     <use style="fill:#0000ff;stroke:#0000ff;" x="82.619091" xlink:href="#m2e2a11b312" y="170.955197"/>
     <use style="fill:#0000ff;stroke:#0000ff;" x="89.668585" xlink:href="#m2e2a11b312" y="170.955197"/>
     <use style="fill:#0000ff;stroke:#0000ff;" x="89.668585" xlink:href="#m2e2a11b312" y="154.236403"/>
     <use style="fill:#0000ff;stroke:#0000ff;" x="82.619091" xlink:href="#m2e2a11b312" y="154.236403"/>
     <use style="fill:#0000ff;stroke:#0000ff;" x="82.619091" xlink:href="#m2e2a11b312" y="170.955197"/>
    </g>
   </g>
   <g id="line2d_62">
    <path clip-path="url(#p688dc72212)" d="M 82.619091 156.336154 
L 89.668585 156.336154 
" style="fill:none;stroke:#0000ff;stroke-linecap:square;stroke-width:2;"/>
   </g>
   <g id="line2d_63">
    <path clip-path="url(#p688dc72212)" d="M 139.292929 162.464066 
L 141.760252 156.50375 
L 139.292929 152.308968 
L 146.342423 152.308968 
L 143.8751 156.50375 
L 146.342423 162.464066 
L 139.292929 162.464066 
" style="fill:none;stroke:#0000ff;stroke-linecap:square;"/>
   </g>
   <g id="line2d_64">
    <path clip-path="url(#p688dc72212)" d="M 139.292929 162.464066 
L 146.342423 162.464066 
L 146.342423 152.308968 
L 139.292929 152.308968 
L 139.292929 162.464066 
" style="fill:none;"/>
    <g clip-path="url(#p688dc72212)">
     <use style="fill:#0000ff;stroke:#0000ff;" x="139.292929" xlink:href="#m2e2a11b312" y="162.464066"/>
     <use style="fill:#0000ff;stroke:#0000ff;" x="146.342423" xlink:href="#m2e2a11b312" y="162.464066"/>
     <use style="fill:#0000ff;stroke:#0000ff;" x="146.342423" xlink:href="#m2e2a11b312" y="152.308968"/>
     <use style="fill:#0000ff;stroke:#0000ff;" x="139.292929" xlink:href="#m2e2a11b312" y="152.308968"/>
     <use style="fill:#0000ff;stroke:#0000ff;" x="139.292929" xlink:href="#m2e2a11b312" y="162.464066"/>
    </g>
   </g>
   <g id="line2d_65">
    <path clip-path="url(#p688dc72212)" d="M 139.292929 156.50375 
L 146.342423 156.50375 
" style="fill:none;stroke:#0000ff;stroke-linecap:square;stroke-width:2;"/>
   </g>
   <g id="line2d_66">
    <path clip-path="url(#p688dc72212)" d="M 216.194535 169.978407 
L 218.661858 157.065105 
L 216.194535 155.46691 
L 223.244029 155.46691 
L 220.776706 157.065105 
L 223.244029 169.978407 
L 216.194535 169.978407 
" style="fill:none;stroke:#0000ff;stroke-linecap:square;"/>
   </g>
   <g id="line2d_67">
    <path clip-path="url(#p688dc72212)" d="M 216.194535 169.978407 
L 223.244029 169.978407 
L 223.244029 155.46691 
L 216.194535 155.46691 
L 216.194535 169.978407 
" style="fill:none;"/>
    <g clip-path="url(#p688dc72212)">
     <use style="fill:#0000ff;stroke:#0000ff;" x="216.194535" xlink:href="#m2e2a11b312" y="169.978407"/>
     <use style="fill:#0000ff;stroke:#0000ff;" x="223.244029" xlink:href="#m2e2a11b312" y="169.978407"/>
     <use style="fill:#0000ff;stroke:#0000ff;" x="223.244029" xlink:href="#m2e2a11b312" y="155.46691"/>
     <use style="fill:#0000ff;stroke:#0000ff;" x="216.194535" xlink:href="#m2e2a11b312" y="155.46691"/>
     <use style="fill:#0000ff;stroke:#0000ff;" x="216.194535" xlink:href="#m2e2a11b312" y="169.978407"/>
    </g>
   </g>
   <g id="line2d_68">
    <path clip-path="url(#p688dc72212)" d="M 216.194535 157.065105 
L 223.244029 157.065105 
" style="fill:none;stroke:#0000ff;stroke-linecap:square;stroke-width:2;"/>
   </g>
   <g id="line2d_69">
    <path clip-path="url(#p688dc72212)" d="M 293.096141 148.750645 
L 295.563464 148.025621 
L 293.096141 145.236026 
L 300.145636 145.236026 
L 297.678312 148.025621 
L 300.145636 148.750645 
L 293.096141 148.750645 
" style="fill:none;stroke:#0000ff;stroke-linecap:square;"/>
   </g>
   <g id="line2d_70">
    <path clip-path="url(#p688dc72212)" d="M 293.096141 148.750645 
L 300.145636 148.750645 
L 300.145636 145.236026 
L 293.096141 145.236026 
L 293.096141 148.750645 
" style="fill:none;"/>
    <g clip-path="url(#p688dc72212)">
     <use style="fill:#0000ff;stroke:#0000ff;" x="293.096141" xlink:href="#m2e2a11b312" y="148.750645"/>
     <use style="fill:#0000ff;stroke:#0000ff;" x="300.145636" xlink:href="#m2e2a11b312" y="148.750645"/>
     <use style="fill:#0000ff;stroke:#0000ff;" x="300.145636" xlink:href="#m2e2a11b312" y="145.236026"/>
     <use style="fill:#0000ff;stroke:#0000ff;" x="293.096141" xlink:href="#m2e2a11b312" y="145.236026"/>
     <use style="fill:#0000ff;stroke:#0000ff;" x="293.096141" xlink:href="#m2e2a11b312" y="148.750645"/>
    </g>
   </g>
   <g id="line2d_71">
    <path clip-path="url(#p688dc72212)" d="M 293.096141 148.025621 
L 300.145636 148.025621 
" style="fill:none;stroke:#0000ff;stroke-linecap:square;stroke-width:2;"/>
   </g>
   <g id="line2d_72">
    <path clip-path="url(#p688dc72212)" d="M 41.159282 165.255116 
L 86.143838 159.720217 
" style="fill:none;stroke:#0000ff;stroke-linecap:square;stroke-width:4;"/>
   </g>
   <g id="line2d_73">
    <path clip-path="url(#p688dc72212)" d="M 86.143838 159.720217 
L 142.817676 160.117951 
" style="fill:none;stroke:#0000ff;stroke-linecap:square;stroke-width:4;"/>
   </g>
   <g id="line2d_74">
    <path clip-path="url(#p688dc72212)" d="M 142.817676 160.117951 
L 219.719282 157.017782 
" style="fill:none;stroke:#0000ff;stroke-linecap:square;stroke-width:4;"/>
   </g>
   <g id="line2d_75">
    <path clip-path="url(#p688dc72212)" d="M 219.719282 157.017782 
L 296.620888 146.624178 
" style="fill:none;stroke:#0000ff;stroke-linecap:square;stroke-width:4;"/>
   </g>
   <g id="line2d_76">
    <path clip-path="url(#p688dc72212)" d="M 41.159282 165.255116 
L 86.143838 159.720217 
L 142.817676 160.117951 
L 219.719282 157.017782 
L 296.620888 146.624178 
" style="fill:none;"/>
    <defs>
     <path d="M 0 5 
C 1.326016 5 2.597899 4.473168 3.535534 3.535534 
C 4.473168 2.597899 5 1.326016 5 0 
C 5 -1.326016 4.473168 -2.597899 3.535534 -3.535534 
C 2.597899 -4.473168 1.326016 -5 0 -5 
C -1.326016 -5 -2.597899 -4.473168 -3.535534 -3.535534 
C -4.473168 -2.597899 -5 -1.326016 -5 0 
C -5 1.326016 -4.473168 2.597899 -3.535534 3.535534 
C -2.597899 4.473168 -1.326016 5 0 5 
z
" id="ma0ca64a4a1" style="stroke:#0000ff;"/>
    </defs>
    <g clip-path="url(#p688dc72212)">
     <use style="fill:#0000ff;stroke:#0000ff;" x="41.159282" xlink:href="#ma0ca64a4a1" y="165.255116"/>
     <use style="fill:#0000ff;stroke:#0000ff;" x="86.143838" xlink:href="#ma0ca64a4a1" y="159.720217"/>
     <use style="fill:#0000ff;stroke:#0000ff;" x="142.817676" xlink:href="#ma0ca64a4a1" y="160.117951"/>
     <use style="fill:#0000ff;stroke:#0000ff;" x="219.719282" xlink:href="#ma0ca64a4a1" y="157.017782"/>
     <use style="fill:#0000ff;stroke:#0000ff;" x="296.620888" xlink:href="#ma0ca64a4a1" y="146.624178"/>
    </g>
   </g>
   <g id="line2d_77">
    <path clip-path="url(#p688dc72212)" d="M 36.753348 165.004446 
L 39.837502 149.153381 
L 36.753348 146.114191 
L 45.565216 146.114191 
L 42.481062 149.153381 
L 45.565216 165.004446 
L 36.753348 165.004446 
" style="fill:none;stroke:#00bfbf;stroke-linecap:square;"/>
   </g>
   <g id="line2d_78">
    <path clip-path="url(#p688dc72212)" d="M 36.753348 165.004446 
L 45.565216 165.004446 
L 45.565216 146.114191 
L 36.753348 146.114191 
L 36.753348 165.004446 
" style="fill:none;"/>
    <defs>
     <path d="M -0 3 
L 3 -3 
L -3 -3 
z
" id="ma2a3bcaf1a" style="stroke:#00bfbf;stroke-linejoin:miter;stroke-width:2;"/>
    </defs>
    <g clip-path="url(#p688dc72212)">
     <use style="fill:#00bfbf;stroke:#00bfbf;stroke-linejoin:miter;stroke-width:2;" x="36.753348" xlink:href="#ma2a3bcaf1a" y="165.004446"/>
     <use style="fill:#00bfbf;stroke:#00bfbf;stroke-linejoin:miter;stroke-width:2;" x="45.565216" xlink:href="#ma2a3bcaf1a" y="165.004446"/>
     <use style="fill:#00bfbf;stroke:#00bfbf;stroke-linejoin:miter;stroke-width:2;" x="45.565216" xlink:href="#ma2a3bcaf1a" y="146.114191"/>
     <use style="fill:#00bfbf;stroke:#00bfbf;stroke-linejoin:miter;stroke-width:2;" x="36.753348" xlink:href="#ma2a3bcaf1a" y="146.114191"/>
     <use style="fill:#00bfbf;stroke:#00bfbf;stroke-linejoin:miter;stroke-width:2;" x="36.753348" xlink:href="#ma2a3bcaf1a" y="165.004446"/>
    </g>
   </g>
   <g id="line2d_79">
    <path clip-path="url(#p688dc72212)" d="M 36.753348 149.153381 
L 45.565216 149.153381 
" style="fill:none;stroke:#00bfbf;stroke-linecap:square;stroke-width:2;"/>
   </g>
   <g id="line2d_80">
    <path clip-path="url(#p688dc72212)" d="M 81.737904 149.207128 
L 84.822058 148.311993 
L 81.737904 143.579234 
L 90.549772 143.579234 
L 87.465618 148.311993 
L 90.549772 149.207128 
L 81.737904 149.207128 
" style="fill:none;stroke:#00bfbf;stroke-linecap:square;"/>
   </g>
   <g id="line2d_81">
    <path clip-path="url(#p688dc72212)" d="M 81.737904 149.207128 
L 90.549772 149.207128 
L 90.549772 143.579234 
L 81.737904 143.579234 
L 81.737904 149.207128 
" style="fill:none;"/>
    <g clip-path="url(#p688dc72212)">
     <use style="fill:#00bfbf;stroke:#00bfbf;stroke-linejoin:miter;stroke-width:2;" x="81.737904" xlink:href="#ma2a3bcaf1a" y="149.207128"/>
     <use style="fill:#00bfbf;stroke:#00bfbf;stroke-linejoin:miter;stroke-width:2;" x="90.549772" xlink:href="#ma2a3bcaf1a" y="149.207128"/>
     <use style="fill:#00bfbf;stroke:#00bfbf;stroke-linejoin:miter;stroke-width:2;" x="90.549772" xlink:href="#ma2a3bcaf1a" y="143.579234"/>
     <use style="fill:#00bfbf;stroke:#00bfbf;stroke-linejoin:miter;stroke-width:2;" x="81.737904" xlink:href="#ma2a3bcaf1a" y="143.579234"/>
     <use style="fill:#00bfbf;stroke:#00bfbf;stroke-linejoin:miter;stroke-width:2;" x="81.737904" xlink:href="#ma2a3bcaf1a" y="149.207128"/>
    </g>
   </g>
   <g id="line2d_82">
    <path clip-path="url(#p688dc72212)" d="M 81.737904 148.311993 
L 90.549772 148.311993 
" style="fill:none;stroke:#00bfbf;stroke-linecap:square;stroke-width:2;"/>
   </g>
   <g id="line2d_83">
    <path clip-path="url(#p688dc72212)" d="M 138.411742 157.395975 
L 141.495896 153.284517 
L 138.411742 153.064776 
L 147.22361 153.064776 
L 144.139456 153.284517 
L 147.22361 157.395975 
L 138.411742 157.395975 
" style="fill:none;stroke:#00bfbf;stroke-linecap:square;"/>
   </g>
   <g id="line2d_84">
    <path clip-path="url(#p688dc72212)" d="M 138.411742 157.395975 
L 147.22361 157.395975 
L 147.22361 153.064776 
L 138.411742 153.064776 
L 138.411742 157.395975 
" style="fill:none;"/>
    <g clip-path="url(#p688dc72212)">
     <use style="fill:#00bfbf;stroke:#00bfbf;stroke-linejoin:miter;stroke-width:2;" x="138.411742" xlink:href="#ma2a3bcaf1a" y="157.395975"/>
     <use style="fill:#00bfbf;stroke:#00bfbf;stroke-linejoin:miter;stroke-width:2;" x="147.22361" xlink:href="#ma2a3bcaf1a" y="157.395975"/>
     <use style="fill:#00bfbf;stroke:#00bfbf;stroke-linejoin:miter;stroke-width:2;" x="147.22361" xlink:href="#ma2a3bcaf1a" y="153.064776"/>
     <use style="fill:#00bfbf;stroke:#00bfbf;stroke-linejoin:miter;stroke-width:2;" x="138.411742" xlink:href="#ma2a3bcaf1a" y="153.064776"/>
     <use style="fill:#00bfbf;stroke:#00bfbf;stroke-linejoin:miter;stroke-width:2;" x="138.411742" xlink:href="#ma2a3bcaf1a" y="157.395975"/>
    </g>
   </g>
   <g id="line2d_85">
    <path clip-path="url(#p688dc72212)" d="M 138.411742 153.284517 
L 147.22361 153.284517 
" style="fill:none;stroke:#00bfbf;stroke-linecap:square;stroke-width:2;"/>
   </g>
   <g id="line2d_86">
    <path clip-path="url(#p688dc72212)" d="M 215.313348 145.510119 
L 218.397502 144.28903 
L 215.313348 143.498053 
L 224.125216 143.498053 
L 221.041062 144.28903 
L 224.125216 145.510119 
L 215.313348 145.510119 
" style="fill:none;stroke:#00bfbf;stroke-linecap:square;"/>
   </g>
   <g id="line2d_87">
    <path clip-path="url(#p688dc72212)" d="M 215.313348 145.510119 
L 224.125216 145.510119 
L 224.125216 143.498053 
L 215.313348 143.498053 
L 215.313348 145.510119 
" style="fill:none;"/>
    <g clip-path="url(#p688dc72212)">
     <use style="fill:#00bfbf;stroke:#00bfbf;stroke-linejoin:miter;stroke-width:2;" x="215.313348" xlink:href="#ma2a3bcaf1a" y="145.510119"/>
     <use style="fill:#00bfbf;stroke:#00bfbf;stroke-linejoin:miter;stroke-width:2;" x="224.125216" xlink:href="#ma2a3bcaf1a" y="145.510119"/>
     <use style="fill:#00bfbf;stroke:#00bfbf;stroke-linejoin:miter;stroke-width:2;" x="224.125216" xlink:href="#ma2a3bcaf1a" y="143.498053"/>
     <use style="fill:#00bfbf;stroke:#00bfbf;stroke-linejoin:miter;stroke-width:2;" x="215.313348" xlink:href="#ma2a3bcaf1a" y="143.498053"/>
     <use style="fill:#00bfbf;stroke:#00bfbf;stroke-linejoin:miter;stroke-width:2;" x="215.313348" xlink:href="#ma2a3bcaf1a" y="145.510119"/>
    </g>
   </g>
   <g id="line2d_88">
    <path clip-path="url(#p688dc72212)" d="M 215.313348 144.28903 
L 224.125216 144.28903 
" style="fill:none;stroke:#00bfbf;stroke-linecap:square;stroke-width:2;"/>
   </g>
   <g id="line2d_89">
    <path clip-path="url(#p688dc72212)" d="M 292.214954 137.688214 
L 295.299108 137.391051 
L 292.214954 135.706747 
L 301.026822 135.706747 
L 297.942668 137.391051 
L 301.026822 137.688214 
L 292.214954 137.688214 
" style="fill:none;stroke:#00bfbf;stroke-linecap:square;"/>
   </g>
   <g id="line2d_90">
    <path clip-path="url(#p688dc72212)" d="M 292.214954 137.688214 
L 301.026822 137.688214 
L 301.026822 135.706747 
L 292.214954 135.706747 
L 292.214954 137.688214 
" style="fill:none;"/>
    <g clip-path="url(#p688dc72212)">
     <use style="fill:#00bfbf;stroke:#00bfbf;stroke-linejoin:miter;stroke-width:2;" x="292.214954" xlink:href="#ma2a3bcaf1a" y="137.688214"/>
     <use style="fill:#00bfbf;stroke:#00bfbf;stroke-linejoin:miter;stroke-width:2;" x="301.026822" xlink:href="#ma2a3bcaf1a" y="137.688214"/>
     <use style="fill:#00bfbf;stroke:#00bfbf;stroke-linejoin:miter;stroke-width:2;" x="301.026822" xlink:href="#ma2a3bcaf1a" y="135.706747"/>
     <use style="fill:#00bfbf;stroke:#00bfbf;stroke-linejoin:miter;stroke-width:2;" x="292.214954" xlink:href="#ma2a3bcaf1a" y="135.706747"/>
     <use style="fill:#00bfbf;stroke:#00bfbf;stroke-linejoin:miter;stroke-width:2;" x="292.214954" xlink:href="#ma2a3bcaf1a" y="137.688214"/>
    </g>
   </g>
   <g id="line2d_91">
    <path clip-path="url(#p688dc72212)" d="M 292.214954 137.391051 
L 301.026822 137.391051 
" style="fill:none;stroke:#00bfbf;stroke-linecap:square;stroke-width:2;"/>
   </g>
   <g id="line2d_92">
    <path clip-path="url(#p688dc72212)" d="M 41.159282 151.992815 
L 86.143838 147.957322 
" style="fill:none;stroke:#00bfbf;stroke-linecap:square;stroke-width:4;"/>
   </g>
   <g id="line2d_93">
    <path clip-path="url(#p688dc72212)" d="M 86.143838 147.957322 
L 142.817676 150.268547 
" style="fill:none;stroke:#00bfbf;stroke-linecap:square;stroke-width:4;"/>
   </g>
   <g id="line2d_94">
    <path clip-path="url(#p688dc72212)" d="M 142.817676 150.268547 
L 219.719282 145.83207 
" style="fill:none;stroke:#00bfbf;stroke-linecap:square;stroke-width:4;"/>
   </g>
   <g id="line2d_95">
    <path clip-path="url(#p688dc72212)" d="M 219.719282 145.83207 
L 296.620888 137.167772 
" style="fill:none;stroke:#00bfbf;stroke-linecap:square;stroke-width:4;"/>
   </g>
   <g id="line2d_96">
    <path clip-path="url(#p688dc72212)" d="M 41.159282 151.992815 
L 86.143838 147.957322 
L 142.817676 150.268547 
L 219.719282 145.83207 
L 296.620888 137.167772 
" style="fill:none;"/>
    <defs>
     <path d="M -0 10 
L 10 -10 
L -10 -10 
z
" id="m7e73febbc1" style="stroke:#000000;stroke-linejoin:miter;stroke-width:2;"/>
    </defs>
    <g clip-path="url(#p688dc72212)">
     <use style="fill:#00bfbf;stroke:#000000;stroke-linejoin:miter;stroke-width:2;" x="41.159282" xlink:href="#m7e73febbc1" y="151.992815"/>
     <use style="fill:#00bfbf;stroke:#000000;stroke-linejoin:miter;stroke-width:2;" x="86.143838" xlink:href="#m7e73febbc1" y="147.957322"/>
     <use style="fill:#00bfbf;stroke:#000000;stroke-linejoin:miter;stroke-width:2;" x="142.817676" xlink:href="#m7e73febbc1" y="150.268547"/>
     <use style="fill:#00bfbf;stroke:#000000;stroke-linejoin:miter;stroke-width:2;" x="219.719282" xlink:href="#m7e73febbc1" y="145.83207"/>
     <use style="fill:#00bfbf;stroke:#000000;stroke-linejoin:miter;stroke-width:2;" x="296.620888" xlink:href="#m7e73febbc1" y="137.167772"/>
    </g>
   </g>
   <g id="line2d_97">
    <path clip-path="url(#p688dc72212)" d="M 35.872161 146.653945 
L 39.573146 144.06642 
L 35.872161 141.722245 
L 46.446403 141.722245 
L 42.745418 144.06642 
L 46.446403 146.653945 
L 35.872161 146.653945 
" style="fill:none;stroke:#008000;stroke-linecap:square;"/>
   </g>
   <g id="line2d_98">
    <path clip-path="url(#p688dc72212)" d="M 35.872161 146.653945 
L 46.446403 146.653945 
L 46.446403 141.722245 
L 35.872161 141.722245 
L 35.872161 146.653945 
" style="fill:none;"/>
    <defs>
     <path d="M 0 1.5 
C 0.397805 1.5 0.77937 1.341951 1.06066 1.06066 
C 1.341951 0.77937 1.5 0.397805 1.5 0 
C 1.5 -0.397805 1.341951 -0.77937 1.06066 -1.06066 
C 0.77937 -1.341951 0.397805 -1.5 0 -1.5 
C -0.397805 -1.5 -0.77937 -1.341951 -1.06066 -1.06066 
C -1.341951 -0.77937 -1.5 -0.397805 -1.5 0 
C -1.5 0.397805 -1.341951 0.77937 -1.06066 1.06066 
C -0.77937 1.341951 -0.397805 1.5 0 1.5 
z
" id="m475b90a47f" style="stroke:#008000;"/>
    </defs>
    <g clip-path="url(#p688dc72212)">
     <use style="fill:#008000;stroke:#008000;" x="35.872161" xlink:href="#m475b90a47f" y="146.653945"/>
     <use style="fill:#008000;stroke:#008000;" x="46.446403" xlink:href="#m475b90a47f" y="146.653945"/>
     <use style="fill:#008000;stroke:#008000;" x="46.446403" xlink:href="#m475b90a47f" y="141.722245"/>
     <use style="fill:#008000;stroke:#008000;" x="35.872161" xlink:href="#m475b90a47f" y="141.722245"/>
     <use style="fill:#008000;stroke:#008000;" x="35.872161" xlink:href="#m475b90a47f" y="146.653945"/>
    </g>
   </g>
   <g id="line2d_99">
    <path clip-path="url(#p688dc72212)" d="M 35.872161 144.06642 
L 46.446403 144.06642 
" style="fill:none;stroke:#008000;stroke-linecap:square;stroke-width:2;"/>
   </g>
   <g id="line2d_100">
    <path clip-path="url(#p688dc72212)" d="M 80.856717 148.311993 
L 84.557702 144.153774 
L 80.856717 136.676383 
L 91.430959 136.676383 
L 87.729974 144.153774 
L 91.430959 148.311993 
L 80.856717 148.311993 
" style="fill:none;stroke:#008000;stroke-linecap:square;"/>
   </g>
   <g id="line2d_101">
    <path clip-path="url(#p688dc72212)" d="M 80.856717 148.311993 
L 91.430959 148.311993 
L 91.430959 136.676383 
L 80.856717 136.676383 
L 80.856717 148.311993 
" style="fill:none;"/>
    <g clip-path="url(#p688dc72212)">
     <use style="fill:#008000;stroke:#008000;" x="80.856717" xlink:href="#m475b90a47f" y="148.311993"/>
     <use style="fill:#008000;stroke:#008000;" x="91.430959" xlink:href="#m475b90a47f" y="148.311993"/>
     <use style="fill:#008000;stroke:#008000;" x="91.430959" xlink:href="#m475b90a47f" y="136.676383"/>
     <use style="fill:#008000;stroke:#008000;" x="80.856717" xlink:href="#m475b90a47f" y="136.676383"/>
     <use style="fill:#008000;stroke:#008000;" x="80.856717" xlink:href="#m475b90a47f" y="148.311993"/>
    </g>
   </g>
   <g id="line2d_102">
    <path clip-path="url(#p688dc72212)" d="M 80.856717 144.153774 
L 91.430959 144.153774 
" style="fill:none;stroke:#008000;stroke-linecap:square;stroke-width:2;"/>
   </g>
   <g id="line2d_103">
    <path clip-path="url(#p688dc72212)" d="M 137.530555 140.485414 
L 141.23154 133.382077 
L 137.530555 129.830635 
L 148.104797 129.830635 
L 144.403812 133.382077 
L 148.104797 140.485414 
L 137.530555 140.485414 
" style="fill:none;stroke:#008000;stroke-linecap:square;"/>
   </g>
   <g id="line2d_104">
    <path clip-path="url(#p688dc72212)" d="M 137.530555 140.485414 
L 148.104797 140.485414 
L 148.104797 129.830635 
L 137.530555 129.830635 
L 137.530555 140.485414 
" style="fill:none;"/>
    <g clip-path="url(#p688dc72212)">
     <use style="fill:#008000;stroke:#008000;" x="137.530555" xlink:href="#m475b90a47f" y="140.485414"/>
     <use style="fill:#008000;stroke:#008000;" x="148.104797" xlink:href="#m475b90a47f" y="140.485414"/>
     <use style="fill:#008000;stroke:#008000;" x="148.104797" xlink:href="#m475b90a47f" y="129.830635"/>
     <use style="fill:#008000;stroke:#008000;" x="137.530555" xlink:href="#m475b90a47f" y="129.830635"/>
     <use style="fill:#008000;stroke:#008000;" x="137.530555" xlink:href="#m475b90a47f" y="140.485414"/>
    </g>
   </g>
   <g id="line2d_105">
    <path clip-path="url(#p688dc72212)" d="M 137.530555 133.382077 
L 148.104797 133.382077 
" style="fill:none;stroke:#008000;stroke-linecap:square;stroke-width:2;"/>
   </g>
   <g id="line2d_106">
    <path clip-path="url(#p688dc72212)" d="M 214.432161 138.035917 
L 218.133146 137.090942 
L 214.432161 134.745823 
L 225.006403 134.745823 
L 221.305418 137.090942 
L 225.006403 138.035917 
L 214.432161 138.035917 
" style="fill:none;stroke:#008000;stroke-linecap:square;"/>
   </g>
   <g id="line2d_107">
    <path clip-path="url(#p688dc72212)" d="M 214.432161 138.035917 
L 225.006403 138.035917 
L 225.006403 134.745823 
L 214.432161 134.745823 
L 214.432161 138.035917 
" style="fill:none;"/>
    <g clip-path="url(#p688dc72212)">
     <use style="fill:#008000;stroke:#008000;" x="214.432161" xlink:href="#m475b90a47f" y="138.035917"/>
     <use style="fill:#008000;stroke:#008000;" x="225.006403" xlink:href="#m475b90a47f" y="138.035917"/>
     <use style="fill:#008000;stroke:#008000;" x="225.006403" xlink:href="#m475b90a47f" y="134.745823"/>
     <use style="fill:#008000;stroke:#008000;" x="214.432161" xlink:href="#m475b90a47f" y="134.745823"/>
     <use style="fill:#008000;stroke:#008000;" x="214.432161" xlink:href="#m475b90a47f" y="138.035917"/>
    </g>
   </g>
   <g id="line2d_108">
    <path clip-path="url(#p688dc72212)" d="M 214.432161 137.090942 
L 225.006403 137.090942 
" style="fill:none;stroke:#008000;stroke-linecap:square;stroke-width:2;"/>
   </g>
   <g id="line2d_109">
    <path clip-path="url(#p688dc72212)" d="M 291.333767 128.286141 
L 295.034752 126.89151 
L 291.333767 125.042683 
L 301.908009 125.042683 
L 298.207025 126.89151 
L 301.908009 128.286141 
L 291.333767 128.286141 
" style="fill:none;stroke:#008000;stroke-linecap:square;"/>
   </g>
   <g id="line2d_110">
    <path clip-path="url(#p688dc72212)" d="M 291.333767 128.286141 
L 301.908009 128.286141 
L 301.908009 125.042683 
L 291.333767 125.042683 
L 291.333767 128.286141 
" style="fill:none;"/>
    <g clip-path="url(#p688dc72212)">
     <use style="fill:#008000;stroke:#008000;" x="291.333767" xlink:href="#m475b90a47f" y="128.286141"/>
     <use style="fill:#008000;stroke:#008000;" x="301.908009" xlink:href="#m475b90a47f" y="128.286141"/>
     <use style="fill:#008000;stroke:#008000;" x="301.908009" xlink:href="#m475b90a47f" y="125.042683"/>
     <use style="fill:#008000;stroke:#008000;" x="291.333767" xlink:href="#m475b90a47f" y="125.042683"/>
     <use style="fill:#008000;stroke:#008000;" x="291.333767" xlink:href="#m475b90a47f" y="128.286141"/>
    </g>
   </g>
   <g id="line2d_111">
    <path clip-path="url(#p688dc72212)" d="M 291.333767 126.89151 
L 301.908009 126.89151 
" style="fill:none;stroke:#008000;stroke-linecap:square;stroke-width:2;"/>
   </g>
   <g id="line2d_112">
    <path clip-path="url(#p688dc72212)" d="M 41.159282 139.593571 
L 86.143838 133.3242 
" style="fill:none;stroke:#008000;stroke-linecap:square;stroke-width:4;"/>
   </g>
   <g id="line2d_113">
    <path clip-path="url(#p688dc72212)" d="M 86.143838 133.3242 
L 142.817676 137.526335 
" style="fill:none;stroke:#008000;stroke-linecap:square;stroke-width:4;"/>
   </g>
   <g id="line2d_114">
    <path clip-path="url(#p688dc72212)" d="M 142.817676 137.526335 
L 219.719282 135.127235 
" style="fill:none;stroke:#008000;stroke-linecap:square;stroke-width:4;"/>
   </g>
   <g id="line2d_115">
    <path clip-path="url(#p688dc72212)" d="M 219.719282 135.127235 
L 296.620888 127.615162 
" style="fill:none;stroke:#008000;stroke-linecap:square;stroke-width:4;"/>
   </g>
   <g id="line2d_116">
    <path clip-path="url(#p688dc72212)" d="M 41.159282 139.593571 
L 86.143838 133.3242 
L 142.817676 137.526335 
L 219.719282 135.127235 
L 296.620888 127.615162 
" style="fill:none;"/>
    <defs>
     <path d="M 0 5 
C 1.326016 5 2.597899 4.473168 3.535534 3.535534 
C 4.473168 2.597899 5 1.326016 5 0 
C 5 -1.326016 4.473168 -2.597899 3.535534 -3.535534 
C 2.597899 -4.473168 1.326016 -5 0 -5 
C -1.326016 -5 -2.597899 -4.473168 -3.535534 -3.535534 
C -4.473168 -2.597899 -5 -1.326016 -5 0 
C -5 1.326016 -4.473168 2.597899 -3.535534 3.535534 
C -2.597899 4.473168 -1.326016 5 0 5 
z
" id="m95b9e667c1" style="stroke:#008000;"/>
    </defs>
    <g clip-path="url(#p688dc72212)">
     <use style="fill:#008000;stroke:#008000;" x="41.159282" xlink:href="#m95b9e667c1" y="139.593571"/>
     <use style="fill:#008000;stroke:#008000;" x="86.143838" xlink:href="#m95b9e667c1" y="133.3242"/>
     <use style="fill:#008000;stroke:#008000;" x="142.817676" xlink:href="#m95b9e667c1" y="137.526335"/>
     <use style="fill:#008000;stroke:#008000;" x="219.719282" xlink:href="#m95b9e667c1" y="135.127235"/>
     <use style="fill:#008000;stroke:#008000;" x="296.620888" xlink:href="#m95b9e667c1" y="127.615162"/>
    </g>
   </g>
   <g id="line2d_117">
    <path clip-path="url(#p688dc72212)" d="M 34.990974 139.999061 
L 39.30879 125.328338 
L 34.990974 118.225152 
L 47.32759 118.225152 
L 43.009774 125.328338 
L 47.32759 139.999061 
L 34.990974 139.999061 
" style="fill:none;stroke:#bfbf00;stroke-linecap:square;"/>
   </g>
   <g id="line2d_118">
    <path clip-path="url(#p688dc72212)" d="M 34.990974 139.999061 
L 47.32759 139.999061 
L 47.32759 118.225152 
L 34.990974 118.225152 
L 34.990974 139.999061 
" style="fill:none;"/>
    <defs>
     <path d="M 0 -3 
L -3 3 
L 3 3 
z
" id="m3b7b7f1a60" style="stroke:#bfbf00;stroke-linejoin:miter;stroke-width:2;"/>
    </defs>
    <g clip-path="url(#p688dc72212)">
     <use style="fill:#bfbf00;stroke:#bfbf00;stroke-linejoin:miter;stroke-width:2;" x="34.990974" xlink:href="#m3b7b7f1a60" y="139.999061"/>
     <use style="fill:#bfbf00;stroke:#bfbf00;stroke-linejoin:miter;stroke-width:2;" x="47.32759" xlink:href="#m3b7b7f1a60" y="139.999061"/>
     <use style="fill:#bfbf00;stroke:#bfbf00;stroke-linejoin:miter;stroke-width:2;" x="47.32759" xlink:href="#m3b7b7f1a60" y="118.225152"/>
     <use style="fill:#bfbf00;stroke:#bfbf00;stroke-linejoin:miter;stroke-width:2;" x="34.990974" xlink:href="#m3b7b7f1a60" y="118.225152"/>
     <use style="fill:#bfbf00;stroke:#bfbf00;stroke-linejoin:miter;stroke-width:2;" x="34.990974" xlink:href="#m3b7b7f1a60" y="139.999061"/>
    </g>
   </g>
   <g id="line2d_119">
    <path clip-path="url(#p688dc72212)" d="M 34.990974 125.328338 
L 47.32759 125.328338 
" style="fill:none;stroke:#bfbf00;stroke-linecap:square;stroke-width:2;"/>
   </g>
   <g id="line2d_120">
    <path clip-path="url(#p688dc72212)" d="M 79.97553 132.439858 
L 84.293346 124.022752 
L 79.97553 122.414137 
L 92.312146 122.414137 
L 87.99433 124.022752 
L 92.312146 132.439858 
L 79.97553 132.439858 
" style="fill:none;stroke:#bfbf00;stroke-linecap:square;"/>
   </g>
   <g id="line2d_121">
    <path clip-path="url(#p688dc72212)" d="M 79.97553 132.439858 
L 92.312146 132.439858 
L 92.312146 122.414137 
L 79.97553 122.414137 
L 79.97553 132.439858 
" style="fill:none;"/>
    <g clip-path="url(#p688dc72212)">
     <use style="fill:#bfbf00;stroke:#bfbf00;stroke-linejoin:miter;stroke-width:2;" x="79.97553" xlink:href="#m3b7b7f1a60" y="132.439858"/>
     <use style="fill:#bfbf00;stroke:#bfbf00;stroke-linejoin:miter;stroke-width:2;" x="92.312146" xlink:href="#m3b7b7f1a60" y="132.439858"/>
     <use style="fill:#bfbf00;stroke:#bfbf00;stroke-linejoin:miter;stroke-width:2;" x="92.312146" xlink:href="#m3b7b7f1a60" y="122.414137"/>
     <use style="fill:#bfbf00;stroke:#bfbf00;stroke-linejoin:miter;stroke-width:2;" x="79.97553" xlink:href="#m3b7b7f1a60" y="122.414137"/>
     <use style="fill:#bfbf00;stroke:#bfbf00;stroke-linejoin:miter;stroke-width:2;" x="79.97553" xlink:href="#m3b7b7f1a60" y="132.439858"/>
    </g>
   </g>
   <g id="line2d_122">
    <path clip-path="url(#p688dc72212)" d="M 79.97553 124.022752 
L 92.312146 124.022752 
" style="fill:none;stroke:#bfbf00;stroke-linecap:square;stroke-width:2;"/>
   </g>
   <g id="line2d_123">
    <path clip-path="url(#p688dc72212)" d="M 136.649368 132.731032 
L 140.967184 122.293128 
L 136.649368 119.608293 
L 148.985984 119.608293 
L 144.668168 122.293128 
L 148.985984 132.731032 
L 136.649368 132.731032 
" style="fill:none;stroke:#bfbf00;stroke-linecap:square;"/>
   </g>
   <g id="line2d_124">
    <path clip-path="url(#p688dc72212)" d="M 136.649368 132.731032 
L 148.985984 132.731032 
L 148.985984 119.608293 
L 136.649368 119.608293 
L 136.649368 132.731032 
" style="fill:none;"/>
    <g clip-path="url(#p688dc72212)">
     <use style="fill:#bfbf00;stroke:#bfbf00;stroke-linejoin:miter;stroke-width:2;" x="136.649368" xlink:href="#m3b7b7f1a60" y="132.731032"/>
     <use style="fill:#bfbf00;stroke:#bfbf00;stroke-linejoin:miter;stroke-width:2;" x="148.985984" xlink:href="#m3b7b7f1a60" y="132.731032"/>
     <use style="fill:#bfbf00;stroke:#bfbf00;stroke-linejoin:miter;stroke-width:2;" x="148.985984" xlink:href="#m3b7b7f1a60" y="119.608293"/>
     <use style="fill:#bfbf00;stroke:#bfbf00;stroke-linejoin:miter;stroke-width:2;" x="136.649368" xlink:href="#m3b7b7f1a60" y="119.608293"/>
     <use style="fill:#bfbf00;stroke:#bfbf00;stroke-linejoin:miter;stroke-width:2;" x="136.649368" xlink:href="#m3b7b7f1a60" y="132.731032"/>
    </g>
   </g>
   <g id="line2d_125">
    <path clip-path="url(#p688dc72212)" d="M 136.649368 122.293128 
L 148.985984 122.293128 
" style="fill:none;stroke:#bfbf00;stroke-linecap:square;stroke-width:2;"/>
   </g>
   <g id="line2d_126">
    <path clip-path="url(#p688dc72212)" d="M 213.550974 124.440186 
L 217.86879 122.634275 
L 213.550974 120.347389 
L 225.88759 120.347389 
L 221.569774 122.634275 
L 225.88759 124.440186 
L 213.550974 124.440186 
" style="fill:none;stroke:#bfbf00;stroke-linecap:square;"/>
   </g>
   <g id="line2d_127">
    <path clip-path="url(#p688dc72212)" d="M 213.550974 124.440186 
L 225.88759 124.440186 
L 225.88759 120.347389 
L 213.550974 120.347389 
L 213.550974 124.440186 
" style="fill:none;"/>
    <g clip-path="url(#p688dc72212)">
     <use style="fill:#bfbf00;stroke:#bfbf00;stroke-linejoin:miter;stroke-width:2;" x="213.550974" xlink:href="#m3b7b7f1a60" y="124.440186"/>
     <use style="fill:#bfbf00;stroke:#bfbf00;stroke-linejoin:miter;stroke-width:2;" x="225.88759" xlink:href="#m3b7b7f1a60" y="124.440186"/>
     <use style="fill:#bfbf00;stroke:#bfbf00;stroke-linejoin:miter;stroke-width:2;" x="225.88759" xlink:href="#m3b7b7f1a60" y="120.347389"/>
     <use style="fill:#bfbf00;stroke:#bfbf00;stroke-linejoin:miter;stroke-width:2;" x="213.550974" xlink:href="#m3b7b7f1a60" y="120.347389"/>
     <use style="fill:#bfbf00;stroke:#bfbf00;stroke-linejoin:miter;stroke-width:2;" x="213.550974" xlink:href="#m3b7b7f1a60" y="124.440186"/>
    </g>
   </g>
   <g id="line2d_128">
    <path clip-path="url(#p688dc72212)" d="M 213.550974 122.634275 
L 225.88759 122.634275 
" style="fill:none;stroke:#bfbf00;stroke-linecap:square;stroke-width:2;"/>
   </g>
   <g id="line2d_129">
    <path clip-path="url(#p688dc72212)" d="M 290.452581 115.938496 
L 294.770396 115.077987 
L 290.452581 112.653127 
L 302.789196 112.653127 
L 298.471381 115.077987 
L 302.789196 115.938496 
L 290.452581 115.938496 
" style="fill:none;stroke:#bfbf00;stroke-linecap:square;"/>
   </g>
   <g id="line2d_130">
    <path clip-path="url(#p688dc72212)" d="M 290.452581 115.938496 
L 302.789196 115.938496 
L 302.789196 112.653127 
L 290.452581 112.653127 
L 290.452581 115.938496 
" style="fill:none;"/>
    <g clip-path="url(#p688dc72212)">
     <use style="fill:#bfbf00;stroke:#bfbf00;stroke-linejoin:miter;stroke-width:2;" x="290.452581" xlink:href="#m3b7b7f1a60" y="115.938496"/>
     <use style="fill:#bfbf00;stroke:#bfbf00;stroke-linejoin:miter;stroke-width:2;" x="302.789196" xlink:href="#m3b7b7f1a60" y="115.938496"/>
     <use style="fill:#bfbf00;stroke:#bfbf00;stroke-linejoin:miter;stroke-width:2;" x="302.789196" xlink:href="#m3b7b7f1a60" y="112.653127"/>
     <use style="fill:#bfbf00;stroke:#bfbf00;stroke-linejoin:miter;stroke-width:2;" x="290.452581" xlink:href="#m3b7b7f1a60" y="112.653127"/>
     <use style="fill:#bfbf00;stroke:#bfbf00;stroke-linejoin:miter;stroke-width:2;" x="290.452581" xlink:href="#m3b7b7f1a60" y="115.938496"/>
    </g>
   </g>
   <g id="line2d_131">
    <path clip-path="url(#p688dc72212)" d="M 290.452581 115.077987 
L 302.789196 115.077987 
" style="fill:none;stroke:#bfbf00;stroke-linecap:square;stroke-width:2;"/>
   </g>
   <g id="line2d_132">
    <path clip-path="url(#p688dc72212)" d="M 41.159282 124.415468 
L 86.143838 122.659251 
" style="fill:none;stroke:#bfbf00;stroke-linecap:square;stroke-width:4;"/>
   </g>
   <g id="line2d_133">
    <path clip-path="url(#p688dc72212)" d="M 86.143838 122.659251 
L 142.817676 122.483854 
" style="fill:none;stroke:#bfbf00;stroke-linecap:square;stroke-width:4;"/>
   </g>
   <g id="line2d_134">
    <path clip-path="url(#p688dc72212)" d="M 142.817676 122.483854 
L 219.719282 120.228346 
" style="fill:none;stroke:#bfbf00;stroke-linecap:square;stroke-width:4;"/>
   </g>
   <g id="line2d_135">
    <path clip-path="url(#p688dc72212)" d="M 219.719282 120.228346 
L 296.620888 115.387901 
" style="fill:none;stroke:#bfbf00;stroke-linecap:square;stroke-width:4;"/>
   </g>
   <g id="line2d_136">
    <path clip-path="url(#p688dc72212)" d="M 41.159282 124.415468 
L 86.143838 122.659251 
L 142.817676 122.483854 
L 219.719282 120.228346 
L 296.620888 115.387901 
" style="fill:none;"/>
    <defs>
     <path d="M 0 -10 
L -10 10 
L 10 10 
z
" id="md055e89ff0" style="stroke:#000000;stroke-linejoin:miter;stroke-width:2;"/>
    </defs>
    <g clip-path="url(#p688dc72212)">
     <use style="fill:#bfbf00;stroke:#000000;stroke-linejoin:miter;stroke-width:2;" x="41.159282" xlink:href="#md055e89ff0" y="124.415468"/>
     <use style="fill:#bfbf00;stroke:#000000;stroke-linejoin:miter;stroke-width:2;" x="86.143838" xlink:href="#md055e89ff0" y="122.659251"/>
     <use style="fill:#bfbf00;stroke:#000000;stroke-linejoin:miter;stroke-width:2;" x="142.817676" xlink:href="#md055e89ff0" y="122.483854"/>
     <use style="fill:#bfbf00;stroke:#000000;stroke-linejoin:miter;stroke-width:2;" x="219.719282" xlink:href="#md055e89ff0" y="120.228346"/>
     <use style="fill:#bfbf00;stroke:#000000;stroke-linejoin:miter;stroke-width:2;" x="296.620888" xlink:href="#md055e89ff0" y="115.387901"/>
    </g>
   </g>
   <g id="line2d_137">
    <path clip-path="url(#p688dc72212)" d="M 34.109787 88.755891 
L 39.044434 83.423528 
L 34.109787 73.418688 
L 48.208777 73.418688 
L 43.27413 83.423528 
L 48.208777 88.755891 
L 34.109787 88.755891 
" style="fill:none;stroke:#bf00bf;stroke-linecap:square;"/>
   </g>
   <g id="line2d_138">
    <path clip-path="url(#p688dc72212)" d="M 34.109787 88.755891 
L 48.208777 88.755891 
L 48.208777 73.418688 
L 34.109787 73.418688 
L 34.109787 88.755891 
" style="fill:none;"/>
    <defs>
     <path d="M 0 1.5 
C 0.397805 1.5 0.77937 1.341951 1.06066 1.06066 
C 1.341951 0.77937 1.5 0.397805 1.5 0 
C 1.5 -0.397805 1.341951 -0.77937 1.06066 -1.06066 
C 0.77937 -1.341951 0.397805 -1.5 0 -1.5 
C -0.397805 -1.5 -0.77937 -1.341951 -1.06066 -1.06066 
C -1.341951 -0.77937 -1.5 -0.397805 -1.5 0 
C -1.5 0.397805 -1.341951 0.77937 -1.06066 1.06066 
C -0.77937 1.341951 -0.397805 1.5 0 1.5 
z
" id="m731409e878" style="stroke:#bf00bf;"/>
    </defs>
    <g clip-path="url(#p688dc72212)">
     <use style="fill:#bf00bf;stroke:#bf00bf;" x="34.109787" xlink:href="#m731409e878" y="88.755891"/>
     <use style="fill:#bf00bf;stroke:#bf00bf;" x="48.208777" xlink:href="#m731409e878" y="88.755891"/>
     <use style="fill:#bf00bf;stroke:#bf00bf;" x="48.208777" xlink:href="#m731409e878" y="73.418688"/>
     <use style="fill:#bf00bf;stroke:#bf00bf;" x="34.109787" xlink:href="#m731409e878" y="73.418688"/>
     <use style="fill:#bf00bf;stroke:#bf00bf;" x="34.109787" xlink:href="#m731409e878" y="88.755891"/>
    </g>
   </g>
   <g id="line2d_139">
    <path clip-path="url(#p688dc72212)" d="M 34.109787 83.423528 
L 48.208777 83.423528 
" style="fill:none;stroke:#bf00bf;stroke-linecap:square;stroke-width:2;"/>
   </g>
   <g id="line2d_140">
    <path clip-path="url(#p688dc72212)" d="M 79.094343 88.774533 
L 84.02899 75.378606 
L 79.094343 68.225319 
L 93.193332 68.225319 
L 88.258686 75.378606 
L 93.193332 88.774533 
L 79.094343 88.774533 
" style="fill:none;stroke:#bf00bf;stroke-linecap:square;"/>
   </g>
   <g id="line2d_141">
    <path clip-path="url(#p688dc72212)" d="M 79.094343 88.774533 
L 93.193332 88.774533 
L 93.193332 68.225319 
L 79.094343 68.225319 
L 79.094343 88.774533 
" style="fill:none;"/>
    <g clip-path="url(#p688dc72212)">
     <use style="fill:#bf00bf;stroke:#bf00bf;" x="79.094343" xlink:href="#m731409e878" y="88.774533"/>
     <use style="fill:#bf00bf;stroke:#bf00bf;" x="93.193332" xlink:href="#m731409e878" y="88.774533"/>
     <use style="fill:#bf00bf;stroke:#bf00bf;" x="93.193332" xlink:href="#m731409e878" y="68.225319"/>
     <use style="fill:#bf00bf;stroke:#bf00bf;" x="79.094343" xlink:href="#m731409e878" y="68.225319"/>
     <use style="fill:#bf00bf;stroke:#bf00bf;" x="79.094343" xlink:href="#m731409e878" y="88.774533"/>
    </g>
   </g>
   <g id="line2d_142">
    <path clip-path="url(#p688dc72212)" d="M 79.094343 75.378606 
L 93.193332 75.378606 
" style="fill:none;stroke:#bf00bf;stroke-linecap:square;stroke-width:2;"/>
   </g>
   <g id="line2d_143">
    <path clip-path="url(#p688dc72212)" d="M 41.159282 71.039119 
L 86.143838 68.925243 
" style="fill:none;stroke:#bf00bf;stroke-linecap:square;stroke-width:4;"/>
   </g>
   <g id="line2d_144">
    <path clip-path="url(#p688dc72212)" d="M 41.159282 71.039119 
L 86.143838 68.925243 
" style="fill:none;"/>
    <defs>
     <path d="M 0 5 
C 1.326016 5 2.597899 4.473168 3.535534 3.535534 
C 4.473168 2.597899 5 1.326016 5 0 
C 5 -1.326016 4.473168 -2.597899 3.535534 -3.535534 
C 2.597899 -4.473168 1.326016 -5 0 -5 
C -1.326016 -5 -2.597899 -4.473168 -3.535534 -3.535534 
C -4.473168 -2.597899 -5 -1.326016 -5 0 
C -5 1.326016 -4.473168 2.597899 -3.535534 3.535534 
C -2.597899 4.473168 -1.326016 5 0 5 
z
" id="mc9266a8af3" style="stroke:#bf00bf;"/>
    </defs>
    <g clip-path="url(#p688dc72212)">
     <use style="fill:#bf00bf;stroke:#bf00bf;" x="41.159282" xlink:href="#mc9266a8af3" y="71.039119"/>
     <use style="fill:#bf00bf;stroke:#bf00bf;" x="86.143838" xlink:href="#mc9266a8af3" y="68.925243"/>
    </g>
   </g>
   <g id="line2d_145"/>
   <g id="line2d_146"/>
   <g id="line2d_147"/>
   <g id="line2d_148"/>
   <g id="line2d_149"/>
   <g id="line2d_150"/>
   <g id="line2d_151"/>
   <g id="line2d_152">
    <defs>
     <path d="M -10 10 
L 10 -10 
M -10 -10 
L 10 10 
" id="m7fcef82362" style="stroke:#ff0000;"/>
    </defs>
    <g clip-path="url(#p688dc72212)">
     <use style="fill:#ff0000;stroke:#ff0000;" x="41.159282" xlink:href="#m7fcef82362" y="108.589438"/>
     <use style="fill:#ff0000;stroke:#ff0000;" x="86.143838" xlink:href="#m7fcef82362" y="107.046567"/>
     <use style="fill:#ff0000;stroke:#ff0000;" x="142.817676" xlink:href="#m7fcef82362" y="106.665727"/>
     <use style="fill:#ff0000;stroke:#ff0000;" x="219.719282" xlink:href="#m7fcef82362" y="106.996175"/>
     <use style="fill:#ff0000;stroke:#ff0000;" x="296.620888" xlink:href="#m7fcef82362" y="106.45506"/>
    </g>
   </g>
   <g id="line2d_153">
    <path clip-path="url(#p688dc72212)" d="M -1 333.215822 
L 403.205 274.735739 
" style="fill:none;stroke:#000000;stroke-dasharray:0.5,0.825;stroke-dashoffset:0;stroke-width:0.5;"/>
   </g>
   <g id="line2d_154">
    <path clip-path="url(#p688dc72212)" d="M -1 259.295827 
L 403.205 200.815744 
" style="fill:none;stroke:#000000;stroke-dasharray:0.5,0.825;stroke-dashoffset:0;stroke-width:0.5;"/>
   </g>
   <g id="line2d_155">
    <path clip-path="url(#p688dc72212)" d="M -1 185.375831 
L 403.205 126.895748 
" style="fill:none;stroke:#000000;stroke-dasharray:0.5,0.825;stroke-dashoffset:0;stroke-width:0.5;"/>
   </g>
   <g id="line2d_156">
    <path clip-path="url(#p688dc72212)" d="M -1 111.455836 
L 403.205 52.975753 
" style="fill:none;stroke:#000000;stroke-dasharray:0.5,0.825;stroke-dashoffset:0;stroke-width:0.5;"/>
   </g>
   <g id="line2d_157">
    <path clip-path="url(#p688dc72212)" d="M -1 37.53584 
L 265.353577 -1 
" style="fill:none;stroke:#000000;stroke-dasharray:0.5,0.825;stroke-dashoffset:0;stroke-width:0.5;"/>
   </g>
   <g id="patch_3">
    <path d="M 29.47 297.54825 
L 29.47 31.43625 
" style="fill:none;stroke:#000000;stroke-linecap:square;stroke-linejoin:miter;stroke-width:0.8;"/>
   </g>
   <g id="patch_4">
    <path d="M 386.59 297.54825 
L 386.59 31.43625 
" style="fill:none;stroke:#000000;stroke-linecap:square;stroke-linejoin:miter;stroke-width:0.8;"/>
   </g>
   <g id="patch_5">
    <path d="M 29.47 297.54825 
L 386.59 297.54825 
" style="fill:none;stroke:#000000;stroke-linecap:square;stroke-linejoin:miter;stroke-width:0.8;"/>
   </g>
   <g id="patch_6">
    <path d="M 29.47 31.43625 
L 386.59 31.43625 
" style="fill:none;stroke:#000000;stroke-linecap:square;stroke-linejoin:miter;stroke-width:0.8;"/>
   </g>
   <g id="text_15">
    <!-- 1 -->
    <g transform="translate(34.669532 60.288224)scale(0.204 -0.204)">
     <use xlink:href="#DejaVuSans-31"/>
    </g>
   </g>
   <g id="text_16">
    <!-- 1 -->
    <g transform="translate(79.654088 58.174348)scale(0.204 -0.204)">
     <use xlink:href="#DejaVuSans-31"/>
    </g>
   </g>
   <g id="text_17">
    <!-- 15 instances -->
    <defs>
     <path id="DejaVuSans-20"/>
     <path d="M 9.421875 54.6875 
L 18.40625 54.6875 
L 18.40625 0 
L 9.421875 0 
z
M 9.421875 75.984375 
L 18.40625 75.984375 
L 18.40625 64.59375 
L 9.421875 64.59375 
z
" id="DejaVuSans-69"/>
     <path d="M 54.890625 33.015625 
L 54.890625 0 
L 45.90625 0 
L 45.90625 32.71875 
Q 45.90625 40.484375 42.875 44.328125 
Q 39.84375 48.1875 33.796875 48.1875 
Q 26.515625 48.1875 22.3125 43.546875 
Q 18.109375 38.921875 18.109375 30.90625 
L 18.109375 0 
L 9.078125 0 
L 9.078125 54.6875 
L 18.109375 54.6875 
L 18.109375 46.1875 
Q 21.34375 51.125 25.703125 53.5625 
Q 30.078125 56 35.796875 56 
Q 45.21875 56 50.046875 50.171875 
Q 54.890625 44.34375 54.890625 33.015625 
z
" id="DejaVuSans-6e"/>
     <path d="M 44.28125 53.078125 
L 44.28125 44.578125 
Q 40.484375 46.53125 36.375 47.5 
Q 32.28125 48.484375 27.875 48.484375 
Q 21.1875 48.484375 17.84375 46.4375 
Q 14.5 44.390625 14.5 40.28125 
Q 14.5 37.15625 16.890625 35.375 
Q 19.28125 33.59375 26.515625 31.984375 
L 29.59375 31.296875 
Q 39.15625 29.25 43.1875 25.515625 
Q 47.21875 21.78125 47.21875 15.09375 
Q 47.21875 7.46875 41.1875 3.015625 
Q 35.15625 -1.421875 24.609375 -1.421875 
Q 20.21875 -1.421875 15.453125 -0.5625 
Q 10.6875 0.296875 5.421875 2 
L 5.421875 11.28125 
Q 10.40625 8.6875 15.234375 7.390625 
Q 20.0625 6.109375 24.8125 6.109375 
Q 31.15625 6.109375 34.5625 8.28125 
Q 37.984375 10.453125 37.984375 14.40625 
Q 37.984375 18.0625 35.515625 20.015625 
Q 33.0625 21.96875 24.703125 23.78125 
L 21.578125 24.515625 
Q 13.234375 26.265625 9.515625 29.90625 
Q 5.8125 33.546875 5.8125 39.890625 
Q 5.8125 47.609375 11.28125 51.796875 
Q 16.75 56 26.8125 56 
Q 31.78125 56 36.171875 55.265625 
Q 40.578125 54.546875 44.28125 53.078125 
z
" id="DejaVuSans-73"/>
     <path d="M 18.3125 70.21875 
L 18.3125 54.6875 
L 36.8125 54.6875 
L 36.8125 47.703125 
L 18.3125 47.703125 
L 18.3125 18.015625 
Q 18.3125 11.328125 20.140625 9.421875 
Q 21.96875 7.515625 27.59375 7.515625 
L 36.8125 7.515625 
L 36.8125 0 
L 27.59375 0 
Q 17.1875 0 13.234375 3.875 
Q 9.28125 7.765625 9.28125 18.015625 
L 9.28125 47.703125 
L 2.6875 47.703125 
L 2.6875 54.6875 
L 9.28125 54.6875 
L 9.28125 70.21875 
z
" id="DejaVuSans-74"/>
     <path d="M 34.28125 27.484375 
Q 23.390625 27.484375 19.1875 25 
Q 14.984375 22.515625 14.984375 16.5 
Q 14.984375 11.71875 18.140625 8.90625 
Q 21.296875 6.109375 26.703125 6.109375 
Q 34.1875 6.109375 38.703125 11.40625 
Q 43.21875 16.703125 43.21875 25.484375 
L 43.21875 27.484375 
z
M 52.203125 31.203125 
L 52.203125 0 
L 43.21875 0 
L 43.21875 8.296875 
Q 40.140625 3.328125 35.546875 0.953125 
Q 30.953125 -1.421875 24.3125 -1.421875 
Q 15.921875 -1.421875 10.953125 3.296875 
Q 6 8.015625 6 15.921875 
Q 6 25.140625 12.171875 29.828125 
Q 18.359375 34.515625 30.609375 34.515625 
L 43.21875 34.515625 
L 43.21875 35.40625 
Q 43.21875 41.609375 39.140625 45 
Q 35.0625 48.390625 27.6875 48.390625 
Q 23 48.390625 18.546875 47.265625 
Q 14.109375 46.140625 10.015625 43.890625 
L 10.015625 52.203125 
Q 14.9375 54.109375 19.578125 55.046875 
Q 24.21875 56 28.609375 56 
Q 40.484375 56 46.34375 49.84375 
Q 52.203125 43.703125 52.203125 31.203125 
z
" id="DejaVuSans-61"/>
     <path d="M 48.78125 52.59375 
L 48.78125 44.1875 
Q 44.96875 46.296875 41.140625 47.34375 
Q 37.3125 48.390625 33.40625 48.390625 
Q 24.65625 48.390625 19.8125 42.84375 
Q 14.984375 37.3125 14.984375 27.296875 
Q 14.984375 17.28125 19.8125 11.734375 
Q 24.65625 6.203125 33.40625 6.203125 
Q 37.3125 6.203125 41.140625 7.25 
Q 44.96875 8.296875 48.78125 10.40625 
L 48.78125 2.09375 
Q 45.015625 0.34375 40.984375 -0.53125 
Q 36.96875 -1.421875 32.421875 -1.421875 
Q 20.0625 -1.421875 12.78125 6.34375 
Q 5.515625 14.109375 5.515625 27.296875 
Q 5.515625 40.671875 12.859375 48.328125 
Q 20.21875 56 33.015625 56 
Q 37.15625 56 41.109375 55.140625 
Q 45.0625 54.296875 48.78125 52.59375 
z
" id="DejaVuSans-63"/>
     <path d="M 56.203125 29.59375 
L 56.203125 25.203125 
L 14.890625 25.203125 
Q 15.484375 15.921875 20.484375 11.0625 
Q 25.484375 6.203125 34.421875 6.203125 
Q 39.59375 6.203125 44.453125 7.46875 
Q 49.3125 8.734375 54.109375 11.28125 
L 54.109375 2.78125 
Q 49.265625 0.734375 44.1875 -0.34375 
Q 39.109375 -1.421875 33.890625 -1.421875 
Q 20.796875 -1.421875 13.15625 6.1875 
Q 5.515625 13.8125 5.515625 26.8125 
Q 5.515625 40.234375 12.765625 48.109375 
Q 20.015625 56 32.328125 56 
Q 43.359375 56 49.78125 48.890625 
Q 56.203125 41.796875 56.203125 29.59375 
z
M 47.21875 32.234375 
Q 47.125 39.59375 43.09375 43.984375 
Q 39.0625 48.390625 32.421875 48.390625 
Q 24.90625 48.390625 20.390625 44.140625 
Q 15.875 39.890625 15.1875 32.171875 
z
" id="DejaVuSans-65"/>
    </defs>
    <g transform="translate(29.47 278.95975)scale(0.14 -0.14)">
     <use xlink:href="#DejaVuSans-31"/>
     <use x="63.623047" xlink:href="#DejaVuSans-35"/>
     <use x="127.246094" xlink:href="#DejaVuSans-20"/>
     <use x="159.033203" xlink:href="#DejaVuSans-69"/>
     <use x="186.816406" xlink:href="#DejaVuSans-6e"/>
     <use x="250.195312" xlink:href="#DejaVuSans-73"/>
     <use x="302.294922" xlink:href="#DejaVuSans-74"/>
     <use x="341.503906" xlink:href="#DejaVuSans-61"/>
     <use x="402.783203" xlink:href="#DejaVuSans-6e"/>
     <use x="466.162109" xlink:href="#DejaVuSans-63"/>
     <use x="521.142578" xlink:href="#DejaVuSans-65"/>
     <use x="582.666016" xlink:href="#DejaVuSans-73"/>
    </g>
    <!-- absolute targets -->
    <defs>
     <path d="M 48.6875 27.296875 
Q 48.6875 37.203125 44.609375 42.84375 
Q 40.53125 48.484375 33.40625 48.484375 
Q 26.265625 48.484375 22.1875 42.84375 
Q 18.109375 37.203125 18.109375 27.296875 
Q 18.109375 17.390625 22.1875 11.75 
Q 26.265625 6.109375 33.40625 6.109375 
Q 40.53125 6.109375 44.609375 11.75 
Q 48.6875 17.390625 48.6875 27.296875 
z
M 18.109375 46.390625 
Q 20.953125 51.265625 25.265625 53.625 
Q 29.59375 56 35.59375 56 
Q 45.5625 56 51.78125 48.09375 
Q 58.015625 40.1875 58.015625 27.296875 
Q 58.015625 14.40625 51.78125 6.484375 
Q 45.5625 -1.421875 35.59375 -1.421875 
Q 29.59375 -1.421875 25.265625 0.953125 
Q 20.953125 3.328125 18.109375 8.203125 
L 18.109375 0 
L 9.078125 0 
L 9.078125 75.984375 
L 18.109375 75.984375 
z
" id="DejaVuSans-62"/>
     <path d="M 30.609375 48.390625 
Q 23.390625 48.390625 19.1875 42.75 
Q 14.984375 37.109375 14.984375 27.296875 
Q 14.984375 17.484375 19.15625 11.84375 
Q 23.34375 6.203125 30.609375 6.203125 
Q 37.796875 6.203125 41.984375 11.859375 
Q 46.1875 17.53125 46.1875 27.296875 
Q 46.1875 37.015625 41.984375 42.703125 
Q 37.796875 48.390625 30.609375 48.390625 
z
M 30.609375 56 
Q 42.328125 56 49.015625 48.375 
Q 55.71875 40.765625 55.71875 27.296875 
Q 55.71875 13.875 49.015625 6.21875 
Q 42.328125 -1.421875 30.609375 -1.421875 
Q 18.84375 -1.421875 12.171875 6.21875 
Q 5.515625 13.875 5.515625 27.296875 
Q 5.515625 40.765625 12.171875 48.375 
Q 18.84375 56 30.609375 56 
z
" id="DejaVuSans-6f"/>
     <path d="M 9.421875 75.984375 
L 18.40625 75.984375 
L 18.40625 0 
L 9.421875 0 
z
" id="DejaVuSans-6c"/>
     <path d="M 8.5 21.578125 
L 8.5 54.6875 
L 17.484375 54.6875 
L 17.484375 21.921875 
Q 17.484375 14.15625 20.5 10.265625 
Q 23.53125 6.390625 29.59375 6.390625 
Q 36.859375 6.390625 41.078125 11.03125 
Q 45.3125 15.671875 45.3125 23.6875 
L 45.3125 54.6875 
L 54.296875 54.6875 
L 54.296875 0 
L 45.3125 0 
L 45.3125 8.40625 
Q 42.046875 3.421875 37.71875 1 
Q 33.40625 -1.421875 27.6875 -1.421875 
Q 18.265625 -1.421875 13.375 4.4375 
Q 8.5 10.296875 8.5 21.578125 
z
M 31.109375 56 
z
" id="DejaVuSans-75"/>
     <path d="M 41.109375 46.296875 
Q 39.59375 47.171875 37.8125 47.578125 
Q 36.03125 48 33.890625 48 
Q 26.265625 48 22.1875 43.046875 
Q 18.109375 38.09375 18.109375 28.8125 
L 18.109375 0 
L 9.078125 0 
L 9.078125 54.6875 
L 18.109375 54.6875 
L 18.109375 46.1875 
Q 20.953125 51.171875 25.484375 53.578125 
Q 30.03125 56 36.53125 56 
Q 37.453125 56 38.578125 55.875 
Q 39.703125 55.765625 41.0625 55.515625 
z
" id="DejaVuSans-72"/>
     <path d="M 45.40625 27.984375 
Q 45.40625 37.75 41.375 43.109375 
Q 37.359375 48.484375 30.078125 48.484375 
Q 22.859375 48.484375 18.828125 43.109375 
Q 14.796875 37.75 14.796875 27.984375 
Q 14.796875 18.265625 18.828125 12.890625 
Q 22.859375 7.515625 30.078125 7.515625 
Q 37.359375 7.515625 41.375 12.890625 
Q 45.40625 18.265625 45.40625 27.984375 
z
M 54.390625 6.78125 
Q 54.390625 -7.171875 48.1875 -13.984375 
Q 42 -20.796875 29.203125 -20.796875 
Q 24.46875 -20.796875 20.265625 -20.09375 
Q 16.0625 -19.390625 12.109375 -17.921875 
L 12.109375 -9.1875 
Q 16.0625 -11.328125 19.921875 -12.34375 
Q 23.78125 -13.375 27.78125 -13.375 
Q 36.625 -13.375 41.015625 -8.765625 
Q 45.40625 -4.15625 45.40625 5.171875 
L 45.40625 9.625 
Q 42.625 4.78125 38.28125 2.390625 
Q 33.9375 0 27.875 0 
Q 17.828125 0 11.671875 7.65625 
Q 5.515625 15.328125 5.515625 27.984375 
Q 5.515625 40.671875 11.671875 48.328125 
Q 17.828125 56 27.875 56 
Q 33.9375 56 38.28125 53.609375 
Q 42.625 51.21875 45.40625 46.390625 
L 45.40625 54.6875 
L 54.390625 54.6875 
z
" id="DejaVuSans-67"/>
    </defs>
    <g transform="translate(29.47 294.636687)scale(0.14 -0.14)">
     <use xlink:href="#DejaVuSans-61"/>
     <use x="61.279297" xlink:href="#DejaVuSans-62"/>
     <use x="124.755859" xlink:href="#DejaVuSans-73"/>
     <use x="176.855469" xlink:href="#DejaVuSans-6f"/>
     <use x="238.037109" xlink:href="#DejaVuSans-6c"/>
     <use x="265.820312" xlink:href="#DejaVuSans-75"/>
     <use x="329.199219" xlink:href="#DejaVuSans-74"/>
     <use x="368.408203" xlink:href="#DejaVuSans-65"/>
     <use x="429.931641" xlink:href="#DejaVuSans-20"/>
     <use x="461.71875" xlink:href="#DejaVuSans-74"/>
     <use x="500.927734" xlink:href="#DejaVuSans-61"/>
     <use x="562.207031" xlink:href="#DejaVuSans-72"/>
     <use x="603.304688" xlink:href="#DejaVuSans-67"/>
     <use x="666.78125" xlink:href="#DejaVuSans-65"/>
     <use x="728.304688" xlink:href="#DejaVuSans-74"/>
     <use x="767.513672" xlink:href="#DejaVuSans-73"/>
    </g>
   </g>
   <g id="text_18">
    <!-- v0.0.0 -->
    <defs>
     <path d="M 2.984375 54.6875 
L 12.5 54.6875 
L 29.59375 8.796875 
L 46.6875 54.6875 
L 56.203125 54.6875 
L 35.6875 0 
L 23.484375 0 
z
" id="DejaVuSans-76"/>
     <path d="M 10.6875 12.40625 
L 21 12.40625 
L 21 0 
L 10.6875 0 
z
" id="DejaVuSans-2e"/>
    </defs>
    <g style="fill:#808080;" transform="translate(192.34875 292.807442)scale(0.1 -0.1)">
     <use xlink:href="#DejaVuSans-76"/>
     <use x="59.179688" xlink:href="#DejaVuSans-30"/>
     <use x="122.802734" xlink:href="#DejaVuSans-2e"/>
     <use x="154.589844" xlink:href="#DejaVuSans-30"/>
     <use x="218.212891" xlink:href="#DejaVuSans-2e"/>
     <use x="250" xlink:href="#DejaVuSans-30"/>
    </g>
   </g>
   <g id="text_19">
    <!-- 4 Skew Rastrigin-Bueche separ -->
    <defs>
     <path d="M 53.515625 70.515625 
L 53.515625 60.890625 
Q 47.90625 63.578125 42.921875 64.890625 
Q 37.9375 66.21875 33.296875 66.21875 
Q 25.25 66.21875 20.875 63.09375 
Q 16.5 59.96875 16.5 54.203125 
Q 16.5 49.359375 19.40625 46.890625 
Q 22.3125 44.4375 30.421875 42.921875 
L 36.375 41.703125 
Q 47.40625 39.59375 52.65625 34.296875 
Q 57.90625 29 57.90625 20.125 
Q 57.90625 9.515625 50.796875 4.046875 
Q 43.703125 -1.421875 29.984375 -1.421875 
Q 24.8125 -1.421875 18.96875 -0.25 
Q 13.140625 0.921875 6.890625 3.21875 
L 6.890625 13.375 
Q 12.890625 10.015625 18.65625 8.296875 
Q 24.421875 6.59375 29.984375 6.59375 
Q 38.421875 6.59375 43.015625 9.90625 
Q 47.609375 13.234375 47.609375 19.390625 
Q 47.609375 24.75 44.3125 27.78125 
Q 41.015625 30.8125 33.5 32.328125 
L 27.484375 33.5 
Q 16.453125 35.6875 11.515625 40.375 
Q 6.59375 45.0625 6.59375 53.421875 
Q 6.59375 63.09375 13.40625 68.65625 
Q 20.21875 74.21875 32.171875 74.21875 
Q 37.3125 74.21875 42.625 73.28125 
Q 47.953125 72.359375 53.515625 70.515625 
z
" id="DejaVuSans-53"/>
     <path d="M 9.078125 75.984375 
L 18.109375 75.984375 
L 18.109375 31.109375 
L 44.921875 54.6875 
L 56.390625 54.6875 
L 27.390625 29.109375 
L 57.625 0 
L 45.90625 0 
L 18.109375 26.703125 
L 18.109375 0 
L 9.078125 0 
z
" id="DejaVuSans-6b"/>
     <path d="M 4.203125 54.6875 
L 13.1875 54.6875 
L 24.421875 12.015625 
L 35.59375 54.6875 
L 46.1875 54.6875 
L 57.421875 12.015625 
L 68.609375 54.6875 
L 77.59375 54.6875 
L 63.28125 0 
L 52.6875 0 
L 40.921875 44.828125 
L 29.109375 0 
L 18.5 0 
z
" id="DejaVuSans-77"/>
     <path d="M 44.390625 34.1875 
Q 47.5625 33.109375 50.5625 29.59375 
Q 53.5625 26.078125 56.59375 19.921875 
L 66.609375 0 
L 56 0 
L 46.6875 18.703125 
Q 43.0625 26.03125 39.671875 28.421875 
Q 36.28125 30.8125 30.421875 30.8125 
L 19.671875 30.8125 
L 19.671875 0 
L 9.8125 0 
L 9.8125 72.90625 
L 32.078125 72.90625 
Q 44.578125 72.90625 50.734375 67.671875 
Q 56.890625 62.453125 56.890625 51.90625 
Q 56.890625 45.015625 53.6875 40.46875 
Q 50.484375 35.9375 44.390625 34.1875 
z
M 19.671875 64.796875 
L 19.671875 38.921875 
L 32.078125 38.921875 
Q 39.203125 38.921875 42.84375 42.21875 
Q 46.484375 45.515625 46.484375 51.90625 
Q 46.484375 58.296875 42.84375 61.546875 
Q 39.203125 64.796875 32.078125 64.796875 
z
" id="DejaVuSans-52"/>
     <path d="M 4.890625 31.390625 
L 31.203125 31.390625 
L 31.203125 23.390625 
L 4.890625 23.390625 
z
" id="DejaVuSans-2d"/>
     <path d="M 19.671875 34.8125 
L 19.671875 8.109375 
L 35.5 8.109375 
Q 43.453125 8.109375 47.28125 11.40625 
Q 51.125 14.703125 51.125 21.484375 
Q 51.125 28.328125 47.28125 31.5625 
Q 43.453125 34.8125 35.5 34.8125 
z
M 19.671875 64.796875 
L 19.671875 42.828125 
L 34.28125 42.828125 
Q 41.5 42.828125 45.03125 45.53125 
Q 48.578125 48.25 48.578125 53.8125 
Q 48.578125 59.328125 45.03125 62.0625 
Q 41.5 64.796875 34.28125 64.796875 
z
M 9.8125 72.90625 
L 35.015625 72.90625 
Q 46.296875 72.90625 52.390625 68.21875 
Q 58.5 63.53125 58.5 54.890625 
Q 58.5 48.1875 55.375 44.234375 
Q 52.25 40.28125 46.1875 39.3125 
Q 53.46875 37.75 57.5 32.78125 
Q 61.53125 27.828125 61.53125 20.40625 
Q 61.53125 10.640625 54.890625 5.3125 
Q 48.25 0 35.984375 0 
L 9.8125 0 
z
" id="DejaVuSans-42"/>
     <path d="M 54.890625 33.015625 
L 54.890625 0 
L 45.90625 0 
L 45.90625 32.71875 
Q 45.90625 40.484375 42.875 44.328125 
Q 39.84375 48.1875 33.796875 48.1875 
Q 26.515625 48.1875 22.3125 43.546875 
Q 18.109375 38.921875 18.109375 30.90625 
L 18.109375 0 
L 9.078125 0 
L 9.078125 75.984375 
L 18.109375 75.984375 
L 18.109375 46.1875 
Q 21.34375 51.125 25.703125 53.5625 
Q 30.078125 56 35.796875 56 
Q 45.21875 56 50.046875 50.171875 
Q 54.890625 44.34375 54.890625 33.015625 
z
" id="DejaVuSans-68"/>
     <path d="M 18.109375 8.203125 
L 18.109375 -20.796875 
L 9.078125 -20.796875 
L 9.078125 54.6875 
L 18.109375 54.6875 
L 18.109375 46.390625 
Q 20.953125 51.265625 25.265625 53.625 
Q 29.59375 56 35.59375 56 
Q 45.5625 56 51.78125 48.09375 
Q 58.015625 40.1875 58.015625 27.296875 
Q 58.015625 14.40625 51.78125 6.484375 
Q 45.5625 -1.421875 35.59375 -1.421875 
Q 29.59375 -1.421875 25.265625 0.953125 
Q 20.953125 3.328125 18.109375 8.203125 
z
M 48.6875 27.296875 
Q 48.6875 37.203125 44.609375 42.84375 
Q 40.53125 48.484375 33.40625 48.484375 
Q 26.265625 48.484375 22.1875 42.84375 
Q 18.109375 37.203125 18.109375 27.296875 
Q 18.109375 17.390625 22.1875 11.75 
Q 26.265625 6.109375 33.40625 6.109375 
Q 40.53125 6.109375 44.609375 11.75 
Q 48.6875 17.390625 48.6875 27.296875 
z
" id="DejaVuSans-70"/>
    </defs>
    <g transform="translate(21.055 25.43625)scale(0.24 -0.24)">
     <use xlink:href="#DejaVuSans-34"/>
     <use x="63.623047" xlink:href="#DejaVuSans-20"/>
     <use x="95.410156" xlink:href="#DejaVuSans-53"/>
     <use x="158.886719" xlink:href="#DejaVuSans-6b"/>
     <use x="216.75" xlink:href="#DejaVuSans-65"/>
     <use x="278.273438" xlink:href="#DejaVuSans-77"/>
     <use x="360.060547" xlink:href="#DejaVuSans-20"/>
     <use x="391.847656" xlink:href="#DejaVuSans-52"/>
     <use x="461.298828" xlink:href="#DejaVuSans-61"/>
     <use x="522.578125" xlink:href="#DejaVuSans-73"/>
     <use x="574.677734" xlink:href="#DejaVuSans-74"/>
     <use x="613.886719" xlink:href="#DejaVuSans-72"/>
     <use x="655" xlink:href="#DejaVuSans-69"/>
     <use x="682.783203" xlink:href="#DejaVuSans-67"/>
     <use x="746.259766" xlink:href="#DejaVuSans-69"/>
     <use x="774.042969" xlink:href="#DejaVuSans-6e"/>
     <use x="837.421875" xlink:href="#DejaVuSans-2d"/>
     <use x="873.458984" xlink:href="#DejaVuSans-42"/>
     <use x="942.0625" xlink:href="#DejaVuSans-75"/>
     <use x="1005.441406" xlink:href="#DejaVuSans-65"/>
     <use x="1066.964844" xlink:href="#DejaVuSans-63"/>
     <use x="1121.945312" xlink:href="#DejaVuSans-68"/>
     <use x="1185.324219" xlink:href="#DejaVuSans-65"/>
     <use x="1246.847656" xlink:href="#DejaVuSans-20"/>
     <use x="1278.634766" xlink:href="#DejaVuSans-73"/>
     <use x="1330.734375" xlink:href="#DejaVuSans-65"/>
     <use x="1392.257812" xlink:href="#DejaVuSans-70"/>
     <use x="1455.734375" xlink:href="#DejaVuSans-61"/>
     <use x="1517.013672" xlink:href="#DejaVuSans-72"/>
    </g>
   </g>
  </g>
 </g>
 <defs>
  <clipPath id="p688dc72212">
   <rect height="266.112" width="357.12" x="29.47" y="31.43625"/>
  </clipPath>
 </defs>
</svg>
