<?xml version="1.0" encoding="utf-8" standalone="no"?>
<!DOCTYPE svg PUBLIC "-//W3C//DTD SVG 1.1//EN"
  "http://www.w3.org/Graphics/SVG/1.1/DTD/svg11.dtd">
<!-- Created with matplotlib (http://matplotlib.org/) -->
<svg height="334pt" version="1.1" viewBox="0 0 402 334" width="402pt" xmlns="http://www.w3.org/2000/svg" xmlns:xlink="http://www.w3.org/1999/xlink">
 <defs>
  <style type="text/css">
*{stroke-linecap:butt;stroke-linejoin:round;}
  </style>
 </defs>
 <g id="figure_1">
  <g id="patch_1">
   <path d="M 0 334.97575 
L 402.205 334.97575 
L 402.205 0 
L 0 0 
z
" style="fill:#ffffff;"/>
  </g>
  <g id="axes_1">
   <g id="patch_2">
    <path d="M 29.47 297.54825 
L 386.59 297.54825 
L 386.59 31.43625 
L 29.47 31.43625 
z
" style="fill:#ffffff;"/>
   </g>
   <g id="line2d_1">
    <path clip-path="url(#p5d25239c17)" d="M 41.159282 199.453375 
L 86.143838 182.435618 
L 142.817676 165.958524 
L 219.719282 162.313841 
L 296.620888 147.919791 
L 373.522494 135.390524 
" style="fill:none;stroke:#f5deb3;stroke-linecap:square;stroke-width:10;"/>
    <defs>
     <path d="M -0 17.67767 
L 10.606602 0 
L 0 -17.67767 
L -10.606602 -0 
z
" id="m473901c7c9" style="stroke:#000000;stroke-linejoin:miter;"/>
    </defs>
    <g clip-path="url(#p5d25239c17)">
     <use style="fill:#f5deb3;stroke:#000000;stroke-linejoin:miter;" x="41.159282" xlink:href="#m473901c7c9" y="199.453375"/>
     <use style="fill:#f5deb3;stroke:#000000;stroke-linejoin:miter;" x="86.143838" xlink:href="#m473901c7c9" y="182.435618"/>
     <use style="fill:#f5deb3;stroke:#000000;stroke-linejoin:miter;" x="142.817676" xlink:href="#m473901c7c9" y="165.958524"/>
     <use style="fill:#f5deb3;stroke:#000000;stroke-linejoin:miter;" x="219.719282" xlink:href="#m473901c7c9" y="162.313841"/>
     <use style="fill:#f5deb3;stroke:#000000;stroke-linejoin:miter;" x="296.620888" xlink:href="#m473901c7c9" y="147.919791"/>
     <use style="fill:#f5deb3;stroke:#000000;stroke-linejoin:miter;" x="373.522494" xlink:href="#m473901c7c9" y="135.390524"/>
    </g>
   </g>
   <g id="line2d_2">
    <defs>
     <path d="M -15 0 
L 15 0 
M 0 15 
L 0 -15 
" id="m353596c4a8" style="stroke:#bf00bf;stroke-width:5;"/>
    </defs>
    <g clip-path="url(#p5d25239c17)">
     <use style="fill:#bf00bf;stroke:#bf00bf;stroke-width:5;" x="41.159282" xlink:href="#m353596c4a8" y="114.90481"/>
    </g>
   </g>
   <g id="line2d_3">
    <defs>
     <path d="M -15 0 
L 15 0 
M 0 15 
L 0 -15 
" id="m7c385b3a4b" style="stroke:#bfbf00;stroke-width:5;"/>
    </defs>
    <g clip-path="url(#p5d25239c17)">
     <use style="fill:#bfbf00;stroke:#bfbf00;stroke-width:5;" x="219.719282" xlink:href="#m7c385b3a4b" y="113.817941"/>
    </g>
   </g>
   <g id="line2d_4">
    <g clip-path="url(#p5d25239c17)">
     <use style="fill:#bfbf00;stroke:#bfbf00;stroke-width:5;" x="86.143838" xlink:href="#m7c385b3a4b" y="124.186803"/>
    </g>
   </g>
   <g id="line2d_5">
    <g clip-path="url(#p5d25239c17)">
     <use style="fill:#bfbf00;stroke:#bfbf00;stroke-width:5;" x="296.620888" xlink:href="#m7c385b3a4b" y="107.288485"/>
    </g>
   </g>
   <g id="line2d_6">
    <g clip-path="url(#p5d25239c17)">
     <use style="fill:#bf00bf;stroke:#bf00bf;stroke-width:5;" x="142.817676" xlink:href="#m353596c4a8" y="107.44752"/>
    </g>
   </g>
   <g id="matplotlib.axis_1">
    <g id="xtick_1">
     <g id="line2d_7">
      <defs>
       <path d="M 0 0 
L 0 3.5 
" id="m286f804b04" style="stroke:#000000;stroke-width:0.8;"/>
      </defs>
      <g>
       <use style="stroke:#000000;stroke-width:0.8;" x="41.159282" xlink:href="#m286f804b04" y="297.54825"/>
      </g>
     </g>
     <g id="text_1">
      <!-- 2 -->
      <defs>
       <path d="M 19.1875 8.296875 
L 53.609375 8.296875 
L 53.609375 0 
L 7.328125 0 
L 7.328125 8.296875 
Q 12.9375 14.109375 22.625 23.890625 
Q 32.328125 33.6875 34.8125 36.53125 
Q 39.546875 41.84375 41.421875 45.53125 
Q 43.3125 49.21875 43.3125 52.78125 
Q 43.3125 58.59375 39.234375 62.25 
Q 35.15625 65.921875 28.609375 65.921875 
Q 23.96875 65.921875 18.8125 64.3125 
Q 13.671875 62.703125 7.8125 59.421875 
L 7.8125 69.390625 
Q 13.765625 71.78125 18.9375 73 
Q 24.125 74.21875 28.421875 74.21875 
Q 39.75 74.21875 46.484375 68.546875 
Q 53.21875 62.890625 53.21875 53.421875 
Q 53.21875 48.921875 51.53125 44.890625 
Q 49.859375 40.875 45.40625 35.40625 
Q 44.1875 33.984375 37.640625 27.21875 
Q 31.109375 20.453125 19.1875 8.296875 
z
" id="DejaVuSans-32"/>
      </defs>
      <g transform="translate(33.524282 322.7845)scale(0.24 -0.24)">
       <use xlink:href="#DejaVuSans-32"/>
      </g>
     </g>
    </g>
    <g id="xtick_2">
     <g id="line2d_8">
      <g>
       <use style="stroke:#000000;stroke-width:0.8;" x="86.143838" xlink:href="#m286f804b04" y="297.54825"/>
      </g>
     </g>
     <g id="text_2">
      <!-- 3 -->
      <defs>
       <path d="M 40.578125 39.3125 
Q 47.65625 37.796875 51.625 33 
Q 55.609375 28.21875 55.609375 21.1875 
Q 55.609375 10.40625 48.1875 4.484375 
Q 40.765625 -1.421875 27.09375 -1.421875 
Q 22.515625 -1.421875 17.65625 -0.515625 
Q 12.796875 0.390625 7.625 2.203125 
L 7.625 11.71875 
Q 11.71875 9.328125 16.59375 8.109375 
Q 21.484375 6.890625 26.8125 6.890625 
Q 36.078125 6.890625 40.9375 10.546875 
Q 45.796875 14.203125 45.796875 21.1875 
Q 45.796875 27.640625 41.28125 31.265625 
Q 36.765625 34.90625 28.71875 34.90625 
L 20.21875 34.90625 
L 20.21875 43.015625 
L 29.109375 43.015625 
Q 36.375 43.015625 40.234375 45.921875 
Q 44.09375 48.828125 44.09375 54.296875 
Q 44.09375 59.90625 40.109375 62.90625 
Q 36.140625 65.921875 28.71875 65.921875 
Q 24.65625 65.921875 20.015625 65.03125 
Q 15.375 64.15625 9.8125 62.3125 
L 9.8125 71.09375 
Q 15.4375 72.65625 20.34375 73.4375 
Q 25.25 74.21875 29.59375 74.21875 
Q 40.828125 74.21875 47.359375 69.109375 
Q 53.90625 64.015625 53.90625 55.328125 
Q 53.90625 49.265625 50.4375 45.09375 
Q 46.96875 40.921875 40.578125 39.3125 
z
" id="DejaVuSans-33"/>
      </defs>
      <g transform="translate(78.508838 322.7845)scale(0.24 -0.24)">
       <use xlink:href="#DejaVuSans-33"/>
      </g>
     </g>
    </g>
    <g id="xtick_3">
     <g id="line2d_9">
      <g>
       <use style="stroke:#000000;stroke-width:0.8;" x="142.817676" xlink:href="#m286f804b04" y="297.54825"/>
      </g>
     </g>
     <g id="text_3">
      <!-- 5 -->
      <defs>
       <path d="M 10.796875 72.90625 
L 49.515625 72.90625 
L 49.515625 64.59375 
L 19.828125 64.59375 
L 19.828125 46.734375 
Q 21.96875 47.46875 24.109375 47.828125 
Q 26.265625 48.1875 28.421875 48.1875 
Q 40.625 48.1875 47.75 41.5 
Q 54.890625 34.8125 54.890625 23.390625 
Q 54.890625 11.625 47.5625 5.09375 
Q 40.234375 -1.421875 26.90625 -1.421875 
Q 22.3125 -1.421875 17.546875 -0.640625 
Q 12.796875 0.140625 7.71875 1.703125 
L 7.71875 11.625 
Q 12.109375 9.234375 16.796875 8.0625 
Q 21.484375 6.890625 26.703125 6.890625 
Q 35.15625 6.890625 40.078125 11.328125 
Q 45.015625 15.765625 45.015625 23.390625 
Q 45.015625 31 40.078125 35.4375 
Q 35.15625 39.890625 26.703125 39.890625 
Q 22.75 39.890625 18.8125 39.015625 
Q 14.890625 38.140625 10.796875 36.28125 
z
" id="DejaVuSans-35"/>
      </defs>
      <g transform="translate(135.182676 322.7845)scale(0.24 -0.24)">
       <use xlink:href="#DejaVuSans-35"/>
      </g>
     </g>
    </g>
    <g id="xtick_4">
     <g id="line2d_10">
      <g>
       <use style="stroke:#000000;stroke-width:0.8;" x="219.719282" xlink:href="#m286f804b04" y="297.54825"/>
      </g>
     </g>
     <g id="text_4">
      <!-- 10 -->
      <defs>
       <path d="M 12.40625 8.296875 
L 28.515625 8.296875 
L 28.515625 63.921875 
L 10.984375 60.40625 
L 10.984375 69.390625 
L 28.421875 72.90625 
L 38.28125 72.90625 
L 38.28125 8.296875 
L 54.390625 8.296875 
L 54.390625 0 
L 12.40625 0 
z
" id="DejaVuSans-31"/>
       <path d="M 31.78125 66.40625 
Q 24.171875 66.40625 20.328125 58.90625 
Q 16.5 51.421875 16.5 36.375 
Q 16.5 21.390625 20.328125 13.890625 
Q 24.171875 6.390625 31.78125 6.390625 
Q 39.453125 6.390625 43.28125 13.890625 
Q 47.125 21.390625 47.125 36.375 
Q 47.125 51.421875 43.28125 58.90625 
Q 39.453125 66.40625 31.78125 66.40625 
z
M 31.78125 74.21875 
Q 44.046875 74.21875 50.515625 64.515625 
Q 56.984375 54.828125 56.984375 36.375 
Q 56.984375 17.96875 50.515625 8.265625 
Q 44.046875 -1.421875 31.78125 -1.421875 
Q 19.53125 -1.421875 13.0625 8.265625 
Q 6.59375 17.96875 6.59375 36.375 
Q 6.59375 54.828125 13.0625 64.515625 
Q 19.53125 74.21875 31.78125 74.21875 
z
" id="DejaVuSans-30"/>
      </defs>
      <g transform="translate(204.449282 322.7845)scale(0.24 -0.24)">
       <use xlink:href="#DejaVuSans-31"/>
       <use x="63.623047" xlink:href="#DejaVuSans-30"/>
      </g>
     </g>
    </g>
    <g id="xtick_5">
     <g id="line2d_11">
      <g>
       <use style="stroke:#000000;stroke-width:0.8;" x="296.620888" xlink:href="#m286f804b04" y="297.54825"/>
      </g>
     </g>
     <g id="text_5">
      <!-- 20 -->
      <g transform="translate(281.350888 322.7845)scale(0.24 -0.24)">
       <use xlink:href="#DejaVuSans-32"/>
       <use x="63.623047" xlink:href="#DejaVuSans-30"/>
      </g>
     </g>
    </g>
    <g id="xtick_6">
     <g id="line2d_12">
      <g>
       <use style="stroke:#000000;stroke-width:0.8;" x="373.522494" xlink:href="#m286f804b04" y="297.54825"/>
      </g>
     </g>
     <g id="text_6">
      <!-- 40 -->
      <defs>
       <path d="M 37.796875 64.3125 
L 12.890625 25.390625 
L 37.796875 25.390625 
z
M 35.203125 72.90625 
L 47.609375 72.90625 
L 47.609375 25.390625 
L 58.015625 25.390625 
L 58.015625 17.1875 
L 47.609375 17.1875 
L 47.609375 0 
L 37.796875 0 
L 37.796875 17.1875 
L 4.890625 17.1875 
L 4.890625 26.703125 
z
" id="DejaVuSans-34"/>
      </defs>
      <g transform="translate(358.252494 322.7845)scale(0.24 -0.24)">
       <use xlink:href="#DejaVuSans-34"/>
       <use x="63.623047" xlink:href="#DejaVuSans-30"/>
      </g>
     </g>
    </g>
    <g id="xtick_7">
     <g id="line2d_13">
      <defs>
       <path d="M 0 0 
L 0 2 
" id="m60086777de" style="stroke:#000000;stroke-width:0.6;"/>
      </defs>
      <g>
       <use style="stroke:#000000;stroke-width:0.6;" x="41.159282" xlink:href="#m60086777de" y="297.54825"/>
      </g>
     </g>
    </g>
    <g id="xtick_8">
     <g id="line2d_14">
      <g>
       <use style="stroke:#000000;stroke-width:0.6;" x="86.143838" xlink:href="#m60086777de" y="297.54825"/>
      </g>
     </g>
    </g>
    <g id="xtick_9">
     <g id="line2d_15">
      <g>
       <use style="stroke:#000000;stroke-width:0.6;" x="118.060888" xlink:href="#m60086777de" y="297.54825"/>
      </g>
     </g>
    </g>
    <g id="xtick_10">
     <g id="line2d_16">
      <g>
       <use style="stroke:#000000;stroke-width:0.6;" x="142.817676" xlink:href="#m60086777de" y="297.54825"/>
      </g>
     </g>
    </g>
    <g id="xtick_11">
     <g id="line2d_17">
      <g>
       <use style="stroke:#000000;stroke-width:0.6;" x="163.045444" xlink:href="#m60086777de" y="297.54825"/>
      </g>
     </g>
    </g>
    <g id="xtick_12">
     <g id="line2d_18">
      <g>
       <use style="stroke:#000000;stroke-width:0.6;" x="180.147779" xlink:href="#m60086777de" y="297.54825"/>
      </g>
     </g>
    </g>
    <g id="xtick_13">
     <g id="line2d_19">
      <g>
       <use style="stroke:#000000;stroke-width:0.6;" x="194.962494" xlink:href="#m60086777de" y="297.54825"/>
      </g>
     </g>
    </g>
    <g id="xtick_14">
     <g id="line2d_20">
      <g>
       <use style="stroke:#000000;stroke-width:0.6;" x="208.03" xlink:href="#m60086777de" y="297.54825"/>
      </g>
     </g>
    </g>
    <g id="xtick_15">
     <g id="line2d_21">
      <g>
       <use style="stroke:#000000;stroke-width:0.6;" x="296.620888" xlink:href="#m60086777de" y="297.54825"/>
      </g>
     </g>
    </g>
    <g id="xtick_16">
     <g id="line2d_22">
      <g>
       <use style="stroke:#000000;stroke-width:0.6;" x="341.605444" xlink:href="#m60086777de" y="297.54825"/>
      </g>
     </g>
    </g>
    <g id="xtick_17">
     <g id="line2d_23">
      <g>
       <use style="stroke:#000000;stroke-width:0.6;" x="373.522494" xlink:href="#m60086777de" y="297.54825"/>
      </g>
     </g>
    </g>
   </g>
   <g id="matplotlib.axis_2">
    <g id="ytick_1">
     <g id="line2d_24">
      <path clip-path="url(#p5d25239c17)" d="M 29.47 290.15625 
L 386.59 290.15625 
" style="fill:none;stroke:#b0b0b0;stroke-linecap:square;stroke-width:0.8;"/>
     </g>
     <g id="line2d_25">
      <defs>
       <path d="M 0 0 
L -3.5 0 
" id="mf6e99cbbeb" style="stroke:#000000;stroke-width:0.8;"/>
      </defs>
      <g>
       <use style="stroke:#000000;stroke-width:0.8;" x="29.47" xlink:href="#mf6e99cbbeb" y="290.15625"/>
      </g>
     </g>
     <g id="text_7">
      <!-- 0 -->
      <g transform="translate(7.2 299.274375)scale(0.24 -0.24)">
       <use xlink:href="#DejaVuSans-30"/>
      </g>
     </g>
    </g>
    <g id="ytick_2">
     <g id="line2d_26">
      <path clip-path="url(#p5d25239c17)" d="M 29.47 253.196253 
L 386.59 253.196253 
" style="fill:none;stroke:#b0b0b0;stroke-linecap:square;stroke-width:0.8;"/>
     </g>
     <g id="line2d_27">
      <g>
       <use style="stroke:#000000;stroke-width:0.8;" x="29.47" xlink:href="#mf6e99cbbeb" y="253.196253"/>
      </g>
     </g>
     <g id="text_8">
      <!-- 1 -->
      <g transform="translate(7.2 262.314378)scale(0.24 -0.24)">
       <use xlink:href="#DejaVuSans-31"/>
      </g>
     </g>
    </g>
    <g id="ytick_3">
     <g id="line2d_28">
      <path clip-path="url(#p5d25239c17)" d="M 29.47 216.236255 
L 386.59 216.236255 
" style="fill:none;stroke:#b0b0b0;stroke-linecap:square;stroke-width:0.8;"/>
     </g>
     <g id="line2d_29">
      <g>
       <use style="stroke:#000000;stroke-width:0.8;" x="29.47" xlink:href="#mf6e99cbbeb" y="216.236255"/>
      </g>
     </g>
     <g id="text_9">
      <!-- 2 -->
      <g transform="translate(7.2 225.35438)scale(0.24 -0.24)">
       <use xlink:href="#DejaVuSans-32"/>
      </g>
     </g>
    </g>
    <g id="ytick_4">
     <g id="line2d_30">
      <path clip-path="url(#p5d25239c17)" d="M 29.47 179.276257 
L 386.59 179.276257 
" style="fill:none;stroke:#b0b0b0;stroke-linecap:square;stroke-width:0.8;"/>
     </g>
     <g id="line2d_31">
      <g>
       <use style="stroke:#000000;stroke-width:0.8;" x="29.47" xlink:href="#mf6e99cbbeb" y="179.276257"/>
      </g>
     </g>
     <g id="text_10">
      <!-- 3 -->
      <g transform="translate(7.2 188.394382)scale(0.24 -0.24)">
       <use xlink:href="#DejaVuSans-33"/>
      </g>
     </g>
    </g>
    <g id="ytick_5">
     <g id="line2d_32">
      <path clip-path="url(#p5d25239c17)" d="M 29.47 142.316259 
L 386.59 142.316259 
" style="fill:none;stroke:#b0b0b0;stroke-linecap:square;stroke-width:0.8;"/>
     </g>
     <g id="line2d_33">
      <g>
       <use style="stroke:#000000;stroke-width:0.8;" x="29.47" xlink:href="#mf6e99cbbeb" y="142.316259"/>
      </g>
     </g>
     <g id="text_11">
      <!-- 4 -->
      <g transform="translate(7.2 151.434384)scale(0.24 -0.24)">
       <use xlink:href="#DejaVuSans-34"/>
      </g>
     </g>
    </g>
    <g id="ytick_6">
     <g id="line2d_34">
      <path clip-path="url(#p5d25239c17)" d="M 29.47 105.356262 
L 386.59 105.356262 
" style="fill:none;stroke:#b0b0b0;stroke-linecap:square;stroke-width:0.8;"/>
     </g>
     <g id="line2d_35">
      <g>
       <use style="stroke:#000000;stroke-width:0.8;" x="29.47" xlink:href="#mf6e99cbbeb" y="105.356262"/>
      </g>
     </g>
     <g id="text_12">
      <!-- 5 -->
      <g transform="translate(7.2 114.474387)scale(0.24 -0.24)">
       <use xlink:href="#DejaVuSans-35"/>
      </g>
     </g>
    </g>
    <g id="ytick_7">
     <g id="line2d_36">
      <path clip-path="url(#p5d25239c17)" d="M 29.47 68.396264 
L 386.59 68.396264 
" style="fill:none;stroke:#b0b0b0;stroke-linecap:square;stroke-width:0.8;"/>
     </g>
     <g id="line2d_37">
      <g>
       <use style="stroke:#000000;stroke-width:0.8;" x="29.47" xlink:href="#mf6e99cbbeb" y="68.396264"/>
      </g>
     </g>
     <g id="text_13">
      <!-- 6 -->
      <defs>
       <path d="M 33.015625 40.375 
Q 26.375 40.375 22.484375 35.828125 
Q 18.609375 31.296875 18.609375 23.390625 
Q 18.609375 15.53125 22.484375 10.953125 
Q 26.375 6.390625 33.015625 6.390625 
Q 39.65625 6.390625 43.53125 10.953125 
Q 47.40625 15.53125 47.40625 23.390625 
Q 47.40625 31.296875 43.53125 35.828125 
Q 39.65625 40.375 33.015625 40.375 
z
M 52.59375 71.296875 
L 52.59375 62.3125 
Q 48.875 64.0625 45.09375 64.984375 
Q 41.3125 65.921875 37.59375 65.921875 
Q 27.828125 65.921875 22.671875 59.328125 
Q 17.53125 52.734375 16.796875 39.40625 
Q 19.671875 43.65625 24.015625 45.921875 
Q 28.375 48.1875 33.59375 48.1875 
Q 44.578125 48.1875 50.953125 41.515625 
Q 57.328125 34.859375 57.328125 23.390625 
Q 57.328125 12.15625 50.6875 5.359375 
Q 44.046875 -1.421875 33.015625 -1.421875 
Q 20.359375 -1.421875 13.671875 8.265625 
Q 6.984375 17.96875 6.984375 36.375 
Q 6.984375 53.65625 15.1875 63.9375 
Q 23.390625 74.21875 37.203125 74.21875 
Q 40.921875 74.21875 44.703125 73.484375 
Q 48.484375 72.75 52.59375 71.296875 
z
" id="DejaVuSans-36"/>
      </defs>
      <g transform="translate(7.2 77.514389)scale(0.24 -0.24)">
       <use xlink:href="#DejaVuSans-36"/>
      </g>
     </g>
    </g>
    <g id="ytick_8">
     <g id="line2d_38">
      <path clip-path="url(#p5d25239c17)" d="M 29.47 31.436266 
L 386.59 31.436266 
" style="fill:none;stroke:#b0b0b0;stroke-linecap:square;stroke-width:0.8;"/>
     </g>
     <g id="line2d_39">
      <g>
       <use style="stroke:#000000;stroke-width:0.8;" x="29.47" xlink:href="#mf6e99cbbeb" y="31.436266"/>
      </g>
     </g>
     <g id="text_14">
      <!-- 7 -->
      <defs>
       <path d="M 8.203125 72.90625 
L 55.078125 72.90625 
L 55.078125 68.703125 
L 28.609375 0 
L 18.3125 0 
L 43.21875 64.59375 
L 8.203125 64.59375 
z
" id="DejaVuSans-37"/>
      </defs>
      <g transform="translate(7.2 40.554391)scale(0.24 -0.24)">
       <use xlink:href="#DejaVuSans-37"/>
      </g>
     </g>
    </g>
   </g>
   <g id="line2d_40">
    <path clip-path="url(#p5d25239c17)" d="M 38.515722 229.970999 
L 40.366214 227.523646 
L 38.515722 217.662131 
L 43.802842 217.662131 
L 41.95235 227.523646 
L 43.802842 229.970999 
L 38.515722 229.970999 
" style="fill:none;stroke:#000000;stroke-linecap:square;"/>
   </g>
   <g id="line2d_41">
    <path clip-path="url(#p5d25239c17)" d="M 38.515722 229.970999 
L 43.802842 229.970999 
L 43.802842 217.662131 
L 38.515722 217.662131 
L 38.515722 229.970999 
" style="fill:none;"/>
    <defs>
     <path d="M 0 3 
C 0.795609 3 1.55874 2.683901 2.12132 2.12132 
C 2.683901 1.55874 3 0.795609 3 0 
C 3 -0.795609 2.683901 -1.55874 2.12132 -2.12132 
C 1.55874 -2.683901 0.795609 -3 0 -3 
C -0.795609 -3 -1.55874 -2.683901 -2.12132 -2.12132 
C -2.683901 -1.55874 -3 -0.795609 -3 0 
C -3 0.795609 -2.683901 1.55874 -2.12132 2.12132 
C -1.55874 2.683901 -0.795609 3 0 3 
z
" id="m6187b316c3" style="stroke:#000000;stroke-width:2;"/>
    </defs>
    <g clip-path="url(#p5d25239c17)">
     <use style="stroke:#000000;stroke-width:2;" x="38.515722" xlink:href="#m6187b316c3" y="229.970999"/>
     <use style="stroke:#000000;stroke-width:2;" x="43.802842" xlink:href="#m6187b316c3" y="229.970999"/>
     <use style="stroke:#000000;stroke-width:2;" x="43.802842" xlink:href="#m6187b316c3" y="217.662131"/>
     <use style="stroke:#000000;stroke-width:2;" x="38.515722" xlink:href="#m6187b316c3" y="217.662131"/>
     <use style="stroke:#000000;stroke-width:2;" x="38.515722" xlink:href="#m6187b316c3" y="229.970999"/>
    </g>
   </g>
   <g id="line2d_42">
    <path clip-path="url(#p5d25239c17)" d="M 38.515722 227.523646 
L 43.802842 227.523646 
" style="fill:none;stroke:#000000;stroke-linecap:square;stroke-width:2;"/>
   </g>
   <g id="line2d_43">
    <path clip-path="url(#p5d25239c17)" d="M 83.500277 201.002066 
L 85.35077 196.894614 
L 83.500277 188.950466 
L 88.787398 188.950466 
L 86.936906 196.894614 
L 88.787398 201.002066 
L 83.500277 201.002066 
" style="fill:none;stroke:#000000;stroke-linecap:square;"/>
   </g>
   <g id="line2d_44">
    <path clip-path="url(#p5d25239c17)" d="M 83.500277 201.002066 
L 88.787398 201.002066 
L 88.787398 188.950466 
L 83.500277 188.950466 
L 83.500277 201.002066 
" style="fill:none;"/>
    <g clip-path="url(#p5d25239c17)">
     <use style="stroke:#000000;stroke-width:2;" x="83.500277" xlink:href="#m6187b316c3" y="201.002066"/>
     <use style="stroke:#000000;stroke-width:2;" x="88.787398" xlink:href="#m6187b316c3" y="201.002066"/>
     <use style="stroke:#000000;stroke-width:2;" x="88.787398" xlink:href="#m6187b316c3" y="188.950466"/>
     <use style="stroke:#000000;stroke-width:2;" x="83.500277" xlink:href="#m6187b316c3" y="188.950466"/>
     <use style="stroke:#000000;stroke-width:2;" x="83.500277" xlink:href="#m6187b316c3" y="201.002066"/>
    </g>
   </g>
   <g id="line2d_45">
    <path clip-path="url(#p5d25239c17)" d="M 83.500277 196.894614 
L 88.787398 196.894614 
" style="fill:none;stroke:#000000;stroke-linecap:square;stroke-width:2;"/>
   </g>
   <g id="line2d_46">
    <path clip-path="url(#p5d25239c17)" d="M 140.174115 200.460381 
L 142.024608 196.583356 
L 140.174115 183.651845 
L 145.461236 183.651845 
L 143.610744 196.583356 
L 145.461236 200.460381 
L 140.174115 200.460381 
" style="fill:none;stroke:#000000;stroke-linecap:square;"/>
   </g>
   <g id="line2d_47">
    <path clip-path="url(#p5d25239c17)" d="M 140.174115 200.460381 
L 145.461236 200.460381 
L 145.461236 183.651845 
L 140.174115 183.651845 
L 140.174115 200.460381 
" style="fill:none;"/>
    <g clip-path="url(#p5d25239c17)">
     <use style="stroke:#000000;stroke-width:2;" x="140.174115" xlink:href="#m6187b316c3" y="200.460381"/>
     <use style="stroke:#000000;stroke-width:2;" x="145.461236" xlink:href="#m6187b316c3" y="200.460381"/>
     <use style="stroke:#000000;stroke-width:2;" x="145.461236" xlink:href="#m6187b316c3" y="183.651845"/>
     <use style="stroke:#000000;stroke-width:2;" x="140.174115" xlink:href="#m6187b316c3" y="183.651845"/>
     <use style="stroke:#000000;stroke-width:2;" x="140.174115" xlink:href="#m6187b316c3" y="200.460381"/>
    </g>
   </g>
   <g id="line2d_48">
    <path clip-path="url(#p5d25239c17)" d="M 140.174115 196.583356 
L 145.461236 196.583356 
" style="fill:none;stroke:#000000;stroke-linecap:square;stroke-width:2;"/>
   </g>
   <g id="line2d_49">
    <path clip-path="url(#p5d25239c17)" d="M 217.075722 183.194624 
L 218.926214 183.056912 
L 217.075722 181.190146 
L 222.362842 181.190146 
L 220.51235 183.056912 
L 222.362842 183.194624 
L 217.075722 183.194624 
" style="fill:none;stroke:#000000;stroke-linecap:square;"/>
   </g>
   <g id="line2d_50">
    <path clip-path="url(#p5d25239c17)" d="M 217.075722 183.194624 
L 222.362842 183.194624 
L 222.362842 181.190146 
L 217.075722 181.190146 
L 217.075722 183.194624 
" style="fill:none;"/>
    <g clip-path="url(#p5d25239c17)">
     <use style="stroke:#000000;stroke-width:2;" x="217.075722" xlink:href="#m6187b316c3" y="183.194624"/>
     <use style="stroke:#000000;stroke-width:2;" x="222.362842" xlink:href="#m6187b316c3" y="183.194624"/>
     <use style="stroke:#000000;stroke-width:2;" x="222.362842" xlink:href="#m6187b316c3" y="181.190146"/>
     <use style="stroke:#000000;stroke-width:2;" x="217.075722" xlink:href="#m6187b316c3" y="181.190146"/>
     <use style="stroke:#000000;stroke-width:2;" x="217.075722" xlink:href="#m6187b316c3" y="183.194624"/>
    </g>
   </g>
   <g id="line2d_51">
    <path clip-path="url(#p5d25239c17)" d="M 217.075722 183.056912 
L 222.362842 183.056912 
" style="fill:none;stroke:#000000;stroke-linecap:square;stroke-width:2;"/>
   </g>
   <g id="line2d_52">
    <path clip-path="url(#p5d25239c17)" d="M 293.977328 150.386826 
L 295.82782 147.800304 
L 293.977328 147.089266 
L 299.264449 147.089266 
L 297.413956 147.800304 
L 299.264449 150.386826 
L 293.977328 150.386826 
" style="fill:none;stroke:#000000;stroke-linecap:square;"/>
   </g>
   <g id="line2d_53">
    <path clip-path="url(#p5d25239c17)" d="M 293.977328 150.386826 
L 299.264449 150.386826 
L 299.264449 147.089266 
L 293.977328 147.089266 
L 293.977328 150.386826 
" style="fill:none;"/>
    <g clip-path="url(#p5d25239c17)">
     <use style="stroke:#000000;stroke-width:2;" x="293.977328" xlink:href="#m6187b316c3" y="150.386826"/>
     <use style="stroke:#000000;stroke-width:2;" x="299.264449" xlink:href="#m6187b316c3" y="150.386826"/>
     <use style="stroke:#000000;stroke-width:2;" x="299.264449" xlink:href="#m6187b316c3" y="147.089266"/>
     <use style="stroke:#000000;stroke-width:2;" x="293.977328" xlink:href="#m6187b316c3" y="147.089266"/>
     <use style="stroke:#000000;stroke-width:2;" x="293.977328" xlink:href="#m6187b316c3" y="150.386826"/>
    </g>
   </g>
   <g id="line2d_54">
    <path clip-path="url(#p5d25239c17)" d="M 293.977328 147.800304 
L 299.264449 147.800304 
" style="fill:none;stroke:#000000;stroke-linecap:square;stroke-width:2;"/>
   </g>
   <g id="line2d_55">
    <path clip-path="url(#p5d25239c17)" d="M 41.159282 223.358096 
L 86.143838 197.506943 
" style="fill:none;stroke:#000000;stroke-linecap:square;stroke-width:4;"/>
   </g>
   <g id="line2d_56">
    <path clip-path="url(#p5d25239c17)" d="M 86.143838 197.506943 
L 142.817676 188.733359 
" style="fill:none;stroke:#000000;stroke-linecap:square;stroke-width:4;"/>
   </g>
   <g id="line2d_57">
    <path clip-path="url(#p5d25239c17)" d="M 142.817676 188.733359 
L 219.719282 174.700954 
" style="fill:none;stroke:#000000;stroke-linecap:square;stroke-width:4;"/>
   </g>
   <g id="line2d_58">
    <path clip-path="url(#p5d25239c17)" d="M 219.719282 174.700954 
L 296.620888 148.742578 
" style="fill:none;stroke:#000000;stroke-linecap:square;stroke-width:4;"/>
   </g>
   <g id="line2d_59">
    <path clip-path="url(#p5d25239c17)" d="M 41.159282 223.358096 
L 86.143838 197.506943 
L 142.817676 188.733359 
L 219.719282 174.700954 
L 296.620888 148.742578 
" style="fill:none;"/>
    <defs>
     <path d="M 0 10 
C 2.652031 10 5.195799 8.946337 7.071068 7.071068 
C 8.946337 5.195799 10 2.652031 10 0 
C 10 -2.652031 8.946337 -5.195799 7.071068 -7.071068 
C 5.195799 -8.946337 2.652031 -10 0 -10 
C -2.652031 -10 -5.195799 -8.946337 -7.071068 -7.071068 
C -8.946337 -5.195799 -10 -2.652031 -10 0 
C -10 2.652031 -8.946337 5.195799 -7.071068 7.071068 
C -5.195799 8.946337 -2.652031 10 0 10 
z
" id="m85341b4be8" style="stroke:#000000;stroke-width:2;"/>
    </defs>
    <g clip-path="url(#p5d25239c17)">
     <use style="stroke:#000000;stroke-width:2;" x="41.159282" xlink:href="#m85341b4be8" y="223.358096"/>
     <use style="stroke:#000000;stroke-width:2;" x="86.143838" xlink:href="#m85341b4be8" y="197.506943"/>
     <use style="stroke:#000000;stroke-width:2;" x="142.817676" xlink:href="#m85341b4be8" y="188.733359"/>
     <use style="stroke:#000000;stroke-width:2;" x="219.719282" xlink:href="#m85341b4be8" y="174.700954"/>
     <use style="stroke:#000000;stroke-width:2;" x="296.620888" xlink:href="#m85341b4be8" y="148.742578"/>
    </g>
   </g>
   <g id="line2d_60">
    <path clip-path="url(#p5d25239c17)" d="M 37.634535 175.64318 
L 40.101858 162.14871 
L 37.634535 156.415805 
L 44.684029 156.415805 
L 42.216706 162.14871 
L 44.684029 175.64318 
L 37.634535 175.64318 
" style="fill:none;stroke:#0000ff;stroke-linecap:square;"/>
   </g>
   <g id="line2d_61">
    <path clip-path="url(#p5d25239c17)" d="M 37.634535 175.64318 
L 44.684029 175.64318 
L 44.684029 156.415805 
L 37.634535 156.415805 
L 37.634535 175.64318 
" style="fill:none;"/>
    <defs>
     <path d="M 0 1.5 
C 0.397805 1.5 0.77937 1.341951 1.06066 1.06066 
C 1.341951 0.77937 1.5 0.397805 1.5 0 
C 1.5 -0.397805 1.341951 -0.77937 1.06066 -1.06066 
C 0.77937 -1.341951 0.397805 -1.5 0 -1.5 
C -0.397805 -1.5 -0.77937 -1.341951 -1.06066 -1.06066 
C -1.341951 -0.77937 -1.5 -0.397805 -1.5 0 
C -1.5 0.397805 -1.341951 0.77937 -1.06066 1.06066 
C -0.77937 1.341951 -0.397805 1.5 0 1.5 
z
" id="m74a0a58462" style="stroke:#0000ff;"/>
    </defs>
    <g clip-path="url(#p5d25239c17)">
     <use style="fill:#0000ff;stroke:#0000ff;" x="37.634535" xlink:href="#m74a0a58462" y="175.64318"/>
     <use style="fill:#0000ff;stroke:#0000ff;" x="44.684029" xlink:href="#m74a0a58462" y="175.64318"/>
     <use style="fill:#0000ff;stroke:#0000ff;" x="44.684029" xlink:href="#m74a0a58462" y="156.415805"/>
     <use style="fill:#0000ff;stroke:#0000ff;" x="37.634535" xlink:href="#m74a0a58462" y="156.415805"/>
     <use style="fill:#0000ff;stroke:#0000ff;" x="37.634535" xlink:href="#m74a0a58462" y="175.64318"/>
    </g>
   </g>
   <g id="line2d_62">
    <path clip-path="url(#p5d25239c17)" d="M 37.634535 162.14871 
L 44.684029 162.14871 
" style="fill:none;stroke:#0000ff;stroke-linecap:square;stroke-width:2;"/>
   </g>
   <g id="line2d_63">
    <path clip-path="url(#p5d25239c17)" d="M 82.619091 163.510398 
L 85.086414 161.833835 
L 82.619091 157.216551 
L 89.668585 157.216551 
L 87.201262 161.833835 
L 89.668585 163.510398 
L 82.619091 163.510398 
" style="fill:none;stroke:#0000ff;stroke-linecap:square;"/>
   </g>
   <g id="line2d_64">
    <path clip-path="url(#p5d25239c17)" d="M 82.619091 163.510398 
L 89.668585 163.510398 
L 89.668585 157.216551 
L 82.619091 157.216551 
L 82.619091 163.510398 
" style="fill:none;"/>
    <g clip-path="url(#p5d25239c17)">
     <use style="fill:#0000ff;stroke:#0000ff;" x="82.619091" xlink:href="#m74a0a58462" y="163.510398"/>
     <use style="fill:#0000ff;stroke:#0000ff;" x="89.668585" xlink:href="#m74a0a58462" y="163.510398"/>
     <use style="fill:#0000ff;stroke:#0000ff;" x="89.668585" xlink:href="#m74a0a58462" y="157.216551"/>
     <use style="fill:#0000ff;stroke:#0000ff;" x="82.619091" xlink:href="#m74a0a58462" y="157.216551"/>
     <use style="fill:#0000ff;stroke:#0000ff;" x="82.619091" xlink:href="#m74a0a58462" y="163.510398"/>
    </g>
   </g>
   <g id="line2d_65">
    <path clip-path="url(#p5d25239c17)" d="M 82.619091 161.833835 
L 89.668585 161.833835 
" style="fill:none;stroke:#0000ff;stroke-linecap:square;stroke-width:2;"/>
   </g>
   <g id="line2d_66">
    <path clip-path="url(#p5d25239c17)" d="M 139.292929 156.266208 
L 141.760252 154.793995 
L 139.292929 149.500929 
L 146.342423 149.500929 
L 143.8751 154.793995 
L 146.342423 156.266208 
L 139.292929 156.266208 
" style="fill:none;stroke:#0000ff;stroke-linecap:square;"/>
   </g>
   <g id="line2d_67">
    <path clip-path="url(#p5d25239c17)" d="M 139.292929 156.266208 
L 146.342423 156.266208 
L 146.342423 149.500929 
L 139.292929 149.500929 
L 139.292929 156.266208 
" style="fill:none;"/>
    <g clip-path="url(#p5d25239c17)">
     <use style="fill:#0000ff;stroke:#0000ff;" x="139.292929" xlink:href="#m74a0a58462" y="156.266208"/>
     <use style="fill:#0000ff;stroke:#0000ff;" x="146.342423" xlink:href="#m74a0a58462" y="156.266208"/>
     <use style="fill:#0000ff;stroke:#0000ff;" x="146.342423" xlink:href="#m74a0a58462" y="149.500929"/>
     <use style="fill:#0000ff;stroke:#0000ff;" x="139.292929" xlink:href="#m74a0a58462" y="149.500929"/>
     <use style="fill:#0000ff;stroke:#0000ff;" x="139.292929" xlink:href="#m74a0a58462" y="156.266208"/>
    </g>
   </g>
   <g id="line2d_68">
    <path clip-path="url(#p5d25239c17)" d="M 139.292929 154.793995 
L 146.342423 154.793995 
" style="fill:none;stroke:#0000ff;stroke-linecap:square;stroke-width:2;"/>
   </g>
   <g id="line2d_69">
    <path clip-path="url(#p5d25239c17)" d="M 216.194535 151.101249 
L 218.661858 147.288664 
L 216.194535 145.507377 
L 223.244029 145.507377 
L 220.776706 147.288664 
L 223.244029 151.101249 
L 216.194535 151.101249 
" style="fill:none;stroke:#0000ff;stroke-linecap:square;"/>
   </g>
   <g id="line2d_70">
    <path clip-path="url(#p5d25239c17)" d="M 216.194535 151.101249 
L 223.244029 151.101249 
L 223.244029 145.507377 
L 216.194535 145.507377 
L 216.194535 151.101249 
" style="fill:none;"/>
    <g clip-path="url(#p5d25239c17)">
     <use style="fill:#0000ff;stroke:#0000ff;" x="216.194535" xlink:href="#m74a0a58462" y="151.101249"/>
     <use style="fill:#0000ff;stroke:#0000ff;" x="223.244029" xlink:href="#m74a0a58462" y="151.101249"/>
     <use style="fill:#0000ff;stroke:#0000ff;" x="223.244029" xlink:href="#m74a0a58462" y="145.507377"/>
     <use style="fill:#0000ff;stroke:#0000ff;" x="216.194535" xlink:href="#m74a0a58462" y="145.507377"/>
     <use style="fill:#0000ff;stroke:#0000ff;" x="216.194535" xlink:href="#m74a0a58462" y="151.101249"/>
    </g>
   </g>
   <g id="line2d_71">
    <path clip-path="url(#p5d25239c17)" d="M 216.194535 147.288664 
L 223.244029 147.288664 
" style="fill:none;stroke:#0000ff;stroke-linecap:square;stroke-width:2;"/>
   </g>
   <g id="line2d_72">
    <path clip-path="url(#p5d25239c17)" d="M 293.096141 132.789135 
L 295.563464 132.479337 
L 293.096141 132.143307 
L 300.145636 132.143307 
L 297.678312 132.479337 
L 300.145636 132.789135 
L 293.096141 132.789135 
" style="fill:none;stroke:#0000ff;stroke-linecap:square;"/>
   </g>
   <g id="line2d_73">
    <path clip-path="url(#p5d25239c17)" d="M 293.096141 132.789135 
L 300.145636 132.789135 
L 300.145636 132.143307 
L 293.096141 132.143307 
L 293.096141 132.789135 
" style="fill:none;"/>
    <g clip-path="url(#p5d25239c17)">
     <use style="fill:#0000ff;stroke:#0000ff;" x="293.096141" xlink:href="#m74a0a58462" y="132.789135"/>
     <use style="fill:#0000ff;stroke:#0000ff;" x="300.145636" xlink:href="#m74a0a58462" y="132.789135"/>
     <use style="fill:#0000ff;stroke:#0000ff;" x="300.145636" xlink:href="#m74a0a58462" y="132.143307"/>
     <use style="fill:#0000ff;stroke:#0000ff;" x="293.096141" xlink:href="#m74a0a58462" y="132.143307"/>
     <use style="fill:#0000ff;stroke:#0000ff;" x="293.096141" xlink:href="#m74a0a58462" y="132.789135"/>
    </g>
   </g>
   <g id="line2d_74">
    <path clip-path="url(#p5d25239c17)" d="M 293.096141 132.479337 
L 300.145636 132.479337 
" style="fill:none;stroke:#0000ff;stroke-linecap:square;stroke-width:2;"/>
   </g>
   <g id="line2d_75">
    <path clip-path="url(#p5d25239c17)" d="M 41.159282 163.934934 
L 86.143838 161.428429 
" style="fill:none;stroke:#0000ff;stroke-linecap:square;stroke-width:4;"/>
   </g>
   <g id="line2d_76">
    <path clip-path="url(#p5d25239c17)" d="M 86.143838 161.428429 
L 142.817676 153.011558 
" style="fill:none;stroke:#0000ff;stroke-linecap:square;stroke-width:4;"/>
   </g>
   <g id="line2d_77">
    <path clip-path="url(#p5d25239c17)" d="M 142.817676 153.011558 
L 219.719282 147.791761 
" style="fill:none;stroke:#0000ff;stroke-linecap:square;stroke-width:4;"/>
   </g>
   <g id="line2d_78">
    <path clip-path="url(#p5d25239c17)" d="M 219.719282 147.791761 
L 296.620888 132.871632 
" style="fill:none;stroke:#0000ff;stroke-linecap:square;stroke-width:4;"/>
   </g>
   <g id="line2d_79">
    <path clip-path="url(#p5d25239c17)" d="M 41.159282 163.934934 
L 86.143838 161.428429 
L 142.817676 153.011558 
L 219.719282 147.791761 
L 296.620888 132.871632 
" style="fill:none;"/>
    <defs>
     <path d="M 0 5 
C 1.326016 5 2.597899 4.473168 3.535534 3.535534 
C 4.473168 2.597899 5 1.326016 5 0 
C 5 -1.326016 4.473168 -2.597899 3.535534 -3.535534 
C 2.597899 -4.473168 1.326016 -5 0 -5 
C -1.326016 -5 -2.597899 -4.473168 -3.535534 -3.535534 
C -4.473168 -2.597899 -5 -1.326016 -5 0 
C -5 1.326016 -4.473168 2.597899 -3.535534 3.535534 
C -2.597899 4.473168 -1.326016 5 0 5 
z
" id="mf6127a2b06" style="stroke:#0000ff;"/>
    </defs>
    <g clip-path="url(#p5d25239c17)">
     <use style="fill:#0000ff;stroke:#0000ff;" x="41.159282" xlink:href="#mf6127a2b06" y="163.934934"/>
     <use style="fill:#0000ff;stroke:#0000ff;" x="86.143838" xlink:href="#mf6127a2b06" y="161.428429"/>
     <use style="fill:#0000ff;stroke:#0000ff;" x="142.817676" xlink:href="#mf6127a2b06" y="153.011558"/>
     <use style="fill:#0000ff;stroke:#0000ff;" x="219.719282" xlink:href="#mf6127a2b06" y="147.791761"/>
     <use style="fill:#0000ff;stroke:#0000ff;" x="296.620888" xlink:href="#mf6127a2b06" y="132.871632"/>
    </g>
   </g>
   <g id="line2d_80">
    <path clip-path="url(#p5d25239c17)" d="M 36.753348 172.122946 
L 39.837502 153.631237 
L 36.753348 143.17935 
L 45.565216 143.17935 
L 42.481062 153.631237 
L 45.565216 172.122946 
L 36.753348 172.122946 
" style="fill:none;stroke:#00bfbf;stroke-linecap:square;"/>
   </g>
   <g id="line2d_81">
    <path clip-path="url(#p5d25239c17)" d="M 36.753348 172.122946 
L 45.565216 172.122946 
L 45.565216 143.17935 
L 36.753348 143.17935 
L 36.753348 172.122946 
" style="fill:none;"/>
    <defs>
     <path d="M -0 3 
L 3 -3 
L -3 -3 
z
" id="m70f34acd3e" style="stroke:#00bfbf;stroke-linejoin:miter;stroke-width:2;"/>
    </defs>
    <g clip-path="url(#p5d25239c17)">
     <use style="fill:#00bfbf;stroke:#00bfbf;stroke-linejoin:miter;stroke-width:2;" x="36.753348" xlink:href="#m70f34acd3e" y="172.122946"/>
     <use style="fill:#00bfbf;stroke:#00bfbf;stroke-linejoin:miter;stroke-width:2;" x="45.565216" xlink:href="#m70f34acd3e" y="172.122946"/>
     <use style="fill:#00bfbf;stroke:#00bfbf;stroke-linejoin:miter;stroke-width:2;" x="45.565216" xlink:href="#m70f34acd3e" y="143.17935"/>
     <use style="fill:#00bfbf;stroke:#00bfbf;stroke-linejoin:miter;stroke-width:2;" x="36.753348" xlink:href="#m70f34acd3e" y="143.17935"/>
     <use style="fill:#00bfbf;stroke:#00bfbf;stroke-linejoin:miter;stroke-width:2;" x="36.753348" xlink:href="#m70f34acd3e" y="172.122946"/>
    </g>
   </g>
   <g id="line2d_82">
    <path clip-path="url(#p5d25239c17)" d="M 36.753348 153.631237 
L 45.565216 153.631237 
" style="fill:none;stroke:#00bfbf;stroke-linecap:square;stroke-width:2;"/>
   </g>
   <g id="line2d_83">
    <path clip-path="url(#p5d25239c17)" d="M 81.737904 155.547842 
L 84.822058 150.651011 
L 81.737904 147.698115 
L 90.549772 147.698115 
L 87.465618 150.651011 
L 90.549772 155.547842 
L 81.737904 155.547842 
" style="fill:none;stroke:#00bfbf;stroke-linecap:square;"/>
   </g>
   <g id="line2d_84">
    <path clip-path="url(#p5d25239c17)" d="M 81.737904 155.547842 
L 90.549772 155.547842 
L 90.549772 147.698115 
L 81.737904 147.698115 
L 81.737904 155.547842 
" style="fill:none;"/>
    <g clip-path="url(#p5d25239c17)">
     <use style="fill:#00bfbf;stroke:#00bfbf;stroke-linejoin:miter;stroke-width:2;" x="81.737904" xlink:href="#m70f34acd3e" y="155.547842"/>
     <use style="fill:#00bfbf;stroke:#00bfbf;stroke-linejoin:miter;stroke-width:2;" x="90.549772" xlink:href="#m70f34acd3e" y="155.547842"/>
     <use style="fill:#00bfbf;stroke:#00bfbf;stroke-linejoin:miter;stroke-width:2;" x="90.549772" xlink:href="#m70f34acd3e" y="147.698115"/>
     <use style="fill:#00bfbf;stroke:#00bfbf;stroke-linejoin:miter;stroke-width:2;" x="81.737904" xlink:href="#m70f34acd3e" y="147.698115"/>
     <use style="fill:#00bfbf;stroke:#00bfbf;stroke-linejoin:miter;stroke-width:2;" x="81.737904" xlink:href="#m70f34acd3e" y="155.547842"/>
    </g>
   </g>
   <g id="line2d_85">
    <path clip-path="url(#p5d25239c17)" d="M 81.737904 150.651011 
L 90.549772 150.651011 
" style="fill:none;stroke:#00bfbf;stroke-linecap:square;stroke-width:2;"/>
   </g>
   <g id="line2d_86">
    <path clip-path="url(#p5d25239c17)" d="M 138.411742 152.027855 
L 141.495896 144.86462 
L 138.411742 142.738132 
L 147.22361 142.738132 
L 144.139456 144.86462 
L 147.22361 152.027855 
L 138.411742 152.027855 
" style="fill:none;stroke:#00bfbf;stroke-linecap:square;"/>
   </g>
   <g id="line2d_87">
    <path clip-path="url(#p5d25239c17)" d="M 138.411742 152.027855 
L 147.22361 152.027855 
L 147.22361 142.738132 
L 138.411742 142.738132 
L 138.411742 152.027855 
" style="fill:none;"/>
    <g clip-path="url(#p5d25239c17)">
     <use style="fill:#00bfbf;stroke:#00bfbf;stroke-linejoin:miter;stroke-width:2;" x="138.411742" xlink:href="#m70f34acd3e" y="152.027855"/>
     <use style="fill:#00bfbf;stroke:#00bfbf;stroke-linejoin:miter;stroke-width:2;" x="147.22361" xlink:href="#m70f34acd3e" y="152.027855"/>
     <use style="fill:#00bfbf;stroke:#00bfbf;stroke-linejoin:miter;stroke-width:2;" x="147.22361" xlink:href="#m70f34acd3e" y="142.738132"/>
     <use style="fill:#00bfbf;stroke:#00bfbf;stroke-linejoin:miter;stroke-width:2;" x="138.411742" xlink:href="#m70f34acd3e" y="142.738132"/>
     <use style="fill:#00bfbf;stroke:#00bfbf;stroke-linejoin:miter;stroke-width:2;" x="138.411742" xlink:href="#m70f34acd3e" y="152.027855"/>
    </g>
   </g>
   <g id="line2d_88">
    <path clip-path="url(#p5d25239c17)" d="M 138.411742 144.86462 
L 147.22361 144.86462 
" style="fill:none;stroke:#00bfbf;stroke-linecap:square;stroke-width:2;"/>
   </g>
   <g id="line2d_89">
    <path clip-path="url(#p5d25239c17)" d="M 215.313348 139.875604 
L 218.397502 139.029425 
L 215.313348 135.456318 
L 224.125216 135.456318 
L 221.041062 139.029425 
L 224.125216 139.875604 
L 215.313348 139.875604 
" style="fill:none;stroke:#00bfbf;stroke-linecap:square;"/>
   </g>
   <g id="line2d_90">
    <path clip-path="url(#p5d25239c17)" d="M 215.313348 139.875604 
L 224.125216 139.875604 
L 224.125216 135.456318 
L 215.313348 135.456318 
L 215.313348 139.875604 
" style="fill:none;"/>
    <g clip-path="url(#p5d25239c17)">
     <use style="fill:#00bfbf;stroke:#00bfbf;stroke-linejoin:miter;stroke-width:2;" x="215.313348" xlink:href="#m70f34acd3e" y="139.875604"/>
     <use style="fill:#00bfbf;stroke:#00bfbf;stroke-linejoin:miter;stroke-width:2;" x="224.125216" xlink:href="#m70f34acd3e" y="139.875604"/>
     <use style="fill:#00bfbf;stroke:#00bfbf;stroke-linejoin:miter;stroke-width:2;" x="224.125216" xlink:href="#m70f34acd3e" y="135.456318"/>
     <use style="fill:#00bfbf;stroke:#00bfbf;stroke-linejoin:miter;stroke-width:2;" x="215.313348" xlink:href="#m70f34acd3e" y="135.456318"/>
     <use style="fill:#00bfbf;stroke:#00bfbf;stroke-linejoin:miter;stroke-width:2;" x="215.313348" xlink:href="#m70f34acd3e" y="139.875604"/>
    </g>
   </g>
   <g id="line2d_91">
    <path clip-path="url(#p5d25239c17)" d="M 215.313348 139.029425 
L 224.125216 139.029425 
" style="fill:none;stroke:#00bfbf;stroke-linecap:square;stroke-width:2;"/>
   </g>
   <g id="line2d_92">
    <path clip-path="url(#p5d25239c17)" d="M 292.214954 125.624729 
L 295.299108 123.395693 
L 292.214954 122.399107 
L 301.026822 122.399107 
L 297.942668 123.395693 
L 301.026822 125.624729 
L 292.214954 125.624729 
" style="fill:none;stroke:#00bfbf;stroke-linecap:square;"/>
   </g>
   <g id="line2d_93">
    <path clip-path="url(#p5d25239c17)" d="M 292.214954 125.624729 
L 301.026822 125.624729 
L 301.026822 122.399107 
L 292.214954 122.399107 
L 292.214954 125.624729 
" style="fill:none;"/>
    <g clip-path="url(#p5d25239c17)">
     <use style="fill:#00bfbf;stroke:#00bfbf;stroke-linejoin:miter;stroke-width:2;" x="292.214954" xlink:href="#m70f34acd3e" y="125.624729"/>
     <use style="fill:#00bfbf;stroke:#00bfbf;stroke-linejoin:miter;stroke-width:2;" x="301.026822" xlink:href="#m70f34acd3e" y="125.624729"/>
     <use style="fill:#00bfbf;stroke:#00bfbf;stroke-linejoin:miter;stroke-width:2;" x="301.026822" xlink:href="#m70f34acd3e" y="122.399107"/>
     <use style="fill:#00bfbf;stroke:#00bfbf;stroke-linejoin:miter;stroke-width:2;" x="292.214954" xlink:href="#m70f34acd3e" y="122.399107"/>
     <use style="fill:#00bfbf;stroke:#00bfbf;stroke-linejoin:miter;stroke-width:2;" x="292.214954" xlink:href="#m70f34acd3e" y="125.624729"/>
    </g>
   </g>
   <g id="line2d_94">
    <path clip-path="url(#p5d25239c17)" d="M 292.214954 123.395693 
L 301.026822 123.395693 
" style="fill:none;stroke:#00bfbf;stroke-linecap:square;stroke-width:2;"/>
   </g>
   <g id="line2d_95">
    <path clip-path="url(#p5d25239c17)" d="M 41.159282 150.187788 
L 86.143838 149.565516 
" style="fill:none;stroke:#00bfbf;stroke-linecap:square;stroke-width:4;"/>
   </g>
   <g id="line2d_96">
    <path clip-path="url(#p5d25239c17)" d="M 86.143838 149.565516 
L 142.817676 144.364167 
" style="fill:none;stroke:#00bfbf;stroke-linecap:square;stroke-width:4;"/>
   </g>
   <g id="line2d_97">
    <path clip-path="url(#p5d25239c17)" d="M 142.817676 144.364167 
L 219.719282 136.829455 
" style="fill:none;stroke:#00bfbf;stroke-linecap:square;stroke-width:4;"/>
   </g>
   <g id="line2d_98">
    <path clip-path="url(#p5d25239c17)" d="M 219.719282 136.829455 
L 296.620888 124.186377 
" style="fill:none;stroke:#00bfbf;stroke-linecap:square;stroke-width:4;"/>
   </g>
   <g id="line2d_99">
    <path clip-path="url(#p5d25239c17)" d="M 41.159282 150.187788 
L 86.143838 149.565516 
L 142.817676 144.364167 
L 219.719282 136.829455 
L 296.620888 124.186377 
" style="fill:none;"/>
    <defs>
     <path d="M -0 10 
L 10 -10 
L -10 -10 
z
" id="m3dec5ebed9" style="stroke:#000000;stroke-linejoin:miter;stroke-width:2;"/>
    </defs>
    <g clip-path="url(#p5d25239c17)">
     <use style="fill:#00bfbf;stroke:#000000;stroke-linejoin:miter;stroke-width:2;" x="41.159282" xlink:href="#m3dec5ebed9" y="150.187788"/>
     <use style="fill:#00bfbf;stroke:#000000;stroke-linejoin:miter;stroke-width:2;" x="86.143838" xlink:href="#m3dec5ebed9" y="149.565516"/>
     <use style="fill:#00bfbf;stroke:#000000;stroke-linejoin:miter;stroke-width:2;" x="142.817676" xlink:href="#m3dec5ebed9" y="144.364167"/>
     <use style="fill:#00bfbf;stroke:#000000;stroke-linejoin:miter;stroke-width:2;" x="219.719282" xlink:href="#m3dec5ebed9" y="136.829455"/>
     <use style="fill:#00bfbf;stroke:#000000;stroke-linejoin:miter;stroke-width:2;" x="296.620888" xlink:href="#m3dec5ebed9" y="124.186377"/>
    </g>
   </g>
   <g id="line2d_100">
    <path clip-path="url(#p5d25239c17)" d="M 35.872161 145.357494 
L 39.573146 138.143236 
L 35.872161 136.077163 
L 46.446403 136.077163 
L 42.745418 138.143236 
L 46.446403 145.357494 
L 35.872161 145.357494 
" style="fill:none;stroke:#008000;stroke-linecap:square;"/>
   </g>
   <g id="line2d_101">
    <path clip-path="url(#p5d25239c17)" d="M 35.872161 145.357494 
L 46.446403 145.357494 
L 46.446403 136.077163 
L 35.872161 136.077163 
L 35.872161 145.357494 
" style="fill:none;"/>
    <defs>
     <path d="M 0 1.5 
C 0.397805 1.5 0.77937 1.341951 1.06066 1.06066 
C 1.341951 0.77937 1.5 0.397805 1.5 0 
C 1.5 -0.397805 1.341951 -0.77937 1.06066 -1.06066 
C 0.77937 -1.341951 0.397805 -1.5 0 -1.5 
C -0.397805 -1.5 -0.77937 -1.341951 -1.06066 -1.06066 
C -1.341951 -0.77937 -1.5 -0.397805 -1.5 0 
C -1.5 0.397805 -1.341951 0.77937 -1.06066 1.06066 
C -0.77937 1.341951 -0.397805 1.5 0 1.5 
z
" id="m7b866ce60d" style="stroke:#008000;"/>
    </defs>
    <g clip-path="url(#p5d25239c17)">
     <use style="fill:#008000;stroke:#008000;" x="35.872161" xlink:href="#m7b866ce60d" y="145.357494"/>
     <use style="fill:#008000;stroke:#008000;" x="46.446403" xlink:href="#m7b866ce60d" y="145.357494"/>
     <use style="fill:#008000;stroke:#008000;" x="46.446403" xlink:href="#m7b866ce60d" y="136.077163"/>
     <use style="fill:#008000;stroke:#008000;" x="35.872161" xlink:href="#m7b866ce60d" y="136.077163"/>
     <use style="fill:#008000;stroke:#008000;" x="35.872161" xlink:href="#m7b866ce60d" y="145.357494"/>
    </g>
   </g>
   <g id="line2d_102">
    <path clip-path="url(#p5d25239c17)" d="M 35.872161 138.143236 
L 46.446403 138.143236 
" style="fill:none;stroke:#008000;stroke-linecap:square;stroke-width:2;"/>
   </g>
   <g id="line2d_103">
    <path clip-path="url(#p5d25239c17)" d="M 80.856717 146.167833 
L 84.557702 142.444379 
L 80.856717 135.85043 
L 91.430959 135.85043 
L 87.729974 142.444379 
L 91.430959 146.167833 
L 80.856717 146.167833 
" style="fill:none;stroke:#008000;stroke-linecap:square;"/>
   </g>
   <g id="line2d_104">
    <path clip-path="url(#p5d25239c17)" d="M 80.856717 146.167833 
L 91.430959 146.167833 
L 91.430959 135.85043 
L 80.856717 135.85043 
L 80.856717 146.167833 
" style="fill:none;"/>
    <g clip-path="url(#p5d25239c17)">
     <use style="fill:#008000;stroke:#008000;" x="80.856717" xlink:href="#m7b866ce60d" y="146.167833"/>
     <use style="fill:#008000;stroke:#008000;" x="91.430959" xlink:href="#m7b866ce60d" y="146.167833"/>
     <use style="fill:#008000;stroke:#008000;" x="91.430959" xlink:href="#m7b866ce60d" y="135.85043"/>
     <use style="fill:#008000;stroke:#008000;" x="80.856717" xlink:href="#m7b866ce60d" y="135.85043"/>
     <use style="fill:#008000;stroke:#008000;" x="80.856717" xlink:href="#m7b866ce60d" y="146.167833"/>
    </g>
   </g>
   <g id="line2d_105">
    <path clip-path="url(#p5d25239c17)" d="M 80.856717 142.444379 
L 91.430959 142.444379 
" style="fill:none;stroke:#008000;stroke-linecap:square;stroke-width:2;"/>
   </g>
   <g id="line2d_106">
    <path clip-path="url(#p5d25239c17)" d="M 137.530555 133.166047 
L 141.23154 131.106381 
L 137.530555 127.334406 
L 148.104797 127.334406 
L 144.403812 131.106381 
L 148.104797 133.166047 
L 137.530555 133.166047 
" style="fill:none;stroke:#008000;stroke-linecap:square;"/>
   </g>
   <g id="line2d_107">
    <path clip-path="url(#p5d25239c17)" d="M 137.530555 133.166047 
L 148.104797 133.166047 
L 148.104797 127.334406 
L 137.530555 127.334406 
L 137.530555 133.166047 
" style="fill:none;"/>
    <g clip-path="url(#p5d25239c17)">
     <use style="fill:#008000;stroke:#008000;" x="137.530555" xlink:href="#m7b866ce60d" y="133.166047"/>
     <use style="fill:#008000;stroke:#008000;" x="148.104797" xlink:href="#m7b866ce60d" y="133.166047"/>
     <use style="fill:#008000;stroke:#008000;" x="148.104797" xlink:href="#m7b866ce60d" y="127.334406"/>
     <use style="fill:#008000;stroke:#008000;" x="137.530555" xlink:href="#m7b866ce60d" y="127.334406"/>
     <use style="fill:#008000;stroke:#008000;" x="137.530555" xlink:href="#m7b866ce60d" y="133.166047"/>
    </g>
   </g>
   <g id="line2d_108">
    <path clip-path="url(#p5d25239c17)" d="M 137.530555 131.106381 
L 148.104797 131.106381 
" style="fill:none;stroke:#008000;stroke-linecap:square;stroke-width:2;"/>
   </g>
   <g id="line2d_109">
    <path clip-path="url(#p5d25239c17)" d="M 214.432161 130.580716 
L 218.133146 125.857203 
L 214.432161 123.486348 
L 225.006403 123.486348 
L 221.305418 125.857203 
L 225.006403 130.580716 
L 214.432161 130.580716 
" style="fill:none;stroke:#008000;stroke-linecap:square;"/>
   </g>
   <g id="line2d_110">
    <path clip-path="url(#p5d25239c17)" d="M 214.432161 130.580716 
L 225.006403 130.580716 
L 225.006403 123.486348 
L 214.432161 123.486348 
L 214.432161 130.580716 
" style="fill:none;"/>
    <g clip-path="url(#p5d25239c17)">
     <use style="fill:#008000;stroke:#008000;" x="214.432161" xlink:href="#m7b866ce60d" y="130.580716"/>
     <use style="fill:#008000;stroke:#008000;" x="225.006403" xlink:href="#m7b866ce60d" y="130.580716"/>
     <use style="fill:#008000;stroke:#008000;" x="225.006403" xlink:href="#m7b866ce60d" y="123.486348"/>
     <use style="fill:#008000;stroke:#008000;" x="214.432161" xlink:href="#m7b866ce60d" y="123.486348"/>
     <use style="fill:#008000;stroke:#008000;" x="214.432161" xlink:href="#m7b866ce60d" y="130.580716"/>
    </g>
   </g>
   <g id="line2d_111">
    <path clip-path="url(#p5d25239c17)" d="M 214.432161 125.857203 
L 225.006403 125.857203 
" style="fill:none;stroke:#008000;stroke-linecap:square;stroke-width:2;"/>
   </g>
   <g id="line2d_112">
    <path clip-path="url(#p5d25239c17)" d="M 291.333767 116.606987 
L 295.034752 114.712048 
L 291.333767 113.484533 
L 301.908009 113.484533 
L 298.207025 114.712048 
L 301.908009 116.606987 
L 291.333767 116.606987 
" style="fill:none;stroke:#008000;stroke-linecap:square;"/>
   </g>
   <g id="line2d_113">
    <path clip-path="url(#p5d25239c17)" d="M 291.333767 116.606987 
L 301.908009 116.606987 
L 301.908009 113.484533 
L 291.333767 113.484533 
L 291.333767 116.606987 
" style="fill:none;"/>
    <g clip-path="url(#p5d25239c17)">
     <use style="fill:#008000;stroke:#008000;" x="291.333767" xlink:href="#m7b866ce60d" y="116.606987"/>
     <use style="fill:#008000;stroke:#008000;" x="301.908009" xlink:href="#m7b866ce60d" y="116.606987"/>
     <use style="fill:#008000;stroke:#008000;" x="301.908009" xlink:href="#m7b866ce60d" y="113.484533"/>
     <use style="fill:#008000;stroke:#008000;" x="291.333767" xlink:href="#m7b866ce60d" y="113.484533"/>
     <use style="fill:#008000;stroke:#008000;" x="291.333767" xlink:href="#m7b866ce60d" y="116.606987"/>
    </g>
   </g>
   <g id="line2d_114">
    <path clip-path="url(#p5d25239c17)" d="M 291.333767 114.712048 
L 301.908009 114.712048 
" style="fill:none;stroke:#008000;stroke-linecap:square;stroke-width:2;"/>
   </g>
   <g id="line2d_115">
    <path clip-path="url(#p5d25239c17)" d="M 41.159282 135.82645 
L 86.143838 137.339039 
" style="fill:none;stroke:#008000;stroke-linecap:square;stroke-width:4;"/>
   </g>
   <g id="line2d_116">
    <path clip-path="url(#p5d25239c17)" d="M 86.143838 137.339039 
L 142.817676 130.784684 
" style="fill:none;stroke:#008000;stroke-linecap:square;stroke-width:4;"/>
   </g>
   <g id="line2d_117">
    <path clip-path="url(#p5d25239c17)" d="M 142.817676 130.784684 
L 219.719282 125.27324 
" style="fill:none;stroke:#008000;stroke-linecap:square;stroke-width:4;"/>
   </g>
   <g id="line2d_118">
    <path clip-path="url(#p5d25239c17)" d="M 219.719282 125.27324 
L 296.620888 114.286353 
" style="fill:none;stroke:#008000;stroke-linecap:square;stroke-width:4;"/>
   </g>
   <g id="line2d_119">
    <path clip-path="url(#p5d25239c17)" d="M 41.159282 135.82645 
L 86.143838 137.339039 
L 142.817676 130.784684 
L 219.719282 125.27324 
L 296.620888 114.286353 
" style="fill:none;"/>
    <defs>
     <path d="M 0 5 
C 1.326016 5 2.597899 4.473168 3.535534 3.535534 
C 4.473168 2.597899 5 1.326016 5 0 
C 5 -1.326016 4.473168 -2.597899 3.535534 -3.535534 
C 2.597899 -4.473168 1.326016 -5 0 -5 
C -1.326016 -5 -2.597899 -4.473168 -3.535534 -3.535534 
C -4.473168 -2.597899 -5 -1.326016 -5 0 
C -5 1.326016 -4.473168 2.597899 -3.535534 3.535534 
C -2.597899 4.473168 -1.326016 5 0 5 
z
" id="m86b8cee24c" style="stroke:#008000;"/>
    </defs>
    <g clip-path="url(#p5d25239c17)">
     <use style="fill:#008000;stroke:#008000;" x="41.159282" xlink:href="#m86b8cee24c" y="135.82645"/>
     <use style="fill:#008000;stroke:#008000;" x="86.143838" xlink:href="#m86b8cee24c" y="137.339039"/>
     <use style="fill:#008000;stroke:#008000;" x="142.817676" xlink:href="#m86b8cee24c" y="130.784684"/>
     <use style="fill:#008000;stroke:#008000;" x="219.719282" xlink:href="#m86b8cee24c" y="125.27324"/>
     <use style="fill:#008000;stroke:#008000;" x="296.620888" xlink:href="#m86b8cee24c" y="114.286353"/>
    </g>
   </g>
   <g id="line2d_120">
    <path clip-path="url(#p5d25239c17)" d="M 34.990974 131.59905 
L 39.30879 123.240635 
L 34.990974 119.067795 
L 47.32759 119.067795 
L 43.009774 123.240635 
L 47.32759 131.59905 
L 34.990974 131.59905 
" style="fill:none;stroke:#bfbf00;stroke-linecap:square;"/>
   </g>
   <g id="line2d_121">
    <path clip-path="url(#p5d25239c17)" d="M 34.990974 131.59905 
L 47.32759 131.59905 
L 47.32759 119.067795 
L 34.990974 119.067795 
L 34.990974 131.59905 
" style="fill:none;"/>
    <defs>
     <path d="M 0 -3 
L -3 3 
L 3 3 
z
" id="mf5ff340b3c" style="stroke:#bfbf00;stroke-linejoin:miter;stroke-width:2;"/>
    </defs>
    <g clip-path="url(#p5d25239c17)">
     <use style="fill:#bfbf00;stroke:#bfbf00;stroke-linejoin:miter;stroke-width:2;" x="34.990974" xlink:href="#mf5ff340b3c" y="131.59905"/>
     <use style="fill:#bfbf00;stroke:#bfbf00;stroke-linejoin:miter;stroke-width:2;" x="47.32759" xlink:href="#mf5ff340b3c" y="131.59905"/>
     <use style="fill:#bfbf00;stroke:#bfbf00;stroke-linejoin:miter;stroke-width:2;" x="47.32759" xlink:href="#mf5ff340b3c" y="119.067795"/>
     <use style="fill:#bfbf00;stroke:#bfbf00;stroke-linejoin:miter;stroke-width:2;" x="34.990974" xlink:href="#mf5ff340b3c" y="119.067795"/>
     <use style="fill:#bfbf00;stroke:#bfbf00;stroke-linejoin:miter;stroke-width:2;" x="34.990974" xlink:href="#mf5ff340b3c" y="131.59905"/>
    </g>
   </g>
   <g id="line2d_122">
    <path clip-path="url(#p5d25239c17)" d="M 34.990974 123.240635 
L 47.32759 123.240635 
" style="fill:none;stroke:#bfbf00;stroke-linecap:square;stroke-width:2;"/>
   </g>
   <g id="line2d_123">
    <path clip-path="url(#p5d25239c17)" d="M 79.97553 127.198894 
L 84.293346 123.429352 
L 79.97553 122.474798 
L 92.312146 122.474798 
L 87.99433 123.429352 
L 92.312146 127.198894 
L 79.97553 127.198894 
" style="fill:none;stroke:#bfbf00;stroke-linecap:square;"/>
   </g>
   <g id="line2d_124">
    <path clip-path="url(#p5d25239c17)" d="M 79.97553 127.198894 
L 92.312146 127.198894 
L 92.312146 122.474798 
L 79.97553 122.474798 
L 79.97553 127.198894 
" style="fill:none;"/>
    <g clip-path="url(#p5d25239c17)">
     <use style="fill:#bfbf00;stroke:#bfbf00;stroke-linejoin:miter;stroke-width:2;" x="79.97553" xlink:href="#mf5ff340b3c" y="127.198894"/>
     <use style="fill:#bfbf00;stroke:#bfbf00;stroke-linejoin:miter;stroke-width:2;" x="92.312146" xlink:href="#mf5ff340b3c" y="127.198894"/>
     <use style="fill:#bfbf00;stroke:#bfbf00;stroke-linejoin:miter;stroke-width:2;" x="92.312146" xlink:href="#mf5ff340b3c" y="122.474798"/>
     <use style="fill:#bfbf00;stroke:#bfbf00;stroke-linejoin:miter;stroke-width:2;" x="79.97553" xlink:href="#mf5ff340b3c" y="122.474798"/>
     <use style="fill:#bfbf00;stroke:#bfbf00;stroke-linejoin:miter;stroke-width:2;" x="79.97553" xlink:href="#mf5ff340b3c" y="127.198894"/>
    </g>
   </g>
   <g id="line2d_125">
    <path clip-path="url(#p5d25239c17)" d="M 79.97553 123.429352 
L 92.312146 123.429352 
" style="fill:none;stroke:#bfbf00;stroke-linecap:square;stroke-width:2;"/>
   </g>
   <g id="line2d_126">
    <path clip-path="url(#p5d25239c17)" d="M 136.649368 120.448878 
L 140.967184 112.164582 
L 136.649368 107.625836 
L 148.985984 107.625836 
L 144.668168 112.164582 
L 148.985984 120.448878 
L 136.649368 120.448878 
" style="fill:none;stroke:#bfbf00;stroke-linecap:square;"/>
   </g>
   <g id="line2d_127">
    <path clip-path="url(#p5d25239c17)" d="M 136.649368 120.448878 
L 148.985984 120.448878 
L 148.985984 107.625836 
L 136.649368 107.625836 
L 136.649368 120.448878 
" style="fill:none;"/>
    <g clip-path="url(#p5d25239c17)">
     <use style="fill:#bfbf00;stroke:#bfbf00;stroke-linejoin:miter;stroke-width:2;" x="136.649368" xlink:href="#mf5ff340b3c" y="120.448878"/>
     <use style="fill:#bfbf00;stroke:#bfbf00;stroke-linejoin:miter;stroke-width:2;" x="148.985984" xlink:href="#mf5ff340b3c" y="120.448878"/>
     <use style="fill:#bfbf00;stroke:#bfbf00;stroke-linejoin:miter;stroke-width:2;" x="148.985984" xlink:href="#mf5ff340b3c" y="107.625836"/>
     <use style="fill:#bfbf00;stroke:#bfbf00;stroke-linejoin:miter;stroke-width:2;" x="136.649368" xlink:href="#mf5ff340b3c" y="107.625836"/>
     <use style="fill:#bfbf00;stroke:#bfbf00;stroke-linejoin:miter;stroke-width:2;" x="136.649368" xlink:href="#mf5ff340b3c" y="120.448878"/>
    </g>
   </g>
   <g id="line2d_128">
    <path clip-path="url(#p5d25239c17)" d="M 136.649368 112.164582 
L 148.985984 112.164582 
" style="fill:none;stroke:#bfbf00;stroke-linecap:square;stroke-width:2;"/>
   </g>
   <g id="line2d_129">
    <path clip-path="url(#p5d25239c17)" d="M 213.550974 115.468384 
L 217.86879 114.302796 
L 213.550974 113.970414 
L 225.88759 113.970414 
L 221.569774 114.302796 
L 225.88759 115.468384 
L 213.550974 115.468384 
" style="fill:none;stroke:#bfbf00;stroke-linecap:square;"/>
   </g>
   <g id="line2d_130">
    <path clip-path="url(#p5d25239c17)" d="M 213.550974 115.468384 
L 225.88759 115.468384 
L 225.88759 113.970414 
L 213.550974 113.970414 
L 213.550974 115.468384 
" style="fill:none;"/>
    <g clip-path="url(#p5d25239c17)">
     <use style="fill:#bfbf00;stroke:#bfbf00;stroke-linejoin:miter;stroke-width:2;" x="213.550974" xlink:href="#mf5ff340b3c" y="115.468384"/>
     <use style="fill:#bfbf00;stroke:#bfbf00;stroke-linejoin:miter;stroke-width:2;" x="225.88759" xlink:href="#mf5ff340b3c" y="115.468384"/>
     <use style="fill:#bfbf00;stroke:#bfbf00;stroke-linejoin:miter;stroke-width:2;" x="225.88759" xlink:href="#mf5ff340b3c" y="113.970414"/>
     <use style="fill:#bfbf00;stroke:#bfbf00;stroke-linejoin:miter;stroke-width:2;" x="213.550974" xlink:href="#mf5ff340b3c" y="113.970414"/>
     <use style="fill:#bfbf00;stroke:#bfbf00;stroke-linejoin:miter;stroke-width:2;" x="213.550974" xlink:href="#mf5ff340b3c" y="115.468384"/>
    </g>
   </g>
   <g id="line2d_131">
    <path clip-path="url(#p5d25239c17)" d="M 213.550974 114.302796 
L 225.88759 114.302796 
" style="fill:none;stroke:#bfbf00;stroke-linecap:square;stroke-width:2;"/>
   </g>
   <g id="line2d_132">
    <path clip-path="url(#p5d25239c17)" d="M 290.452581 95.928954 
L 294.770396 91.133076 
L 290.452581 81.663601 
L 302.789196 81.663601 
L 298.471381 91.133076 
L 302.789196 95.928954 
L 290.452581 95.928954 
" style="fill:none;stroke:#bfbf00;stroke-linecap:square;"/>
   </g>
   <g id="line2d_133">
    <path clip-path="url(#p5d25239c17)" d="M 290.452581 95.928954 
L 302.789196 95.928954 
L 302.789196 81.663601 
L 290.452581 81.663601 
L 290.452581 95.928954 
" style="fill:none;"/>
    <g clip-path="url(#p5d25239c17)">
     <use style="fill:#bfbf00;stroke:#bfbf00;stroke-linejoin:miter;stroke-width:2;" x="290.452581" xlink:href="#mf5ff340b3c" y="95.928954"/>
     <use style="fill:#bfbf00;stroke:#bfbf00;stroke-linejoin:miter;stroke-width:2;" x="302.789196" xlink:href="#mf5ff340b3c" y="95.928954"/>
     <use style="fill:#bfbf00;stroke:#bfbf00;stroke-linejoin:miter;stroke-width:2;" x="302.789196" xlink:href="#mf5ff340b3c" y="81.663601"/>
     <use style="fill:#bfbf00;stroke:#bfbf00;stroke-linejoin:miter;stroke-width:2;" x="290.452581" xlink:href="#mf5ff340b3c" y="81.663601"/>
     <use style="fill:#bfbf00;stroke:#bfbf00;stroke-linejoin:miter;stroke-width:2;" x="290.452581" xlink:href="#mf5ff340b3c" y="95.928954"/>
    </g>
   </g>
   <g id="line2d_134">
    <path clip-path="url(#p5d25239c17)" d="M 290.452581 91.133076 
L 302.789196 91.133076 
" style="fill:none;stroke:#bfbf00;stroke-linecap:square;stroke-width:2;"/>
   </g>
   <g id="line2d_135">
    <path clip-path="url(#p5d25239c17)" d="M 41.159282 121.281131 
L 86.143838 118.643979 
" style="fill:none;stroke:#bfbf00;stroke-linecap:square;stroke-width:4;"/>
   </g>
   <g id="line2d_136">
    <path clip-path="url(#p5d25239c17)" d="M 86.143838 118.643979 
L 142.817676 115.253962 
" style="fill:none;stroke:#bfbf00;stroke-linecap:square;stroke-width:4;"/>
   </g>
   <g id="line2d_137">
    <path clip-path="url(#p5d25239c17)" d="M 142.817676 115.253962 
L 219.719282 112.226566 
" style="fill:none;stroke:#bfbf00;stroke-linecap:square;stroke-width:4;"/>
   </g>
   <g id="line2d_138">
    <path clip-path="url(#p5d25239c17)" d="M 219.719282 112.226566 
L 296.620888 75.527895 
" style="fill:none;stroke:#bfbf00;stroke-linecap:square;stroke-width:4;"/>
   </g>
   <g id="line2d_139">
    <path clip-path="url(#p5d25239c17)" d="M 41.159282 121.281131 
L 86.143838 118.643979 
L 142.817676 115.253962 
L 219.719282 112.226566 
L 296.620888 75.527895 
" style="fill:none;"/>
    <defs>
     <path d="M 0 -10 
L -10 10 
L 10 10 
z
" id="mfda5da2053" style="stroke:#000000;stroke-linejoin:miter;stroke-width:2;"/>
    </defs>
    <g clip-path="url(#p5d25239c17)">
     <use style="fill:#bfbf00;stroke:#000000;stroke-linejoin:miter;stroke-width:2;" x="41.159282" xlink:href="#mfda5da2053" y="121.281131"/>
     <use style="fill:#bfbf00;stroke:#000000;stroke-linejoin:miter;stroke-width:2;" x="86.143838" xlink:href="#mfda5da2053" y="118.643979"/>
     <use style="fill:#bfbf00;stroke:#000000;stroke-linejoin:miter;stroke-width:2;" x="142.817676" xlink:href="#mfda5da2053" y="115.253962"/>
     <use style="fill:#bfbf00;stroke:#000000;stroke-linejoin:miter;stroke-width:2;" x="219.719282" xlink:href="#mfda5da2053" y="112.226566"/>
     <use style="fill:#bfbf00;stroke:#000000;stroke-linejoin:miter;stroke-width:2;" x="296.620888" xlink:href="#mfda5da2053" y="75.527895"/>
    </g>
   </g>
   <g id="line2d_140">
    <path clip-path="url(#p5d25239c17)" d="M 34.109787 121.902913 
L 39.044434 86.036665 
L 34.109787 75.083574 
L 48.208777 75.083574 
L 43.27413 86.036665 
L 48.208777 121.902913 
L 34.109787 121.902913 
" style="fill:none;stroke:#bf00bf;stroke-linecap:square;"/>
   </g>
   <g id="line2d_141">
    <path clip-path="url(#p5d25239c17)" d="M 34.109787 121.902913 
L 48.208777 121.902913 
L 48.208777 75.083574 
L 34.109787 75.083574 
L 34.109787 121.902913 
" style="fill:none;"/>
    <defs>
     <path d="M 0 1.5 
C 0.397805 1.5 0.77937 1.341951 1.06066 1.06066 
C 1.341951 0.77937 1.5 0.397805 1.5 0 
C 1.5 -0.397805 1.341951 -0.77937 1.06066 -1.06066 
C 0.77937 -1.341951 0.397805 -1.5 0 -1.5 
C -0.397805 -1.5 -0.77937 -1.341951 -1.06066 -1.06066 
C -1.341951 -0.77937 -1.5 -0.397805 -1.5 0 
C -1.5 0.397805 -1.341951 0.77937 -1.06066 1.06066 
C -0.77937 1.341951 -0.397805 1.5 0 1.5 
z
" id="m5a86ad7682" style="stroke:#bf00bf;"/>
    </defs>
    <g clip-path="url(#p5d25239c17)">
     <use style="fill:#bf00bf;stroke:#bf00bf;" x="34.109787" xlink:href="#m5a86ad7682" y="121.902913"/>
     <use style="fill:#bf00bf;stroke:#bf00bf;" x="48.208777" xlink:href="#m5a86ad7682" y="121.902913"/>
     <use style="fill:#bf00bf;stroke:#bf00bf;" x="48.208777" xlink:href="#m5a86ad7682" y="75.083574"/>
     <use style="fill:#bf00bf;stroke:#bf00bf;" x="34.109787" xlink:href="#m5a86ad7682" y="75.083574"/>
     <use style="fill:#bf00bf;stroke:#bf00bf;" x="34.109787" xlink:href="#m5a86ad7682" y="121.902913"/>
    </g>
   </g>
   <g id="line2d_142">
    <path clip-path="url(#p5d25239c17)" d="M 34.109787 86.036665 
L 48.208777 86.036665 
" style="fill:none;stroke:#bf00bf;stroke-linecap:square;stroke-width:2;"/>
   </g>
   <g id="line2d_143">
    <path clip-path="url(#p5d25239c17)" d="M 135.768181 86.840961 
L 140.702827 74.896354 
L 135.768181 56.008883 
L 149.86717 56.008883 
L 144.932524 74.896354 
L 149.86717 86.840961 
L 135.768181 86.840961 
" style="fill:none;stroke:#bf00bf;stroke-linecap:square;"/>
   </g>
   <g id="line2d_144">
    <path clip-path="url(#p5d25239c17)" d="M 135.768181 86.840961 
L 149.86717 86.840961 
L 149.86717 56.008883 
L 135.768181 56.008883 
L 135.768181 86.840961 
" style="fill:none;"/>
    <g clip-path="url(#p5d25239c17)">
     <use style="fill:#bf00bf;stroke:#bf00bf;" x="135.768181" xlink:href="#m5a86ad7682" y="86.840961"/>
     <use style="fill:#bf00bf;stroke:#bf00bf;" x="149.86717" xlink:href="#m5a86ad7682" y="86.840961"/>
     <use style="fill:#bf00bf;stroke:#bf00bf;" x="149.86717" xlink:href="#m5a86ad7682" y="56.008883"/>
     <use style="fill:#bf00bf;stroke:#bf00bf;" x="135.768181" xlink:href="#m5a86ad7682" y="56.008883"/>
     <use style="fill:#bf00bf;stroke:#bf00bf;" x="135.768181" xlink:href="#m5a86ad7682" y="86.840961"/>
    </g>
   </g>
   <g id="line2d_145">
    <path clip-path="url(#p5d25239c17)" d="M 135.768181 74.896354 
L 149.86717 74.896354 
" style="fill:none;stroke:#bf00bf;stroke-linecap:square;stroke-width:2;"/>
   </g>
   <g id="line2d_146">
    <path clip-path="url(#p5d25239c17)" d="M 41.159282 78.468315 
L 142.817676 66.613719 
" style="fill:none;"/>
    <defs>
     <path d="M 0 5 
C 1.326016 5 2.597899 4.473168 3.535534 3.535534 
C 4.473168 2.597899 5 1.326016 5 0 
C 5 -1.326016 4.473168 -2.597899 3.535534 -3.535534 
C 2.597899 -4.473168 1.326016 -5 0 -5 
C -1.326016 -5 -2.597899 -4.473168 -3.535534 -3.535534 
C -4.473168 -2.597899 -5 -1.326016 -5 0 
C -5 1.326016 -4.473168 2.597899 -3.535534 3.535534 
C -2.597899 4.473168 -1.326016 5 0 5 
z
" id="m1f93f51856" style="stroke:#bf00bf;"/>
    </defs>
    <g clip-path="url(#p5d25239c17)">
     <use style="fill:#bf00bf;stroke:#bf00bf;" x="41.159282" xlink:href="#m1f93f51856" y="78.468315"/>
     <use style="fill:#bf00bf;stroke:#bf00bf;" x="142.817676" xlink:href="#m1f93f51856" y="66.613719"/>
    </g>
   </g>
   <g id="line2d_147"/>
   <g id="line2d_148"/>
   <g id="line2d_149"/>
   <g id="line2d_150"/>
   <g id="line2d_151"/>
   <g id="line2d_152"/>
   <g id="line2d_153"/>
   <g id="line2d_154">
    <defs>
     <path d="M -10 10 
L 10 -10 
M -10 -10 
L 10 10 
" id="m057920d79d" style="stroke:#ff0000;"/>
    </defs>
    <g clip-path="url(#p5d25239c17)">
     <use style="fill:#ff0000;stroke:#ff0000;" x="41.159282" xlink:href="#m057920d79d" y="105.946939"/>
     <use style="fill:#ff0000;stroke:#ff0000;" x="86.143838" xlink:href="#m057920d79d" y="106.472074"/>
     <use style="fill:#ff0000;stroke:#ff0000;" x="142.817676" xlink:href="#m057920d79d" y="106.373791"/>
     <use style="fill:#ff0000;stroke:#ff0000;" x="219.719282" xlink:href="#m057920d79d" y="106.70332"/>
     <use style="fill:#ff0000;stroke:#ff0000;" x="296.620888" xlink:href="#m057920d79d" y="106.419801"/>
    </g>
   </g>
   <g id="line2d_155">
    <path clip-path="url(#p5d25239c17)" d="M -1 333.215822 
L 403.205 274.735739 
" style="fill:none;stroke:#000000;stroke-dasharray:0.5,0.825;stroke-dashoffset:0;stroke-width:0.5;"/>
   </g>
   <g id="line2d_156">
    <path clip-path="url(#p5d25239c17)" d="M -1 259.295827 
L 403.205 200.815744 
" style="fill:none;stroke:#000000;stroke-dasharray:0.5,0.825;stroke-dashoffset:0;stroke-width:0.5;"/>
   </g>
   <g id="line2d_157">
    <path clip-path="url(#p5d25239c17)" d="M -1 185.375831 
L 403.205 126.895748 
" style="fill:none;stroke:#000000;stroke-dasharray:0.5,0.825;stroke-dashoffset:0;stroke-width:0.5;"/>
   </g>
   <g id="line2d_158">
    <path clip-path="url(#p5d25239c17)" d="M -1 111.455836 
L 403.205 52.975753 
" style="fill:none;stroke:#000000;stroke-dasharray:0.5,0.825;stroke-dashoffset:0;stroke-width:0.5;"/>
   </g>
   <g id="line2d_159">
    <path clip-path="url(#p5d25239c17)" d="M -1 37.53584 
L 265.353577 -1 
" style="fill:none;stroke:#000000;stroke-dasharray:0.5,0.825;stroke-dashoffset:0;stroke-width:0.5;"/>
   </g>
   <g id="patch_3">
    <path d="M 29.47 297.54825 
L 29.47 31.43625 
" style="fill:none;stroke:#000000;stroke-linecap:square;stroke-linejoin:miter;stroke-width:0.8;"/>
   </g>
   <g id="patch_4">
    <path d="M 386.59 297.54825 
L 386.59 31.43625 
" style="fill:none;stroke:#000000;stroke-linecap:square;stroke-linejoin:miter;stroke-width:0.8;"/>
   </g>
   <g id="patch_5">
    <path d="M 29.47 297.54825 
L 386.59 297.54825 
" style="fill:none;stroke:#000000;stroke-linecap:square;stroke-linejoin:miter;stroke-width:0.8;"/>
   </g>
   <g id="patch_6">
    <path d="M 29.47 31.43625 
L 386.59 31.43625 
" style="fill:none;stroke:#000000;stroke-linecap:square;stroke-linejoin:miter;stroke-width:0.8;"/>
   </g>
   <g id="text_15">
    <!-- 2 -->
    <g transform="translate(34.669532 67.71742)scale(0.204 -0.204)">
     <use xlink:href="#DejaVuSans-32"/>
    </g>
   </g>
   <g id="text_16">
    <!-- 14 -->
    <g transform="translate(206.739782 101.475671)scale(0.204 -0.204)">
     <use xlink:href="#DejaVuSans-31"/>
     <use x="63.623047" xlink:href="#DejaVuSans-34"/>
    </g>
   </g>
   <g id="text_17">
    <!-- 14 -->
    <g transform="translate(73.164338 107.893084)scale(0.204 -0.204)">
     <use xlink:href="#DejaVuSans-31"/>
     <use x="63.623047" xlink:href="#DejaVuSans-34"/>
    </g>
   </g>
   <g id="text_18">
    <!-- 2 -->
    <g transform="translate(290.131138 64.777)scale(0.204 -0.204)">
     <use xlink:href="#DejaVuSans-32"/>
    </g>
   </g>
   <g id="text_19">
    <!-- 1 -->
    <g transform="translate(136.327926 55.862824)scale(0.204 -0.204)">
     <use xlink:href="#DejaVuSans-31"/>
    </g>
   </g>
   <g id="text_20">
    <!-- 15 instances -->
    <defs>
     <path id="DejaVuSans-20"/>
     <path d="M 9.421875 54.6875 
L 18.40625 54.6875 
L 18.40625 0 
L 9.421875 0 
z
M 9.421875 75.984375 
L 18.40625 75.984375 
L 18.40625 64.59375 
L 9.421875 64.59375 
z
" id="DejaVuSans-69"/>
     <path d="M 54.890625 33.015625 
L 54.890625 0 
L 45.90625 0 
L 45.90625 32.71875 
Q 45.90625 40.484375 42.875 44.328125 
Q 39.84375 48.1875 33.796875 48.1875 
Q 26.515625 48.1875 22.3125 43.546875 
Q 18.109375 38.921875 18.109375 30.90625 
L 18.109375 0 
L 9.078125 0 
L 9.078125 54.6875 
L 18.109375 54.6875 
L 18.109375 46.1875 
Q 21.34375 51.125 25.703125 53.5625 
Q 30.078125 56 35.796875 56 
Q 45.21875 56 50.046875 50.171875 
Q 54.890625 44.34375 54.890625 33.015625 
z
" id="DejaVuSans-6e"/>
     <path d="M 44.28125 53.078125 
L 44.28125 44.578125 
Q 40.484375 46.53125 36.375 47.5 
Q 32.28125 48.484375 27.875 48.484375 
Q 21.1875 48.484375 17.84375 46.4375 
Q 14.5 44.390625 14.5 40.28125 
Q 14.5 37.15625 16.890625 35.375 
Q 19.28125 33.59375 26.515625 31.984375 
L 29.59375 31.296875 
Q 39.15625 29.25 43.1875 25.515625 
Q 47.21875 21.78125 47.21875 15.09375 
Q 47.21875 7.46875 41.1875 3.015625 
Q 35.15625 -1.421875 24.609375 -1.421875 
Q 20.21875 -1.421875 15.453125 -0.5625 
Q 10.6875 0.296875 5.421875 2 
L 5.421875 11.28125 
Q 10.40625 8.6875 15.234375 7.390625 
Q 20.0625 6.109375 24.8125 6.109375 
Q 31.15625 6.109375 34.5625 8.28125 
Q 37.984375 10.453125 37.984375 14.40625 
Q 37.984375 18.0625 35.515625 20.015625 
Q 33.0625 21.96875 24.703125 23.78125 
L 21.578125 24.515625 
Q 13.234375 26.265625 9.515625 29.90625 
Q 5.8125 33.546875 5.8125 39.890625 
Q 5.8125 47.609375 11.28125 51.796875 
Q 16.75 56 26.8125 56 
Q 31.78125 56 36.171875 55.265625 
Q 40.578125 54.546875 44.28125 53.078125 
z
" id="DejaVuSans-73"/>
     <path d="M 18.3125 70.21875 
L 18.3125 54.6875 
L 36.8125 54.6875 
L 36.8125 47.703125 
L 18.3125 47.703125 
L 18.3125 18.015625 
Q 18.3125 11.328125 20.140625 9.421875 
Q 21.96875 7.515625 27.59375 7.515625 
L 36.8125 7.515625 
L 36.8125 0 
L 27.59375 0 
Q 17.1875 0 13.234375 3.875 
Q 9.28125 7.765625 9.28125 18.015625 
L 9.28125 47.703125 
L 2.6875 47.703125 
L 2.6875 54.6875 
L 9.28125 54.6875 
L 9.28125 70.21875 
z
" id="DejaVuSans-74"/>
     <path d="M 34.28125 27.484375 
Q 23.390625 27.484375 19.1875 25 
Q 14.984375 22.515625 14.984375 16.5 
Q 14.984375 11.71875 18.140625 8.90625 
Q 21.296875 6.109375 26.703125 6.109375 
Q 34.1875 6.109375 38.703125 11.40625 
Q 43.21875 16.703125 43.21875 25.484375 
L 43.21875 27.484375 
z
M 52.203125 31.203125 
L 52.203125 0 
L 43.21875 0 
L 43.21875 8.296875 
Q 40.140625 3.328125 35.546875 0.953125 
Q 30.953125 -1.421875 24.3125 -1.421875 
Q 15.921875 -1.421875 10.953125 3.296875 
Q 6 8.015625 6 15.921875 
Q 6 25.140625 12.171875 29.828125 
Q 18.359375 34.515625 30.609375 34.515625 
L 43.21875 34.515625 
L 43.21875 35.40625 
Q 43.21875 41.609375 39.140625 45 
Q 35.0625 48.390625 27.6875 48.390625 
Q 23 48.390625 18.546875 47.265625 
Q 14.109375 46.140625 10.015625 43.890625 
L 10.015625 52.203125 
Q 14.9375 54.109375 19.578125 55.046875 
Q 24.21875 56 28.609375 56 
Q 40.484375 56 46.34375 49.84375 
Q 52.203125 43.703125 52.203125 31.203125 
z
" id="DejaVuSans-61"/>
     <path d="M 48.78125 52.59375 
L 48.78125 44.1875 
Q 44.96875 46.296875 41.140625 47.34375 
Q 37.3125 48.390625 33.40625 48.390625 
Q 24.65625 48.390625 19.8125 42.84375 
Q 14.984375 37.3125 14.984375 27.296875 
Q 14.984375 17.28125 19.8125 11.734375 
Q 24.65625 6.203125 33.40625 6.203125 
Q 37.3125 6.203125 41.140625 7.25 
Q 44.96875 8.296875 48.78125 10.40625 
L 48.78125 2.09375 
Q 45.015625 0.34375 40.984375 -0.53125 
Q 36.96875 -1.421875 32.421875 -1.421875 
Q 20.0625 -1.421875 12.78125 6.34375 
Q 5.515625 14.109375 5.515625 27.296875 
Q 5.515625 40.671875 12.859375 48.328125 
Q 20.21875 56 33.015625 56 
Q 37.15625 56 41.109375 55.140625 
Q 45.0625 54.296875 48.78125 52.59375 
z
" id="DejaVuSans-63"/>
     <path d="M 56.203125 29.59375 
L 56.203125 25.203125 
L 14.890625 25.203125 
Q 15.484375 15.921875 20.484375 11.0625 
Q 25.484375 6.203125 34.421875 6.203125 
Q 39.59375 6.203125 44.453125 7.46875 
Q 49.3125 8.734375 54.109375 11.28125 
L 54.109375 2.78125 
Q 49.265625 0.734375 44.1875 -0.34375 
Q 39.109375 -1.421875 33.890625 -1.421875 
Q 20.796875 -1.421875 13.15625 6.1875 
Q 5.515625 13.8125 5.515625 26.8125 
Q 5.515625 40.234375 12.765625 48.109375 
Q 20.015625 56 32.328125 56 
Q 43.359375 56 49.78125 48.890625 
Q 56.203125 41.796875 56.203125 29.59375 
z
M 47.21875 32.234375 
Q 47.125 39.59375 43.09375 43.984375 
Q 39.0625 48.390625 32.421875 48.390625 
Q 24.90625 48.390625 20.390625 44.140625 
Q 15.875 39.890625 15.1875 32.171875 
z
" id="DejaVuSans-65"/>
    </defs>
    <g transform="translate(29.47 278.95975)scale(0.14 -0.14)">
     <use xlink:href="#DejaVuSans-31"/>
     <use x="63.623047" xlink:href="#DejaVuSans-35"/>
     <use x="127.246094" xlink:href="#DejaVuSans-20"/>
     <use x="159.033203" xlink:href="#DejaVuSans-69"/>
     <use x="186.816406" xlink:href="#DejaVuSans-6e"/>
     <use x="250.195312" xlink:href="#DejaVuSans-73"/>
     <use x="302.294922" xlink:href="#DejaVuSans-74"/>
     <use x="341.503906" xlink:href="#DejaVuSans-61"/>
     <use x="402.783203" xlink:href="#DejaVuSans-6e"/>
     <use x="466.162109" xlink:href="#DejaVuSans-63"/>
     <use x="521.142578" xlink:href="#DejaVuSans-65"/>
     <use x="582.666016" xlink:href="#DejaVuSans-73"/>
    </g>
    <!-- absolute targets -->
    <defs>
     <path d="M 48.6875 27.296875 
Q 48.6875 37.203125 44.609375 42.84375 
Q 40.53125 48.484375 33.40625 48.484375 
Q 26.265625 48.484375 22.1875 42.84375 
Q 18.109375 37.203125 18.109375 27.296875 
Q 18.109375 17.390625 22.1875 11.75 
Q 26.265625 6.109375 33.40625 6.109375 
Q 40.53125 6.109375 44.609375 11.75 
Q 48.6875 17.390625 48.6875 27.296875 
z
M 18.109375 46.390625 
Q 20.953125 51.265625 25.265625 53.625 
Q 29.59375 56 35.59375 56 
Q 45.5625 56 51.78125 48.09375 
Q 58.015625 40.1875 58.015625 27.296875 
Q 58.015625 14.40625 51.78125 6.484375 
Q 45.5625 -1.421875 35.59375 -1.421875 
Q 29.59375 -1.421875 25.265625 0.953125 
Q 20.953125 3.328125 18.109375 8.203125 
L 18.109375 0 
L 9.078125 0 
L 9.078125 75.984375 
L 18.109375 75.984375 
z
" id="DejaVuSans-62"/>
     <path d="M 30.609375 48.390625 
Q 23.390625 48.390625 19.1875 42.75 
Q 14.984375 37.109375 14.984375 27.296875 
Q 14.984375 17.484375 19.15625 11.84375 
Q 23.34375 6.203125 30.609375 6.203125 
Q 37.796875 6.203125 41.984375 11.859375 
Q 46.1875 17.53125 46.1875 27.296875 
Q 46.1875 37.015625 41.984375 42.703125 
Q 37.796875 48.390625 30.609375 48.390625 
z
M 30.609375 56 
Q 42.328125 56 49.015625 48.375 
Q 55.71875 40.765625 55.71875 27.296875 
Q 55.71875 13.875 49.015625 6.21875 
Q 42.328125 -1.421875 30.609375 -1.421875 
Q 18.84375 -1.421875 12.171875 6.21875 
Q 5.515625 13.875 5.515625 27.296875 
Q 5.515625 40.765625 12.171875 48.375 
Q 18.84375 56 30.609375 56 
z
" id="DejaVuSans-6f"/>
     <path d="M 9.421875 75.984375 
L 18.40625 75.984375 
L 18.40625 0 
L 9.421875 0 
z
" id="DejaVuSans-6c"/>
     <path d="M 8.5 21.578125 
L 8.5 54.6875 
L 17.484375 54.6875 
L 17.484375 21.921875 
Q 17.484375 14.15625 20.5 10.265625 
Q 23.53125 6.390625 29.59375 6.390625 
Q 36.859375 6.390625 41.078125 11.03125 
Q 45.3125 15.671875 45.3125 23.6875 
L 45.3125 54.6875 
L 54.296875 54.6875 
L 54.296875 0 
L 45.3125 0 
L 45.3125 8.40625 
Q 42.046875 3.421875 37.71875 1 
Q 33.40625 -1.421875 27.6875 -1.421875 
Q 18.265625 -1.421875 13.375 4.4375 
Q 8.5 10.296875 8.5 21.578125 
z
M 31.109375 56 
z
" id="DejaVuSans-75"/>
     <path d="M 41.109375 46.296875 
Q 39.59375 47.171875 37.8125 47.578125 
Q 36.03125 48 33.890625 48 
Q 26.265625 48 22.1875 43.046875 
Q 18.109375 38.09375 18.109375 28.8125 
L 18.109375 0 
L 9.078125 0 
L 9.078125 54.6875 
L 18.109375 54.6875 
L 18.109375 46.1875 
Q 20.953125 51.171875 25.484375 53.578125 
Q 30.03125 56 36.53125 56 
Q 37.453125 56 38.578125 55.875 
Q 39.703125 55.765625 41.0625 55.515625 
z
" id="DejaVuSans-72"/>
     <path d="M 45.40625 27.984375 
Q 45.40625 37.75 41.375 43.109375 
Q 37.359375 48.484375 30.078125 48.484375 
Q 22.859375 48.484375 18.828125 43.109375 
Q 14.796875 37.75 14.796875 27.984375 
Q 14.796875 18.265625 18.828125 12.890625 
Q 22.859375 7.515625 30.078125 7.515625 
Q 37.359375 7.515625 41.375 12.890625 
Q 45.40625 18.265625 45.40625 27.984375 
z
M 54.390625 6.78125 
Q 54.390625 -7.171875 48.1875 -13.984375 
Q 42 -20.796875 29.203125 -20.796875 
Q 24.46875 -20.796875 20.265625 -20.09375 
Q 16.0625 -19.390625 12.109375 -17.921875 
L 12.109375 -9.1875 
Q 16.0625 -11.328125 19.921875 -12.34375 
Q 23.78125 -13.375 27.78125 -13.375 
Q 36.625 -13.375 41.015625 -8.765625 
Q 45.40625 -4.15625 45.40625 5.171875 
L 45.40625 9.625 
Q 42.625 4.78125 38.28125 2.390625 
Q 33.9375 0 27.875 0 
Q 17.828125 0 11.671875 7.65625 
Q 5.515625 15.328125 5.515625 27.984375 
Q 5.515625 40.671875 11.671875 48.328125 
Q 17.828125 56 27.875 56 
Q 33.9375 56 38.28125 53.609375 
Q 42.625 51.21875 45.40625 46.390625 
L 45.40625 54.6875 
L 54.390625 54.6875 
z
" id="DejaVuSans-67"/>
    </defs>
    <g transform="translate(29.47 294.636687)scale(0.14 -0.14)">
     <use xlink:href="#DejaVuSans-61"/>
     <use x="61.279297" xlink:href="#DejaVuSans-62"/>
     <use x="124.755859" xlink:href="#DejaVuSans-73"/>
     <use x="176.855469" xlink:href="#DejaVuSans-6f"/>
     <use x="238.037109" xlink:href="#DejaVuSans-6c"/>
     <use x="265.820312" xlink:href="#DejaVuSans-75"/>
     <use x="329.199219" xlink:href="#DejaVuSans-74"/>
     <use x="368.408203" xlink:href="#DejaVuSans-65"/>
     <use x="429.931641" xlink:href="#DejaVuSans-20"/>
     <use x="461.71875" xlink:href="#DejaVuSans-74"/>
     <use x="500.927734" xlink:href="#DejaVuSans-61"/>
     <use x="562.207031" xlink:href="#DejaVuSans-72"/>
     <use x="603.304688" xlink:href="#DejaVuSans-67"/>
     <use x="666.78125" xlink:href="#DejaVuSans-65"/>
     <use x="728.304688" xlink:href="#DejaVuSans-74"/>
     <use x="767.513672" xlink:href="#DejaVuSans-73"/>
    </g>
   </g>
   <g id="text_21">
    <!-- v0.0.0 -->
    <defs>
     <path d="M 2.984375 54.6875 
L 12.5 54.6875 
L 29.59375 8.796875 
L 46.6875 54.6875 
L 56.203125 54.6875 
L 35.6875 0 
L 23.484375 0 
z
" id="DejaVuSans-76"/>
     <path d="M 10.6875 12.40625 
L 21 12.40625 
L 21 0 
L 10.6875 0 
z
" id="DejaVuSans-2e"/>
    </defs>
    <g style="fill:#808080;" transform="translate(192.34875 292.807442)scale(0.1 -0.1)">
     <use xlink:href="#DejaVuSans-76"/>
     <use x="59.179688" xlink:href="#DejaVuSans-30"/>
     <use x="122.802734" xlink:href="#DejaVuSans-2e"/>
     <use x="154.589844" xlink:href="#DejaVuSans-30"/>
     <use x="218.212891" xlink:href="#DejaVuSans-2e"/>
     <use x="250" xlink:href="#DejaVuSans-30"/>
    </g>
   </g>
   <g id="text_22">
    <!-- 4 Skew Rastrigin-Bueche separ -->
    <defs>
     <path d="M 53.515625 70.515625 
L 53.515625 60.890625 
Q 47.90625 63.578125 42.921875 64.890625 
Q 37.9375 66.21875 33.296875 66.21875 
Q 25.25 66.21875 20.875 63.09375 
Q 16.5 59.96875 16.5 54.203125 
Q 16.5 49.359375 19.40625 46.890625 
Q 22.3125 44.4375 30.421875 42.921875 
L 36.375 41.703125 
Q 47.40625 39.59375 52.65625 34.296875 
Q 57.90625 29 57.90625 20.125 
Q 57.90625 9.515625 50.796875 4.046875 
Q 43.703125 -1.421875 29.984375 -1.421875 
Q 24.8125 -1.421875 18.96875 -0.25 
Q 13.140625 0.921875 6.890625 3.21875 
L 6.890625 13.375 
Q 12.890625 10.015625 18.65625 8.296875 
Q 24.421875 6.59375 29.984375 6.59375 
Q 38.421875 6.59375 43.015625 9.90625 
Q 47.609375 13.234375 47.609375 19.390625 
Q 47.609375 24.75 44.3125 27.78125 
Q 41.015625 30.8125 33.5 32.328125 
L 27.484375 33.5 
Q 16.453125 35.6875 11.515625 40.375 
Q 6.59375 45.0625 6.59375 53.421875 
Q 6.59375 63.09375 13.40625 68.65625 
Q 20.21875 74.21875 32.171875 74.21875 
Q 37.3125 74.21875 42.625 73.28125 
Q 47.953125 72.359375 53.515625 70.515625 
z
" id="DejaVuSans-53"/>
     <path d="M 9.078125 75.984375 
L 18.109375 75.984375 
L 18.109375 31.109375 
L 44.921875 54.6875 
L 56.390625 54.6875 
L 27.390625 29.109375 
L 57.625 0 
L 45.90625 0 
L 18.109375 26.703125 
L 18.109375 0 
L 9.078125 0 
z
" id="DejaVuSans-6b"/>
     <path d="M 4.203125 54.6875 
L 13.1875 54.6875 
L 24.421875 12.015625 
L 35.59375 54.6875 
L 46.1875 54.6875 
L 57.421875 12.015625 
L 68.609375 54.6875 
L 77.59375 54.6875 
L 63.28125 0 
L 52.6875 0 
L 40.921875 44.828125 
L 29.109375 0 
L 18.5 0 
z
" id="DejaVuSans-77"/>
     <path d="M 44.390625 34.1875 
Q 47.5625 33.109375 50.5625 29.59375 
Q 53.5625 26.078125 56.59375 19.921875 
L 66.609375 0 
L 56 0 
L 46.6875 18.703125 
Q 43.0625 26.03125 39.671875 28.421875 
Q 36.28125 30.8125 30.421875 30.8125 
L 19.671875 30.8125 
L 19.671875 0 
L 9.8125 0 
L 9.8125 72.90625 
L 32.078125 72.90625 
Q 44.578125 72.90625 50.734375 67.671875 
Q 56.890625 62.453125 56.890625 51.90625 
Q 56.890625 45.015625 53.6875 40.46875 
Q 50.484375 35.9375 44.390625 34.1875 
z
M 19.671875 64.796875 
L 19.671875 38.921875 
L 32.078125 38.921875 
Q 39.203125 38.921875 42.84375 42.21875 
Q 46.484375 45.515625 46.484375 51.90625 
Q 46.484375 58.296875 42.84375 61.546875 
Q 39.203125 64.796875 32.078125 64.796875 
z
" id="DejaVuSans-52"/>
     <path d="M 4.890625 31.390625 
L 31.203125 31.390625 
L 31.203125 23.390625 
L 4.890625 23.390625 
z
" id="DejaVuSans-2d"/>
     <path d="M 19.671875 34.8125 
L 19.671875 8.109375 
L 35.5 8.109375 
Q 43.453125 8.109375 47.28125 11.40625 
Q 51.125 14.703125 51.125 21.484375 
Q 51.125 28.328125 47.28125 31.5625 
Q 43.453125 34.8125 35.5 34.8125 
z
M 19.671875 64.796875 
L 19.671875 42.828125 
L 34.28125 42.828125 
Q 41.5 42.828125 45.03125 45.53125 
Q 48.578125 48.25 48.578125 53.8125 
Q 48.578125 59.328125 45.03125 62.0625 
Q 41.5 64.796875 34.28125 64.796875 
z
M 9.8125 72.90625 
L 35.015625 72.90625 
Q 46.296875 72.90625 52.390625 68.21875 
Q 58.5 63.53125 58.5 54.890625 
Q 58.5 48.1875 55.375 44.234375 
Q 52.25 40.28125 46.1875 39.3125 
Q 53.46875 37.75 57.5 32.78125 
Q 61.53125 27.828125 61.53125 20.40625 
Q 61.53125 10.640625 54.890625 5.3125 
Q 48.25 0 35.984375 0 
L 9.8125 0 
z
" id="DejaVuSans-42"/>
     <path d="M 54.890625 33.015625 
L 54.890625 0 
L 45.90625 0 
L 45.90625 32.71875 
Q 45.90625 40.484375 42.875 44.328125 
Q 39.84375 48.1875 33.796875 48.1875 
Q 26.515625 48.1875 22.3125 43.546875 
Q 18.109375 38.921875 18.109375 30.90625 
L 18.109375 0 
L 9.078125 0 
L 9.078125 75.984375 
L 18.109375 75.984375 
L 18.109375 46.1875 
Q 21.34375 51.125 25.703125 53.5625 
Q 30.078125 56 35.796875 56 
Q 45.21875 56 50.046875 50.171875 
Q 54.890625 44.34375 54.890625 33.015625 
z
" id="DejaVuSans-68"/>
     <path d="M 18.109375 8.203125 
L 18.109375 -20.796875 
L 9.078125 -20.796875 
L 9.078125 54.6875 
L 18.109375 54.6875 
L 18.109375 46.390625 
Q 20.953125 51.265625 25.265625 53.625 
Q 29.59375 56 35.59375 56 
Q 45.5625 56 51.78125 48.09375 
Q 58.015625 40.1875 58.015625 27.296875 
Q 58.015625 14.40625 51.78125 6.484375 
Q 45.5625 -1.421875 35.59375 -1.421875 
Q 29.59375 -1.421875 25.265625 0.953125 
Q 20.953125 3.328125 18.109375 8.203125 
z
M 48.6875 27.296875 
Q 48.6875 37.203125 44.609375 42.84375 
Q 40.53125 48.484375 33.40625 48.484375 
Q 26.265625 48.484375 22.1875 42.84375 
Q 18.109375 37.203125 18.109375 27.296875 
Q 18.109375 17.390625 22.1875 11.75 
Q 26.265625 6.109375 33.40625 6.109375 
Q 40.53125 6.109375 44.609375 11.75 
Q 48.6875 17.390625 48.6875 27.296875 
z
" id="DejaVuSans-70"/>
    </defs>
    <g transform="translate(21.055 25.43625)scale(0.24 -0.24)">
     <use xlink:href="#DejaVuSans-34"/>
     <use x="63.623047" xlink:href="#DejaVuSans-20"/>
     <use x="95.410156" xlink:href="#DejaVuSans-53"/>
     <use x="158.886719" xlink:href="#DejaVuSans-6b"/>
     <use x="216.75" xlink:href="#DejaVuSans-65"/>
     <use x="278.273438" xlink:href="#DejaVuSans-77"/>
     <use x="360.060547" xlink:href="#DejaVuSans-20"/>
     <use x="391.847656" xlink:href="#DejaVuSans-52"/>
     <use x="461.298828" xlink:href="#DejaVuSans-61"/>
     <use x="522.578125" xlink:href="#DejaVuSans-73"/>
     <use x="574.677734" xlink:href="#DejaVuSans-74"/>
     <use x="613.886719" xlink:href="#DejaVuSans-72"/>
     <use x="655" xlink:href="#DejaVuSans-69"/>
     <use x="682.783203" xlink:href="#DejaVuSans-67"/>
     <use x="746.259766" xlink:href="#DejaVuSans-69"/>
     <use x="774.042969" xlink:href="#DejaVuSans-6e"/>
     <use x="837.421875" xlink:href="#DejaVuSans-2d"/>
     <use x="873.458984" xlink:href="#DejaVuSans-42"/>
     <use x="942.0625" xlink:href="#DejaVuSans-75"/>
     <use x="1005.441406" xlink:href="#DejaVuSans-65"/>
     <use x="1066.964844" xlink:href="#DejaVuSans-63"/>
     <use x="1121.945312" xlink:href="#DejaVuSans-68"/>
     <use x="1185.324219" xlink:href="#DejaVuSans-65"/>
     <use x="1246.847656" xlink:href="#DejaVuSans-20"/>
     <use x="1278.634766" xlink:href="#DejaVuSans-73"/>
     <use x="1330.734375" xlink:href="#DejaVuSans-65"/>
     <use x="1392.257812" xlink:href="#DejaVuSans-70"/>
     <use x="1455.734375" xlink:href="#DejaVuSans-61"/>
     <use x="1517.013672" xlink:href="#DejaVuSans-72"/>
    </g>
   </g>
  </g>
 </g>
 <defs>
  <clipPath id="p5d25239c17">
   <rect height="266.112" width="357.12" x="29.47" y="31.43625"/>
  </clipPath>
 </defs>
</svg>
