<?xml version="1.0" encoding="utf-8" standalone="no"?>
<!DOCTYPE svg PUBLIC "-//W3C//DTD SVG 1.1//EN"
  "http://www.w3.org/Graphics/SVG/1.1/DTD/svg11.dtd">
<!-- Created with matplotlib (http://matplotlib.org/) -->
<svg height="333pt" version="1.1" viewBox="0 0 378 333" width="378pt" xmlns="http://www.w3.org/2000/svg" xmlns:xlink="http://www.w3.org/1999/xlink">
 <defs>
  <style type="text/css">
*{stroke-linecap:butt;stroke-linejoin:round;}
  </style>
 </defs>
 <g id="figure_1">
  <g id="patch_1">
   <path d="M 0 333.7245 
L 378.52 333.7245 
L 378.52 0 
L 0 0 
z
" style="fill:#ffffff;"/>
  </g>
  <g id="axes_1">
   <g id="patch_2">
    <path d="M 10.7 276.812 
L 367.82 276.812 
L 367.82 10.7 
L 10.7 10.7 
z
" style="fill:#ffffff;"/>
   </g>
   <g id="matplotlib.axis_1">
    <g id="xtick_1">
     <g id="line2d_1">
      <path clip-path="url(#p8e1eb8a274)" d="M 10.605574 276.812 
L 10.605574 10.7 
" style="fill:none;stroke:#b0b0b0;stroke-linecap:square;stroke-width:0.8;"/>
     </g>
     <g id="line2d_2">
      <defs>
       <path d="M 0 0 
L 0 3.5 
" id="ma5f85330ea" style="stroke:#000000;stroke-width:0.8;"/>
      </defs>
      <g>
       <use style="stroke:#000000;stroke-width:0.8;" x="10.605574" xlink:href="#ma5f85330ea" y="276.812"/>
      </g>
     </g>
    </g>
    <g id="xtick_2">
     <g id="line2d_3">
      <path clip-path="url(#p8e1eb8a274)" d="M 98.009628 276.812 
L 98.009628 10.7 
" style="fill:none;stroke:#b0b0b0;stroke-linecap:square;stroke-width:0.8;"/>
     </g>
     <g id="line2d_4">
      <g>
       <use style="stroke:#000000;stroke-width:0.8;" x="98.009628" xlink:href="#ma5f85330ea" y="276.812"/>
      </g>
     </g>
     <g id="text_1">
      <!-- -4 -->
      <defs>
       <path d="M 4.890625 31.390625 
L 31.203125 31.390625 
L 31.203125 23.390625 
L 4.890625 23.390625 
z
" id="DejaVuSans-2d"/>
       <path d="M 37.796875 64.3125 
L 12.890625 25.390625 
L 37.796875 25.390625 
z
M 35.203125 72.90625 
L 47.609375 72.90625 
L 47.609375 25.390625 
L 58.015625 25.390625 
L 58.015625 17.1875 
L 47.609375 17.1875 
L 47.609375 0 
L 37.796875 0 
L 37.796875 17.1875 
L 4.890625 17.1875 
L 4.890625 26.703125 
z
" id="DejaVuSans-34"/>
      </defs>
      <g transform="translate(88.039315 299.008875)scale(0.2 -0.2)">
       <use xlink:href="#DejaVuSans-2d"/>
       <use x="36.083984" xlink:href="#DejaVuSans-34"/>
      </g>
     </g>
    </g>
    <g id="xtick_3">
     <g id="line2d_5">
      <path clip-path="url(#p8e1eb8a274)" d="M 185.413682 276.812 
L 185.413682 10.7 
" style="fill:none;stroke:#b0b0b0;stroke-linecap:square;stroke-width:0.8;"/>
     </g>
     <g id="line2d_6">
      <g>
       <use style="stroke:#000000;stroke-width:0.8;" x="185.413682" xlink:href="#ma5f85330ea" y="276.812"/>
      </g>
     </g>
     <g id="text_2">
      <!-- 0 -->
      <defs>
       <path d="M 31.78125 66.40625 
Q 24.171875 66.40625 20.328125 58.90625 
Q 16.5 51.421875 16.5 36.375 
Q 16.5 21.390625 20.328125 13.890625 
Q 24.171875 6.390625 31.78125 6.390625 
Q 39.453125 6.390625 43.28125 13.890625 
Q 47.125 21.390625 47.125 36.375 
Q 47.125 51.421875 43.28125 58.90625 
Q 39.453125 66.40625 31.78125 66.40625 
z
M 31.78125 74.21875 
Q 44.046875 74.21875 50.515625 64.515625 
Q 56.984375 54.828125 56.984375 36.375 
Q 56.984375 17.96875 50.515625 8.265625 
Q 44.046875 -1.421875 31.78125 -1.421875 
Q 19.53125 -1.421875 13.0625 8.265625 
Q 6.59375 17.96875 6.59375 36.375 
Q 6.59375 54.828125 13.0625 64.515625 
Q 19.53125 74.21875 31.78125 74.21875 
z
" id="DejaVuSans-30"/>
      </defs>
      <g transform="translate(179.051182 299.008875)scale(0.2 -0.2)">
       <use xlink:href="#DejaVuSans-30"/>
      </g>
     </g>
    </g>
    <g id="xtick_4">
     <g id="line2d_7">
      <path clip-path="url(#p8e1eb8a274)" d="M 272.817736 276.812 
L 272.817736 10.7 
" style="fill:none;stroke:#b0b0b0;stroke-linecap:square;stroke-width:0.8;"/>
     </g>
     <g id="line2d_8">
      <g>
       <use style="stroke:#000000;stroke-width:0.8;" x="272.817736" xlink:href="#ma5f85330ea" y="276.812"/>
      </g>
     </g>
     <g id="text_3">
      <!-- 4 -->
      <g transform="translate(266.455236 299.008875)scale(0.2 -0.2)">
       <use xlink:href="#DejaVuSans-34"/>
      </g>
     </g>
    </g>
    <g id="xtick_5">
     <g id="line2d_9">
      <path clip-path="url(#p8e1eb8a274)" d="M 360.22179 276.812 
L 360.22179 10.7 
" style="fill:none;stroke:#b0b0b0;stroke-linecap:square;stroke-width:0.8;"/>
     </g>
     <g id="line2d_10">
      <g>
       <use style="stroke:#000000;stroke-width:0.8;" x="360.22179" xlink:href="#ma5f85330ea" y="276.812"/>
      </g>
     </g>
     <g id="text_4">
      <!-- 8 -->
      <defs>
       <path d="M 31.78125 34.625 
Q 24.75 34.625 20.71875 30.859375 
Q 16.703125 27.09375 16.703125 20.515625 
Q 16.703125 13.921875 20.71875 10.15625 
Q 24.75 6.390625 31.78125 6.390625 
Q 38.8125 6.390625 42.859375 10.171875 
Q 46.921875 13.96875 46.921875 20.515625 
Q 46.921875 27.09375 42.890625 30.859375 
Q 38.875 34.625 31.78125 34.625 
z
M 21.921875 38.8125 
Q 15.578125 40.375 12.03125 44.71875 
Q 8.5 49.078125 8.5 55.328125 
Q 8.5 64.0625 14.71875 69.140625 
Q 20.953125 74.21875 31.78125 74.21875 
Q 42.671875 74.21875 48.875 69.140625 
Q 55.078125 64.0625 55.078125 55.328125 
Q 55.078125 49.078125 51.53125 44.71875 
Q 48 40.375 41.703125 38.8125 
Q 48.828125 37.15625 52.796875 32.3125 
Q 56.78125 27.484375 56.78125 20.515625 
Q 56.78125 9.90625 50.3125 4.234375 
Q 43.84375 -1.421875 31.78125 -1.421875 
Q 19.734375 -1.421875 13.25 4.234375 
Q 6.78125 9.90625 6.78125 20.515625 
Q 6.78125 27.484375 10.78125 32.3125 
Q 14.796875 37.15625 21.921875 38.8125 
z
M 18.3125 54.390625 
Q 18.3125 48.734375 21.84375 45.5625 
Q 25.390625 42.390625 31.78125 42.390625 
Q 38.140625 42.390625 41.71875 45.5625 
Q 45.3125 48.734375 45.3125 54.390625 
Q 45.3125 60.0625 41.71875 63.234375 
Q 38.140625 66.40625 31.78125 66.40625 
Q 25.390625 66.40625 21.84375 63.234375 
Q 18.3125 60.0625 18.3125 54.390625 
z
" id="DejaVuSans-38"/>
      </defs>
      <g transform="translate(353.85929 299.008875)scale(0.2 -0.2)">
       <use xlink:href="#DejaVuSans-38"/>
      </g>
     </g>
    </g>
    <g id="text_5">
     <!-- log10 of Df -->
     <defs>
      <path d="M 9.421875 75.984375 
L 18.40625 75.984375 
L 18.40625 0 
L 9.421875 0 
z
" id="DejaVuSans-6c"/>
      <path d="M 30.609375 48.390625 
Q 23.390625 48.390625 19.1875 42.75 
Q 14.984375 37.109375 14.984375 27.296875 
Q 14.984375 17.484375 19.15625 11.84375 
Q 23.34375 6.203125 30.609375 6.203125 
Q 37.796875 6.203125 41.984375 11.859375 
Q 46.1875 17.53125 46.1875 27.296875 
Q 46.1875 37.015625 41.984375 42.703125 
Q 37.796875 48.390625 30.609375 48.390625 
z
M 30.609375 56 
Q 42.328125 56 49.015625 48.375 
Q 55.71875 40.765625 55.71875 27.296875 
Q 55.71875 13.875 49.015625 6.21875 
Q 42.328125 -1.421875 30.609375 -1.421875 
Q 18.84375 -1.421875 12.171875 6.21875 
Q 5.515625 13.875 5.515625 27.296875 
Q 5.515625 40.765625 12.171875 48.375 
Q 18.84375 56 30.609375 56 
z
" id="DejaVuSans-6f"/>
      <path d="M 45.40625 27.984375 
Q 45.40625 37.75 41.375 43.109375 
Q 37.359375 48.484375 30.078125 48.484375 
Q 22.859375 48.484375 18.828125 43.109375 
Q 14.796875 37.75 14.796875 27.984375 
Q 14.796875 18.265625 18.828125 12.890625 
Q 22.859375 7.515625 30.078125 7.515625 
Q 37.359375 7.515625 41.375 12.890625 
Q 45.40625 18.265625 45.40625 27.984375 
z
M 54.390625 6.78125 
Q 54.390625 -7.171875 48.1875 -13.984375 
Q 42 -20.796875 29.203125 -20.796875 
Q 24.46875 -20.796875 20.265625 -20.09375 
Q 16.0625 -19.390625 12.109375 -17.921875 
L 12.109375 -9.1875 
Q 16.0625 -11.328125 19.921875 -12.34375 
Q 23.78125 -13.375 27.78125 -13.375 
Q 36.625 -13.375 41.015625 -8.765625 
Q 45.40625 -4.15625 45.40625 5.171875 
L 45.40625 9.625 
Q 42.625 4.78125 38.28125 2.390625 
Q 33.9375 0 27.875 0 
Q 17.828125 0 11.671875 7.65625 
Q 5.515625 15.328125 5.515625 27.984375 
Q 5.515625 40.671875 11.671875 48.328125 
Q 17.828125 56 27.875 56 
Q 33.9375 56 38.28125 53.609375 
Q 42.625 51.21875 45.40625 46.390625 
L 45.40625 54.6875 
L 54.390625 54.6875 
z
" id="DejaVuSans-67"/>
      <path d="M 12.40625 8.296875 
L 28.515625 8.296875 
L 28.515625 63.921875 
L 10.984375 60.40625 
L 10.984375 69.390625 
L 28.421875 72.90625 
L 38.28125 72.90625 
L 38.28125 8.296875 
L 54.390625 8.296875 
L 54.390625 0 
L 12.40625 0 
z
" id="DejaVuSans-31"/>
      <path id="DejaVuSans-20"/>
      <path d="M 37.109375 75.984375 
L 37.109375 68.5 
L 28.515625 68.5 
Q 23.6875 68.5 21.796875 66.546875 
Q 19.921875 64.59375 19.921875 59.515625 
L 19.921875 54.6875 
L 34.71875 54.6875 
L 34.71875 47.703125 
L 19.921875 47.703125 
L 19.921875 0 
L 10.890625 0 
L 10.890625 47.703125 
L 2.296875 47.703125 
L 2.296875 54.6875 
L 10.890625 54.6875 
L 10.890625 58.5 
Q 10.890625 67.625 15.140625 71.796875 
Q 19.390625 75.984375 28.609375 75.984375 
z
" id="DejaVuSans-66"/>
      <path d="M 19.671875 64.796875 
L 19.671875 8.109375 
L 31.59375 8.109375 
Q 46.6875 8.109375 53.6875 14.9375 
Q 60.6875 21.78125 60.6875 36.53125 
Q 60.6875 51.171875 53.6875 57.984375 
Q 46.6875 64.796875 31.59375 64.796875 
z
M 9.8125 72.90625 
L 30.078125 72.90625 
Q 51.265625 72.90625 61.171875 64.09375 
Q 71.09375 55.28125 71.09375 36.53125 
Q 71.09375 17.671875 61.125 8.828125 
Q 51.171875 0 30.078125 0 
L 9.8125 0 
z
" id="DejaVuSans-44"/>
     </defs>
     <g transform="translate(134.074063 322.365125)scale(0.2 -0.2)">
      <use xlink:href="#DejaVuSans-6c"/>
      <use x="27.783203" xlink:href="#DejaVuSans-6f"/>
      <use x="88.964844" xlink:href="#DejaVuSans-67"/>
      <use x="152.441406" xlink:href="#DejaVuSans-31"/>
      <use x="216.064453" xlink:href="#DejaVuSans-30"/>
      <use x="279.6875" xlink:href="#DejaVuSans-20"/>
      <use x="311.474609" xlink:href="#DejaVuSans-6f"/>
      <use x="372.65625" xlink:href="#DejaVuSans-66"/>
      <use x="407.861328" xlink:href="#DejaVuSans-20"/>
      <use x="439.648438" xlink:href="#DejaVuSans-44"/>
      <use x="516.650391" xlink:href="#DejaVuSans-66"/>
     </g>
    </g>
   </g>
   <g id="matplotlib.axis_2">
    <g id="ytick_1">
     <g id="line2d_11">
      <path clip-path="url(#p8e1eb8a274)" d="M 10.7 276.812 
L 367.82 276.812 
" style="fill:none;stroke:#b0b0b0;stroke-linecap:square;stroke-width:0.8;"/>
     </g>
     <g id="line2d_12">
      <defs>
       <path d="M 0 0 
L -3.5 0 
" id="m2e4c7765d4" style="stroke:#000000;stroke-width:0.8;"/>
      </defs>
      <g>
       <use style="stroke:#000000;stroke-width:0.8;" x="10.7" xlink:href="#m2e4c7765d4" y="276.812"/>
      </g>
     </g>
    </g>
    <g id="ytick_2">
     <g id="line2d_13">
      <path clip-path="url(#p8e1eb8a274)" d="M 10.7 224.116554 
L 367.82 224.116554 
" style="fill:none;stroke:#b0b0b0;stroke-linecap:square;stroke-width:0.8;"/>
     </g>
     <g id="line2d_14">
      <g>
       <use style="stroke:#000000;stroke-width:0.8;" x="10.7" xlink:href="#m2e4c7765d4" y="224.116554"/>
      </g>
     </g>
    </g>
    <g id="ytick_3">
     <g id="line2d_15">
      <path clip-path="url(#p8e1eb8a274)" d="M 10.7 171.421109 
L 367.82 171.421109 
" style="fill:none;stroke:#b0b0b0;stroke-linecap:square;stroke-width:0.8;"/>
     </g>
     <g id="line2d_16">
      <g>
       <use style="stroke:#000000;stroke-width:0.8;" x="10.7" xlink:href="#m2e4c7765d4" y="171.421109"/>
      </g>
     </g>
    </g>
    <g id="ytick_4">
     <g id="line2d_17">
      <path clip-path="url(#p8e1eb8a274)" d="M 10.7 118.725663 
L 367.82 118.725663 
" style="fill:none;stroke:#b0b0b0;stroke-linecap:square;stroke-width:0.8;"/>
     </g>
     <g id="line2d_18">
      <g>
       <use style="stroke:#000000;stroke-width:0.8;" x="10.7" xlink:href="#m2e4c7765d4" y="118.725663"/>
      </g>
     </g>
    </g>
    <g id="ytick_5">
     <g id="line2d_19">
      <path clip-path="url(#p8e1eb8a274)" d="M 10.7 66.030218 
L 367.82 66.030218 
" style="fill:none;stroke:#b0b0b0;stroke-linecap:square;stroke-width:0.8;"/>
     </g>
     <g id="line2d_20">
      <g>
       <use style="stroke:#000000;stroke-width:0.8;" x="10.7" xlink:href="#m2e4c7765d4" y="66.030218"/>
      </g>
     </g>
    </g>
    <g id="ytick_6">
     <g id="line2d_21">
      <path clip-path="url(#p8e1eb8a274)" d="M 10.7 13.334772 
L 367.82 13.334772 
" style="fill:none;stroke:#b0b0b0;stroke-linecap:square;stroke-width:0.8;"/>
     </g>
     <g id="line2d_22">
      <g>
       <use style="stroke:#000000;stroke-width:0.8;" x="10.7" xlink:href="#m2e4c7765d4" y="13.334772"/>
      </g>
     </g>
    </g>
   </g>
   <g id="line2d_23">
    <path clip-path="url(#p8e1eb8a274)" d="M -1 224.116554 
L 54.061139 224.116554 
L 54.061139 220.603525 
L 55.563652 220.603525 
L 55.563652 217.090495 
L 55.704803 217.090495 
L 55.704803 213.577465 
L 58.997557 213.577465 
L 58.997557 210.064436 
L 60.106729 210.064436 
L 60.106729 206.551406 
L 63.496166 206.551406 
L 63.496166 203.038376 
L 64.034425 203.038376 
L 64.034425 199.525347 
L 65.161656 199.525347 
L 65.161656 196.012317 
L 70.590781 196.012317 
L 70.590781 192.499287 
L 72.511523 192.499287 
L 72.511523 188.986257 
L 73.194782 188.986257 
L 73.194782 185.473228 
L 73.341724 185.473228 
L 73.341724 181.960198 
L 75.195217 181.960198 
L 75.195217 178.447168 
L 76.433342 178.447168 
L 76.433342 174.934139 
L 77.964078 174.934139 
L 77.964078 171.421109 
L 101.396487 171.421109 
L 101.396487 167.908079 
L 107.79819 167.908079 
L 107.79819 164.39505 
L 112.623736 164.39505 
L 112.623736 160.88202 
L 116.047231 160.88202 
L 116.047231 157.36899 
L 117.973518 157.36899 
L 117.973518 153.85596 
L 118.512913 153.85596 
L 118.512913 150.342931 
L 121.887913 150.342931 
L 121.887913 146.829901 
L 122.367329 146.829901 
L 122.367329 143.316871 
L 122.663796 143.316871 
L 122.663796 139.803842 
L 123.47756 139.803842 
L 123.47756 136.290812 
L 126.437244 136.290812 
L 126.437244 132.777782 
L 127.117225 132.777782 
L 127.117225 129.264752 
L 127.52357 129.264752 
L 127.52357 125.751723 
L 128.869117 125.751723 
L 128.869117 122.238693 
L 131.079476 122.238693 
L 131.079476 118.725663 
L 132.208293 118.725663 
L 132.208293 115.212634 
L 132.367946 115.212634 
L 132.367946 111.699604 
L 132.879796 111.699604 
L 132.879796 108.186574 
L 133.095068 108.186574 
L 133.095068 104.673545 
L 133.738136 104.673545 
L 133.738136 101.160515 
L 134.701849 101.160515 
L 134.701849 97.647485 
L 134.862064 97.647485 
L 134.862064 94.134455 
L 135.350783 94.134455 
L 135.350783 90.621426 
L 135.812334 90.621426 
L 135.812334 87.108396 
L 137.642946 87.108396 
L 137.642946 83.595366 
L 138.632454 83.595366 
L 138.632454 80.082337 
L 138.812981 80.082337 
L 138.812981 76.569307 
L 141.389463 76.569307 
L 141.389463 73.056277 
L 142.148074 73.056277 
L 142.148074 69.543248 
L 142.383576 69.543248 
L 142.383576 66.030218 
L 144.088291 66.030218 
L 144.088291 62.517188 
L 145.120978 62.517188 
L 145.120978 59.004158 
L 148.481471 59.004158 
L 148.481471 55.491129 
L 149.239414 55.491129 
L 149.239414 51.978099 
L 157.464455 51.978099 
L 157.464455 48.465069 
L 158.354158 48.465069 
L 158.354158 44.95204 
L 159.52732 44.95204 
L 159.52732 41.43901 
L 161.726868 41.43901 
L 161.726868 37.92598 
L 163.003997 37.92598 
L 163.003997 34.41295 
L 164.193819 34.41295 
L 164.193819 30.899921 
L 170.195885 30.899921 
L 170.195885 27.386891 
L 172.473814 27.386891 
L 172.473814 23.873861 
L 177.525329 23.873861 
L 177.54636 16.847802 
L 180.850676 16.847802 
L 180.850676 13.334772 
L 180.850676 13.334772 
L 367.82 13.334772 
L 367.82 13.334772 
" style="fill:none;stroke:#ff0000;stroke-linecap:square;stroke-width:3;"/>
   </g>
   <g id="line2d_24">
    <path clip-path="url(#p8e1eb8a274)" d="M 213.806772 276.812 
L 213.806772 273.29897 
L 218.372228 273.29897 
L 218.372228 269.785941 
L 221.29942 269.785941 
L 221.29942 266.272911 
L 223.23716 266.272911 
L 223.256034 259.246851 
L 224.366805 259.246851 
L 224.366805 255.733822 
L 225.109139 255.733822 
L 225.109139 252.220792 
L 225.409224 252.220792 
L 225.409224 248.707762 
L 225.691117 248.707762 
L 225.691117 245.194733 
L 226.344775 245.194733 
L 226.344775 241.681703 
L 226.586768 241.681703 
L 226.586768 238.168673 
L 227.200693 238.168673 
L 227.200693 234.655644 
L 228.124701 234.655644 
L 228.124701 231.142614 
L 228.629171 231.142614 
L 228.629171 227.629584 
L 229.152957 227.629584 
L 229.192491 220.603525 
L 229.282285 220.603525 
L 229.286282 213.577465 
L 229.526649 213.577465 
L 229.526649 210.064436 
L 230.04961 210.064436 
L 230.13636 203.038376 
L 230.533991 203.038376 
L 230.533991 199.525347 
L 230.830188 199.525347 
L 230.830188 196.012317 
L 231.087551 196.012317 
L 231.087551 192.499287 
L 231.43725 192.499287 
L 231.498591 185.473228 
L 231.68179 185.473228 
L 231.68179 181.960198 
L 231.796273 181.960198 
L 231.796273 178.447168 
L 231.953497 178.447168 
L 231.953497 174.934139 
L 232.422146 174.934139 
L 232.422146 171.421109 
L 233.142582 171.421109 
L 233.142582 167.908079 
L 233.576943 167.908079 
L 233.576943 164.39505 
L 233.807003 164.39505 
L 233.807003 160.88202 
L 236.525343 160.88202 
L 236.525343 157.36899 
L 236.719175 157.36899 
L 236.719175 153.85596 
L 237.003981 153.85596 
L 237.003981 150.342931 
L 239.543372 150.342931 
L 239.543372 146.829901 
L 241.306793 146.829901 
L 241.306793 143.316871 
L 242.535549 143.316871 
L 242.535549 139.803842 
L 243.960916 139.803842 
L 243.960916 136.290812 
L 244.086412 136.290812 
L 244.086412 132.777782 
L 245.345814 132.777782 
L 245.445408 118.725663 
L 245.674801 118.725663 
L 245.674801 115.212634 
L 246.91006 115.212634 
L 246.91006 111.699604 
L 248.800056 111.699604 
L 248.800056 108.186574 
L 252.602989 108.186574 
L 252.602989 104.673545 
L 255.004455 104.673545 
L 255.004455 101.160515 
L 256.168589 101.160515 
L 256.168589 97.647485 
L 258.280423 97.647485 
L 258.280423 94.134455 
L 258.432536 94.134455 
L 258.432536 90.621426 
L 259.527782 90.621426 
L 259.527782 87.108396 
L 259.714752 87.108396 
L 259.714752 83.595366 
L 265.37695 83.595366 
L 265.37695 80.082337 
L 265.611246 80.082337 
L 265.611246 76.569307 
L 268.112224 76.569307 
L 268.112224 73.056277 
L 268.364529 73.056277 
L 268.364529 69.543248 
L 270.816557 69.543248 
L 270.816557 66.030218 
L 304.663771 66.030218 
L 304.663771 62.517188 
L 304.860442 62.517188 
L 304.860442 59.004158 
L 317.631326 59.004158 
L 317.631326 55.491129 
L 319.158132 55.491129 
L 319.158132 51.978099 
L 326.511715 51.978099 
L 326.511715 48.465069 
L 326.897362 48.465069 
L 326.897362 44.95204 
L 329.673942 44.95204 
L 329.673942 41.43901 
L 330.336835 41.43901 
L 330.336835 37.92598 
L 331.64411 37.92598 
L 331.64411 34.41295 
L 333.911966 34.41295 
L 333.911966 30.899921 
L 340.421748 30.899921 
L 340.421748 27.386891 
L 341.294435 27.386891 
L 341.294435 23.873861 
L 342.071062 23.873861 
L 342.071062 20.360832 
L 343.731683 20.360832 
L 343.731683 16.847802 
L 344.098989 16.847802 
L 344.098989 13.334772 
L 344.098989 13.334772 
L 367.82 13.334772 
L 367.82 13.334772 
" style="fill:none;stroke:#00bfbf;stroke-linecap:square;stroke-width:1.5;"/>
   </g>
   <g id="line2d_25">
    <path clip-path="url(#p8e1eb8a274)" d="M 213.806772 276.812 
L 213.806772 273.29897 
L 218.372228 273.29897 
L 218.372228 269.785941 
L 221.29942 269.785941 
L 221.29942 266.272911 
L 223.23716 266.272911 
L 223.256034 259.246851 
L 224.366805 259.246851 
L 224.366805 255.733822 
L 225.109139 255.733822 
L 225.109139 252.220792 
L 225.409224 252.220792 
L 225.409224 248.707762 
L 225.691117 248.707762 
L 225.691117 245.194733 
L 226.344775 245.194733 
L 226.344775 241.681703 
L 226.586768 241.681703 
L 226.586768 238.168673 
L 227.200693 238.168673 
L 227.200693 234.655644 
L 228.124701 234.655644 
L 228.124701 231.142614 
L 228.629171 231.142614 
L 228.629171 227.629584 
L 229.152957 227.629584 
L 229.192491 220.603525 
L 229.282285 220.603525 
L 229.286282 213.577465 
L 229.526649 213.577465 
L 229.526649 210.064436 
L 230.04961 210.064436 
L 230.13636 203.038376 
L 230.533991 203.038376 
L 230.533991 199.525347 
L 230.830188 199.525347 
L 230.830188 196.012317 
L 231.087551 196.012317 
L 231.087551 192.499287 
L 231.43725 192.499287 
L 231.498591 185.473228 
L 231.68179 185.473228 
L 231.68179 181.960198 
L 231.796273 181.960198 
L 231.796273 178.447168 
L 231.953497 178.447168 
L 231.953497 174.934139 
L 232.422146 174.934139 
L 232.422146 171.421109 
L 233.142582 171.421109 
L 233.142582 167.908079 
L 233.576943 167.908079 
L 233.576943 164.39505 
L 233.807003 164.39505 
L 233.807003 160.88202 
L 236.525343 160.88202 
L 236.525343 157.36899 
L 236.719175 157.36899 
L 236.719175 153.85596 
L 237.003981 153.85596 
L 237.003981 150.342931 
L 239.543372 150.342931 
L 239.543372 146.829901 
L 241.306793 146.829901 
L 241.306793 143.316871 
L 242.535549 143.316871 
L 242.535549 139.803842 
L 243.960916 139.803842 
L 243.960916 136.290812 
L 244.086412 136.290812 
L 244.086412 132.777782 
L 245.345814 132.777782 
L 245.445408 118.725663 
L 245.674801 118.725663 
L 245.674801 115.212634 
L 246.91006 115.212634 
L 246.91006 111.699604 
L 248.800056 111.699604 
L 248.800056 108.186574 
L 252.602989 108.186574 
L 252.602989 104.673545 
L 255.004455 104.673545 
L 255.004455 101.160515 
L 256.168589 101.160515 
L 256.168589 97.647485 
L 258.280423 97.647485 
L 258.280423 94.134455 
L 258.432536 94.134455 
L 258.432536 90.621426 
L 259.527782 90.621426 
L 259.527782 87.108396 
L 259.714752 87.108396 
L 259.714752 83.595366 
L 265.37695 83.595366 
L 265.37695 80.082337 
L 265.611246 80.082337 
L 265.611246 76.569307 
L 268.112224 76.569307 
L 268.112224 73.056277 
L 268.364529 73.056277 
L 268.364529 69.543248 
L 270.816557 69.543248 
L 270.816557 66.030218 
L 304.663771 66.030218 
L 304.663771 62.517188 
L 304.860442 62.517188 
L 304.860442 59.004158 
L 317.631326 59.004158 
L 317.631326 55.491129 
L 319.158132 55.491129 
L 319.158132 51.978099 
L 326.511715 51.978099 
L 326.511715 48.465069 
L 326.897362 48.465069 
L 326.897362 44.95204 
L 329.673942 44.95204 
L 329.673942 41.43901 
L 330.336835 41.43901 
L 330.336835 37.92598 
L 331.64411 37.92598 
L 331.64411 34.41295 
L 333.911966 34.41295 
L 333.911966 30.899921 
L 340.421748 30.899921 
L 340.421748 27.386891 
L 341.294435 27.386891 
L 341.294435 23.873861 
L 342.071062 23.873861 
L 342.071062 20.360832 
L 343.731683 20.360832 
L 343.731683 16.847802 
L 344.098989 16.847802 
L 344.098989 13.334772 
L 344.098989 13.334772 
L 367.82 13.334772 
L 367.82 13.334772 
" style="fill:none;stroke:#bf00bf;stroke-linecap:square;stroke-width:1.5;"/>
   </g>
   <g id="line2d_26">
    <path clip-path="url(#p8e1eb8a274)" d="M 213.806772 276.812 
L 213.806772 273.29897 
L 218.372228 273.29897 
L 218.372228 269.785941 
L 221.29942 269.785941 
L 221.29942 266.272911 
L 223.23716 266.272911 
L 223.256034 259.246851 
L 224.366805 259.246851 
L 224.366805 255.733822 
L 225.109139 255.733822 
L 225.109139 252.220792 
L 225.409224 252.220792 
L 225.409224 248.707762 
L 225.691117 248.707762 
L 225.691117 245.194733 
L 226.344775 245.194733 
L 226.344775 241.681703 
L 226.586768 241.681703 
L 226.586768 238.168673 
L 227.200693 238.168673 
L 227.200693 234.655644 
L 228.124701 234.655644 
L 228.124701 231.142614 
L 228.629171 231.142614 
L 228.629171 227.629584 
L 229.152957 227.629584 
L 229.192491 220.603525 
L 229.282285 220.603525 
L 229.286282 213.577465 
L 229.526649 213.577465 
L 229.526649 210.064436 
L 230.04961 210.064436 
L 230.13636 203.038376 
L 230.533991 203.038376 
L 230.533991 199.525347 
L 230.830188 199.525347 
L 230.830188 196.012317 
L 231.087551 196.012317 
L 231.087551 192.499287 
L 231.43725 192.499287 
L 231.498591 185.473228 
L 231.68179 185.473228 
L 231.68179 181.960198 
L 231.796273 181.960198 
L 231.796273 178.447168 
L 231.953497 178.447168 
L 231.953497 174.934139 
L 232.422146 174.934139 
L 232.422146 171.421109 
L 233.142582 171.421109 
L 233.142582 167.908079 
L 233.576943 167.908079 
L 233.576943 164.39505 
L 233.807003 164.39505 
L 233.807003 160.88202 
L 236.525343 160.88202 
L 236.525343 157.36899 
L 236.719175 157.36899 
L 236.719175 153.85596 
L 237.003981 153.85596 
L 237.003981 150.342931 
L 239.543372 150.342931 
L 239.543372 146.829901 
L 241.306793 146.829901 
L 241.306793 143.316871 
L 242.535549 143.316871 
L 242.535549 139.803842 
L 243.960916 139.803842 
L 243.960916 136.290812 
L 244.086412 136.290812 
L 244.086412 132.777782 
L 245.345814 132.777782 
L 245.445408 118.725663 
L 245.674801 118.725663 
L 245.674801 115.212634 
L 246.91006 115.212634 
L 246.91006 111.699604 
L 248.800056 111.699604 
L 248.800056 108.186574 
L 252.602989 108.186574 
L 252.602989 104.673545 
L 255.004455 104.673545 
L 255.004455 101.160515 
L 256.168589 101.160515 
L 256.168589 97.647485 
L 258.280423 97.647485 
L 258.280423 94.134455 
L 258.432536 94.134455 
L 258.432536 90.621426 
L 259.527782 90.621426 
L 259.527782 87.108396 
L 259.714752 87.108396 
L 259.714752 83.595366 
L 265.37695 83.595366 
L 265.37695 80.082337 
L 265.611246 80.082337 
L 265.611246 76.569307 
L 268.112224 76.569307 
L 268.112224 73.056277 
L 268.364529 73.056277 
L 268.364529 69.543248 
L 270.816557 69.543248 
L 270.816557 66.030218 
L 304.663771 66.030218 
L 304.663771 62.517188 
L 304.860442 62.517188 
L 304.860442 59.004158 
L 317.631326 59.004158 
L 317.631326 55.491129 
L 319.158132 55.491129 
L 319.158132 51.978099 
L 326.511715 51.978099 
L 326.511715 48.465069 
L 326.897362 48.465069 
L 326.897362 44.95204 
L 329.673942 44.95204 
L 329.673942 41.43901 
L 330.336835 41.43901 
L 330.336835 37.92598 
L 331.64411 37.92598 
L 331.64411 34.41295 
L 333.911966 34.41295 
L 333.911966 30.899921 
L 340.421748 30.899921 
L 340.421748 27.386891 
L 341.294435 27.386891 
L 341.294435 23.873861 
L 342.071062 23.873861 
L 342.071062 20.360832 
L 343.731683 20.360832 
L 343.731683 16.847802 
L 344.098989 16.847802 
L 344.098989 13.334772 
L 344.098989 13.334772 
L 367.82 13.334772 
L 367.82 13.334772 
" style="fill:none;stroke:#000000;stroke-linecap:square;stroke-width:1.5;"/>
   </g>
   <g id="line2d_27">
    <path clip-path="url(#p8e1eb8a274)" d="M 213.806772 276.812 
L 213.806772 273.29897 
L 218.372228 273.29897 
L 218.372228 269.785941 
L 221.29942 269.785941 
L 221.29942 266.272911 
L 223.23716 266.272911 
L 223.256034 259.246851 
L 224.366805 259.246851 
L 224.366805 255.733822 
L 225.109139 255.733822 
L 225.109139 252.220792 
L 225.409224 252.220792 
L 225.409224 248.707762 
L 225.691117 248.707762 
L 225.691117 245.194733 
L 226.344775 245.194733 
L 226.344775 241.681703 
L 226.586768 241.681703 
L 226.586768 238.168673 
L 227.200693 238.168673 
L 227.200693 234.655644 
L 228.124701 234.655644 
L 228.124701 231.142614 
L 228.629171 231.142614 
L 228.629171 227.629584 
L 229.152957 227.629584 
L 229.192491 220.603525 
L 229.282285 220.603525 
L 229.286282 213.577465 
L 229.526649 213.577465 
L 229.526649 210.064436 
L 230.04961 210.064436 
L 230.13636 203.038376 
L 230.533991 203.038376 
L 230.533991 199.525347 
L 230.830188 199.525347 
L 230.830188 196.012317 
L 231.087551 196.012317 
L 231.087551 192.499287 
L 231.43725 192.499287 
L 231.498591 185.473228 
L 231.68179 185.473228 
L 231.68179 181.960198 
L 231.796273 181.960198 
L 231.796273 178.447168 
L 231.953497 178.447168 
L 231.953497 174.934139 
L 232.422146 174.934139 
L 232.422146 171.421109 
L 233.142582 171.421109 
L 233.142582 167.908079 
L 233.576943 167.908079 
L 233.576943 164.39505 
L 233.807003 164.39505 
L 233.807003 160.88202 
L 236.525343 160.88202 
L 236.525343 157.36899 
L 236.719175 157.36899 
L 236.719175 153.85596 
L 237.003981 153.85596 
L 237.003981 150.342931 
L 239.543372 150.342931 
L 239.543372 146.829901 
L 241.306793 146.829901 
L 241.306793 143.316871 
L 242.535549 143.316871 
L 242.535549 139.803842 
L 243.960916 139.803842 
L 243.960916 136.290812 
L 244.086412 136.290812 
L 244.086412 132.777782 
L 245.345814 132.777782 
L 245.445408 118.725663 
L 245.674801 118.725663 
L 245.674801 115.212634 
L 246.91006 115.212634 
L 246.91006 111.699604 
L 248.800056 111.699604 
L 248.800056 108.186574 
L 252.602989 108.186574 
L 252.602989 104.673545 
L 255.004455 104.673545 
L 255.004455 101.160515 
L 256.168589 101.160515 
L 256.168589 97.647485 
L 258.280423 97.647485 
L 258.280423 94.134455 
L 258.432536 94.134455 
L 258.432536 90.621426 
L 259.527782 90.621426 
L 259.527782 87.108396 
L 259.714752 87.108396 
L 259.714752 83.595366 
L 265.37695 83.595366 
L 265.37695 80.082337 
L 265.611246 80.082337 
L 265.611246 76.569307 
L 268.112224 76.569307 
L 268.112224 73.056277 
L 268.364529 73.056277 
L 268.364529 69.543248 
L 270.816557 69.543248 
L 270.816557 66.030218 
L 304.663771 66.030218 
L 304.663771 62.517188 
L 304.860442 62.517188 
L 304.860442 59.004158 
L 317.631326 59.004158 
L 317.631326 55.491129 
L 319.158132 55.491129 
L 319.158132 51.978099 
L 326.511715 51.978099 
L 326.511715 48.465069 
L 326.897362 48.465069 
L 326.897362 44.95204 
L 329.673942 44.95204 
L 329.673942 41.43901 
L 330.336835 41.43901 
L 330.336835 37.92598 
L 331.64411 37.92598 
L 331.64411 34.41295 
L 333.911966 34.41295 
L 333.911966 30.899921 
L 340.421748 30.899921 
L 340.421748 27.386891 
L 341.294435 27.386891 
L 341.294435 23.873861 
L 342.071062 23.873861 
L 342.071062 20.360832 
L 343.731683 20.360832 
L 343.731683 16.847802 
L 344.098989 16.847802 
L 344.098989 13.334772 
L 344.098989 13.334772 
L 367.82 13.334772 
L 367.82 13.334772 
" style="fill:none;stroke:#00bfbf;stroke-linecap:square;stroke-width:1.5;"/>
   </g>
   <g id="line2d_28">
    <path clip-path="url(#p8e1eb8a274)" d="M 170.929271 276.812 
L 170.929271 273.29897 
L 190.166511 273.29897 
L 190.166511 269.785941 
L 190.695539 269.785941 
L 190.695539 266.272911 
L 191.482258 266.272911 
L 191.482258 262.759881 
L 194.298277 262.759881 
L 194.298277 259.246851 
L 194.619885 259.246851 
L 194.619885 255.733822 
L 195.27983 255.733822 
L 195.27983 252.220792 
L 196.709862 252.220792 
L 196.709862 248.707762 
L 197.080154 248.707762 
L 197.080154 245.194733 
L 198.823134 245.194733 
L 198.823134 241.681703 
L 199.546558 241.681703 
L 199.546558 238.168673 
L 200.003809 238.168673 
L 200.003809 234.655644 
L 201.042087 234.655644 
L 201.042087 231.142614 
L 201.357329 231.142614 
L 201.357329 227.629584 
L 207.452251 227.629584 
L 207.452251 224.116554 
L 207.730736 224.116554 
L 207.730736 220.603525 
L 209.409593 220.603525 
L 209.453328 213.577465 
L 209.888892 213.577465 
L 209.888892 210.064436 
L 210.450726 210.064436 
L 210.450726 206.551406 
L 212.382393 206.551406 
L 212.382393 203.038376 
L 212.583655 203.038376 
L 212.583655 199.525347 
L 213.468419 199.525347 
L 213.468419 196.012317 
L 214.078384 196.012317 
L 214.078384 192.499287 
L 214.444036 192.499287 
L 214.444036 188.986257 
L 216.431996 188.986257 
L 216.500467 181.960198 
L 216.905441 181.960198 
L 216.905441 178.447168 
L 217.180784 178.447168 
L 217.180784 174.934139 
L 217.392455 174.934139 
L 217.392455 171.421109 
L 217.875168 171.421109 
L 217.875168 167.908079 
L 218.09022 167.908079 
L 218.09022 164.39505 
L 219.062036 164.39505 
L 219.062036 160.88202 
L 219.185868 160.88202 
L 219.185868 157.36899 
L 219.42308 157.36899 
L 219.504967 146.829901 
L 219.628592 146.829901 
L 219.628592 143.316871 
L 221.325131 143.316871 
L 221.409717 136.290812 
L 221.808148 136.290812 
L 221.808148 132.777782 
L 221.93543 132.777782 
L 221.93543 129.264752 
L 222.516513 129.264752 
L 222.516513 125.751723 
L 222.647921 125.751723 
L 222.647921 122.238693 
L 222.861947 122.238693 
L 222.91699 115.212634 
L 222.998501 115.212634 
L 223.10394 108.186574 
L 223.173711 108.186574 
L 223.173711 104.673545 
L 223.681849 104.673545 
L 223.681849 101.160515 
L 223.880472 101.160515 
L 223.880472 97.647485 
L 224.106109 97.647485 
L 224.106109 94.134455 
L 224.274076 94.134455 
L 224.274076 90.621426 
L 224.726592 90.621426 
L 224.726592 87.108396 
L 224.854772 87.108396 
L 224.854772 83.595366 
L 225.416284 83.595366 
L 225.476698 76.569307 
L 225.818966 76.569307 
L 225.818966 73.056277 
L 226.1208 73.056277 
L 226.1208 69.543248 
L 229.063464 69.543248 
L 229.063464 66.030218 
L 263.973373 66.030218 
L 263.973373 62.517188 
L 266.163481 62.517188 
L 266.163481 59.004158 
L 266.731016 59.004158 
L 266.731016 55.491129 
L 268.30938 55.491129 
L 268.30938 51.978099 
L 268.722775 51.978099 
L 268.722775 48.465069 
L 271.940649 48.465069 
L 271.940649 44.95204 
L 278.437828 44.95204 
L 278.437828 41.43901 
L 279.666512 41.43901 
L 279.666512 37.92598 
L 284.127864 37.92598 
L 284.127864 34.41295 
L 285.366378 34.41295 
L 285.366378 30.899921 
L 287.034675 30.899921 
L 287.138276 23.873861 
L 288.155128 23.873861 
L 288.155128 20.360832 
L 291.964415 20.360832 
L 291.964415 16.847802 
L 297.901046 16.847802 
L 297.901046 13.334772 
L 297.901046 13.334772 
L 367.82 13.334772 
L 367.82 13.334772 
" style="fill:none;stroke:#bf00bf;stroke-linecap:square;stroke-width:1.5;"/>
   </g>
   <g id="line2d_29">
    <path clip-path="url(#p8e1eb8a274)" d="M 134.172712 276.812 
L 134.172712 273.29897 
L 139.823872 273.29897 
L 139.823872 269.785941 
L 149.455169 269.785941 
L 149.455169 266.272911 
L 153.405609 266.272911 
L 153.405609 262.759881 
L 153.706123 262.759881 
L 153.706123 259.246851 
L 154.728123 259.246851 
L 154.728123 255.733822 
L 155.949298 255.733822 
L 155.949298 252.220792 
L 158.869374 252.220792 
L 158.869374 248.707762 
L 159.193114 248.707762 
L 159.193114 245.194733 
L 162.486795 245.194733 
L 162.486795 241.681703 
L 163.716901 241.681703 
L 163.716901 238.168673 
L 165.475679 238.168673 
L 165.475679 234.655644 
L 167.110111 234.655644 
L 167.110111 231.142614 
L 168.887922 231.142614 
L 168.887922 227.629584 
L 178.843572 227.629584 
L 178.901378 220.603525 
L 182.229977 220.603525 
L 182.229977 217.090495 
L 185.527427 217.090495 
L 185.527427 213.577465 
L 187.398452 213.577465 
L 187.398452 210.064436 
L 189.091352 210.064436 
L 189.091352 206.551406 
L 191.528677 206.551406 
L 191.528677 203.038376 
L 193.925467 203.038376 
L 193.925467 199.525347 
L 194.169427 199.525347 
L 194.184808 192.499287 
L 194.626741 192.499287 
L 194.626741 188.986257 
L 194.863668 188.986257 
L 194.863668 185.473228 
L 197.342865 185.473228 
L 197.355126 178.447168 
L 198.466453 178.447168 
L 198.466453 174.934139 
L 198.933101 174.934139 
L 198.933101 171.421109 
L 199.930674 171.421109 
L 199.930674 167.908079 
L 200.554141 167.908079 
L 200.554141 164.39505 
L 201.329056 164.39505 
L 201.39979 157.36899 
L 201.536406 157.36899 
L 201.536406 153.85596 
L 201.892187 153.85596 
L 201.892187 150.342931 
L 202.221449 150.342931 
L 202.221449 146.829901 
L 202.627815 146.829901 
L 202.672158 136.290812 
L 203.148574 136.290812 
L 203.148574 132.777782 
L 203.422001 132.777782 
L 203.422001 129.264752 
L 203.757372 129.264752 
L 203.757372 125.751723 
L 205.001878 125.751723 
L 205.074539 118.725663 
L 205.652196 118.725663 
L 205.652196 115.212634 
L 206.031627 115.212634 
L 206.031627 111.699604 
L 206.236331 111.699604 
L 206.236331 108.186574 
L 206.416708 108.186574 
L 206.416708 104.673545 
L 207.512605 104.673545 
L 207.512605 101.160515 
L 207.66751 101.160515 
L 207.66751 97.647485 
L 207.861037 97.647485 
L 207.861037 94.134455 
L 209.072225 94.134455 
L 209.072225 90.621426 
L 209.709605 90.621426 
L 209.709605 87.108396 
L 210.96659 87.108396 
L 210.96659 83.595366 
L 211.566261 83.595366 
L 211.566261 80.082337 
L 213.557126 80.082337 
L 213.557126 76.569307 
L 213.706461 76.569307 
L 213.706461 73.056277 
L 215.624408 73.056277 
L 215.624408 69.543248 
L 216.409191 69.543248 
L 216.409191 66.030218 
L 229.63049 66.030218 
L 229.63049 62.517188 
L 234.174188 62.517188 
L 234.174188 59.004158 
L 243.040179 59.004158 
L 243.040179 55.491129 
L 249.095941 55.491129 
L 249.095941 51.978099 
L 249.913453 51.978099 
L 249.913453 48.465069 
L 251.396698 48.465069 
L 251.396698 44.95204 
L 252.340121 44.95204 
L 252.340121 41.43901 
L 253.426258 41.43901 
L 253.426258 37.92598 
L 257.655546 37.92598 
L 257.655546 34.41295 
L 259.437955 34.41295 
L 259.437955 30.899921 
L 260.396934 30.899921 
L 260.396934 27.386891 
L 261.522635 27.386891 
L 261.522635 23.873861 
L 262.433561 23.873861 
L 262.433561 20.360832 
L 263.040056 20.360832 
L 263.040056 16.847802 
L 264.099356 16.847802 
L 264.099356 13.334772 
L 264.099356 13.334772 
L 367.82 13.334772 
L 367.82 13.334772 
" style="fill:none;stroke:#000000;stroke-linecap:square;stroke-width:1.5;"/>
   </g>
   <g id="line2d_30">
    <path clip-path="url(#p8e1eb8a274)" d="M -1 224.116554 
L 91.422454 224.116554 
L 91.422454 220.603525 
L 106.51777 220.603525 
L 106.51777 217.090495 
L 109.241692 217.090495 
L 109.241692 213.577465 
L 110.048898 213.577465 
L 110.048898 210.064436 
L 115.170583 210.064436 
L 115.170583 206.551406 
L 116.380837 206.551406 
L 116.380837 203.038376 
L 118.203813 203.038376 
L 118.203813 199.525347 
L 119.105478 199.525347 
L 119.105478 196.012317 
L 121.559766 196.012317 
L 121.559766 192.499287 
L 122.595407 192.499287 
L 122.595407 188.986257 
L 124.6676 188.986257 
L 124.6676 185.473228 
L 125.299619 185.473228 
L 125.299619 181.960198 
L 125.795913 181.960198 
L 125.795913 178.447168 
L 129.584172 178.447168 
L 129.584172 174.934139 
L 186.397335 174.934139 
L 186.397335 171.421109 
L 188.181587 171.421109 
L 188.181587 167.908079 
L 188.311577 167.908079 
L 188.311577 164.39505 
L 188.929975 164.39505 
L 188.929975 160.88202 
L 195.994552 160.88202 
L 195.994552 157.36899 
L 196.202271 157.36899 
L 196.202271 153.85596 
L 197.274536 153.85596 
L 197.37267 146.829901 
L 199.02357 146.829901 
L 199.02357 143.316871 
L 203.28586 143.316871 
L 203.28586 139.803842 
L 203.953621 139.803842 
L 203.953621 136.290812 
L 204.215013 136.290812 
L 204.215013 132.777782 
L 208.215526 132.777782 
L 208.215526 129.264752 
L 208.619122 129.264752 
L 208.619122 125.751723 
L 209.323376 125.751723 
L 209.323376 122.238693 
L 209.958701 122.238693 
L 209.958701 118.725663 
L 211.037878 118.725663 
L 211.037878 115.212634 
L 211.180013 115.212634 
L 211.180013 111.699604 
L 211.36946 111.699604 
L 211.477035 104.673545 
L 211.896416 104.673545 
L 211.896416 101.160515 
L 212.020805 101.160515 
L 212.020805 97.647485 
L 213.535774 97.647485 
L 213.535774 94.134455 
L 213.693352 94.134455 
L 213.693352 90.621426 
L 213.885498 90.621426 
L 213.885498 87.108396 
L 214.653713 87.108396 
L 214.653713 83.595366 
L 215.21595 83.595366 
L 215.21595 80.082337 
L 216.884243 80.082337 
L 216.884243 76.569307 
L 217.361164 76.569307 
L 217.361164 73.056277 
L 217.525341 73.056277 
L 217.525341 69.543248 
L 217.720852 69.543248 
L 217.720852 66.030218 
L 218.922959 66.030218 
L 218.922959 62.517188 
L 221.134491 62.517188 
L 221.134491 59.004158 
L 221.947189 59.004158 
L 221.947189 55.491129 
L 223.142859 55.491129 
L 223.142859 51.978099 
L 223.635394 51.978099 
L 223.635394 48.465069 
L 223.956117 48.465069 
L 223.956117 44.95204 
L 225.093211 44.95204 
L 225.093211 41.43901 
L 235.158256 41.43901 
L 235.158256 37.92598 
L 238.7944 37.92598 
L 238.7944 34.41295 
L 239.340909 34.41295 
L 239.340909 30.899921 
L 245.304219 30.899921 
L 245.304219 27.386891 
L 248.230763 27.386891 
L 248.230763 23.873861 
L 250.117949 23.873861 
L 250.117949 20.360832 
L 263.953462 20.360832 
L 263.953462 16.847802 
L 269.322618 16.847802 
L 269.322618 13.334772 
L 269.322618 13.334772 
L 367.82 13.334772 
L 367.82 13.334772 
" style="fill:none;stroke:#00bfbf;stroke-linecap:square;stroke-width:1.5;"/>
   </g>
   <g id="patch_3">
    <path d="M 10.7 276.812 
L 10.7 10.7 
" style="fill:none;stroke:#000000;stroke-linecap:square;stroke-linejoin:miter;stroke-width:0.8;"/>
   </g>
   <g id="patch_4">
    <path d="M 367.82 276.812 
L 367.82 10.7 
" style="fill:none;stroke:#000000;stroke-linecap:square;stroke-linejoin:miter;stroke-width:0.8;"/>
   </g>
   <g id="patch_5">
    <path d="M 10.7 276.812 
L 367.82 276.812 
" style="fill:none;stroke:#000000;stroke-linecap:square;stroke-linejoin:miter;stroke-width:0.8;"/>
   </g>
   <g id="patch_6">
    <path d="M 10.7 10.7 
L 367.82 10.7 
" style="fill:none;stroke:#000000;stroke-linecap:square;stroke-linejoin:miter;stroke-width:0.8;"/>
   </g>
   <g id="text_6">
    <!-- {f1-f5}, 5-D -->
    <defs>
     <path d="M 51.125 -9.28125 
L 51.125 -16.3125 
L 48.09375 -16.3125 
Q 35.9375 -16.3125 31.8125 -12.6875 
Q 27.6875 -9.078125 27.6875 1.703125 
L 27.6875 13.375 
Q 27.6875 20.75 25.046875 23.578125 
Q 22.40625 26.421875 15.484375 26.421875 
L 12.5 26.421875 
L 12.5 33.40625 
L 15.484375 33.40625 
Q 22.46875 33.40625 25.078125 36.203125 
Q 27.6875 39.015625 27.6875 46.296875 
L 27.6875 58.015625 
Q 27.6875 68.796875 31.8125 72.390625 
Q 35.9375 75.984375 48.09375 75.984375 
L 51.125 75.984375 
L 51.125 69 
L 47.796875 69 
Q 40.921875 69 38.8125 66.84375 
Q 36.71875 64.703125 36.71875 57.8125 
L 36.71875 45.703125 
Q 36.71875 38.03125 34.5 34.5625 
Q 32.28125 31.109375 26.90625 29.890625 
Q 32.328125 28.5625 34.515625 25.09375 
Q 36.71875 21.625 36.71875 14.015625 
L 36.71875 1.90625 
Q 36.71875 -4.984375 38.8125 -7.125 
Q 40.921875 -9.28125 47.796875 -9.28125 
z
" id="DejaVuSans-7b"/>
     <path d="M 10.796875 72.90625 
L 49.515625 72.90625 
L 49.515625 64.59375 
L 19.828125 64.59375 
L 19.828125 46.734375 
Q 21.96875 47.46875 24.109375 47.828125 
Q 26.265625 48.1875 28.421875 48.1875 
Q 40.625 48.1875 47.75 41.5 
Q 54.890625 34.8125 54.890625 23.390625 
Q 54.890625 11.625 47.5625 5.09375 
Q 40.234375 -1.421875 26.90625 -1.421875 
Q 22.3125 -1.421875 17.546875 -0.640625 
Q 12.796875 0.140625 7.71875 1.703125 
L 7.71875 11.625 
Q 12.109375 9.234375 16.796875 8.0625 
Q 21.484375 6.890625 26.703125 6.890625 
Q 35.15625 6.890625 40.078125 11.328125 
Q 45.015625 15.765625 45.015625 23.390625 
Q 45.015625 31 40.078125 35.4375 
Q 35.15625 39.890625 26.703125 39.890625 
Q 22.75 39.890625 18.8125 39.015625 
Q 14.890625 38.140625 10.796875 36.28125 
z
" id="DejaVuSans-35"/>
     <path d="M 12.5 -9.28125 
L 15.921875 -9.28125 
Q 22.75 -9.28125 24.828125 -7.171875 
Q 26.90625 -5.078125 26.90625 1.90625 
L 26.90625 14.015625 
Q 26.90625 21.625 29.09375 25.09375 
Q 31.296875 28.5625 36.71875 29.890625 
Q 31.296875 31.109375 29.09375 34.5625 
Q 26.90625 38.03125 26.90625 45.703125 
L 26.90625 57.8125 
Q 26.90625 64.75 24.828125 66.875 
Q 22.75 69 15.921875 69 
L 12.5 69 
L 12.5 75.984375 
L 15.578125 75.984375 
Q 27.734375 75.984375 31.8125 72.390625 
Q 35.890625 68.796875 35.890625 58.015625 
L 35.890625 46.296875 
Q 35.890625 39.015625 38.515625 36.203125 
Q 41.15625 33.40625 48.09375 33.40625 
L 51.125 33.40625 
L 51.125 26.421875 
L 48.09375 26.421875 
Q 41.15625 26.421875 38.515625 23.578125 
Q 35.890625 20.75 35.890625 13.375 
L 35.890625 1.703125 
Q 35.890625 -9.078125 31.8125 -12.6875 
Q 27.734375 -16.3125 15.578125 -16.3125 
L 12.5 -16.3125 
z
" id="DejaVuSans-7d"/>
     <path d="M 11.71875 12.40625 
L 22.015625 12.40625 
L 22.015625 4 
L 14.015625 -11.625 
L 7.71875 -11.625 
L 11.71875 4 
z
" id="DejaVuSans-2c"/>
    </defs>
    <g transform="translate(240.4276 271.48976)scale(0.2 -0.2)">
     <use xlink:href="#DejaVuSans-7b"/>
     <use x="63.623047" xlink:href="#DejaVuSans-66"/>
     <use x="98.828125" xlink:href="#DejaVuSans-31"/>
     <use x="162.451172" xlink:href="#DejaVuSans-2d"/>
     <use x="198.535156" xlink:href="#DejaVuSans-66"/>
     <use x="233.740234" xlink:href="#DejaVuSans-35"/>
     <use x="297.363281" xlink:href="#DejaVuSans-7d"/>
     <use x="360.986328" xlink:href="#DejaVuSans-2c"/>
     <use x="392.773438" xlink:href="#DejaVuSans-20"/>
     <use x="424.560547" xlink:href="#DejaVuSans-35"/>
     <use x="488.183594" xlink:href="#DejaVuSans-2d"/>
     <use x="524.267578" xlink:href="#DejaVuSans-44"/>
    </g>
   </g>
   <g id="text_7">
    <!-- v0.0.0 -->
    <defs>
     <path d="M 2.984375 54.6875 
L 12.5 54.6875 
L 29.59375 8.796875 
L 46.6875 54.6875 
L 56.203125 54.6875 
L 35.6875 0 
L 23.484375 0 
z
" id="DejaVuSans-76"/>
     <path d="M 10.6875 12.40625 
L 21 12.40625 
L 21 0 
L 10.6875 0 
z
" id="DejaVuSans-2e"/>
    </defs>
    <g style="fill:#808080;" transform="translate(173.57875 272.071193)scale(0.1 -0.1)">
     <use xlink:href="#DejaVuSans-76"/>
     <use x="59.179688" xlink:href="#DejaVuSans-30"/>
     <use x="122.802734" xlink:href="#DejaVuSans-2e"/>
     <use x="154.589844" xlink:href="#DejaVuSans-30"/>
     <use x="218.212891" xlink:href="#DejaVuSans-2e"/>
     <use x="250" xlink:href="#DejaVuSans-30"/>
    </g>
   </g>
  </g>
 </g>
 <defs>
  <clipPath id="p8e1eb8a274">
   <rect height="266.112" width="357.12" x="10.7" y="10.7"/>
  </clipPath>
 </defs>
</svg>
