<?xml version="1.0" encoding="utf-8" standalone="no"?>
<!DOCTYPE svg PUBLIC "-//W3C//DTD SVG 1.1//EN"
  "http://www.w3.org/Graphics/SVG/1.1/DTD/svg11.dtd">
<!-- Created with matplotlib (http://matplotlib.org/) -->
<svg height="353pt" version="1.1" viewBox="0 0 438 353" width="438pt" xmlns="http://www.w3.org/2000/svg" xmlns:xlink="http://www.w3.org/1999/xlink">
 <defs>
  <style type="text/css">
*{stroke-linecap:butt;stroke-linejoin:round;}
  </style>
 </defs>
 <g id="figure_1">
  <g id="patch_1">
   <path d="M 0 353.22225 
L 438.62 353.22225 
L 438.62 0 
L 0 0 
z
" style="fill:#ffffff;"/>
  </g>
  <g id="axes_1">
   <g id="patch_2">
    <path d="M 70.8 298.245375 
L 427.92 298.245375 
L 427.92 32.133375 
L 70.8 32.133375 
z
" style="fill:#ffffff;"/>
   </g>
   <g id="matplotlib.axis_1">
    <g id="xtick_1">
     <g id="line2d_1">
      <path clip-path="url(#p99829e9d87)" d="M 70.8 298.245375 
L 70.8 32.133375 
" style="fill:none;stroke:#b0b0b0;stroke-linecap:square;stroke-width:0.8;"/>
     </g>
     <g id="line2d_2">
      <defs>
       <path d="M 0 0 
L 0 3.5 
" id="m0e62745635" style="stroke:#000000;stroke-width:0.8;"/>
      </defs>
      <g>
       <use style="stroke:#000000;stroke-width:0.8;" x="70.8" xlink:href="#m0e62745635" y="298.245375"/>
      </g>
     </g>
     <g id="text_1">
      <!-- 0 -->
      <defs>
       <path d="M 31.78125 66.40625 
Q 24.171875 66.40625 20.328125 58.90625 
Q 16.5 51.421875 16.5 36.375 
Q 16.5 21.390625 20.328125 13.890625 
Q 24.171875 6.390625 31.78125 6.390625 
Q 39.453125 6.390625 43.28125 13.890625 
Q 47.125 21.390625 47.125 36.375 
Q 47.125 51.421875 43.28125 58.90625 
Q 39.453125 66.40625 31.78125 66.40625 
z
M 31.78125 74.21875 
Q 44.046875 74.21875 50.515625 64.515625 
Q 56.984375 54.828125 56.984375 36.375 
Q 56.984375 17.96875 50.515625 8.265625 
Q 44.046875 -1.421875 31.78125 -1.421875 
Q 19.53125 -1.421875 13.0625 8.265625 
Q 6.59375 17.96875 6.59375 36.375 
Q 6.59375 54.828125 13.0625 64.515625 
Q 19.53125 74.21875 31.78125 74.21875 
z
" id="DejaVuSans-30"/>
      </defs>
      <g transform="translate(64.4375 320.44225)scale(0.2 -0.2)">
       <use xlink:href="#DejaVuSans-30"/>
      </g>
     </g>
    </g>
    <g id="xtick_2">
     <g id="line2d_3">
      <path clip-path="url(#p99829e9d87)" d="M 153.085714 298.245375 
L 153.085714 32.133375 
" style="fill:none;stroke:#b0b0b0;stroke-linecap:square;stroke-width:0.8;"/>
     </g>
     <g id="line2d_4">
      <g>
       <use style="stroke:#000000;stroke-width:0.8;" x="153.085714" xlink:href="#m0e62745635" y="298.245375"/>
      </g>
     </g>
     <g id="text_2">
      <!-- 2 -->
      <defs>
       <path d="M 19.1875 8.296875 
L 53.609375 8.296875 
L 53.609375 0 
L 7.328125 0 
L 7.328125 8.296875 
Q 12.9375 14.109375 22.625 23.890625 
Q 32.328125 33.6875 34.8125 36.53125 
Q 39.546875 41.84375 41.421875 45.53125 
Q 43.3125 49.21875 43.3125 52.78125 
Q 43.3125 58.59375 39.234375 62.25 
Q 35.15625 65.921875 28.609375 65.921875 
Q 23.96875 65.921875 18.8125 64.3125 
Q 13.671875 62.703125 7.8125 59.421875 
L 7.8125 69.390625 
Q 13.765625 71.78125 18.9375 73 
Q 24.125 74.21875 28.421875 74.21875 
Q 39.75 74.21875 46.484375 68.546875 
Q 53.21875 62.890625 53.21875 53.421875 
Q 53.21875 48.921875 51.53125 44.890625 
Q 49.859375 40.875 45.40625 35.40625 
Q 44.1875 33.984375 37.640625 27.21875 
Q 31.109375 20.453125 19.1875 8.296875 
z
" id="DejaVuSans-32"/>
      </defs>
      <g transform="translate(146.723214 320.44225)scale(0.2 -0.2)">
       <use xlink:href="#DejaVuSans-32"/>
      </g>
     </g>
    </g>
    <g id="xtick_3">
     <g id="line2d_5">
      <path clip-path="url(#p99829e9d87)" d="M 235.371429 298.245375 
L 235.371429 32.133375 
" style="fill:none;stroke:#b0b0b0;stroke-linecap:square;stroke-width:0.8;"/>
     </g>
     <g id="line2d_6">
      <g>
       <use style="stroke:#000000;stroke-width:0.8;" x="235.371429" xlink:href="#m0e62745635" y="298.245375"/>
      </g>
     </g>
     <g id="text_3">
      <!-- 4 -->
      <defs>
       <path d="M 37.796875 64.3125 
L 12.890625 25.390625 
L 37.796875 25.390625 
z
M 35.203125 72.90625 
L 47.609375 72.90625 
L 47.609375 25.390625 
L 58.015625 25.390625 
L 58.015625 17.1875 
L 47.609375 17.1875 
L 47.609375 0 
L 37.796875 0 
L 37.796875 17.1875 
L 4.890625 17.1875 
L 4.890625 26.703125 
z
" id="DejaVuSans-34"/>
      </defs>
      <g transform="translate(229.008929 320.44225)scale(0.2 -0.2)">
       <use xlink:href="#DejaVuSans-34"/>
      </g>
     </g>
    </g>
    <g id="xtick_4">
     <g id="line2d_7">
      <path clip-path="url(#p99829e9d87)" d="M 317.657143 298.245375 
L 317.657143 32.133375 
" style="fill:none;stroke:#b0b0b0;stroke-linecap:square;stroke-width:0.8;"/>
     </g>
     <g id="line2d_8">
      <g>
       <use style="stroke:#000000;stroke-width:0.8;" x="317.657143" xlink:href="#m0e62745635" y="298.245375"/>
      </g>
     </g>
     <g id="text_4">
      <!-- 6 -->
      <defs>
       <path d="M 33.015625 40.375 
Q 26.375 40.375 22.484375 35.828125 
Q 18.609375 31.296875 18.609375 23.390625 
Q 18.609375 15.53125 22.484375 10.953125 
Q 26.375 6.390625 33.015625 6.390625 
Q 39.65625 6.390625 43.53125 10.953125 
Q 47.40625 15.53125 47.40625 23.390625 
Q 47.40625 31.296875 43.53125 35.828125 
Q 39.65625 40.375 33.015625 40.375 
z
M 52.59375 71.296875 
L 52.59375 62.3125 
Q 48.875 64.0625 45.09375 64.984375 
Q 41.3125 65.921875 37.59375 65.921875 
Q 27.828125 65.921875 22.671875 59.328125 
Q 17.53125 52.734375 16.796875 39.40625 
Q 19.671875 43.65625 24.015625 45.921875 
Q 28.375 48.1875 33.59375 48.1875 
Q 44.578125 48.1875 50.953125 41.515625 
Q 57.328125 34.859375 57.328125 23.390625 
Q 57.328125 12.15625 50.6875 5.359375 
Q 44.046875 -1.421875 33.015625 -1.421875 
Q 20.359375 -1.421875 13.671875 8.265625 
Q 6.984375 17.96875 6.984375 36.375 
Q 6.984375 53.65625 15.1875 63.9375 
Q 23.390625 74.21875 37.203125 74.21875 
Q 40.921875 74.21875 44.703125 73.484375 
Q 48.484375 72.75 52.59375 71.296875 
z
" id="DejaVuSans-36"/>
      </defs>
      <g transform="translate(311.294643 320.44225)scale(0.2 -0.2)">
       <use xlink:href="#DejaVuSans-36"/>
      </g>
     </g>
    </g>
    <g id="xtick_5">
     <g id="line2d_9">
      <path clip-path="url(#p99829e9d87)" d="M 399.942857 298.245375 
L 399.942857 32.133375 
" style="fill:none;stroke:#b0b0b0;stroke-linecap:square;stroke-width:0.8;"/>
     </g>
     <g id="line2d_10">
      <g>
       <use style="stroke:#000000;stroke-width:0.8;" x="399.942857" xlink:href="#m0e62745635" y="298.245375"/>
      </g>
     </g>
     <g id="text_5">
      <!-- 8 -->
      <defs>
       <path d="M 31.78125 34.625 
Q 24.75 34.625 20.71875 30.859375 
Q 16.703125 27.09375 16.703125 20.515625 
Q 16.703125 13.921875 20.71875 10.15625 
Q 24.75 6.390625 31.78125 6.390625 
Q 38.8125 6.390625 42.859375 10.171875 
Q 46.921875 13.96875 46.921875 20.515625 
Q 46.921875 27.09375 42.890625 30.859375 
Q 38.875 34.625 31.78125 34.625 
z
M 21.921875 38.8125 
Q 15.578125 40.375 12.03125 44.71875 
Q 8.5 49.078125 8.5 55.328125 
Q 8.5 64.0625 14.71875 69.140625 
Q 20.953125 74.21875 31.78125 74.21875 
Q 42.671875 74.21875 48.875 69.140625 
Q 55.078125 64.0625 55.078125 55.328125 
Q 55.078125 49.078125 51.53125 44.71875 
Q 48 40.375 41.703125 38.8125 
Q 48.828125 37.15625 52.796875 32.3125 
Q 56.78125 27.484375 56.78125 20.515625 
Q 56.78125 9.90625 50.3125 4.234375 
Q 43.84375 -1.421875 31.78125 -1.421875 
Q 19.734375 -1.421875 13.25 4.234375 
Q 6.78125 9.90625 6.78125 20.515625 
Q 6.78125 27.484375 10.78125 32.3125 
Q 14.796875 37.15625 21.921875 38.8125 
z
M 18.3125 54.390625 
Q 18.3125 48.734375 21.84375 45.5625 
Q 25.390625 42.390625 31.78125 42.390625 
Q 38.140625 42.390625 41.71875 45.5625 
Q 45.3125 48.734375 45.3125 54.390625 
Q 45.3125 60.0625 41.71875 63.234375 
Q 38.140625 66.40625 31.78125 66.40625 
Q 25.390625 66.40625 21.84375 63.234375 
Q 18.3125 60.0625 18.3125 54.390625 
z
" id="DejaVuSans-38"/>
      </defs>
      <g transform="translate(393.580357 320.44225)scale(0.2 -0.2)">
       <use xlink:href="#DejaVuSans-38"/>
      </g>
     </g>
    </g>
    <g id="text_6">
     <!-- log10 of (# f-evals / dimension) -->
     <defs>
      <path d="M 9.421875 75.984375 
L 18.40625 75.984375 
L 18.40625 0 
L 9.421875 0 
z
" id="DejaVuSans-6c"/>
      <path d="M 30.609375 48.390625 
Q 23.390625 48.390625 19.1875 42.75 
Q 14.984375 37.109375 14.984375 27.296875 
Q 14.984375 17.484375 19.15625 11.84375 
Q 23.34375 6.203125 30.609375 6.203125 
Q 37.796875 6.203125 41.984375 11.859375 
Q 46.1875 17.53125 46.1875 27.296875 
Q 46.1875 37.015625 41.984375 42.703125 
Q 37.796875 48.390625 30.609375 48.390625 
z
M 30.609375 56 
Q 42.328125 56 49.015625 48.375 
Q 55.71875 40.765625 55.71875 27.296875 
Q 55.71875 13.875 49.015625 6.21875 
Q 42.328125 -1.421875 30.609375 -1.421875 
Q 18.84375 -1.421875 12.171875 6.21875 
Q 5.515625 13.875 5.515625 27.296875 
Q 5.515625 40.765625 12.171875 48.375 
Q 18.84375 56 30.609375 56 
z
" id="DejaVuSans-6f"/>
      <path d="M 45.40625 27.984375 
Q 45.40625 37.75 41.375 43.109375 
Q 37.359375 48.484375 30.078125 48.484375 
Q 22.859375 48.484375 18.828125 43.109375 
Q 14.796875 37.75 14.796875 27.984375 
Q 14.796875 18.265625 18.828125 12.890625 
Q 22.859375 7.515625 30.078125 7.515625 
Q 37.359375 7.515625 41.375 12.890625 
Q 45.40625 18.265625 45.40625 27.984375 
z
M 54.390625 6.78125 
Q 54.390625 -7.171875 48.1875 -13.984375 
Q 42 -20.796875 29.203125 -20.796875 
Q 24.46875 -20.796875 20.265625 -20.09375 
Q 16.0625 -19.390625 12.109375 -17.921875 
L 12.109375 -9.1875 
Q 16.0625 -11.328125 19.921875 -12.34375 
Q 23.78125 -13.375 27.78125 -13.375 
Q 36.625 -13.375 41.015625 -8.765625 
Q 45.40625 -4.15625 45.40625 5.171875 
L 45.40625 9.625 
Q 42.625 4.78125 38.28125 2.390625 
Q 33.9375 0 27.875 0 
Q 17.828125 0 11.671875 7.65625 
Q 5.515625 15.328125 5.515625 27.984375 
Q 5.515625 40.671875 11.671875 48.328125 
Q 17.828125 56 27.875 56 
Q 33.9375 56 38.28125 53.609375 
Q 42.625 51.21875 45.40625 46.390625 
L 45.40625 54.6875 
L 54.390625 54.6875 
z
" id="DejaVuSans-67"/>
      <path d="M 12.40625 8.296875 
L 28.515625 8.296875 
L 28.515625 63.921875 
L 10.984375 60.40625 
L 10.984375 69.390625 
L 28.421875 72.90625 
L 38.28125 72.90625 
L 38.28125 8.296875 
L 54.390625 8.296875 
L 54.390625 0 
L 12.40625 0 
z
" id="DejaVuSans-31"/>
      <path id="DejaVuSans-20"/>
      <path d="M 37.109375 75.984375 
L 37.109375 68.5 
L 28.515625 68.5 
Q 23.6875 68.5 21.796875 66.546875 
Q 19.921875 64.59375 19.921875 59.515625 
L 19.921875 54.6875 
L 34.71875 54.6875 
L 34.71875 47.703125 
L 19.921875 47.703125 
L 19.921875 0 
L 10.890625 0 
L 10.890625 47.703125 
L 2.296875 47.703125 
L 2.296875 54.6875 
L 10.890625 54.6875 
L 10.890625 58.5 
Q 10.890625 67.625 15.140625 71.796875 
Q 19.390625 75.984375 28.609375 75.984375 
z
" id="DejaVuSans-66"/>
      <path d="M 31 75.875 
Q 24.46875 64.65625 21.28125 53.65625 
Q 18.109375 42.671875 18.109375 31.390625 
Q 18.109375 20.125 21.3125 9.0625 
Q 24.515625 -2 31 -13.1875 
L 23.1875 -13.1875 
Q 15.875 -1.703125 12.234375 9.375 
Q 8.59375 20.453125 8.59375 31.390625 
Q 8.59375 42.28125 12.203125 53.3125 
Q 15.828125 64.359375 23.1875 75.875 
z
" id="DejaVuSans-28"/>
      <path d="M 51.125 44 
L 36.921875 44 
L 32.8125 27.6875 
L 47.125 27.6875 
z
M 43.796875 71.78125 
L 38.71875 51.515625 
L 52.984375 51.515625 
L 58.109375 71.78125 
L 65.921875 71.78125 
L 60.890625 51.515625 
L 76.125 51.515625 
L 76.125 44 
L 58.984375 44 
L 54.984375 27.6875 
L 70.515625 27.6875 
L 70.515625 20.21875 
L 53.078125 20.21875 
L 48 0 
L 40.1875 0 
L 45.21875 20.21875 
L 30.90625 20.21875 
L 25.875 0 
L 18.015625 0 
L 23.09375 20.21875 
L 7.71875 20.21875 
L 7.71875 27.6875 
L 24.90625 27.6875 
L 29 44 
L 13.28125 44 
L 13.28125 51.515625 
L 30.90625 51.515625 
L 35.890625 71.78125 
z
" id="DejaVuSans-23"/>
      <path d="M 4.890625 31.390625 
L 31.203125 31.390625 
L 31.203125 23.390625 
L 4.890625 23.390625 
z
" id="DejaVuSans-2d"/>
      <path d="M 56.203125 29.59375 
L 56.203125 25.203125 
L 14.890625 25.203125 
Q 15.484375 15.921875 20.484375 11.0625 
Q 25.484375 6.203125 34.421875 6.203125 
Q 39.59375 6.203125 44.453125 7.46875 
Q 49.3125 8.734375 54.109375 11.28125 
L 54.109375 2.78125 
Q 49.265625 0.734375 44.1875 -0.34375 
Q 39.109375 -1.421875 33.890625 -1.421875 
Q 20.796875 -1.421875 13.15625 6.1875 
Q 5.515625 13.8125 5.515625 26.8125 
Q 5.515625 40.234375 12.765625 48.109375 
Q 20.015625 56 32.328125 56 
Q 43.359375 56 49.78125 48.890625 
Q 56.203125 41.796875 56.203125 29.59375 
z
M 47.21875 32.234375 
Q 47.125 39.59375 43.09375 43.984375 
Q 39.0625 48.390625 32.421875 48.390625 
Q 24.90625 48.390625 20.390625 44.140625 
Q 15.875 39.890625 15.1875 32.171875 
z
" id="DejaVuSans-65"/>
      <path d="M 2.984375 54.6875 
L 12.5 54.6875 
L 29.59375 8.796875 
L 46.6875 54.6875 
L 56.203125 54.6875 
L 35.6875 0 
L 23.484375 0 
z
" id="DejaVuSans-76"/>
      <path d="M 34.28125 27.484375 
Q 23.390625 27.484375 19.1875 25 
Q 14.984375 22.515625 14.984375 16.5 
Q 14.984375 11.71875 18.140625 8.90625 
Q 21.296875 6.109375 26.703125 6.109375 
Q 34.1875 6.109375 38.703125 11.40625 
Q 43.21875 16.703125 43.21875 25.484375 
L 43.21875 27.484375 
z
M 52.203125 31.203125 
L 52.203125 0 
L 43.21875 0 
L 43.21875 8.296875 
Q 40.140625 3.328125 35.546875 0.953125 
Q 30.953125 -1.421875 24.3125 -1.421875 
Q 15.921875 -1.421875 10.953125 3.296875 
Q 6 8.015625 6 15.921875 
Q 6 25.140625 12.171875 29.828125 
Q 18.359375 34.515625 30.609375 34.515625 
L 43.21875 34.515625 
L 43.21875 35.40625 
Q 43.21875 41.609375 39.140625 45 
Q 35.0625 48.390625 27.6875 48.390625 
Q 23 48.390625 18.546875 47.265625 
Q 14.109375 46.140625 10.015625 43.890625 
L 10.015625 52.203125 
Q 14.9375 54.109375 19.578125 55.046875 
Q 24.21875 56 28.609375 56 
Q 40.484375 56 46.34375 49.84375 
Q 52.203125 43.703125 52.203125 31.203125 
z
" id="DejaVuSans-61"/>
      <path d="M 44.28125 53.078125 
L 44.28125 44.578125 
Q 40.484375 46.53125 36.375 47.5 
Q 32.28125 48.484375 27.875 48.484375 
Q 21.1875 48.484375 17.84375 46.4375 
Q 14.5 44.390625 14.5 40.28125 
Q 14.5 37.15625 16.890625 35.375 
Q 19.28125 33.59375 26.515625 31.984375 
L 29.59375 31.296875 
Q 39.15625 29.25 43.1875 25.515625 
Q 47.21875 21.78125 47.21875 15.09375 
Q 47.21875 7.46875 41.1875 3.015625 
Q 35.15625 -1.421875 24.609375 -1.421875 
Q 20.21875 -1.421875 15.453125 -0.5625 
Q 10.6875 0.296875 5.421875 2 
L 5.421875 11.28125 
Q 10.40625 8.6875 15.234375 7.390625 
Q 20.0625 6.109375 24.8125 6.109375 
Q 31.15625 6.109375 34.5625 8.28125 
Q 37.984375 10.453125 37.984375 14.40625 
Q 37.984375 18.0625 35.515625 20.015625 
Q 33.0625 21.96875 24.703125 23.78125 
L 21.578125 24.515625 
Q 13.234375 26.265625 9.515625 29.90625 
Q 5.8125 33.546875 5.8125 39.890625 
Q 5.8125 47.609375 11.28125 51.796875 
Q 16.75 56 26.8125 56 
Q 31.78125 56 36.171875 55.265625 
Q 40.578125 54.546875 44.28125 53.078125 
z
" id="DejaVuSans-73"/>
      <path d="M 25.390625 72.90625 
L 33.6875 72.90625 
L 8.296875 -9.28125 
L 0 -9.28125 
z
" id="DejaVuSans-2f"/>
      <path d="M 45.40625 46.390625 
L 45.40625 75.984375 
L 54.390625 75.984375 
L 54.390625 0 
L 45.40625 0 
L 45.40625 8.203125 
Q 42.578125 3.328125 38.25 0.953125 
Q 33.9375 -1.421875 27.875 -1.421875 
Q 17.96875 -1.421875 11.734375 6.484375 
Q 5.515625 14.40625 5.515625 27.296875 
Q 5.515625 40.1875 11.734375 48.09375 
Q 17.96875 56 27.875 56 
Q 33.9375 56 38.25 53.625 
Q 42.578125 51.265625 45.40625 46.390625 
z
M 14.796875 27.296875 
Q 14.796875 17.390625 18.875 11.75 
Q 22.953125 6.109375 30.078125 6.109375 
Q 37.203125 6.109375 41.296875 11.75 
Q 45.40625 17.390625 45.40625 27.296875 
Q 45.40625 37.203125 41.296875 42.84375 
Q 37.203125 48.484375 30.078125 48.484375 
Q 22.953125 48.484375 18.875 42.84375 
Q 14.796875 37.203125 14.796875 27.296875 
z
" id="DejaVuSans-64"/>
      <path d="M 9.421875 54.6875 
L 18.40625 54.6875 
L 18.40625 0 
L 9.421875 0 
z
M 9.421875 75.984375 
L 18.40625 75.984375 
L 18.40625 64.59375 
L 9.421875 64.59375 
z
" id="DejaVuSans-69"/>
      <path d="M 52 44.1875 
Q 55.375 50.25 60.0625 53.125 
Q 64.75 56 71.09375 56 
Q 79.640625 56 84.28125 50.015625 
Q 88.921875 44.046875 88.921875 33.015625 
L 88.921875 0 
L 79.890625 0 
L 79.890625 32.71875 
Q 79.890625 40.578125 77.09375 44.375 
Q 74.3125 48.1875 68.609375 48.1875 
Q 61.625 48.1875 57.5625 43.546875 
Q 53.515625 38.921875 53.515625 30.90625 
L 53.515625 0 
L 44.484375 0 
L 44.484375 32.71875 
Q 44.484375 40.625 41.703125 44.40625 
Q 38.921875 48.1875 33.109375 48.1875 
Q 26.21875 48.1875 22.15625 43.53125 
Q 18.109375 38.875 18.109375 30.90625 
L 18.109375 0 
L 9.078125 0 
L 9.078125 54.6875 
L 18.109375 54.6875 
L 18.109375 46.1875 
Q 21.1875 51.21875 25.484375 53.609375 
Q 29.78125 56 35.6875 56 
Q 41.65625 56 45.828125 52.96875 
Q 50 49.953125 52 44.1875 
z
" id="DejaVuSans-6d"/>
      <path d="M 54.890625 33.015625 
L 54.890625 0 
L 45.90625 0 
L 45.90625 32.71875 
Q 45.90625 40.484375 42.875 44.328125 
Q 39.84375 48.1875 33.796875 48.1875 
Q 26.515625 48.1875 22.3125 43.546875 
Q 18.109375 38.921875 18.109375 30.90625 
L 18.109375 0 
L 9.078125 0 
L 9.078125 54.6875 
L 18.109375 54.6875 
L 18.109375 46.1875 
Q 21.34375 51.125 25.703125 53.5625 
Q 30.078125 56 35.796875 56 
Q 45.21875 56 50.046875 50.171875 
Q 54.890625 44.34375 54.890625 33.015625 
z
" id="DejaVuSans-6e"/>
      <path d="M 8.015625 75.875 
L 15.828125 75.875 
Q 23.140625 64.359375 26.78125 53.3125 
Q 30.421875 42.28125 30.421875 31.390625 
Q 30.421875 20.453125 26.78125 9.375 
Q 23.140625 -1.703125 15.828125 -13.1875 
L 8.015625 -13.1875 
Q 14.5 -2 17.703125 9.0625 
Q 20.90625 20.125 20.90625 31.390625 
Q 20.90625 42.671875 17.703125 53.65625 
Q 14.5 64.65625 8.015625 75.875 
z
" id="DejaVuSans-29"/>
     </defs>
     <g transform="translate(107.015156 342.278812)scale(0.18 -0.18)">
      <use xlink:href="#DejaVuSans-6c"/>
      <use x="27.783203" xlink:href="#DejaVuSans-6f"/>
      <use x="88.964844" xlink:href="#DejaVuSans-67"/>
      <use x="152.441406" xlink:href="#DejaVuSans-31"/>
      <use x="216.064453" xlink:href="#DejaVuSans-30"/>
      <use x="279.6875" xlink:href="#DejaVuSans-20"/>
      <use x="311.474609" xlink:href="#DejaVuSans-6f"/>
      <use x="372.65625" xlink:href="#DejaVuSans-66"/>
      <use x="407.861328" xlink:href="#DejaVuSans-20"/>
      <use x="439.648438" xlink:href="#DejaVuSans-28"/>
      <use x="478.662109" xlink:href="#DejaVuSans-23"/>
      <use x="562.451172" xlink:href="#DejaVuSans-20"/>
      <use x="594.238281" xlink:href="#DejaVuSans-66"/>
      <use x="629.365234" xlink:href="#DejaVuSans-2d"/>
      <use x="665.449219" xlink:href="#DejaVuSans-65"/>
      <use x="726.972656" xlink:href="#DejaVuSans-76"/>
      <use x="786.152344" xlink:href="#DejaVuSans-61"/>
      <use x="847.431641" xlink:href="#DejaVuSans-6c"/>
      <use x="875.214844" xlink:href="#DejaVuSans-73"/>
      <use x="927.314453" xlink:href="#DejaVuSans-20"/>
      <use x="959.101562" xlink:href="#DejaVuSans-2f"/>
      <use x="992.792969" xlink:href="#DejaVuSans-20"/>
      <use x="1024.580078" xlink:href="#DejaVuSans-64"/>
      <use x="1088.056641" xlink:href="#DejaVuSans-69"/>
      <use x="1115.839844" xlink:href="#DejaVuSans-6d"/>
      <use x="1213.251953" xlink:href="#DejaVuSans-65"/>
      <use x="1274.775391" xlink:href="#DejaVuSans-6e"/>
      <use x="1338.154297" xlink:href="#DejaVuSans-73"/>
      <use x="1390.253906" xlink:href="#DejaVuSans-69"/>
      <use x="1418.037109" xlink:href="#DejaVuSans-6f"/>
      <use x="1479.21875" xlink:href="#DejaVuSans-6e"/>
      <use x="1542.597656" xlink:href="#DejaVuSans-29"/>
     </g>
    </g>
   </g>
   <g id="matplotlib.axis_2">
    <g id="ytick_1">
     <g id="line2d_11">
      <path clip-path="url(#p99829e9d87)" d="M 70.8 298.245375 
L 427.92 298.245375 
" style="fill:none;stroke:#b0b0b0;stroke-linecap:square;stroke-width:0.8;"/>
     </g>
     <g id="line2d_12">
      <defs>
       <path d="M 0 0 
L -3.5 0 
" id="mabefe3facd" style="stroke:#000000;stroke-width:0.8;"/>
      </defs>
      <g>
       <use style="stroke:#000000;stroke-width:0.8;" x="70.8" xlink:href="#mabefe3facd" y="298.245375"/>
      </g>
     </g>
     <g id="text_7">
      <!-- 0.0 -->
      <defs>
       <path d="M 10.6875 12.40625 
L 21 12.40625 
L 21 0 
L 10.6875 0 
z
" id="DejaVuSans-2e"/>
      </defs>
      <g transform="translate(31.99375 305.843812)scale(0.2 -0.2)">
       <use xlink:href="#DejaVuSans-30"/>
       <use x="63.623047" xlink:href="#DejaVuSans-2e"/>
       <use x="95.410156" xlink:href="#DejaVuSans-30"/>
      </g>
     </g>
    </g>
    <g id="ytick_2">
     <g id="line2d_13">
      <path clip-path="url(#p99829e9d87)" d="M 70.8 245.549929 
L 427.92 245.549929 
" style="fill:none;stroke:#b0b0b0;stroke-linecap:square;stroke-width:0.8;"/>
     </g>
     <g id="line2d_14">
      <g>
       <use style="stroke:#000000;stroke-width:0.8;" x="70.8" xlink:href="#mabefe3facd" y="245.549929"/>
      </g>
     </g>
     <g id="text_8">
      <!-- 0.2 -->
      <g transform="translate(31.99375 253.148367)scale(0.2 -0.2)">
       <use xlink:href="#DejaVuSans-30"/>
       <use x="63.623047" xlink:href="#DejaVuSans-2e"/>
       <use x="95.410156" xlink:href="#DejaVuSans-32"/>
      </g>
     </g>
    </g>
    <g id="ytick_3">
     <g id="line2d_15">
      <path clip-path="url(#p99829e9d87)" d="M 70.8 192.854484 
L 427.92 192.854484 
" style="fill:none;stroke:#b0b0b0;stroke-linecap:square;stroke-width:0.8;"/>
     </g>
     <g id="line2d_16">
      <g>
       <use style="stroke:#000000;stroke-width:0.8;" x="70.8" xlink:href="#mabefe3facd" y="192.854484"/>
      </g>
     </g>
     <g id="text_9">
      <!-- 0.4 -->
      <g transform="translate(31.99375 200.452921)scale(0.2 -0.2)">
       <use xlink:href="#DejaVuSans-30"/>
       <use x="63.623047" xlink:href="#DejaVuSans-2e"/>
       <use x="95.410156" xlink:href="#DejaVuSans-34"/>
      </g>
     </g>
    </g>
    <g id="ytick_4">
     <g id="line2d_17">
      <path clip-path="url(#p99829e9d87)" d="M 70.8 140.159038 
L 427.92 140.159038 
" style="fill:none;stroke:#b0b0b0;stroke-linecap:square;stroke-width:0.8;"/>
     </g>
     <g id="line2d_18">
      <g>
       <use style="stroke:#000000;stroke-width:0.8;" x="70.8" xlink:href="#mabefe3facd" y="140.159038"/>
      </g>
     </g>
     <g id="text_10">
      <!-- 0.6 -->
      <g transform="translate(31.99375 147.757476)scale(0.2 -0.2)">
       <use xlink:href="#DejaVuSans-30"/>
       <use x="63.623047" xlink:href="#DejaVuSans-2e"/>
       <use x="95.410156" xlink:href="#DejaVuSans-36"/>
      </g>
     </g>
    </g>
    <g id="ytick_5">
     <g id="line2d_19">
      <path clip-path="url(#p99829e9d87)" d="M 70.8 87.463593 
L 427.92 87.463593 
" style="fill:none;stroke:#b0b0b0;stroke-linecap:square;stroke-width:0.8;"/>
     </g>
     <g id="line2d_20">
      <g>
       <use style="stroke:#000000;stroke-width:0.8;" x="70.8" xlink:href="#mabefe3facd" y="87.463593"/>
      </g>
     </g>
     <g id="text_11">
      <!-- 0.8 -->
      <g transform="translate(31.99375 95.06203)scale(0.2 -0.2)">
       <use xlink:href="#DejaVuSans-30"/>
       <use x="63.623047" xlink:href="#DejaVuSans-2e"/>
       <use x="95.410156" xlink:href="#DejaVuSans-38"/>
      </g>
     </g>
    </g>
    <g id="ytick_6">
     <g id="line2d_21">
      <path clip-path="url(#p99829e9d87)" d="M 70.8 34.768147 
L 427.92 34.768147 
" style="fill:none;stroke:#b0b0b0;stroke-linecap:square;stroke-width:0.8;"/>
     </g>
     <g id="line2d_22">
      <g>
       <use style="stroke:#000000;stroke-width:0.8;" x="70.8" xlink:href="#mabefe3facd" y="34.768147"/>
      </g>
     </g>
     <g id="text_12">
      <!-- 1.0 -->
      <g transform="translate(31.99375 42.366585)scale(0.2 -0.2)">
       <use xlink:href="#DejaVuSans-31"/>
       <use x="63.623047" xlink:href="#DejaVuSans-2e"/>
       <use x="95.410156" xlink:href="#DejaVuSans-30"/>
      </g>
     </g>
    </g>
    <g id="text_13">
     <!-- Proportion of function+target pairs -->
     <defs>
      <path d="M 19.671875 64.796875 
L 19.671875 37.40625 
L 32.078125 37.40625 
Q 38.96875 37.40625 42.71875 40.96875 
Q 46.484375 44.53125 46.484375 51.125 
Q 46.484375 57.671875 42.71875 61.234375 
Q 38.96875 64.796875 32.078125 64.796875 
z
M 9.8125 72.90625 
L 32.078125 72.90625 
Q 44.34375 72.90625 50.609375 67.359375 
Q 56.890625 61.8125 56.890625 51.125 
Q 56.890625 40.328125 50.609375 34.8125 
Q 44.34375 29.296875 32.078125 29.296875 
L 19.671875 29.296875 
L 19.671875 0 
L 9.8125 0 
z
" id="DejaVuSans-50"/>
      <path d="M 41.109375 46.296875 
Q 39.59375 47.171875 37.8125 47.578125 
Q 36.03125 48 33.890625 48 
Q 26.265625 48 22.1875 43.046875 
Q 18.109375 38.09375 18.109375 28.8125 
L 18.109375 0 
L 9.078125 0 
L 9.078125 54.6875 
L 18.109375 54.6875 
L 18.109375 46.1875 
Q 20.953125 51.171875 25.484375 53.578125 
Q 30.03125 56 36.53125 56 
Q 37.453125 56 38.578125 55.875 
Q 39.703125 55.765625 41.0625 55.515625 
z
" id="DejaVuSans-72"/>
      <path d="M 18.109375 8.203125 
L 18.109375 -20.796875 
L 9.078125 -20.796875 
L 9.078125 54.6875 
L 18.109375 54.6875 
L 18.109375 46.390625 
Q 20.953125 51.265625 25.265625 53.625 
Q 29.59375 56 35.59375 56 
Q 45.5625 56 51.78125 48.09375 
Q 58.015625 40.1875 58.015625 27.296875 
Q 58.015625 14.40625 51.78125 6.484375 
Q 45.5625 -1.421875 35.59375 -1.421875 
Q 29.59375 -1.421875 25.265625 0.953125 
Q 20.953125 3.328125 18.109375 8.203125 
z
M 48.6875 27.296875 
Q 48.6875 37.203125 44.609375 42.84375 
Q 40.53125 48.484375 33.40625 48.484375 
Q 26.265625 48.484375 22.1875 42.84375 
Q 18.109375 37.203125 18.109375 27.296875 
Q 18.109375 17.390625 22.1875 11.75 
Q 26.265625 6.109375 33.40625 6.109375 
Q 40.53125 6.109375 44.609375 11.75 
Q 48.6875 17.390625 48.6875 27.296875 
z
" id="DejaVuSans-70"/>
      <path d="M 18.3125 70.21875 
L 18.3125 54.6875 
L 36.8125 54.6875 
L 36.8125 47.703125 
L 18.3125 47.703125 
L 18.3125 18.015625 
Q 18.3125 11.328125 20.140625 9.421875 
Q 21.96875 7.515625 27.59375 7.515625 
L 36.8125 7.515625 
L 36.8125 0 
L 27.59375 0 
Q 17.1875 0 13.234375 3.875 
Q 9.28125 7.765625 9.28125 18.015625 
L 9.28125 47.703125 
L 2.6875 47.703125 
L 2.6875 54.6875 
L 9.28125 54.6875 
L 9.28125 70.21875 
z
" id="DejaVuSans-74"/>
      <path d="M 8.5 21.578125 
L 8.5 54.6875 
L 17.484375 54.6875 
L 17.484375 21.921875 
Q 17.484375 14.15625 20.5 10.265625 
Q 23.53125 6.390625 29.59375 6.390625 
Q 36.859375 6.390625 41.078125 11.03125 
Q 45.3125 15.671875 45.3125 23.6875 
L 45.3125 54.6875 
L 54.296875 54.6875 
L 54.296875 0 
L 45.3125 0 
L 45.3125 8.40625 
Q 42.046875 3.421875 37.71875 1 
Q 33.40625 -1.421875 27.6875 -1.421875 
Q 18.265625 -1.421875 13.375 4.4375 
Q 8.5 10.296875 8.5 21.578125 
z
M 31.109375 56 
z
" id="DejaVuSans-75"/>
      <path d="M 48.78125 52.59375 
L 48.78125 44.1875 
Q 44.96875 46.296875 41.140625 47.34375 
Q 37.3125 48.390625 33.40625 48.390625 
Q 24.65625 48.390625 19.8125 42.84375 
Q 14.984375 37.3125 14.984375 27.296875 
Q 14.984375 17.28125 19.8125 11.734375 
Q 24.65625 6.203125 33.40625 6.203125 
Q 37.3125 6.203125 41.140625 7.25 
Q 44.96875 8.296875 48.78125 10.40625 
L 48.78125 2.09375 
Q 45.015625 0.34375 40.984375 -0.53125 
Q 36.96875 -1.421875 32.421875 -1.421875 
Q 20.0625 -1.421875 12.78125 6.34375 
Q 5.515625 14.109375 5.515625 27.296875 
Q 5.515625 40.671875 12.859375 48.328125 
Q 20.21875 56 33.015625 56 
Q 37.15625 56 41.109375 55.140625 
Q 45.0625 54.296875 48.78125 52.59375 
z
" id="DejaVuSans-63"/>
      <path d="M 46 62.703125 
L 46 35.5 
L 73.1875 35.5 
L 73.1875 27.203125 
L 46 27.203125 
L 46 0 
L 37.796875 0 
L 37.796875 27.203125 
L 10.59375 27.203125 
L 10.59375 35.5 
L 37.796875 35.5 
L 37.796875 62.703125 
z
" id="DejaVuSans-2b"/>
     </defs>
     <g transform="translate(24.250312 323.17875)rotate(-90)scale(0.18 -0.18)">
      <use xlink:href="#DejaVuSans-50"/>
      <use x="60.287109" xlink:href="#DejaVuSans-72"/>
      <use x="101.369141" xlink:href="#DejaVuSans-6f"/>
      <use x="162.550781" xlink:href="#DejaVuSans-70"/>
      <use x="226.027344" xlink:href="#DejaVuSans-6f"/>
      <use x="287.208984" xlink:href="#DejaVuSans-72"/>
      <use x="328.322266" xlink:href="#DejaVuSans-74"/>
      <use x="367.53125" xlink:href="#DejaVuSans-69"/>
      <use x="395.314453" xlink:href="#DejaVuSans-6f"/>
      <use x="456.496094" xlink:href="#DejaVuSans-6e"/>
      <use x="519.875" xlink:href="#DejaVuSans-20"/>
      <use x="551.662109" xlink:href="#DejaVuSans-6f"/>
      <use x="612.84375" xlink:href="#DejaVuSans-66"/>
      <use x="648.048828" xlink:href="#DejaVuSans-20"/>
      <use x="679.835938" xlink:href="#DejaVuSans-66"/>
      <use x="715.041016" xlink:href="#DejaVuSans-75"/>
      <use x="778.419922" xlink:href="#DejaVuSans-6e"/>
      <use x="841.798828" xlink:href="#DejaVuSans-63"/>
      <use x="896.779297" xlink:href="#DejaVuSans-74"/>
      <use x="935.988281" xlink:href="#DejaVuSans-69"/>
      <use x="963.771484" xlink:href="#DejaVuSans-6f"/>
      <use x="1024.953125" xlink:href="#DejaVuSans-6e"/>
      <use x="1088.332031" xlink:href="#DejaVuSans-2b"/>
      <use x="1172.121094" xlink:href="#DejaVuSans-74"/>
      <use x="1211.330078" xlink:href="#DejaVuSans-61"/>
      <use x="1272.609375" xlink:href="#DejaVuSans-72"/>
      <use x="1313.707031" xlink:href="#DejaVuSans-67"/>
      <use x="1377.183594" xlink:href="#DejaVuSans-65"/>
      <use x="1438.707031" xlink:href="#DejaVuSans-74"/>
      <use x="1477.916016" xlink:href="#DejaVuSans-20"/>
      <use x="1509.703125" xlink:href="#DejaVuSans-70"/>
      <use x="1573.179688" xlink:href="#DejaVuSans-61"/>
      <use x="1634.458984" xlink:href="#DejaVuSans-69"/>
      <use x="1662.242188" xlink:href="#DejaVuSans-72"/>
      <use x="1703.355469" xlink:href="#DejaVuSans-73"/>
     </g>
    </g>
   </g>
   <g id="line2d_23">
    <defs>
     <path d="M 0 1.5 
C 0.397805 1.5 0.77937 1.341951 1.06066 1.06066 
C 1.341951 0.77937 1.5 0.397805 1.5 0 
C 1.5 -0.397805 1.341951 -0.77937 1.06066 -1.06066 
C 0.77937 -1.341951 0.397805 -1.5 0 -1.5 
C -0.397805 -1.5 -0.77937 -1.341951 -1.06066 -1.06066 
C -1.341951 -0.77937 -1.5 -0.397805 -1.5 0 
C -1.5 0.397805 -1.341951 0.77937 -1.06066 1.06066 
C -0.77937 1.341951 -0.397805 1.5 0 1.5 
z
" id="m09d61fc0ac" style="stroke:#000080;"/>
    </defs>
    <g>
     <use style="fill:#000080;stroke:#000080;" x="345.293077" xlink:href="#m09d61fc0ac" y="45.100588"/>
     <use style="fill:#000080;stroke:#000080;" x="345.293077" xlink:href="#m09d61fc0ac" y="45.100588"/>
    </g>
   </g>
   <g id="line2d_24">
    <path d="M 29.657143 298.245375 
L 29.657143 296.695509 
L 122.245852 296.695509 
L 122.245852 296.178887 
L 135.077192 296.178887 
L 135.077192 295.145643 
L 135.512432 295.145643 
L 135.512432 294.112399 
L 135.796811 294.112399 
L 135.796811 292.562533 
L 135.937321 292.562533 
L 135.937321 289.462801 
L 136.076735 289.462801 
L 136.076735 286.879691 
L 136.215069 286.879691 
L 136.306701 283.263337 
L 136.397865 283.263337 
L 136.397865 280.163604 
L 136.668599 280.163604 
L 136.668599 276.030628 
L 142.565197 276.030628 
L 142.565197 275.514006 
L 142.915876 275.514006 
L 142.915876 273.96414 
L 143.041708 273.96414 
L 143.041708 273.447518 
L 143.259805 273.447518 
L 143.259805 272.930896 
L 143.383247 272.930896 
L 143.444649 271.38103 
L 143.505841 271.38103 
L 143.505841 270.864408 
L 146.738113 270.864408 
L 146.738113 269.831164 
L 147.14136 269.831164 
L 147.14136 268.79792 
L 147.657176 268.79792 
L 147.657176 267.764676 
L 147.777825 267.764676 
L 147.777825 266.731432 
L 147.897666 266.731432 
L 147.897666 265.698188 
L 148.20554 265.698188 
L 148.20554 265.181566 
L 148.461969 265.181566 
L 148.485099 263.6317 
L 149.07621 263.6317 
L 149.07621 263.115078 
L 151.846559 263.115078 
L 151.846559 262.598456 
L 152.1692 262.598456 
L 152.1692 262.081834 
L 152.430598 262.081834 
L 152.46763 261.04859 
L 153.049942 261.04859 
L 153.049942 260.015346 
L 154.902074 260.015346 
L 154.902074 259.498724 
L 155.158481 259.498724 
L 155.158481 258.46548 
L 155.332651 258.46548 
L 155.379859 257.432236 
L 155.50514 257.432236 
L 155.50514 256.398992 
L 157.5802 256.398992 
L 157.69101 255.365748 
L 158.181325 255.365748 
L 158.181325 254.849126 
L 158.606144 254.849126 
L 158.606144 253.815882 
L 158.866617 253.815882 
L 158.866617 252.782638 
L 159.059509 252.782638 
L 159.059509 252.266016 
L 160.731101 252.266016 
L 160.754381 250.71615 
L 161.00849 250.71615 
L 161.00849 249.166284 
L 162.323646 249.166284 
L 162.323646 248.649662 
L 162.755239 248.649662 
L 162.755239 246.583173 
L 162.900256 246.583173 
L 162.900256 246.066551 
L 163.378668 246.066551 
L 163.378668 245.549929 
L 163.637919 245.549929 
L 163.637919 245.033307 
L 164.19345 245.033307 
L 164.19345 242.450197 
L 165.23714 242.450197 
L 165.23714 241.933575 
L 165.657585 241.933575 
L 165.657585 241.416953 
L 166.068365 241.416953 
L 166.068365 240.900331 
L 166.351243 240.900331 
L 166.351243 239.350465 
L 166.837823 239.350465 
L 166.936861 237.800599 
L 167.230725 237.800599 
L 167.230725 237.283977 
L 167.463983 237.283977 
L 167.463983 236.767355 
L 167.686344 236.767355 
L 167.686344 236.250733 
L 168.107524 236.250733 
L 168.107524 235.734111 
L 168.496391 235.734111 
L 168.496391 235.217489 
L 169.045994 235.217489 
L 169.097119 233.151001 
L 169.9028 233.151001 
L 169.9028 232.117757 
L 170.062431 232.117757 
L 170.138274 231.084513 
L 170.760307 231.084513 
L 170.760307 230.567891 
L 170.879517 230.567891 
L 170.879517 229.534647 
L 171.128599 229.534647 
L 171.128599 227.984781 
L 171.329258 227.984781 
L 171.387094 226.951537 
L 171.654548 226.951537 
L 171.654548 226.434915 
L 172.171597 226.434915 
L 172.171597 225.401671 
L 172.373085 225.401671 
L 172.373085 224.885049 
L 172.572326 224.885049 
L 172.572326 224.368427 
L 172.964265 224.368427 
L 172.976008 222.818561 
L 173.330535 222.818561 
L 173.330535 222.301939 
L 173.8075 222.301939 
L 173.8075 221.785317 
L 173.924778 221.785317 
L 173.924778 221.268695 
L 174.052349 221.268695 
L 174.052349 220.752073 
L 174.596653 220.752073 
L 174.596653 220.235451 
L 174.793916 220.235451 
L 174.862711 218.685585 
L 175.290648 218.685585 
L 175.290648 217.652341 
L 175.408861 217.652341 
L 175.511023 215.585853 
L 175.713611 215.585853 
L 175.783978 214.035987 
L 176.08245 214.035987 
L 176.08245 213.519365 
L 176.376019 213.519365 
L 176.376019 213.002743 
L 176.521014 213.002743 
L 176.521014 212.48612 
L 176.731567 212.48612 
L 176.821726 211.452876 
L 177.210331 211.452876 
L 177.210331 210.936254 
L 177.536175 210.936254 
L 177.536175 209.90301 
L 177.762128 209.90301 
L 177.775595 208.353144 
L 178.117812 208.353144 
L 178.117812 207.836522 
L 178.245019 207.836522 
L 178.245019 207.3199 
L 178.457919 207.3199 
L 178.457919 206.803278 
L 178.651229 206.803278 
L 178.651229 206.286656 
L 178.787432 206.286656 
L 178.787432 205.770034 
L 179.140104 205.770034 
L 179.140104 205.253412 
L 179.276771 205.253412 
L 179.276771 204.73679 
L 179.797199 204.73679 
L 179.797199 204.220168 
L 180.024162 204.220168 
L 180.024162 203.703546 
L 180.299001 203.703546 
L 180.299001 202.670302 
L 180.531259 202.670302 
L 180.581186 201.637058 
L 180.745342 201.637058 
L 180.745342 201.120436 
L 181.076661 201.120436 
L 181.076661 200.603814 
L 181.299089 200.603814 
L 181.299089 200.087192 
L 181.431228 200.087192 
L 181.431228 199.57057 
L 181.587791 199.57057 
L 181.587791 198.537326 
L 181.746588 198.537326 
L 181.789652 194.920972 
L 182.291519 194.920972 
L 182.291519 194.40435 
L 182.471832 194.40435 
L 182.471832 193.887728 
L 182.769498 193.887728 
L 182.769498 192.337862 
L 183.624151 192.337862 
L 183.624151 191.82124 
L 184.074511 191.82124 
L 184.074511 191.304618 
L 184.253397 191.304618 
L 184.253397 190.271374 
L 184.679216 190.271374 
L 184.679216 188.721508 
L 185.110012 188.721508 
L 185.110012 188.204886 
L 185.451996 188.204886 
L 185.451996 187.171642 
L 186.523044 187.171642 
L 186.523044 186.65502 
L 186.763438 186.65502 
L 186.763438 186.138398 
L 188.971113 186.138398 
L 188.971113 185.621776 
L 189.242425 185.621776 
L 189.308437 184.07191 
L 189.549191 184.07191 
L 189.549191 183.038666 
L 189.946404 183.038666 
L 190.032483 179.938934 
L 191.119585 179.938934 
L 191.119585 179.422312 
L 192.845201 179.422312 
L 192.845201 178.389067 
L 193.244218 178.389067 
L 193.244218 175.805957 
L 199.912241 175.805957 
L 199.912241 175.289335 
L 203.032963 175.289335 
L 203.092903 173.739469 
L 203.293056 173.739469 
L 203.293056 172.706225 
L 203.636172 172.706225 
L 203.636172 172.189603 
L 203.801108 172.189603 
L 203.801108 171.156359 
L 204.213551 171.156359 
L 204.216616 169.089871 
L 205.347818 169.089871 
L 205.347818 168.056627 
L 205.846197 168.056627 
L 205.846197 167.540005 
L 210.180804 167.540005 
L 210.180804 166.506761 
L 211.270808 166.506761 
L 211.270808 165.990139 
L 211.516939 165.990139 
L 211.516939 165.473517 
L 211.63807 165.473517 
L 211.63807 164.956895 
L 213.30647 164.956895 
L 213.30647 164.440273 
L 214.82892 164.440273 
L 214.82892 163.923651 
L 215.222819 163.923651 
L 215.222819 163.407029 
L 215.392524 163.407029 
L 215.440561 160.823919 
L 215.748086 160.823919 
L 215.793574 159.790675 
L 216.051987 159.790675 
L 216.051987 159.274053 
L 216.219774 159.274053 
L 216.219774 158.757431 
L 216.680347 158.757431 
L 216.680347 157.724187 
L 217.911017 157.724187 
L 218.020821 156.174321 
L 218.959686 156.174321 
L 218.959686 155.657699 
L 219.408408 155.657699 
L 219.408408 154.107833 
L 219.698122 154.107833 
L 219.698122 153.074589 
L 220.087332 153.074589 
L 220.087332 152.557967 
L 220.245923 152.557967 
L 220.245923 152.041345 
L 220.521242 152.041345 
L 220.521242 151.008101 
L 220.861342 151.008101 
L 220.861342 150.491479 
L 221.711382 150.491479 
L 221.711382 148.941613 
L 221.8292 148.941613 
L 221.8292 147.908369 
L 224.157682 147.908369 
L 224.157682 147.391747 
L 224.733336 147.391747 
L 224.733336 146.875125 
L 225.165249 146.875125 
L 225.165249 145.325259 
L 226.348753 145.325259 
L 226.348753 144.292014 
L 226.678173 144.292014 
L 226.762264 143.25877 
L 226.817433 143.25877 
L 226.817433 142.742148 
L 227.364983 142.742148 
L 227.364983 141.708904 
L 227.529244 141.708904 
L 227.529244 141.192282 
L 229.564851 141.192282 
L 229.651933 140.159038 
L 230.180513 140.159038 
L 230.274637 139.125794 
L 230.407234 139.125794 
L 230.407234 138.609172 
L 230.724059 138.609172 
L 230.724059 138.09255 
L 230.931892 138.09255 
L 230.975821 136.542684 
L 231.402356 136.542684 
L 231.402356 136.026062 
L 232.26223 136.026062 
L 232.270946 134.476196 
L 232.455115 134.476196 
L 232.529427 132.92633 
L 232.72506 132.92633 
L 232.72506 132.409708 
L 232.935169 132.409708 
L 232.973626 130.34322 
L 233.456444 130.34322 
L 233.456444 129.309976 
L 234.99494 129.309976 
L 234.99494 128.793354 
L 235.149564 128.793354 
L 235.149564 128.276732 
L 235.282403 128.276732 
L 235.282403 127.76011 
L 235.524083 127.76011 
L 235.524083 127.243488 
L 235.799909 127.243488 
L 235.903578 125.177 
L 235.99561 125.177 
L 236.008546 123.110512 
L 237.473289 123.110512 
L 237.553646 121.044024 
L 237.657714 121.044024 
L 237.742725 118.977536 
L 239.155018 118.977536 
L 239.223275 116.911048 
L 239.278498 116.911048 
L 239.380441 115.877804 
L 239.657961 115.877804 
L 239.657961 115.361182 
L 240.012453 115.361182 
L 240.072024 113.811316 
L 240.154928 113.811316 
L 240.154928 113.294694 
L 241.23154 113.294694 
L 241.23154 112.26145 
L 241.800716 112.26145 
L 241.886169 110.711584 
L 244.033119 110.711584 
L 244.073128 109.678339 
L 245.160987 109.678339 
L 245.160987 109.161717 
L 245.614595 109.161717 
L 245.614595 108.645095 
L 245.853906 108.645095 
L 245.853906 108.128473 
L 245.989047 108.128473 
L 245.989047 107.611851 
L 246.697766 107.611851 
L 246.697766 107.095229 
L 246.948813 107.095229 
L 246.948813 106.578607 
L 247.079012 106.578607 
L 247.079012 106.061985 
L 247.225488 106.061985 
L 247.279982 104.512119 
L 247.70244 104.512119 
L 247.735298 101.929009 
L 248.28994 101.929009 
L 248.28994 101.412387 
L 248.49565 101.412387 
L 248.49565 100.895765 
L 249.172217 100.895765 
L 249.263105 98.829277 
L 249.305264 98.829277 
L 249.305264 97.279411 
L 249.732668 97.279411 
L 249.732668 96.762789 
L 250.736264 96.762789 
L 250.736264 94.696301 
L 251.372693 94.696301 
L 251.372693 94.179679 
L 251.585233 94.179679 
L 251.585233 93.663057 
L 251.934203 93.663057 
L 251.934203 92.629813 
L 252.139227 92.629813 
L 252.139227 91.079947 
L 252.785041 91.079947 
L 252.785041 90.563325 
L 253.152685 90.563325 
L 253.258716 88.496837 
L 253.817348 88.496837 
L 253.817348 87.463593 
L 254.027399 87.463593 
L 254.027399 86.946971 
L 255.055916 86.946971 
L 255.055916 86.430349 
L 255.947164 86.430349 
L 255.947164 85.913727 
L 256.943218 85.913727 
L 256.943218 85.397105 
L 257.414326 85.397105 
L 257.502261 81.780751 
L 257.685659 81.780751 
L 257.685659 81.264129 
L 257.946823 81.264129 
L 257.946823 79.714263 
L 258.161406 79.714263 
L 258.170935 77.647775 
L 258.90322 77.647775 
L 258.90322 76.614531 
L 259.171037 76.614531 
L 259.187113 75.581286 
L 259.911528 75.581286 
L 259.911528 74.548042 
L 260.208065 74.548042 
L 260.208065 74.03142 
L 260.672052 74.03142 
L 260.672052 72.481554 
L 261.245566 72.481554 
L 261.245566 71.964932 
L 261.566033 71.964932 
L 261.566033 71.44831 
L 262.186718 71.44831 
L 262.186718 70.931688 
L 262.39864 70.931688 
L 262.39864 69.898444 
L 264.789879 69.898444 
L 264.789879 69.381822 
L 265.04391 69.381822 
L 265.04391 68.8652 
L 265.649038 68.8652 
L 265.649038 68.348578 
L 266.116267 68.348578 
L 266.116267 67.315334 
L 267.922181 67.315334 
L 267.922181 66.798712 
L 272.556165 66.798712 
L 272.556165 65.248846 
L 272.752054 65.248846 
L 272.752054 64.215602 
L 273.658579 64.215602 
L 273.658579 63.69898 
L 274.210235 63.69898 
L 274.210235 63.182358 
L 274.800382 63.182358 
L 274.801208 62.149114 
L 275.264843 62.149114 
L 275.264843 61.632492 
L 280.650835 61.632492 
L 280.650835 61.11587 
L 282.426248 61.11587 
L 282.426248 60.599248 
L 284.005476 60.599248 
L 284.005476 60.082626 
L 285.061764 60.082626 
L 285.061764 59.566004 
L 285.596299 59.566004 
L 285.596299 59.049382 
L 286.185921 59.049382 
L 286.185921 58.53276 
L 287.262721 58.53276 
L 287.262721 58.016138 
L 291.219152 58.016138 
L 291.219152 57.499516 
L 294.828633 57.499516 
L 294.828633 56.982894 
L 299.108384 56.982894 
L 299.108384 56.466272 
L 299.443546 56.466272 
L 299.443546 55.94965 
L 301.581377 55.94965 
L 301.581377 55.433028 
L 308.415518 55.433028 
L 308.415518 54.916406 
L 308.527117 54.916406 
L 308.538708 53.883162 
L 309.632371 53.883162 
L 309.632371 53.36654 
L 310.083869 53.36654 
L 310.083869 52.849918 
L 310.502835 52.849918 
L 310.502835 52.333296 
L 313.6978 52.333296 
L 313.6978 51.816674 
L 314.976816 51.816674 
L 314.976816 51.300052 
L 318.23963 51.300052 
L 318.23963 50.78343 
L 319.111093 50.78343 
L 319.111093 50.266808 
L 321.265258 50.266808 
L 321.265258 49.750186 
L 325.335169 49.750186 
L 325.335169 49.233564 
L 326.716931 49.233564 
L 326.716931 48.716942 
L 327.623032 48.716942 
L 327.623032 48.20032 
L 330.599196 48.20032 
L 330.599196 47.683698 
L 331.237956 47.683698 
L 331.237956 47.167076 
L 331.539891 47.167076 
L 331.539891 46.650454 
L 331.66442 46.650454 
L 331.66442 46.133832 
L 338.032572 46.133832 
L 338.032572 45.61721 
L 345.293077 45.61721 
L 345.293077 45.100588 
L 358.8 45.100588 
L 358.8 45.100588 
" style="fill:none;stroke:#000080;stroke-linecap:square;stroke-width:1.5;"/>
   </g>
   <g id="line2d_25">
    <defs>
     <path d="M 0 6 
C 1.591219 6 3.117479 5.367802 4.242641 4.242641 
C 5.367802 3.117479 6 1.591219 6 0 
C 6 -1.591219 5.367802 -3.117479 4.242641 -4.242641 
C 3.117479 -5.367802 1.591219 -6 0 -6 
C -1.591219 -6 -3.117479 -5.367802 -4.242641 -4.242641 
C -5.367802 -3.117479 -6 -1.591219 -6 0 
C -6 1.591219 -5.367802 3.117479 -4.242641 4.242641 
C -3.117479 5.367802 -1.591219 6 0 6 
z
" id="m84a1cb97dd" style="stroke:#000080;stroke-width:1.5;"/>
    </defs>
    <g>
     <use style="fill:none;stroke:#000080;stroke-width:1.5;" x="136.306701" xlink:href="#m84a1cb97dd" y="283.263337"/>
     <use style="fill:none;stroke:#000080;stroke-width:1.5;" x="190.032483" xlink:href="#m84a1cb97dd" y="179.938934"/>
     <use style="fill:none;stroke:#000080;stroke-width:1.5;" x="244.033119" xlink:href="#m84a1cb97dd" y="110.711584"/>
     <use style="fill:none;stroke:#000080;stroke-width:1.5;" x="291.219152" xlink:href="#m84a1cb97dd" y="58.016138"/>
     <use style="fill:none;stroke:#000080;stroke-width:1.5;" x="345.293077" xlink:href="#m84a1cb97dd" y="45.100588"/>
     <use style="fill:none;stroke:#000080;stroke-width:1.5;" x="358.8" xlink:href="#m84a1cb97dd" y="45.100588"/>
    </g>
   </g>
   <g id="line2d_26"/>
   <g id="line2d_27">
    <path clip-path="url(#p99829e9d87)" d="M 272.600685 65.248846 
" style="fill:none;stroke:#000080;stroke-linecap:square;stroke-width:1.5;"/>
    <defs>
     <path d="M -12 12 
L 12 -12 
M -12 -12 
L 12 12 
" id="mbaad6453f8" style="stroke:#000080;stroke-width:3;"/>
    </defs>
    <g clip-path="url(#p99829e9d87)">
     <use style="fill:#000080;stroke:#000080;stroke-width:3;" x="272.600685" xlink:href="#mbaad6453f8" y="65.248846"/>
    </g>
   </g>
   <g id="line2d_28">
    <defs>
     <path d="M 0 1.5 
C 0.397805 1.5 0.77937 1.341951 1.06066 1.06066 
C 1.341951 0.77937 1.5 0.397805 1.5 0 
C 1.5 -0.397805 1.341951 -0.77937 1.06066 -1.06066 
C 0.77937 -1.341951 0.397805 -1.5 0 -1.5 
C -0.397805 -1.5 -0.77937 -1.341951 -1.06066 -1.06066 
C -1.341951 -0.77937 -1.5 -0.397805 -1.5 0 
C -1.5 0.397805 -1.341951 0.77937 -1.06066 1.06066 
C -0.77937 1.341951 -0.397805 1.5 0 1.5 
z
" id="m21212b68ce" style="stroke:#ff00ff;"/>
    </defs>
    <g>
     <use style="fill:#ff00ff;stroke:#ff00ff;" x="329.932345" xlink:href="#m21212b68ce" y="153.591211"/>
     <use style="fill:#ff00ff;stroke:#ff00ff;" x="329.932345" xlink:href="#m21212b68ce" y="153.591211"/>
    </g>
   </g>
   <g id="line2d_29">
    <path d="M 181.390956 298.245375 
L 181.390956 297.728753 
L 181.390956 297.728753 
L 181.390956 297.728753 
L 181.412934 297.728753 
L 181.412934 297.212131 
L 183.438819 297.212131 
L 183.438819 296.695509 
L 183.643548 296.695509 
L 183.643548 295.662265 
L 183.874688 295.662265 
L 183.97012 294.112399 
L 184.102875 294.112399 
L 184.102875 293.079155 
L 185.747391 293.079155 
L 185.836209 291.529289 
L 187.258505 291.529289 
L 187.258505 291.012667 
L 187.416166 291.012667 
L 187.416166 289.462801 
L 187.921707 289.462801 
L 187.921707 288.946179 
L 188.294182 288.946179 
L 188.381144 287.912935 
L 188.727251 287.912935 
L 188.727251 286.879691 
L 188.889392 286.879691 
L 188.889392 285.846447 
L 189.535255 285.846447 
L 189.535255 284.296581 
L 189.777577 284.296581 
L 189.777577 282.746715 
L 190.689163 282.746715 
L 190.689163 281.713471 
L 192.320149 281.713471 
L 192.427192 280.680226 
L 198.476828 280.680226 
L 198.476828 279.646982 
L 199.513943 279.646982 
L 199.513943 279.13036 
L 200.022398 279.13036 
L 200.022398 278.097116 
L 201.14042 278.097116 
L 201.14042 277.580494 
L 201.579173 277.580494 
L 201.651263 276.54725 
L 201.779358 276.54725 
L 201.779358 276.030628 
L 202.312327 276.030628 
L 202.312327 273.447518 
L 202.715769 273.447518 
L 202.803339 272.414274 
L 204.652618 272.414274 
L 204.652618 271.897652 
L 205.540494 271.897652 
L 205.540494 271.38103 
L 211.329229 271.38103 
L 211.329229 270.864408 
L 211.485677 270.864408 
L 211.574562 269.314542 
L 212.75564 269.314542 
L 212.75564 268.79792 
L 217.312413 268.79792 
L 217.312413 267.248054 
L 217.789544 267.248054 
L 217.882509 265.698188 
L 218.602009 265.698188 
L 218.648081 264.664944 
L 218.754366 264.664944 
L 218.754366 264.148322 
L 218.918452 264.148322 
L 218.918452 263.115078 
L 219.219242 263.115078 
L 219.219242 261.565212 
L 219.957829 261.565212 
L 219.957829 261.04859 
L 220.146497 261.04859 
L 220.146497 260.531968 
L 220.503593 260.531968 
L 220.50852 259.498724 
L 221.17928 259.498724 
L 221.277462 257.948858 
L 222.331449 257.948858 
L 222.331449 256.915614 
L 223.368736 256.915614 
L 223.368736 256.398992 
L 223.555594 256.398992 
L 223.555594 255.365748 
L 226.041782 255.365748 
L 226.041782 254.849126 
L 226.449426 254.849126 
L 226.449426 254.332504 
L 226.627237 254.332504 
L 226.680208 252.782638 
L 227.476789 252.782638 
L 227.476789 252.266016 
L 227.799337 252.266016 
L 227.799337 251.232772 
L 229.381161 251.232772 
L 229.381161 250.71615 
L 230.856366 250.71615 
L 230.904152 244.000063 
L 231.099477 244.000063 
L 231.099477 243.483441 
L 231.609549 243.483441 
L 231.609549 242.966819 
L 233.353919 242.966819 
L 233.353919 241.933575 
L 234.401606 241.933575 
L 234.401606 240.900331 
L 236.225851 240.900331 
L 236.225851 239.867087 
L 237.670287 239.867087 
L 237.670287 239.350465 
L 238.192971 239.350465 
L 238.1977 237.283977 
L 238.468532 237.283977 
L 238.468532 236.250733 
L 239.071689 236.250733 
L 239.071689 235.734111 
L 239.679876 235.734111 
L 239.679876 234.700867 
L 239.797981 234.700867 
L 239.797981 232.117757 
L 241.510729 232.117757 
L 241.510729 231.601135 
L 243.187803 231.601135 
L 243.187803 231.084513 
L 243.409321 231.084513 
L 243.409321 230.051269 
L 244.321289 230.051269 
L 244.321289 229.534647 
L 244.512887 229.534647 
L 244.512887 228.501403 
L 245.717836 228.501403 
L 245.737052 226.951537 
L 245.887266 226.951537 
L 245.887266 225.918293 
L 246.84861 225.918293 
L 246.84861 225.401671 
L 247.345285 225.401671 
L 247.345285 224.368427 
L 247.60062 224.368427 
L 247.633395 217.652341 
L 248.154851 217.652341 
L 248.194386 216.102475 
L 248.920032 216.102475 
L 248.920032 214.035987 
L 250.095304 214.035987 
L 250.095304 213.519365 
L 250.443504 213.519365 
L 250.518216 211.969498 
L 250.559809 211.969498 
L 250.559809 211.452876 
L 250.711217 211.452876 
L 250.711217 210.419632 
L 250.879889 210.419632 
L 250.879889 208.353144 
L 251.525788 208.353144 
L 251.525788 207.3199 
L 252.851534 207.3199 
L 252.851534 205.253412 
L 253.034057 205.253412 
L 253.034057 204.73679 
L 253.868316 204.73679 
L 253.868316 204.220168 
L 254.255637 204.220168 
L 254.255637 203.703546 
L 256.0755 203.703546 
L 256.0755 203.186924 
L 256.286923 203.186924 
L 256.312124 199.57057 
L 256.542869 199.57057 
L 256.542869 199.053948 
L 257.053153 199.053948 
L 257.053153 198.537326 
L 257.246029 198.537326 
L 257.246029 198.020704 
L 259.062987 198.020704 
L 259.062987 196.470838 
L 259.569304 196.470838 
L 259.569304 195.954216 
L 260.462154 195.954216 
L 260.462154 195.437594 
L 261.33993 195.437594 
L 261.33993 194.40435 
L 262.021417 194.40435 
L 262.021417 193.887728 
L 263.459361 193.887728 
L 263.459361 192.854484 
L 264.225813 192.854484 
L 264.225813 192.337862 
L 264.591517 192.337862 
L 264.591517 191.82124 
L 265.046626 191.82124 
L 265.046626 191.304618 
L 265.731984 191.304618 
L 265.731984 188.204886 
L 265.934335 188.204886 
L 265.934335 187.171642 
L 267.137561 187.171642 
L 267.137561 186.138398 
L 267.549692 186.138398 
L 267.593843 183.555288 
L 268.672766 183.555288 
L 268.672766 183.038666 
L 269.900953 183.038666 
L 269.900953 182.522044 
L 270.411357 182.522044 
L 270.44858 181.4888 
L 270.759367 181.4888 
L 270.759367 180.972178 
L 271.754485 180.972178 
L 271.754485 179.422312 
L 271.866036 179.422312 
L 271.866036 178.90569 
L 272.361938 178.90569 
L 272.361938 177.872445 
L 272.889001 177.872445 
L 272.889001 176.322579 
L 273.500161 176.322579 
L 273.500161 175.805957 
L 274.841615 175.805957 
L 274.841615 175.289335 
L 275.982945 175.289335 
L 275.982945 174.772713 
L 276.495031 174.772713 
L 276.495031 174.256091 
L 277.953891 174.256091 
L 277.953891 173.739469 
L 278.182927 173.739469 
L 278.182927 173.222847 
L 279.356003 173.222847 
L 279.356003 172.706225 
L 280.087064 172.706225 
L 280.087064 172.189603 
L 281.148211 172.189603 
L 281.148211 171.672981 
L 283.611544 171.672981 
L 283.611544 171.156359 
L 283.963847 171.156359 
L 283.963847 170.639737 
L 284.176263 170.639737 
L 284.176263 170.123115 
L 284.412823 170.123115 
L 284.412823 169.606493 
L 285.419359 169.606493 
L 285.419359 169.089871 
L 285.676686 169.089871 
L 285.676686 168.573249 
L 289.144758 168.573249 
L 289.144758 168.056627 
L 289.469413 168.056627 
L 289.469413 167.540005 
L 289.643135 167.540005 
L 289.643135 167.023383 
L 289.855777 167.023383 
L 289.855777 166.506761 
L 290.022546 166.506761 
L 290.022546 165.990139 
L 290.558466 165.990139 
L 290.558466 165.473517 
L 292.226249 165.473517 
L 292.226249 164.956895 
L 293.48228 164.956895 
L 293.48228 164.440273 
L 294.116576 164.440273 
L 294.116576 163.923651 
L 296.055625 163.923651 
L 296.055625 163.407029 
L 296.310248 163.407029 
L 296.310248 162.890407 
L 297.131539 162.890407 
L 297.131539 162.373785 
L 298.023589 162.373785 
L 298.023589 161.857163 
L 300.363617 161.857163 
L 300.363617 161.340541 
L 301.613592 161.340541 
L 301.613592 160.823919 
L 302.163735 160.823919 
L 302.163735 160.307297 
L 303.210111 160.307297 
L 303.210111 159.790675 
L 303.482518 159.790675 
L 303.482518 159.274053 
L 303.753962 159.274053 
L 303.753962 158.757431 
L 304.367394 158.757431 
L 304.367394 158.240809 
L 306.500929 158.240809 
L 306.500929 157.724187 
L 308.522798 157.724187 
L 308.522798 157.207565 
L 309.491509 157.207565 
L 309.491509 156.690943 
L 315.360034 156.690943 
L 315.360034 156.174321 
L 317.024994 156.174321 
L 317.024994 155.657699 
L 318.205961 155.657699 
L 318.205961 155.141077 
L 323.755936 155.141077 
L 323.755936 154.624455 
L 324.121285 154.624455 
L 324.121285 154.107833 
L 329.932345 154.107833 
L 329.932345 153.591211 
L 358.8 153.591211 
L 358.8 153.591211 
" style="fill:none;stroke:#ff00ff;stroke-linecap:square;stroke-width:1.5;"/>
   </g>
   <g id="line2d_30">
    <defs>
     <path d="M -0 8.485281 
L 5.091169 0 
L 0 -8.485281 
L -5.091169 -0 
z
" id="m5fb99d339c" style="stroke:#ff00ff;stroke-linejoin:miter;stroke-width:1.5;"/>
    </defs>
    <g>
     <use style="fill:none;stroke:#ff00ff;stroke-linejoin:miter;stroke-width:1.5;" x="250.711217" xlink:href="#m5fb99d339c" y="210.419632"/>
     <use style="fill:none;stroke:#ff00ff;stroke-linejoin:miter;stroke-width:1.5;" x="315.360034" xlink:href="#m5fb99d339c" y="156.174321"/>
     <use style="fill:none;stroke:#ff00ff;stroke-linejoin:miter;stroke-width:1.5;" x="329.932345" xlink:href="#m5fb99d339c" y="153.591211"/>
     <use style="fill:none;stroke:#ff00ff;stroke-linejoin:miter;stroke-width:1.5;" x="358.8" xlink:href="#m5fb99d339c" y="153.591211"/>
    </g>
   </g>
   <g id="line2d_31"/>
   <g id="line2d_32">
    <path clip-path="url(#p99829e9d87)" d="M 268.972986 183.038666 
" style="fill:none;stroke:#ff00ff;stroke-linecap:square;stroke-width:1.5;"/>
    <defs>
     <path d="M -12 12 
L 12 -12 
M -12 -12 
L 12 12 
" id="m40067da77a" style="stroke:#ff00ff;stroke-width:3;"/>
    </defs>
    <g clip-path="url(#p99829e9d87)">
     <use style="fill:#ff00ff;stroke:#ff00ff;stroke-width:3;" x="268.972986" xlink:href="#m40067da77a" y="183.038666"/>
    </g>
   </g>
   <g id="line2d_33">
    <defs>
     <path d="M 0 1.5 
C 0.397805 1.5 0.77937 1.341951 1.06066 1.06066 
C 1.341951 0.77937 1.5 0.397805 1.5 0 
C 1.5 -0.397805 1.341951 -0.77937 1.06066 -1.06066 
C 0.77937 -1.341951 0.397805 -1.5 0 -1.5 
C -0.397805 -1.5 -0.77937 -1.341951 -1.06066 -1.06066 
C -1.341951 -0.77937 -1.5 -0.397805 -1.5 0 
C -1.5 0.397805 -1.341951 0.77937 -1.06066 1.06066 
C -0.77937 1.341951 -0.397805 1.5 0 1.5 
z
" id="m75ccc3d2d9" style="stroke:#ffa500;"/>
    </defs>
    <g>
     <use style="fill:#ffa500;stroke:#ffa500;" x="332.34064" xlink:href="#m75ccc3d2d9" y="112.26145"/>
     <use style="fill:#ffa500;stroke:#ffa500;" x="332.34064" xlink:href="#m75ccc3d2d9" y="112.26145"/>
    </g>
   </g>
   <g id="line2d_34">
    <path d="M 143.597239 298.245375 
L 143.597239 297.728753 
L 147.215966 297.728753 
L 147.215966 296.695509 
L 147.36425 296.695509 
L 147.36425 296.178887 
L 148.064103 296.178887 
L 148.064103 295.145643 
L 148.805818 295.145643 
L 148.805818 294.629021 
L 151.103576 294.629021 
L 151.103576 293.595777 
L 151.361246 293.595777 
L 151.361246 293.079155 
L 151.827398 293.079155 
L 151.827398 292.562533 
L 153.032029 292.562533 
L 153.032029 291.529289 
L 154.328014 291.529289 
L 154.328014 290.496045 
L 154.493922 290.496045 
L 154.493922 289.979423 
L 155.799208 289.979423 
L 155.799208 289.462801 
L 155.936832 289.462801 
L 155.936832 288.946179 
L 156.13377 288.946179 
L 156.13377 288.429557 
L 157.828564 288.429557 
L 157.828564 287.912935 
L 160.12695 287.912935 
L 160.12695 287.396313 
L 160.985538 287.396313 
L 160.985538 286.879691 
L 161.259034 286.879691 
L 161.259034 286.363069 
L 161.461444 286.363069 
L 161.461444 285.329825 
L 163.338447 285.329825 
L 163.338447 284.813203 
L 164.582624 284.813203 
L 164.582624 284.296581 
L 164.991056 284.296581 
L 164.991056 283.779959 
L 165.137292 283.779959 
L 165.137292 283.263337 
L 165.282341 283.263337 
L 165.282341 282.230093 
L 165.842293 282.230093 
L 165.842293 281.196849 
L 166.402198 281.196849 
L 166.469912 280.163604 
L 167.741505 280.163604 
L 167.741505 279.646982 
L 168.413231 279.646982 
L 168.413231 278.613738 
L 169.74173 278.613738 
L 169.74173 278.097116 
L 170.329892 278.097116 
L 170.397831 276.030628 
L 172.011233 276.030628 
L 172.011233 274.997384 
L 172.536265 274.997384 
L 172.536265 274.480762 
L 173.479532 274.480762 
L 173.479532 273.447518 
L 174.559087 273.447518 
L 174.559087 272.930896 
L 175.602472 272.930896 
L 175.602472 272.414274 
L 176.621814 272.414274 
L 176.693469 270.864408 
L 177.577058 270.864408 
L 177.577058 269.831164 
L 178.54839 269.831164 
L 178.54839 269.314542 
L 179.056764 269.314542 
L 179.056764 268.79792 
L 179.648314 268.79792 
L 179.648314 268.281298 
L 184.673117 268.281298 
L 184.673117 267.764676 
L 184.843117 267.764676 
L 184.843117 266.731432 
L 186.001208 266.731432 
L 186.001208 265.698188 
L 186.240297 265.698188 
L 186.240297 265.181566 
L 186.36559 265.181566 
L 186.409928 263.115078 
L 186.597145 263.115078 
L 186.597145 262.598456 
L 187.891163 262.598456 
L 187.911531 261.04859 
L 188.381144 261.04859 
L 188.381144 260.531968 
L 188.951918 260.531968 
L 188.951918 259.498724 
L 190.75005 259.498724 
L 190.75005 258.46548 
L 191.125963 258.46548 
L 191.125963 257.432236 
L 191.263598 257.432236 
L 191.263598 256.915614 
L 192.116191 256.915614 
L 192.214462 255.88237 
L 192.96642 255.88237 
L 192.96642 255.365748 
L 193.489851 255.365748 
L 193.489851 254.849126 
L 193.647443 254.849126 
L 193.647443 254.332504 
L 193.865764 254.332504 
L 193.865764 253.29926 
L 194.016474 253.29926 
L 194.016474 252.782638 
L 199.871896 252.782638 
L 199.871896 250.71615 
L 202.316873 250.71615 
L 202.316873 250.199528 
L 202.548306 250.199528 
L 202.548306 249.166284 
L 202.972821 249.166284 
L 202.972821 248.649662 
L 203.197046 248.649662 
L 203.197046 247.616418 
L 211.440046 247.616418 
L 211.440046 246.583173 
L 212.863647 246.583173 
L 212.863647 246.066551 
L 217.061267 246.066551 
L 217.061267 245.033307 
L 217.188764 245.033307 
L 217.188764 244.000063 
L 217.51839 244.000063 
L 217.51839 243.483441 
L 217.964583 243.483441 
L 218.01563 242.450197 
L 218.252403 242.450197 
L 218.252403 241.416953 
L 218.812238 241.416953 
L 218.895552 238.317221 
L 218.940874 238.317221 
L 218.940874 237.800599 
L 219.331842 237.800599 
L 219.369072 236.250733 
L 219.67534 236.250733 
L 219.67534 234.700867 
L 219.857635 234.700867 
L 219.857635 234.184245 
L 219.974333 234.184245 
L 219.974333 233.667623 
L 220.319923 233.667623 
L 220.408073 232.634379 
L 220.67157 232.634379 
L 220.67157 231.601135 
L 221.277462 231.601135 
L 221.279428 230.567891 
L 221.695256 230.567891 
L 221.695256 230.051269 
L 221.840254 230.051269 
L 221.840254 229.534647 
L 222.841954 229.534647 
L 222.90058 228.501403 
L 223.489356 228.501403 
L 223.5805 227.468159 
L 224.107408 227.468159 
L 224.21382 224.368427 
L 224.413218 224.368427 
L 224.413218 223.851805 
L 224.54274 223.851805 
L 224.54274 223.335183 
L 224.667428 223.335183 
L 224.667428 221.785317 
L 224.793835 221.785317 
L 224.793835 221.268695 
L 225.143725 221.268695 
L 225.143725 219.718829 
L 226.479135 219.718829 
L 226.479135 219.202207 
L 226.68631 219.202207 
L 226.68631 218.685585 
L 226.977637 218.685585 
L 226.977637 217.652341 
L 228.023942 217.652341 
L 228.112141 216.102475 
L 228.331283 216.102475 
L 228.331283 215.585853 
L 228.531795 215.585853 
L 228.531795 214.552609 
L 229.626814 214.552609 
L 229.626814 214.035987 
L 230.818137 214.035987 
L 230.818137 213.002743 
L 230.941511 213.002743 
L 230.941511 212.48612 
L 231.168786 212.48612 
L 231.168786 211.969498 
L 231.348726 211.969498 
L 231.348726 211.452876 
L 231.4845 211.452876 
L 231.4845 210.419632 
L 232.189358 210.419632 
L 232.269671 207.3199 
L 232.623031 207.3199 
L 232.623031 206.803278 
L 232.8615 206.803278 
L 232.8615 206.286656 
L 233.574594 206.286656 
L 233.574594 205.770034 
L 234.139166 205.770034 
L 234.234249 201.120436 
L 234.45435 201.120436 
L 234.499247 198.020704 
L 234.591692 198.020704 
L 234.626189 196.470838 
L 234.713532 196.470838 
L 234.713532 195.954216 
L 235.371071 195.954216 
L 235.371071 195.437594 
L 235.504407 195.437594 
L 235.504407 194.40435 
L 236.056243 194.40435 
L 236.056243 193.887728 
L 237.511373 193.887728 
L 237.593926 192.854484 
L 237.696662 192.854484 
L 237.696662 192.337862 
L 238.288687 192.337862 
L 238.306738 189.754752 
L 238.998766 189.754752 
L 238.998766 188.721508 
L 239.422936 188.721508 
L 239.422936 187.688264 
L 239.710036 187.688264 
L 239.710036 187.171642 
L 240.224653 187.171642 
L 240.251461 186.138398 
L 241.093795 186.138398 
L 241.093795 185.621776 
L 241.373468 185.621776 
L 241.373468 185.105154 
L 242.809917 185.105154 
L 242.809917 184.07191 
L 242.981603 184.07191 
L 242.981603 183.555288 
L 243.738435 183.555288 
L 243.738435 183.038666 
L 243.859293 183.038666 
L 243.859293 182.522044 
L 244.538044 182.522044 
L 244.645763 179.422312 
L 244.659368 179.422312 
L 244.659368 178.90569 
L 245.734851 178.90569 
L 245.82984 177.355823 
L 246.039573 177.355823 
L 246.039573 176.322579 
L 246.614627 176.322579 
L 246.632903 174.256091 
L 247.779608 174.256091 
L 247.779608 173.739469 
L 248.910487 173.739469 
L 248.910487 172.189603 
L 249.268688 172.189603 
L 249.268688 171.672981 
L 249.93722 171.672981 
L 249.93722 171.156359 
L 250.268545 171.156359 
L 250.268545 169.089871 
L 250.594295 169.089871 
L 250.594295 167.023383 
L 251.272807 167.023383 
L 251.272807 166.506761 
L 252.617648 166.506761 
L 252.633975 164.956895 
L 252.745147 164.956895 
L 252.745147 164.440273 
L 253.173744 164.440273 
L 253.173744 163.923651 
L 254.11092 163.923651 
L 254.11092 163.407029 
L 254.308406 163.407029 
L 254.308406 162.373785 
L 254.946262 162.373785 
L 255.050749 160.307297 
L 255.427773 160.307297 
L 255.511959 158.757431 
L 255.688381 158.757431 
L 255.688381 157.724187 
L 256.103745 157.724187 
L 256.157757 155.657699 
L 256.696233 155.657699 
L 256.696233 155.141077 
L 257.336675 155.141077 
L 257.336675 154.624455 
L 257.56042 154.624455 
L 257.56042 154.107833 
L 258.123137 154.107833 
L 258.123137 153.591211 
L 258.592543 153.591211 
L 258.592543 152.557967 
L 259.725444 152.557967 
L 259.725444 152.041345 
L 261.026954 152.041345 
L 261.026954 151.008101 
L 262.518122 151.008101 
L 262.52168 149.974857 
L 262.901537 149.974857 
L 262.901537 149.458235 
L 264.41827 149.458235 
L 264.41827 148.941613 
L 264.937697 148.941613 
L 265.001725 146.358503 
L 266.599123 146.358503 
L 266.599123 145.841881 
L 266.723181 145.841881 
L 266.723181 144.808637 
L 266.927906 144.808637 
L 266.927906 144.292014 
L 267.974214 144.292014 
L 268.03569 143.25877 
L 268.094752 143.25877 
L 268.094752 142.742148 
L 268.467043 142.742148 
L 268.467043 141.192282 
L 268.900024 141.192282 
L 268.900024 140.67566 
L 269.413041 140.67566 
L 269.413041 140.159038 
L 269.599086 140.159038 
L 269.599086 139.642416 
L 270.18737 139.642416 
L 270.18737 138.09255 
L 272.537313 138.09255 
L 272.537313 134.992818 
L 272.825195 134.992818 
L 272.825195 134.476196 
L 273.118844 134.476196 
L 273.118844 133.959574 
L 273.413293 133.959574 
L 273.494534 132.409708 
L 273.982197 132.409708 
L 273.982197 131.376464 
L 274.453094 131.376464 
L 274.453094 128.793354 
L 274.644711 128.793354 
L 274.644711 127.76011 
L 274.99193 127.76011 
L 274.99193 126.726866 
L 283.815451 126.726866 
L 283.911755 125.693622 
L 284.424602 125.693622 
L 284.424602 125.177 
L 285.536331 125.177 
L 285.536331 124.660378 
L 286.005185 124.660378 
L 286.005185 124.143756 
L 286.38954 124.143756 
L 286.38954 123.627134 
L 291.410136 123.627134 
L 291.410136 123.110512 
L 296.352196 123.110512 
L 296.352196 122.59389 
L 297.072704 122.59389 
L 297.072704 122.077268 
L 299.097598 122.077268 
L 299.200481 121.044024 
L 299.961591 121.044024 
L 299.961591 120.527402 
L 301.019803 120.527402 
L 301.019803 120.01078 
L 301.368177 120.01078 
L 301.368177 119.494158 
L 304.823013 119.494158 
L 304.823013 118.977536 
L 305.37754 118.977536 
L 305.37754 118.460914 
L 305.819786 118.460914 
L 305.819786 117.944292 
L 309.209808 117.944292 
L 309.209808 117.42767 
L 310.360709 117.42767 
L 310.360709 116.911048 
L 312.582262 116.911048 
L 312.582262 116.394426 
L 316.064914 116.394426 
L 316.079234 115.361182 
L 317.441702 115.361182 
L 317.441702 114.84456 
L 318.37625 114.84456 
L 318.37625 114.327938 
L 325.338433 114.327938 
L 325.338433 113.811316 
L 329.932545 113.811316 
L 329.932545 113.294694 
L 330.989208 113.294694 
L 330.989208 112.778072 
L 332.34064 112.778072 
L 332.34064 112.26145 
L 358.8 112.26145 
L 358.8 112.26145 
" style="fill:none;stroke:#ffa500;stroke-linecap:square;stroke-width:1.5;"/>
   </g>
   <g id="line2d_35">
    <defs>
     <path d="M 0 -6 
L -1.347084 -1.854102 
L -5.706339 -1.854102 
L -2.179628 0.708204 
L -3.526712 4.854102 
L -0 2.291796 
L 3.526712 4.854102 
L 2.179628 0.708204 
L 5.706339 -1.854102 
L 1.347084 -1.854102 
z
" id="m6b559a818c" style="stroke:#ffa500;stroke-linejoin:bevel;stroke-width:1.5;"/>
    </defs>
    <g>
     <use style="fill:none;stroke:#ffa500;stroke-linejoin:bevel;stroke-width:1.5;" x="174.559087" xlink:href="#m6b559a818c" y="273.447518"/>
     <use style="fill:none;stroke:#ffa500;stroke-linejoin:bevel;stroke-width:1.5;" x="237.696662" xlink:href="#m6b559a818c" y="192.337862"/>
     <use style="fill:none;stroke:#ffa500;stroke-linejoin:bevel;stroke-width:1.5;" x="274.99193" xlink:href="#m6b559a818c" y="126.726866"/>
     <use style="fill:none;stroke:#ffa500;stroke-linejoin:bevel;stroke-width:1.5;" x="332.34064" xlink:href="#m6b559a818c" y="112.26145"/>
     <use style="fill:none;stroke:#ffa500;stroke-linejoin:bevel;stroke-width:1.5;" x="358.8" xlink:href="#m6b559a818c" y="112.26145"/>
    </g>
   </g>
   <g id="line2d_36"/>
   <g id="line2d_37">
    <path clip-path="url(#p99829e9d87)" d="M 273.494534 132.409708 
" style="fill:none;stroke:#ffa500;stroke-linecap:square;stroke-width:1.5;"/>
    <defs>
     <path d="M -12 12 
L 12 -12 
M -12 -12 
L 12 12 
" id="m633b86b2e9" style="stroke:#ffa500;stroke-width:3;"/>
    </defs>
    <g clip-path="url(#p99829e9d87)">
     <use style="fill:#ffa500;stroke:#ffa500;stroke-width:3;" x="273.494534" xlink:href="#m633b86b2e9" y="132.409708"/>
    </g>
   </g>
   <g id="line2d_38">
    <defs>
     <path d="M 0 1.5 
C 0.397805 1.5 0.77937 1.341951 1.06066 1.06066 
C 1.341951 0.77937 1.5 0.397805 1.5 0 
C 1.5 -0.397805 1.341951 -0.77937 1.06066 -1.06066 
C 0.77937 -1.341951 0.397805 -1.5 0 -1.5 
C -0.397805 -1.5 -0.77937 -1.341951 -1.06066 -1.06066 
C -1.341951 -0.77937 -1.5 -0.397805 -1.5 0 
C -1.5 0.397805 -1.341951 0.77937 -1.06066 1.06066 
C -0.77937 1.341951 -0.397805 1.5 0 1.5 
z
" id="m5a98048c18" style="stroke:#6495ed;"/>
    </defs>
    <g>
     <use style="fill:#6495ed;stroke:#6495ed;" x="305.353106" xlink:href="#m5a98048c18" y="132.92633"/>
     <use style="fill:#6495ed;stroke:#6495ed;" x="305.353106" xlink:href="#m5a98048c18" y="132.92633"/>
    </g>
   </g>
   <g id="line2d_39">
    <path d="M 146.062784 298.245375 
L 146.062784 297.728753 
L 146.966058 297.728753 
L 146.966058 297.212131 
L 147.992963 297.212131 
L 148.040421 296.178887 
L 152.504586 296.178887 
L 152.504586 295.662265 
L 152.888076 295.662265 
L 152.978183 294.112399 
L 154.756211 294.112399 
L 154.756211 293.595777 
L 155.753097 293.595777 
L 155.753097 293.079155 
L 157.468698 293.079155 
L 157.468698 292.045911 
L 157.732388 292.045911 
L 157.732388 291.529289 
L 158.527256 291.529289 
L 158.527256 291.012667 
L 158.956892 291.012667 
L 158.956892 290.496045 
L 159.749484 290.496045 
L 159.749484 289.462801 
L 161.156963 289.462801 
L 161.156963 288.946179 
L 162.83825 288.946179 
L 162.83825 287.912935 
L 164.563836 287.912935 
L 164.563836 286.879691 
L 164.88982 286.879691 
L 164.88982 285.846447 
L 165.109964 285.846447 
L 165.109964 284.813203 
L 165.31842 284.813203 
L 165.31842 284.296581 
L 166.804688 284.296581 
L 166.804688 283.263337 
L 168.192116 283.263337 
L 168.192116 282.746715 
L 168.360108 282.746715 
L 168.360108 281.713471 
L 168.624155 281.713471 
L 168.624155 280.163604 
L 169.853932 280.163604 
L 169.853932 279.646982 
L 170.027849 279.646982 
L 170.027849 279.13036 
L 170.316273 279.13036 
L 170.316273 278.613738 
L 173.330535 278.613738 
L 173.422372 277.580494 
L 173.542197 277.580494 
L 173.542197 277.063872 
L 174.413444 277.063872 
L 174.413444 276.54725 
L 176.273817 276.54725 
L 176.273817 274.997384 
L 177.454127 274.997384 
L 177.454127 274.480762 
L 177.57252 274.480762 
L 177.57252 273.96414 
L 177.735164 273.96414 
L 177.735164 272.930896 
L 178.380005 272.930896 
L 178.380005 272.414274 
L 180.623323 272.414274 
L 180.623323 271.897652 
L 180.802253 271.897652 
L 180.802253 270.864408 
L 181.871903 270.864408 
L 181.871903 270.347786 
L 182.897973 270.347786 
L 182.897973 269.314542 
L 183.254847 269.314542 
L 183.254847 268.79792 
L 184.743134 268.79792 
L 184.743134 268.281298 
L 184.906453 268.281298 
L 184.906453 267.764676 
L 185.864766 267.764676 
L 185.950164 266.731432 
L 187.342764 266.731432 
L 187.342764 265.698188 
L 188.326532 265.698188 
L 188.326532 265.181566 
L 188.494797 265.181566 
L 188.556262 264.148322 
L 189.026184 264.148322 
L 189.126313 261.565212 
L 190.760901 261.565212 
L 190.760901 261.04859 
L 192.079956 261.04859 
L 192.079956 260.015346 
L 192.466675 260.015346 
L 192.466675 259.498724 
L 193.130576 259.498724 
L 193.130576 257.948858 
L 197.918806 257.948858 
L 197.918806 257.432236 
L 198.101003 257.432236 
L 198.101003 256.398992 
L 200.080443 256.398992 
L 200.080443 255.88237 
L 200.765139 255.88237 
L 200.765139 255.365748 
L 201.37672 255.365748 
L 201.37672 254.849126 
L 204.312397 254.849126 
L 204.312397 254.332504 
L 204.578683 254.332504 
L 204.578683 253.815882 
L 204.992352 253.815882 
L 204.992352 253.29926 
L 206.178825 253.29926 
L 206.178825 252.266016 
L 211.643464 252.266016 
L 211.643464 251.749394 
L 211.870575 251.749394 
L 211.870575 251.232772 
L 212.32021 251.232772 
L 212.32021 250.71615 
L 212.506839 250.71615 
L 212.506839 250.199528 
L 212.639326 250.199528 
L 212.639326 249.682906 
L 213.007897 249.682906 
L 213.007897 249.166284 
L 213.220878 249.166284 
L 213.220878 248.649662 
L 218.242153 248.649662 
L 218.242153 248.13304 
L 219.205117 248.13304 
L 219.240408 246.583173 
L 219.447222 246.583173 
L 219.447222 246.066551 
L 219.781691 246.066551 
L 219.781691 245.549929 
L 220.025018 245.549929 
L 220.025018 244.516685 
L 220.198785 244.516685 
L 220.198785 243.483441 
L 220.724374 243.483441 
L 220.732484 242.450197 
L 220.878238 242.450197 
L 220.878238 241.416953 
L 221.047128 241.416953 
L 221.074989 240.383709 
L 221.242431 240.383709 
L 221.275103 238.833843 
L 221.413003 238.833843 
L 221.413003 237.283977 
L 222.197869 237.283977 
L 222.197869 236.767355 
L 222.316244 236.767355 
L 222.372179 234.700867 
L 222.869313 234.700867 
L 222.869313 234.184245 
L 223.006553 234.184245 
L 223.053965 232.634379 
L 223.154786 232.634379 
L 223.265248 231.084513 
L 223.394951 231.084513 
L 223.394951 230.567891 
L 223.922192 230.567891 
L 223.993605 229.018025 
L 224.0543 229.018025 
L 224.084907 227.468159 
L 224.350089 227.468159 
L 224.385152 226.434915 
L 224.607478 226.434915 
L 224.607478 225.401671 
L 225.148792 225.401671 
L 225.148792 224.368427 
L 226.769206 224.368427 
L 226.769206 223.851805 
L 228.183885 223.851805 
L 228.183885 223.335183 
L 229.024847 223.335183 
L 229.024847 222.818561 
L 229.30103 222.818561 
L 229.30103 221.785317 
L 229.49895 221.785317 
L 229.49895 221.268695 
L 229.782864 221.268695 
L 229.782864 220.752073 
L 231.808916 220.752073 
L 231.816112 219.202207 
L 231.999178 219.202207 
L 231.999178 218.685585 
L 232.135472 218.685585 
L 232.135472 218.168963 
L 232.328239 218.168963 
L 232.328239 217.652341 
L 232.512031 217.652341 
L 232.512031 216.619097 
L 232.732103 216.619097 
L 232.805687 215.585853 
L 233.607955 215.585853 
L 233.607955 215.069231 
L 233.80487 215.069231 
L 233.80487 214.552609 
L 234.055888 214.552609 
L 234.087979 213.519365 
L 234.241103 213.519365 
L 234.241103 211.969498 
L 234.611839 211.969498 
L 234.64518 210.936254 
L 236.098839 210.936254 
L 236.207104 209.90301 
L 236.241175 209.90301 
L 236.275181 208.353144 
L 236.418483 208.353144 
L 236.418483 207.836522 
L 236.627391 207.836522 
L 236.627391 207.3199 
L 236.912081 207.3199 
L 236.912081 206.803278 
L 237.073467 206.803278 
L 237.073467 206.286656 
L 237.309079 206.286656 
L 237.309079 205.770034 
L 237.620571 205.770034 
L 237.646548 204.220168 
L 237.766806 204.220168 
L 237.766806 203.703546 
L 237.926572 203.703546 
L 237.926572 203.186924 
L 238.583549 203.186924 
L 238.583549 202.670302 
L 239.110866 202.670302 
L 239.110866 202.15368 
L 239.245442 202.15368 
L 239.272897 200.603814 
L 239.511167 200.603814 
L 239.511167 200.087192 
L 240.050035 200.087192 
L 240.136189 195.954216 
L 240.701673 195.954216 
L 240.701673 195.437594 
L 241.702695 195.437594 
L 241.702695 194.920972 
L 242.74286 194.920972 
L 242.74286 194.40435 
L 243.948297 194.40435 
L 243.978345 192.854484 
L 244.700121 192.854484 
L 244.700121 192.337862 
L 244.994506 192.337862 
L 245.071297 190.787996 
L 245.642573 190.787996 
L 245.652627 189.23813 
L 245.786001 189.23813 
L 245.861954 188.204886 
L 246.301425 188.204886 
L 246.301425 187.688264 
L 246.546594 187.688264 
L 246.582885 186.65502 
L 247.444385 186.65502 
L 247.523216 185.621776 
L 249.289691 185.621776 
L 249.289691 184.588532 
L 249.409412 184.588532 
L 249.491729 183.038666 
L 250.09985 183.038666 
L 250.103689 182.005422 
L 250.443504 182.005422 
L 250.443504 181.4888 
L 250.919602 181.4888 
L 250.919602 179.938934 
L 251.183277 179.938934 
L 251.1849 178.389067 
L 251.405719 178.389067 
L 251.489867 177.355823 
L 251.879385 177.355823 
L 251.879385 176.839201 
L 252.03075 176.839201 
L 252.043828 175.289335 
L 253.107448 175.289335 
L 253.107448 174.772713 
L 253.258454 174.772713 
L 253.258454 174.256091 
L 254.640394 174.256091 
L 254.640394 173.739469 
L 255.108745 173.739469 
L 255.108745 173.222847 
L 255.270584 173.222847 
L 255.340675 171.672981 
L 255.579324 171.672981 
L 255.579324 171.156359 
L 256.3416 171.156359 
L 256.3416 170.123115 
L 256.476579 170.123115 
L 256.527618 169.089871 
L 256.803764 169.089871 
L 256.803764 168.573249 
L 257.18072 168.573249 
L 257.18072 168.056627 
L 257.993181 168.056627 
L 257.993181 167.540005 
L 258.570363 167.540005 
L 258.570363 167.023383 
L 259.28739 167.023383 
L 259.28739 166.506761 
L 259.826573 166.506761 
L 259.826573 165.990139 
L 259.940735 165.990139 
L 259.940735 165.473517 
L 260.212826 165.473517 
L 260.212826 164.440273 
L 261.040425 164.440273 
L 261.040425 163.407029 
L 262.088562 163.407029 
L 262.088562 161.857163 
L 262.267212 161.857163 
L 262.277918 159.790675 
L 262.385997 159.790675 
L 262.385997 158.757431 
L 262.590987 158.757431 
L 262.590987 157.724187 
L 262.826739 157.724187 
L 262.894109 156.174321 
L 263.415565 156.174321 
L 263.415565 155.657699 
L 265.05623 155.657699 
L 265.05623 155.141077 
L 265.505292 155.141077 
L 265.505292 154.624455 
L 267.475083 154.624455 
L 267.475083 154.107833 
L 267.848418 154.107833 
L 267.940899 152.557967 
L 269.145491 152.557967 
L 269.230841 148.424991 
L 271.134781 148.424991 
L 271.134781 147.908369 
L 271.411171 147.908369 
L 271.411171 147.391747 
L 271.912191 147.391747 
L 271.972886 145.841881 
L 272.039046 145.841881 
L 272.12736 144.808637 
L 272.25243 144.808637 
L 272.25243 143.775392 
L 272.888607 143.775392 
L 272.888607 143.25877 
L 273.004433 143.25877 
L 273.029989 142.225526 
L 274.479644 142.225526 
L 274.479644 141.708904 
L 274.688778 141.708904 
L 274.688778 141.192282 
L 278.352422 141.192282 
L 278.352422 140.67566 
L 281.469613 140.67566 
L 281.469613 140.159038 
L 281.74266 140.159038 
L 281.74266 139.642416 
L 282.426158 139.642416 
L 282.426158 139.125794 
L 283.258379 139.125794 
L 283.258379 138.609172 
L 284.743644 138.609172 
L 284.743644 138.09255 
L 285.097134 138.09255 
L 285.097134 137.575928 
L 285.534465 137.575928 
L 285.534465 137.059306 
L 286.110492 137.059306 
L 286.110492 136.542684 
L 293.506307 136.542684 
L 293.506307 136.026062 
L 295.509234 136.026062 
L 295.509234 135.50944 
L 297.424791 135.50944 
L 297.424791 134.992818 
L 298.679597 134.992818 
L 298.679597 134.476196 
L 299.900322 134.476196 
L 299.900322 133.959574 
L 300.818246 133.959574 
L 300.818246 133.442952 
L 305.353106 133.442952 
L 305.353106 132.92633 
L 358.8 132.92633 
L 358.8 132.92633 
" style="fill:none;stroke:#6495ed;stroke-linecap:square;stroke-width:1.5;"/>
   </g>
   <g id="line2d_40">
    <defs>
     <path d="M -0 6 
L 6 -6 
L -6 -6 
z
" id="m3736f353d8" style="stroke:#6495ed;stroke-linejoin:miter;stroke-width:1.5;"/>
    </defs>
    <g>
     <use style="fill:none;stroke:#6495ed;stroke-linejoin:miter;stroke-width:1.5;" x="223.922192" xlink:href="#m3736f353d8" y="230.567891"/>
     <use style="fill:none;stroke:#6495ed;stroke-linejoin:miter;stroke-width:1.5;" x="251.1849" xlink:href="#m3736f353d8" y="178.90569"/>
     <use style="fill:none;stroke:#6495ed;stroke-linejoin:miter;stroke-width:1.5;" x="305.353106" xlink:href="#m3736f353d8" y="132.92633"/>
     <use style="fill:none;stroke:#6495ed;stroke-linejoin:miter;stroke-width:1.5;" x="305.353106" xlink:href="#m3736f353d8" y="132.92633"/>
     <use style="fill:none;stroke:#6495ed;stroke-linejoin:miter;stroke-width:1.5;" x="358.8" xlink:href="#m3736f353d8" y="132.92633"/>
    </g>
   </g>
   <g id="line2d_41"/>
   <g id="line2d_42">
    <path clip-path="url(#p99829e9d87)" d="M 272.898519 143.25877 
" style="fill:none;stroke:#6495ed;stroke-linecap:square;stroke-width:1.5;"/>
    <defs>
     <path d="M -12 12 
L 12 -12 
M -12 -12 
L 12 12 
" id="m2146a2ae16" style="stroke:#6495ed;stroke-width:3;"/>
    </defs>
    <g clip-path="url(#p99829e9d87)">
     <use style="fill:#6495ed;stroke:#6495ed;stroke-width:3;" x="272.898519" xlink:href="#m2146a2ae16" y="143.25877"/>
    </g>
   </g>
   <g id="line2d_43">
    <defs>
     <path d="M 0 1.5 
C 0.397805 1.5 0.77937 1.341951 1.06066 1.06066 
C 1.341951 0.77937 1.5 0.397805 1.5 0 
C 1.5 -0.397805 1.341951 -0.77937 1.06066 -1.06066 
C 0.77937 -1.341951 0.397805 -1.5 0 -1.5 
C -0.397805 -1.5 -0.77937 -1.341951 -1.06066 -1.06066 
C -1.341951 -0.77937 -1.5 -0.397805 -1.5 0 
C -1.5 0.397805 -1.341951 0.77937 -1.06066 1.06066 
C -0.77937 1.341951 -0.397805 1.5 0 1.5 
z
" id="mce9d58aabd" style="stroke:#ff0000;"/>
    </defs>
    <g>
     <use style="fill:#ff0000;stroke:#ff0000;" x="187.629411" xlink:href="#mce9d58aabd" y="34.768147"/>
     <use style="fill:#ff0000;stroke:#ff0000;" x="187.629411" xlink:href="#mce9d58aabd" y="34.768147"/>
    </g>
   </g>
   <g id="line2d_44">
    <path d="M 134.37835 298.245375 
L 134.37835 297.728753 
L 135.70252 297.728753 
L 135.749727 296.178887 
L 136.122965 296.178887 
L 136.122965 295.662265 
L 136.260944 295.662265 
L 136.352341 291.529289 
L 136.578809 291.529289 
L 136.578809 290.496045 
L 143.041708 290.496045 
L 143.041708 289.462801 
L 143.228811 289.462801 
L 143.228811 288.946179 
L 143.657911 288.946179 
L 143.657911 288.429557 
L 143.808698 288.429557 
L 143.808698 286.879691 
L 146.687061 286.879691 
L 146.687061 286.363069 
L 147.921538 286.363069 
L 147.921538 285.846447 
L 148.111373 285.846447 
L 148.111373 284.813203 
L 148.8738 284.813203 
L 148.918979 283.779959 
L 150.760917 283.779959 
L 150.760917 283.263337 
L 151.961099 283.263337 
L 151.961099 281.713471 
L 155.142563 281.713471 
L 155.142563 280.680226 
L 155.30111 280.680226 
L 155.395567 279.13036 
L 156.103613 279.13036 
L 156.178911 277.580494 
L 156.711885 277.580494 
L 156.711885 277.063872 
L 157.828564 277.063872 
L 157.828564 276.54725 
L 159.859895 276.54725 
L 159.859895 276.030628 
L 160.04241 276.030628 
L 160.04241 275.514006 
L 160.34252 275.514006 
L 160.34252 274.997384 
L 161.394229 274.997384 
L 161.394229 274.480762 
L 161.793781 274.480762 
L 161.793781 273.96414 
L 162.619517 273.96414 
L 162.619517 271.897652 
L 163.247617 271.897652 
L 163.257732 270.864408 
L 163.428817 270.864408 
L 163.43883 269.831164 
L 165.49773 269.831164 
L 165.49773 269.314542 
L 165.754575 269.314542 
L 165.754575 268.79792 
L 166.102893 268.79792 
L 166.102893 267.248054 
L 166.804688 267.248054 
L 166.804688 266.731432 
L 167.027167 266.731432 
L 167.027167 265.181566 
L 167.383892 265.181566 
L 167.383892 264.664944 
L 168.283944 264.664944 
L 168.390483 262.598456 
L 169.075226 262.598456 
L 169.075226 262.081834 
L 169.706522 262.081834 
L 169.706522 260.531968 
L 170.158903 260.531968 
L 170.158903 260.015346 
L 171.361412 260.015346 
L 171.361412 258.982102 
L 171.648226 258.982102 
L 171.648226 257.432236 
L 172.073082 257.432236 
L 172.073082 242.450197 
L 172.293982 242.450197 
L 172.354862 240.383709 
L 172.506159 240.383709 
L 172.506159 239.867087 
L 172.775307 239.867087 
L 172.775307 238.317221 
L 172.99361 238.317221 
L 172.99361 237.800599 
L 173.353538 237.800599 
L 173.450975 236.767355 
L 173.547883 236.767355 
L 173.598975 235.217489 
L 173.717626 235.217489 
L 173.768236 233.667623 
L 173.829898 233.667623 
L 173.829898 232.117757 
L 174.397188 232.117757 
L 174.397188 231.601135 
L 174.537585 231.601135 
L 174.553714 230.567891 
L 174.804517 230.567891 
L 174.91545 229.018025 
L 175.383229 229.018025 
L 175.439571 217.135719 
L 175.627792 217.135719 
L 175.703536 205.253412 
L 175.804032 205.253412 
L 175.804032 204.220168 
L 176.037996 204.220168 
L 176.037996 203.703546 
L 176.273817 203.703546 
L 176.273817 203.186924 
L 176.496929 203.186924 
L 176.593072 201.637058 
L 176.769584 201.637058 
L 176.769584 199.57057 
L 177.590665 199.57057 
L 177.667575 182.005422 
L 177.703654 182.005422 
L 177.730666 180.972178 
L 177.940855 180.972178 
L 177.940855 169.606493 
L 178.135412 169.606493 
L 178.214397 154.624455 
L 178.366986 154.624455 
L 178.462237 153.591211 
L 178.578446 153.591211 
L 178.578446 142.225526 
L 179.014947 142.225526 
L 179.056764 136.026062 
L 179.441039 136.026062 
L 179.441039 124.660378 
L 179.757082 124.660378 
L 179.757082 120.01078 
L 179.956772 120.01078 
L 179.988517 118.460914 
L 180.09524 118.460914 
L 180.09524 117.42767 
L 180.485048 117.42767 
L 180.485048 107.095229 
L 181.427571 107.095229 
L 181.485999 90.563325 
L 182.197173 90.563325 
L 182.197173 89.530081 
L 182.857502 89.530081 
L 182.90471 73.514798 
L 183.517088 73.514798 
L 183.585293 51.300052 
L 184.660912 51.300052 
L 184.660912 50.78343 
L 185.193161 50.78343 
L 185.193161 50.266808 
L 185.701376 50.266808 
L 185.701376 49.233564 
L 187.629411 49.233564 
L 187.629411 34.768147 
L 358.8 34.768147 
L 358.8 34.768147 
" style="fill:none;stroke:#ff0000;stroke-linecap:square;stroke-width:1.5;"/>
   </g>
   <g id="line2d_45">
    <defs>
     <path d="M 0 -6 
L -5.196152 -3 
L -5.196152 3 
L -0 6 
L 5.196152 3 
L 5.196152 -3 
z
" id="m72219e4ca0" style="stroke:#ff0000;stroke-linejoin:miter;stroke-width:1.5;"/>
    </defs>
    <g>
     <use style="fill:none;stroke:#ff0000;stroke-linejoin:miter;stroke-width:1.5;" x="175.627792" xlink:href="#m72219e4ca0" y="216.102475"/>
     <use style="fill:none;stroke:#ff0000;stroke-linejoin:miter;stroke-width:1.5;" x="183.517088" xlink:href="#m72219e4ca0" y="63.69898"/>
     <use style="fill:none;stroke:#ff0000;stroke-linejoin:miter;stroke-width:1.5;" x="187.629411" xlink:href="#m72219e4ca0" y="34.768147"/>
     <use style="fill:none;stroke:#ff0000;stroke-linejoin:miter;stroke-width:1.5;" x="187.629411" xlink:href="#m72219e4ca0" y="34.768147"/>
     <use style="fill:none;stroke:#ff0000;stroke-linejoin:miter;stroke-width:1.5;" x="358.8" xlink:href="#m72219e4ca0" y="34.768147"/>
    </g>
   </g>
   <g id="line2d_46"/>
   <g id="line2d_47">
    <path d="M 358.8 153.591211 
L 390.48 292.97583 
" style="fill:none;stroke:#ff00ff;stroke-linecap:square;stroke-width:1.5;"/>
    <g>
     <use style="fill:none;stroke:#ff00ff;stroke-linejoin:miter;stroke-width:1.5;" x="358.8" xlink:href="#m5fb99d339c" y="153.591211"/>
     <use style="fill:none;stroke:#ff00ff;stroke-linejoin:miter;stroke-width:1.5;" x="390.48" xlink:href="#m5fb99d339c" y="292.97583"/>
    </g>
   </g>
   <g id="line2d_48">
    <path d="M 358.8 132.92633 
L 390.48 229.741296 
" style="fill:none;stroke:#6495ed;stroke-linecap:square;stroke-width:1.5;"/>
    <g>
     <use style="fill:none;stroke:#6495ed;stroke-linejoin:miter;stroke-width:1.5;" x="358.8" xlink:href="#m3736f353d8" y="132.92633"/>
     <use style="fill:none;stroke:#6495ed;stroke-linejoin:miter;stroke-width:1.5;" x="390.48" xlink:href="#m3736f353d8" y="229.741296"/>
    </g>
   </g>
   <g id="line2d_49">
    <path d="M 358.8 112.26145 
L 390.48 166.506761 
" style="fill:none;stroke:#ffa500;stroke-linecap:square;stroke-width:1.5;"/>
    <g>
     <use style="fill:none;stroke:#ffa500;stroke-linejoin:bevel;stroke-width:1.5;" x="358.8" xlink:href="#m6b559a818c" y="112.26145"/>
     <use style="fill:none;stroke:#ffa500;stroke-linejoin:bevel;stroke-width:1.5;" x="390.48" xlink:href="#m6b559a818c" y="166.506761"/>
    </g>
   </g>
   <g id="line2d_50">
    <path d="M 358.8 45.100588 
L 390.48 103.272226 
" style="fill:none;stroke:#000080;stroke-linecap:square;stroke-width:1.5;"/>
    <g>
     <use style="fill:none;stroke:#000080;stroke-width:1.5;" x="358.8" xlink:href="#m84a1cb97dd" y="45.100588"/>
     <use style="fill:none;stroke:#000080;stroke-width:1.5;" x="390.48" xlink:href="#m84a1cb97dd" y="103.272226"/>
    </g>
   </g>
   <g id="line2d_51">
    <path d="M 358.8 34.768147 
L 390.48 40.037692 
" style="fill:none;stroke:#ff0000;stroke-linecap:square;stroke-width:1.5;"/>
    <g>
     <use style="fill:none;stroke:#ff0000;stroke-linejoin:miter;stroke-width:1.5;" x="358.8" xlink:href="#m72219e4ca0" y="34.768147"/>
     <use style="fill:none;stroke:#ff0000;stroke-linejoin:miter;stroke-width:1.5;" x="390.48" xlink:href="#m72219e4ca0" y="40.037692"/>
    </g>
   </g>
   <g id="line2d_52">
    <path d="M 358.8 298.245375 
L 358.8 34.768147 
" style="fill:none;stroke:#000000;stroke-linecap:square;stroke-width:1.5;"/>
   </g>
   <g id="patch_3">
    <path d="M 70.8 298.245375 
L 70.8 32.133375 
" style="fill:none;stroke:#000000;stroke-linecap:square;stroke-linejoin:miter;stroke-width:0.8;"/>
   </g>
   <g id="patch_4">
    <path d="M 427.92 298.245375 
L 427.92 32.133375 
" style="fill:none;stroke:#000000;stroke-linecap:square;stroke-linejoin:miter;stroke-width:0.8;"/>
   </g>
   <g id="patch_5">
    <path d="M 70.8 298.245375 
L 427.92 298.245375 
" style="fill:none;stroke:#000000;stroke-linecap:square;stroke-linejoin:miter;stroke-width:0.8;"/>
   </g>
   <g id="patch_6">
    <path d="M 70.8 32.133375 
L 427.92 32.133375 
" style="fill:none;stroke:#000000;stroke-linecap:square;stroke-linejoin:miter;stroke-width:0.8;"/>
   </g>
   <g id="text_14">
    <!-- f2 -->
    <g transform="translate(396.24 297.114893)scale(0.15 -0.15)">
     <use xlink:href="#DejaVuSans-66"/>
     <use x="35.205078" xlink:href="#DejaVuSans-32"/>
    </g>
   </g>
   <g id="text_15">
    <!-- f4 -->
    <g transform="translate(396.24 233.880358)scale(0.15 -0.15)">
     <use xlink:href="#DejaVuSans-66"/>
     <use x="35.205078" xlink:href="#DejaVuSans-34"/>
    </g>
   </g>
   <g id="text_16">
    <!-- f3 -->
    <defs>
     <path d="M 40.578125 39.3125 
Q 47.65625 37.796875 51.625 33 
Q 55.609375 28.21875 55.609375 21.1875 
Q 55.609375 10.40625 48.1875 4.484375 
Q 40.765625 -1.421875 27.09375 -1.421875 
Q 22.515625 -1.421875 17.65625 -0.515625 
Q 12.796875 0.390625 7.625 2.203125 
L 7.625 11.71875 
Q 11.71875 9.328125 16.59375 8.109375 
Q 21.484375 6.890625 26.8125 6.890625 
Q 36.078125 6.890625 40.9375 10.546875 
Q 45.796875 14.203125 45.796875 21.1875 
Q 45.796875 27.640625 41.28125 31.265625 
Q 36.765625 34.90625 28.71875 34.90625 
L 20.21875 34.90625 
L 20.21875 43.015625 
L 29.109375 43.015625 
Q 36.375 43.015625 40.234375 45.921875 
Q 44.09375 48.828125 44.09375 54.296875 
Q 44.09375 59.90625 40.109375 62.90625 
Q 36.140625 65.921875 28.71875 65.921875 
Q 24.65625 65.921875 20.015625 65.03125 
Q 15.375 64.15625 9.8125 62.3125 
L 9.8125 71.09375 
Q 15.4375 72.65625 20.34375 73.4375 
Q 25.25 74.21875 29.59375 74.21875 
Q 40.828125 74.21875 47.359375 69.109375 
Q 53.90625 64.015625 53.90625 55.328125 
Q 53.90625 49.265625 50.4375 45.09375 
Q 46.96875 40.921875 40.578125 39.3125 
z
" id="DejaVuSans-33"/>
    </defs>
    <g transform="translate(396.24 170.645824)scale(0.15 -0.15)">
     <use xlink:href="#DejaVuSans-66"/>
     <use x="35.205078" xlink:href="#DejaVuSans-33"/>
    </g>
   </g>
   <g id="text_17">
    <!-- f1 -->
    <g transform="translate(396.24 107.411289)scale(0.15 -0.15)">
     <use xlink:href="#DejaVuSans-66"/>
     <use x="35.205078" xlink:href="#DejaVuSans-31"/>
    </g>
   </g>
   <g id="text_18">
    <!-- f5 -->
    <defs>
     <path d="M 10.796875 72.90625 
L 49.515625 72.90625 
L 49.515625 64.59375 
L 19.828125 64.59375 
L 19.828125 46.734375 
Q 21.96875 47.46875 24.109375 47.828125 
Q 26.265625 48.1875 28.421875 48.1875 
Q 40.625 48.1875 47.75 41.5 
Q 54.890625 34.8125 54.890625 23.390625 
Q 54.890625 11.625 47.5625 5.09375 
Q 40.234375 -1.421875 26.90625 -1.421875 
Q 22.3125 -1.421875 17.546875 -0.640625 
Q 12.796875 0.140625 7.71875 1.703125 
L 7.71875 11.625 
Q 12.109375 9.234375 16.796875 8.0625 
Q 21.484375 6.890625 26.703125 6.890625 
Q 35.15625 6.890625 40.078125 11.328125 
Q 45.015625 15.765625 45.015625 23.390625 
Q 45.015625 31 40.078125 35.4375 
Q 35.15625 39.890625 26.703125 39.890625 
Q 22.75 39.890625 18.8125 39.015625 
Q 14.890625 38.140625 10.796875 36.28125 
z
" id="DejaVuSans-35"/>
    </defs>
    <g transform="translate(396.24 44.176754)scale(0.15 -0.15)">
     <use xlink:href="#DejaVuSans-66"/>
     <use x="35.205078" xlink:href="#DejaVuSans-35"/>
    </g>
   </g>
   <g id="text_19">
    <!-- bbob -->
    <defs>
     <path d="M 48.6875 27.296875 
Q 48.6875 37.203125 44.609375 42.84375 
Q 40.53125 48.484375 33.40625 48.484375 
Q 26.265625 48.484375 22.1875 42.84375 
Q 18.109375 37.203125 18.109375 27.296875 
Q 18.109375 17.390625 22.1875 11.75 
Q 26.265625 6.109375 33.40625 6.109375 
Q 40.53125 6.109375 44.609375 11.75 
Q 48.6875 17.390625 48.6875 27.296875 
z
M 18.109375 46.390625 
Q 20.953125 51.265625 25.265625 53.625 
Q 29.59375 56 35.59375 56 
Q 45.5625 56 51.78125 48.09375 
Q 58.015625 40.1875 58.015625 27.296875 
Q 58.015625 14.40625 51.78125 6.484375 
Q 45.5625 -1.421875 35.59375 -1.421875 
Q 29.59375 -1.421875 25.265625 0.953125 
Q 20.953125 3.328125 18.109375 8.203125 
L 18.109375 0 
L 9.078125 0 
L 9.078125 75.984375 
L 18.109375 75.984375 
z
" id="DejaVuSans-62"/>
    </defs>
    <g transform="translate(74.3712 50.114612)scale(0.1666 -0.1666)">
     <use xlink:href="#DejaVuSans-62"/>
     <use x="63.476562" xlink:href="#DejaVuSans-62"/>
     <use x="126.953125" xlink:href="#DejaVuSans-6f"/>
     <use x="188.134766" xlink:href="#DejaVuSans-62"/>
    </g>
    <!-- Separable functions, 10-D -->
    <defs>
     <path d="M 53.515625 70.515625 
L 53.515625 60.890625 
Q 47.90625 63.578125 42.921875 64.890625 
Q 37.9375 66.21875 33.296875 66.21875 
Q 25.25 66.21875 20.875 63.09375 
Q 16.5 59.96875 16.5 54.203125 
Q 16.5 49.359375 19.40625 46.890625 
Q 22.3125 44.4375 30.421875 42.921875 
L 36.375 41.703125 
Q 47.40625 39.59375 52.65625 34.296875 
Q 57.90625 29 57.90625 20.125 
Q 57.90625 9.515625 50.796875 4.046875 
Q 43.703125 -1.421875 29.984375 -1.421875 
Q 24.8125 -1.421875 18.96875 -0.25 
Q 13.140625 0.921875 6.890625 3.21875 
L 6.890625 13.375 
Q 12.890625 10.015625 18.65625 8.296875 
Q 24.421875 6.59375 29.984375 6.59375 
Q 38.421875 6.59375 43.015625 9.90625 
Q 47.609375 13.234375 47.609375 19.390625 
Q 47.609375 24.75 44.3125 27.78125 
Q 41.015625 30.8125 33.5 32.328125 
L 27.484375 33.5 
Q 16.453125 35.6875 11.515625 40.375 
Q 6.59375 45.0625 6.59375 53.421875 
Q 6.59375 63.09375 13.40625 68.65625 
Q 20.21875 74.21875 32.171875 74.21875 
Q 37.3125 74.21875 42.625 73.28125 
Q 47.953125 72.359375 53.515625 70.515625 
z
" id="DejaVuSans-53"/>
     <path d="M 11.71875 12.40625 
L 22.015625 12.40625 
L 22.015625 4 
L 14.015625 -11.625 
L 7.71875 -11.625 
L 11.71875 4 
z
" id="DejaVuSans-2c"/>
     <path d="M 19.671875 64.796875 
L 19.671875 8.109375 
L 31.59375 8.109375 
Q 46.6875 8.109375 53.6875 14.9375 
Q 60.6875 21.78125 60.6875 36.53125 
Q 60.6875 51.171875 53.6875 57.984375 
Q 46.6875 64.796875 31.59375 64.796875 
z
M 9.8125 72.90625 
L 30.078125 72.90625 
Q 51.265625 72.90625 61.171875 64.09375 
Q 71.09375 55.28125 71.09375 36.53125 
Q 71.09375 17.671875 61.125 8.828125 
Q 51.171875 0 30.078125 0 
L 9.8125 0 
z
" id="DejaVuSans-44"/>
    </defs>
    <g transform="translate(74.3712 68.770168)scale(0.1666 -0.1666)">
     <use xlink:href="#DejaVuSans-53"/>
     <use x="63.476562" xlink:href="#DejaVuSans-65"/>
     <use x="125" xlink:href="#DejaVuSans-70"/>
     <use x="188.476562" xlink:href="#DejaVuSans-61"/>
     <use x="249.755859" xlink:href="#DejaVuSans-72"/>
     <use x="290.869141" xlink:href="#DejaVuSans-61"/>
     <use x="352.148438" xlink:href="#DejaVuSans-62"/>
     <use x="415.625" xlink:href="#DejaVuSans-6c"/>
     <use x="443.408203" xlink:href="#DejaVuSans-65"/>
     <use x="504.931641" xlink:href="#DejaVuSans-20"/>
     <use x="536.71875" xlink:href="#DejaVuSans-66"/>
     <use x="571.923828" xlink:href="#DejaVuSans-75"/>
     <use x="635.302734" xlink:href="#DejaVuSans-6e"/>
     <use x="698.681641" xlink:href="#DejaVuSans-63"/>
     <use x="753.662109" xlink:href="#DejaVuSans-74"/>
     <use x="792.871094" xlink:href="#DejaVuSans-69"/>
     <use x="820.654297" xlink:href="#DejaVuSans-6f"/>
     <use x="881.835938" xlink:href="#DejaVuSans-6e"/>
     <use x="945.214844" xlink:href="#DejaVuSans-73"/>
     <use x="997.314453" xlink:href="#DejaVuSans-2c"/>
     <use x="1029.101562" xlink:href="#DejaVuSans-20"/>
     <use x="1060.888672" xlink:href="#DejaVuSans-31"/>
     <use x="1124.511719" xlink:href="#DejaVuSans-30"/>
     <use x="1188.134766" xlink:href="#DejaVuSans-2d"/>
     <use x="1224.21875" xlink:href="#DejaVuSans-44"/>
    </g>
    <!-- 51 targets in 100..1e-08 -->
    <g transform="translate(74.3712 87.425723)scale(0.1666 -0.1666)">
     <use xlink:href="#DejaVuSans-35"/>
     <use x="63.623047" xlink:href="#DejaVuSans-31"/>
     <use x="127.246094" xlink:href="#DejaVuSans-20"/>
     <use x="159.033203" xlink:href="#DejaVuSans-74"/>
     <use x="198.242188" xlink:href="#DejaVuSans-61"/>
     <use x="259.521484" xlink:href="#DejaVuSans-72"/>
     <use x="300.619141" xlink:href="#DejaVuSans-67"/>
     <use x="364.095703" xlink:href="#DejaVuSans-65"/>
     <use x="425.619141" xlink:href="#DejaVuSans-74"/>
     <use x="464.828125" xlink:href="#DejaVuSans-73"/>
     <use x="516.927734" xlink:href="#DejaVuSans-20"/>
     <use x="548.714844" xlink:href="#DejaVuSans-69"/>
     <use x="576.498047" xlink:href="#DejaVuSans-6e"/>
     <use x="639.876953" xlink:href="#DejaVuSans-20"/>
     <use x="671.664062" xlink:href="#DejaVuSans-31"/>
     <use x="735.287109" xlink:href="#DejaVuSans-30"/>
     <use x="798.910156" xlink:href="#DejaVuSans-30"/>
     <use x="862.533203" xlink:href="#DejaVuSans-2e"/>
     <use x="894.320312" xlink:href="#DejaVuSans-2e"/>
     <use x="926.107422" xlink:href="#DejaVuSans-31"/>
     <use x="989.730469" xlink:href="#DejaVuSans-65"/>
     <use x="1051.253906" xlink:href="#DejaVuSans-2d"/>
     <use x="1087.337891" xlink:href="#DejaVuSans-30"/>
     <use x="1150.960938" xlink:href="#DejaVuSans-38"/>
    </g>
    <!-- 15 instances -->
    <g transform="translate(74.3712 106.081279)scale(0.1666 -0.1666)">
     <use xlink:href="#DejaVuSans-31"/>
     <use x="63.623047" xlink:href="#DejaVuSans-35"/>
     <use x="127.246094" xlink:href="#DejaVuSans-20"/>
     <use x="159.033203" xlink:href="#DejaVuSans-69"/>
     <use x="186.816406" xlink:href="#DejaVuSans-6e"/>
     <use x="250.195312" xlink:href="#DejaVuSans-73"/>
     <use x="302.294922" xlink:href="#DejaVuSans-74"/>
     <use x="341.503906" xlink:href="#DejaVuSans-61"/>
     <use x="402.783203" xlink:href="#DejaVuSans-6e"/>
     <use x="466.162109" xlink:href="#DejaVuSans-63"/>
     <use x="521.142578" xlink:href="#DejaVuSans-65"/>
     <use x="582.666016" xlink:href="#DejaVuSans-73"/>
    </g>
   </g>
   <g id="text_20">
    <!-- v0.0.0 -->
    <g style="fill:#808080;" transform="translate(233.67875 293.504568)scale(0.1 -0.1)">
     <use xlink:href="#DejaVuSans-76"/>
     <use x="59.179688" xlink:href="#DejaVuSans-30"/>
     <use x="122.802734" xlink:href="#DejaVuSans-2e"/>
     <use x="154.589844" xlink:href="#DejaVuSans-30"/>
     <use x="218.212891" xlink:href="#DejaVuSans-2e"/>
     <use x="250" xlink:href="#DejaVuSans-30"/>
    </g>
   </g>
  </g>
 </g>
 <defs>
  <clipPath id="p99829e9d87">
   <rect height="266.112" width="357.12" x="70.8" y="32.133375"/>
  </clipPath>
 </defs>
</svg>
