<?xml version="1.0" encoding="utf-8" standalone="no"?>
<!DOCTYPE svg PUBLIC "-//W3C//DTD SVG 1.1//EN"
  "http://www.w3.org/Graphics/SVG/1.1/DTD/svg11.dtd">
<!-- Created with matplotlib (http://matplotlib.org/) -->
<svg height="353pt" version="1.1" viewBox="0 0 438 353" width="438pt" xmlns="http://www.w3.org/2000/svg" xmlns:xlink="http://www.w3.org/1999/xlink">
 <defs>
  <style type="text/css">
*{stroke-linecap:butt;stroke-linejoin:round;}
  </style>
 </defs>
 <g id="figure_1">
  <g id="patch_1">
   <path d="M 0 353.22225 
L 438.62 353.22225 
L 438.62 0 
L 0 0 
z
" style="fill:#ffffff;"/>
  </g>
  <g id="axes_1">
   <g id="patch_2">
    <path d="M 70.8 298.245375 
L 427.92 298.245375 
L 427.92 32.133375 
L 70.8 32.133375 
z
" style="fill:#ffffff;"/>
   </g>
   <g id="matplotlib.axis_1">
    <g id="xtick_1">
     <g id="line2d_1">
      <path clip-path="url(#pf104ad6f66)" d="M 70.8 298.245375 
L 70.8 32.133375 
" style="fill:none;stroke:#b0b0b0;stroke-linecap:square;stroke-width:0.8;"/>
     </g>
     <g id="line2d_2">
      <defs>
       <path d="M 0 0 
L 0 3.5 
" id="ma5c3053ecd" style="stroke:#000000;stroke-width:0.8;"/>
      </defs>
      <g>
       <use style="stroke:#000000;stroke-width:0.8;" x="70.8" xlink:href="#ma5c3053ecd" y="298.245375"/>
      </g>
     </g>
     <g id="text_1">
      <!-- 0 -->
      <defs>
       <path d="M 31.78125 66.40625 
Q 24.171875 66.40625 20.328125 58.90625 
Q 16.5 51.421875 16.5 36.375 
Q 16.5 21.390625 20.328125 13.890625 
Q 24.171875 6.390625 31.78125 6.390625 
Q 39.453125 6.390625 43.28125 13.890625 
Q 47.125 21.390625 47.125 36.375 
Q 47.125 51.421875 43.28125 58.90625 
Q 39.453125 66.40625 31.78125 66.40625 
z
M 31.78125 74.21875 
Q 44.046875 74.21875 50.515625 64.515625 
Q 56.984375 54.828125 56.984375 36.375 
Q 56.984375 17.96875 50.515625 8.265625 
Q 44.046875 -1.421875 31.78125 -1.421875 
Q 19.53125 -1.421875 13.0625 8.265625 
Q 6.59375 17.96875 6.59375 36.375 
Q 6.59375 54.828125 13.0625 64.515625 
Q 19.53125 74.21875 31.78125 74.21875 
z
" id="DejaVuSans-30"/>
      </defs>
      <g transform="translate(64.4375 320.44225)scale(0.2 -0.2)">
       <use xlink:href="#DejaVuSans-30"/>
      </g>
     </g>
    </g>
    <g id="xtick_2">
     <g id="line2d_3">
      <path clip-path="url(#pf104ad6f66)" d="M 153.085714 298.245375 
L 153.085714 32.133375 
" style="fill:none;stroke:#b0b0b0;stroke-linecap:square;stroke-width:0.8;"/>
     </g>
     <g id="line2d_4">
      <g>
       <use style="stroke:#000000;stroke-width:0.8;" x="153.085714" xlink:href="#ma5c3053ecd" y="298.245375"/>
      </g>
     </g>
     <g id="text_2">
      <!-- 2 -->
      <defs>
       <path d="M 19.1875 8.296875 
L 53.609375 8.296875 
L 53.609375 0 
L 7.328125 0 
L 7.328125 8.296875 
Q 12.9375 14.109375 22.625 23.890625 
Q 32.328125 33.6875 34.8125 36.53125 
Q 39.546875 41.84375 41.421875 45.53125 
Q 43.3125 49.21875 43.3125 52.78125 
Q 43.3125 58.59375 39.234375 62.25 
Q 35.15625 65.921875 28.609375 65.921875 
Q 23.96875 65.921875 18.8125 64.3125 
Q 13.671875 62.703125 7.8125 59.421875 
L 7.8125 69.390625 
Q 13.765625 71.78125 18.9375 73 
Q 24.125 74.21875 28.421875 74.21875 
Q 39.75 74.21875 46.484375 68.546875 
Q 53.21875 62.890625 53.21875 53.421875 
Q 53.21875 48.921875 51.53125 44.890625 
Q 49.859375 40.875 45.40625 35.40625 
Q 44.1875 33.984375 37.640625 27.21875 
Q 31.109375 20.453125 19.1875 8.296875 
z
" id="DejaVuSans-32"/>
      </defs>
      <g transform="translate(146.723214 320.44225)scale(0.2 -0.2)">
       <use xlink:href="#DejaVuSans-32"/>
      </g>
     </g>
    </g>
    <g id="xtick_3">
     <g id="line2d_5">
      <path clip-path="url(#pf104ad6f66)" d="M 235.371429 298.245375 
L 235.371429 32.133375 
" style="fill:none;stroke:#b0b0b0;stroke-linecap:square;stroke-width:0.8;"/>
     </g>
     <g id="line2d_6">
      <g>
       <use style="stroke:#000000;stroke-width:0.8;" x="235.371429" xlink:href="#ma5c3053ecd" y="298.245375"/>
      </g>
     </g>
     <g id="text_3">
      <!-- 4 -->
      <defs>
       <path d="M 37.796875 64.3125 
L 12.890625 25.390625 
L 37.796875 25.390625 
z
M 35.203125 72.90625 
L 47.609375 72.90625 
L 47.609375 25.390625 
L 58.015625 25.390625 
L 58.015625 17.1875 
L 47.609375 17.1875 
L 47.609375 0 
L 37.796875 0 
L 37.796875 17.1875 
L 4.890625 17.1875 
L 4.890625 26.703125 
z
" id="DejaVuSans-34"/>
      </defs>
      <g transform="translate(229.008929 320.44225)scale(0.2 -0.2)">
       <use xlink:href="#DejaVuSans-34"/>
      </g>
     </g>
    </g>
    <g id="xtick_4">
     <g id="line2d_7">
      <path clip-path="url(#pf104ad6f66)" d="M 317.657143 298.245375 
L 317.657143 32.133375 
" style="fill:none;stroke:#b0b0b0;stroke-linecap:square;stroke-width:0.8;"/>
     </g>
     <g id="line2d_8">
      <g>
       <use style="stroke:#000000;stroke-width:0.8;" x="317.657143" xlink:href="#ma5c3053ecd" y="298.245375"/>
      </g>
     </g>
     <g id="text_4">
      <!-- 6 -->
      <defs>
       <path d="M 33.015625 40.375 
Q 26.375 40.375 22.484375 35.828125 
Q 18.609375 31.296875 18.609375 23.390625 
Q 18.609375 15.53125 22.484375 10.953125 
Q 26.375 6.390625 33.015625 6.390625 
Q 39.65625 6.390625 43.53125 10.953125 
Q 47.40625 15.53125 47.40625 23.390625 
Q 47.40625 31.296875 43.53125 35.828125 
Q 39.65625 40.375 33.015625 40.375 
z
M 52.59375 71.296875 
L 52.59375 62.3125 
Q 48.875 64.0625 45.09375 64.984375 
Q 41.3125 65.921875 37.59375 65.921875 
Q 27.828125 65.921875 22.671875 59.328125 
Q 17.53125 52.734375 16.796875 39.40625 
Q 19.671875 43.65625 24.015625 45.921875 
Q 28.375 48.1875 33.59375 48.1875 
Q 44.578125 48.1875 50.953125 41.515625 
Q 57.328125 34.859375 57.328125 23.390625 
Q 57.328125 12.15625 50.6875 5.359375 
Q 44.046875 -1.421875 33.015625 -1.421875 
Q 20.359375 -1.421875 13.671875 8.265625 
Q 6.984375 17.96875 6.984375 36.375 
Q 6.984375 53.65625 15.1875 63.9375 
Q 23.390625 74.21875 37.203125 74.21875 
Q 40.921875 74.21875 44.703125 73.484375 
Q 48.484375 72.75 52.59375 71.296875 
z
" id="DejaVuSans-36"/>
      </defs>
      <g transform="translate(311.294643 320.44225)scale(0.2 -0.2)">
       <use xlink:href="#DejaVuSans-36"/>
      </g>
     </g>
    </g>
    <g id="xtick_5">
     <g id="line2d_9">
      <path clip-path="url(#pf104ad6f66)" d="M 399.942857 298.245375 
L 399.942857 32.133375 
" style="fill:none;stroke:#b0b0b0;stroke-linecap:square;stroke-width:0.8;"/>
     </g>
     <g id="line2d_10">
      <g>
       <use style="stroke:#000000;stroke-width:0.8;" x="399.942857" xlink:href="#ma5c3053ecd" y="298.245375"/>
      </g>
     </g>
     <g id="text_5">
      <!-- 8 -->
      <defs>
       <path d="M 31.78125 34.625 
Q 24.75 34.625 20.71875 30.859375 
Q 16.703125 27.09375 16.703125 20.515625 
Q 16.703125 13.921875 20.71875 10.15625 
Q 24.75 6.390625 31.78125 6.390625 
Q 38.8125 6.390625 42.859375 10.171875 
Q 46.921875 13.96875 46.921875 20.515625 
Q 46.921875 27.09375 42.890625 30.859375 
Q 38.875 34.625 31.78125 34.625 
z
M 21.921875 38.8125 
Q 15.578125 40.375 12.03125 44.71875 
Q 8.5 49.078125 8.5 55.328125 
Q 8.5 64.0625 14.71875 69.140625 
Q 20.953125 74.21875 31.78125 74.21875 
Q 42.671875 74.21875 48.875 69.140625 
Q 55.078125 64.0625 55.078125 55.328125 
Q 55.078125 49.078125 51.53125 44.71875 
Q 48 40.375 41.703125 38.8125 
Q 48.828125 37.15625 52.796875 32.3125 
Q 56.78125 27.484375 56.78125 20.515625 
Q 56.78125 9.90625 50.3125 4.234375 
Q 43.84375 -1.421875 31.78125 -1.421875 
Q 19.734375 -1.421875 13.25 4.234375 
Q 6.78125 9.90625 6.78125 20.515625 
Q 6.78125 27.484375 10.78125 32.3125 
Q 14.796875 37.15625 21.921875 38.8125 
z
M 18.3125 54.390625 
Q 18.3125 48.734375 21.84375 45.5625 
Q 25.390625 42.390625 31.78125 42.390625 
Q 38.140625 42.390625 41.71875 45.5625 
Q 45.3125 48.734375 45.3125 54.390625 
Q 45.3125 60.0625 41.71875 63.234375 
Q 38.140625 66.40625 31.78125 66.40625 
Q 25.390625 66.40625 21.84375 63.234375 
Q 18.3125 60.0625 18.3125 54.390625 
z
" id="DejaVuSans-38"/>
      </defs>
      <g transform="translate(393.580357 320.44225)scale(0.2 -0.2)">
       <use xlink:href="#DejaVuSans-38"/>
      </g>
     </g>
    </g>
    <g id="text_6">
     <!-- log10 of (# f-evals / dimension) -->
     <defs>
      <path d="M 9.421875 75.984375 
L 18.40625 75.984375 
L 18.40625 0 
L 9.421875 0 
z
" id="DejaVuSans-6c"/>
      <path d="M 30.609375 48.390625 
Q 23.390625 48.390625 19.1875 42.75 
Q 14.984375 37.109375 14.984375 27.296875 
Q 14.984375 17.484375 19.15625 11.84375 
Q 23.34375 6.203125 30.609375 6.203125 
Q 37.796875 6.203125 41.984375 11.859375 
Q 46.1875 17.53125 46.1875 27.296875 
Q 46.1875 37.015625 41.984375 42.703125 
Q 37.796875 48.390625 30.609375 48.390625 
z
M 30.609375 56 
Q 42.328125 56 49.015625 48.375 
Q 55.71875 40.765625 55.71875 27.296875 
Q 55.71875 13.875 49.015625 6.21875 
Q 42.328125 -1.421875 30.609375 -1.421875 
Q 18.84375 -1.421875 12.171875 6.21875 
Q 5.515625 13.875 5.515625 27.296875 
Q 5.515625 40.765625 12.171875 48.375 
Q 18.84375 56 30.609375 56 
z
" id="DejaVuSans-6f"/>
      <path d="M 45.40625 27.984375 
Q 45.40625 37.75 41.375 43.109375 
Q 37.359375 48.484375 30.078125 48.484375 
Q 22.859375 48.484375 18.828125 43.109375 
Q 14.796875 37.75 14.796875 27.984375 
Q 14.796875 18.265625 18.828125 12.890625 
Q 22.859375 7.515625 30.078125 7.515625 
Q 37.359375 7.515625 41.375 12.890625 
Q 45.40625 18.265625 45.40625 27.984375 
z
M 54.390625 6.78125 
Q 54.390625 -7.171875 48.1875 -13.984375 
Q 42 -20.796875 29.203125 -20.796875 
Q 24.46875 -20.796875 20.265625 -20.09375 
Q 16.0625 -19.390625 12.109375 -17.921875 
L 12.109375 -9.1875 
Q 16.0625 -11.328125 19.921875 -12.34375 
Q 23.78125 -13.375 27.78125 -13.375 
Q 36.625 -13.375 41.015625 -8.765625 
Q 45.40625 -4.15625 45.40625 5.171875 
L 45.40625 9.625 
Q 42.625 4.78125 38.28125 2.390625 
Q 33.9375 0 27.875 0 
Q 17.828125 0 11.671875 7.65625 
Q 5.515625 15.328125 5.515625 27.984375 
Q 5.515625 40.671875 11.671875 48.328125 
Q 17.828125 56 27.875 56 
Q 33.9375 56 38.28125 53.609375 
Q 42.625 51.21875 45.40625 46.390625 
L 45.40625 54.6875 
L 54.390625 54.6875 
z
" id="DejaVuSans-67"/>
      <path d="M 12.40625 8.296875 
L 28.515625 8.296875 
L 28.515625 63.921875 
L 10.984375 60.40625 
L 10.984375 69.390625 
L 28.421875 72.90625 
L 38.28125 72.90625 
L 38.28125 8.296875 
L 54.390625 8.296875 
L 54.390625 0 
L 12.40625 0 
z
" id="DejaVuSans-31"/>
      <path id="DejaVuSans-20"/>
      <path d="M 37.109375 75.984375 
L 37.109375 68.5 
L 28.515625 68.5 
Q 23.6875 68.5 21.796875 66.546875 
Q 19.921875 64.59375 19.921875 59.515625 
L 19.921875 54.6875 
L 34.71875 54.6875 
L 34.71875 47.703125 
L 19.921875 47.703125 
L 19.921875 0 
L 10.890625 0 
L 10.890625 47.703125 
L 2.296875 47.703125 
L 2.296875 54.6875 
L 10.890625 54.6875 
L 10.890625 58.5 
Q 10.890625 67.625 15.140625 71.796875 
Q 19.390625 75.984375 28.609375 75.984375 
z
" id="DejaVuSans-66"/>
      <path d="M 31 75.875 
Q 24.46875 64.65625 21.28125 53.65625 
Q 18.109375 42.671875 18.109375 31.390625 
Q 18.109375 20.125 21.3125 9.0625 
Q 24.515625 -2 31 -13.1875 
L 23.1875 -13.1875 
Q 15.875 -1.703125 12.234375 9.375 
Q 8.59375 20.453125 8.59375 31.390625 
Q 8.59375 42.28125 12.203125 53.3125 
Q 15.828125 64.359375 23.1875 75.875 
z
" id="DejaVuSans-28"/>
      <path d="M 51.125 44 
L 36.921875 44 
L 32.8125 27.6875 
L 47.125 27.6875 
z
M 43.796875 71.78125 
L 38.71875 51.515625 
L 52.984375 51.515625 
L 58.109375 71.78125 
L 65.921875 71.78125 
L 60.890625 51.515625 
L 76.125 51.515625 
L 76.125 44 
L 58.984375 44 
L 54.984375 27.6875 
L 70.515625 27.6875 
L 70.515625 20.21875 
L 53.078125 20.21875 
L 48 0 
L 40.1875 0 
L 45.21875 20.21875 
L 30.90625 20.21875 
L 25.875 0 
L 18.015625 0 
L 23.09375 20.21875 
L 7.71875 20.21875 
L 7.71875 27.6875 
L 24.90625 27.6875 
L 29 44 
L 13.28125 44 
L 13.28125 51.515625 
L 30.90625 51.515625 
L 35.890625 71.78125 
z
" id="DejaVuSans-23"/>
      <path d="M 4.890625 31.390625 
L 31.203125 31.390625 
L 31.203125 23.390625 
L 4.890625 23.390625 
z
" id="DejaVuSans-2d"/>
      <path d="M 56.203125 29.59375 
L 56.203125 25.203125 
L 14.890625 25.203125 
Q 15.484375 15.921875 20.484375 11.0625 
Q 25.484375 6.203125 34.421875 6.203125 
Q 39.59375 6.203125 44.453125 7.46875 
Q 49.3125 8.734375 54.109375 11.28125 
L 54.109375 2.78125 
Q 49.265625 0.734375 44.1875 -0.34375 
Q 39.109375 -1.421875 33.890625 -1.421875 
Q 20.796875 -1.421875 13.15625 6.1875 
Q 5.515625 13.8125 5.515625 26.8125 
Q 5.515625 40.234375 12.765625 48.109375 
Q 20.015625 56 32.328125 56 
Q 43.359375 56 49.78125 48.890625 
Q 56.203125 41.796875 56.203125 29.59375 
z
M 47.21875 32.234375 
Q 47.125 39.59375 43.09375 43.984375 
Q 39.0625 48.390625 32.421875 48.390625 
Q 24.90625 48.390625 20.390625 44.140625 
Q 15.875 39.890625 15.1875 32.171875 
z
" id="DejaVuSans-65"/>
      <path d="M 2.984375 54.6875 
L 12.5 54.6875 
L 29.59375 8.796875 
L 46.6875 54.6875 
L 56.203125 54.6875 
L 35.6875 0 
L 23.484375 0 
z
" id="DejaVuSans-76"/>
      <path d="M 34.28125 27.484375 
Q 23.390625 27.484375 19.1875 25 
Q 14.984375 22.515625 14.984375 16.5 
Q 14.984375 11.71875 18.140625 8.90625 
Q 21.296875 6.109375 26.703125 6.109375 
Q 34.1875 6.109375 38.703125 11.40625 
Q 43.21875 16.703125 43.21875 25.484375 
L 43.21875 27.484375 
z
M 52.203125 31.203125 
L 52.203125 0 
L 43.21875 0 
L 43.21875 8.296875 
Q 40.140625 3.328125 35.546875 0.953125 
Q 30.953125 -1.421875 24.3125 -1.421875 
Q 15.921875 -1.421875 10.953125 3.296875 
Q 6 8.015625 6 15.921875 
Q 6 25.140625 12.171875 29.828125 
Q 18.359375 34.515625 30.609375 34.515625 
L 43.21875 34.515625 
L 43.21875 35.40625 
Q 43.21875 41.609375 39.140625 45 
Q 35.0625 48.390625 27.6875 48.390625 
Q 23 48.390625 18.546875 47.265625 
Q 14.109375 46.140625 10.015625 43.890625 
L 10.015625 52.203125 
Q 14.9375 54.109375 19.578125 55.046875 
Q 24.21875 56 28.609375 56 
Q 40.484375 56 46.34375 49.84375 
Q 52.203125 43.703125 52.203125 31.203125 
z
" id="DejaVuSans-61"/>
      <path d="M 44.28125 53.078125 
L 44.28125 44.578125 
Q 40.484375 46.53125 36.375 47.5 
Q 32.28125 48.484375 27.875 48.484375 
Q 21.1875 48.484375 17.84375 46.4375 
Q 14.5 44.390625 14.5 40.28125 
Q 14.5 37.15625 16.890625 35.375 
Q 19.28125 33.59375 26.515625 31.984375 
L 29.59375 31.296875 
Q 39.15625 29.25 43.1875 25.515625 
Q 47.21875 21.78125 47.21875 15.09375 
Q 47.21875 7.46875 41.1875 3.015625 
Q 35.15625 -1.421875 24.609375 -1.421875 
Q 20.21875 -1.421875 15.453125 -0.5625 
Q 10.6875 0.296875 5.421875 2 
L 5.421875 11.28125 
Q 10.40625 8.6875 15.234375 7.390625 
Q 20.0625 6.109375 24.8125 6.109375 
Q 31.15625 6.109375 34.5625 8.28125 
Q 37.984375 10.453125 37.984375 14.40625 
Q 37.984375 18.0625 35.515625 20.015625 
Q 33.0625 21.96875 24.703125 23.78125 
L 21.578125 24.515625 
Q 13.234375 26.265625 9.515625 29.90625 
Q 5.8125 33.546875 5.8125 39.890625 
Q 5.8125 47.609375 11.28125 51.796875 
Q 16.75 56 26.8125 56 
Q 31.78125 56 36.171875 55.265625 
Q 40.578125 54.546875 44.28125 53.078125 
z
" id="DejaVuSans-73"/>
      <path d="M 25.390625 72.90625 
L 33.6875 72.90625 
L 8.296875 -9.28125 
L 0 -9.28125 
z
" id="DejaVuSans-2f"/>
      <path d="M 45.40625 46.390625 
L 45.40625 75.984375 
L 54.390625 75.984375 
L 54.390625 0 
L 45.40625 0 
L 45.40625 8.203125 
Q 42.578125 3.328125 38.25 0.953125 
Q 33.9375 -1.421875 27.875 -1.421875 
Q 17.96875 -1.421875 11.734375 6.484375 
Q 5.515625 14.40625 5.515625 27.296875 
Q 5.515625 40.1875 11.734375 48.09375 
Q 17.96875 56 27.875 56 
Q 33.9375 56 38.25 53.625 
Q 42.578125 51.265625 45.40625 46.390625 
z
M 14.796875 27.296875 
Q 14.796875 17.390625 18.875 11.75 
Q 22.953125 6.109375 30.078125 6.109375 
Q 37.203125 6.109375 41.296875 11.75 
Q 45.40625 17.390625 45.40625 27.296875 
Q 45.40625 37.203125 41.296875 42.84375 
Q 37.203125 48.484375 30.078125 48.484375 
Q 22.953125 48.484375 18.875 42.84375 
Q 14.796875 37.203125 14.796875 27.296875 
z
" id="DejaVuSans-64"/>
      <path d="M 9.421875 54.6875 
L 18.40625 54.6875 
L 18.40625 0 
L 9.421875 0 
z
M 9.421875 75.984375 
L 18.40625 75.984375 
L 18.40625 64.59375 
L 9.421875 64.59375 
z
" id="DejaVuSans-69"/>
      <path d="M 52 44.1875 
Q 55.375 50.25 60.0625 53.125 
Q 64.75 56 71.09375 56 
Q 79.640625 56 84.28125 50.015625 
Q 88.921875 44.046875 88.921875 33.015625 
L 88.921875 0 
L 79.890625 0 
L 79.890625 32.71875 
Q 79.890625 40.578125 77.09375 44.375 
Q 74.3125 48.1875 68.609375 48.1875 
Q 61.625 48.1875 57.5625 43.546875 
Q 53.515625 38.921875 53.515625 30.90625 
L 53.515625 0 
L 44.484375 0 
L 44.484375 32.71875 
Q 44.484375 40.625 41.703125 44.40625 
Q 38.921875 48.1875 33.109375 48.1875 
Q 26.21875 48.1875 22.15625 43.53125 
Q 18.109375 38.875 18.109375 30.90625 
L 18.109375 0 
L 9.078125 0 
L 9.078125 54.6875 
L 18.109375 54.6875 
L 18.109375 46.1875 
Q 21.1875 51.21875 25.484375 53.609375 
Q 29.78125 56 35.6875 56 
Q 41.65625 56 45.828125 52.96875 
Q 50 49.953125 52 44.1875 
z
" id="DejaVuSans-6d"/>
      <path d="M 54.890625 33.015625 
L 54.890625 0 
L 45.90625 0 
L 45.90625 32.71875 
Q 45.90625 40.484375 42.875 44.328125 
Q 39.84375 48.1875 33.796875 48.1875 
Q 26.515625 48.1875 22.3125 43.546875 
Q 18.109375 38.921875 18.109375 30.90625 
L 18.109375 0 
L 9.078125 0 
L 9.078125 54.6875 
L 18.109375 54.6875 
L 18.109375 46.1875 
Q 21.34375 51.125 25.703125 53.5625 
Q 30.078125 56 35.796875 56 
Q 45.21875 56 50.046875 50.171875 
Q 54.890625 44.34375 54.890625 33.015625 
z
" id="DejaVuSans-6e"/>
      <path d="M 8.015625 75.875 
L 15.828125 75.875 
Q 23.140625 64.359375 26.78125 53.3125 
Q 30.421875 42.28125 30.421875 31.390625 
Q 30.421875 20.453125 26.78125 9.375 
Q 23.140625 -1.703125 15.828125 -13.1875 
L 8.015625 -13.1875 
Q 14.5 -2 17.703125 9.0625 
Q 20.90625 20.125 20.90625 31.390625 
Q 20.90625 42.671875 17.703125 53.65625 
Q 14.5 64.65625 8.015625 75.875 
z
" id="DejaVuSans-29"/>
     </defs>
     <g transform="translate(107.015156 342.278812)scale(0.18 -0.18)">
      <use xlink:href="#DejaVuSans-6c"/>
      <use x="27.783203" xlink:href="#DejaVuSans-6f"/>
      <use x="88.964844" xlink:href="#DejaVuSans-67"/>
      <use x="152.441406" xlink:href="#DejaVuSans-31"/>
      <use x="216.064453" xlink:href="#DejaVuSans-30"/>
      <use x="279.6875" xlink:href="#DejaVuSans-20"/>
      <use x="311.474609" xlink:href="#DejaVuSans-6f"/>
      <use x="372.65625" xlink:href="#DejaVuSans-66"/>
      <use x="407.861328" xlink:href="#DejaVuSans-20"/>
      <use x="439.648438" xlink:href="#DejaVuSans-28"/>
      <use x="478.662109" xlink:href="#DejaVuSans-23"/>
      <use x="562.451172" xlink:href="#DejaVuSans-20"/>
      <use x="594.238281" xlink:href="#DejaVuSans-66"/>
      <use x="629.365234" xlink:href="#DejaVuSans-2d"/>
      <use x="665.449219" xlink:href="#DejaVuSans-65"/>
      <use x="726.972656" xlink:href="#DejaVuSans-76"/>
      <use x="786.152344" xlink:href="#DejaVuSans-61"/>
      <use x="847.431641" xlink:href="#DejaVuSans-6c"/>
      <use x="875.214844" xlink:href="#DejaVuSans-73"/>
      <use x="927.314453" xlink:href="#DejaVuSans-20"/>
      <use x="959.101562" xlink:href="#DejaVuSans-2f"/>
      <use x="992.792969" xlink:href="#DejaVuSans-20"/>
      <use x="1024.580078" xlink:href="#DejaVuSans-64"/>
      <use x="1088.056641" xlink:href="#DejaVuSans-69"/>
      <use x="1115.839844" xlink:href="#DejaVuSans-6d"/>
      <use x="1213.251953" xlink:href="#DejaVuSans-65"/>
      <use x="1274.775391" xlink:href="#DejaVuSans-6e"/>
      <use x="1338.154297" xlink:href="#DejaVuSans-73"/>
      <use x="1390.253906" xlink:href="#DejaVuSans-69"/>
      <use x="1418.037109" xlink:href="#DejaVuSans-6f"/>
      <use x="1479.21875" xlink:href="#DejaVuSans-6e"/>
      <use x="1542.597656" xlink:href="#DejaVuSans-29"/>
     </g>
    </g>
   </g>
   <g id="matplotlib.axis_2">
    <g id="ytick_1">
     <g id="line2d_11">
      <path clip-path="url(#pf104ad6f66)" d="M 70.8 298.245375 
L 427.92 298.245375 
" style="fill:none;stroke:#b0b0b0;stroke-linecap:square;stroke-width:0.8;"/>
     </g>
     <g id="line2d_12">
      <defs>
       <path d="M 0 0 
L -3.5 0 
" id="mfe0f27f2db" style="stroke:#000000;stroke-width:0.8;"/>
      </defs>
      <g>
       <use style="stroke:#000000;stroke-width:0.8;" x="70.8" xlink:href="#mfe0f27f2db" y="298.245375"/>
      </g>
     </g>
     <g id="text_7">
      <!-- 0.0 -->
      <defs>
       <path d="M 10.6875 12.40625 
L 21 12.40625 
L 21 0 
L 10.6875 0 
z
" id="DejaVuSans-2e"/>
      </defs>
      <g transform="translate(31.99375 305.843812)scale(0.2 -0.2)">
       <use xlink:href="#DejaVuSans-30"/>
       <use x="63.623047" xlink:href="#DejaVuSans-2e"/>
       <use x="95.410156" xlink:href="#DejaVuSans-30"/>
      </g>
     </g>
    </g>
    <g id="ytick_2">
     <g id="line2d_13">
      <path clip-path="url(#pf104ad6f66)" d="M 70.8 245.549929 
L 427.92 245.549929 
" style="fill:none;stroke:#b0b0b0;stroke-linecap:square;stroke-width:0.8;"/>
     </g>
     <g id="line2d_14">
      <g>
       <use style="stroke:#000000;stroke-width:0.8;" x="70.8" xlink:href="#mfe0f27f2db" y="245.549929"/>
      </g>
     </g>
     <g id="text_8">
      <!-- 0.2 -->
      <g transform="translate(31.99375 253.148367)scale(0.2 -0.2)">
       <use xlink:href="#DejaVuSans-30"/>
       <use x="63.623047" xlink:href="#DejaVuSans-2e"/>
       <use x="95.410156" xlink:href="#DejaVuSans-32"/>
      </g>
     </g>
    </g>
    <g id="ytick_3">
     <g id="line2d_15">
      <path clip-path="url(#pf104ad6f66)" d="M 70.8 192.854484 
L 427.92 192.854484 
" style="fill:none;stroke:#b0b0b0;stroke-linecap:square;stroke-width:0.8;"/>
     </g>
     <g id="line2d_16">
      <g>
       <use style="stroke:#000000;stroke-width:0.8;" x="70.8" xlink:href="#mfe0f27f2db" y="192.854484"/>
      </g>
     </g>
     <g id="text_9">
      <!-- 0.4 -->
      <g transform="translate(31.99375 200.452921)scale(0.2 -0.2)">
       <use xlink:href="#DejaVuSans-30"/>
       <use x="63.623047" xlink:href="#DejaVuSans-2e"/>
       <use x="95.410156" xlink:href="#DejaVuSans-34"/>
      </g>
     </g>
    </g>
    <g id="ytick_4">
     <g id="line2d_17">
      <path clip-path="url(#pf104ad6f66)" d="M 70.8 140.159038 
L 427.92 140.159038 
" style="fill:none;stroke:#b0b0b0;stroke-linecap:square;stroke-width:0.8;"/>
     </g>
     <g id="line2d_18">
      <g>
       <use style="stroke:#000000;stroke-width:0.8;" x="70.8" xlink:href="#mfe0f27f2db" y="140.159038"/>
      </g>
     </g>
     <g id="text_10">
      <!-- 0.6 -->
      <g transform="translate(31.99375 147.757476)scale(0.2 -0.2)">
       <use xlink:href="#DejaVuSans-30"/>
       <use x="63.623047" xlink:href="#DejaVuSans-2e"/>
       <use x="95.410156" xlink:href="#DejaVuSans-36"/>
      </g>
     </g>
    </g>
    <g id="ytick_5">
     <g id="line2d_19">
      <path clip-path="url(#pf104ad6f66)" d="M 70.8 87.463593 
L 427.92 87.463593 
" style="fill:none;stroke:#b0b0b0;stroke-linecap:square;stroke-width:0.8;"/>
     </g>
     <g id="line2d_20">
      <g>
       <use style="stroke:#000000;stroke-width:0.8;" x="70.8" xlink:href="#mfe0f27f2db" y="87.463593"/>
      </g>
     </g>
     <g id="text_11">
      <!-- 0.8 -->
      <g transform="translate(31.99375 95.06203)scale(0.2 -0.2)">
       <use xlink:href="#DejaVuSans-30"/>
       <use x="63.623047" xlink:href="#DejaVuSans-2e"/>
       <use x="95.410156" xlink:href="#DejaVuSans-38"/>
      </g>
     </g>
    </g>
    <g id="ytick_6">
     <g id="line2d_21">
      <path clip-path="url(#pf104ad6f66)" d="M 70.8 34.768147 
L 427.92 34.768147 
" style="fill:none;stroke:#b0b0b0;stroke-linecap:square;stroke-width:0.8;"/>
     </g>
     <g id="line2d_22">
      <g>
       <use style="stroke:#000000;stroke-width:0.8;" x="70.8" xlink:href="#mfe0f27f2db" y="34.768147"/>
      </g>
     </g>
     <g id="text_12">
      <!-- 1.0 -->
      <g transform="translate(31.99375 42.366585)scale(0.2 -0.2)">
       <use xlink:href="#DejaVuSans-31"/>
       <use x="63.623047" xlink:href="#DejaVuSans-2e"/>
       <use x="95.410156" xlink:href="#DejaVuSans-30"/>
      </g>
     </g>
    </g>
    <g id="text_13">
     <!-- Proportion of function+target pairs -->
     <defs>
      <path d="M 19.671875 64.796875 
L 19.671875 37.40625 
L 32.078125 37.40625 
Q 38.96875 37.40625 42.71875 40.96875 
Q 46.484375 44.53125 46.484375 51.125 
Q 46.484375 57.671875 42.71875 61.234375 
Q 38.96875 64.796875 32.078125 64.796875 
z
M 9.8125 72.90625 
L 32.078125 72.90625 
Q 44.34375 72.90625 50.609375 67.359375 
Q 56.890625 61.8125 56.890625 51.125 
Q 56.890625 40.328125 50.609375 34.8125 
Q 44.34375 29.296875 32.078125 29.296875 
L 19.671875 29.296875 
L 19.671875 0 
L 9.8125 0 
z
" id="DejaVuSans-50"/>
      <path d="M 41.109375 46.296875 
Q 39.59375 47.171875 37.8125 47.578125 
Q 36.03125 48 33.890625 48 
Q 26.265625 48 22.1875 43.046875 
Q 18.109375 38.09375 18.109375 28.8125 
L 18.109375 0 
L 9.078125 0 
L 9.078125 54.6875 
L 18.109375 54.6875 
L 18.109375 46.1875 
Q 20.953125 51.171875 25.484375 53.578125 
Q 30.03125 56 36.53125 56 
Q 37.453125 56 38.578125 55.875 
Q 39.703125 55.765625 41.0625 55.515625 
z
" id="DejaVuSans-72"/>
      <path d="M 18.109375 8.203125 
L 18.109375 -20.796875 
L 9.078125 -20.796875 
L 9.078125 54.6875 
L 18.109375 54.6875 
L 18.109375 46.390625 
Q 20.953125 51.265625 25.265625 53.625 
Q 29.59375 56 35.59375 56 
Q 45.5625 56 51.78125 48.09375 
Q 58.015625 40.1875 58.015625 27.296875 
Q 58.015625 14.40625 51.78125 6.484375 
Q 45.5625 -1.421875 35.59375 -1.421875 
Q 29.59375 -1.421875 25.265625 0.953125 
Q 20.953125 3.328125 18.109375 8.203125 
z
M 48.6875 27.296875 
Q 48.6875 37.203125 44.609375 42.84375 
Q 40.53125 48.484375 33.40625 48.484375 
Q 26.265625 48.484375 22.1875 42.84375 
Q 18.109375 37.203125 18.109375 27.296875 
Q 18.109375 17.390625 22.1875 11.75 
Q 26.265625 6.109375 33.40625 6.109375 
Q 40.53125 6.109375 44.609375 11.75 
Q 48.6875 17.390625 48.6875 27.296875 
z
" id="DejaVuSans-70"/>
      <path d="M 18.3125 70.21875 
L 18.3125 54.6875 
L 36.8125 54.6875 
L 36.8125 47.703125 
L 18.3125 47.703125 
L 18.3125 18.015625 
Q 18.3125 11.328125 20.140625 9.421875 
Q 21.96875 7.515625 27.59375 7.515625 
L 36.8125 7.515625 
L 36.8125 0 
L 27.59375 0 
Q 17.1875 0 13.234375 3.875 
Q 9.28125 7.765625 9.28125 18.015625 
L 9.28125 47.703125 
L 2.6875 47.703125 
L 2.6875 54.6875 
L 9.28125 54.6875 
L 9.28125 70.21875 
z
" id="DejaVuSans-74"/>
      <path d="M 8.5 21.578125 
L 8.5 54.6875 
L 17.484375 54.6875 
L 17.484375 21.921875 
Q 17.484375 14.15625 20.5 10.265625 
Q 23.53125 6.390625 29.59375 6.390625 
Q 36.859375 6.390625 41.078125 11.03125 
Q 45.3125 15.671875 45.3125 23.6875 
L 45.3125 54.6875 
L 54.296875 54.6875 
L 54.296875 0 
L 45.3125 0 
L 45.3125 8.40625 
Q 42.046875 3.421875 37.71875 1 
Q 33.40625 -1.421875 27.6875 -1.421875 
Q 18.265625 -1.421875 13.375 4.4375 
Q 8.5 10.296875 8.5 21.578125 
z
M 31.109375 56 
z
" id="DejaVuSans-75"/>
      <path d="M 48.78125 52.59375 
L 48.78125 44.1875 
Q 44.96875 46.296875 41.140625 47.34375 
Q 37.3125 48.390625 33.40625 48.390625 
Q 24.65625 48.390625 19.8125 42.84375 
Q 14.984375 37.3125 14.984375 27.296875 
Q 14.984375 17.28125 19.8125 11.734375 
Q 24.65625 6.203125 33.40625 6.203125 
Q 37.3125 6.203125 41.140625 7.25 
Q 44.96875 8.296875 48.78125 10.40625 
L 48.78125 2.09375 
Q 45.015625 0.34375 40.984375 -0.53125 
Q 36.96875 -1.421875 32.421875 -1.421875 
Q 20.0625 -1.421875 12.78125 6.34375 
Q 5.515625 14.109375 5.515625 27.296875 
Q 5.515625 40.671875 12.859375 48.328125 
Q 20.21875 56 33.015625 56 
Q 37.15625 56 41.109375 55.140625 
Q 45.0625 54.296875 48.78125 52.59375 
z
" id="DejaVuSans-63"/>
      <path d="M 46 62.703125 
L 46 35.5 
L 73.1875 35.5 
L 73.1875 27.203125 
L 46 27.203125 
L 46 0 
L 37.796875 0 
L 37.796875 27.203125 
L 10.59375 27.203125 
L 10.59375 35.5 
L 37.796875 35.5 
L 37.796875 62.703125 
z
" id="DejaVuSans-2b"/>
     </defs>
     <g transform="translate(24.250312 323.17875)rotate(-90)scale(0.18 -0.18)">
      <use xlink:href="#DejaVuSans-50"/>
      <use x="60.287109" xlink:href="#DejaVuSans-72"/>
      <use x="101.369141" xlink:href="#DejaVuSans-6f"/>
      <use x="162.550781" xlink:href="#DejaVuSans-70"/>
      <use x="226.027344" xlink:href="#DejaVuSans-6f"/>
      <use x="287.208984" xlink:href="#DejaVuSans-72"/>
      <use x="328.322266" xlink:href="#DejaVuSans-74"/>
      <use x="367.53125" xlink:href="#DejaVuSans-69"/>
      <use x="395.314453" xlink:href="#DejaVuSans-6f"/>
      <use x="456.496094" xlink:href="#DejaVuSans-6e"/>
      <use x="519.875" xlink:href="#DejaVuSans-20"/>
      <use x="551.662109" xlink:href="#DejaVuSans-6f"/>
      <use x="612.84375" xlink:href="#DejaVuSans-66"/>
      <use x="648.048828" xlink:href="#DejaVuSans-20"/>
      <use x="679.835938" xlink:href="#DejaVuSans-66"/>
      <use x="715.041016" xlink:href="#DejaVuSans-75"/>
      <use x="778.419922" xlink:href="#DejaVuSans-6e"/>
      <use x="841.798828" xlink:href="#DejaVuSans-63"/>
      <use x="896.779297" xlink:href="#DejaVuSans-74"/>
      <use x="935.988281" xlink:href="#DejaVuSans-69"/>
      <use x="963.771484" xlink:href="#DejaVuSans-6f"/>
      <use x="1024.953125" xlink:href="#DejaVuSans-6e"/>
      <use x="1088.332031" xlink:href="#DejaVuSans-2b"/>
      <use x="1172.121094" xlink:href="#DejaVuSans-74"/>
      <use x="1211.330078" xlink:href="#DejaVuSans-61"/>
      <use x="1272.609375" xlink:href="#DejaVuSans-72"/>
      <use x="1313.707031" xlink:href="#DejaVuSans-67"/>
      <use x="1377.183594" xlink:href="#DejaVuSans-65"/>
      <use x="1438.707031" xlink:href="#DejaVuSans-74"/>
      <use x="1477.916016" xlink:href="#DejaVuSans-20"/>
      <use x="1509.703125" xlink:href="#DejaVuSans-70"/>
      <use x="1573.179688" xlink:href="#DejaVuSans-61"/>
      <use x="1634.458984" xlink:href="#DejaVuSans-69"/>
      <use x="1662.242188" xlink:href="#DejaVuSans-72"/>
      <use x="1703.355469" xlink:href="#DejaVuSans-73"/>
     </g>
    </g>
   </g>
   <g id="line2d_23">
    <defs>
     <path d="M 0 1.5 
C 0.397805 1.5 0.77937 1.341951 1.06066 1.06066 
C 1.341951 0.77937 1.5 0.397805 1.5 0 
C 1.5 -0.397805 1.341951 -0.77937 1.06066 -1.06066 
C 0.77937 -1.341951 0.397805 -1.5 0 -1.5 
C -0.397805 -1.5 -0.77937 -1.341951 -1.06066 -1.06066 
C -1.341951 -0.77937 -1.5 -0.397805 -1.5 0 
C -1.5 0.397805 -1.341951 0.77937 -1.06066 1.06066 
C -0.77937 1.341951 -0.397805 1.5 0 1.5 
z
" id="m2a0d300f20" style="stroke:#000080;"/>
    </defs>
    <g>
     <use style="fill:#000080;stroke:#000080;" x="316.383508" xlink:href="#m2a0d300f20" y="34.768147"/>
     <use style="fill:#000080;stroke:#000080;" x="316.383508" xlink:href="#m2a0d300f20" y="34.768147"/>
    </g>
   </g>
   <g id="line2d_24">
    <path d="M 51.169868 298.245375 
L 51.169868 280.680226 
L 133.455583 280.680226 
L 133.455583 279.13036 
L 144.544115 279.13036 
L 144.544115 274.480762 
L 144.73522 274.480762 
L 144.73522 267.248054 
L 144.924302 267.248054 
L 144.924302 262.081834 
L 145.111405 262.081834 
L 145.111405 259.498724 
L 145.296568 259.498724 
L 145.388435 254.332504 
L 145.479832 254.332504 
L 145.479832 247.099796 
L 145.751252 247.099796 
L 145.840817 239.867087 
L 150.936427 239.867087 
L 150.936427 237.283977 
L 152.106394 237.283977 
L 152.106394 236.767355 
L 152.231785 236.767355 
L 152.231785 235.217489 
L 152.356302 235.217489 
L 152.418237 232.117757 
L 152.72473 232.117757 
L 152.72473 231.601135 
L 152.84587 231.601135 
L 152.84587 230.051269 
L 152.966195 230.051269 
L 152.966195 223.851805 
L 153.085714 223.851805 
L 153.085714 223.335183 
L 155.941909 223.335183 
L 155.941909 221.268695 
L 157.215245 221.268695 
L 157.215245 218.685585 
L 157.54311 218.685585 
L 157.54311 218.168963 
L 157.865067 218.168963 
L 157.865067 216.619097 
L 158.04647 216.619097 
L 158.136486 214.552609 
L 158.181325 214.552609 
L 158.181325 214.035987 
L 159.929064 214.035987 
L 159.929064 213.519365 
L 161.107609 213.519365 
L 161.107609 213.002743 
L 161.409188 213.002743 
L 161.409188 212.48612 
L 162.84515 212.48612 
L 162.84515 211.969498 
L 164.460143 211.969498 
L 164.554434 210.936254 
L 164.803471 210.936254 
L 164.803471 210.419632 
L 165.231104 210.419632 
L 165.291368 208.353144 
L 165.351429 208.353144 
L 165.351429 207.836522 
L 165.795564 207.836522 
L 165.795564 206.803278 
L 166.285922 206.803278 
L 166.285922 200.603814 
L 167.228026 200.603814 
L 167.254996 199.57057 
L 168.019948 199.57057 
L 168.019948 198.537326 
L 169.69477 198.537326 
L 169.718266 197.504082 
L 170.386526 197.504082 
L 170.386526 196.470838 
L 171.778421 196.470838 
L 171.778421 194.920972 
L 172.476002 194.920972 
L 172.476002 194.40435 
L 172.596326 194.40435 
L 172.596326 193.887728 
L 173.663107 193.887728 
L 173.663107 191.304618 
L 174.127723 191.304618 
L 174.127723 190.787996 
L 175.195856 190.787996 
L 175.195856 190.271374 
L 175.316413 190.271374 
L 175.419103 188.204886 
L 177.311934 188.204886 
L 177.311934 187.171642 
L 178.048713 187.171642 
L 178.048713 186.138398 
L 178.195414 186.138398 
L 178.195414 185.621776 
L 179.559196 185.621776 
L 179.559196 185.105154 
L 180.366408 185.105154 
L 180.469618 182.005422 
L 180.495327 182.005422 
L 180.495327 181.4888 
L 181.567237 181.4888 
L 181.603493 179.422312 
L 182.658311 179.422312 
L 182.692422 173.222847 
L 183.793701 173.222847 
L 183.793701 171.672981 
L 183.932008 171.672981 
L 183.932008 171.156359 
L 184.810861 171.156359 
L 184.810861 170.639737 
L 184.961563 170.639737 
L 185.051377 169.606493 
L 185.78278 169.606493 
L 185.78278 167.540005 
L 185.95395 167.540005 
L 185.95395 167.023383 
L 186.858157 167.023383 
L 186.858157 164.440273 
L 190.697148 164.440273 
L 190.697148 163.407029 
L 194.482863 163.407029 
L 194.482863 162.890407 
L 196.95741 162.890407 
L 196.95741 162.373785 
L 197.186003 162.373785 
L 197.186003 161.857163 
L 197.396749 161.857163 
L 197.396749 161.340541 
L 199.749001 161.340541 
L 199.749001 160.823919 
L 201.341953 160.823919 
L 201.341953 157.207565 
L 203.915422 157.207565 
L 203.915422 155.657699 
L 204.210826 155.657699 
L 204.210826 152.557967 
L 204.62834 152.557967 
L 204.62834 151.008101 
L 204.793971 151.008101 
L 204.793971 150.491479 
L 205.495532 150.491479 
L 205.495532 149.974857 
L 206.773899 149.974857 
L 206.773899 149.458235 
L 207.900498 149.458235 
L 207.900498 147.908369 
L 209.938428 147.908369 
L 209.938428 146.358503 
L 211.962869 146.358503 
L 211.962869 144.292014 
L 213.56041 144.292014 
L 213.56041 143.25877 
L 215.92086 143.25877 
L 215.92086 142.742148 
L 216.755461 142.742148 
L 216.755461 142.225526 
L 217.208856 142.225526 
L 217.208856 141.708904 
L 218.72294 141.708904 
L 218.72294 137.575928 
L 219.268005 137.575928 
L 219.268005 136.542684 
L 220.628806 136.542684 
L 220.628806 135.50944 
L 221.049252 135.50944 
L 221.049252 134.992818 
L 221.471704 134.992818 
L 221.526078 133.959574 
L 222.852279 133.959574 
L 222.852279 131.893086 
L 222.976662 131.893086 
L 222.976662 130.859842 
L 225.091814 130.859842 
L 225.091814 130.34322 
L 225.86978 130.34322 
L 225.86978 129.826598 
L 226.04128 129.826598 
L 226.04128 127.76011 
L 226.314278 127.76011 
L 226.314278 127.243488 
L 226.463943 127.243488 
L 226.463943 126.210244 
L 226.907473 126.210244 
L 226.907473 123.627134 
L 228.958284 123.627134 
L 228.960842 122.077268 
L 230.090774 122.077268 
L 230.090774 120.527402 
L 230.848466 120.527402 
L 230.848466 119.494158 
L 231.307425 119.494158 
L 231.307425 115.877804 
L 233.335973 115.877804 
L 233.335973 113.811316 
L 233.696089 113.811316 
L 233.696089 109.678339 
L 234.712605 109.678339 
L 234.712605 109.161717 
L 235.016521 109.161717 
L 235.016521 108.645095 
L 235.193051 108.645095 
L 235.193051 105.545363 
L 236.59149 105.545363 
L 236.59149 103.995497 
L 237.129046 103.995497 
L 237.129046 102.962253 
L 237.508784 102.962253 
L 237.557863 101.412387 
L 237.651424 101.412387 
L 237.666097 96.246167 
L 238.251466 96.246167 
L 238.251466 95.729545 
L 240.372298 95.729545 
L 240.372298 93.146435 
L 240.815605 93.146435 
L 240.815605 92.629813 
L 241.429441 92.629813 
L 241.429441 91.596569 
L 243.67695 91.596569 
L 243.67695 90.563325 
L 244.417614 90.563325 
L 244.417614 90.046703 
L 245.225816 90.046703 
L 245.225816 89.530081 
L 246.237958 89.530081 
L 246.237958 87.980215 
L 248.522061 87.980215 
L 248.522061 86.946971 
L 249.427159 86.946971 
L 249.427159 86.430349 
L 251.435994 86.430349 
L 251.435994 84.880483 
L 252.121928 84.880483 
L 252.121928 83.847239 
L 254.653537 83.847239 
L 254.653537 81.264129 
L 256.749278 81.264129 
L 256.749278 80.747507 
L 258.46574 80.747507 
L 258.46574 79.197641 
L 258.637128 79.197641 
L 258.637128 78.681019 
L 259.766624 78.681019 
L 259.843099 77.647775 
L 259.883632 77.647775 
L 259.883632 77.131153 
L 260.933097 77.131153 
L 260.933097 75.581286 
L 261.578293 75.581286 
L 261.578293 74.03142 
L 263.178021 74.03142 
L 263.178021 73.514798 
L 265.223507 73.514798 
L 265.231237 70.931688 
L 265.346109 70.931688 
L 265.346109 68.8652 
L 265.830765 68.8652 
L 265.830765 68.348578 
L 266.424558 68.348578 
L 266.424558 65.765468 
L 266.637207 65.765468 
L 266.637207 64.732224 
L 267.144535 64.732224 
L 267.144535 63.69898 
L 267.922374 63.69898 
L 267.922374 63.182358 
L 270.284144 63.182358 
L 270.284144 62.665736 
L 270.453004 62.665736 
L 270.453004 62.149114 
L 270.593009 62.149114 
L 270.593009 61.632492 
L 271.721789 61.632492 
L 271.721789 59.566004 
L 272.801302 59.566004 
L 272.801302 59.049382 
L 273.033376 59.049382 
L 273.033376 58.53276 
L 273.514545 58.53276 
L 273.514545 57.499516 
L 273.923293 57.499516 
L 273.923293 56.982894 
L 274.340463 56.982894 
L 274.340463 55.433028 
L 274.675118 55.433028 
L 274.675118 54.916406 
L 275.336691 54.916406 
L 275.336691 54.399784 
L 276.2742 54.399784 
L 276.2742 53.883162 
L 277.696647 53.883162 
L 277.696647 53.36654 
L 278.59506 53.36654 
L 278.59506 52.849918 
L 279.565354 52.849918 
L 279.565354 52.333296 
L 280.442785 52.333296 
L 280.442785 51.816674 
L 280.676167 51.816674 
L 280.676167 51.300052 
L 280.968804 51.300052 
L 280.968804 50.78343 
L 281.937018 50.78343 
L 281.937018 50.266808 
L 282.418023 50.266808 
L 282.418023 49.750186 
L 283.515556 49.750186 
L 283.515556 49.233564 
L 284.550811 49.233564 
L 284.550811 48.716942 
L 284.967114 48.716942 
L 284.967114 48.20032 
L 285.320787 48.20032 
L 285.320787 47.683698 
L 285.610803 47.683698 
L 285.610803 47.167076 
L 286.607356 47.167076 
L 286.607356 46.650454 
L 286.79153 46.650454 
L 286.79153 46.133832 
L 289.423342 46.133832 
L 289.423342 45.61721 
L 289.705557 45.61721 
L 289.705557 45.100588 
L 290.121612 45.100588 
L 290.121612 44.583966 
L 292.036244 44.583966 
L 292.036244 44.067344 
L 292.459809 44.067344 
L 292.459809 43.550722 
L 293.007435 43.550722 
L 293.007435 43.0341 
L 293.456859 43.0341 
L 293.456859 42.517478 
L 294.215439 42.517478 
L 294.215439 42.000855 
L 294.368712 42.000855 
L 294.368712 41.484233 
L 294.529268 41.484233 
L 294.529268 40.967611 
L 295.793883 40.967611 
L 295.793883 40.450989 
L 296.996076 40.450989 
L 296.996076 39.934367 
L 298.162827 39.934367 
L 298.162827 39.417745 
L 299.953628 39.417745 
L 299.998072 38.384501 
L 302.53029 38.384501 
L 302.53029 37.867879 
L 304.327548 37.867879 
L 304.327548 37.351257 
L 308.726924 37.351257 
L 308.726924 36.834635 
L 309.260331 36.834635 
L 309.309186 35.801391 
L 314.66084 35.801391 
L 314.66084 35.284769 
L 316.383508 35.284769 
L 316.383508 34.768147 
L 358.8 34.768147 
L 358.8 34.768147 
" style="fill:none;stroke:#000080;stroke-linecap:square;stroke-width:1.5;"/>
   </g>
   <g id="line2d_25">
    <defs>
     <path d="M 0 6 
C 1.591219 6 3.117479 5.367802 4.242641 4.242641 
C 5.367802 3.117479 6 1.591219 6 0 
C 6 -1.591219 5.367802 -3.117479 4.242641 -4.242641 
C 3.117479 -5.367802 1.591219 -6 0 -6 
C -1.591219 -6 -3.117479 -5.367802 -4.242641 -4.242641 
C -5.367802 -3.117479 -6 -1.591219 -6 0 
C -6 1.591219 -5.367802 3.117479 -4.242641 4.242641 
C -3.117479 5.367802 -1.591219 6 0 6 
z
" id="m2dbe3fe9d1" style="stroke:#000080;stroke-width:1.5;"/>
    </defs>
    <g>
     <use style="fill:none;stroke:#000080;stroke-width:1.5;" x="145.296568" xlink:href="#m2dbe3fe9d1" y="259.498724"/>
     <use style="fill:none;stroke:#000080;stroke-width:1.5;" x="201.341953" xlink:href="#m2dbe3fe9d1" y="160.823919"/>
     <use style="fill:none;stroke:#000080;stroke-width:1.5;" x="246.237958" xlink:href="#m2dbe3fe9d1" y="87.980215"/>
     <use style="fill:none;stroke:#000080;stroke-width:1.5;" x="308.726924" xlink:href="#m2dbe3fe9d1" y="37.351257"/>
     <use style="fill:none;stroke:#000080;stroke-width:1.5;" x="316.383508" xlink:href="#m2dbe3fe9d1" y="34.768147"/>
     <use style="fill:none;stroke:#000080;stroke-width:1.5;" x="358.8" xlink:href="#m2dbe3fe9d1" y="34.768147"/>
    </g>
   </g>
   <g id="line2d_26"/>
   <g id="line2d_27">
    <path clip-path="url(#pf104ad6f66)" d="M 267.922374 63.182358 
" style="fill:none;stroke:#000080;stroke-linecap:square;stroke-width:1.5;"/>
    <defs>
     <path d="M -12 12 
L 12 -12 
M -12 -12 
L 12 12 
" id="me5e871e2b5" style="stroke:#000080;stroke-width:3;"/>
    </defs>
    <g clip-path="url(#pf104ad6f66)">
     <use style="fill:#000080;stroke:#000080;stroke-width:3;" x="267.922374" xlink:href="#me5e871e2b5" y="63.182358"/>
    </g>
   </g>
   <g id="line2d_28">
    <defs>
     <path d="M 0 1.5 
C 0.397805 1.5 0.77937 1.341951 1.06066 1.06066 
C 1.341951 0.77937 1.5 0.397805 1.5 0 
C 1.5 -0.397805 1.341951 -0.77937 1.06066 -1.06066 
C 0.77937 -1.341951 0.397805 -1.5 0 -1.5 
C -0.397805 -1.5 -0.77937 -1.341951 -1.06066 -1.06066 
C -1.341951 -0.77937 -1.5 -0.397805 -1.5 0 
C -1.5 0.397805 -1.341951 0.77937 -1.06066 1.06066 
C -0.77937 1.341951 -0.397805 1.5 0 1.5 
z
" id="m935de50fc7" style="stroke:#ff00ff;"/>
    </defs>
    <g>
     <use style="fill:#ff00ff;stroke:#ff00ff;" x="334.528431" xlink:href="#m935de50fc7" y="132.92633"/>
     <use style="fill:#ff00ff;stroke:#ff00ff;" x="334.528431" xlink:href="#m935de50fc7" y="132.92633"/>
    </g>
   </g>
   <g id="line2d_29">
    <path d="M 132.726171 298.245375 
L 132.726171 293.079155 
L 153.085714 293.079155 
L 153.085714 292.562533 
L 158.091535 292.562533 
L 158.091535 292.045911 
L 161.742488 292.045911 
L 161.779141 289.979423 
L 162.105674 289.979423 
L 162.105674 289.462801 
L 165.018567 289.462801 
L 165.018567 287.396313 
L 167.038082 287.396313 
L 167.038082 286.879691 
L 167.83828 286.879691 
L 167.83828 286.363069 
L 168.019948 286.363069 
L 168.019948 285.846447 
L 169.386487 285.846447 
L 169.386487 284.296581 
L 170.476769 284.296581 
L 170.566559 280.680226 
L 171.567958 280.680226 
L 171.567958 279.13036 
L 172.576328 279.13036 
L 172.576328 278.613738 
L 174.400802 278.613738 
L 174.400802 277.580494 
L 176.766419 277.580494 
L 176.766419 277.063872 
L 180.648813 277.063872 
L 180.648813 274.480762 
L 185.600304 274.480762 
L 185.600304 272.930896 
L 185.849541 272.930896 
L 185.849541 272.414274 
L 186.840154 272.414274 
L 186.840154 270.347786 
L 187.727375 270.347786 
L 187.727375 269.831164 
L 188.441355 269.831164 
L 188.441355 268.79792 
L 192.822663 268.79792 
L 192.822663 268.281298 
L 202.715769 268.281298 
L 202.715769 267.764676 
L 206.017288 267.764676 
L 206.017288 267.248054 
L 211.230605 267.248054 
L 211.230605 265.181566 
L 211.41821 265.181566 
L 211.499956 262.081834 
L 211.626376 262.081834 
L 211.626376 261.565212 
L 212.514974 261.565212 
L 212.514974 260.531968 
L 214.991399 260.531968 
L 214.991399 258.982102 
L 215.160169 258.982102 
L 215.160169 258.46548 
L 215.434927 258.46548 
L 215.434927 257.948858 
L 218.187232 257.948858 
L 218.187232 257.432236 
L 218.91546 257.432236 
L 218.91546 254.332504 
L 219.19157 254.332504 
L 219.19157 253.815882 
L 220.25106 253.815882 
L 220.25106 253.29926 
L 220.624728 253.29926 
L 220.624728 252.782638 
L 221.876795 252.782638 
L 221.876795 250.199528 
L 222.454222 250.199528 
L 222.454222 249.682906 
L 223.358706 249.682906 
L 223.358706 248.13304 
L 224.495401 248.13304 
L 224.542413 244.516685 
L 225.558933 244.516685 
L 225.618658 239.350465 
L 225.957753 239.350465 
L 225.957753 238.317221 
L 226.559777 238.317221 
L 226.559777 235.217489 
L 227.455653 235.217489 
L 227.455653 234.700867 
L 227.850129 234.700867 
L 227.850129 232.117757 
L 236.461402 232.117757 
L 236.461402 230.567891 
L 237.776804 230.567891 
L 237.776804 226.434915 
L 239.903852 226.434915 
L 239.903852 224.368427 
L 241.687268 224.368427 
L 241.687268 223.335183 
L 241.900145 223.335183 
L 241.900145 222.818561 
L 244.083153 222.818561 
L 244.083153 219.718829 
L 244.71312 219.718829 
L 244.71312 218.168963 
L 245.252902 218.168963 
L 245.252902 217.652341 
L 245.471167 217.652341 
L 245.471167 216.102475 
L 246.001667 216.102475 
L 246.001667 214.035987 
L 247.290225 214.035987 
L 247.290225 213.519365 
L 250.139899 213.519365 
L 250.139899 209.90301 
L 250.346928 209.90301 
L 250.346928 204.73679 
L 252.340312 204.73679 
L 252.340312 204.220168 
L 256.144688 204.220168 
L 256.144688 202.670302 
L 257.262498 202.670302 
L 257.262498 202.15368 
L 258.129287 202.15368 
L 258.129287 200.603814 
L 259.592735 200.603814 
L 259.592735 200.087192 
L 260.805576 200.087192 
L 260.805576 199.57057 
L 261.589007 199.57057 
L 261.589007 194.40435 
L 262.55612 194.40435 
L 262.643711 190.787996 
L 262.762535 190.787996 
L 262.762535 189.754752 
L 266.184202 189.754752 
L 266.214331 188.721508 
L 266.305153 188.721508 
L 266.305153 188.204886 
L 267.04373 188.204886 
L 267.04373 187.688264 
L 268.909589 187.688264 
L 268.909589 187.171642 
L 269.830825 187.171642 
L 269.830825 184.588532 
L 271.075333 184.588532 
L 271.168038 181.4888 
L 271.190839 181.4888 
L 271.190839 180.455556 
L 271.458641 180.455556 
L 271.458641 179.938934 
L 271.781425 179.938934 
L 271.781425 178.90569 
L 271.921374 178.90569 
L 271.921374 178.389067 
L 272.290682 178.389067 
L 272.290682 177.872445 
L 272.864682 177.872445 
L 272.864682 177.355823 
L 274.46434 177.355823 
L 274.540664 176.322579 
L 274.955982 176.322579 
L 275.007832 175.289335 
L 276.276494 175.289335 
L 276.276494 174.772713 
L 276.419153 174.772713 
L 276.440995 173.739469 
L 276.652525 173.739469 
L 276.652525 173.222847 
L 277.739465 173.222847 
L 277.807074 172.189603 
L 278.612175 172.189603 
L 278.684955 171.156359 
L 278.946399 171.156359 
L 278.946399 170.639737 
L 279.761205 170.639737 
L 279.761205 170.123115 
L 279.985071 170.123115 
L 279.985071 169.606493 
L 280.140651 169.606493 
L 280.140651 169.089871 
L 280.395299 169.089871 
L 280.395299 168.573249 
L 281.181841 168.573249 
L 281.181841 167.540005 
L 281.904098 167.540005 
L 281.904098 167.023383 
L 282.414941 167.023383 
L 282.414941 166.506761 
L 283.50698 166.506761 
L 283.50698 165.990139 
L 285.24725 165.990139 
L 285.24725 165.473517 
L 286.090064 165.473517 
L 286.106854 163.923651 
L 286.227197 163.923651 
L 286.227197 163.407029 
L 286.753121 163.407029 
L 286.753121 162.890407 
L 286.87494 162.890407 
L 286.942287 161.857163 
L 287.114339 161.857163 
L 287.114339 161.340541 
L 287.338032 161.340541 
L 287.338032 160.823919 
L 287.908808 160.823919 
L 287.909501 159.790675 
L 288.267959 159.790675 
L 288.267959 159.274053 
L 288.787673 159.274053 
L 288.787673 158.757431 
L 289.936208 158.757431 
L 289.936208 158.240809 
L 290.357146 158.240809 
L 290.357146 157.724187 
L 290.515662 157.724187 
L 290.515662 157.207565 
L 290.629694 157.207565 
L 290.629694 156.690943 
L 291.645655 156.690943 
L 291.645655 156.174321 
L 292.330043 156.174321 
L 292.330043 155.657699 
L 293.073052 155.657699 
L 293.160614 154.624455 
L 293.424547 154.624455 
L 293.424547 154.107833 
L 294.662075 154.107833 
L 294.662075 153.591211 
L 295.994292 153.591211 
L 295.994292 153.074589 
L 296.944951 153.074589 
L 296.998953 152.041345 
L 298.438003 152.041345 
L 298.438003 151.524723 
L 298.964332 151.524723 
L 298.964332 151.008101 
L 299.17343 151.008101 
L 299.17343 150.491479 
L 299.653858 150.491479 
L 299.653858 149.974857 
L 299.913655 149.974857 
L 299.913655 149.458235 
L 300.437181 149.458235 
L 300.471747 148.424991 
L 301.9941 148.424991 
L 301.9941 147.908369 
L 302.73704 147.908369 
L 302.781285 146.875125 
L 304.999389 146.875125 
L 304.999389 146.358503 
L 305.618584 146.358503 
L 305.618584 145.841881 
L 308.059862 145.841881 
L 308.059862 145.325259 
L 308.984135 145.325259 
L 308.984135 144.808637 
L 309.946747 144.808637 
L 309.946747 144.292014 
L 310.603771 144.292014 
L 310.603771 143.775392 
L 312.393753 143.775392 
L 312.454907 142.742148 
L 312.936411 142.742148 
L 312.936411 142.225526 
L 313.051973 142.225526 
L 313.051973 141.708904 
L 313.84557 141.708904 
L 313.84557 141.192282 
L 314.767567 141.192282 
L 314.767567 140.67566 
L 315.472454 140.67566 
L 315.472454 140.159038 
L 315.606696 140.159038 
L 315.606696 139.642416 
L 317.825168 139.642416 
L 317.825168 139.125794 
L 320.203875 139.125794 
L 320.203875 138.609172 
L 321.391333 138.609172 
L 321.391333 138.09255 
L 322.174845 138.09255 
L 322.174845 137.575928 
L 322.944845 137.575928 
L 322.944845 137.059306 
L 323.159437 137.059306 
L 323.159437 136.542684 
L 325.184667 136.542684 
L 325.184667 136.026062 
L 329.320613 136.026062 
L 329.320613 135.50944 
L 330.261891 135.50944 
L 330.261891 134.992818 
L 330.389893 134.992818 
L 330.389893 134.476196 
L 331.867294 134.476196 
L 331.867294 133.959574 
L 333.635382 133.959574 
L 333.635382 133.442952 
L 334.528431 133.442952 
L 334.528431 132.92633 
L 358.8 132.92633 
L 358.8 132.92633 
" style="fill:none;stroke:#ff00ff;stroke-linecap:square;stroke-width:1.5;"/>
   </g>
   <g id="line2d_30">
    <defs>
     <path d="M -0 8.485281 
L 5.091169 0 
L 0 -8.485281 
L -5.091169 -0 
z
" id="m0b4bf61640" style="stroke:#ff00ff;stroke-linejoin:miter;stroke-width:1.5;"/>
    </defs>
    <g>
     <use style="fill:none;stroke:#ff00ff;stroke-linejoin:miter;stroke-width:1.5;" x="202.715769" xlink:href="#m0b4bf61640" y="267.764676"/>
     <use style="fill:none;stroke:#ff00ff;stroke-linejoin:miter;stroke-width:1.5;" x="258.129287" xlink:href="#m0b4bf61640" y="202.15368"/>
     <use style="fill:none;stroke:#ff00ff;stroke-linejoin:miter;stroke-width:1.5;" x="315.472454" xlink:href="#m0b4bf61640" y="140.159038"/>
     <use style="fill:none;stroke:#ff00ff;stroke-linejoin:miter;stroke-width:1.5;" x="334.528431" xlink:href="#m0b4bf61640" y="132.92633"/>
     <use style="fill:none;stroke:#ff00ff;stroke-linejoin:miter;stroke-width:1.5;" x="358.8" xlink:href="#m0b4bf61640" y="132.92633"/>
    </g>
   </g>
   <g id="line2d_31"/>
   <g id="line2d_32">
    <path clip-path="url(#pf104ad6f66)" d="M 258.129287 200.603814 
" style="fill:none;stroke:#ff00ff;stroke-linecap:square;stroke-width:1.5;"/>
    <defs>
     <path d="M -12 12 
L 12 -12 
M -12 -12 
L 12 12 
" id="mf9c32d3ff5" style="stroke:#ff00ff;stroke-width:3;"/>
    </defs>
    <g clip-path="url(#pf104ad6f66)">
     <use style="fill:#ff00ff;stroke:#ff00ff;stroke-width:3;" x="258.129287" xlink:href="#mf9c32d3ff5" y="200.603814"/>
    </g>
   </g>
   <g id="line2d_33">
    <defs>
     <path d="M 0 1.5 
C 0.397805 1.5 0.77937 1.341951 1.06066 1.06066 
C 1.341951 0.77937 1.5 0.397805 1.5 0 
C 1.5 -0.397805 1.341951 -0.77937 1.06066 -1.06066 
C 0.77937 -1.341951 0.397805 -1.5 0 -1.5 
C -0.397805 -1.5 -0.77937 -1.341951 -1.06066 -1.06066 
C -1.341951 -0.77937 -1.5 -0.397805 -1.5 0 
C -1.5 0.397805 -1.341951 0.77937 -1.06066 1.06066 
C -0.77937 1.341951 -0.397805 1.5 0 1.5 
z
" id="m06a5a7e5ec" style="stroke:#ffa500;"/>
    </defs>
    <g>
     <use style="fill:#ffa500;stroke:#ffa500;" x="335.95024" xlink:href="#m06a5a7e5ec" y="112.26145"/>
     <use style="fill:#ffa500;stroke:#ffa500;" x="335.95024" xlink:href="#m06a5a7e5ec" y="112.26145"/>
    </g>
   </g>
   <g id="line2d_34">
    <path d="M 51.169868 298.245375 
L 51.169868 297.728753 
L 129.909638 297.728753 
L 129.909638 294.112399 
L 144.350945 294.112399 
L 144.350945 293.079155 
L 145.018098 293.079155 
L 145.111405 289.462801 
L 145.296568 289.462801 
L 145.388435 283.263337 
L 145.479832 283.263337 
L 145.570765 275.514006 
L 145.751252 275.514006 
L 145.751252 273.447518 
L 151.003475 273.447518 
L 151.003475 272.414274 
L 151.980117 272.414274 
L 151.980117 271.897652 
L 152.106394 271.897652 
L 152.106394 271.38103 
L 152.231785 271.38103 
L 152.294152 269.831164 
L 152.541466 269.831164 
L 152.602763 268.79792 
L 152.785403 268.79792 
L 152.785403 268.281298 
L 152.906134 268.281298 
L 152.906134 267.248054 
L 157.58946 267.248054 
L 157.58946 265.698188 
L 157.819426 265.698188 
L 157.819426 264.664944 
L 161.705761 264.664944 
L 161.705761 264.148322 
L 164.301877 264.148322 
L 164.301877 263.6317 
L 165.018567 263.6317 
L 165.018567 263.115078 
L 167.308816 263.115078 
L 167.308816 262.598456 
L 167.968231 262.598456 
L 167.968231 262.081834 
L 170.090047 262.081834 
L 170.090047 261.04859 
L 170.454251 261.04859 
L 170.454251 260.531968 
L 173.397546 260.531968 
L 173.397546 260.015346 
L 175.50423 260.015346 
L 175.50423 258.982102 
L 178.326423 258.982102 
L 178.326423 258.46548 
L 178.54266 258.46548 
L 178.614161 257.432236 
L 179.491385 257.432236 
L 179.491385 255.88237 
L 188.800033 255.88237 
L 188.800033 254.849126 
L 190.899213 254.849126 
L 190.899213 254.332504 
L 192.523771 254.332504 
L 192.523771 252.266016 
L 193.567276 252.266016 
L 193.567276 251.232772 
L 193.988727 251.232772 
L 194.097056 249.166284 
L 197.550722 249.166284 
L 197.550722 248.649662 
L 202.216218 248.649662 
L 202.216218 248.13304 
L 203.430952 248.13304 
L 203.430952 247.099796 
L 203.765868 247.099796 
L 203.765868 246.066551 
L 205.915388 246.066551 
L 205.915388 245.033307 
L 206.240662 245.033307 
L 206.240662 244.516685 
L 208.534775 244.516685 
L 208.534775 244.000063 
L 209.041032 244.000063 
L 209.041032 243.483441 
L 210.227817 243.483441 
L 210.32486 238.833843 
L 210.684151 238.833843 
L 210.781113 237.283977 
L 210.856426 237.283977 
L 210.856426 236.250733 
L 211.929724 236.250733 
L 211.929724 235.734111 
L 214.805964 235.734111 
L 214.805964 234.700867 
L 214.98208 234.700867 
L 214.98208 233.667623 
L 215.19889 233.667623 
L 215.19889 233.151001 
L 216.009089 233.151001 
L 216.009089 232.117757 
L 216.543178 232.117757 
L 216.543178 231.084513 
L 217.434561 231.084513 
L 217.507549 229.534647 
L 219.18715 229.534647 
L 219.18715 228.501403 
L 219.744169 228.501403 
L 219.849544 226.434915 
L 220.90797 226.434915 
L 220.90797 225.918293 
L 221.25779 225.918293 
L 221.25779 225.401671 
L 221.380713 225.401671 
L 221.380713 222.301939 
L 221.548039 222.301939 
L 221.548039 220.752073 
L 221.87933 220.752073 
L 221.969085 219.202207 
L 222.359476 219.202207 
L 222.359476 217.652341 
L 222.487326 217.652341 
L 222.487326 216.102475 
L 222.772891 216.102475 
L 222.772891 215.069231 
L 223.420431 215.069231 
L 223.420431 213.002743 
L 223.576697 213.002743 
L 223.576697 212.48612 
L 223.934962 212.48612 
L 223.934962 211.969498 
L 224.23516 211.969498 
L 224.23516 204.73679 
L 225.314879 204.73679 
L 225.344134 203.186924 
L 227.060808 203.186924 
L 227.089235 202.15368 
L 227.412003 202.15368 
L 227.412003 201.637058 
L 227.656731 201.637058 
L 227.656731 200.603814 
L 228.461964 200.603814 
L 228.461964 199.57057 
L 229.817357 199.57057 
L 229.817357 198.020704 
L 230.001708 198.020704 
L 230.001708 197.504082 
L 230.257279 197.504082 
L 230.257279 195.437594 
L 230.749998 195.437594 
L 230.749998 194.40435 
L 232.76149 194.40435 
L 232.76149 192.854484 
L 233.458367 192.854484 
L 233.458367 188.204886 
L 233.953918 188.204886 
L 233.953918 187.171642 
L 234.83516 187.171642 
L 234.83516 186.138398 
L 235.766675 186.138398 
L 235.766675 185.105154 
L 236.586483 185.105154 
L 236.586483 184.588532 
L 236.733889 184.588532 
L 236.771377 179.938934 
L 237.011522 179.938934 
L 237.011522 179.422312 
L 237.157094 179.422312 
L 237.157094 177.355823 
L 237.998752 177.355823 
L 237.998752 175.805957 
L 238.336429 175.805957 
L 238.336429 174.772713 
L 239.153476 174.772713 
L 239.153476 173.739469 
L 240.36149 173.739469 
L 240.36149 172.706225 
L 241.162671 172.706225 
L 241.162671 171.672981 
L 241.425622 171.672981 
L 241.425622 171.156359 
L 242.659158 171.156359 
L 242.693983 169.089871 
L 243.073412 169.089871 
L 243.073412 168.573249 
L 245.110156 168.573249 
L 245.110156 166.506761 
L 245.733217 166.506761 
L 245.770199 163.407029 
L 247.258407 163.407029 
L 247.258407 162.373785 
L 249.017843 162.373785 
L 249.017843 160.823919 
L 249.960216 160.823919 
L 249.960216 160.307297 
L 250.289129 160.307297 
L 250.289129 159.274053 
L 253.37391 159.274053 
L 253.37391 157.724187 
L 254.692565 157.724187 
L 254.692565 156.174321 
L 258.829498 156.174321 
L 258.829498 155.141077 
L 259.467617 155.141077 
L 259.467617 154.624455 
L 261.389196 154.624455 
L 261.389196 154.107833 
L 262.032485 154.107833 
L 262.032485 152.557967 
L 262.283347 152.557967 
L 262.283347 152.041345 
L 262.638143 152.041345 
L 262.638143 149.458235 
L 263.488634 149.458235 
L 263.55838 146.875125 
L 264.538973 146.875125 
L 264.538973 146.358503 
L 265.830765 146.358503 
L 265.830765 145.841881 
L 265.996344 145.841881 
L 265.996344 144.808637 
L 266.864944 144.808637 
L 266.864944 144.292014 
L 267.466329 144.292014 
L 267.466329 143.775392 
L 268.342714 143.775392 
L 268.342714 143.25877 
L 268.568338 143.25877 
L 268.568338 142.225526 
L 268.697764 142.225526 
L 268.697764 140.67566 
L 269.987619 140.67566 
L 270.028594 139.642416 
L 271.652729 139.642416 
L 271.652729 138.609172 
L 272.051903 138.609172 
L 272.051903 137.575928 
L 273.874408 137.575928 
L 273.894419 136.026062 
L 274.58325 136.026062 
L 274.58325 135.50944 
L 276.998154 135.50944 
L 276.998154 134.992818 
L 277.447344 134.992818 
L 277.447344 134.476196 
L 278.957624 134.476196 
L 278.957624 133.442952 
L 280.551306 133.442952 
L 280.613917 132.409708 
L 281.387971 132.409708 
L 281.432668 131.376464 
L 281.615672 131.376464 
L 281.615672 130.859842 
L 281.949853 130.859842 
L 281.949853 130.34322 
L 283.466784 130.34322 
L 283.466784 129.826598 
L 285.472012 129.826598 
L 285.472012 129.309976 
L 286.617307 129.309976 
L 286.617307 128.793354 
L 286.773896 128.793354 
L 286.773896 128.276732 
L 288.252341 128.276732 
L 288.284087 127.243488 
L 290.79276 127.243488 
L 290.888212 126.210244 
L 291.293334 126.210244 
L 291.293334 125.693622 
L 291.970762 125.693622 
L 292.03392 124.660378 
L 292.101935 124.660378 
L 292.101935 124.143756 
L 293.326421 124.143756 
L 293.326421 123.627134 
L 294.128641 123.627134 
L 294.128641 123.110512 
L 294.438918 123.110512 
L 294.438918 122.59389 
L 295.685498 122.59389 
L 295.685498 122.077268 
L 295.891228 122.077268 
L 295.891228 121.560646 
L 296.612221 121.560646 
L 296.612221 121.044024 
L 302.671356 121.044024 
L 302.671356 120.527402 
L 303.713826 120.527402 
L 303.713826 120.01078 
L 304.113415 120.01078 
L 304.113415 119.494158 
L 304.490019 119.494158 
L 304.490019 118.977536 
L 305.907118 118.977536 
L 305.907118 118.460914 
L 306.363137 118.460914 
L 306.363137 117.944292 
L 308.510115 117.944292 
L 308.510115 117.42767 
L 309.474869 117.42767 
L 309.474869 116.911048 
L 311.900317 116.911048 
L 311.900317 116.394426 
L 314.074902 116.394426 
L 314.074902 115.877804 
L 315.472925 115.877804 
L 315.472925 115.361182 
L 316.671153 115.361182 
L 316.671153 114.84456 
L 317.475998 114.84456 
L 317.475998 114.327938 
L 319.312694 114.327938 
L 319.312694 113.811316 
L 322.153453 113.811316 
L 322.153453 113.294694 
L 324.801051 113.294694 
L 324.801051 112.778072 
L 335.95024 112.778072 
L 335.95024 112.26145 
L 358.8 112.26145 
L 358.8 112.26145 
" style="fill:none;stroke:#ffa500;stroke-linecap:square;stroke-width:1.5;"/>
   </g>
   <g id="line2d_35">
    <defs>
     <path d="M 0 -6 
L -1.347084 -1.854102 
L -5.706339 -1.854102 
L -2.179628 0.708204 
L -3.526712 4.854102 
L -0 2.291796 
L 3.526712 4.854102 
L 2.179628 0.708204 
L 5.706339 -1.854102 
L 1.347084 -1.854102 
z
" id="m559aaeaf0d" style="stroke:#ffa500;stroke-linejoin:bevel;stroke-width:1.5;"/>
    </defs>
    <g>
     <use style="fill:none;stroke:#ffa500;stroke-linejoin:bevel;stroke-width:1.5;" x="145.751252" xlink:href="#m559aaeaf0d" y="275.514006"/>
     <use style="fill:none;stroke:#ffa500;stroke-linejoin:bevel;stroke-width:1.5;" x="216.009089" xlink:href="#m559aaeaf0d" y="233.151001"/>
     <use style="fill:none;stroke:#ffa500;stroke-linejoin:bevel;stroke-width:1.5;" x="249.017843" xlink:href="#m559aaeaf0d" y="162.373785"/>
     <use style="fill:none;stroke:#ffa500;stroke-linejoin:bevel;stroke-width:1.5;" x="309.474869" xlink:href="#m559aaeaf0d" y="117.42767"/>
     <use style="fill:none;stroke:#ffa500;stroke-linejoin:bevel;stroke-width:1.5;" x="335.95024" xlink:href="#m559aaeaf0d" y="112.26145"/>
     <use style="fill:none;stroke:#ffa500;stroke-linejoin:bevel;stroke-width:1.5;" x="358.8" xlink:href="#m559aaeaf0d" y="112.26145"/>
    </g>
   </g>
   <g id="line2d_36"/>
   <g id="line2d_37">
    <path clip-path="url(#pf104ad6f66)" d="M 268.697764 140.67566 
" style="fill:none;stroke:#ffa500;stroke-linecap:square;stroke-width:1.5;"/>
    <defs>
     <path d="M -12 12 
L 12 -12 
M -12 -12 
L 12 12 
" id="m422f8d84b9" style="stroke:#ffa500;stroke-width:3;"/>
    </defs>
    <g clip-path="url(#pf104ad6f66)">
     <use style="fill:#ffa500;stroke:#ffa500;stroke-width:3;" x="268.697764" xlink:href="#m422f8d84b9" y="140.67566"/>
    </g>
   </g>
   <g id="line2d_38">
    <defs>
     <path d="M 0 1.5 
C 0.397805 1.5 0.77937 1.341951 1.06066 1.06066 
C 1.341951 0.77937 1.5 0.397805 1.5 0 
C 1.5 -0.397805 1.341951 -0.77937 1.06066 -1.06066 
C 0.77937 -1.341951 0.397805 -1.5 0 -1.5 
C -0.397805 -1.5 -0.77937 -1.341951 -1.06066 -1.06066 
C -1.341951 -0.77937 -1.5 -0.397805 -1.5 0 
C -1.5 0.397805 -1.341951 0.77937 -1.06066 1.06066 
C -0.77937 1.341951 -0.397805 1.5 0 1.5 
z
" id="m747b679012" style="stroke:#6495ed;"/>
    </defs>
    <g>
     <use style="fill:#6495ed;stroke:#6495ed;" x="340.094219" xlink:href="#m747b679012" y="86.430349"/>
     <use style="fill:#6495ed;stroke:#6495ed;" x="340.094219" xlink:href="#m747b679012" y="86.430349"/>
    </g>
   </g>
   <g id="line2d_39">
    <path d="M 51.169868 298.245375 
L 51.169868 297.212131 
L 144.155663 297.212131 
L 144.155663 296.178887 
L 144.350945 296.178887 
L 144.350945 294.629021 
L 144.73522 294.629021 
L 144.830011 289.462801 
L 144.924302 289.462801 
L 144.924302 286.879691 
L 145.204226 286.879691 
L 145.296568 284.813203 
L 145.388435 284.813203 
L 145.388435 284.296581 
L 145.661236 284.296581 
L 145.751252 280.163604 
L 150.936427 280.163604 
L 150.936427 278.613738 
L 151.595842 278.613738 
L 151.595842 278.097116 
L 151.852942 278.097116 
L 151.852942 277.580494 
L 152.418237 277.580494 
L 152.418237 276.54725 
L 152.541466 276.54725 
L 152.541466 275.514006 
L 152.84587 275.514006 
L 152.84587 274.997384 
L 152.966195 274.997384 
L 152.966195 274.480762 
L 156.243913 274.480762 
L 156.243913 273.96414 
L 156.589918 273.96414 
L 156.589918 272.930896 
L 157.215245 272.930896 
L 157.215245 271.38103 
L 157.681802 271.38103 
L 157.681802 270.864408 
L 157.865067 270.864408 
L 157.865067 270.347786 
L 158.136486 270.347786 
L 158.136486 269.314542 
L 160.684447 269.314542 
L 160.684447 268.79792 
L 161.997491 268.79792 
L 161.997491 267.764676 
L 163.050927 267.764676 
L 163.050927 267.248054 
L 163.422138 267.248054 
L 163.422138 266.731432 
L 167.335665 266.731432 
L 167.389243 265.181566 
L 167.575509 265.181566 
L 167.575509 264.664944 
L 168.579166 264.664944 
L 168.579166 263.115078 
L 169.600479 263.115078 
L 169.600479 262.081834 
L 169.858592 262.081834 
L 169.858592 261.565212 
L 170.744796 261.565212 
L 170.744796 261.04859 
L 172.068966 261.04859 
L 172.068966 260.531968 
L 175.247623 260.531968 
L 175.247623 260.015346 
L 175.706895 260.015346 
L 175.706895 259.498724 
L 185.288699 259.498724 
L 185.288699 258.982102 
L 186.983674 258.982102 
L 186.983674 258.46548 
L 190.121897 258.46548 
L 190.121897 257.948858 
L 192.226458 257.948858 
L 192.226458 256.915614 
L 193.561094 256.915614 
L 193.561094 256.398992 
L 193.91008 256.398992 
L 193.91008 255.88237 
L 194.06703 255.88237 
L 194.06703 255.365748 
L 194.791393 255.365748 
L 194.791393 254.849126 
L 196.05031 254.849126 
L 196.05031 254.332504 
L 196.306641 254.332504 
L 196.306641 253.815882 
L 198.163236 253.815882 
L 198.230015 252.782638 
L 198.400595 252.782638 
L 198.400595 251.749394 
L 199.274853 251.749394 
L 199.274853 250.199528 
L 199.705217 250.199528 
L 199.705217 249.166284 
L 201.461553 249.166284 
L 201.461553 248.13304 
L 203.491347 248.13304 
L 203.491347 247.616418 
L 205.983386 247.616418 
L 205.983386 247.099796 
L 207.251498 247.099796 
L 207.251498 246.583173 
L 208.633457 246.583173 
L 208.633457 245.549929 
L 209.14989 245.549929 
L 209.14989 245.033307 
L 209.350311 245.033307 
L 209.350311 244.516685 
L 210.627148 244.516685 
L 210.627148 244.000063 
L 211.3155 244.000063 
L 211.3155 242.966819 
L 212.373146 242.966819 
L 212.373146 242.450197 
L 213.404285 242.450197 
L 213.404285 241.933575 
L 213.834863 241.933575 
L 213.834863 241.416953 
L 214.481063 241.416953 
L 214.481063 239.867087 
L 214.660394 239.867087 
L 214.660394 238.833843 
L 215.125063 238.833843 
L 215.125063 238.317221 
L 215.682235 238.317221 
L 215.682235 236.767355 
L 216.923491 236.767355 
L 216.923491 235.734111 
L 217.075036 235.734111 
L 217.075036 235.217489 
L 217.312249 235.217489 
L 217.312249 234.700867 
L 217.539892 234.700867 
L 217.539892 233.667623 
L 218.190348 233.667623 
L 218.190348 232.117757 
L 219.311954 232.117757 
L 219.311954 231.601135 
L 220.658684 231.601135 
L 220.658684 231.084513 
L 222.102252 231.084513 
L 222.102252 230.051269 
L 222.990959 230.051269 
L 222.990959 229.018025 
L 223.450633 229.018025 
L 223.450633 227.984781 
L 223.860252 227.984781 
L 223.860252 226.434915 
L 224.443875 226.434915 
L 224.540229 224.368427 
L 224.874505 224.368427 
L 224.874505 223.851805 
L 225.326378 223.851805 
L 225.326378 223.335183 
L 225.567183 223.335183 
L 225.567183 222.818561 
L 226.769206 222.818561 
L 226.769206 221.785317 
L 227.365449 221.785317 
L 227.385948 220.235451 
L 227.537095 220.235451 
L 227.537095 219.718829 
L 228.058503 219.718829 
L 228.058503 218.685585 
L 228.18718 218.685585 
L 228.18718 218.168963 
L 228.697143 218.168963 
L 228.720491 215.069231 
L 228.99917 215.069231 
L 228.99917 214.552609 
L 229.844969 214.552609 
L 229.844969 214.035987 
L 230.646329 214.035987 
L 230.646329 211.969498 
L 231.086233 211.969498 
L 231.138392 209.386388 
L 231.283482 209.386388 
L 231.283482 206.286656 
L 232.068601 206.286656 
L 232.175047 202.15368 
L 232.777337 202.15368 
L 232.777337 201.637058 
L 233.325958 201.637058 
L 233.325958 201.120436 
L 233.692818 201.120436 
L 233.692818 200.087192 
L 235.018343 200.087192 
L 235.105004 198.020704 
L 236.064782 198.020704 
L 236.064782 196.98746 
L 237.195319 196.98746 
L 237.265633 195.954216 
L 238.77844 195.954216 
L 238.77844 194.920972 
L 239.083451 194.920972 
L 239.083451 194.40435 
L 240.666988 194.40435 
L 240.666988 193.887728 
L 241.400138 193.887728 
L 241.400138 190.787996 
L 241.649585 190.787996 
L 241.649585 189.23813 
L 241.892704 189.23813 
L 241.892704 184.588532 
L 244.515351 184.588532 
L 244.515351 184.07191 
L 245.247762 184.07191 
L 245.247762 183.555288 
L 246.365568 183.555288 
L 246.464764 179.938934 
L 247.479655 179.938934 
L 247.479655 178.90569 
L 247.710145 178.90569 
L 247.710145 177.872445 
L 250.211166 177.872445 
L 250.228549 174.256091 
L 252.16433 174.256091 
L 252.16433 173.739469 
L 253.435998 173.739469 
L 253.435998 172.706225 
L 253.636415 172.706225 
L 253.636415 172.189603 
L 254.069365 172.189603 
L 254.069365 171.156359 
L 254.969766 171.156359 
L 254.969766 170.123115 
L 256.282895 170.123115 
L 256.282895 169.606493 
L 256.511679 169.606493 
L 256.511679 167.023383 
L 257.16655 167.023383 
L 257.16655 166.506761 
L 257.281032 166.506761 
L 257.281032 165.990139 
L 257.525927 165.990139 
L 257.525927 165.473517 
L 258.297315 165.473517 
L 258.297315 164.956895 
L 260.553448 164.956895 
L 260.553448 163.407029 
L 262.96265 163.407029 
L 262.96265 162.373785 
L 263.412912 162.373785 
L 263.412912 160.823919 
L 264.154168 160.823919 
L 264.154168 158.757431 
L 264.338426 158.757431 
L 264.338426 157.724187 
L 265.235044 157.724187 
L 265.257312 156.174321 
L 265.425496 156.174321 
L 265.425496 152.557967 
L 265.902424 152.557967 
L 265.902424 151.524723 
L 266.65883 151.524723 
L 266.65883 151.008101 
L 267.202099 151.008101 
L 267.202099 149.974857 
L 269.173088 149.974857 
L 269.217675 148.941613 
L 269.912109 148.941613 
L 269.912109 148.424991 
L 271.931614 148.424991 
L 271.931614 145.841881 
L 272.612544 145.841881 
L 272.612544 145.325259 
L 272.832508 145.325259 
L 272.832508 144.808637 
L 273.422798 144.808637 
L 273.422798 144.292014 
L 274.045367 144.292014 
L 274.045367 142.742148 
L 274.29871 142.742148 
L 274.341607 141.192282 
L 274.486037 141.192282 
L 274.486037 140.67566 
L 274.599765 140.67566 
L 274.632684 139.642416 
L 275.179117 139.642416 
L 275.179117 139.125794 
L 275.878744 139.125794 
L 275.878744 138.609172 
L 276.947069 138.609172 
L 276.947069 138.09255 
L 277.186371 138.09255 
L 277.186371 137.575928 
L 279.781258 137.575928 
L 279.839106 136.542684 
L 280.34538 136.542684 
L 280.34538 136.026062 
L 280.983605 136.026062 
L 280.983605 135.50944 
L 282.536023 135.50944 
L 282.536023 134.992818 
L 283.180762 134.992818 
L 283.180762 134.476196 
L 283.675125 134.476196 
L 283.675125 133.959574 
L 284.906594 133.959574 
L 284.906594 133.442952 
L 285.404963 133.442952 
L 285.406194 131.893086 
L 286.726673 131.893086 
L 286.726673 131.376464 
L 288.174884 131.376464 
L 288.174884 130.34322 
L 288.437331 130.34322 
L 288.473905 129.309976 
L 288.703297 129.309976 
L 288.703297 128.793354 
L 289.078611 128.793354 
L 289.078611 128.276732 
L 290.034769 128.276732 
L 290.034769 127.76011 
L 290.994151 127.76011 
L 290.994151 127.243488 
L 291.28974 127.243488 
L 291.28974 126.726866 
L 292.342991 126.726866 
L 292.392607 125.693622 
L 292.516961 125.693622 
L 292.516961 125.177 
L 293.204645 125.177 
L 293.204645 124.660378 
L 295.103649 124.660378 
L 295.103649 124.143756 
L 295.560971 124.143756 
L 295.560971 123.627134 
L 296.461467 123.627134 
L 296.461467 123.110512 
L 296.58247 123.110512 
L 296.58247 122.59389 
L 296.796491 122.59389 
L 296.807265 121.560646 
L 297.125894 121.560646 
L 297.172382 120.527402 
L 297.51405 120.527402 
L 297.51405 120.01078 
L 298.796797 120.01078 
L 298.81363 118.977536 
L 299.84019 118.977536 
L 299.84019 118.460914 
L 300.197428 118.460914 
L 300.301375 117.42767 
L 300.388572 117.42767 
L 300.388572 116.911048 
L 301.541614 116.911048 
L 301.541614 116.394426 
L 301.886533 116.394426 
L 301.886533 115.877804 
L 302.386197 115.877804 
L 302.386197 115.361182 
L 302.963778 115.361182 
L 302.963778 114.84456 
L 303.107205 114.84456 
L 303.107205 114.327938 
L 303.793311 114.327938 
L 303.793311 113.811316 
L 304.130705 113.811316 
L 304.130705 113.294694 
L 304.416105 113.294694 
L 304.455463 112.26145 
L 304.848398 112.26145 
L 304.848398 111.744828 
L 305.193702 111.744828 
L 305.193702 111.228206 
L 305.583196 111.228206 
L 305.583196 110.711584 
L 306.23988 110.711584 
L 306.23988 110.194961 
L 306.806659 110.194961 
L 306.806659 109.678339 
L 308.259126 109.678339 
L 308.259126 109.161717 
L 308.48193 109.161717 
L 308.48193 108.645095 
L 309.473579 108.645095 
L 309.473579 108.128473 
L 310.106212 108.128473 
L 310.106212 107.611851 
L 310.533923 107.611851 
L 310.533923 107.095229 
L 311.696108 107.095229 
L 311.696108 106.578607 
L 312.134513 106.578607 
L 312.134513 106.061985 
L 312.871677 106.061985 
L 312.871677 105.545363 
L 313.418777 105.545363 
L 313.418777 105.028741 
L 314.803979 105.028741 
L 314.803979 104.512119 
L 315.4427 104.512119 
L 315.48517 103.478875 
L 317.892299 103.478875 
L 317.932355 102.445631 
L 318.145069 102.445631 
L 318.145069 101.929009 
L 318.751565 101.929009 
L 318.751565 101.412387 
L 319.090588 101.412387 
L 319.090588 100.895765 
L 319.246332 100.895765 
L 319.246332 100.379143 
L 320.816629 100.379143 
L 320.816629 99.862521 
L 321.352251 99.862521 
L 321.352251 99.345899 
L 321.887678 99.345899 
L 321.887678 98.829277 
L 322.022879 98.829277 
L 322.064963 97.796033 
L 323.201647 97.796033 
L 323.201647 97.279411 
L 323.464651 97.279411 
L 323.528351 96.246167 
L 323.97033 96.246167 
L 323.97033 95.729545 
L 324.418514 95.729545 
L 324.418514 95.212923 
L 324.617986 95.212923 
L 324.712655 94.179679 
L 324.760962 94.179679 
L 324.760962 93.663057 
L 325.457935 93.663057 
L 325.457935 93.146435 
L 326.221244 93.146435 
L 326.221244 92.629813 
L 327.297265 92.629813 
L 327.297265 92.113191 
L 327.530323 92.113191 
L 327.530323 91.596569 
L 328.142072 91.596569 
L 328.142072 91.079947 
L 329.22138 91.079947 
L 329.22138 90.563325 
L 329.467025 90.563325 
L 329.467025 90.046703 
L 329.604016 90.046703 
L 329.604016 89.530081 
L 330.576784 89.530081 
L 330.686057 88.496837 
L 331.405105 88.496837 
L 331.405105 87.980215 
L 333.217784 87.980215 
L 333.217784 87.463593 
L 339.57651 87.463593 
L 339.57651 86.946971 
L 340.094219 86.946971 
L 340.094219 86.430349 
L 358.8 86.430349 
L 358.8 86.430349 
" style="fill:none;stroke:#6495ed;stroke-linecap:square;stroke-width:1.5;"/>
   </g>
   <g id="line2d_40">
    <defs>
     <path d="M -0 6 
L 6 -6 
L -6 -6 
z
" id="mfe757cd051" style="stroke:#6495ed;stroke-linejoin:miter;stroke-width:1.5;"/>
    </defs>
    <g>
     <use style="fill:none;stroke:#6495ed;stroke-linejoin:miter;stroke-width:1.5;" x="150.936427" xlink:href="#mfe757cd051" y="278.613738"/>
     <use style="fill:none;stroke:#6495ed;stroke-linejoin:miter;stroke-width:1.5;" x="218.190348" xlink:href="#mfe757cd051" y="233.667623"/>
     <use style="fill:none;stroke:#6495ed;stroke-linejoin:miter;stroke-width:1.5;" x="260.553448" xlink:href="#mfe757cd051" y="164.956895"/>
     <use style="fill:none;stroke:#6495ed;stroke-linejoin:miter;stroke-width:1.5;" x="321.352251" xlink:href="#mfe757cd051" y="99.345899"/>
     <use style="fill:none;stroke:#6495ed;stroke-linejoin:miter;stroke-width:1.5;" x="340.094219" xlink:href="#mfe757cd051" y="86.430349"/>
     <use style="fill:none;stroke:#6495ed;stroke-linejoin:miter;stroke-width:1.5;" x="358.8" xlink:href="#mfe757cd051" y="86.430349"/>
    </g>
   </g>
   <g id="line2d_41"/>
   <g id="line2d_42">
    <path clip-path="url(#pf104ad6f66)" d="M 269.173088 149.458235 
" style="fill:none;stroke:#6495ed;stroke-linecap:square;stroke-width:1.5;"/>
    <defs>
     <path d="M -12 12 
L 12 -12 
M -12 -12 
L 12 12 
" id="m63c0eeef2b" style="stroke:#6495ed;stroke-width:3;"/>
    </defs>
    <g clip-path="url(#pf104ad6f66)">
     <use style="fill:#6495ed;stroke:#6495ed;stroke-width:3;" x="269.173088" xlink:href="#m63c0eeef2b" y="149.458235"/>
    </g>
   </g>
   <g id="line2d_43">
    <defs>
     <path d="M 0 1.5 
C 0.397805 1.5 0.77937 1.341951 1.06066 1.06066 
C 1.341951 0.77937 1.5 0.397805 1.5 0 
C 1.5 -0.397805 1.341951 -0.77937 1.06066 -1.06066 
C 0.77937 -1.341951 0.397805 -1.5 0 -1.5 
C -0.397805 -1.5 -0.77937 -1.341951 -1.06066 -1.06066 
C -1.341951 -0.77937 -1.5 -0.397805 -1.5 0 
C -1.5 0.397805 -1.341951 0.77937 -1.06066 1.06066 
C -0.77937 1.341951 -0.397805 1.5 0 1.5 
z
" id="m87de29f897" style="stroke:#ff0000;"/>
    </defs>
    <g>
     <use style="fill:#ff0000;stroke:#ff0000;" x="189.151653" xlink:href="#m87de29f897" y="34.768147"/>
     <use style="fill:#ff0000;stroke:#ff0000;" x="189.151653" xlink:href="#m87de29f897" y="34.768147"/>
    </g>
   </g>
   <g id="line2d_44">
    <path d="M 51.169868 298.245375 
L 51.169868 289.462801 
L 144.057215 289.462801 
L 144.057215 285.329825 
L 144.73522 285.329825 
L 144.73522 282.230093 
L 145.111405 282.230093 
L 145.204226 278.613738 
L 145.296568 278.613738 
L 145.388435 270.347786 
L 145.479832 270.347786 
L 145.570765 266.21481 
L 145.661236 266.21481 
L 145.661236 263.6317 
L 145.840817 263.6317 
L 145.840817 262.598456 
L 150.321403 262.598456 
L 150.321403 261.565212 
L 152.356302 261.565212 
L 152.356302 261.04859 
L 152.479957 261.04859 
L 152.541466 259.498724 
L 152.785403 259.498724 
L 152.785403 258.46548 
L 152.966195 258.46548 
L 152.966195 256.915614 
L 156.293754 256.915614 
L 156.293754 256.398992 
L 157.58946 256.398992 
L 157.58946 255.88237 
L 157.865067 255.88237 
L 157.865067 255.365748 
L 158.04647 255.365748 
L 158.091535 254.332504 
L 160.010099 254.332504 
L 160.010099 253.815882 
L 161.296691 253.815882 
L 161.296691 253.29926 
L 161.88865 253.29926 
L 161.961284 251.232772 
L 162.177434 251.232772 
L 162.177434 250.71615 
L 162.982598 250.71615 
L 162.982598 249.682906 
L 164.110088 249.682906 
L 164.110088 248.649662 
L 165.200896 248.649662 
L 165.231104 247.099796 
L 165.351429 247.099796 
L 165.381384 229.534647 
L 166.735458 229.534647 
L 166.735458 228.501403 
L 167.628374 228.501403 
L 167.628374 227.468159 
L 167.864346 227.468159 
L 167.864346 226.951537 
L 169.169902 226.951537 
L 169.169902 225.918293 
L 169.290551 225.918293 
L 169.290551 224.885049 
L 169.576829 224.885049 
L 169.576829 224.368427 
L 170.067036 224.368427 
L 170.067036 223.851805 
L 170.52172 223.851805 
L 170.52172 220.752073 
L 171.290596 220.752073 
L 171.290596 207.836522 
L 172.007103 207.836522 
L 172.089539 192.337862 
L 172.130615 192.337862 
L 172.130615 179.938934 
L 172.354862 179.938934 
L 172.455869 168.056627 
L 172.636255 168.056627 
L 172.636255 158.757431 
L 173.147369 158.757431 
L 173.147369 147.391747 
L 173.53082 147.391747 
L 173.53082 146.358503 
L 174.29207 146.358503 
L 174.29207 134.476196 
L 175.622731 134.476196 
L 175.622731 133.959574 
L 175.957036 133.959574 
L 175.957036 132.409708 
L 177.204155 132.409708 
L 177.204155 122.59389 
L 177.796523 122.59389 
L 177.796523 109.161717 
L 179.841224 109.161717 
L 179.841224 108.645095 
L 180.32755 108.645095 
L 180.32755 107.095229 
L 181.543026 107.095229 
L 181.543026 91.079947 
L 181.831421 91.079947 
L 181.831421 77.647775 
L 183.621994 77.647775 
L 183.621994 77.131153 
L 184.587506 77.131153 
L 184.628324 61.11587 
L 185.522911 61.11587 
L 185.522911 47.683698 
L 187.812868 47.683698 
L 187.812868 47.167076 
L 189.151653 47.167076 
L 189.151653 34.768147 
L 358.8 34.768147 
L 358.8 34.768147 
" style="fill:none;stroke:#ff0000;stroke-linecap:square;stroke-width:1.5;"/>
   </g>
   <g id="line2d_45">
    <defs>
     <path d="M 0 -6 
L -5.196152 -3 
L -5.196152 3 
L -0 6 
L 5.196152 3 
L 5.196152 -3 
z
" id="m3adac4bfbb" style="stroke:#ff0000;stroke-linejoin:miter;stroke-width:1.5;"/>
    </defs>
    <g>
     <use style="fill:none;stroke:#ff0000;stroke-linejoin:miter;stroke-width:1.5;" x="164.110088" xlink:href="#m3adac4bfbb" y="249.682906"/>
     <use style="fill:none;stroke:#ff0000;stroke-linejoin:miter;stroke-width:1.5;" x="175.957036" xlink:href="#m3adac4bfbb" y="132.409708"/>
     <use style="fill:none;stroke:#ff0000;stroke-linejoin:miter;stroke-width:1.5;" x="189.151653" xlink:href="#m3adac4bfbb" y="47.167076"/>
     <use style="fill:none;stroke:#ff0000;stroke-linejoin:miter;stroke-width:1.5;" x="189.151653" xlink:href="#m3adac4bfbb" y="34.768147"/>
     <use style="fill:none;stroke:#ff0000;stroke-linejoin:miter;stroke-width:1.5;" x="189.151653" xlink:href="#m3adac4bfbb" y="34.768147"/>
     <use style="fill:none;stroke:#ff0000;stroke-linejoin:miter;stroke-width:1.5;" x="358.8" xlink:href="#m3adac4bfbb" y="34.768147"/>
    </g>
   </g>
   <g id="line2d_46"/>
   <g id="line2d_47">
    <path d="M 358.8 132.92633 
L 390.48 292.97583 
" style="fill:none;stroke:#ff00ff;stroke-linecap:square;stroke-width:1.5;"/>
    <g>
     <use style="fill:none;stroke:#ff00ff;stroke-linejoin:miter;stroke-width:1.5;" x="358.8" xlink:href="#m0b4bf61640" y="132.92633"/>
     <use style="fill:none;stroke:#ff00ff;stroke-linejoin:miter;stroke-width:1.5;" x="390.48" xlink:href="#m0b4bf61640" y="292.97583"/>
    </g>
   </g>
   <g id="line2d_48">
    <path d="M 358.8 112.26145 
L 390.48 229.741296 
" style="fill:none;stroke:#ffa500;stroke-linecap:square;stroke-width:1.5;"/>
    <g>
     <use style="fill:none;stroke:#ffa500;stroke-linejoin:bevel;stroke-width:1.5;" x="358.8" xlink:href="#m559aaeaf0d" y="112.26145"/>
     <use style="fill:none;stroke:#ffa500;stroke-linejoin:bevel;stroke-width:1.5;" x="390.48" xlink:href="#m559aaeaf0d" y="229.741296"/>
    </g>
   </g>
   <g id="line2d_49">
    <path d="M 358.8 86.430349 
L 390.48 166.506761 
" style="fill:none;stroke:#6495ed;stroke-linecap:square;stroke-width:1.5;"/>
    <g>
     <use style="fill:none;stroke:#6495ed;stroke-linejoin:miter;stroke-width:1.5;" x="358.8" xlink:href="#mfe757cd051" y="86.430349"/>
     <use style="fill:none;stroke:#6495ed;stroke-linejoin:miter;stroke-width:1.5;" x="390.48" xlink:href="#mfe757cd051" y="166.506761"/>
    </g>
   </g>
   <g id="line2d_50">
    <path d="M 358.8 34.768147 
L 390.48 103.272226 
" style="fill:none;stroke:#000080;stroke-linecap:square;stroke-width:1.5;"/>
    <g>
     <use style="fill:none;stroke:#000080;stroke-width:1.5;" x="358.8" xlink:href="#m2dbe3fe9d1" y="34.768147"/>
     <use style="fill:none;stroke:#000080;stroke-width:1.5;" x="390.48" xlink:href="#m2dbe3fe9d1" y="103.272226"/>
    </g>
   </g>
   <g id="line2d_51">
    <path d="M 358.8 34.768147 
L 390.48 40.037692 
" style="fill:none;stroke:#ff0000;stroke-linecap:square;stroke-width:1.5;"/>
    <g>
     <use style="fill:none;stroke:#ff0000;stroke-linejoin:miter;stroke-width:1.5;" x="358.8" xlink:href="#m3adac4bfbb" y="34.768147"/>
     <use style="fill:none;stroke:#ff0000;stroke-linejoin:miter;stroke-width:1.5;" x="390.48" xlink:href="#m3adac4bfbb" y="40.037692"/>
    </g>
   </g>
   <g id="line2d_52">
    <path d="M 358.8 298.245375 
L 358.8 34.768147 
" style="fill:none;stroke:#000000;stroke-linecap:square;stroke-width:1.5;"/>
   </g>
   <g id="patch_3">
    <path d="M 70.8 298.245375 
L 70.8 32.133375 
" style="fill:none;stroke:#000000;stroke-linecap:square;stroke-linejoin:miter;stroke-width:0.8;"/>
   </g>
   <g id="patch_4">
    <path d="M 427.92 298.245375 
L 427.92 32.133375 
" style="fill:none;stroke:#000000;stroke-linecap:square;stroke-linejoin:miter;stroke-width:0.8;"/>
   </g>
   <g id="patch_5">
    <path d="M 70.8 298.245375 
L 427.92 298.245375 
" style="fill:none;stroke:#000000;stroke-linecap:square;stroke-linejoin:miter;stroke-width:0.8;"/>
   </g>
   <g id="patch_6">
    <path d="M 70.8 32.133375 
L 427.92 32.133375 
" style="fill:none;stroke:#000000;stroke-linecap:square;stroke-linejoin:miter;stroke-width:0.8;"/>
   </g>
   <g id="text_14">
    <!-- f2 -->
    <g transform="translate(396.24 297.114893)scale(0.15 -0.15)">
     <use xlink:href="#DejaVuSans-66"/>
     <use x="35.205078" xlink:href="#DejaVuSans-32"/>
    </g>
   </g>
   <g id="text_15">
    <!-- f3 -->
    <defs>
     <path d="M 40.578125 39.3125 
Q 47.65625 37.796875 51.625 33 
Q 55.609375 28.21875 55.609375 21.1875 
Q 55.609375 10.40625 48.1875 4.484375 
Q 40.765625 -1.421875 27.09375 -1.421875 
Q 22.515625 -1.421875 17.65625 -0.515625 
Q 12.796875 0.390625 7.625 2.203125 
L 7.625 11.71875 
Q 11.71875 9.328125 16.59375 8.109375 
Q 21.484375 6.890625 26.8125 6.890625 
Q 36.078125 6.890625 40.9375 10.546875 
Q 45.796875 14.203125 45.796875 21.1875 
Q 45.796875 27.640625 41.28125 31.265625 
Q 36.765625 34.90625 28.71875 34.90625 
L 20.21875 34.90625 
L 20.21875 43.015625 
L 29.109375 43.015625 
Q 36.375 43.015625 40.234375 45.921875 
Q 44.09375 48.828125 44.09375 54.296875 
Q 44.09375 59.90625 40.109375 62.90625 
Q 36.140625 65.921875 28.71875 65.921875 
Q 24.65625 65.921875 20.015625 65.03125 
Q 15.375 64.15625 9.8125 62.3125 
L 9.8125 71.09375 
Q 15.4375 72.65625 20.34375 73.4375 
Q 25.25 74.21875 29.59375 74.21875 
Q 40.828125 74.21875 47.359375 69.109375 
Q 53.90625 64.015625 53.90625 55.328125 
Q 53.90625 49.265625 50.4375 45.09375 
Q 46.96875 40.921875 40.578125 39.3125 
z
" id="DejaVuSans-33"/>
    </defs>
    <g transform="translate(396.24 233.880358)scale(0.15 -0.15)">
     <use xlink:href="#DejaVuSans-66"/>
     <use x="35.205078" xlink:href="#DejaVuSans-33"/>
    </g>
   </g>
   <g id="text_16">
    <!-- f4 -->
    <g transform="translate(396.24 170.645824)scale(0.15 -0.15)">
     <use xlink:href="#DejaVuSans-66"/>
     <use x="35.205078" xlink:href="#DejaVuSans-34"/>
    </g>
   </g>
   <g id="text_17">
    <!-- f1 -->
    <g transform="translate(396.24 107.411289)scale(0.15 -0.15)">
     <use xlink:href="#DejaVuSans-66"/>
     <use x="35.205078" xlink:href="#DejaVuSans-31"/>
    </g>
   </g>
   <g id="text_18">
    <!-- f5 -->
    <defs>
     <path d="M 10.796875 72.90625 
L 49.515625 72.90625 
L 49.515625 64.59375 
L 19.828125 64.59375 
L 19.828125 46.734375 
Q 21.96875 47.46875 24.109375 47.828125 
Q 26.265625 48.1875 28.421875 48.1875 
Q 40.625 48.1875 47.75 41.5 
Q 54.890625 34.8125 54.890625 23.390625 
Q 54.890625 11.625 47.5625 5.09375 
Q 40.234375 -1.421875 26.90625 -1.421875 
Q 22.3125 -1.421875 17.546875 -0.640625 
Q 12.796875 0.140625 7.71875 1.703125 
L 7.71875 11.625 
Q 12.109375 9.234375 16.796875 8.0625 
Q 21.484375 6.890625 26.703125 6.890625 
Q 35.15625 6.890625 40.078125 11.328125 
Q 45.015625 15.765625 45.015625 23.390625 
Q 45.015625 31 40.078125 35.4375 
Q 35.15625 39.890625 26.703125 39.890625 
Q 22.75 39.890625 18.8125 39.015625 
Q 14.890625 38.140625 10.796875 36.28125 
z
" id="DejaVuSans-35"/>
    </defs>
    <g transform="translate(396.24 44.176754)scale(0.15 -0.15)">
     <use xlink:href="#DejaVuSans-66"/>
     <use x="35.205078" xlink:href="#DejaVuSans-35"/>
    </g>
   </g>
   <g id="text_19">
    <!-- bbob -->
    <defs>
     <path d="M 48.6875 27.296875 
Q 48.6875 37.203125 44.609375 42.84375 
Q 40.53125 48.484375 33.40625 48.484375 
Q 26.265625 48.484375 22.1875 42.84375 
Q 18.109375 37.203125 18.109375 27.296875 
Q 18.109375 17.390625 22.1875 11.75 
Q 26.265625 6.109375 33.40625 6.109375 
Q 40.53125 6.109375 44.609375 11.75 
Q 48.6875 17.390625 48.6875 27.296875 
z
M 18.109375 46.390625 
Q 20.953125 51.265625 25.265625 53.625 
Q 29.59375 56 35.59375 56 
Q 45.5625 56 51.78125 48.09375 
Q 58.015625 40.1875 58.015625 27.296875 
Q 58.015625 14.40625 51.78125 6.484375 
Q 45.5625 -1.421875 35.59375 -1.421875 
Q 29.59375 -1.421875 25.265625 0.953125 
Q 20.953125 3.328125 18.109375 8.203125 
L 18.109375 0 
L 9.078125 0 
L 9.078125 75.984375 
L 18.109375 75.984375 
z
" id="DejaVuSans-62"/>
    </defs>
    <g transform="translate(74.3712 50.114612)scale(0.1666 -0.1666)">
     <use xlink:href="#DejaVuSans-62"/>
     <use x="63.476562" xlink:href="#DejaVuSans-62"/>
     <use x="126.953125" xlink:href="#DejaVuSans-6f"/>
     <use x="188.134766" xlink:href="#DejaVuSans-62"/>
    </g>
    <!-- Separable functions, 3-D -->
    <defs>
     <path d="M 53.515625 70.515625 
L 53.515625 60.890625 
Q 47.90625 63.578125 42.921875 64.890625 
Q 37.9375 66.21875 33.296875 66.21875 
Q 25.25 66.21875 20.875 63.09375 
Q 16.5 59.96875 16.5 54.203125 
Q 16.5 49.359375 19.40625 46.890625 
Q 22.3125 44.4375 30.421875 42.921875 
L 36.375 41.703125 
Q 47.40625 39.59375 52.65625 34.296875 
Q 57.90625 29 57.90625 20.125 
Q 57.90625 9.515625 50.796875 4.046875 
Q 43.703125 -1.421875 29.984375 -1.421875 
Q 24.8125 -1.421875 18.96875 -0.25 
Q 13.140625 0.921875 6.890625 3.21875 
L 6.890625 13.375 
Q 12.890625 10.015625 18.65625 8.296875 
Q 24.421875 6.59375 29.984375 6.59375 
Q 38.421875 6.59375 43.015625 9.90625 
Q 47.609375 13.234375 47.609375 19.390625 
Q 47.609375 24.75 44.3125 27.78125 
Q 41.015625 30.8125 33.5 32.328125 
L 27.484375 33.5 
Q 16.453125 35.6875 11.515625 40.375 
Q 6.59375 45.0625 6.59375 53.421875 
Q 6.59375 63.09375 13.40625 68.65625 
Q 20.21875 74.21875 32.171875 74.21875 
Q 37.3125 74.21875 42.625 73.28125 
Q 47.953125 72.359375 53.515625 70.515625 
z
" id="DejaVuSans-53"/>
     <path d="M 11.71875 12.40625 
L 22.015625 12.40625 
L 22.015625 4 
L 14.015625 -11.625 
L 7.71875 -11.625 
L 11.71875 4 
z
" id="DejaVuSans-2c"/>
     <path d="M 19.671875 64.796875 
L 19.671875 8.109375 
L 31.59375 8.109375 
Q 46.6875 8.109375 53.6875 14.9375 
Q 60.6875 21.78125 60.6875 36.53125 
Q 60.6875 51.171875 53.6875 57.984375 
Q 46.6875 64.796875 31.59375 64.796875 
z
M 9.8125 72.90625 
L 30.078125 72.90625 
Q 51.265625 72.90625 61.171875 64.09375 
Q 71.09375 55.28125 71.09375 36.53125 
Q 71.09375 17.671875 61.125 8.828125 
Q 51.171875 0 30.078125 0 
L 9.8125 0 
z
" id="DejaVuSans-44"/>
    </defs>
    <g transform="translate(74.3712 68.770168)scale(0.1666 -0.1666)">
     <use xlink:href="#DejaVuSans-53"/>
     <use x="63.476562" xlink:href="#DejaVuSans-65"/>
     <use x="125" xlink:href="#DejaVuSans-70"/>
     <use x="188.476562" xlink:href="#DejaVuSans-61"/>
     <use x="249.755859" xlink:href="#DejaVuSans-72"/>
     <use x="290.869141" xlink:href="#DejaVuSans-61"/>
     <use x="352.148438" xlink:href="#DejaVuSans-62"/>
     <use x="415.625" xlink:href="#DejaVuSans-6c"/>
     <use x="443.408203" xlink:href="#DejaVuSans-65"/>
     <use x="504.931641" xlink:href="#DejaVuSans-20"/>
     <use x="536.71875" xlink:href="#DejaVuSans-66"/>
     <use x="571.923828" xlink:href="#DejaVuSans-75"/>
     <use x="635.302734" xlink:href="#DejaVuSans-6e"/>
     <use x="698.681641" xlink:href="#DejaVuSans-63"/>
     <use x="753.662109" xlink:href="#DejaVuSans-74"/>
     <use x="792.871094" xlink:href="#DejaVuSans-69"/>
     <use x="820.654297" xlink:href="#DejaVuSans-6f"/>
     <use x="881.835938" xlink:href="#DejaVuSans-6e"/>
     <use x="945.214844" xlink:href="#DejaVuSans-73"/>
     <use x="997.314453" xlink:href="#DejaVuSans-2c"/>
     <use x="1029.101562" xlink:href="#DejaVuSans-20"/>
     <use x="1060.888672" xlink:href="#DejaVuSans-33"/>
     <use x="1124.511719" xlink:href="#DejaVuSans-2d"/>
     <use x="1160.595703" xlink:href="#DejaVuSans-44"/>
    </g>
    <!-- 51 targets in 100..1e-08 -->
    <g transform="translate(74.3712 87.425723)scale(0.1666 -0.1666)">
     <use xlink:href="#DejaVuSans-35"/>
     <use x="63.623047" xlink:href="#DejaVuSans-31"/>
     <use x="127.246094" xlink:href="#DejaVuSans-20"/>
     <use x="159.033203" xlink:href="#DejaVuSans-74"/>
     <use x="198.242188" xlink:href="#DejaVuSans-61"/>
     <use x="259.521484" xlink:href="#DejaVuSans-72"/>
     <use x="300.619141" xlink:href="#DejaVuSans-67"/>
     <use x="364.095703" xlink:href="#DejaVuSans-65"/>
     <use x="425.619141" xlink:href="#DejaVuSans-74"/>
     <use x="464.828125" xlink:href="#DejaVuSans-73"/>
     <use x="516.927734" xlink:href="#DejaVuSans-20"/>
     <use x="548.714844" xlink:href="#DejaVuSans-69"/>
     <use x="576.498047" xlink:href="#DejaVuSans-6e"/>
     <use x="639.876953" xlink:href="#DejaVuSans-20"/>
     <use x="671.664062" xlink:href="#DejaVuSans-31"/>
     <use x="735.287109" xlink:href="#DejaVuSans-30"/>
     <use x="798.910156" xlink:href="#DejaVuSans-30"/>
     <use x="862.533203" xlink:href="#DejaVuSans-2e"/>
     <use x="894.320312" xlink:href="#DejaVuSans-2e"/>
     <use x="926.107422" xlink:href="#DejaVuSans-31"/>
     <use x="989.730469" xlink:href="#DejaVuSans-65"/>
     <use x="1051.253906" xlink:href="#DejaVuSans-2d"/>
     <use x="1087.337891" xlink:href="#DejaVuSans-30"/>
     <use x="1150.960938" xlink:href="#DejaVuSans-38"/>
    </g>
    <!-- 15 instances -->
    <g transform="translate(74.3712 106.081279)scale(0.1666 -0.1666)">
     <use xlink:href="#DejaVuSans-31"/>
     <use x="63.623047" xlink:href="#DejaVuSans-35"/>
     <use x="127.246094" xlink:href="#DejaVuSans-20"/>
     <use x="159.033203" xlink:href="#DejaVuSans-69"/>
     <use x="186.816406" xlink:href="#DejaVuSans-6e"/>
     <use x="250.195312" xlink:href="#DejaVuSans-73"/>
     <use x="302.294922" xlink:href="#DejaVuSans-74"/>
     <use x="341.503906" xlink:href="#DejaVuSans-61"/>
     <use x="402.783203" xlink:href="#DejaVuSans-6e"/>
     <use x="466.162109" xlink:href="#DejaVuSans-63"/>
     <use x="521.142578" xlink:href="#DejaVuSans-65"/>
     <use x="582.666016" xlink:href="#DejaVuSans-73"/>
    </g>
   </g>
   <g id="text_20">
    <!-- v0.0.0 -->
    <g style="fill:#808080;" transform="translate(233.67875 293.504568)scale(0.1 -0.1)">
     <use xlink:href="#DejaVuSans-76"/>
     <use x="59.179688" xlink:href="#DejaVuSans-30"/>
     <use x="122.802734" xlink:href="#DejaVuSans-2e"/>
     <use x="154.589844" xlink:href="#DejaVuSans-30"/>
     <use x="218.212891" xlink:href="#DejaVuSans-2e"/>
     <use x="250" xlink:href="#DejaVuSans-30"/>
    </g>
   </g>
  </g>
 </g>
 <defs>
  <clipPath id="pf104ad6f66">
   <rect height="266.112" width="357.12" x="70.8" y="32.133375"/>
  </clipPath>
 </defs>
</svg>
