<?xml version="1.0" encoding="utf-8" standalone="no"?>
<!DOCTYPE svg PUBLIC "-//W3C//DTD SVG 1.1//EN"
  "http://www.w3.org/Graphics/SVG/1.1/DTD/svg11.dtd">
<!-- Created with matplotlib (http://matplotlib.org/) -->
<svg height="353pt" version="1.1" viewBox="0 0 439 353" width="439pt" xmlns="http://www.w3.org/2000/svg" xmlns:xlink="http://www.w3.org/1999/xlink">
 <defs>
  <style type="text/css">
*{stroke-linecap:butt;stroke-linejoin:round;}
  </style>
 </defs>
 <g id="figure_1">
  <g id="patch_1">
   <path d="M 0 353.22225 
L 439.489219 353.22225 
L 439.489219 0 
L 0 0 
z
" style="fill:#ffffff;"/>
  </g>
  <g id="axes_1">
   <g id="patch_2">
    <path d="M 70.8 298.245375 
L 427.92 298.245375 
L 427.92 32.133375 
L 70.8 32.133375 
z
" style="fill:#ffffff;"/>
   </g>
   <g id="matplotlib.axis_1">
    <g id="xtick_1">
     <g id="line2d_1">
      <path clip-path="url(#p2d81b8f478)" d="M 70.8 298.245375 
L 70.8 32.133375 
" style="fill:none;stroke:#b0b0b0;stroke-linecap:square;stroke-width:0.8;"/>
     </g>
     <g id="line2d_2">
      <defs>
       <path d="M 0 0 
L 0 3.5 
" id="md19f65db1f" style="stroke:#000000;stroke-width:0.8;"/>
      </defs>
      <g>
       <use style="stroke:#000000;stroke-width:0.8;" x="70.8" xlink:href="#md19f65db1f" y="298.245375"/>
      </g>
     </g>
     <g id="text_1">
      <!-- 0 -->
      <defs>
       <path d="M 31.78125 66.40625 
Q 24.171875 66.40625 20.328125 58.90625 
Q 16.5 51.421875 16.5 36.375 
Q 16.5 21.390625 20.328125 13.890625 
Q 24.171875 6.390625 31.78125 6.390625 
Q 39.453125 6.390625 43.28125 13.890625 
Q 47.125 21.390625 47.125 36.375 
Q 47.125 51.421875 43.28125 58.90625 
Q 39.453125 66.40625 31.78125 66.40625 
z
M 31.78125 74.21875 
Q 44.046875 74.21875 50.515625 64.515625 
Q 56.984375 54.828125 56.984375 36.375 
Q 56.984375 17.96875 50.515625 8.265625 
Q 44.046875 -1.421875 31.78125 -1.421875 
Q 19.53125 -1.421875 13.0625 8.265625 
Q 6.59375 17.96875 6.59375 36.375 
Q 6.59375 54.828125 13.0625 64.515625 
Q 19.53125 74.21875 31.78125 74.21875 
z
" id="DejaVuSans-30"/>
      </defs>
      <g transform="translate(64.4375 320.44225)scale(0.2 -0.2)">
       <use xlink:href="#DejaVuSans-30"/>
      </g>
     </g>
    </g>
    <g id="xtick_2">
     <g id="line2d_3">
      <path clip-path="url(#p2d81b8f478)" d="M 153.085714 298.245375 
L 153.085714 32.133375 
" style="fill:none;stroke:#b0b0b0;stroke-linecap:square;stroke-width:0.8;"/>
     </g>
     <g id="line2d_4">
      <g>
       <use style="stroke:#000000;stroke-width:0.8;" x="153.085714" xlink:href="#md19f65db1f" y="298.245375"/>
      </g>
     </g>
     <g id="text_2">
      <!-- 2 -->
      <defs>
       <path d="M 19.1875 8.296875 
L 53.609375 8.296875 
L 53.609375 0 
L 7.328125 0 
L 7.328125 8.296875 
Q 12.9375 14.109375 22.625 23.890625 
Q 32.328125 33.6875 34.8125 36.53125 
Q 39.546875 41.84375 41.421875 45.53125 
Q 43.3125 49.21875 43.3125 52.78125 
Q 43.3125 58.59375 39.234375 62.25 
Q 35.15625 65.921875 28.609375 65.921875 
Q 23.96875 65.921875 18.8125 64.3125 
Q 13.671875 62.703125 7.8125 59.421875 
L 7.8125 69.390625 
Q 13.765625 71.78125 18.9375 73 
Q 24.125 74.21875 28.421875 74.21875 
Q 39.75 74.21875 46.484375 68.546875 
Q 53.21875 62.890625 53.21875 53.421875 
Q 53.21875 48.921875 51.53125 44.890625 
Q 49.859375 40.875 45.40625 35.40625 
Q 44.1875 33.984375 37.640625 27.21875 
Q 31.109375 20.453125 19.1875 8.296875 
z
" id="DejaVuSans-32"/>
      </defs>
      <g transform="translate(146.723214 320.44225)scale(0.2 -0.2)">
       <use xlink:href="#DejaVuSans-32"/>
      </g>
     </g>
    </g>
    <g id="xtick_3">
     <g id="line2d_5">
      <path clip-path="url(#p2d81b8f478)" d="M 235.371429 298.245375 
L 235.371429 32.133375 
" style="fill:none;stroke:#b0b0b0;stroke-linecap:square;stroke-width:0.8;"/>
     </g>
     <g id="line2d_6">
      <g>
       <use style="stroke:#000000;stroke-width:0.8;" x="235.371429" xlink:href="#md19f65db1f" y="298.245375"/>
      </g>
     </g>
     <g id="text_3">
      <!-- 4 -->
      <defs>
       <path d="M 37.796875 64.3125 
L 12.890625 25.390625 
L 37.796875 25.390625 
z
M 35.203125 72.90625 
L 47.609375 72.90625 
L 47.609375 25.390625 
L 58.015625 25.390625 
L 58.015625 17.1875 
L 47.609375 17.1875 
L 47.609375 0 
L 37.796875 0 
L 37.796875 17.1875 
L 4.890625 17.1875 
L 4.890625 26.703125 
z
" id="DejaVuSans-34"/>
      </defs>
      <g transform="translate(229.008929 320.44225)scale(0.2 -0.2)">
       <use xlink:href="#DejaVuSans-34"/>
      </g>
     </g>
    </g>
    <g id="xtick_4">
     <g id="line2d_7">
      <path clip-path="url(#p2d81b8f478)" d="M 317.657143 298.245375 
L 317.657143 32.133375 
" style="fill:none;stroke:#b0b0b0;stroke-linecap:square;stroke-width:0.8;"/>
     </g>
     <g id="line2d_8">
      <g>
       <use style="stroke:#000000;stroke-width:0.8;" x="317.657143" xlink:href="#md19f65db1f" y="298.245375"/>
      </g>
     </g>
     <g id="text_4">
      <!-- 6 -->
      <defs>
       <path d="M 33.015625 40.375 
Q 26.375 40.375 22.484375 35.828125 
Q 18.609375 31.296875 18.609375 23.390625 
Q 18.609375 15.53125 22.484375 10.953125 
Q 26.375 6.390625 33.015625 6.390625 
Q 39.65625 6.390625 43.53125 10.953125 
Q 47.40625 15.53125 47.40625 23.390625 
Q 47.40625 31.296875 43.53125 35.828125 
Q 39.65625 40.375 33.015625 40.375 
z
M 52.59375 71.296875 
L 52.59375 62.3125 
Q 48.875 64.0625 45.09375 64.984375 
Q 41.3125 65.921875 37.59375 65.921875 
Q 27.828125 65.921875 22.671875 59.328125 
Q 17.53125 52.734375 16.796875 39.40625 
Q 19.671875 43.65625 24.015625 45.921875 
Q 28.375 48.1875 33.59375 48.1875 
Q 44.578125 48.1875 50.953125 41.515625 
Q 57.328125 34.859375 57.328125 23.390625 
Q 57.328125 12.15625 50.6875 5.359375 
Q 44.046875 -1.421875 33.015625 -1.421875 
Q 20.359375 -1.421875 13.671875 8.265625 
Q 6.984375 17.96875 6.984375 36.375 
Q 6.984375 53.65625 15.1875 63.9375 
Q 23.390625 74.21875 37.203125 74.21875 
Q 40.921875 74.21875 44.703125 73.484375 
Q 48.484375 72.75 52.59375 71.296875 
z
" id="DejaVuSans-36"/>
      </defs>
      <g transform="translate(311.294643 320.44225)scale(0.2 -0.2)">
       <use xlink:href="#DejaVuSans-36"/>
      </g>
     </g>
    </g>
    <g id="xtick_5">
     <g id="line2d_9">
      <path clip-path="url(#p2d81b8f478)" d="M 399.942857 298.245375 
L 399.942857 32.133375 
" style="fill:none;stroke:#b0b0b0;stroke-linecap:square;stroke-width:0.8;"/>
     </g>
     <g id="line2d_10">
      <g>
       <use style="stroke:#000000;stroke-width:0.8;" x="399.942857" xlink:href="#md19f65db1f" y="298.245375"/>
      </g>
     </g>
     <g id="text_5">
      <!-- 8 -->
      <defs>
       <path d="M 31.78125 34.625 
Q 24.75 34.625 20.71875 30.859375 
Q 16.703125 27.09375 16.703125 20.515625 
Q 16.703125 13.921875 20.71875 10.15625 
Q 24.75 6.390625 31.78125 6.390625 
Q 38.8125 6.390625 42.859375 10.171875 
Q 46.921875 13.96875 46.921875 20.515625 
Q 46.921875 27.09375 42.890625 30.859375 
Q 38.875 34.625 31.78125 34.625 
z
M 21.921875 38.8125 
Q 15.578125 40.375 12.03125 44.71875 
Q 8.5 49.078125 8.5 55.328125 
Q 8.5 64.0625 14.71875 69.140625 
Q 20.953125 74.21875 31.78125 74.21875 
Q 42.671875 74.21875 48.875 69.140625 
Q 55.078125 64.0625 55.078125 55.328125 
Q 55.078125 49.078125 51.53125 44.71875 
Q 48 40.375 41.703125 38.8125 
Q 48.828125 37.15625 52.796875 32.3125 
Q 56.78125 27.484375 56.78125 20.515625 
Q 56.78125 9.90625 50.3125 4.234375 
Q 43.84375 -1.421875 31.78125 -1.421875 
Q 19.734375 -1.421875 13.25 4.234375 
Q 6.78125 9.90625 6.78125 20.515625 
Q 6.78125 27.484375 10.78125 32.3125 
Q 14.796875 37.15625 21.921875 38.8125 
z
M 18.3125 54.390625 
Q 18.3125 48.734375 21.84375 45.5625 
Q 25.390625 42.390625 31.78125 42.390625 
Q 38.140625 42.390625 41.71875 45.5625 
Q 45.3125 48.734375 45.3125 54.390625 
Q 45.3125 60.0625 41.71875 63.234375 
Q 38.140625 66.40625 31.78125 66.40625 
Q 25.390625 66.40625 21.84375 63.234375 
Q 18.3125 60.0625 18.3125 54.390625 
z
" id="DejaVuSans-38"/>
      </defs>
      <g transform="translate(393.580357 320.44225)scale(0.2 -0.2)">
       <use xlink:href="#DejaVuSans-38"/>
      </g>
     </g>
    </g>
    <g id="text_6">
     <!-- log10 of (# f-evals / dimension) -->
     <defs>
      <path d="M 9.421875 75.984375 
L 18.40625 75.984375 
L 18.40625 0 
L 9.421875 0 
z
" id="DejaVuSans-6c"/>
      <path d="M 30.609375 48.390625 
Q 23.390625 48.390625 19.1875 42.75 
Q 14.984375 37.109375 14.984375 27.296875 
Q 14.984375 17.484375 19.15625 11.84375 
Q 23.34375 6.203125 30.609375 6.203125 
Q 37.796875 6.203125 41.984375 11.859375 
Q 46.1875 17.53125 46.1875 27.296875 
Q 46.1875 37.015625 41.984375 42.703125 
Q 37.796875 48.390625 30.609375 48.390625 
z
M 30.609375 56 
Q 42.328125 56 49.015625 48.375 
Q 55.71875 40.765625 55.71875 27.296875 
Q 55.71875 13.875 49.015625 6.21875 
Q 42.328125 -1.421875 30.609375 -1.421875 
Q 18.84375 -1.421875 12.171875 6.21875 
Q 5.515625 13.875 5.515625 27.296875 
Q 5.515625 40.765625 12.171875 48.375 
Q 18.84375 56 30.609375 56 
z
" id="DejaVuSans-6f"/>
      <path d="M 45.40625 27.984375 
Q 45.40625 37.75 41.375 43.109375 
Q 37.359375 48.484375 30.078125 48.484375 
Q 22.859375 48.484375 18.828125 43.109375 
Q 14.796875 37.75 14.796875 27.984375 
Q 14.796875 18.265625 18.828125 12.890625 
Q 22.859375 7.515625 30.078125 7.515625 
Q 37.359375 7.515625 41.375 12.890625 
Q 45.40625 18.265625 45.40625 27.984375 
z
M 54.390625 6.78125 
Q 54.390625 -7.171875 48.1875 -13.984375 
Q 42 -20.796875 29.203125 -20.796875 
Q 24.46875 -20.796875 20.265625 -20.09375 
Q 16.0625 -19.390625 12.109375 -17.921875 
L 12.109375 -9.1875 
Q 16.0625 -11.328125 19.921875 -12.34375 
Q 23.78125 -13.375 27.78125 -13.375 
Q 36.625 -13.375 41.015625 -8.765625 
Q 45.40625 -4.15625 45.40625 5.171875 
L 45.40625 9.625 
Q 42.625 4.78125 38.28125 2.390625 
Q 33.9375 0 27.875 0 
Q 17.828125 0 11.671875 7.65625 
Q 5.515625 15.328125 5.515625 27.984375 
Q 5.515625 40.671875 11.671875 48.328125 
Q 17.828125 56 27.875 56 
Q 33.9375 56 38.28125 53.609375 
Q 42.625 51.21875 45.40625 46.390625 
L 45.40625 54.6875 
L 54.390625 54.6875 
z
" id="DejaVuSans-67"/>
      <path d="M 12.40625 8.296875 
L 28.515625 8.296875 
L 28.515625 63.921875 
L 10.984375 60.40625 
L 10.984375 69.390625 
L 28.421875 72.90625 
L 38.28125 72.90625 
L 38.28125 8.296875 
L 54.390625 8.296875 
L 54.390625 0 
L 12.40625 0 
z
" id="DejaVuSans-31"/>
      <path id="DejaVuSans-20"/>
      <path d="M 37.109375 75.984375 
L 37.109375 68.5 
L 28.515625 68.5 
Q 23.6875 68.5 21.796875 66.546875 
Q 19.921875 64.59375 19.921875 59.515625 
L 19.921875 54.6875 
L 34.71875 54.6875 
L 34.71875 47.703125 
L 19.921875 47.703125 
L 19.921875 0 
L 10.890625 0 
L 10.890625 47.703125 
L 2.296875 47.703125 
L 2.296875 54.6875 
L 10.890625 54.6875 
L 10.890625 58.5 
Q 10.890625 67.625 15.140625 71.796875 
Q 19.390625 75.984375 28.609375 75.984375 
z
" id="DejaVuSans-66"/>
      <path d="M 31 75.875 
Q 24.46875 64.65625 21.28125 53.65625 
Q 18.109375 42.671875 18.109375 31.390625 
Q 18.109375 20.125 21.3125 9.0625 
Q 24.515625 -2 31 -13.1875 
L 23.1875 -13.1875 
Q 15.875 -1.703125 12.234375 9.375 
Q 8.59375 20.453125 8.59375 31.390625 
Q 8.59375 42.28125 12.203125 53.3125 
Q 15.828125 64.359375 23.1875 75.875 
z
" id="DejaVuSans-28"/>
      <path d="M 51.125 44 
L 36.921875 44 
L 32.8125 27.6875 
L 47.125 27.6875 
z
M 43.796875 71.78125 
L 38.71875 51.515625 
L 52.984375 51.515625 
L 58.109375 71.78125 
L 65.921875 71.78125 
L 60.890625 51.515625 
L 76.125 51.515625 
L 76.125 44 
L 58.984375 44 
L 54.984375 27.6875 
L 70.515625 27.6875 
L 70.515625 20.21875 
L 53.078125 20.21875 
L 48 0 
L 40.1875 0 
L 45.21875 20.21875 
L 30.90625 20.21875 
L 25.875 0 
L 18.015625 0 
L 23.09375 20.21875 
L 7.71875 20.21875 
L 7.71875 27.6875 
L 24.90625 27.6875 
L 29 44 
L 13.28125 44 
L 13.28125 51.515625 
L 30.90625 51.515625 
L 35.890625 71.78125 
z
" id="DejaVuSans-23"/>
      <path d="M 4.890625 31.390625 
L 31.203125 31.390625 
L 31.203125 23.390625 
L 4.890625 23.390625 
z
" id="DejaVuSans-2d"/>
      <path d="M 56.203125 29.59375 
L 56.203125 25.203125 
L 14.890625 25.203125 
Q 15.484375 15.921875 20.484375 11.0625 
Q 25.484375 6.203125 34.421875 6.203125 
Q 39.59375 6.203125 44.453125 7.46875 
Q 49.3125 8.734375 54.109375 11.28125 
L 54.109375 2.78125 
Q 49.265625 0.734375 44.1875 -0.34375 
Q 39.109375 -1.421875 33.890625 -1.421875 
Q 20.796875 -1.421875 13.15625 6.1875 
Q 5.515625 13.8125 5.515625 26.8125 
Q 5.515625 40.234375 12.765625 48.109375 
Q 20.015625 56 32.328125 56 
Q 43.359375 56 49.78125 48.890625 
Q 56.203125 41.796875 56.203125 29.59375 
z
M 47.21875 32.234375 
Q 47.125 39.59375 43.09375 43.984375 
Q 39.0625 48.390625 32.421875 48.390625 
Q 24.90625 48.390625 20.390625 44.140625 
Q 15.875 39.890625 15.1875 32.171875 
z
" id="DejaVuSans-65"/>
      <path d="M 2.984375 54.6875 
L 12.5 54.6875 
L 29.59375 8.796875 
L 46.6875 54.6875 
L 56.203125 54.6875 
L 35.6875 0 
L 23.484375 0 
z
" id="DejaVuSans-76"/>
      <path d="M 34.28125 27.484375 
Q 23.390625 27.484375 19.1875 25 
Q 14.984375 22.515625 14.984375 16.5 
Q 14.984375 11.71875 18.140625 8.90625 
Q 21.296875 6.109375 26.703125 6.109375 
Q 34.1875 6.109375 38.703125 11.40625 
Q 43.21875 16.703125 43.21875 25.484375 
L 43.21875 27.484375 
z
M 52.203125 31.203125 
L 52.203125 0 
L 43.21875 0 
L 43.21875 8.296875 
Q 40.140625 3.328125 35.546875 0.953125 
Q 30.953125 -1.421875 24.3125 -1.421875 
Q 15.921875 -1.421875 10.953125 3.296875 
Q 6 8.015625 6 15.921875 
Q 6 25.140625 12.171875 29.828125 
Q 18.359375 34.515625 30.609375 34.515625 
L 43.21875 34.515625 
L 43.21875 35.40625 
Q 43.21875 41.609375 39.140625 45 
Q 35.0625 48.390625 27.6875 48.390625 
Q 23 48.390625 18.546875 47.265625 
Q 14.109375 46.140625 10.015625 43.890625 
L 10.015625 52.203125 
Q 14.9375 54.109375 19.578125 55.046875 
Q 24.21875 56 28.609375 56 
Q 40.484375 56 46.34375 49.84375 
Q 52.203125 43.703125 52.203125 31.203125 
z
" id="DejaVuSans-61"/>
      <path d="M 44.28125 53.078125 
L 44.28125 44.578125 
Q 40.484375 46.53125 36.375 47.5 
Q 32.28125 48.484375 27.875 48.484375 
Q 21.1875 48.484375 17.84375 46.4375 
Q 14.5 44.390625 14.5 40.28125 
Q 14.5 37.15625 16.890625 35.375 
Q 19.28125 33.59375 26.515625 31.984375 
L 29.59375 31.296875 
Q 39.15625 29.25 43.1875 25.515625 
Q 47.21875 21.78125 47.21875 15.09375 
Q 47.21875 7.46875 41.1875 3.015625 
Q 35.15625 -1.421875 24.609375 -1.421875 
Q 20.21875 -1.421875 15.453125 -0.5625 
Q 10.6875 0.296875 5.421875 2 
L 5.421875 11.28125 
Q 10.40625 8.6875 15.234375 7.390625 
Q 20.0625 6.109375 24.8125 6.109375 
Q 31.15625 6.109375 34.5625 8.28125 
Q 37.984375 10.453125 37.984375 14.40625 
Q 37.984375 18.0625 35.515625 20.015625 
Q 33.0625 21.96875 24.703125 23.78125 
L 21.578125 24.515625 
Q 13.234375 26.265625 9.515625 29.90625 
Q 5.8125 33.546875 5.8125 39.890625 
Q 5.8125 47.609375 11.28125 51.796875 
Q 16.75 56 26.8125 56 
Q 31.78125 56 36.171875 55.265625 
Q 40.578125 54.546875 44.28125 53.078125 
z
" id="DejaVuSans-73"/>
      <path d="M 25.390625 72.90625 
L 33.6875 72.90625 
L 8.296875 -9.28125 
L 0 -9.28125 
z
" id="DejaVuSans-2f"/>
      <path d="M 45.40625 46.390625 
L 45.40625 75.984375 
L 54.390625 75.984375 
L 54.390625 0 
L 45.40625 0 
L 45.40625 8.203125 
Q 42.578125 3.328125 38.25 0.953125 
Q 33.9375 -1.421875 27.875 -1.421875 
Q 17.96875 -1.421875 11.734375 6.484375 
Q 5.515625 14.40625 5.515625 27.296875 
Q 5.515625 40.1875 11.734375 48.09375 
Q 17.96875 56 27.875 56 
Q 33.9375 56 38.25 53.625 
Q 42.578125 51.265625 45.40625 46.390625 
z
M 14.796875 27.296875 
Q 14.796875 17.390625 18.875 11.75 
Q 22.953125 6.109375 30.078125 6.109375 
Q 37.203125 6.109375 41.296875 11.75 
Q 45.40625 17.390625 45.40625 27.296875 
Q 45.40625 37.203125 41.296875 42.84375 
Q 37.203125 48.484375 30.078125 48.484375 
Q 22.953125 48.484375 18.875 42.84375 
Q 14.796875 37.203125 14.796875 27.296875 
z
" id="DejaVuSans-64"/>
      <path d="M 9.421875 54.6875 
L 18.40625 54.6875 
L 18.40625 0 
L 9.421875 0 
z
M 9.421875 75.984375 
L 18.40625 75.984375 
L 18.40625 64.59375 
L 9.421875 64.59375 
z
" id="DejaVuSans-69"/>
      <path d="M 52 44.1875 
Q 55.375 50.25 60.0625 53.125 
Q 64.75 56 71.09375 56 
Q 79.640625 56 84.28125 50.015625 
Q 88.921875 44.046875 88.921875 33.015625 
L 88.921875 0 
L 79.890625 0 
L 79.890625 32.71875 
Q 79.890625 40.578125 77.09375 44.375 
Q 74.3125 48.1875 68.609375 48.1875 
Q 61.625 48.1875 57.5625 43.546875 
Q 53.515625 38.921875 53.515625 30.90625 
L 53.515625 0 
L 44.484375 0 
L 44.484375 32.71875 
Q 44.484375 40.625 41.703125 44.40625 
Q 38.921875 48.1875 33.109375 48.1875 
Q 26.21875 48.1875 22.15625 43.53125 
Q 18.109375 38.875 18.109375 30.90625 
L 18.109375 0 
L 9.078125 0 
L 9.078125 54.6875 
L 18.109375 54.6875 
L 18.109375 46.1875 
Q 21.1875 51.21875 25.484375 53.609375 
Q 29.78125 56 35.6875 56 
Q 41.65625 56 45.828125 52.96875 
Q 50 49.953125 52 44.1875 
z
" id="DejaVuSans-6d"/>
      <path d="M 54.890625 33.015625 
L 54.890625 0 
L 45.90625 0 
L 45.90625 32.71875 
Q 45.90625 40.484375 42.875 44.328125 
Q 39.84375 48.1875 33.796875 48.1875 
Q 26.515625 48.1875 22.3125 43.546875 
Q 18.109375 38.921875 18.109375 30.90625 
L 18.109375 0 
L 9.078125 0 
L 9.078125 54.6875 
L 18.109375 54.6875 
L 18.109375 46.1875 
Q 21.34375 51.125 25.703125 53.5625 
Q 30.078125 56 35.796875 56 
Q 45.21875 56 50.046875 50.171875 
Q 54.890625 44.34375 54.890625 33.015625 
z
" id="DejaVuSans-6e"/>
      <path d="M 8.015625 75.875 
L 15.828125 75.875 
Q 23.140625 64.359375 26.78125 53.3125 
Q 30.421875 42.28125 30.421875 31.390625 
Q 30.421875 20.453125 26.78125 9.375 
Q 23.140625 -1.703125 15.828125 -13.1875 
L 8.015625 -13.1875 
Q 14.5 -2 17.703125 9.0625 
Q 20.90625 20.125 20.90625 31.390625 
Q 20.90625 42.671875 17.703125 53.65625 
Q 14.5 64.65625 8.015625 75.875 
z
" id="DejaVuSans-29"/>
     </defs>
     <g transform="translate(107.015156 342.278812)scale(0.18 -0.18)">
      <use xlink:href="#DejaVuSans-6c"/>
      <use x="27.783203" xlink:href="#DejaVuSans-6f"/>
      <use x="88.964844" xlink:href="#DejaVuSans-67"/>
      <use x="152.441406" xlink:href="#DejaVuSans-31"/>
      <use x="216.064453" xlink:href="#DejaVuSans-30"/>
      <use x="279.6875" xlink:href="#DejaVuSans-20"/>
      <use x="311.474609" xlink:href="#DejaVuSans-6f"/>
      <use x="372.65625" xlink:href="#DejaVuSans-66"/>
      <use x="407.861328" xlink:href="#DejaVuSans-20"/>
      <use x="439.648438" xlink:href="#DejaVuSans-28"/>
      <use x="478.662109" xlink:href="#DejaVuSans-23"/>
      <use x="562.451172" xlink:href="#DejaVuSans-20"/>
      <use x="594.238281" xlink:href="#DejaVuSans-66"/>
      <use x="629.365234" xlink:href="#DejaVuSans-2d"/>
      <use x="665.449219" xlink:href="#DejaVuSans-65"/>
      <use x="726.972656" xlink:href="#DejaVuSans-76"/>
      <use x="786.152344" xlink:href="#DejaVuSans-61"/>
      <use x="847.431641" xlink:href="#DejaVuSans-6c"/>
      <use x="875.214844" xlink:href="#DejaVuSans-73"/>
      <use x="927.314453" xlink:href="#DejaVuSans-20"/>
      <use x="959.101562" xlink:href="#DejaVuSans-2f"/>
      <use x="992.792969" xlink:href="#DejaVuSans-20"/>
      <use x="1024.580078" xlink:href="#DejaVuSans-64"/>
      <use x="1088.056641" xlink:href="#DejaVuSans-69"/>
      <use x="1115.839844" xlink:href="#DejaVuSans-6d"/>
      <use x="1213.251953" xlink:href="#DejaVuSans-65"/>
      <use x="1274.775391" xlink:href="#DejaVuSans-6e"/>
      <use x="1338.154297" xlink:href="#DejaVuSans-73"/>
      <use x="1390.253906" xlink:href="#DejaVuSans-69"/>
      <use x="1418.037109" xlink:href="#DejaVuSans-6f"/>
      <use x="1479.21875" xlink:href="#DejaVuSans-6e"/>
      <use x="1542.597656" xlink:href="#DejaVuSans-29"/>
     </g>
    </g>
   </g>
   <g id="matplotlib.axis_2">
    <g id="ytick_1">
     <g id="line2d_11">
      <path clip-path="url(#p2d81b8f478)" d="M 70.8 298.245375 
L 427.92 298.245375 
" style="fill:none;stroke:#b0b0b0;stroke-linecap:square;stroke-width:0.8;"/>
     </g>
     <g id="line2d_12">
      <defs>
       <path d="M 0 0 
L -3.5 0 
" id="m5d221cd759" style="stroke:#000000;stroke-width:0.8;"/>
      </defs>
      <g>
       <use style="stroke:#000000;stroke-width:0.8;" x="70.8" xlink:href="#m5d221cd759" y="298.245375"/>
      </g>
     </g>
     <g id="text_7">
      <!-- 0.0 -->
      <defs>
       <path d="M 10.6875 12.40625 
L 21 12.40625 
L 21 0 
L 10.6875 0 
z
" id="DejaVuSans-2e"/>
      </defs>
      <g transform="translate(31.99375 305.843812)scale(0.2 -0.2)">
       <use xlink:href="#DejaVuSans-30"/>
       <use x="63.623047" xlink:href="#DejaVuSans-2e"/>
       <use x="95.410156" xlink:href="#DejaVuSans-30"/>
      </g>
     </g>
    </g>
    <g id="ytick_2">
     <g id="line2d_13">
      <path clip-path="url(#p2d81b8f478)" d="M 70.8 245.549929 
L 427.92 245.549929 
" style="fill:none;stroke:#b0b0b0;stroke-linecap:square;stroke-width:0.8;"/>
     </g>
     <g id="line2d_14">
      <g>
       <use style="stroke:#000000;stroke-width:0.8;" x="70.8" xlink:href="#m5d221cd759" y="245.549929"/>
      </g>
     </g>
     <g id="text_8">
      <!-- 0.2 -->
      <g transform="translate(31.99375 253.148367)scale(0.2 -0.2)">
       <use xlink:href="#DejaVuSans-30"/>
       <use x="63.623047" xlink:href="#DejaVuSans-2e"/>
       <use x="95.410156" xlink:href="#DejaVuSans-32"/>
      </g>
     </g>
    </g>
    <g id="ytick_3">
     <g id="line2d_15">
      <path clip-path="url(#p2d81b8f478)" d="M 70.8 192.854484 
L 427.92 192.854484 
" style="fill:none;stroke:#b0b0b0;stroke-linecap:square;stroke-width:0.8;"/>
     </g>
     <g id="line2d_16">
      <g>
       <use style="stroke:#000000;stroke-width:0.8;" x="70.8" xlink:href="#m5d221cd759" y="192.854484"/>
      </g>
     </g>
     <g id="text_9">
      <!-- 0.4 -->
      <g transform="translate(31.99375 200.452921)scale(0.2 -0.2)">
       <use xlink:href="#DejaVuSans-30"/>
       <use x="63.623047" xlink:href="#DejaVuSans-2e"/>
       <use x="95.410156" xlink:href="#DejaVuSans-34"/>
      </g>
     </g>
    </g>
    <g id="ytick_4">
     <g id="line2d_17">
      <path clip-path="url(#p2d81b8f478)" d="M 70.8 140.159038 
L 427.92 140.159038 
" style="fill:none;stroke:#b0b0b0;stroke-linecap:square;stroke-width:0.8;"/>
     </g>
     <g id="line2d_18">
      <g>
       <use style="stroke:#000000;stroke-width:0.8;" x="70.8" xlink:href="#m5d221cd759" y="140.159038"/>
      </g>
     </g>
     <g id="text_10">
      <!-- 0.6 -->
      <g transform="translate(31.99375 147.757476)scale(0.2 -0.2)">
       <use xlink:href="#DejaVuSans-30"/>
       <use x="63.623047" xlink:href="#DejaVuSans-2e"/>
       <use x="95.410156" xlink:href="#DejaVuSans-36"/>
      </g>
     </g>
    </g>
    <g id="ytick_5">
     <g id="line2d_19">
      <path clip-path="url(#p2d81b8f478)" d="M 70.8 87.463593 
L 427.92 87.463593 
" style="fill:none;stroke:#b0b0b0;stroke-linecap:square;stroke-width:0.8;"/>
     </g>
     <g id="line2d_20">
      <g>
       <use style="stroke:#000000;stroke-width:0.8;" x="70.8" xlink:href="#m5d221cd759" y="87.463593"/>
      </g>
     </g>
     <g id="text_11">
      <!-- 0.8 -->
      <g transform="translate(31.99375 95.06203)scale(0.2 -0.2)">
       <use xlink:href="#DejaVuSans-30"/>
       <use x="63.623047" xlink:href="#DejaVuSans-2e"/>
       <use x="95.410156" xlink:href="#DejaVuSans-38"/>
      </g>
     </g>
    </g>
    <g id="ytick_6">
     <g id="line2d_21">
      <path clip-path="url(#p2d81b8f478)" d="M 70.8 34.768147 
L 427.92 34.768147 
" style="fill:none;stroke:#b0b0b0;stroke-linecap:square;stroke-width:0.8;"/>
     </g>
     <g id="line2d_22">
      <g>
       <use style="stroke:#000000;stroke-width:0.8;" x="70.8" xlink:href="#m5d221cd759" y="34.768147"/>
      </g>
     </g>
     <g id="text_12">
      <!-- 1.0 -->
      <g transform="translate(31.99375 42.366585)scale(0.2 -0.2)">
       <use xlink:href="#DejaVuSans-31"/>
       <use x="63.623047" xlink:href="#DejaVuSans-2e"/>
       <use x="95.410156" xlink:href="#DejaVuSans-30"/>
      </g>
     </g>
    </g>
    <g id="text_13">
     <!-- Proportion of function+target pairs -->
     <defs>
      <path d="M 19.671875 64.796875 
L 19.671875 37.40625 
L 32.078125 37.40625 
Q 38.96875 37.40625 42.71875 40.96875 
Q 46.484375 44.53125 46.484375 51.125 
Q 46.484375 57.671875 42.71875 61.234375 
Q 38.96875 64.796875 32.078125 64.796875 
z
M 9.8125 72.90625 
L 32.078125 72.90625 
Q 44.34375 72.90625 50.609375 67.359375 
Q 56.890625 61.8125 56.890625 51.125 
Q 56.890625 40.328125 50.609375 34.8125 
Q 44.34375 29.296875 32.078125 29.296875 
L 19.671875 29.296875 
L 19.671875 0 
L 9.8125 0 
z
" id="DejaVuSans-50"/>
      <path d="M 41.109375 46.296875 
Q 39.59375 47.171875 37.8125 47.578125 
Q 36.03125 48 33.890625 48 
Q 26.265625 48 22.1875 43.046875 
Q 18.109375 38.09375 18.109375 28.8125 
L 18.109375 0 
L 9.078125 0 
L 9.078125 54.6875 
L 18.109375 54.6875 
L 18.109375 46.1875 
Q 20.953125 51.171875 25.484375 53.578125 
Q 30.03125 56 36.53125 56 
Q 37.453125 56 38.578125 55.875 
Q 39.703125 55.765625 41.0625 55.515625 
z
" id="DejaVuSans-72"/>
      <path d="M 18.109375 8.203125 
L 18.109375 -20.796875 
L 9.078125 -20.796875 
L 9.078125 54.6875 
L 18.109375 54.6875 
L 18.109375 46.390625 
Q 20.953125 51.265625 25.265625 53.625 
Q 29.59375 56 35.59375 56 
Q 45.5625 56 51.78125 48.09375 
Q 58.015625 40.1875 58.015625 27.296875 
Q 58.015625 14.40625 51.78125 6.484375 
Q 45.5625 -1.421875 35.59375 -1.421875 
Q 29.59375 -1.421875 25.265625 0.953125 
Q 20.953125 3.328125 18.109375 8.203125 
z
M 48.6875 27.296875 
Q 48.6875 37.203125 44.609375 42.84375 
Q 40.53125 48.484375 33.40625 48.484375 
Q 26.265625 48.484375 22.1875 42.84375 
Q 18.109375 37.203125 18.109375 27.296875 
Q 18.109375 17.390625 22.1875 11.75 
Q 26.265625 6.109375 33.40625 6.109375 
Q 40.53125 6.109375 44.609375 11.75 
Q 48.6875 17.390625 48.6875 27.296875 
z
" id="DejaVuSans-70"/>
      <path d="M 18.3125 70.21875 
L 18.3125 54.6875 
L 36.8125 54.6875 
L 36.8125 47.703125 
L 18.3125 47.703125 
L 18.3125 18.015625 
Q 18.3125 11.328125 20.140625 9.421875 
Q 21.96875 7.515625 27.59375 7.515625 
L 36.8125 7.515625 
L 36.8125 0 
L 27.59375 0 
Q 17.1875 0 13.234375 3.875 
Q 9.28125 7.765625 9.28125 18.015625 
L 9.28125 47.703125 
L 2.6875 47.703125 
L 2.6875 54.6875 
L 9.28125 54.6875 
L 9.28125 70.21875 
z
" id="DejaVuSans-74"/>
      <path d="M 8.5 21.578125 
L 8.5 54.6875 
L 17.484375 54.6875 
L 17.484375 21.921875 
Q 17.484375 14.15625 20.5 10.265625 
Q 23.53125 6.390625 29.59375 6.390625 
Q 36.859375 6.390625 41.078125 11.03125 
Q 45.3125 15.671875 45.3125 23.6875 
L 45.3125 54.6875 
L 54.296875 54.6875 
L 54.296875 0 
L 45.3125 0 
L 45.3125 8.40625 
Q 42.046875 3.421875 37.71875 1 
Q 33.40625 -1.421875 27.6875 -1.421875 
Q 18.265625 -1.421875 13.375 4.4375 
Q 8.5 10.296875 8.5 21.578125 
z
M 31.109375 56 
z
" id="DejaVuSans-75"/>
      <path d="M 48.78125 52.59375 
L 48.78125 44.1875 
Q 44.96875 46.296875 41.140625 47.34375 
Q 37.3125 48.390625 33.40625 48.390625 
Q 24.65625 48.390625 19.8125 42.84375 
Q 14.984375 37.3125 14.984375 27.296875 
Q 14.984375 17.28125 19.8125 11.734375 
Q 24.65625 6.203125 33.40625 6.203125 
Q 37.3125 6.203125 41.140625 7.25 
Q 44.96875 8.296875 48.78125 10.40625 
L 48.78125 2.09375 
Q 45.015625 0.34375 40.984375 -0.53125 
Q 36.96875 -1.421875 32.421875 -1.421875 
Q 20.0625 -1.421875 12.78125 6.34375 
Q 5.515625 14.109375 5.515625 27.296875 
Q 5.515625 40.671875 12.859375 48.328125 
Q 20.21875 56 33.015625 56 
Q 37.15625 56 41.109375 55.140625 
Q 45.0625 54.296875 48.78125 52.59375 
z
" id="DejaVuSans-63"/>
      <path d="M 46 62.703125 
L 46 35.5 
L 73.1875 35.5 
L 73.1875 27.203125 
L 46 27.203125 
L 46 0 
L 37.796875 0 
L 37.796875 27.203125 
L 10.59375 27.203125 
L 10.59375 35.5 
L 37.796875 35.5 
L 37.796875 62.703125 
z
" id="DejaVuSans-2b"/>
     </defs>
     <g transform="translate(24.250312 323.17875)rotate(-90)scale(0.18 -0.18)">
      <use xlink:href="#DejaVuSans-50"/>
      <use x="60.287109" xlink:href="#DejaVuSans-72"/>
      <use x="101.369141" xlink:href="#DejaVuSans-6f"/>
      <use x="162.550781" xlink:href="#DejaVuSans-70"/>
      <use x="226.027344" xlink:href="#DejaVuSans-6f"/>
      <use x="287.208984" xlink:href="#DejaVuSans-72"/>
      <use x="328.322266" xlink:href="#DejaVuSans-74"/>
      <use x="367.53125" xlink:href="#DejaVuSans-69"/>
      <use x="395.314453" xlink:href="#DejaVuSans-6f"/>
      <use x="456.496094" xlink:href="#DejaVuSans-6e"/>
      <use x="519.875" xlink:href="#DejaVuSans-20"/>
      <use x="551.662109" xlink:href="#DejaVuSans-6f"/>
      <use x="612.84375" xlink:href="#DejaVuSans-66"/>
      <use x="648.048828" xlink:href="#DejaVuSans-20"/>
      <use x="679.835938" xlink:href="#DejaVuSans-66"/>
      <use x="715.041016" xlink:href="#DejaVuSans-75"/>
      <use x="778.419922" xlink:href="#DejaVuSans-6e"/>
      <use x="841.798828" xlink:href="#DejaVuSans-63"/>
      <use x="896.779297" xlink:href="#DejaVuSans-74"/>
      <use x="935.988281" xlink:href="#DejaVuSans-69"/>
      <use x="963.771484" xlink:href="#DejaVuSans-6f"/>
      <use x="1024.953125" xlink:href="#DejaVuSans-6e"/>
      <use x="1088.332031" xlink:href="#DejaVuSans-2b"/>
      <use x="1172.121094" xlink:href="#DejaVuSans-74"/>
      <use x="1211.330078" xlink:href="#DejaVuSans-61"/>
      <use x="1272.609375" xlink:href="#DejaVuSans-72"/>
      <use x="1313.707031" xlink:href="#DejaVuSans-67"/>
      <use x="1377.183594" xlink:href="#DejaVuSans-65"/>
      <use x="1438.707031" xlink:href="#DejaVuSans-74"/>
      <use x="1477.916016" xlink:href="#DejaVuSans-20"/>
      <use x="1509.703125" xlink:href="#DejaVuSans-70"/>
      <use x="1573.179688" xlink:href="#DejaVuSans-61"/>
      <use x="1634.458984" xlink:href="#DejaVuSans-69"/>
      <use x="1662.242188" xlink:href="#DejaVuSans-72"/>
      <use x="1703.355469" xlink:href="#DejaVuSans-73"/>
     </g>
    </g>
   </g>
   <g id="line2d_23">
    <defs>
     <path d="M 0 1.5 
C 0.397805 1.5 0.77937 1.341951 1.06066 1.06066 
C 1.341951 0.77937 1.5 0.397805 1.5 0 
C 1.5 -0.397805 1.341951 -0.77937 1.06066 -1.06066 
C 0.77937 -1.341951 0.397805 -1.5 0 -1.5 
C -0.397805 -1.5 -0.77937 -1.341951 -1.06066 -1.06066 
C -1.341951 -0.77937 -1.5 -0.397805 -1.5 0 
C -1.5 0.397805 -1.341951 0.77937 -1.06066 1.06066 
C -0.77937 1.341951 -0.397805 1.5 0 1.5 
z
" id="m2fc9971b21" style="stroke:#00bfbf;"/>
    </defs>
    <g>
     <use style="fill:#00bfbf;stroke:#00bfbf;" x="325.787012" xlink:href="#m2fc9971b21" y="138.09255"/>
     <use style="fill:#00bfbf;stroke:#00bfbf;" x="325.787012" xlink:href="#m2fc9971b21" y="138.09255"/>
    </g>
   </g>
   <g id="line2d_24">
    <path d="M 139.783966 298.245375 
L 139.783966 293.595777 
L 153.085714 293.595777 
L 153.085714 291.529289 
L 159.225015 291.529289 
L 159.225015 289.462801 
L 177.989693 289.462801 
L 177.989693 287.396313 
L 188.836314 287.396313 
L 188.836314 284.813203 
L 189.301376 284.813203 
L 189.301376 284.296581 
L 195.686252 284.296581 
L 195.686252 283.263337 
L 197.254014 283.263337 
L 197.254014 282.746715 
L 200.86155 282.746715 
L 200.86155 282.230093 
L 201.663053 282.230093 
L 201.663053 281.713471 
L 202.815498 281.713471 
L 202.815498 281.196849 
L 203.704642 281.196849 
L 203.704642 278.097116 
L 205.336307 278.097116 
L 205.336307 274.480762 
L 205.805114 274.480762 
L 205.893697 271.38103 
L 206.069557 271.38103 
L 206.069557 270.864408 
L 206.307436 270.864408 
L 206.307436 267.764676 
L 209.2311 267.764676 
L 209.2311 267.248054 
L 210.500618 267.248054 
L 210.500618 266.731432 
L 210.739791 266.731432 
L 210.739791 263.6317 
L 211.077001 263.6317 
L 211.077001 262.598456 
L 211.384039 262.598456 
L 211.384039 262.081834 
L 211.709416 262.081834 
L 211.709416 261.04859 
L 212.303974 261.04859 
L 212.303974 260.531968 
L 212.695989 260.531968 
L 212.695989 260.015346 
L 214.130602 260.015346 
L 214.130602 259.498724 
L 215.455819 259.498724 
L 215.455819 258.46548 
L 222.654359 258.46548 
L 222.654359 256.398992 
L 225.054188 256.398992 
L 225.054188 255.365748 
L 226.857187 255.365748 
L 226.857187 249.166284 
L 230.071955 249.166284 
L 230.071955 247.616418 
L 231.100611 247.616418 
L 231.100611 244.516685 
L 231.277866 244.516685 
L 231.277866 244.000063 
L 231.926523 244.000063 
L 231.926523 241.933575 
L 233.004863 241.933575 
L 233.004863 240.383709 
L 236.941563 240.383709 
L 236.941563 239.867087 
L 238.684922 239.867087 
L 238.684922 238.833843 
L 241.920385 238.833843 
L 241.920385 236.767355 
L 242.317226 236.767355 
L 242.317226 235.734111 
L 242.573988 235.734111 
L 242.573988 234.184245 
L 243.85029 234.184245 
L 243.85029 228.501403 
L 246.712737 228.501403 
L 246.712737 227.468159 
L 247.024458 227.468159 
L 247.024458 225.918293 
L 250.077896 225.918293 
L 250.077896 220.752073 
L 254.978317 220.752073 
L 254.978317 217.135719 
L 255.512654 217.135719 
L 255.512654 213.002743 
L 256.24997 213.002743 
L 256.352979 210.419632 
L 258.472444 210.419632 
L 258.472444 205.770034 
L 259.429925 205.770034 
L 259.429925 205.253412 
L 262.006412 205.253412 
L 262.006412 204.220168 
L 264.812147 204.220168 
L 264.812147 203.703546 
L 265.001521 203.703546 
L 265.001521 201.120436 
L 265.167004 201.120436 
L 265.167004 200.087192 
L 265.695258 200.087192 
L 265.695258 199.57057 
L 266.616698 199.57057 
L 266.616698 199.053948 
L 266.854208 199.053948 
L 266.854208 195.437594 
L 268.670023 195.437594 
L 268.670023 194.920972 
L 269.119022 194.920972 
L 269.120509 192.854484 
L 269.900384 192.854484 
L 269.900384 192.337862 
L 270.201952 192.337862 
L 270.201952 191.82124 
L 271.320742 191.82124 
L 271.320742 186.65502 
L 272.526349 186.65502 
L 272.526349 186.138398 
L 272.726583 186.138398 
L 272.729565 184.07191 
L 273.05399 184.07191 
L 273.05399 183.555288 
L 273.732097 183.555288 
L 273.732097 179.938934 
L 273.916234 179.938934 
L 273.91737 178.389067 
L 274.516669 178.389067 
L 274.516669 177.872445 
L 276.515715 177.872445 
L 276.515715 177.355823 
L 276.807319 177.355823 
L 276.807319 176.322579 
L 276.962293 176.322579 
L 276.962293 175.805957 
L 277.66811 175.805957 
L 277.66811 175.289335 
L 278.932385 175.289335 
L 278.932385 174.772713 
L 279.188593 174.772713 
L 279.188593 174.256091 
L 279.66592 174.256091 
L 279.66592 173.739469 
L 280.474833 173.739469 
L 280.480129 172.189603 
L 280.892725 172.189603 
L 280.892725 171.672981 
L 281.328656 171.672981 
L 281.328656 171.156359 
L 281.728866 171.156359 
L 281.728866 170.639737 
L 282.070756 170.639737 
L 282.074422 169.606493 
L 282.343155 169.606493 
L 282.343155 169.089871 
L 282.457101 169.089871 
L 282.457101 168.573249 
L 283.117778 168.573249 
L 283.155336 167.540005 
L 283.356458 167.540005 
L 283.356458 167.023383 
L 283.478304 167.023383 
L 283.478304 166.506761 
L 284.405839 166.506761 
L 284.405839 165.990139 
L 284.9523 165.990139 
L 284.9523 165.473517 
L 285.265763 165.473517 
L 285.265763 164.956895 
L 286.208806 164.956895 
L 286.208806 164.440273 
L 286.495177 164.440273 
L 286.497783 162.890407 
L 287.316423 162.890407 
L 287.317692 161.857163 
L 287.905818 161.857163 
L 287.936252 160.307297 
L 289.492443 160.307297 
L 289.492443 159.790675 
L 290.0435 159.790675 
L 290.0435 158.757431 
L 290.316519 158.757431 
L 290.316519 158.240809 
L 292.121155 158.240809 
L 292.121155 157.724187 
L 292.594042 157.724187 
L 292.594042 157.207565 
L 293.11965 157.207565 
L 293.11965 156.690943 
L 293.474238 156.690943 
L 293.474238 156.174321 
L 293.810392 156.174321 
L 293.810392 155.657699 
L 294.400917 155.657699 
L 294.400917 155.141077 
L 294.584197 155.141077 
L 294.584197 154.624455 
L 295.32834 154.624455 
L 295.32834 154.107833 
L 295.491278 154.107833 
L 295.491278 153.591211 
L 296.756257 153.591211 
L 296.756257 153.074589 
L 296.919542 153.074589 
L 296.919542 152.557967 
L 297.831857 152.557967 
L 297.883807 150.491479 
L 298.470671 150.491479 
L 298.470671 149.974857 
L 299.052087 149.974857 
L 299.112369 148.941613 
L 299.427604 148.941613 
L 299.427604 148.424991 
L 301.311469 148.424991 
L 301.311469 147.908369 
L 301.871842 147.908369 
L 301.871842 147.391747 
L 302.10322 147.391747 
L 302.213311 146.358503 
L 306.000932 146.358503 
L 306.000932 145.841881 
L 306.310198 145.841881 
L 306.310198 145.325259 
L 306.918125 145.325259 
L 306.918125 144.808637 
L 308.041177 144.808637 
L 308.041177 144.292014 
L 308.210887 144.292014 
L 308.210887 143.775392 
L 308.721637 143.775392 
L 308.721637 143.25877 
L 308.905327 143.25877 
L 308.905327 142.742148 
L 310.053385 142.742148 
L 310.058471 141.708904 
L 311.704425 141.708904 
L 311.704425 141.192282 
L 313.030886 141.192282 
L 313.030886 140.67566 
L 313.392451 140.67566 
L 313.392451 140.159038 
L 315.902098 140.159038 
L 315.902098 139.642416 
L 320.461023 139.642416 
L 320.461023 139.125794 
L 321.880321 139.125794 
L 321.880321 138.609172 
L 325.787012 138.609172 
L 325.787012 138.09255 
L 358.8 138.09255 
L 358.8 138.09255 
" style="fill:none;stroke:#00bfbf;stroke-linecap:square;stroke-width:1.5;"/>
   </g>
   <g id="line2d_25">
    <defs>
     <path d="M -6 0 
L 6 0 
M 0 6 
L 0 -6 
" id="mec5b385859" style="stroke:#00bfbf;stroke-width:1.5;"/>
    </defs>
    <g>
     <use style="fill:none;stroke:#00bfbf;stroke-width:1.5;" x="222.654359" xlink:href="#mec5b385859" y="256.398992"/>
     <use style="fill:none;stroke:#00bfbf;stroke-width:1.5;" x="265.001521" xlink:href="#mec5b385859" y="203.703546"/>
     <use style="fill:none;stroke:#00bfbf;stroke-width:1.5;" x="310.058471" xlink:href="#mec5b385859" y="141.708904"/>
     <use style="fill:none;stroke:#00bfbf;stroke-width:1.5;" x="325.787012" xlink:href="#mec5b385859" y="138.09255"/>
     <use style="fill:none;stroke:#00bfbf;stroke-width:1.5;" x="358.8" xlink:href="#mec5b385859" y="138.09255"/>
    </g>
   </g>
   <g id="line2d_26"/>
   <g id="line2d_27">
    <path clip-path="url(#p2d81b8f478)" d="M 264.143519 204.220168 
" style="fill:none;stroke:#00bfbf;stroke-linecap:square;stroke-width:1.5;"/>
    <defs>
     <path d="M -12 12 
L 12 -12 
M -12 -12 
L 12 12 
" id="m76d0141a33" style="stroke:#00bfbf;stroke-width:3;"/>
    </defs>
    <g clip-path="url(#p2d81b8f478)">
     <use style="fill:#00bfbf;stroke:#00bfbf;stroke-width:3;" x="264.143519" xlink:href="#m76d0141a33" y="204.220168"/>
    </g>
   </g>
   <g id="line2d_28">
    <defs>
     <path d="M 0 1.5 
C 0.397805 1.5 0.77937 1.341951 1.06066 1.06066 
C 1.341951 0.77937 1.5 0.397805 1.5 0 
C 1.5 -0.397805 1.341951 -0.77937 1.06066 -1.06066 
C 0.77937 -1.341951 0.397805 -1.5 0 -1.5 
C -0.397805 -1.5 -0.77937 -1.341951 -1.06066 -1.06066 
C -1.341951 -0.77937 -1.5 -0.397805 -1.5 0 
C -1.5 0.397805 -1.341951 0.77937 -1.06066 1.06066 
C -0.77937 1.341951 -0.397805 1.5 0 1.5 
z
" id="mb0e4a19051" style="stroke:#008000;"/>
    </defs>
    <g>
     <use style="fill:#008000;stroke:#008000;" x="324.721946" xlink:href="#mb0e4a19051" y="132.92633"/>
     <use style="fill:#008000;stroke:#008000;" x="324.721946" xlink:href="#mb0e4a19051" y="132.92633"/>
    </g>
   </g>
   <g id="line2d_29">
    <path d="M 132.726171 298.245375 
L 132.726171 294.112399 
L 153.085714 294.112399 
L 153.085714 293.595777 
L 157.865067 293.595777 
L 157.865067 293.079155 
L 158.091535 293.079155 
L 158.091535 292.562533 
L 161.742488 292.562533 
L 161.742488 290.496045 
L 165.018567 290.496045 
L 165.018567 287.912935 
L 167.038082 287.912935 
L 167.038082 287.396313 
L 167.83828 287.396313 
L 167.83828 286.879691 
L 169.386487 286.879691 
L 169.386487 283.779959 
L 170.566559 283.779959 
L 170.566559 282.746715 
L 171.567958 282.746715 
L 171.567958 281.196849 
L 172.5162 281.196849 
L 172.576328 280.163604 
L 174.400802 280.163604 
L 174.400802 279.13036 
L 176.766419 279.13036 
L 176.766419 278.613738 
L 180.648813 278.613738 
L 180.648813 273.96414 
L 185.600304 273.96414 
L 185.600304 271.897652 
L 186.840154 271.897652 
L 186.840154 271.38103 
L 187.727375 271.38103 
L 187.727375 270.864408 
L 188.441355 270.864408 
L 188.441355 269.314542 
L 192.822663 269.314542 
L 192.822663 268.79792 
L 197.24647 268.79792 
L 197.24647 267.764676 
L 202.715769 267.764676 
L 202.715769 266.731432 
L 205.71609 266.731432 
L 205.71609 266.21481 
L 211.230605 266.21481 
L 211.230605 265.181566 
L 211.41821 265.181566 
L 211.499956 262.598456 
L 211.626376 262.598456 
L 211.626376 261.565212 
L 212.514974 261.565212 
L 212.514974 260.531968 
L 214.991399 260.531968 
L 214.991399 260.015346 
L 215.160169 260.015346 
L 215.160169 258.982102 
L 215.434927 258.982102 
L 215.434927 257.948858 
L 218.187232 257.948858 
L 218.187232 257.432236 
L 218.91546 257.432236 
L 218.91546 255.365748 
L 219.19157 255.365748 
L 219.19157 254.849126 
L 220.25106 254.849126 
L 220.25106 254.332504 
L 220.624728 254.332504 
L 220.624728 252.782638 
L 221.876795 252.782638 
L 221.876795 249.682906 
L 222.454222 249.682906 
L 222.454222 249.166284 
L 223.358706 249.166284 
L 223.358706 248.13304 
L 224.495401 248.13304 
L 224.542413 243.483441 
L 225.558933 243.483441 
L 225.618658 239.867087 
L 225.957753 239.867087 
L 225.957753 239.350465 
L 226.559777 239.350465 
L 226.559777 237.283977 
L 227.455653 237.283977 
L 227.455653 236.767355 
L 227.850129 236.767355 
L 227.850129 233.151001 
L 236.461402 233.151001 
L 236.461402 231.084513 
L 237.776804 231.084513 
L 237.776804 224.368427 
L 239.903852 224.368427 
L 239.903852 222.818561 
L 241.900145 222.818561 
L 241.900145 219.202207 
L 244.083153 219.202207 
L 244.083153 217.135719 
L 244.71312 217.135719 
L 244.71312 216.619097 
L 245.471167 216.619097 
L 245.471167 216.102475 
L 250.139899 216.102475 
L 250.139899 209.386388 
L 250.346928 209.386388 
L 250.346928 206.286656 
L 252.340312 206.286656 
L 252.340312 205.770034 
L 253.790896 205.770034 
L 253.790896 204.220168 
L 256.144688 204.220168 
L 256.146364 198.537326 
L 258.129287 198.537326 
L 258.129287 196.98746 
L 258.43939 196.98746 
L 258.43939 196.470838 
L 259.749129 196.470838 
L 259.749129 195.954216 
L 260.661236 195.954216 
L 260.661236 195.437594 
L 261.589007 195.437594 
L 261.589007 191.304618 
L 261.838682 191.304618 
L 261.838682 190.787996 
L 262.55612 190.787996 
L 262.635036 187.688264 
L 262.762535 187.688264 
L 262.762535 187.171642 
L 263.700478 187.171642 
L 263.700478 186.65502 
L 266.218465 186.65502 
L 266.218465 186.138398 
L 266.332552 186.138398 
L 266.332552 185.621776 
L 267.000063 185.621776 
L 267.04373 184.07191 
L 267.74063 184.07191 
L 267.74063 183.555288 
L 268.963019 183.555288 
L 268.963019 183.038666 
L 269.448155 183.038666 
L 269.448155 182.522044 
L 269.830825 182.522044 
L 269.830825 180.455556 
L 271.075333 180.455556 
L 271.168038 176.839201 
L 271.458641 176.839201 
L 271.458641 176.322579 
L 272.864682 176.322579 
L 272.864682 175.805957 
L 273.380545 175.805957 
L 273.380545 175.289335 
L 274.245704 175.289335 
L 274.245704 174.772713 
L 274.596782 174.772713 
L 274.596782 174.256091 
L 274.955982 174.256091 
L 274.955982 173.222847 
L 276.278003 173.222847 
L 276.278003 172.706225 
L 277.338533 172.706225 
L 277.338533 172.189603 
L 277.739465 172.189603 
L 277.804747 170.639737 
L 278.135242 170.639737 
L 278.135242 170.123115 
L 281.904098 170.123115 
L 281.905904 168.573249 
L 282.58443 168.573249 
L 282.633045 167.540005 
L 282.886126 167.540005 
L 282.886126 167.023383 
L 283.006262 167.023383 
L 283.006262 166.506761 
L 283.510886 166.506761 
L 283.546925 163.923651 
L 284.022867 163.923651 
L 284.022867 163.407029 
L 284.715705 163.407029 
L 284.715705 162.890407 
L 284.912216 162.890407 
L 284.912216 162.373785 
L 285.750477 162.373785 
L 285.750477 161.857163 
L 286.097416 161.857163 
L 286.097416 161.340541 
L 287.14091 161.340541 
L 287.14091 160.823919 
L 287.376665 160.823919 
L 287.376665 160.307297 
L 288.387754 160.307297 
L 288.498165 158.757431 
L 289.017949 158.757431 
L 289.017949 158.240809 
L 290.159895 158.240809 
L 290.159895 157.724187 
L 290.503769 157.724187 
L 290.568009 156.690943 
L 290.965179 156.690943 
L 290.965179 156.174321 
L 291.581722 156.174321 
L 291.581722 155.657699 
L 292.358482 155.657699 
L 292.358482 155.141077 
L 292.609341 155.141077 
L 292.609341 154.624455 
L 293.016402 154.624455 
L 293.016402 154.107833 
L 295.397625 154.107833 
L 295.397625 153.591211 
L 295.727553 153.591211 
L 295.727553 153.074589 
L 296.505512 153.074589 
L 296.505512 152.557967 
L 297.117473 152.557967 
L 297.117473 152.041345 
L 297.25082 152.041345 
L 297.25082 151.524723 
L 298.303936 151.524723 
L 298.303936 151.008101 
L 298.466356 151.008101 
L 298.466356 150.491479 
L 299.27691 150.491479 
L 299.27691 149.974857 
L 299.52225 149.974857 
L 299.53595 148.941613 
L 299.667181 148.941613 
L 299.667181 148.424991 
L 299.799817 148.424991 
L 299.799817 147.908369 
L 300.236234 147.908369 
L 300.236234 147.391747 
L 300.635892 147.391747 
L 300.635892 146.875125 
L 301.32564 146.875125 
L 301.32564 146.358503 
L 301.871641 146.358503 
L 301.903614 145.325259 
L 302.218971 145.325259 
L 302.218971 144.808637 
L 303.593102 144.808637 
L 303.688984 143.775392 
L 304.279082 143.775392 
L 304.279082 143.25877 
L 304.652308 143.25877 
L 304.652308 142.742148 
L 306.247664 142.742148 
L 306.247664 142.225526 
L 306.914762 142.225526 
L 306.914762 141.708904 
L 308.357149 141.708904 
L 308.357149 141.192282 
L 308.549573 141.192282 
L 308.549573 140.67566 
L 310.032736 140.67566 
L 310.065513 139.642416 
L 310.225787 139.642416 
L 310.225787 139.125794 
L 310.915442 139.125794 
L 310.915442 138.609172 
L 311.204505 138.609172 
L 311.204505 138.09255 
L 312.454429 138.09255 
L 312.519983 137.059306 
L 317.716284 137.059306 
L 317.716284 136.542684 
L 318.39509 136.542684 
L 318.39509 136.026062 
L 319.008761 136.026062 
L 319.060582 134.992818 
L 320.067151 134.992818 
L 320.067151 134.476196 
L 323.680249 134.476196 
L 323.680249 133.959574 
L 324.280923 133.959574 
L 324.280923 133.442952 
L 324.721946 133.442952 
L 324.721946 132.92633 
L 358.8 132.92633 
L 358.8 132.92633 
" style="fill:none;stroke:#008000;stroke-linecap:square;stroke-width:1.5;"/>
   </g>
   <g id="line2d_30">
    <defs>
     <path d="M -0 6 
L 6 -6 
L -6 -6 
z
" id="mdea5a82532" style="stroke:#008000;stroke-linejoin:miter;stroke-width:1.5;"/>
    </defs>
    <g>
     <use style="fill:none;stroke:#008000;stroke-linejoin:miter;stroke-width:1.5;" x="211.443228" xlink:href="#mdea5a82532" y="264.664944"/>
     <use style="fill:none;stroke:#008000;stroke-linejoin:miter;stroke-width:1.5;" x="258.129287" xlink:href="#mdea5a82532" y="198.537326"/>
     <use style="fill:none;stroke:#008000;stroke-linejoin:miter;stroke-width:1.5;" x="310.065513" xlink:href="#mdea5a82532" y="140.159038"/>
     <use style="fill:none;stroke:#008000;stroke-linejoin:miter;stroke-width:1.5;" x="324.721946" xlink:href="#mdea5a82532" y="132.92633"/>
     <use style="fill:none;stroke:#008000;stroke-linejoin:miter;stroke-width:1.5;" x="358.8" xlink:href="#mdea5a82532" y="132.92633"/>
    </g>
   </g>
   <g id="line2d_31"/>
   <g id="line2d_32">
    <path clip-path="url(#p2d81b8f478)" d="M 258.129287 196.98746 
" style="fill:none;stroke:#008000;stroke-linecap:square;stroke-width:1.5;"/>
    <defs>
     <path d="M -12 12 
L 12 -12 
M -12 -12 
L 12 12 
" id="m8e491af4e9" style="stroke:#008000;stroke-width:3;"/>
    </defs>
    <g clip-path="url(#p2d81b8f478)">
     <use style="fill:#008000;stroke:#008000;stroke-width:3;" x="258.129287" xlink:href="#m8e491af4e9" y="196.98746"/>
    </g>
   </g>
   <g id="line2d_33">
    <defs>
     <path d="M 0 1.5 
C 0.397805 1.5 0.77937 1.341951 1.06066 1.06066 
C 1.341951 0.77937 1.5 0.397805 1.5 0 
C 1.5 -0.397805 1.341951 -0.77937 1.06066 -1.06066 
C 0.77937 -1.341951 0.397805 -1.5 0 -1.5 
C -0.397805 -1.5 -0.77937 -1.341951 -1.06066 -1.06066 
C -1.341951 -0.77937 -1.5 -0.397805 -1.5 0 
C -1.5 0.397805 -1.341951 0.77937 -1.06066 1.06066 
C -0.77937 1.341951 -0.397805 1.5 0 1.5 
z
" id="ma950bbcde8" style="stroke:#0000ff;"/>
    </defs>
    <g>
     <use style="fill:#0000ff;stroke:#0000ff;" x="325.69468" xlink:href="#ma950bbcde8" y="158.757431"/>
     <use style="fill:#0000ff;stroke:#0000ff;" x="325.69468" xlink:href="#ma950bbcde8" y="158.757431"/>
    </g>
   </g>
   <g id="line2d_34">
    <path d="M 174.233809 298.245375 
L 174.233809 295.662265 
L 177.971949 295.662265 
L 177.971949 294.629021 
L 179.534814 294.629021 
L 179.534814 294.112399 
L 182.769498 294.112399 
L 182.769498 293.079155 
L 188.229307 293.079155 
L 188.229307 291.012667 
L 189.240063 291.012667 
L 189.240063 288.946179 
L 189.687955 288.946179 
L 189.687955 287.396313 
L 191.104694 287.396313 
L 191.104694 286.363069 
L 198.778548 286.363069 
L 198.778548 285.846447 
L 199.722744 285.846447 
L 199.722744 285.329825 
L 200.5745 285.329825 
L 200.5745 284.813203 
L 201.277035 284.813203 
L 201.289075 280.163604 
L 201.392283 280.163604 
L 201.392283 278.097116 
L 201.528181 278.097116 
L 201.528181 277.580494 
L 204.148032 277.580494 
L 204.148032 276.030628 
L 204.63566 276.030628 
L 204.63566 274.480762 
L 204.863737 274.480762 
L 204.863737 273.447518 
L 205.397617 273.447518 
L 205.397617 272.930896 
L 206.772128 272.930896 
L 206.772128 270.864408 
L 207.002642 270.864408 
L 207.002642 269.831164 
L 208.586051 269.831164 
L 208.586051 268.79792 
L 208.911093 268.79792 
L 208.911093 268.281298 
L 209.496884 268.281298 
L 209.496884 267.764676 
L 209.621137 267.764676 
L 209.621137 266.21481 
L 212.054029 266.21481 
L 212.054029 264.664944 
L 212.47855 264.664944 
L 212.47855 263.6317 
L 212.605498 263.6317 
L 212.605498 263.115078 
L 215.093223 263.115078 
L 215.093223 262.081834 
L 216.173789 262.081834 
L 216.198886 260.015346 
L 216.590608 260.015346 
L 216.590608 259.498724 
L 216.712868 259.498724 
L 216.712868 257.432236 
L 217.751264 257.432236 
L 217.751264 256.915614 
L 218.842006 256.915614 
L 218.842006 255.365748 
L 219.879335 255.365748 
L 219.879335 254.849126 
L 220.401466 254.849126 
L 220.401466 253.815882 
L 221.433284 253.815882 
L 221.538999 252.266016 
L 221.859295 252.266016 
L 221.859295 251.232772 
L 222.782051 251.232772 
L 222.782051 249.166284 
L 225.778111 249.166284 
L 225.795221 246.066551 
L 226.833864 246.066551 
L 226.833864 245.549929 
L 227.323261 245.549929 
L 227.323261 245.033307 
L 227.749312 245.033307 
L 227.749312 244.516685 
L 228.11831 244.516685 
L 228.11831 243.483441 
L 232.468362 243.483441 
L 232.576499 240.900331 
L 232.648645 240.900331 
L 232.648645 239.350465 
L 233.170343 239.350465 
L 233.170343 237.283977 
L 233.91338 237.283977 
L 233.91338 235.734111 
L 234.139932 235.734111 
L 234.187726 233.151001 
L 234.505625 233.151001 
L 234.505625 232.634379 
L 235.405702 232.634379 
L 235.445606 230.567891 
L 236.905687 230.567891 
L 236.905687 229.534647 
L 237.599132 229.534647 
L 237.599132 229.018025 
L 237.891071 229.018025 
L 237.904722 223.851805 
L 239.071834 223.851805 
L 239.161379 221.785317 
L 239.189684 221.785317 
L 239.189684 220.752073 
L 239.897565 220.752073 
L 239.903667 219.202207 
L 240.373558 219.202207 
L 240.373558 218.168963 
L 241.18385 218.168963 
L 241.294245 217.135719 
L 241.659893 217.135719 
L 241.659893 216.619097 
L 242.475208 216.619097 
L 242.475208 216.102475 
L 243.603909 216.102475 
L 243.603909 215.585853 
L 246.15066 215.585853 
L 246.15066 215.069231 
L 248.209897 215.069231 
L 248.230442 214.035987 
L 249.894388 214.035987 
L 249.894388 213.519365 
L 251.534902 213.519365 
L 251.556005 210.419632 
L 251.876122 210.419632 
L 251.876122 209.90301 
L 252.253788 209.90301 
L 252.253788 209.386388 
L 252.457533 209.386388 
L 252.457533 206.286656 
L 252.668078 206.286656 
L 252.668078 204.220168 
L 255.071466 204.220168 
L 255.071466 203.703546 
L 256.825881 203.703546 
L 256.825881 202.670302 
L 258.26367 202.670302 
L 258.26367 199.053948 
L 258.869291 199.053948 
L 258.869291 198.537326 
L 263.971693 198.537326 
L 263.971693 198.020704 
L 266.411626 198.020704 
L 266.411626 196.470838 
L 266.978281 196.470838 
L 266.978281 195.437594 
L 269.548072 195.437594 
L 269.553085 194.40435 
L 270.210472 194.40435 
L 270.210472 193.887728 
L 270.415002 193.887728 
L 270.415002 193.371106 
L 271.348725 193.371106 
L 271.348725 191.82124 
L 272.613004 191.82124 
L 272.613004 191.304618 
L 272.989117 191.304618 
L 272.989117 188.204886 
L 273.134092 188.204886 
L 273.134092 186.65502 
L 273.698451 186.65502 
L 273.698451 186.138398 
L 275.896054 186.138398 
L 275.896054 185.621776 
L 276.045073 185.621776 
L 276.045073 185.105154 
L 277.669835 185.105154 
L 277.669835 184.588532 
L 277.887813 184.588532 
L 277.935963 183.038666 
L 278.679384 183.038666 
L 278.679384 182.522044 
L 279.416452 182.522044 
L 279.416452 182.005422 
L 279.588386 182.005422 
L 279.655746 180.972178 
L 279.983522 180.972178 
L 279.983522 180.455556 
L 282.083452 180.455556 
L 282.083452 179.938934 
L 282.620506 179.938934 
L 282.655918 178.90569 
L 283.745622 178.90569 
L 283.745622 178.389067 
L 284.02444 178.389067 
L 284.02444 177.872445 
L 284.558855 177.872445 
L 284.558855 177.355823 
L 285.260682 177.355823 
L 285.260682 176.839201 
L 285.40471 176.839201 
L 285.477221 174.772713 
L 285.719306 174.772713 
L 285.719306 174.256091 
L 286.109166 174.256091 
L 286.109166 173.739469 
L 288.182444 173.739469 
L 288.182444 173.222847 
L 288.822862 173.222847 
L 288.822862 172.706225 
L 289.725285 172.706225 
L 289.725285 172.189603 
L 290.599512 172.189603 
L 290.599512 171.672981 
L 291.050826 171.672981 
L 291.050826 171.156359 
L 291.203343 171.156359 
L 291.203343 170.639737 
L 291.921734 170.639737 
L 291.921734 170.123115 
L 293.160563 170.123115 
L 293.160563 169.606493 
L 294.62959 169.606493 
L 294.62959 169.089871 
L 294.853799 169.089871 
L 294.853799 168.573249 
L 295.137015 168.573249 
L 295.226724 167.540005 
L 296.479113 167.540005 
L 296.479113 167.023383 
L 297.514712 167.023383 
L 297.514712 166.506761 
L 297.667708 166.506761 
L 297.667708 165.990139 
L 300.571946 165.990139 
L 300.571946 165.473517 
L 302.292021 165.473517 
L 302.292021 164.956895 
L 302.814494 164.956895 
L 302.814494 164.440273 
L 303.084028 164.440273 
L 303.084028 163.923651 
L 304.206891 163.923651 
L 304.206891 163.407029 
L 309.204776 163.407029 
L 309.204776 162.890407 
L 311.74522 162.890407 
L 311.74522 162.373785 
L 312.498195 162.373785 
L 312.498195 161.857163 
L 314.030921 161.857163 
L 314.030921 161.340541 
L 314.850401 161.340541 
L 314.850401 160.823919 
L 317.905692 160.823919 
L 317.905692 160.307297 
L 324.383834 160.307297 
L 324.383834 159.790675 
L 325.569731 159.790675 
L 325.569731 159.274053 
L 325.69468 159.274053 
L 325.69468 158.757431 
L 358.8 158.757431 
L 358.8 158.757431 
" style="fill:none;stroke:#0000ff;stroke-linecap:square;stroke-width:1.5;"/>
   </g>
   <g id="line2d_35">
    <defs>
     <path d="M 0 -6 
L -1.347084 -1.854102 
L -5.706339 -1.854102 
L -2.179628 0.708204 
L -3.526712 4.854102 
L -0 2.291796 
L 3.526712 4.854102 
L 2.179628 0.708204 
L 5.706339 -1.854102 
L 1.347084 -1.854102 
z
" id="m82cfed2797" style="stroke:#0000ff;stroke-linejoin:bevel;stroke-width:1.5;"/>
    </defs>
    <g>
     <use style="fill:none;stroke:#0000ff;stroke-linejoin:bevel;stroke-width:1.5;" x="239.897565" xlink:href="#m82cfed2797" y="220.235451"/>
     <use style="fill:none;stroke:#0000ff;stroke-linejoin:bevel;stroke-width:1.5;" x="297.667708" xlink:href="#m82cfed2797" y="165.990139"/>
     <use style="fill:none;stroke:#0000ff;stroke-linejoin:bevel;stroke-width:1.5;" x="325.69468" xlink:href="#m82cfed2797" y="158.757431"/>
     <use style="fill:none;stroke:#0000ff;stroke-linejoin:bevel;stroke-width:1.5;" x="358.8" xlink:href="#m82cfed2797" y="158.757431"/>
    </g>
   </g>
   <g id="line2d_36"/>
   <g id="line2d_37">
    <path clip-path="url(#p2d81b8f478)" d="M 271.348725 191.82124 
" style="fill:none;stroke:#0000ff;stroke-linecap:square;stroke-width:1.5;"/>
    <defs>
     <path d="M -12 12 
L 12 -12 
M -12 -12 
L 12 12 
" id="m41f163fa85" style="stroke:#0000ff;stroke-width:3;"/>
    </defs>
    <g clip-path="url(#p2d81b8f478)">
     <use style="fill:#0000ff;stroke:#0000ff;stroke-width:3;" x="271.348725" xlink:href="#m41f163fa85" y="191.82124"/>
    </g>
   </g>
   <g id="line2d_38">
    <defs>
     <path d="M 0 1.5 
C 0.397805 1.5 0.77937 1.341951 1.06066 1.06066 
C 1.341951 0.77937 1.5 0.397805 1.5 0 
C 1.5 -0.397805 1.341951 -0.77937 1.06066 -1.06066 
C 0.77937 -1.341951 0.397805 -1.5 0 -1.5 
C -0.397805 -1.5 -0.77937 -1.341951 -1.06066 -1.06066 
C -1.341951 -0.77937 -1.5 -0.397805 -1.5 0 
C -1.5 0.397805 -1.341951 0.77937 -1.06066 1.06066 
C -0.77937 1.341951 -0.397805 1.5 0 1.5 
z
" id="m4aa11cc183" style="stroke:#000000;"/>
    </defs>
    <g>
     <use style="stroke:#000000;" x="330.244796" xlink:href="#m4aa11cc183" y="153.591211"/>
     <use style="stroke:#000000;" x="330.244796" xlink:href="#m4aa11cc183" y="153.591211"/>
    </g>
   </g>
   <g id="line2d_39">
    <path d="M 178.109006 298.245375 
L 178.109006 296.695509 
L 180.669178 296.695509 
L 180.669178 295.662265 
L 182.426924 295.662265 
L 182.426924 294.629021 
L 183.643548 294.629021 
L 183.643548 294.112399 
L 183.97012 294.112399 
L 183.97012 293.595777 
L 184.79774 293.595777 
L 184.79774 292.562533 
L 185.747391 292.562533 
L 185.747391 292.045911 
L 186.40716 292.045911 
L 186.40716 291.529289 
L 187.12605 291.529289 
L 187.12605 291.012667 
L 188.366266 291.012667 
L 188.366266 290.496045 
L 188.727251 290.496045 
L 188.727251 289.462801 
L 188.889392 289.462801 
L 188.889392 288.429557 
L 189.535255 288.429557 
L 189.535255 287.912935 
L 189.777577 287.912935 
L 189.777577 287.396313 
L 192.09607 287.396313 
L 192.09607 286.879691 
L 193.448834 286.879691 
L 193.448834 286.363069 
L 198.476828 286.363069 
L 198.476828 284.813203 
L 199.001541 284.813203 
L 199.001541 283.779959 
L 200.45636 283.779959 
L 200.45636 283.263337 
L 200.740334 283.263337 
L 200.740334 282.746715 
L 201.14042 282.746715 
L 201.14042 282.230093 
L 201.579173 282.230093 
L 201.579173 281.713471 
L 202.312327 281.713471 
L 202.312327 281.196849 
L 202.715769 281.196849 
L 202.715769 280.163604 
L 203.974894 280.163604 
L 203.974894 279.646982 
L 211.329229 279.646982 
L 211.388143 273.96414 
L 211.485677 273.96414 
L 211.574562 270.347786 
L 211.783154 270.347786 
L 211.783154 269.314542 
L 212.75564 269.314542 
L 212.75564 268.79792 
L 217.312413 268.79792 
L 217.312413 267.764676 
L 217.789544 267.764676 
L 217.882509 265.181566 
L 218.237958 265.181566 
L 218.237958 264.664944 
L 218.362449 264.664944 
L 218.362449 263.6317 
L 218.754366 263.6317 
L 218.754366 263.115078 
L 220.146497 263.115078 
L 220.191683 261.04859 
L 220.503593 261.04859 
L 220.50852 260.015346 
L 221.261333 260.015346 
L 221.277462 258.46548 
L 222.331449 258.46548 
L 222.331449 257.948858 
L 223.368736 257.948858 
L 223.368736 256.398992 
L 224.149313 256.398992 
L 224.149313 255.365748 
L 225.632942 255.365748 
L 225.632942 254.849126 
L 225.815364 254.849126 
L 225.924536 253.29926 
L 226.449426 253.29926 
L 226.449426 252.782638 
L 227.476789 252.782638 
L 227.476789 252.266016 
L 227.799337 252.266016 
L 227.799337 249.682906 
L 228.253745 249.682906 
L 228.253745 249.166284 
L 228.722047 249.166284 
L 228.722047 248.13304 
L 229.95475 248.13304 
L 229.95475 247.616418 
L 230.856366 247.616418 
L 230.897268 244.000063 
L 231.609549 244.000063 
L 231.609549 242.450197 
L 233.353919 242.450197 
L 233.353919 240.383709 
L 234.401606 240.383709 
L 234.401606 239.350465 
L 236.225851 239.350465 
L 236.225851 238.317221 
L 237.670287 238.317221 
L 237.670287 237.283977 
L 238.192971 237.283977 
L 238.1977 235.734111 
L 238.389327 235.734111 
L 238.389327 234.700867 
L 239.071689 234.700867 
L 239.071689 233.667623 
L 239.679876 233.667623 
L 239.679876 233.151001 
L 239.797981 233.151001 
L 239.797981 230.567891 
L 240.271846 230.567891 
L 240.271846 230.051269 
L 240.422111 230.051269 
L 240.422784 229.018025 
L 240.537031 229.018025 
L 240.579669 227.984781 
L 240.936276 227.984781 
L 240.936276 226.951537 
L 243.190918 226.951537 
L 243.190918 226.434915 
L 243.409321 226.434915 
L 243.409321 225.401671 
L 243.753531 225.401671 
L 243.753531 224.885049 
L 244.512887 224.885049 
L 244.512887 223.335183 
L 245.717836 223.335183 
L 245.737052 222.301939 
L 246.84861 222.301939 
L 246.84861 220.752073 
L 247.12905 220.752073 
L 247.12905 220.235451 
L 247.345285 220.235451 
L 247.447021 218.685585 
L 247.60062 218.685585 
L 247.60062 218.168963 
L 248.154851 218.168963 
L 248.154851 217.135719 
L 248.920032 217.135719 
L 248.920032 215.069231 
L 249.116253 215.069231 
L 249.116253 214.035987 
L 250.095304 214.035987 
L 250.095304 211.452876 
L 250.443504 211.452876 
L 250.518216 209.386388 
L 250.711217 209.386388 
L 250.711217 208.353144 
L 250.879889 208.353144 
L 250.879889 207.836522 
L 251.525788 207.836522 
L 251.525788 206.803278 
L 251.796914 206.803278 
L 251.796914 206.286656 
L 252.851534 206.286656 
L 252.852609 204.73679 
L 253.034057 204.73679 
L 253.05851 203.703546 
L 253.868316 203.703546 
L 253.868316 203.186924 
L 254.255637 203.186924 
L 254.255637 202.670302 
L 256.286923 202.670302 
L 256.312124 199.57057 
L 256.542869 199.57057 
L 256.542869 199.053948 
L 257.246029 199.053948 
L 257.246029 198.537326 
L 258.442403 198.537326 
L 258.442403 197.504082 
L 259.569304 197.504082 
L 259.67902 195.954216 
L 260.200141 195.954216 
L 260.200141 195.437594 
L 260.442706 195.437594 
L 260.462154 194.40435 
L 261.33993 194.40435 
L 261.33993 193.371106 
L 262.021417 193.371106 
L 262.021417 192.854484 
L 262.139366 192.854484 
L 262.139366 192.337862 
L 263.459361 192.337862 
L 263.459361 190.787996 
L 263.84862 190.787996 
L 263.84862 190.271374 
L 264.225813 190.271374 
L 264.225813 189.754752 
L 264.591517 189.754752 
L 264.591517 189.23813 
L 265.731984 189.23813 
L 265.731984 186.138398 
L 265.934335 186.138398 
L 265.934335 185.621776 
L 267.137561 185.621776 
L 267.137561 184.07191 
L 267.593843 184.07191 
L 267.593843 183.038666 
L 268.672766 183.038666 
L 268.672766 182.005422 
L 268.972986 182.005422 
L 268.972986 181.4888 
L 270.759367 181.4888 
L 270.759367 180.972178 
L 271.754485 180.972178 
L 271.754485 180.455556 
L 272.889001 180.455556 
L 272.889001 179.938934 
L 273.500161 179.938934 
L 273.500161 179.422312 
L 273.929743 179.422312 
L 273.929743 178.90569 
L 275.080706 178.90569 
L 275.080706 178.389067 
L 277.200339 178.389067 
L 277.200339 177.872445 
L 277.604814 177.872445 
L 277.604814 177.355823 
L 277.900318 177.355823 
L 277.953891 176.322579 
L 278.573683 176.322579 
L 278.573683 175.805957 
L 278.742163 175.805957 
L 278.742163 175.289335 
L 279.770122 175.289335 
L 279.770122 174.772713 
L 280.894459 174.772713 
L 280.894459 174.256091 
L 282.005015 174.256091 
L 282.051696 173.222847 
L 283.559015 173.222847 
L 283.559015 172.706225 
L 287.445503 172.706225 
L 287.445503 172.189603 
L 287.906148 172.189603 
L 287.906148 171.672981 
L 289.044014 171.672981 
L 289.044014 171.156359 
L 290.27715 171.156359 
L 290.381713 170.123115 
L 290.450152 170.123115 
L 290.450152 169.606493 
L 290.93508 169.606493 
L 290.93508 169.089871 
L 293.828694 169.089871 
L 293.828694 168.573249 
L 294.991737 168.573249 
L 294.991737 168.056627 
L 295.165934 168.056627 
L 295.165934 167.540005 
L 296.304523 167.540005 
L 296.304523 167.023383 
L 296.741615 167.023383 
L 296.741615 166.506761 
L 297.105978 166.506761 
L 297.105978 165.990139 
L 299.267794 165.990139 
L 299.267794 165.473517 
L 299.436424 165.473517 
L 299.436424 164.956895 
L 299.830883 164.956895 
L 299.872812 163.923651 
L 300.283816 163.923651 
L 300.283816 163.407029 
L 300.716505 163.407029 
L 300.765466 162.373785 
L 302.50014 162.373785 
L 302.50014 161.857163 
L 302.981789 161.857163 
L 302.981789 161.340541 
L 303.365455 161.340541 
L 303.365455 160.823919 
L 303.918049 160.823919 
L 303.918049 160.307297 
L 304.806845 160.307297 
L 304.806845 159.790675 
L 305.158354 159.790675 
L 305.158354 159.274053 
L 305.589355 159.274053 
L 305.589355 158.757431 
L 307.113785 158.757431 
L 307.113785 158.240809 
L 308.848376 158.240809 
L 308.848376 157.724187 
L 309.999141 157.724187 
L 309.999141 157.207565 
L 311.794644 157.207565 
L 311.794644 156.690943 
L 322.033926 156.690943 
L 322.033926 156.174321 
L 323.002168 156.174321 
L 323.002168 155.657699 
L 325.60952 155.657699 
L 325.60952 155.141077 
L 325.797273 155.141077 
L 325.797273 154.624455 
L 326.084134 154.624455 
L 326.084134 154.107833 
L 330.244796 154.107833 
L 330.244796 153.591211 
L 358.8 153.591211 
L 358.8 153.591211 
" style="fill:none;stroke:#000000;stroke-linecap:square;stroke-width:1.5;"/>
   </g>
   <g id="line2d_40">
    <defs>
     <path d="M 0 6 
C 1.591219 6 3.117479 5.367802 4.242641 4.242641 
C 5.367802 3.117479 6 1.591219 6 0 
C 6 -1.591219 5.367802 -3.117479 4.242641 -4.242641 
C 3.117479 -5.367802 1.591219 -6 0 -6 
C -1.591219 -6 -3.117479 -5.367802 -4.242641 -4.242641 
C -5.367802 -3.117479 -6 -1.591219 -6 0 
C -6 1.591219 -5.367802 3.117479 -4.242641 4.242641 
C -3.117479 5.367802 -1.591219 6 0 6 
z
" id="m4dbeb91e43" style="stroke:#000000;stroke-width:1.5;"/>
    </defs>
    <g>
     <use style="fill:none;stroke:#000000;stroke-width:1.5;" x="265.934335" xlink:href="#m4dbeb91e43" y="185.621776"/>
     <use style="fill:none;stroke:#000000;stroke-width:1.5;" x="330.244796" xlink:href="#m4dbeb91e43" y="153.591211"/>
     <use style="fill:none;stroke:#000000;stroke-width:1.5;" x="330.244796" xlink:href="#m4dbeb91e43" y="153.591211"/>
     <use style="fill:none;stroke:#000000;stroke-width:1.5;" x="358.8" xlink:href="#m4dbeb91e43" y="153.591211"/>
    </g>
   </g>
   <g id="line2d_41"/>
   <g id="line2d_42">
    <path clip-path="url(#p2d81b8f478)" d="M 268.972986 181.4888 
" style="fill:none;stroke:#000000;stroke-linecap:square;stroke-width:1.5;"/>
    <defs>
     <path d="M -12 12 
L 12 -12 
M -12 -12 
L 12 12 
" id="mfea08a099e" style="stroke:#000000;stroke-width:3;"/>
    </defs>
    <g clip-path="url(#p2d81b8f478)">
     <use style="stroke:#000000;stroke-width:3;" x="268.972986" xlink:href="#mfea08a099e" y="181.4888"/>
    </g>
   </g>
   <g id="line2d_43">
    <defs>
     <path d="M 0 1.5 
C 0.397805 1.5 0.77937 1.341951 1.06066 1.06066 
C 1.341951 0.77937 1.5 0.397805 1.5 0 
C 1.5 -0.397805 1.341951 -0.77937 1.06066 -1.06066 
C 0.77937 -1.341951 0.397805 -1.5 0 -1.5 
C -0.397805 -1.5 -0.77937 -1.341951 -1.06066 -1.06066 
C -1.341951 -0.77937 -1.5 -0.397805 -1.5 0 
C -1.5 0.397805 -1.341951 0.77937 -1.06066 1.06066 
C -0.77937 1.341951 -0.397805 1.5 0 1.5 
z
" id="m241e84cfad" style="stroke:#ff0000;"/>
    </defs>
    <g>
     <use style="fill:#ff0000;stroke:#ff0000;" x="321.724699" xlink:href="#m241e84cfad" y="174.256091"/>
     <use style="fill:#ff0000;stroke:#ff0000;" x="321.724699" xlink:href="#m241e84cfad" y="174.256091"/>
    </g>
   </g>
   <g id="line2d_44">
    <path d="M 208.090415 298.245375 
L 208.090415 296.695509 
L 208.090415 296.695509 
L 208.090415 296.695509 
L 208.14995 296.695509 
L 208.14995 296.178887 
L 208.763575 296.178887 
L 208.763575 295.145643 
L 209.439391 295.145643 
L 209.439391 294.112399 
L 211.729892 294.112399 
L 211.729892 293.595777 
L 211.84126 293.595777 
L 211.84126 292.562533 
L 211.998265 292.562533 
L 212.103379 291.012667 
L 212.18042 291.012667 
L 212.219632 289.979423 
L 212.30105 289.979423 
L 212.30105 289.462801 
L 212.412477 289.462801 
L 212.485305 287.396313 
L 212.590798 287.396313 
L 212.590798 286.879691 
L 212.758808 286.879691 
L 212.832134 285.329825 
L 213.17669 285.329825 
L 213.17669 284.813203 
L 215.416832 284.813203 
L 215.416832 284.296581 
L 215.957969 284.296581 
L 215.957969 283.779959 
L 216.202543 283.779959 
L 216.202543 283.263337 
L 216.735952 283.263337 
L 216.735952 282.746715 
L 217.23665 282.746715 
L 217.341599 280.680226 
L 219.628612 280.680226 
L 219.645638 279.646982 
L 219.821196 279.646982 
L 219.876145 278.613738 
L 220.960281 278.613738 
L 220.960281 278.097116 
L 223.623485 278.097116 
L 223.623485 277.580494 
L 225.061984 277.580494 
L 225.061984 276.54725 
L 225.259583 276.54725 
L 225.259583 276.030628 
L 225.755325 276.030628 
L 225.755325 274.480762 
L 226.42689 274.480762 
L 226.42689 272.414274 
L 226.550705 272.414274 
L 226.561679 271.38103 
L 226.809212 271.38103 
L 226.865961 270.347786 
L 228.503738 270.347786 
L 228.503738 269.831164 
L 228.900672 269.831164 
L 228.900672 269.314542 
L 229.113833 269.314542 
L 229.159172 268.281298 
L 229.25064 268.281298 
L 229.25064 267.764676 
L 229.368664 267.764676 
L 229.368664 267.248054 
L 229.787871 267.248054 
L 229.787871 266.731432 
L 230.070272 266.731432 
L 230.070272 266.21481 
L 230.191261 266.21481 
L 230.191261 265.698188 
L 230.552432 265.698188 
L 230.55524 264.148322 
L 231.408379 264.148322 
L 231.408379 262.598456 
L 231.572458 262.598456 
L 231.572458 261.565212 
L 232.185941 261.565212 
L 232.185941 261.04859 
L 232.537595 261.04859 
L 232.629178 259.498724 
L 233.651978 259.498724 
L 233.651978 258.46548 
L 234.158396 258.46548 
L 234.190112 257.432236 
L 234.593091 257.432236 
L 234.593091 256.915614 
L 235.857297 256.915614 
L 235.857297 256.398992 
L 236.026039 256.398992 
L 236.116244 253.815882 
L 236.209491 253.815882 
L 236.209491 253.29926 
L 236.343422 253.29926 
L 236.373856 251.232772 
L 236.830097 251.232772 
L 236.861851 249.682906 
L 237.08037 249.682906 
L 237.08037 248.649662 
L 237.688424 248.649662 
L 237.697211 245.549929 
L 237.849979 245.549929 
L 237.849979 244.516685 
L 238.186561 244.516685 
L 238.186561 244.000063 
L 238.472363 244.000063 
L 238.472363 243.483441 
L 238.825236 243.483441 
L 238.825236 242.966819 
L 238.941793 242.966819 
L 238.941793 242.450197 
L 239.88709 242.450197 
L 239.88709 241.416953 
L 240.646296 241.416953 
L 240.646296 240.900331 
L 240.9205 240.900331 
L 240.9205 240.383709 
L 241.034417 240.383709 
L 241.075236 239.350465 
L 241.386425 239.350465 
L 241.386425 238.833843 
L 242.582165 238.833843 
L 242.582165 238.317221 
L 243.049865 238.317221 
L 243.049865 237.800599 
L 244.363846 237.800599 
L 244.363846 236.250733 
L 244.475891 236.250733 
L 244.494989 234.184245 
L 244.699061 234.184245 
L 244.699061 233.151001 
L 245.232849 233.151001 
L 245.232849 231.601135 
L 245.725395 231.601135 
L 245.725395 230.051269 
L 247.055241 230.051269 
L 247.055241 229.018025 
L 247.365843 229.018025 
L 247.365843 228.501403 
L 247.654074 228.501403 
L 247.654074 227.984781 
L 247.946129 227.984781 
L 247.946129 227.468159 
L 248.754571 227.468159 
L 248.754571 226.951537 
L 250.462787 226.951537 
L 250.462787 226.434915 
L 250.922371 226.434915 
L 250.922371 225.401671 
L 251.613046 225.401671 
L 251.613046 224.368427 
L 251.964055 224.368427 
L 251.976088 223.335183 
L 252.371553 223.335183 
L 252.446782 222.301939 
L 252.492899 222.301939 
L 252.512764 220.752073 
L 252.854792 220.752073 
L 252.854792 220.235451 
L 254.679551 220.235451 
L 254.6941 218.168963 
L 254.895856 218.168963 
L 254.895856 217.135719 
L 255.045284 217.135719 
L 255.045284 216.619097 
L 255.812522 216.619097 
L 255.812522 216.102475 
L 255.941853 216.102475 
L 255.941853 215.585853 
L 256.508687 215.585853 
L 256.508687 213.519365 
L 258.08694 213.519365 
L 258.08694 212.48612 
L 258.798519 212.48612 
L 258.798519 211.969498 
L 260.537201 211.969498 
L 260.609345 209.90301 
L 261.387967 209.90301 
L 261.387967 208.869766 
L 262.041511 208.869766 
L 262.041511 208.353144 
L 262.491234 208.353144 
L 262.491234 207.836522 
L 262.925597 207.836522 
L 262.925597 207.3199 
L 263.740679 207.3199 
L 263.740679 206.803278 
L 265.622088 206.803278 
L 265.688332 205.770034 
L 266.470123 205.770034 
L 266.557682 204.73679 
L 267.646971 204.73679 
L 267.646971 204.220168 
L 267.799393 204.220168 
L 267.799393 201.120436 
L 268.880586 201.120436 
L 268.880586 200.603814 
L 269.332872 200.603814 
L 269.332872 199.57057 
L 270.470608 199.57057 
L 270.475457 197.504082 
L 270.874517 197.504082 
L 270.874517 196.98746 
L 271.209018 196.98746 
L 271.209018 196.470838 
L 272.503172 196.470838 
L 272.503172 195.954216 
L 272.746318 195.954216 
L 272.746318 195.437594 
L 273.084292 195.437594 
L 273.084292 194.920972 
L 273.770212 194.920972 
L 273.770212 193.887728 
L 274.708597 193.887728 
L 274.708597 192.854484 
L 274.842881 192.854484 
L 274.842881 192.337862 
L 275.024248 192.337862 
L 275.024248 191.82124 
L 275.502837 191.82124 
L 275.502837 191.304618 
L 275.938787 191.304618 
L 275.938787 190.787996 
L 276.21514 190.787996 
L 276.21514 190.271374 
L 278.360368 190.271374 
L 278.360368 189.754752 
L 279.96556 189.754752 
L 279.96556 189.23813 
L 280.204077 189.23813 
L 280.204077 188.721508 
L 280.384336 188.721508 
L 280.384336 188.204886 
L 281.006277 188.204886 
L 281.006277 187.688264 
L 281.922174 187.688264 
L 281.922174 187.171642 
L 282.763177 187.171642 
L 282.768176 186.138398 
L 283.707296 186.138398 
L 283.707296 185.621776 
L 284.371081 185.621776 
L 284.44832 184.07191 
L 286.670411 184.07191 
L 286.670411 183.555288 
L 288.665485 183.555288 
L 288.665485 183.038666 
L 290.351291 183.038666 
L 290.351291 182.522044 
L 291.826269 182.522044 
L 291.826269 182.005422 
L 292.724308 182.005422 
L 292.724308 181.4888 
L 296.653739 181.4888 
L 296.653739 180.972178 
L 297.373314 180.972178 
L 297.40989 179.938934 
L 299.142432 179.938934 
L 299.142432 179.422312 
L 299.312762 179.422312 
L 299.312762 178.90569 
L 299.685929 178.90569 
L 299.685929 178.389067 
L 306.955208 178.389067 
L 306.955208 177.872445 
L 307.356553 177.872445 
L 307.356553 177.355823 
L 307.586539 177.355823 
L 307.586539 176.839201 
L 313.824156 176.839201 
L 313.824156 176.322579 
L 314.190342 176.322579 
L 314.190342 175.805957 
L 315.272733 175.805957 
L 315.272733 175.289335 
L 321.109632 175.289335 
L 321.109632 174.772713 
L 321.724699 174.772713 
L 321.724699 174.256091 
L 358.8 174.256091 
L 358.8 174.256091 
" style="fill:none;stroke:#ff0000;stroke-linecap:square;stroke-width:1.5;"/>
   </g>
   <g id="line2d_45">
    <defs>
     <path d="M -6 6 
L 6 6 
L 6 -6 
L -6 -6 
z
" id="m27ee14ab3d" style="stroke:#ff0000;stroke-linejoin:miter;stroke-width:1.5;"/>
    </defs>
    <g>
     <use style="fill:none;stroke:#ff0000;stroke-linejoin:miter;stroke-width:1.5;" x="236.050052" xlink:href="#m27ee14ab3d" y="255.365748"/>
     <use style="fill:none;stroke:#ff0000;stroke-linejoin:miter;stroke-width:1.5;" x="267.799393" xlink:href="#m27ee14ab3d" y="204.220168"/>
     <use style="fill:none;stroke:#ff0000;stroke-linejoin:miter;stroke-width:1.5;" x="321.724699" xlink:href="#m27ee14ab3d" y="174.256091"/>
     <use style="fill:none;stroke:#ff0000;stroke-linejoin:miter;stroke-width:1.5;" x="358.8" xlink:href="#m27ee14ab3d" y="174.256091"/>
    </g>
   </g>
   <g id="line2d_46"/>
   <g id="line2d_47">
    <path clip-path="url(#p2d81b8f478)" d="M 271.106315 196.98746 
" style="fill:none;stroke:#ff0000;stroke-linecap:square;stroke-width:1.5;"/>
    <defs>
     <path d="M -12 12 
L 12 -12 
M -12 -12 
L 12 12 
" id="m28c0635e69" style="stroke:#ff0000;stroke-width:3;"/>
    </defs>
    <g clip-path="url(#p2d81b8f478)">
     <use style="fill:#ff0000;stroke:#ff0000;stroke-width:3;" x="271.106315" xlink:href="#m28c0635e69" y="196.98746"/>
    </g>
   </g>
   <g id="line2d_48">
    <path d="M 358.8 174.256091 
L 390.48 292.97583 
" style="fill:none;stroke:#ff0000;stroke-linecap:square;stroke-width:1.5;"/>
    <g>
     <use style="fill:none;stroke:#ff0000;stroke-linejoin:miter;stroke-width:1.5;" x="358.8" xlink:href="#m27ee14ab3d" y="174.256091"/>
     <use style="fill:none;stroke:#ff0000;stroke-linejoin:miter;stroke-width:1.5;" x="390.48" xlink:href="#m27ee14ab3d" y="292.97583"/>
    </g>
   </g>
   <g id="line2d_49">
    <path d="M 358.8 158.757431 
L 390.48 229.741296 
" style="fill:none;stroke:#0000ff;stroke-linecap:square;stroke-width:1.5;"/>
    <g>
     <use style="fill:none;stroke:#0000ff;stroke-linejoin:bevel;stroke-width:1.5;" x="358.8" xlink:href="#m82cfed2797" y="158.757431"/>
     <use style="fill:none;stroke:#0000ff;stroke-linejoin:bevel;stroke-width:1.5;" x="390.48" xlink:href="#m82cfed2797" y="229.741296"/>
    </g>
   </g>
   <g id="line2d_50">
    <path d="M 358.8 153.591211 
L 390.48 166.506761 
" style="fill:none;stroke:#000000;stroke-linecap:square;stroke-width:1.5;"/>
    <g>
     <use style="fill:none;stroke:#000000;stroke-width:1.5;" x="358.8" xlink:href="#m4dbeb91e43" y="153.591211"/>
     <use style="fill:none;stroke:#000000;stroke-width:1.5;" x="390.48" xlink:href="#m4dbeb91e43" y="166.506761"/>
    </g>
   </g>
   <g id="line2d_51">
    <path d="M 358.8 138.09255 
L 390.48 103.272226 
" style="fill:none;stroke:#00bfbf;stroke-linecap:square;stroke-width:1.5;"/>
    <g>
     <use style="fill:none;stroke:#00bfbf;stroke-width:1.5;" x="358.8" xlink:href="#mec5b385859" y="138.09255"/>
     <use style="fill:none;stroke:#00bfbf;stroke-width:1.5;" x="390.48" xlink:href="#mec5b385859" y="103.272226"/>
    </g>
   </g>
   <g id="line2d_52">
    <path d="M 358.8 132.92633 
L 390.48 40.037692 
" style="fill:none;stroke:#008000;stroke-linecap:square;stroke-width:1.5;"/>
    <g>
     <use style="fill:none;stroke:#008000;stroke-linejoin:miter;stroke-width:1.5;" x="358.8" xlink:href="#mdea5a82532" y="132.92633"/>
     <use style="fill:none;stroke:#008000;stroke-linejoin:miter;stroke-width:1.5;" x="390.48" xlink:href="#mdea5a82532" y="40.037692"/>
    </g>
   </g>
   <g id="line2d_53">
    <path d="M 358.8 298.245375 
L 358.8 34.768147 
" style="fill:none;stroke:#000000;stroke-linecap:square;stroke-width:1.5;"/>
   </g>
   <g id="patch_3">
    <path d="M 70.8 298.245375 
L 70.8 32.133375 
" style="fill:none;stroke:#000000;stroke-linecap:square;stroke-linejoin:miter;stroke-width:0.8;"/>
   </g>
   <g id="patch_4">
    <path d="M 427.92 298.245375 
L 427.92 32.133375 
" style="fill:none;stroke:#000000;stroke-linecap:square;stroke-linejoin:miter;stroke-width:0.8;"/>
   </g>
   <g id="patch_5">
    <path d="M 70.8 298.245375 
L 427.92 298.245375 
" style="fill:none;stroke:#000000;stroke-linecap:square;stroke-linejoin:miter;stroke-width:0.8;"/>
   </g>
   <g id="patch_6">
    <path d="M 70.8 32.133375 
L 427.92 32.133375 
" style="fill:none;stroke:#000000;stroke-linecap:square;stroke-linejoin:miter;stroke-width:0.8;"/>
   </g>
   <g id="text_14">
    <!-- 20-D -->
    <defs>
     <path d="M 19.671875 64.796875 
L 19.671875 8.109375 
L 31.59375 8.109375 
Q 46.6875 8.109375 53.6875 14.9375 
Q 60.6875 21.78125 60.6875 36.53125 
Q 60.6875 51.171875 53.6875 57.984375 
Q 46.6875 64.796875 31.59375 64.796875 
z
M 9.8125 72.90625 
L 30.078125 72.90625 
Q 51.265625 72.90625 61.171875 64.09375 
Q 71.09375 55.28125 71.09375 36.53125 
Q 71.09375 17.671875 61.125 8.828125 
Q 51.171875 0 30.078125 0 
L 9.8125 0 
z
" id="DejaVuSans-44"/>
    </defs>
    <g transform="translate(396.24 297.114893)scale(0.15 -0.15)">
     <use xlink:href="#DejaVuSans-32"/>
     <use x="63.623047" xlink:href="#DejaVuSans-30"/>
     <use x="127.246094" xlink:href="#DejaVuSans-2d"/>
     <use x="163.330078" xlink:href="#DejaVuSans-44"/>
    </g>
   </g>
   <g id="text_15">
    <!-- 5-D -->
    <defs>
     <path d="M 10.796875 72.90625 
L 49.515625 72.90625 
L 49.515625 64.59375 
L 19.828125 64.59375 
L 19.828125 46.734375 
Q 21.96875 47.46875 24.109375 47.828125 
Q 26.265625 48.1875 28.421875 48.1875 
Q 40.625 48.1875 47.75 41.5 
Q 54.890625 34.8125 54.890625 23.390625 
Q 54.890625 11.625 47.5625 5.09375 
Q 40.234375 -1.421875 26.90625 -1.421875 
Q 22.3125 -1.421875 17.546875 -0.640625 
Q 12.796875 0.140625 7.71875 1.703125 
L 7.71875 11.625 
Q 12.109375 9.234375 16.796875 8.0625 
Q 21.484375 6.890625 26.703125 6.890625 
Q 35.15625 6.890625 40.078125 11.328125 
Q 45.015625 15.765625 45.015625 23.390625 
Q 45.015625 31 40.078125 35.4375 
Q 35.15625 39.890625 26.703125 39.890625 
Q 22.75 39.890625 18.8125 39.015625 
Q 14.890625 38.140625 10.796875 36.28125 
z
" id="DejaVuSans-35"/>
    </defs>
    <g transform="translate(396.24 233.880358)scale(0.15 -0.15)">
     <use xlink:href="#DejaVuSans-35"/>
     <use x="63.623047" xlink:href="#DejaVuSans-2d"/>
     <use x="99.707031" xlink:href="#DejaVuSans-44"/>
    </g>
   </g>
   <g id="text_16">
    <!-- 10-D -->
    <g transform="translate(396.24 170.645824)scale(0.15 -0.15)">
     <use xlink:href="#DejaVuSans-31"/>
     <use x="63.623047" xlink:href="#DejaVuSans-30"/>
     <use x="127.246094" xlink:href="#DejaVuSans-2d"/>
     <use x="163.330078" xlink:href="#DejaVuSans-44"/>
    </g>
   </g>
   <g id="text_17">
    <!-- 2-D -->
    <g transform="translate(396.24 107.411289)scale(0.15 -0.15)">
     <use xlink:href="#DejaVuSans-32"/>
     <use x="63.623047" xlink:href="#DejaVuSans-2d"/>
     <use x="99.707031" xlink:href="#DejaVuSans-44"/>
    </g>
   </g>
   <g id="text_18">
    <!-- 3-D -->
    <defs>
     <path d="M 40.578125 39.3125 
Q 47.65625 37.796875 51.625 33 
Q 55.609375 28.21875 55.609375 21.1875 
Q 55.609375 10.40625 48.1875 4.484375 
Q 40.765625 -1.421875 27.09375 -1.421875 
Q 22.515625 -1.421875 17.65625 -0.515625 
Q 12.796875 0.390625 7.625 2.203125 
L 7.625 11.71875 
Q 11.71875 9.328125 16.59375 8.109375 
Q 21.484375 6.890625 26.8125 6.890625 
Q 36.078125 6.890625 40.9375 10.546875 
Q 45.796875 14.203125 45.796875 21.1875 
Q 45.796875 27.640625 41.28125 31.265625 
Q 36.765625 34.90625 28.71875 34.90625 
L 20.21875 34.90625 
L 20.21875 43.015625 
L 29.109375 43.015625 
Q 36.375 43.015625 40.234375 45.921875 
Q 44.09375 48.828125 44.09375 54.296875 
Q 44.09375 59.90625 40.109375 62.90625 
Q 36.140625 65.921875 28.71875 65.921875 
Q 24.65625 65.921875 20.015625 65.03125 
Q 15.375 64.15625 9.8125 62.3125 
L 9.8125 71.09375 
Q 15.4375 72.65625 20.34375 73.4375 
Q 25.25 74.21875 29.59375 74.21875 
Q 40.828125 74.21875 47.359375 69.109375 
Q 53.90625 64.015625 53.90625 55.328125 
Q 53.90625 49.265625 50.4375 45.09375 
Q 46.96875 40.921875 40.578125 39.3125 
z
" id="DejaVuSans-33"/>
    </defs>
    <g transform="translate(396.24 44.176754)scale(0.15 -0.15)">
     <use xlink:href="#DejaVuSans-33"/>
     <use x="63.623047" xlink:href="#DejaVuSans-2d"/>
     <use x="99.707031" xlink:href="#DejaVuSans-44"/>
    </g>
   </g>
   <g id="text_19">
    <!-- bbob - f2 -->
    <defs>
     <path d="M 48.6875 27.296875 
Q 48.6875 37.203125 44.609375 42.84375 
Q 40.53125 48.484375 33.40625 48.484375 
Q 26.265625 48.484375 22.1875 42.84375 
Q 18.109375 37.203125 18.109375 27.296875 
Q 18.109375 17.390625 22.1875 11.75 
Q 26.265625 6.109375 33.40625 6.109375 
Q 40.53125 6.109375 44.609375 11.75 
Q 48.6875 17.390625 48.6875 27.296875 
z
M 18.109375 46.390625 
Q 20.953125 51.265625 25.265625 53.625 
Q 29.59375 56 35.59375 56 
Q 45.5625 56 51.78125 48.09375 
Q 58.015625 40.1875 58.015625 27.296875 
Q 58.015625 14.40625 51.78125 6.484375 
Q 45.5625 -1.421875 35.59375 -1.421875 
Q 29.59375 -1.421875 25.265625 0.953125 
Q 20.953125 3.328125 18.109375 8.203125 
L 18.109375 0 
L 9.078125 0 
L 9.078125 75.984375 
L 18.109375 75.984375 
z
" id="DejaVuSans-62"/>
    </defs>
    <g transform="translate(74.3712 50.114612)scale(0.1666 -0.1666)">
     <use xlink:href="#DejaVuSans-62"/>
     <use x="63.476562" xlink:href="#DejaVuSans-62"/>
     <use x="126.953125" xlink:href="#DejaVuSans-6f"/>
     <use x="188.134766" xlink:href="#DejaVuSans-62"/>
     <use x="251.611328" xlink:href="#DejaVuSans-20"/>
     <use x="283.398438" xlink:href="#DejaVuSans-2d"/>
     <use x="319.482422" xlink:href="#DejaVuSans-20"/>
     <use x="351.269531" xlink:href="#DejaVuSans-66"/>
     <use x="386.474609" xlink:href="#DejaVuSans-32"/>
    </g>
    <!-- 51 targets in 100..1e-08 -->
    <g transform="translate(74.3712 68.770168)scale(0.1666 -0.1666)">
     <use xlink:href="#DejaVuSans-35"/>
     <use x="63.623047" xlink:href="#DejaVuSans-31"/>
     <use x="127.246094" xlink:href="#DejaVuSans-20"/>
     <use x="159.033203" xlink:href="#DejaVuSans-74"/>
     <use x="198.242188" xlink:href="#DejaVuSans-61"/>
     <use x="259.521484" xlink:href="#DejaVuSans-72"/>
     <use x="300.619141" xlink:href="#DejaVuSans-67"/>
     <use x="364.095703" xlink:href="#DejaVuSans-65"/>
     <use x="425.619141" xlink:href="#DejaVuSans-74"/>
     <use x="464.828125" xlink:href="#DejaVuSans-73"/>
     <use x="516.927734" xlink:href="#DejaVuSans-20"/>
     <use x="548.714844" xlink:href="#DejaVuSans-69"/>
     <use x="576.498047" xlink:href="#DejaVuSans-6e"/>
     <use x="639.876953" xlink:href="#DejaVuSans-20"/>
     <use x="671.664062" xlink:href="#DejaVuSans-31"/>
     <use x="735.287109" xlink:href="#DejaVuSans-30"/>
     <use x="798.910156" xlink:href="#DejaVuSans-30"/>
     <use x="862.533203" xlink:href="#DejaVuSans-2e"/>
     <use x="894.320312" xlink:href="#DejaVuSans-2e"/>
     <use x="926.107422" xlink:href="#DejaVuSans-31"/>
     <use x="989.730469" xlink:href="#DejaVuSans-65"/>
     <use x="1051.253906" xlink:href="#DejaVuSans-2d"/>
     <use x="1087.337891" xlink:href="#DejaVuSans-30"/>
     <use x="1150.960938" xlink:href="#DejaVuSans-38"/>
    </g>
    <!-- 15 instances -->
    <g transform="translate(74.3712 87.425723)scale(0.1666 -0.1666)">
     <use xlink:href="#DejaVuSans-31"/>
     <use x="63.623047" xlink:href="#DejaVuSans-35"/>
     <use x="127.246094" xlink:href="#DejaVuSans-20"/>
     <use x="159.033203" xlink:href="#DejaVuSans-69"/>
     <use x="186.816406" xlink:href="#DejaVuSans-6e"/>
     <use x="250.195312" xlink:href="#DejaVuSans-73"/>
     <use x="302.294922" xlink:href="#DejaVuSans-74"/>
     <use x="341.503906" xlink:href="#DejaVuSans-61"/>
     <use x="402.783203" xlink:href="#DejaVuSans-6e"/>
     <use x="466.162109" xlink:href="#DejaVuSans-63"/>
     <use x="521.142578" xlink:href="#DejaVuSans-65"/>
     <use x="582.666016" xlink:href="#DejaVuSans-73"/>
    </g>
   </g>
   <g id="text_20">
    <!-- v0.0.0 -->
    <g style="fill:#808080;" transform="translate(233.67875 293.504568)scale(0.1 -0.1)">
     <use xlink:href="#DejaVuSans-76"/>
     <use x="59.179688" xlink:href="#DejaVuSans-30"/>
     <use x="122.802734" xlink:href="#DejaVuSans-2e"/>
     <use x="154.589844" xlink:href="#DejaVuSans-30"/>
     <use x="218.212891" xlink:href="#DejaVuSans-2e"/>
     <use x="250" xlink:href="#DejaVuSans-30"/>
    </g>
   </g>
   <g id="text_21">
    <!-- 2 Ellipsoid separable -->
    <defs>
     <path d="M 9.8125 72.90625 
L 55.90625 72.90625 
L 55.90625 64.59375 
L 19.671875 64.59375 
L 19.671875 43.015625 
L 54.390625 43.015625 
L 54.390625 34.71875 
L 19.671875 34.71875 
L 19.671875 8.296875 
L 56.78125 8.296875 
L 56.78125 0 
L 9.8125 0 
z
" id="DejaVuSans-45"/>
    </defs>
    <g transform="translate(125.120625 26.133375)scale(0.24 -0.24)">
     <use xlink:href="#DejaVuSans-32"/>
     <use x="63.623047" xlink:href="#DejaVuSans-20"/>
     <use x="95.410156" xlink:href="#DejaVuSans-45"/>
     <use x="158.59375" xlink:href="#DejaVuSans-6c"/>
     <use x="186.376953" xlink:href="#DejaVuSans-6c"/>
     <use x="214.160156" xlink:href="#DejaVuSans-69"/>
     <use x="241.943359" xlink:href="#DejaVuSans-70"/>
     <use x="305.419922" xlink:href="#DejaVuSans-73"/>
     <use x="357.519531" xlink:href="#DejaVuSans-6f"/>
     <use x="418.701172" xlink:href="#DejaVuSans-69"/>
     <use x="446.484375" xlink:href="#DejaVuSans-64"/>
     <use x="509.960938" xlink:href="#DejaVuSans-20"/>
     <use x="541.748047" xlink:href="#DejaVuSans-73"/>
     <use x="593.847656" xlink:href="#DejaVuSans-65"/>
     <use x="655.371094" xlink:href="#DejaVuSans-70"/>
     <use x="718.847656" xlink:href="#DejaVuSans-61"/>
     <use x="780.126953" xlink:href="#DejaVuSans-72"/>
     <use x="821.240234" xlink:href="#DejaVuSans-61"/>
     <use x="882.519531" xlink:href="#DejaVuSans-62"/>
     <use x="945.996094" xlink:href="#DejaVuSans-6c"/>
     <use x="973.779297" xlink:href="#DejaVuSans-65"/>
    </g>
   </g>
  </g>
 </g>
 <defs>
  <clipPath id="p2d81b8f478">
   <rect height="266.112" width="357.12" x="70.8" y="32.133375"/>
  </clipPath>
 </defs>
</svg>
