<?xml version="1.0" encoding="utf-8" standalone="no"?>
<!DOCTYPE svg PUBLIC "-//W3C//DTD SVG 1.1//EN"
  "http://www.w3.org/Graphics/SVG/1.1/DTD/svg11.dtd">
<!-- Created with matplotlib (http://matplotlib.org/) -->
<svg height="353pt" version="1.1" viewBox="0 0 438 353" width="438pt" xmlns="http://www.w3.org/2000/svg" xmlns:xlink="http://www.w3.org/1999/xlink">
 <defs>
  <style type="text/css">
*{stroke-linecap:butt;stroke-linejoin:round;}
  </style>
 </defs>
 <g id="figure_1">
  <g id="patch_1">
   <path d="M 0 353.22225 
L 438.62 353.22225 
L 438.62 0 
L 0 0 
z
" style="fill:#ffffff;"/>
  </g>
  <g id="axes_1">
   <g id="patch_2">
    <path d="M 70.8 298.245375 
L 427.92 298.245375 
L 427.92 32.133375 
L 70.8 32.133375 
z
" style="fill:#ffffff;"/>
   </g>
   <g id="matplotlib.axis_1">
    <g id="xtick_1">
     <g id="line2d_1">
      <path clip-path="url(#p0226f36167)" d="M 70.8 298.245375 
L 70.8 32.133375 
" style="fill:none;stroke:#b0b0b0;stroke-linecap:square;stroke-width:0.8;"/>
     </g>
     <g id="line2d_2">
      <defs>
       <path d="M 0 0 
L 0 3.5 
" id="m27886a717e" style="stroke:#000000;stroke-width:0.8;"/>
      </defs>
      <g>
       <use style="stroke:#000000;stroke-width:0.8;" x="70.8" xlink:href="#m27886a717e" y="298.245375"/>
      </g>
     </g>
     <g id="text_1">
      <!-- 0 -->
      <defs>
       <path d="M 31.78125 66.40625 
Q 24.171875 66.40625 20.328125 58.90625 
Q 16.5 51.421875 16.5 36.375 
Q 16.5 21.390625 20.328125 13.890625 
Q 24.171875 6.390625 31.78125 6.390625 
Q 39.453125 6.390625 43.28125 13.890625 
Q 47.125 21.390625 47.125 36.375 
Q 47.125 51.421875 43.28125 58.90625 
Q 39.453125 66.40625 31.78125 66.40625 
z
M 31.78125 74.21875 
Q 44.046875 74.21875 50.515625 64.515625 
Q 56.984375 54.828125 56.984375 36.375 
Q 56.984375 17.96875 50.515625 8.265625 
Q 44.046875 -1.421875 31.78125 -1.421875 
Q 19.53125 -1.421875 13.0625 8.265625 
Q 6.59375 17.96875 6.59375 36.375 
Q 6.59375 54.828125 13.0625 64.515625 
Q 19.53125 74.21875 31.78125 74.21875 
z
" id="DejaVuSans-30"/>
      </defs>
      <g transform="translate(64.4375 320.44225)scale(0.2 -0.2)">
       <use xlink:href="#DejaVuSans-30"/>
      </g>
     </g>
    </g>
    <g id="xtick_2">
     <g id="line2d_3">
      <path clip-path="url(#p0226f36167)" d="M 153.085714 298.245375 
L 153.085714 32.133375 
" style="fill:none;stroke:#b0b0b0;stroke-linecap:square;stroke-width:0.8;"/>
     </g>
     <g id="line2d_4">
      <g>
       <use style="stroke:#000000;stroke-width:0.8;" x="153.085714" xlink:href="#m27886a717e" y="298.245375"/>
      </g>
     </g>
     <g id="text_2">
      <!-- 2 -->
      <defs>
       <path d="M 19.1875 8.296875 
L 53.609375 8.296875 
L 53.609375 0 
L 7.328125 0 
L 7.328125 8.296875 
Q 12.9375 14.109375 22.625 23.890625 
Q 32.328125 33.6875 34.8125 36.53125 
Q 39.546875 41.84375 41.421875 45.53125 
Q 43.3125 49.21875 43.3125 52.78125 
Q 43.3125 58.59375 39.234375 62.25 
Q 35.15625 65.921875 28.609375 65.921875 
Q 23.96875 65.921875 18.8125 64.3125 
Q 13.671875 62.703125 7.8125 59.421875 
L 7.8125 69.390625 
Q 13.765625 71.78125 18.9375 73 
Q 24.125 74.21875 28.421875 74.21875 
Q 39.75 74.21875 46.484375 68.546875 
Q 53.21875 62.890625 53.21875 53.421875 
Q 53.21875 48.921875 51.53125 44.890625 
Q 49.859375 40.875 45.40625 35.40625 
Q 44.1875 33.984375 37.640625 27.21875 
Q 31.109375 20.453125 19.1875 8.296875 
z
" id="DejaVuSans-32"/>
      </defs>
      <g transform="translate(146.723214 320.44225)scale(0.2 -0.2)">
       <use xlink:href="#DejaVuSans-32"/>
      </g>
     </g>
    </g>
    <g id="xtick_3">
     <g id="line2d_5">
      <path clip-path="url(#p0226f36167)" d="M 235.371429 298.245375 
L 235.371429 32.133375 
" style="fill:none;stroke:#b0b0b0;stroke-linecap:square;stroke-width:0.8;"/>
     </g>
     <g id="line2d_6">
      <g>
       <use style="stroke:#000000;stroke-width:0.8;" x="235.371429" xlink:href="#m27886a717e" y="298.245375"/>
      </g>
     </g>
     <g id="text_3">
      <!-- 4 -->
      <defs>
       <path d="M 37.796875 64.3125 
L 12.890625 25.390625 
L 37.796875 25.390625 
z
M 35.203125 72.90625 
L 47.609375 72.90625 
L 47.609375 25.390625 
L 58.015625 25.390625 
L 58.015625 17.1875 
L 47.609375 17.1875 
L 47.609375 0 
L 37.796875 0 
L 37.796875 17.1875 
L 4.890625 17.1875 
L 4.890625 26.703125 
z
" id="DejaVuSans-34"/>
      </defs>
      <g transform="translate(229.008929 320.44225)scale(0.2 -0.2)">
       <use xlink:href="#DejaVuSans-34"/>
      </g>
     </g>
    </g>
    <g id="xtick_4">
     <g id="line2d_7">
      <path clip-path="url(#p0226f36167)" d="M 317.657143 298.245375 
L 317.657143 32.133375 
" style="fill:none;stroke:#b0b0b0;stroke-linecap:square;stroke-width:0.8;"/>
     </g>
     <g id="line2d_8">
      <g>
       <use style="stroke:#000000;stroke-width:0.8;" x="317.657143" xlink:href="#m27886a717e" y="298.245375"/>
      </g>
     </g>
     <g id="text_4">
      <!-- 6 -->
      <defs>
       <path d="M 33.015625 40.375 
Q 26.375 40.375 22.484375 35.828125 
Q 18.609375 31.296875 18.609375 23.390625 
Q 18.609375 15.53125 22.484375 10.953125 
Q 26.375 6.390625 33.015625 6.390625 
Q 39.65625 6.390625 43.53125 10.953125 
Q 47.40625 15.53125 47.40625 23.390625 
Q 47.40625 31.296875 43.53125 35.828125 
Q 39.65625 40.375 33.015625 40.375 
z
M 52.59375 71.296875 
L 52.59375 62.3125 
Q 48.875 64.0625 45.09375 64.984375 
Q 41.3125 65.921875 37.59375 65.921875 
Q 27.828125 65.921875 22.671875 59.328125 
Q 17.53125 52.734375 16.796875 39.40625 
Q 19.671875 43.65625 24.015625 45.921875 
Q 28.375 48.1875 33.59375 48.1875 
Q 44.578125 48.1875 50.953125 41.515625 
Q 57.328125 34.859375 57.328125 23.390625 
Q 57.328125 12.15625 50.6875 5.359375 
Q 44.046875 -1.421875 33.015625 -1.421875 
Q 20.359375 -1.421875 13.671875 8.265625 
Q 6.984375 17.96875 6.984375 36.375 
Q 6.984375 53.65625 15.1875 63.9375 
Q 23.390625 74.21875 37.203125 74.21875 
Q 40.921875 74.21875 44.703125 73.484375 
Q 48.484375 72.75 52.59375 71.296875 
z
" id="DejaVuSans-36"/>
      </defs>
      <g transform="translate(311.294643 320.44225)scale(0.2 -0.2)">
       <use xlink:href="#DejaVuSans-36"/>
      </g>
     </g>
    </g>
    <g id="xtick_5">
     <g id="line2d_9">
      <path clip-path="url(#p0226f36167)" d="M 399.942857 298.245375 
L 399.942857 32.133375 
" style="fill:none;stroke:#b0b0b0;stroke-linecap:square;stroke-width:0.8;"/>
     </g>
     <g id="line2d_10">
      <g>
       <use style="stroke:#000000;stroke-width:0.8;" x="399.942857" xlink:href="#m27886a717e" y="298.245375"/>
      </g>
     </g>
     <g id="text_5">
      <!-- 8 -->
      <defs>
       <path d="M 31.78125 34.625 
Q 24.75 34.625 20.71875 30.859375 
Q 16.703125 27.09375 16.703125 20.515625 
Q 16.703125 13.921875 20.71875 10.15625 
Q 24.75 6.390625 31.78125 6.390625 
Q 38.8125 6.390625 42.859375 10.171875 
Q 46.921875 13.96875 46.921875 20.515625 
Q 46.921875 27.09375 42.890625 30.859375 
Q 38.875 34.625 31.78125 34.625 
z
M 21.921875 38.8125 
Q 15.578125 40.375 12.03125 44.71875 
Q 8.5 49.078125 8.5 55.328125 
Q 8.5 64.0625 14.71875 69.140625 
Q 20.953125 74.21875 31.78125 74.21875 
Q 42.671875 74.21875 48.875 69.140625 
Q 55.078125 64.0625 55.078125 55.328125 
Q 55.078125 49.078125 51.53125 44.71875 
Q 48 40.375 41.703125 38.8125 
Q 48.828125 37.15625 52.796875 32.3125 
Q 56.78125 27.484375 56.78125 20.515625 
Q 56.78125 9.90625 50.3125 4.234375 
Q 43.84375 -1.421875 31.78125 -1.421875 
Q 19.734375 -1.421875 13.25 4.234375 
Q 6.78125 9.90625 6.78125 20.515625 
Q 6.78125 27.484375 10.78125 32.3125 
Q 14.796875 37.15625 21.921875 38.8125 
z
M 18.3125 54.390625 
Q 18.3125 48.734375 21.84375 45.5625 
Q 25.390625 42.390625 31.78125 42.390625 
Q 38.140625 42.390625 41.71875 45.5625 
Q 45.3125 48.734375 45.3125 54.390625 
Q 45.3125 60.0625 41.71875 63.234375 
Q 38.140625 66.40625 31.78125 66.40625 
Q 25.390625 66.40625 21.84375 63.234375 
Q 18.3125 60.0625 18.3125 54.390625 
z
" id="DejaVuSans-38"/>
      </defs>
      <g transform="translate(393.580357 320.44225)scale(0.2 -0.2)">
       <use xlink:href="#DejaVuSans-38"/>
      </g>
     </g>
    </g>
    <g id="text_6">
     <!-- log10 of (# f-evals / dimension) -->
     <defs>
      <path d="M 9.421875 75.984375 
L 18.40625 75.984375 
L 18.40625 0 
L 9.421875 0 
z
" id="DejaVuSans-6c"/>
      <path d="M 30.609375 48.390625 
Q 23.390625 48.390625 19.1875 42.75 
Q 14.984375 37.109375 14.984375 27.296875 
Q 14.984375 17.484375 19.15625 11.84375 
Q 23.34375 6.203125 30.609375 6.203125 
Q 37.796875 6.203125 41.984375 11.859375 
Q 46.1875 17.53125 46.1875 27.296875 
Q 46.1875 37.015625 41.984375 42.703125 
Q 37.796875 48.390625 30.609375 48.390625 
z
M 30.609375 56 
Q 42.328125 56 49.015625 48.375 
Q 55.71875 40.765625 55.71875 27.296875 
Q 55.71875 13.875 49.015625 6.21875 
Q 42.328125 -1.421875 30.609375 -1.421875 
Q 18.84375 -1.421875 12.171875 6.21875 
Q 5.515625 13.875 5.515625 27.296875 
Q 5.515625 40.765625 12.171875 48.375 
Q 18.84375 56 30.609375 56 
z
" id="DejaVuSans-6f"/>
      <path d="M 45.40625 27.984375 
Q 45.40625 37.75 41.375 43.109375 
Q 37.359375 48.484375 30.078125 48.484375 
Q 22.859375 48.484375 18.828125 43.109375 
Q 14.796875 37.75 14.796875 27.984375 
Q 14.796875 18.265625 18.828125 12.890625 
Q 22.859375 7.515625 30.078125 7.515625 
Q 37.359375 7.515625 41.375 12.890625 
Q 45.40625 18.265625 45.40625 27.984375 
z
M 54.390625 6.78125 
Q 54.390625 -7.171875 48.1875 -13.984375 
Q 42 -20.796875 29.203125 -20.796875 
Q 24.46875 -20.796875 20.265625 -20.09375 
Q 16.0625 -19.390625 12.109375 -17.921875 
L 12.109375 -9.1875 
Q 16.0625 -11.328125 19.921875 -12.34375 
Q 23.78125 -13.375 27.78125 -13.375 
Q 36.625 -13.375 41.015625 -8.765625 
Q 45.40625 -4.15625 45.40625 5.171875 
L 45.40625 9.625 
Q 42.625 4.78125 38.28125 2.390625 
Q 33.9375 0 27.875 0 
Q 17.828125 0 11.671875 7.65625 
Q 5.515625 15.328125 5.515625 27.984375 
Q 5.515625 40.671875 11.671875 48.328125 
Q 17.828125 56 27.875 56 
Q 33.9375 56 38.28125 53.609375 
Q 42.625 51.21875 45.40625 46.390625 
L 45.40625 54.6875 
L 54.390625 54.6875 
z
" id="DejaVuSans-67"/>
      <path d="M 12.40625 8.296875 
L 28.515625 8.296875 
L 28.515625 63.921875 
L 10.984375 60.40625 
L 10.984375 69.390625 
L 28.421875 72.90625 
L 38.28125 72.90625 
L 38.28125 8.296875 
L 54.390625 8.296875 
L 54.390625 0 
L 12.40625 0 
z
" id="DejaVuSans-31"/>
      <path id="DejaVuSans-20"/>
      <path d="M 37.109375 75.984375 
L 37.109375 68.5 
L 28.515625 68.5 
Q 23.6875 68.5 21.796875 66.546875 
Q 19.921875 64.59375 19.921875 59.515625 
L 19.921875 54.6875 
L 34.71875 54.6875 
L 34.71875 47.703125 
L 19.921875 47.703125 
L 19.921875 0 
L 10.890625 0 
L 10.890625 47.703125 
L 2.296875 47.703125 
L 2.296875 54.6875 
L 10.890625 54.6875 
L 10.890625 58.5 
Q 10.890625 67.625 15.140625 71.796875 
Q 19.390625 75.984375 28.609375 75.984375 
z
" id="DejaVuSans-66"/>
      <path d="M 31 75.875 
Q 24.46875 64.65625 21.28125 53.65625 
Q 18.109375 42.671875 18.109375 31.390625 
Q 18.109375 20.125 21.3125 9.0625 
Q 24.515625 -2 31 -13.1875 
L 23.1875 -13.1875 
Q 15.875 -1.703125 12.234375 9.375 
Q 8.59375 20.453125 8.59375 31.390625 
Q 8.59375 42.28125 12.203125 53.3125 
Q 15.828125 64.359375 23.1875 75.875 
z
" id="DejaVuSans-28"/>
      <path d="M 51.125 44 
L 36.921875 44 
L 32.8125 27.6875 
L 47.125 27.6875 
z
M 43.796875 71.78125 
L 38.71875 51.515625 
L 52.984375 51.515625 
L 58.109375 71.78125 
L 65.921875 71.78125 
L 60.890625 51.515625 
L 76.125 51.515625 
L 76.125 44 
L 58.984375 44 
L 54.984375 27.6875 
L 70.515625 27.6875 
L 70.515625 20.21875 
L 53.078125 20.21875 
L 48 0 
L 40.1875 0 
L 45.21875 20.21875 
L 30.90625 20.21875 
L 25.875 0 
L 18.015625 0 
L 23.09375 20.21875 
L 7.71875 20.21875 
L 7.71875 27.6875 
L 24.90625 27.6875 
L 29 44 
L 13.28125 44 
L 13.28125 51.515625 
L 30.90625 51.515625 
L 35.890625 71.78125 
z
" id="DejaVuSans-23"/>
      <path d="M 4.890625 31.390625 
L 31.203125 31.390625 
L 31.203125 23.390625 
L 4.890625 23.390625 
z
" id="DejaVuSans-2d"/>
      <path d="M 56.203125 29.59375 
L 56.203125 25.203125 
L 14.890625 25.203125 
Q 15.484375 15.921875 20.484375 11.0625 
Q 25.484375 6.203125 34.421875 6.203125 
Q 39.59375 6.203125 44.453125 7.46875 
Q 49.3125 8.734375 54.109375 11.28125 
L 54.109375 2.78125 
Q 49.265625 0.734375 44.1875 -0.34375 
Q 39.109375 -1.421875 33.890625 -1.421875 
Q 20.796875 -1.421875 13.15625 6.1875 
Q 5.515625 13.8125 5.515625 26.8125 
Q 5.515625 40.234375 12.765625 48.109375 
Q 20.015625 56 32.328125 56 
Q 43.359375 56 49.78125 48.890625 
Q 56.203125 41.796875 56.203125 29.59375 
z
M 47.21875 32.234375 
Q 47.125 39.59375 43.09375 43.984375 
Q 39.0625 48.390625 32.421875 48.390625 
Q 24.90625 48.390625 20.390625 44.140625 
Q 15.875 39.890625 15.1875 32.171875 
z
" id="DejaVuSans-65"/>
      <path d="M 2.984375 54.6875 
L 12.5 54.6875 
L 29.59375 8.796875 
L 46.6875 54.6875 
L 56.203125 54.6875 
L 35.6875 0 
L 23.484375 0 
z
" id="DejaVuSans-76"/>
      <path d="M 34.28125 27.484375 
Q 23.390625 27.484375 19.1875 25 
Q 14.984375 22.515625 14.984375 16.5 
Q 14.984375 11.71875 18.140625 8.90625 
Q 21.296875 6.109375 26.703125 6.109375 
Q 34.1875 6.109375 38.703125 11.40625 
Q 43.21875 16.703125 43.21875 25.484375 
L 43.21875 27.484375 
z
M 52.203125 31.203125 
L 52.203125 0 
L 43.21875 0 
L 43.21875 8.296875 
Q 40.140625 3.328125 35.546875 0.953125 
Q 30.953125 -1.421875 24.3125 -1.421875 
Q 15.921875 -1.421875 10.953125 3.296875 
Q 6 8.015625 6 15.921875 
Q 6 25.140625 12.171875 29.828125 
Q 18.359375 34.515625 30.609375 34.515625 
L 43.21875 34.515625 
L 43.21875 35.40625 
Q 43.21875 41.609375 39.140625 45 
Q 35.0625 48.390625 27.6875 48.390625 
Q 23 48.390625 18.546875 47.265625 
Q 14.109375 46.140625 10.015625 43.890625 
L 10.015625 52.203125 
Q 14.9375 54.109375 19.578125 55.046875 
Q 24.21875 56 28.609375 56 
Q 40.484375 56 46.34375 49.84375 
Q 52.203125 43.703125 52.203125 31.203125 
z
" id="DejaVuSans-61"/>
      <path d="M 44.28125 53.078125 
L 44.28125 44.578125 
Q 40.484375 46.53125 36.375 47.5 
Q 32.28125 48.484375 27.875 48.484375 
Q 21.1875 48.484375 17.84375 46.4375 
Q 14.5 44.390625 14.5 40.28125 
Q 14.5 37.15625 16.890625 35.375 
Q 19.28125 33.59375 26.515625 31.984375 
L 29.59375 31.296875 
Q 39.15625 29.25 43.1875 25.515625 
Q 47.21875 21.78125 47.21875 15.09375 
Q 47.21875 7.46875 41.1875 3.015625 
Q 35.15625 -1.421875 24.609375 -1.421875 
Q 20.21875 -1.421875 15.453125 -0.5625 
Q 10.6875 0.296875 5.421875 2 
L 5.421875 11.28125 
Q 10.40625 8.6875 15.234375 7.390625 
Q 20.0625 6.109375 24.8125 6.109375 
Q 31.15625 6.109375 34.5625 8.28125 
Q 37.984375 10.453125 37.984375 14.40625 
Q 37.984375 18.0625 35.515625 20.015625 
Q 33.0625 21.96875 24.703125 23.78125 
L 21.578125 24.515625 
Q 13.234375 26.265625 9.515625 29.90625 
Q 5.8125 33.546875 5.8125 39.890625 
Q 5.8125 47.609375 11.28125 51.796875 
Q 16.75 56 26.8125 56 
Q 31.78125 56 36.171875 55.265625 
Q 40.578125 54.546875 44.28125 53.078125 
z
" id="DejaVuSans-73"/>
      <path d="M 25.390625 72.90625 
L 33.6875 72.90625 
L 8.296875 -9.28125 
L 0 -9.28125 
z
" id="DejaVuSans-2f"/>
      <path d="M 45.40625 46.390625 
L 45.40625 75.984375 
L 54.390625 75.984375 
L 54.390625 0 
L 45.40625 0 
L 45.40625 8.203125 
Q 42.578125 3.328125 38.25 0.953125 
Q 33.9375 -1.421875 27.875 -1.421875 
Q 17.96875 -1.421875 11.734375 6.484375 
Q 5.515625 14.40625 5.515625 27.296875 
Q 5.515625 40.1875 11.734375 48.09375 
Q 17.96875 56 27.875 56 
Q 33.9375 56 38.25 53.625 
Q 42.578125 51.265625 45.40625 46.390625 
z
M 14.796875 27.296875 
Q 14.796875 17.390625 18.875 11.75 
Q 22.953125 6.109375 30.078125 6.109375 
Q 37.203125 6.109375 41.296875 11.75 
Q 45.40625 17.390625 45.40625 27.296875 
Q 45.40625 37.203125 41.296875 42.84375 
Q 37.203125 48.484375 30.078125 48.484375 
Q 22.953125 48.484375 18.875 42.84375 
Q 14.796875 37.203125 14.796875 27.296875 
z
" id="DejaVuSans-64"/>
      <path d="M 9.421875 54.6875 
L 18.40625 54.6875 
L 18.40625 0 
L 9.421875 0 
z
M 9.421875 75.984375 
L 18.40625 75.984375 
L 18.40625 64.59375 
L 9.421875 64.59375 
z
" id="DejaVuSans-69"/>
      <path d="M 52 44.1875 
Q 55.375 50.25 60.0625 53.125 
Q 64.75 56 71.09375 56 
Q 79.640625 56 84.28125 50.015625 
Q 88.921875 44.046875 88.921875 33.015625 
L 88.921875 0 
L 79.890625 0 
L 79.890625 32.71875 
Q 79.890625 40.578125 77.09375 44.375 
Q 74.3125 48.1875 68.609375 48.1875 
Q 61.625 48.1875 57.5625 43.546875 
Q 53.515625 38.921875 53.515625 30.90625 
L 53.515625 0 
L 44.484375 0 
L 44.484375 32.71875 
Q 44.484375 40.625 41.703125 44.40625 
Q 38.921875 48.1875 33.109375 48.1875 
Q 26.21875 48.1875 22.15625 43.53125 
Q 18.109375 38.875 18.109375 30.90625 
L 18.109375 0 
L 9.078125 0 
L 9.078125 54.6875 
L 18.109375 54.6875 
L 18.109375 46.1875 
Q 21.1875 51.21875 25.484375 53.609375 
Q 29.78125 56 35.6875 56 
Q 41.65625 56 45.828125 52.96875 
Q 50 49.953125 52 44.1875 
z
" id="DejaVuSans-6d"/>
      <path d="M 54.890625 33.015625 
L 54.890625 0 
L 45.90625 0 
L 45.90625 32.71875 
Q 45.90625 40.484375 42.875 44.328125 
Q 39.84375 48.1875 33.796875 48.1875 
Q 26.515625 48.1875 22.3125 43.546875 
Q 18.109375 38.921875 18.109375 30.90625 
L 18.109375 0 
L 9.078125 0 
L 9.078125 54.6875 
L 18.109375 54.6875 
L 18.109375 46.1875 
Q 21.34375 51.125 25.703125 53.5625 
Q 30.078125 56 35.796875 56 
Q 45.21875 56 50.046875 50.171875 
Q 54.890625 44.34375 54.890625 33.015625 
z
" id="DejaVuSans-6e"/>
      <path d="M 8.015625 75.875 
L 15.828125 75.875 
Q 23.140625 64.359375 26.78125 53.3125 
Q 30.421875 42.28125 30.421875 31.390625 
Q 30.421875 20.453125 26.78125 9.375 
Q 23.140625 -1.703125 15.828125 -13.1875 
L 8.015625 -13.1875 
Q 14.5 -2 17.703125 9.0625 
Q 20.90625 20.125 20.90625 31.390625 
Q 20.90625 42.671875 17.703125 53.65625 
Q 14.5 64.65625 8.015625 75.875 
z
" id="DejaVuSans-29"/>
     </defs>
     <g transform="translate(107.015156 342.278812)scale(0.18 -0.18)">
      <use xlink:href="#DejaVuSans-6c"/>
      <use x="27.783203" xlink:href="#DejaVuSans-6f"/>
      <use x="88.964844" xlink:href="#DejaVuSans-67"/>
      <use x="152.441406" xlink:href="#DejaVuSans-31"/>
      <use x="216.064453" xlink:href="#DejaVuSans-30"/>
      <use x="279.6875" xlink:href="#DejaVuSans-20"/>
      <use x="311.474609" xlink:href="#DejaVuSans-6f"/>
      <use x="372.65625" xlink:href="#DejaVuSans-66"/>
      <use x="407.861328" xlink:href="#DejaVuSans-20"/>
      <use x="439.648438" xlink:href="#DejaVuSans-28"/>
      <use x="478.662109" xlink:href="#DejaVuSans-23"/>
      <use x="562.451172" xlink:href="#DejaVuSans-20"/>
      <use x="594.238281" xlink:href="#DejaVuSans-66"/>
      <use x="629.365234" xlink:href="#DejaVuSans-2d"/>
      <use x="665.449219" xlink:href="#DejaVuSans-65"/>
      <use x="726.972656" xlink:href="#DejaVuSans-76"/>
      <use x="786.152344" xlink:href="#DejaVuSans-61"/>
      <use x="847.431641" xlink:href="#DejaVuSans-6c"/>
      <use x="875.214844" xlink:href="#DejaVuSans-73"/>
      <use x="927.314453" xlink:href="#DejaVuSans-20"/>
      <use x="959.101562" xlink:href="#DejaVuSans-2f"/>
      <use x="992.792969" xlink:href="#DejaVuSans-20"/>
      <use x="1024.580078" xlink:href="#DejaVuSans-64"/>
      <use x="1088.056641" xlink:href="#DejaVuSans-69"/>
      <use x="1115.839844" xlink:href="#DejaVuSans-6d"/>
      <use x="1213.251953" xlink:href="#DejaVuSans-65"/>
      <use x="1274.775391" xlink:href="#DejaVuSans-6e"/>
      <use x="1338.154297" xlink:href="#DejaVuSans-73"/>
      <use x="1390.253906" xlink:href="#DejaVuSans-69"/>
      <use x="1418.037109" xlink:href="#DejaVuSans-6f"/>
      <use x="1479.21875" xlink:href="#DejaVuSans-6e"/>
      <use x="1542.597656" xlink:href="#DejaVuSans-29"/>
     </g>
    </g>
   </g>
   <g id="matplotlib.axis_2">
    <g id="ytick_1">
     <g id="line2d_11">
      <path clip-path="url(#p0226f36167)" d="M 70.8 298.245375 
L 427.92 298.245375 
" style="fill:none;stroke:#b0b0b0;stroke-linecap:square;stroke-width:0.8;"/>
     </g>
     <g id="line2d_12">
      <defs>
       <path d="M 0 0 
L -3.5 0 
" id="m0c04dcfc41" style="stroke:#000000;stroke-width:0.8;"/>
      </defs>
      <g>
       <use style="stroke:#000000;stroke-width:0.8;" x="70.8" xlink:href="#m0c04dcfc41" y="298.245375"/>
      </g>
     </g>
     <g id="text_7">
      <!-- 0.0 -->
      <defs>
       <path d="M 10.6875 12.40625 
L 21 12.40625 
L 21 0 
L 10.6875 0 
z
" id="DejaVuSans-2e"/>
      </defs>
      <g transform="translate(31.99375 305.843812)scale(0.2 -0.2)">
       <use xlink:href="#DejaVuSans-30"/>
       <use x="63.623047" xlink:href="#DejaVuSans-2e"/>
       <use x="95.410156" xlink:href="#DejaVuSans-30"/>
      </g>
     </g>
    </g>
    <g id="ytick_2">
     <g id="line2d_13">
      <path clip-path="url(#p0226f36167)" d="M 70.8 245.549929 
L 427.92 245.549929 
" style="fill:none;stroke:#b0b0b0;stroke-linecap:square;stroke-width:0.8;"/>
     </g>
     <g id="line2d_14">
      <g>
       <use style="stroke:#000000;stroke-width:0.8;" x="70.8" xlink:href="#m0c04dcfc41" y="245.549929"/>
      </g>
     </g>
     <g id="text_8">
      <!-- 0.2 -->
      <g transform="translate(31.99375 253.148367)scale(0.2 -0.2)">
       <use xlink:href="#DejaVuSans-30"/>
       <use x="63.623047" xlink:href="#DejaVuSans-2e"/>
       <use x="95.410156" xlink:href="#DejaVuSans-32"/>
      </g>
     </g>
    </g>
    <g id="ytick_3">
     <g id="line2d_15">
      <path clip-path="url(#p0226f36167)" d="M 70.8 192.854484 
L 427.92 192.854484 
" style="fill:none;stroke:#b0b0b0;stroke-linecap:square;stroke-width:0.8;"/>
     </g>
     <g id="line2d_16">
      <g>
       <use style="stroke:#000000;stroke-width:0.8;" x="70.8" xlink:href="#m0c04dcfc41" y="192.854484"/>
      </g>
     </g>
     <g id="text_9">
      <!-- 0.4 -->
      <g transform="translate(31.99375 200.452921)scale(0.2 -0.2)">
       <use xlink:href="#DejaVuSans-30"/>
       <use x="63.623047" xlink:href="#DejaVuSans-2e"/>
       <use x="95.410156" xlink:href="#DejaVuSans-34"/>
      </g>
     </g>
    </g>
    <g id="ytick_4">
     <g id="line2d_17">
      <path clip-path="url(#p0226f36167)" d="M 70.8 140.159038 
L 427.92 140.159038 
" style="fill:none;stroke:#b0b0b0;stroke-linecap:square;stroke-width:0.8;"/>
     </g>
     <g id="line2d_18">
      <g>
       <use style="stroke:#000000;stroke-width:0.8;" x="70.8" xlink:href="#m0c04dcfc41" y="140.159038"/>
      </g>
     </g>
     <g id="text_10">
      <!-- 0.6 -->
      <g transform="translate(31.99375 147.757476)scale(0.2 -0.2)">
       <use xlink:href="#DejaVuSans-30"/>
       <use x="63.623047" xlink:href="#DejaVuSans-2e"/>
       <use x="95.410156" xlink:href="#DejaVuSans-36"/>
      </g>
     </g>
    </g>
    <g id="ytick_5">
     <g id="line2d_19">
      <path clip-path="url(#p0226f36167)" d="M 70.8 87.463593 
L 427.92 87.463593 
" style="fill:none;stroke:#b0b0b0;stroke-linecap:square;stroke-width:0.8;"/>
     </g>
     <g id="line2d_20">
      <g>
       <use style="stroke:#000000;stroke-width:0.8;" x="70.8" xlink:href="#m0c04dcfc41" y="87.463593"/>
      </g>
     </g>
     <g id="text_11">
      <!-- 0.8 -->
      <g transform="translate(31.99375 95.06203)scale(0.2 -0.2)">
       <use xlink:href="#DejaVuSans-30"/>
       <use x="63.623047" xlink:href="#DejaVuSans-2e"/>
       <use x="95.410156" xlink:href="#DejaVuSans-38"/>
      </g>
     </g>
    </g>
    <g id="ytick_6">
     <g id="line2d_21">
      <path clip-path="url(#p0226f36167)" d="M 70.8 34.768147 
L 427.92 34.768147 
" style="fill:none;stroke:#b0b0b0;stroke-linecap:square;stroke-width:0.8;"/>
     </g>
     <g id="line2d_22">
      <g>
       <use style="stroke:#000000;stroke-width:0.8;" x="70.8" xlink:href="#m0c04dcfc41" y="34.768147"/>
      </g>
     </g>
     <g id="text_12">
      <!-- 1.0 -->
      <g transform="translate(31.99375 42.366585)scale(0.2 -0.2)">
       <use xlink:href="#DejaVuSans-31"/>
       <use x="63.623047" xlink:href="#DejaVuSans-2e"/>
       <use x="95.410156" xlink:href="#DejaVuSans-30"/>
      </g>
     </g>
    </g>
    <g id="text_13">
     <!-- Proportion of function+target pairs -->
     <defs>
      <path d="M 19.671875 64.796875 
L 19.671875 37.40625 
L 32.078125 37.40625 
Q 38.96875 37.40625 42.71875 40.96875 
Q 46.484375 44.53125 46.484375 51.125 
Q 46.484375 57.671875 42.71875 61.234375 
Q 38.96875 64.796875 32.078125 64.796875 
z
M 9.8125 72.90625 
L 32.078125 72.90625 
Q 44.34375 72.90625 50.609375 67.359375 
Q 56.890625 61.8125 56.890625 51.125 
Q 56.890625 40.328125 50.609375 34.8125 
Q 44.34375 29.296875 32.078125 29.296875 
L 19.671875 29.296875 
L 19.671875 0 
L 9.8125 0 
z
" id="DejaVuSans-50"/>
      <path d="M 41.109375 46.296875 
Q 39.59375 47.171875 37.8125 47.578125 
Q 36.03125 48 33.890625 48 
Q 26.265625 48 22.1875 43.046875 
Q 18.109375 38.09375 18.109375 28.8125 
L 18.109375 0 
L 9.078125 0 
L 9.078125 54.6875 
L 18.109375 54.6875 
L 18.109375 46.1875 
Q 20.953125 51.171875 25.484375 53.578125 
Q 30.03125 56 36.53125 56 
Q 37.453125 56 38.578125 55.875 
Q 39.703125 55.765625 41.0625 55.515625 
z
" id="DejaVuSans-72"/>
      <path d="M 18.109375 8.203125 
L 18.109375 -20.796875 
L 9.078125 -20.796875 
L 9.078125 54.6875 
L 18.109375 54.6875 
L 18.109375 46.390625 
Q 20.953125 51.265625 25.265625 53.625 
Q 29.59375 56 35.59375 56 
Q 45.5625 56 51.78125 48.09375 
Q 58.015625 40.1875 58.015625 27.296875 
Q 58.015625 14.40625 51.78125 6.484375 
Q 45.5625 -1.421875 35.59375 -1.421875 
Q 29.59375 -1.421875 25.265625 0.953125 
Q 20.953125 3.328125 18.109375 8.203125 
z
M 48.6875 27.296875 
Q 48.6875 37.203125 44.609375 42.84375 
Q 40.53125 48.484375 33.40625 48.484375 
Q 26.265625 48.484375 22.1875 42.84375 
Q 18.109375 37.203125 18.109375 27.296875 
Q 18.109375 17.390625 22.1875 11.75 
Q 26.265625 6.109375 33.40625 6.109375 
Q 40.53125 6.109375 44.609375 11.75 
Q 48.6875 17.390625 48.6875 27.296875 
z
" id="DejaVuSans-70"/>
      <path d="M 18.3125 70.21875 
L 18.3125 54.6875 
L 36.8125 54.6875 
L 36.8125 47.703125 
L 18.3125 47.703125 
L 18.3125 18.015625 
Q 18.3125 11.328125 20.140625 9.421875 
Q 21.96875 7.515625 27.59375 7.515625 
L 36.8125 7.515625 
L 36.8125 0 
L 27.59375 0 
Q 17.1875 0 13.234375 3.875 
Q 9.28125 7.765625 9.28125 18.015625 
L 9.28125 47.703125 
L 2.6875 47.703125 
L 2.6875 54.6875 
L 9.28125 54.6875 
L 9.28125 70.21875 
z
" id="DejaVuSans-74"/>
      <path d="M 8.5 21.578125 
L 8.5 54.6875 
L 17.484375 54.6875 
L 17.484375 21.921875 
Q 17.484375 14.15625 20.5 10.265625 
Q 23.53125 6.390625 29.59375 6.390625 
Q 36.859375 6.390625 41.078125 11.03125 
Q 45.3125 15.671875 45.3125 23.6875 
L 45.3125 54.6875 
L 54.296875 54.6875 
L 54.296875 0 
L 45.3125 0 
L 45.3125 8.40625 
Q 42.046875 3.421875 37.71875 1 
Q 33.40625 -1.421875 27.6875 -1.421875 
Q 18.265625 -1.421875 13.375 4.4375 
Q 8.5 10.296875 8.5 21.578125 
z
M 31.109375 56 
z
" id="DejaVuSans-75"/>
      <path d="M 48.78125 52.59375 
L 48.78125 44.1875 
Q 44.96875 46.296875 41.140625 47.34375 
Q 37.3125 48.390625 33.40625 48.390625 
Q 24.65625 48.390625 19.8125 42.84375 
Q 14.984375 37.3125 14.984375 27.296875 
Q 14.984375 17.28125 19.8125 11.734375 
Q 24.65625 6.203125 33.40625 6.203125 
Q 37.3125 6.203125 41.140625 7.25 
Q 44.96875 8.296875 48.78125 10.40625 
L 48.78125 2.09375 
Q 45.015625 0.34375 40.984375 -0.53125 
Q 36.96875 -1.421875 32.421875 -1.421875 
Q 20.0625 -1.421875 12.78125 6.34375 
Q 5.515625 14.109375 5.515625 27.296875 
Q 5.515625 40.671875 12.859375 48.328125 
Q 20.21875 56 33.015625 56 
Q 37.15625 56 41.109375 55.140625 
Q 45.0625 54.296875 48.78125 52.59375 
z
" id="DejaVuSans-63"/>
      <path d="M 46 62.703125 
L 46 35.5 
L 73.1875 35.5 
L 73.1875 27.203125 
L 46 27.203125 
L 46 0 
L 37.796875 0 
L 37.796875 27.203125 
L 10.59375 27.203125 
L 10.59375 35.5 
L 37.796875 35.5 
L 37.796875 62.703125 
z
" id="DejaVuSans-2b"/>
     </defs>
     <g transform="translate(24.250312 323.17875)rotate(-90)scale(0.18 -0.18)">
      <use xlink:href="#DejaVuSans-50"/>
      <use x="60.287109" xlink:href="#DejaVuSans-72"/>
      <use x="101.369141" xlink:href="#DejaVuSans-6f"/>
      <use x="162.550781" xlink:href="#DejaVuSans-70"/>
      <use x="226.027344" xlink:href="#DejaVuSans-6f"/>
      <use x="287.208984" xlink:href="#DejaVuSans-72"/>
      <use x="328.322266" xlink:href="#DejaVuSans-74"/>
      <use x="367.53125" xlink:href="#DejaVuSans-69"/>
      <use x="395.314453" xlink:href="#DejaVuSans-6f"/>
      <use x="456.496094" xlink:href="#DejaVuSans-6e"/>
      <use x="519.875" xlink:href="#DejaVuSans-20"/>
      <use x="551.662109" xlink:href="#DejaVuSans-6f"/>
      <use x="612.84375" xlink:href="#DejaVuSans-66"/>
      <use x="648.048828" xlink:href="#DejaVuSans-20"/>
      <use x="679.835938" xlink:href="#DejaVuSans-66"/>
      <use x="715.041016" xlink:href="#DejaVuSans-75"/>
      <use x="778.419922" xlink:href="#DejaVuSans-6e"/>
      <use x="841.798828" xlink:href="#DejaVuSans-63"/>
      <use x="896.779297" xlink:href="#DejaVuSans-74"/>
      <use x="935.988281" xlink:href="#DejaVuSans-69"/>
      <use x="963.771484" xlink:href="#DejaVuSans-6f"/>
      <use x="1024.953125" xlink:href="#DejaVuSans-6e"/>
      <use x="1088.332031" xlink:href="#DejaVuSans-2b"/>
      <use x="1172.121094" xlink:href="#DejaVuSans-74"/>
      <use x="1211.330078" xlink:href="#DejaVuSans-61"/>
      <use x="1272.609375" xlink:href="#DejaVuSans-72"/>
      <use x="1313.707031" xlink:href="#DejaVuSans-67"/>
      <use x="1377.183594" xlink:href="#DejaVuSans-65"/>
      <use x="1438.707031" xlink:href="#DejaVuSans-74"/>
      <use x="1477.916016" xlink:href="#DejaVuSans-20"/>
      <use x="1509.703125" xlink:href="#DejaVuSans-70"/>
      <use x="1573.179688" xlink:href="#DejaVuSans-61"/>
      <use x="1634.458984" xlink:href="#DejaVuSans-69"/>
      <use x="1662.242188" xlink:href="#DejaVuSans-72"/>
      <use x="1703.355469" xlink:href="#DejaVuSans-73"/>
     </g>
    </g>
   </g>
   <g id="line2d_23">
    <defs>
     <path d="M 0 1.5 
C 0.397805 1.5 0.77937 1.341951 1.06066 1.06066 
C 1.341951 0.77937 1.5 0.397805 1.5 0 
C 1.5 -0.397805 1.341951 -0.77937 1.06066 -1.06066 
C 0.77937 -1.341951 0.397805 -1.5 0 -1.5 
C -0.397805 -1.5 -0.77937 -1.341951 -1.06066 -1.06066 
C -1.341951 -0.77937 -1.5 -0.397805 -1.5 0 
C -1.5 0.397805 -1.341951 0.77937 -1.06066 1.06066 
C -0.77937 1.341951 -0.397805 1.5 0 1.5 
z
" id="m037b47a302" style="stroke:#000080;"/>
    </defs>
    <g>
     <use style="fill:#000080;stroke:#000080;" x="336.893419" xlink:href="#m037b47a302" y="34.768147"/>
     <use style="fill:#000080;stroke:#000080;" x="336.893419" xlink:href="#m037b47a302" y="34.768147"/>
    </g>
   </g>
   <g id="line2d_24">
    <path d="M 42.042377 298.245375 
L 42.042377 291.012667 
L 134.929724 291.012667 
L 134.929724 287.912935 
L 135.890607 287.912935 
L 135.983913 280.680226 
L 136.076735 280.680226 
L 136.169077 271.897652 
L 136.260944 271.897652 
L 136.352341 267.248054 
L 136.443273 267.248054 
L 136.533745 263.115078 
L 136.713325 263.115078 
L 136.713325 257.948858 
L 141.741636 257.948858 
L 141.741636 256.398992 
L 142.597363 256.398992 
L 142.597363 254.849126 
L 142.72545 254.849126 
L 142.789151 253.29926 
L 142.915876 253.29926 
L 142.915876 252.266016 
L 143.166661 252.266016 
L 143.166661 251.749394 
L 143.413974 251.749394 
L 143.413974 250.71615 
L 143.536359 250.71615 
L 143.536359 250.199528 
L 143.778642 250.199528 
L 143.778642 249.682906 
L 143.958223 249.682906 
L 143.958223 249.166284 
L 147.166263 249.166284 
L 147.166263 248.649662 
L 147.511313 248.649662 
L 147.511313 247.616418 
L 147.657176 247.616418 
L 147.657176 247.099796 
L 147.801858 247.099796 
L 147.897666 244.516685 
L 148.229005 244.516685 
L 148.229005 243.483441 
L 148.369147 243.483441 
L 148.369147 242.450197 
L 148.554311 242.450197 
L 148.646178 240.900331 
L 151.40056 240.900331 
L 151.439788 239.350465 
L 152.393489 239.350465 
L 152.393489 238.317221 
L 152.65165 238.317221 
L 152.761158 236.250733 
L 154.625547 236.250733 
L 154.658303 234.184245 
L 154.885925 234.184245 
L 154.885925 233.667623 
L 155.046755 233.667623 
L 155.046755 233.151001 
L 155.395567 233.151001 
L 155.395567 231.601135 
L 155.891075 231.601135 
L 155.891075 230.567891 
L 157.468698 230.567891 
L 157.468698 230.051269 
L 157.718606 230.051269 
L 157.718606 229.534647 
L 158.448018 229.534647 
L 158.448018 227.984781 
L 158.606144 227.984781 
L 158.606144 226.951537 
L 159.896547 226.951537 
L 159.92094 225.401671 
L 160.637672 225.401671 
L 160.684447 223.335183 
L 160.847203 223.335183 
L 160.847203 221.785317 
L 161.483794 221.785317 
L 161.483794 221.268695 
L 162.033625 221.268695 
L 162.033625 220.752073 
L 162.291653 220.752073 
L 162.291653 219.718829 
L 163.064562 219.718829 
L 163.146151 218.168963 
L 164.019878 218.168963 
L 164.019878 217.652341 
L 165.27331 217.652341 
L 165.27331 215.069231 
L 165.666425 215.069231 
L 165.719367 213.002743 
L 166.188921 213.002743 
L 166.188921 212.48612 
L 166.763182 212.48612 
L 166.763182 211.969498 
L 167.043537 211.969498 
L 167.043537 210.419632 
L 167.254996 210.419632 
L 167.254996 209.90301 
L 169.74173 209.90301 
L 169.74173 208.353144 
L 169.895827 208.353144 
L 169.951534 207.3199 
L 171.082976 207.3199 
L 171.082976 205.770034 
L 171.483073 205.770034 
L 171.483073 205.253412 
L 171.998838 205.253412 
L 171.998838 204.73679 
L 172.342702 204.73679 
L 172.342702 203.186924 
L 173.869028 203.186924 
L 173.869028 202.670302 
L 174.623438 202.670302 
L 174.623438 202.15368 
L 175.460015 202.15368 
L 175.460015 200.603814 
L 176.482463 200.603814 
L 176.482463 200.087192 
L 176.617027 200.087192 
L 176.617027 199.57057 
L 176.930261 199.57057 
L 176.930261 199.053948 
L 177.108148 199.053948 
L 177.108148 197.504082 
L 177.256586 197.504082 
L 177.256586 196.98746 
L 177.531627 196.98746 
L 177.531627 196.470838 
L 177.685624 196.470838 
L 177.748651 192.337862 
L 178.591312 192.337862 
L 178.625574 190.787996 
L 178.727971 190.787996 
L 178.727971 190.271374 
L 178.905764 190.271374 
L 178.905764 189.23813 
L 179.346769 189.23813 
L 179.346769 187.688264 
L 179.461467 187.688264 
L 179.534814 185.621776 
L 179.68061 185.621776 
L 179.68061 185.105154 
L 179.960743 185.105154 
L 179.960743 184.588532 
L 180.82875 184.588532 
L 180.82875 184.07191 
L 180.949379 184.07191 
L 180.949379 183.555288 
L 182.537264 183.555288 
L 182.537264 182.522044 
L 184.365463 182.522044 
L 184.433602 180.972178 
L 185.249364 180.972178 
L 185.249364 180.455556 
L 186.348935 180.455556 
L 186.348935 179.422312 
L 186.831146 179.422312 
L 186.831146 178.90569 
L 187.530906 178.90569 
L 187.530906 177.872445 
L 187.773592 177.872445 
L 187.773592 176.322579 
L 188.906248 176.322579 
L 188.906248 175.805957 
L 189.20696 175.805957 
L 189.20696 175.289335 
L 189.706376 175.289335 
L 189.720179 171.156359 
L 190.525043 171.156359 
L 190.525043 170.639737 
L 191.316254 170.639737 
L 191.316254 170.123115 
L 191.699097 170.123115 
L 191.699097 169.606493 
L 191.920048 169.606493 
L 191.920048 168.573249 
L 192.330088 168.573249 
L 192.330088 167.540005 
L 192.504103 167.540005 
L 192.504103 167.023383 
L 193.889453 167.023383 
L 193.889453 166.506761 
L 194.214271 166.506761 
L 194.214271 165.990139 
L 200.654492 165.990139 
L 200.654492 164.956895 
L 202.28389 164.956895 
L 202.28389 164.440273 
L 202.631117 164.440273 
L 202.631117 162.373785 
L 203.230546 162.373785 
L 203.230546 161.857163 
L 204.617687 161.857163 
L 204.617687 161.340541 
L 205.326708 161.340541 
L 205.326708 160.823919 
L 206.28561 160.823919 
L 206.28561 160.307297 
L 207.718902 160.307297 
L 207.718902 159.790675 
L 208.488178 159.790675 
L 208.488178 159.274053 
L 210.162501 159.274053 
L 210.162501 158.757431 
L 210.64094 158.757431 
L 210.64094 158.240809 
L 210.929553 158.240809 
L 210.981403 155.657699 
L 211.864582 155.657699 
L 211.864582 155.141077 
L 212.040846 155.141077 
L 212.040846 153.591211 
L 212.303974 153.591211 
L 212.303974 152.557967 
L 212.943442 152.557967 
L 212.943442 152.041345 
L 214.667986 152.041345 
L 214.667986 149.974857 
L 215.027513 149.974857 
L 215.027513 149.458235 
L 215.155369 149.458235 
L 215.155369 148.941613 
L 215.358055 148.941613 
L 215.358055 146.875125 
L 215.679366 146.875125 
L 215.679366 144.808637 
L 217.637858 144.808637 
L 217.637858 143.25877 
L 217.863003 143.25877 
L 217.863003 141.708904 
L 218.460316 141.708904 
L 218.460316 141.192282 
L 218.638967 141.192282 
L 218.638967 140.67566 
L 219.819703 140.67566 
L 219.819703 139.125794 
L 220.336924 139.125794 
L 220.336924 138.609172 
L 220.651626 138.609172 
L 220.651626 138.09255 
L 221.599349 138.09255 
L 221.599349 137.575928 
L 221.713301 137.575928 
L 221.713301 137.059306 
L 222.537478 137.059306 
L 222.537478 136.542684 
L 223.064642 136.542684 
L 223.064642 134.992818 
L 223.824598 134.992818 
L 223.84232 133.959574 
L 224.069779 133.959574 
L 224.069779 133.442952 
L 225.99564 133.442952 
L 225.99564 132.92633 
L 227.3893 132.92633 
L 227.3893 131.893086 
L 228.458281 131.893086 
L 228.458281 130.859842 
L 229.486784 130.859842 
L 229.486784 130.34322 
L 229.817032 130.34322 
L 229.817032 129.826598 
L 230.204389 129.826598 
L 230.204389 129.309976 
L 230.947921 129.309976 
L 230.947921 128.793354 
L 232.882256 128.793354 
L 232.882256 128.276732 
L 233.302836 128.276732 
L 233.302836 127.243488 
L 234.136486 127.243488 
L 234.20223 125.177 
L 234.692571 125.177 
L 234.692571 124.143756 
L 235.54356 124.143756 
L 235.54356 123.627134 
L 236.022335 123.627134 
L 236.101756 122.59389 
L 236.527514 122.59389 
L 236.527514 121.044024 
L 236.891251 121.044024 
L 236.891251 118.977536 
L 237.094248 118.977536 
L 237.094248 117.42767 
L 237.879895 117.42767 
L 237.879895 116.911048 
L 238.805785 116.911048 
L 238.889921 115.877804 
L 239.06951 115.877804 
L 239.06951 115.361182 
L 239.440731 115.361182 
L 239.440731 114.84456 
L 240.254316 114.84456 
L 240.254316 113.811316 
L 240.409176 113.811316 
L 240.409176 113.294694 
L 242.498245 113.294694 
L 242.587953 110.194961 
L 242.671513 110.194961 
L 242.710659 108.128473 
L 243.330179 108.128473 
L 243.330179 107.611851 
L 243.860181 107.611851 
L 243.860181 107.095229 
L 244.313274 107.095229 
L 244.313274 106.061985 
L 244.788103 106.061985 
L 244.788103 105.028741 
L 244.985953 105.028741 
L 244.985953 103.478875 
L 246.021368 103.478875 
L 246.021368 102.962253 
L 246.49221 102.962253 
L 246.49221 102.445631 
L 246.774008 102.445631 
L 246.833376 100.895765 
L 247.051802 100.895765 
L 247.051802 100.379143 
L 247.196934 100.379143 
L 247.196934 99.862521 
L 247.420094 99.862521 
L 247.420094 99.345899 
L 249.565596 99.345899 
L 249.565596 98.829277 
L 250.486574 98.829277 
L 250.486574 98.312655 
L 251.260034 98.312655 
L 251.260034 96.762789 
L 251.871297 96.762789 
L 251.871297 94.179679 
L 252.104659 94.179679 
L 252.104659 93.663057 
L 252.364306 93.663057 
L 252.364306 92.113191 
L 252.585221 92.113191 
L 252.663462 90.046703 
L 253.299774 90.046703 
L 253.299774 87.463593 
L 253.450599 87.463593 
L 253.450599 86.946971 
L 254.067984 86.946971 
L 254.067984 86.430349 
L 254.233516 86.430349 
L 254.233516 84.880483 
L 255.933714 84.880483 
L 256.022589 83.847239 
L 258.039971 83.847239 
L 258.039971 82.813995 
L 258.880608 82.813995 
L 258.880608 82.297373 
L 259.847702 82.297373 
L 259.847702 81.264129 
L 260.781945 81.264129 
L 260.781945 80.747507 
L 262.680384 80.747507 
L 262.680384 80.230885 
L 262.98593 80.230885 
L 262.98593 77.647775 
L 263.901687 77.647775 
L 263.901687 77.131153 
L 265.290094 77.131153 
L 265.290094 76.097908 
L 266.107312 76.097908 
L 266.107312 75.581286 
L 266.513737 75.581286 
L 266.513737 73.514798 
L 267.103737 73.514798 
L 267.103737 70.931688 
L 267.226936 70.931688 
L 267.226936 70.415066 
L 267.705619 70.415066 
L 267.705619 68.348578 
L 267.907378 68.348578 
L 267.907378 67.831956 
L 268.504708 67.831956 
L 268.504708 67.315334 
L 268.84689 67.315334 
L 268.892991 66.28209 
L 268.989356 66.28209 
L 268.989356 65.248846 
L 269.34159 65.248846 
L 269.34159 64.732224 
L 270.229126 64.732224 
L 270.229126 63.182358 
L 270.550033 63.182358 
L 270.550632 61.632492 
L 271.009221 61.632492 
L 271.106557 60.082626 
L 272.844536 60.082626 
L 272.889067 58.53276 
L 273.411082 58.53276 
L 273.457999 55.94965 
L 273.545136 55.94965 
L 273.563102 54.916406 
L 273.81047 54.916406 
L 273.81047 54.399784 
L 274.041209 54.399784 
L 274.041209 53.36654 
L 274.696455 53.36654 
L 274.696455 52.333296 
L 276.217729 52.333296 
L 276.226774 50.78343 
L 277.02575 50.78343 
L 277.02575 50.266808 
L 278.340069 50.266808 
L 278.340069 49.750186 
L 279.196406 49.750186 
L 279.196406 49.233564 
L 282.758333 49.233564 
L 282.822545 48.20032 
L 283.454704 48.20032 
L 283.454704 47.683698 
L 285.264383 47.683698 
L 285.264383 47.167076 
L 285.773216 47.167076 
L 285.773216 46.650454 
L 286.436167 46.650454 
L 286.436167 46.133832 
L 288.126874 46.133832 
L 288.126874 45.61721 
L 288.909577 45.61721 
L 288.909577 45.100588 
L 290.56585 45.100588 
L 290.56585 44.583966 
L 291.312218 44.583966 
L 291.312218 44.067344 
L 295.172042 44.067344 
L 295.172042 43.550722 
L 295.621524 43.550722 
L 295.621524 43.0341 
L 298.139433 43.0341 
L 298.139433 42.517478 
L 303.310019 42.517478 
L 303.310019 42.000855 
L 304.502785 42.000855 
L 304.502785 41.484233 
L 306.235131 41.484233 
L 306.235131 40.967611 
L 311.010545 40.967611 
L 311.010545 40.450989 
L 314.326157 40.450989 
L 314.326157 39.934367 
L 314.458633 39.934367 
L 314.458633 39.417745 
L 315.433524 39.417745 
L 315.433524 38.901123 
L 316.129381 38.901123 
L 316.129381 38.384501 
L 321.609339 38.384501 
L 321.609339 37.867879 
L 322.506268 37.867879 
L 322.506268 37.351257 
L 328.066606 37.351257 
L 328.066606 36.834635 
L 328.714215 36.834635 
L 328.714215 36.318013 
L 329.559427 36.318013 
L 329.559427 35.801391 
L 333.213602 35.801391 
L 333.213602 35.284769 
L 336.893419 35.284769 
L 336.893419 34.768147 
L 358.8 34.768147 
L 358.8 34.768147 
" style="fill:none;stroke:#000080;stroke-linecap:square;stroke-width:1.5;"/>
   </g>
   <g id="line2d_25">
    <defs>
     <path d="M 0 6 
C 1.591219 6 3.117479 5.367802 4.242641 4.242641 
C 5.367802 3.117479 6 1.591219 6 0 
C 6 -1.591219 5.367802 -3.117479 4.242641 -4.242641 
C 3.117479 -5.367802 1.591219 -6 0 -6 
C -1.591219 -6 -3.117479 -5.367802 -4.242641 -4.242641 
C -5.367802 -3.117479 -6 -1.591219 -6 0 
C -6 1.591219 -5.367802 3.117479 -4.242641 4.242641 
C -3.117479 5.367802 -1.591219 6 0 6 
z
" id="m9a4499a370" style="stroke:#000080;stroke-width:1.5;"/>
    </defs>
    <g>
     <use style="fill:none;stroke:#000080;stroke-width:1.5;" x="42.042377" xlink:href="#m9a4499a370" y="291.012667"/>
     <use style="fill:none;stroke:#000080;stroke-width:1.5;" x="163.146151" xlink:href="#m9a4499a370" y="218.168963"/>
     <use style="fill:none;stroke:#000080;stroke-width:1.5;" x="211.864582" xlink:href="#m9a4499a370" y="155.141077"/>
     <use style="fill:none;stroke:#000080;stroke-width:1.5;" x="268.989356" xlink:href="#m9a4499a370" y="65.248846"/>
     <use style="fill:none;stroke:#000080;stroke-width:1.5;" x="336.893419" xlink:href="#m9a4499a370" y="34.768147"/>
     <use style="fill:none;stroke:#000080;stroke-width:1.5;" x="358.8" xlink:href="#m9a4499a370" y="34.768147"/>
    </g>
   </g>
   <g id="line2d_26"/>
   <g id="line2d_27">
    <path clip-path="url(#p0226f36167)" d="M 271.392046 60.082626 
" style="fill:none;stroke:#000080;stroke-linecap:square;stroke-width:1.5;"/>
    <defs>
     <path d="M -12 12 
L 12 -12 
M -12 -12 
L 12 12 
" id="m339c589a32" style="stroke:#000080;stroke-width:3;"/>
    </defs>
    <g clip-path="url(#p0226f36167)">
     <use style="fill:#000080;stroke:#000080;stroke-width:3;" x="271.392046" xlink:href="#m339c589a32" y="60.082626"/>
    </g>
   </g>
   <g id="line2d_28">
    <defs>
     <path d="M 0 1.5 
C 0.397805 1.5 0.77937 1.341951 1.06066 1.06066 
C 1.341951 0.77937 1.5 0.397805 1.5 0 
C 1.5 -0.397805 1.341951 -0.77937 1.06066 -1.06066 
C 0.77937 -1.341951 0.397805 -1.5 0 -1.5 
C -0.397805 -1.5 -0.77937 -1.341951 -1.06066 -1.06066 
C -1.341951 -0.77937 -1.5 -0.397805 -1.5 0 
C -1.5 0.397805 -1.341951 0.77937 -1.06066 1.06066 
C -0.77937 1.341951 -0.397805 1.5 0 1.5 
z
" id="md38462f733" style="stroke:#ff00ff;"/>
    </defs>
    <g>
     <use style="fill:#ff00ff;stroke:#ff00ff;" x="341.513915" xlink:href="#md38462f733" y="158.757431"/>
     <use style="fill:#ff00ff;stroke:#ff00ff;" x="341.513915" xlink:href="#md38462f733" y="158.757431"/>
    </g>
   </g>
   <g id="line2d_29">
    <path d="M 174.233809 298.245375 
L 174.233809 295.145643 
L 177.971949 295.145643 
L 177.971949 293.595777 
L 180.813614 293.595777 
L 180.813614 293.079155 
L 182.218182 293.079155 
L 182.218182 291.012667 
L 182.769498 291.012667 
L 182.769498 289.979423 
L 186.415462 289.979423 
L 186.415462 289.462801 
L 188.229307 289.462801 
L 188.229307 288.429557 
L 189.240063 288.429557 
L 189.240063 286.879691 
L 189.687955 286.879691 
L 189.687955 286.363069 
L 191.104694 286.363069 
L 191.104694 283.779959 
L 198.52466 283.779959 
L 198.52466 282.746715 
L 198.778548 282.746715 
L 198.778548 282.230093 
L 199.009747 282.230093 
L 199.009747 281.713471 
L 200.5745 281.713471 
L 200.5745 280.680226 
L 201.277035 280.680226 
L 201.289075 278.097116 
L 201.392283 278.097116 
L 201.432922 277.063872 
L 201.528181 277.063872 
L 201.528181 276.54725 
L 203.301661 276.54725 
L 203.301661 276.030628 
L 203.678339 276.030628 
L 203.678339 274.997384 
L 203.9438 274.997384 
L 203.9438 273.447518 
L 204.148032 273.447518 
L 204.148032 272.414274 
L 204.63566 272.414274 
L 204.63566 271.897652 
L 205.397617 271.897652 
L 205.397617 270.864408 
L 206.772128 270.864408 
L 206.772128 266.731432 
L 207.002642 266.731432 
L 207.002642 266.21481 
L 207.141966 266.21481 
L 207.141966 265.181566 
L 209.621137 265.181566 
L 209.621137 263.6317 
L 212.054029 263.6317 
L 212.054029 261.565212 
L 212.47855 261.565212 
L 212.47855 261.04859 
L 212.605498 261.04859 
L 212.605498 260.531968 
L 214.964919 260.531968 
L 214.964919 260.015346 
L 215.093223 260.015346 
L 215.093223 259.498724 
L 216.173789 259.498724 
L 216.198886 257.948858 
L 216.712868 257.948858 
L 216.712868 256.915614 
L 218.842006 256.915614 
L 218.842006 254.332504 
L 219.879335 254.332504 
L 219.879335 252.782638 
L 220.401466 252.782638 
L 220.401466 252.266016 
L 221.433284 252.266016 
L 221.500983 249.166284 
L 221.859295 249.166284 
L 221.859295 247.099796 
L 222.782051 247.099796 
L 222.782051 244.516685 
L 225.778111 244.516685 
L 225.795221 242.450197 
L 226.593101 242.450197 
L 226.593101 241.933575 
L 227.323261 241.933575 
L 227.323261 241.416953 
L 228.11831 241.416953 
L 228.11831 240.900331 
L 232.537176 240.900331 
L 232.576499 239.350465 
L 232.648645 239.350465 
L 232.648645 236.250733 
L 233.170343 236.250733 
L 233.170343 234.184245 
L 234.139932 234.184245 
L 234.139932 232.634379 
L 234.505625 232.634379 
L 234.505625 232.117757 
L 235.374287 232.117757 
L 235.445606 230.567891 
L 237.599132 230.567891 
L 237.599132 229.534647 
L 237.904722 229.534647 
L 237.904722 228.501403 
L 239.071834 228.501403 
L 239.161379 224.885049 
L 239.189684 224.885049 
L 239.189684 224.368427 
L 239.903667 224.368427 
L 239.903667 223.335183 
L 240.373558 223.335183 
L 240.373558 222.818561 
L 241.18385 222.818561 
L 241.294245 221.268695 
L 242.475208 221.268695 
L 242.475208 220.235451 
L 243.603909 220.235451 
L 243.603909 219.202207 
L 246.15066 219.202207 
L 246.15066 218.685585 
L 247.636543 218.685585 
L 247.636543 217.652341 
L 249.894388 217.652341 
L 249.894388 215.585853 
L 251.534902 215.585853 
L 251.556005 211.452876 
L 251.798909 211.452876 
L 251.798909 210.936254 
L 252.457533 210.936254 
L 252.457533 209.386388 
L 252.668078 209.386388 
L 252.668078 206.803278 
L 254.36966 206.803278 
L 254.36966 205.253412 
L 255.071466 205.253412 
L 255.071466 204.73679 
L 256.825881 204.73679 
L 256.825881 203.703546 
L 257.97796 203.703546 
L 257.97796 203.186924 
L 258.148675 203.186924 
L 258.148675 202.670302 
L 258.26367 202.670302 
L 258.26367 198.020704 
L 258.869291 198.020704 
L 258.869291 195.954216 
L 261.980759 195.954216 
L 261.980759 195.437594 
L 266.978281 195.437594 
L 266.978281 194.920972 
L 269.548072 194.920972 
L 269.553085 193.887728 
L 270.210472 193.887728 
L 270.210472 193.371106 
L 271.348725 193.371106 
L 271.348725 192.854484 
L 272.440753 192.854484 
L 272.473177 191.82124 
L 272.603933 191.82124 
L 272.613004 189.754752 
L 272.962108 189.754752 
L 273.049782 186.138398 
L 273.134092 186.138398 
L 273.134092 183.555288 
L 273.698451 183.555288 
L 273.698451 183.038666 
L 273.957165 183.038666 
L 273.957165 182.522044 
L 274.379489 182.522044 
L 274.454598 181.4888 
L 275.89487 181.4888 
L 275.89487 180.972178 
L 277.545561 180.972178 
L 277.545561 180.455556 
L 277.938768 180.455556 
L 277.938768 179.938934 
L 278.573205 179.938934 
L 278.573205 179.422312 
L 279.655746 179.422312 
L 279.655746 178.389067 
L 279.983522 178.389067 
L 279.983522 177.872445 
L 280.744276 177.872445 
L 280.744276 177.355823 
L 281.164375 177.355823 
L 281.180401 176.322579 
L 282.370613 176.322579 
L 282.38657 175.289335 
L 282.816267 175.289335 
L 282.816267 174.772713 
L 283.745622 174.772713 
L 283.745622 174.256091 
L 284.842207 174.256091 
L 284.842207 173.739469 
L 285.102273 173.739469 
L 285.102273 173.222847 
L 285.360852 173.222847 
L 285.40471 172.189603 
L 286.329591 172.189603 
L 286.35425 171.156359 
L 288.704935 171.156359 
L 288.704935 170.639737 
L 289.849942 170.639737 
L 289.849942 170.123115 
L 291.214868 170.123115 
L 291.214868 169.606493 
L 293.956975 169.606493 
L 293.956975 169.089871 
L 294.086828 169.089871 
L 294.099588 168.056627 
L 295.614531 168.056627 
L 295.614531 167.540005 
L 296.079271 167.540005 
L 296.079271 167.023383 
L 300.848181 167.023383 
L 300.848181 166.506761 
L 302.269857 166.506761 
L 302.269857 165.990139 
L 303.470656 165.990139 
L 303.470656 165.473517 
L 304.450927 165.473517 
L 304.493374 164.440273 
L 306.010433 164.440273 
L 306.010433 163.923651 
L 307.735711 163.923651 
L 307.735711 163.407029 
L 318.077492 163.407029 
L 318.077492 162.890407 
L 318.448982 162.890407 
L 318.452876 161.857163 
L 319.200231 161.857163 
L 319.200231 161.340541 
L 320.257511 161.340541 
L 320.257511 160.823919 
L 320.563334 160.823919 
L 320.563334 160.307297 
L 326.408477 160.307297 
L 326.408477 159.790675 
L 330.647894 159.790675 
L 330.647894 159.274053 
L 341.513915 159.274053 
L 341.513915 158.757431 
L 358.8 158.757431 
L 358.8 158.757431 
" style="fill:none;stroke:#ff00ff;stroke-linecap:square;stroke-width:1.5;"/>
   </g>
   <g id="line2d_30">
    <defs>
     <path d="M -0 8.485281 
L 5.091169 0 
L 0 -8.485281 
L -5.091169 -0 
z
" id="m9bd4e9959e" style="stroke:#ff00ff;stroke-linejoin:miter;stroke-width:1.5;"/>
    </defs>
    <g>
     <use style="fill:none;stroke:#ff00ff;stroke-linejoin:miter;stroke-width:1.5;" x="269.553085" xlink:href="#m9bd4e9959e" y="194.40435"/>
     <use style="fill:none;stroke:#ff00ff;stroke-linejoin:miter;stroke-width:1.5;" x="341.513915" xlink:href="#m9bd4e9959e" y="159.274053"/>
     <use style="fill:none;stroke:#ff00ff;stroke-linejoin:miter;stroke-width:1.5;" x="341.513915" xlink:href="#m9bd4e9959e" y="158.757431"/>
     <use style="fill:none;stroke:#ff00ff;stroke-linejoin:miter;stroke-width:1.5;" x="358.8" xlink:href="#m9bd4e9959e" y="158.757431"/>
    </g>
   </g>
   <g id="line2d_31"/>
   <g id="line2d_32">
    <path clip-path="url(#p0226f36167)" d="M 271.348725 192.854484 
" style="fill:none;stroke:#ff00ff;stroke-linecap:square;stroke-width:1.5;"/>
    <defs>
     <path d="M -12 12 
L 12 -12 
M -12 -12 
L 12 12 
" id="md34b3929e3" style="stroke:#ff00ff;stroke-width:3;"/>
    </defs>
    <g clip-path="url(#p0226f36167)">
     <use style="fill:#ff00ff;stroke:#ff00ff;stroke-width:3;" x="271.348725" xlink:href="#md34b3929e3" y="192.854484"/>
    </g>
   </g>
   <g id="line2d_33">
    <defs>
     <path d="M 0 1.5 
C 0.397805 1.5 0.77937 1.341951 1.06066 1.06066 
C 1.341951 0.77937 1.5 0.397805 1.5 0 
C 1.5 -0.397805 1.341951 -0.77937 1.06066 -1.06066 
C 0.77937 -1.341951 0.397805 -1.5 0 -1.5 
C -0.397805 -1.5 -0.77937 -1.341951 -1.06066 -1.06066 
C -1.341951 -0.77937 -1.5 -0.397805 -1.5 0 
C -1.5 0.397805 -1.341951 0.77937 -1.06066 1.06066 
C -0.77937 1.341951 -0.397805 1.5 0 1.5 
z
" id="m8f000c2413" style="stroke:#ffa500;"/>
    </defs>
    <g>
     <use style="fill:#ffa500;stroke:#ffa500;" x="343.904418" xlink:href="#m8f000c2413" y="101.929009"/>
     <use style="fill:#ffa500;stroke:#ffa500;" x="343.904418" xlink:href="#m8f000c2413" y="101.929009"/>
    </g>
   </g>
   <g id="line2d_34">
    <path d="M 42.042377 298.245375 
L 42.042377 297.212131 
L 134.429184 297.212131 
L 134.429184 296.178887 
L 135.3203 296.178887 
L 135.3203 295.662265 
L 135.890607 295.662265 
L 135.890607 295.145643 
L 136.169077 295.145643 
L 136.169077 291.012667 
L 136.352341 291.012667 
L 136.352341 289.979423 
L 136.623761 289.979423 
L 136.713325 287.912935 
L 143.041708 287.912935 
L 143.041708 286.363069 
L 143.166661 286.363069 
L 143.166661 285.846447 
L 143.536359 285.846447 
L 143.536359 285.329825 
L 143.657911 285.329825 
L 143.657911 284.813203 
L 143.958223 284.813203 
L 143.958223 283.779959 
L 146.712605 283.779959 
L 146.712605 282.746715 
L 147.36425 282.746715 
L 147.36425 282.230093 
L 147.753761 282.230093 
L 147.753761 281.713471 
L 147.992963 281.713471 
L 147.992963 280.163604 
L 148.322555 280.163604 
L 148.322555 279.646982 
L 148.691935 279.646982 
L 148.783099 278.613738 
L 152.281696 278.613738 
L 152.281696 277.580494 
L 152.65165 277.580494 
L 152.761158 276.030628 
L 152.978183 276.030628 
L 152.978183 274.997384 
L 154.982597 274.997384 
L 154.982597 274.480762 
L 156.073405 274.480762 
L 156.13377 273.447518 
L 156.343457 273.447518 
L 156.343457 272.930896 
L 157.773669 272.930896 
L 157.773669 272.414274 
L 158.684685 272.414274 
L 158.684685 271.38103 
L 158.814825 271.38103 
L 158.814825 270.864408 
L 160.187092 270.864408 
L 160.187092 270.347786 
L 162.879611 270.347786 
L 162.879611 269.831164 
L 164.554434 269.831164 
L 164.554434 269.314542 
L 166.171749 269.314542 
L 166.188921 268.281298 
L 166.629713 268.281298 
L 166.629713 267.248054 
L 168.654085 267.248054 
L 168.654085 266.21481 
L 169.825948 266.21481 
L 169.825948 265.181566 
L 171.200059 265.181566 
L 171.200059 264.664944 
L 172.147019 264.664944 
L 172.147019 263.6317 
L 172.64423 263.6317 
L 172.64423 263.115078 
L 175.316413 263.115078 
L 175.316413 262.598456 
L 175.743803 262.598456 
L 175.794008 261.565212 
L 176.911433 261.565212 
L 176.911433 261.04859 
L 177.154668 261.04859 
L 177.154668 260.015346 
L 178.148601 260.015346 
L 178.148601 259.498724 
L 179.881153 259.498724 
L 179.881153 258.982102 
L 180.600351 258.982102 
L 180.600351 258.46548 
L 184.052418 258.46548 
L 184.052418 257.948858 
L 184.495323 257.948858 
L 184.495323 257.432236 
L 184.81893 257.432236 
L 184.81893 255.88237 
L 185.160541 255.88237 
L 185.160541 255.365748 
L 185.513213 255.365748 
L 185.513213 254.849126 
L 185.686972 254.849126 
L 185.686972 254.332504 
L 185.870472 254.332504 
L 185.97854 252.266016 
L 186.55327 252.266016 
L 186.55327 251.749394 
L 189.502696 251.749394 
L 189.502696 250.199528 
L 189.935047 250.199528 
L 189.935047 249.682906 
L 190.169801 249.682906 
L 190.236949 248.13304 
L 191.10895 248.13304 
L 191.10895 247.616418 
L 192.641325 247.616418 
L 192.641325 246.583173 
L 193.050595 246.583173 
L 193.073484 245.033307 
L 193.319579 245.033307 
L 193.319579 244.516685 
L 202.286167 244.516685 
L 202.286167 243.483441 
L 203.254283 243.483441 
L 203.254283 242.966819 
L 204.729226 242.966819 
L 204.729226 242.450197 
L 206.851648 242.450197 
L 206.851648 240.900331 
L 209.230328 240.900331 
L 209.230328 240.383709 
L 211.191463 240.383709 
L 211.191463 239.867087 
L 212.063252 239.867087 
L 212.063252 239.350465 
L 212.315665 239.350465 
L 212.333837 238.317221 
L 212.799933 238.317221 
L 212.799933 237.800599 
L 212.94971 237.800599 
L 212.94971 237.283977 
L 213.162762 237.283977 
L 213.162762 235.734111 
L 213.39899 235.734111 
L 213.39899 235.217489 
L 213.881322 235.217489 
L 213.881322 233.667623 
L 214.175128 233.667623 
L 214.180979 230.567891 
L 214.32082 230.567891 
L 214.32082 230.051269 
L 214.549192 230.051269 
L 214.625813 229.018025 
L 215.301007 229.018025 
L 215.301007 228.501403 
L 215.775928 228.501403 
L 215.775928 227.468159 
L 215.963264 227.468159 
L 215.963264 226.434915 
L 216.352878 226.434915 
L 216.352878 224.368427 
L 216.824208 224.368427 
L 216.824208 223.335183 
L 217.032866 223.335183 
L 217.087635 221.268695 
L 217.220374 221.268695 
L 217.220374 220.235451 
L 218.006188 220.235451 
L 218.006188 219.718829 
L 218.308671 219.718829 
L 218.308671 219.202207 
L 219.811168 219.202207 
L 219.811168 218.685585 
L 219.990399 218.685585 
L 219.990399 218.168963 
L 220.196279 218.168963 
L 220.196279 217.652341 
L 221.091685 217.652341 
L 221.176512 215.585853 
L 221.227059 215.585853 
L 221.227059 214.552609 
L 221.504089 214.552609 
L 221.513405 213.519365 
L 221.667961 213.519365 
L 221.682575 212.48612 
L 221.866145 212.48612 
L 221.866145 211.452876 
L 223.093083 211.452876 
L 223.093083 210.419632 
L 223.232498 210.419632 
L 223.255746 207.836522 
L 223.773377 207.836522 
L 223.773377 207.3199 
L 224.366637 207.3199 
L 224.407608 205.253412 
L 224.743056 205.253412 
L 224.743056 204.220168 
L 224.920317 204.220168 
L 224.920317 203.186924 
L 225.264617 203.186924 
L 225.264617 202.670302 
L 227.441176 202.670302 
L 227.441176 201.637058 
L 227.719724 201.637058 
L 227.719724 200.087192 
L 228.136534 200.087192 
L 228.136534 199.053948 
L 228.73034 199.053948 
L 228.73034 198.537326 
L 229.895858 198.537326 
L 229.895858 197.504082 
L 230.129312 197.504082 
L 230.129312 196.470838 
L 230.4687 196.470838 
L 230.4687 195.954216 
L 230.748609 195.954216 
L 230.748609 195.437594 
L 231.585493 195.437594 
L 231.585493 194.920972 
L 232.354067 194.920972 
L 232.354067 192.854484 
L 233.000579 192.854484 
L 233.000579 192.337862 
L 233.271915 192.337862 
L 233.271915 191.82124 
L 234.69888 191.82124 
L 234.69888 190.787996 
L 236.970505 190.787996 
L 236.970505 190.271374 
L 238.327648 190.271374 
L 238.327648 188.721508 
L 238.62798 188.721508 
L 238.727177 187.688264 
L 238.803426 187.688264 
L 238.803426 187.171642 
L 239.33169 187.171642 
L 239.33169 186.65502 
L 240.184844 186.65502 
L 240.266548 185.105154 
L 240.580603 185.105154 
L 240.580603 184.588532 
L 241.151297 184.588532 
L 241.151297 184.07191 
L 241.574232 184.07191 
L 241.583321 180.455556 
L 241.768643 180.455556 
L 241.768643 179.938934 
L 242.69335 179.938934 
L 242.69335 178.90569 
L 242.848526 178.90569 
L 242.848526 178.389067 
L 243.492652 178.389067 
L 243.492652 177.872445 
L 243.636117 177.872445 
L 243.636117 177.355823 
L 244.169924 177.355823 
L 244.169924 176.322579 
L 244.364548 176.322579 
L 244.364548 175.805957 
L 245.082092 175.805957 
L 245.082092 175.289335 
L 245.65956 175.289335 
L 245.65956 174.256091 
L 246.046554 174.256091 
L 246.046554 173.222847 
L 246.597 173.222847 
L 246.597 172.706225 
L 247.080775 172.706225 
L 247.080775 171.672981 
L 247.469187 171.672981 
L 247.469187 170.639737 
L 248.389814 170.639737 
L 248.389814 169.089871 
L 249.050725 169.089871 
L 249.050725 168.573249 
L 249.166852 168.573249 
L 249.166852 167.540005 
L 249.464873 167.540005 
L 249.464873 165.990139 
L 249.909284 165.990139 
L 249.909284 164.440273 
L 250.231713 164.440273 
L 250.231713 163.923651 
L 250.366547 163.923651 
L 250.366547 163.407029 
L 250.724388 163.407029 
L 250.724388 162.373785 
L 251.028545 162.373785 
L 251.028545 161.857163 
L 251.424792 161.857163 
L 251.424792 161.340541 
L 252.040665 161.340541 
L 252.040665 160.823919 
L 252.808288 160.823919 
L 252.808288 160.307297 
L 253.164835 160.307297 
L 253.176581 159.274053 
L 253.451638 159.274053 
L 253.451638 158.757431 
L 253.636586 158.757431 
L 253.636586 157.207565 
L 253.765852 157.207565 
L 253.796334 156.174321 
L 254.436054 156.174321 
L 254.436054 155.657699 
L 254.901337 155.657699 
L 254.901337 154.624455 
L 256.135635 154.624455 
L 256.135635 154.107833 
L 257.591207 154.107833 
L 257.640294 152.557967 
L 257.787057 152.557967 
L 257.787057 152.041345 
L 258.127187 152.041345 
L 258.127187 150.491479 
L 258.282219 150.491479 
L 258.282219 149.974857 
L 259.876832 149.974857 
L 259.876832 149.458235 
L 260.2934 149.458235 
L 260.2934 148.941613 
L 261.281645 148.941613 
L 261.281645 147.391747 
L 262.287943 147.391747 
L 262.371572 145.325259 
L 263.487943 145.325259 
L 263.487943 144.808637 
L 263.640494 144.808637 
L 263.640494 143.25877 
L 264.587895 143.25877 
L 264.587895 142.742148 
L 265.716491 142.742148 
L 265.768341 139.642416 
L 265.935724 139.642416 
L 265.935724 139.125794 
L 266.953096 139.125794 
L 266.953096 138.609172 
L 268.072469 138.609172 
L 268.072469 138.09255 
L 269.16475 138.09255 
L 269.16475 137.059306 
L 269.40485 137.059306 
L 269.40485 136.026062 
L 269.994363 136.026062 
L 269.994363 131.893086 
L 271.916583 131.893086 
L 271.929244 129.826598 
L 272.250275 129.826598 
L 272.250275 128.793354 
L 272.84458 128.793354 
L 272.84458 128.276732 
L 273.888418 128.276732 
L 273.888418 127.76011 
L 274.029098 127.76011 
L 274.029098 125.693622 
L 274.920946 125.693622 
L 274.920946 125.177 
L 275.402529 125.177 
L 275.402529 124.660378 
L 276.870258 124.660378 
L 276.870258 124.143756 
L 283.577605 124.143756 
L 283.577605 123.627134 
L 283.752535 123.627134 
L 283.752535 123.110512 
L 285.415028 123.110512 
L 285.415028 122.59389 
L 285.79502 122.59389 
L 285.79502 122.077268 
L 287.082738 122.077268 
L 287.082738 121.560646 
L 288.931439 121.560646 
L 288.931439 121.044024 
L 289.745014 121.044024 
L 289.745014 120.527402 
L 290.136868 120.527402 
L 290.136868 120.01078 
L 292.767045 120.01078 
L 292.767045 119.494158 
L 292.975309 119.494158 
L 292.975309 118.977536 
L 294.239865 118.977536 
L 294.239865 118.460914 
L 296.418099 118.460914 
L 296.418099 117.944292 
L 297.320757 117.944292 
L 297.320757 117.42767 
L 297.752674 117.42767 
L 297.752674 116.911048 
L 298.204557 116.911048 
L 298.204557 116.394426 
L 300.229487 116.394426 
L 300.229487 115.877804 
L 301.348002 115.877804 
L 301.348002 115.361182 
L 301.917379 115.361182 
L 301.917379 114.84456 
L 302.109163 114.84456 
L 302.109163 114.327938 
L 304.540323 114.327938 
L 304.540323 113.811316 
L 304.908962 113.811316 
L 304.908962 113.294694 
L 306.242362 113.294694 
L 306.242362 112.778072 
L 306.378416 112.778072 
L 306.378416 112.26145 
L 306.573761 112.26145 
L 306.573761 111.744828 
L 307.726917 111.744828 
L 307.726917 111.228206 
L 309.800464 111.228206 
L 309.800464 110.711584 
L 309.929743 110.711584 
L 309.929743 110.194961 
L 311.691618 110.194961 
L 311.691618 109.678339 
L 312.727386 109.678339 
L 312.727386 109.161717 
L 314.824515 109.161717 
L 314.824515 108.645095 
L 315.72921 108.645095 
L 315.72921 108.128473 
L 316.887553 108.128473 
L 316.887553 107.611851 
L 317.941174 107.611851 
L 317.941174 107.095229 
L 319.72759 107.095229 
L 319.72759 106.578607 
L 320.98949 106.578607 
L 320.98949 106.061985 
L 321.351409 106.061985 
L 321.351409 105.545363 
L 322.146359 105.545363 
L 322.146359 105.028741 
L 326.33702 105.028741 
L 326.33702 104.512119 
L 326.615635 104.512119 
L 326.615635 103.995497 
L 326.774244 103.995497 
L 326.774244 103.478875 
L 332.612043 103.478875 
L 332.612043 102.962253 
L 337.690935 102.962253 
L 337.690935 102.445631 
L 343.904418 102.445631 
L 343.904418 101.929009 
L 358.8 101.929009 
L 358.8 101.929009 
" style="fill:none;stroke:#ffa500;stroke-linecap:square;stroke-width:1.5;"/>
   </g>
   <g id="line2d_35">
    <defs>
     <path d="M 0 -6 
L -1.347084 -1.854102 
L -5.706339 -1.854102 
L -2.179628 0.708204 
L -3.526712 4.854102 
L -0 2.291796 
L 3.526712 4.854102 
L 2.179628 0.708204 
L 5.706339 -1.854102 
L 1.347084 -1.854102 
z
" id="m9ac0436648" style="stroke:#ffa500;stroke-linejoin:bevel;stroke-width:1.5;"/>
    </defs>
    <g>
     <use style="fill:none;stroke:#ffa500;stroke-linejoin:bevel;stroke-width:1.5;" x="152.65165" xlink:href="#m9ac0436648" y="277.063872"/>
     <use style="fill:none;stroke:#ffa500;stroke-linejoin:bevel;stroke-width:1.5;" x="220.196279" xlink:href="#m9ac0436648" y="217.652341"/>
     <use style="fill:none;stroke:#ffa500;stroke-linejoin:bevel;stroke-width:1.5;" x="272.250275" xlink:href="#m9ac0436648" y="129.826598"/>
     <use style="fill:none;stroke:#ffa500;stroke-linejoin:bevel;stroke-width:1.5;" x="343.904418" xlink:href="#m9ac0436648" y="102.445631"/>
     <use style="fill:none;stroke:#ffa500;stroke-linejoin:bevel;stroke-width:1.5;" x="343.904418" xlink:href="#m9ac0436648" y="101.929009"/>
     <use style="fill:none;stroke:#ffa500;stroke-linejoin:bevel;stroke-width:1.5;" x="358.8" xlink:href="#m9ac0436648" y="101.929009"/>
    </g>
   </g>
   <g id="line2d_36"/>
   <g id="line2d_37">
    <path clip-path="url(#p0226f36167)" d="M 271.929244 129.826598 
" style="fill:none;stroke:#ffa500;stroke-linecap:square;stroke-width:1.5;"/>
    <defs>
     <path d="M -12 12 
L 12 -12 
M -12 -12 
L 12 12 
" id="mfb9d4e044e" style="stroke:#ffa500;stroke-width:3;"/>
    </defs>
    <g clip-path="url(#p0226f36167)">
     <use style="fill:#ffa500;stroke:#ffa500;stroke-width:3;" x="271.929244" xlink:href="#mfb9d4e044e" y="129.826598"/>
    </g>
   </g>
   <g id="line2d_38">
    <defs>
     <path d="M 0 1.5 
C 0.397805 1.5 0.77937 1.341951 1.06066 1.06066 
C 1.341951 0.77937 1.5 0.397805 1.5 0 
C 1.5 -0.397805 1.341951 -0.77937 1.06066 -1.06066 
C 0.77937 -1.341951 0.397805 -1.5 0 -1.5 
C -0.397805 -1.5 -0.77937 -1.341951 -1.06066 -1.06066 
C -1.341951 -0.77937 -1.5 -0.397805 -1.5 0 
C -1.5 0.397805 -1.341951 0.77937 -1.06066 1.06066 
C -0.77937 1.341951 -0.397805 1.5 0 1.5 
z
" id="mfab9586612" style="stroke:#6495ed;"/>
    </defs>
    <g>
     <use style="fill:#6495ed;stroke:#6495ed;" x="336.158118" xlink:href="#mfab9586612" y="117.42767"/>
     <use style="fill:#6495ed;stroke:#6495ed;" x="336.158118" xlink:href="#mfab9586612" y="117.42767"/>
    </g>
   </g>
   <g id="line2d_39">
    <path d="M 134.121988 298.245375 
L 134.121988 294.629021 
L 135.3203 294.629021 
L 135.3203 294.112399 
L 136.169077 294.112399 
L 136.169077 293.595777 
L 136.443273 293.595777 
L 136.533745 288.946179 
L 136.713325 288.946179 
L 136.713325 288.429557 
L 141.808936 288.429557 
L 141.808936 287.912935 
L 142.852626 287.912935 
L 142.915876 286.363069 
L 143.413974 286.363069 
L 143.413974 285.846447 
L 143.718379 285.846447 
L 143.778642 284.296581 
L 147.314958 284.296581 
L 147.314958 283.779959 
L 148.040421 283.779959 
L 148.040421 283.263337 
L 148.964044 283.263337 
L 148.964044 282.746715 
L 150.963276 282.746715 
L 150.963276 282.230093 
L 152.504586 282.230093 
L 152.504586 280.680226 
L 152.87 280.680226 
L 152.87 280.163604 
L 156.163876 280.163604 
L 156.163876 279.13036 
L 156.580124 279.13036 
L 156.580124 278.097116 
L 157.718606 278.097116 
L 157.746159 277.063872 
L 158.421527 277.063872 
L 158.421527 276.030628 
L 158.995443 276.030628 
L 158.995443 274.480762 
L 160.496607 274.480762 
L 160.496607 272.930896 
L 161.416662 272.930896 
L 161.416662 271.897652 
L 162.291653 271.897652 
L 162.291653 271.38103 
L 163.166491 271.38103 
L 163.166491 270.864408 
L 164.704272 270.864408 
L 164.704272 270.347786 
L 165.842293 270.347786 
L 165.842293 269.831164 
L 167.027167 269.831164 
L 167.027167 269.314542 
L 168.503932 269.314542 
L 168.503932 268.281298 
L 169.242389 268.281298 
L 169.242389 267.764676 
L 169.90977 267.764676 
L 169.90977 267.248054 
L 170.820011 267.248054 
L 170.820011 266.731432 
L 173.17448 266.731432 
L 173.17448 266.21481 
L 175.07796 266.21481 
L 175.07796 264.664944 
L 176.052826 264.664944 
L 176.052826 263.6317 
L 176.731567 263.6317 
L 176.731567 263.115078 
L 181.136246 263.115078 
L 181.188221 262.081834 
L 182.364557 262.081834 
L 182.364557 261.565212 
L 183.125596 261.565212 
L 183.172101 260.531968 
L 183.74022 260.531968 
L 183.74022 260.015346 
L 185.824773 260.015346 
L 185.824773 258.982102 
L 186.052106 258.982102 
L 186.052106 258.46548 
L 186.426526 258.46548 
L 186.426526 257.432236 
L 187.530906 257.432236 
L 187.530906 256.915614 
L 187.896257 256.915614 
L 187.896257 256.398992 
L 189.230611 256.398992 
L 189.339003 255.365748 
L 189.595566 255.365748 
L 189.595566 254.849126 
L 190.259276 254.849126 
L 190.259276 253.815882 
L 191.537805 253.815882 
L 191.537805 253.29926 
L 191.723783 253.29926 
L 191.723783 252.782638 
L 191.940369 252.782638 
L 191.940369 251.749394 
L 192.688131 251.749394 
L 192.688131 251.232772 
L 197.728858 251.232772 
L 197.728858 250.71615 
L 202.068581 250.71615 
L 202.068581 250.199528 
L 202.242861 250.199528 
L 202.242861 249.682906 
L 203.353204 249.682906 
L 203.353204 249.166284 
L 204.061673 249.166284 
L 204.069916 248.13304 
L 206.214491 248.13304 
L 206.214491 247.616418 
L 207.014877 247.616418 
L 207.014877 245.549929 
L 210.084689 245.549929 
L 210.084689 244.516685 
L 210.509241 244.516685 
L 210.509241 239.350465 
L 213.092027 239.350465 
L 213.092027 238.317221 
L 214.811988 238.317221 
L 214.811988 237.800599 
L 215.090999 237.800599 
L 215.144287 235.734111 
L 215.290015 235.734111 
L 215.290015 235.217489 
L 216.004512 235.217489 
L 216.066731 233.151001 
L 216.400471 233.151001 
L 216.400471 232.634379 
L 217.643642 232.634379 
L 217.643642 231.601135 
L 218.130423 231.601135 
L 218.130423 230.567891 
L 218.34763 230.567891 
L 218.34763 229.534647 
L 218.585102 229.534647 
L 218.652636 228.501403 
L 220.705301 228.501403 
L 220.705301 227.468159 
L 221.772301 227.468159 
L 221.772301 226.434915 
L 223.161865 226.434915 
L 223.161865 224.368427 
L 223.406474 224.368427 
L 223.406474 221.785317 
L 223.545553 221.785317 
L 223.545553 220.752073 
L 223.75764 220.752073 
L 223.75764 220.235451 
L 224.247819 220.235451 
L 224.247819 218.685585 
L 224.550927 218.685585 
L 224.550927 218.168963 
L 226.618199 218.168963 
L 226.674685 217.135719 
L 228.191631 217.135719 
L 228.23484 215.069231 
L 228.958966 215.069231 
L 228.958966 214.552609 
L 229.256301 214.552609 
L 229.256301 214.035987 
L 229.649472 214.035987 
L 229.649472 213.519365 
L 230.494541 213.519365 
L 230.494541 210.936254 
L 230.885099 210.936254 
L 230.946089 209.90301 
L 231.040147 209.90301 
L 231.118756 208.869766 
L 232.379858 208.869766 
L 232.419529 207.3199 
L 234.593931 207.3199 
L 234.593931 206.803278 
L 235.81229 206.803278 
L 235.81229 206.286656 
L 235.990605 206.286656 
L 235.995092 204.220168 
L 236.140821 204.220168 
L 236.223125 203.186924 
L 236.266685 203.186924 
L 236.266685 202.670302 
L 236.619061 202.670302 
L 236.619061 201.637058 
L 237.167115 201.637058 
L 237.252557 199.053948 
L 237.331829 199.053948 
L 237.409476 197.504082 
L 238.148055 197.504082 
L 238.148055 196.470838 
L 238.672598 196.470838 
L 238.672598 195.437594 
L 238.861136 195.437594 
L 238.919831 194.40435 
L 239.108692 194.40435 
L 239.108692 192.337862 
L 239.460356 192.337862 
L 239.460356 191.304618 
L 240.068178 191.304618 
L 240.068178 190.271374 
L 240.74855 190.271374 
L 240.74855 188.721508 
L 241.443948 188.721508 
L 241.443948 187.688264 
L 241.741643 187.688264 
L 241.741643 186.65502 
L 242.570286 186.65502 
L 242.570286 186.138398 
L 242.953571 186.138398 
L 243.063811 184.588532 
L 243.084478 184.588532 
L 243.084478 184.07191 
L 243.78402 184.07191 
L 243.78402 182.522044 
L 244.165118 182.522044 
L 244.180622 181.4888 
L 244.368868 181.4888 
L 244.368868 180.972178 
L 245.46135 180.972178 
L 245.46135 180.455556 
L 245.842872 180.455556 
L 245.842872 179.938934 
L 246.681833 179.938934 
L 246.728264 177.872445 
L 247.374151 177.872445 
L 247.424463 176.322579 
L 248.098056 176.322579 
L 248.098056 175.805957 
L 249.805229 175.805957 
L 249.805229 175.289335 
L 249.964322 175.289335 
L 249.964322 174.772713 
L 250.570727 174.772713 
L 250.570727 174.256091 
L 251.07995 174.256091 
L 251.07995 173.222847 
L 252.050503 173.222847 
L 252.050503 171.672981 
L 252.521696 171.672981 
L 252.521696 169.606493 
L 254.458417 169.606493 
L 254.458417 169.089871 
L 254.916664 169.089871 
L 254.916664 168.573249 
L 255.849736 168.573249 
L 255.849736 168.056627 
L 256.232967 168.056627 
L 256.232967 167.023383 
L 257.847092 167.023383 
L 257.847092 165.990139 
L 258.06327 165.990139 
L 258.137884 163.923651 
L 258.989191 163.923651 
L 258.989191 163.407029 
L 259.185181 163.407029 
L 259.185181 162.890407 
L 259.462947 162.890407 
L 259.462947 161.857163 
L 260.497046 161.857163 
L 260.583194 160.823919 
L 262.071609 160.823919 
L 262.071609 158.757431 
L 262.742283 158.757431 
L 262.765826 154.624455 
L 263.151191 154.624455 
L 263.151191 153.074589 
L 264.56259 153.074589 
L 264.633534 150.491479 
L 265.276962 150.491479 
L 265.276962 148.424991 
L 265.676489 148.424991 
L 265.676489 147.908369 
L 266.230436 147.908369 
L 266.320818 146.358503 
L 266.841133 146.358503 
L 266.841133 145.841881 
L 269.55604 145.841881 
L 269.55604 145.325259 
L 269.754439 145.325259 
L 269.754439 144.808637 
L 270.438867 144.808637 
L 270.438867 144.292014 
L 270.804778 144.292014 
L 270.804778 143.775392 
L 272.167651 143.775392 
L 272.167651 141.192282 
L 273.363488 141.192282 
L 273.363488 139.642416 
L 274.171 139.642416 
L 274.171 139.125794 
L 274.490774 139.125794 
L 274.490774 138.609172 
L 275.056625 138.609172 
L 275.056625 138.09255 
L 278.769351 138.09255 
L 278.769351 137.575928 
L 279.182284 137.575928 
L 279.182284 137.059306 
L 279.39633 137.059306 
L 279.39633 136.542684 
L 279.921021 136.542684 
L 279.921021 136.026062 
L 280.809222 136.026062 
L 280.809222 135.50944 
L 281.08832 135.50944 
L 281.08832 134.992818 
L 281.317871 134.992818 
L 281.317871 134.476196 
L 282.618678 134.476196 
L 282.618678 133.959574 
L 282.954417 133.959574 
L 282.954417 133.442952 
L 283.170842 133.442952 
L 283.170842 132.409708 
L 283.294751 132.409708 
L 283.294751 131.893086 
L 283.541467 131.893086 
L 283.541467 131.376464 
L 284.964664 131.376464 
L 284.964664 130.859842 
L 286.055696 130.859842 
L 286.055696 130.34322 
L 287.859534 130.34322 
L 287.859534 129.826598 
L 290.099783 129.826598 
L 290.099783 129.309976 
L 290.915091 129.309976 
L 290.915091 128.793354 
L 291.594538 128.793354 
L 291.594538 128.276732 
L 292.065034 128.276732 
L 292.065034 127.76011 
L 293.391073 127.76011 
L 293.391073 127.243488 
L 293.767514 127.243488 
L 293.767514 126.726866 
L 294.206691 126.726866 
L 294.206691 126.210244 
L 300.98012 126.210244 
L 300.98012 125.693622 
L 304.372795 125.693622 
L 304.372795 125.177 
L 305.380843 125.177 
L 305.380843 124.660378 
L 307.242349 124.660378 
L 307.296732 123.627134 
L 307.390016 123.627134 
L 307.390016 123.110512 
L 308.426865 123.110512 
L 308.426865 122.59389 
L 309.916852 122.59389 
L 309.916852 122.077268 
L 311.402032 122.077268 
L 311.402032 121.560646 
L 314.644566 121.560646 
L 314.644566 121.044024 
L 317.849989 121.044024 
L 317.849989 120.527402 
L 319.429703 120.527402 
L 319.429703 120.01078 
L 320.438028 120.01078 
L 320.438028 119.494158 
L 325.646502 119.494158 
L 325.646502 118.977536 
L 330.021944 118.977536 
L 330.021944 118.460914 
L 335.399249 118.460914 
L 335.399249 117.944292 
L 336.158118 117.944292 
L 336.158118 117.42767 
L 358.8 117.42767 
L 358.8 117.42767 
" style="fill:none;stroke:#6495ed;stroke-linecap:square;stroke-width:1.5;"/>
   </g>
   <g id="line2d_40">
    <defs>
     <path d="M -0 6 
L 6 -6 
L -6 -6 
z
" id="m609eabc9d5" style="stroke:#6495ed;stroke-linejoin:miter;stroke-width:1.5;"/>
    </defs>
    <g>
     <use style="fill:none;stroke:#6495ed;stroke-linejoin:miter;stroke-width:1.5;" x="182.364557" xlink:href="#m609eabc9d5" y="262.081834"/>
     <use style="fill:none;stroke:#6495ed;stroke-linejoin:miter;stroke-width:1.5;" x="244.368868" xlink:href="#m609eabc9d5" y="181.4888"/>
     <use style="fill:none;stroke:#6495ed;stroke-linejoin:miter;stroke-width:1.5;" x="300.98012" xlink:href="#m609eabc9d5" y="126.210244"/>
     <use style="fill:none;stroke:#6495ed;stroke-linejoin:miter;stroke-width:1.5;" x="336.158118" xlink:href="#m609eabc9d5" y="117.42767"/>
     <use style="fill:none;stroke:#6495ed;stroke-linejoin:miter;stroke-width:1.5;" x="358.8" xlink:href="#m609eabc9d5" y="117.42767"/>
    </g>
   </g>
   <g id="line2d_41"/>
   <g id="line2d_42">
    <path clip-path="url(#p0226f36167)" d="M 271.539662 143.775392 
" style="fill:none;stroke:#6495ed;stroke-linecap:square;stroke-width:1.5;"/>
    <defs>
     <path d="M -12 12 
L 12 -12 
M -12 -12 
L 12 12 
" id="m513b78c16b" style="stroke:#6495ed;stroke-width:3;"/>
    </defs>
    <g clip-path="url(#p0226f36167)">
     <use style="fill:#6495ed;stroke:#6495ed;stroke-width:3;" x="271.539662" xlink:href="#m513b78c16b" y="143.775392"/>
    </g>
   </g>
   <g id="line2d_43">
    <defs>
     <path d="M 0 1.5 
C 0.397805 1.5 0.77937 1.341951 1.06066 1.06066 
C 1.341951 0.77937 1.5 0.397805 1.5 0 
C 1.5 -0.397805 1.341951 -0.77937 1.06066 -1.06066 
C 0.77937 -1.341951 0.397805 -1.5 0 -1.5 
C -0.397805 -1.5 -0.77937 -1.341951 -1.06066 -1.06066 
C -1.341951 -0.77937 -1.5 -0.397805 -1.5 0 
C -1.5 0.397805 -1.341951 0.77937 -1.06066 1.06066 
C -0.77937 1.341951 -0.397805 1.5 0 1.5 
z
" id="m483ac347c0" style="stroke:#ff0000;"/>
    </defs>
    <g>
     <use style="fill:#ff0000;stroke:#ff0000;" x="194.0526" xlink:href="#m483ac347c0" y="34.768147"/>
     <use style="fill:#ff0000;stroke:#ff0000;" x="194.0526" xlink:href="#m483ac347c0" y="34.768147"/>
    </g>
   </g>
   <g id="line2d_44">
    <path d="M 42.042377 298.245375 
L 42.042377 296.695509 
L 135.607728 296.695509 
L 135.607728 294.629021 
L 135.796811 294.629021 
L 135.890607 292.045911 
L 135.983913 292.045911 
L 136.076735 289.979423 
L 136.260944 289.979423 
L 136.352341 282.230093 
L 136.443273 282.230093 
L 136.443273 279.646982 
L 136.713325 279.646982 
L 136.713325 279.13036 
L 142.661521 279.13036 
L 142.72545 277.580494 
L 143.352466 277.580494 
L 143.413974 276.030628 
L 143.475271 276.030628 
L 143.475271 275.514006 
L 147.462426 275.514006 
L 147.511313 273.96414 
L 147.753761 273.96414 
L 147.753761 272.930896 
L 147.992963 272.930896 
L 148.087754 271.897652 
L 148.415618 271.897652 
L 148.415618 271.38103 
L 148.8738 271.38103 
L 148.8738 270.864408 
L 151.595842 270.864408 
L 151.595842 270.347786 
L 152.093807 270.347786 
L 152.093807 269.831164 
L 152.244276 269.831164 
L 152.244276 267.764676 
L 154.756211 267.764676 
L 154.853585 266.731432 
L 155.645039 266.731432 
L 155.645039 266.21481 
L 157.384613 266.21481 
L 157.384613 265.698188 
L 157.828564 265.698188 
L 157.828564 265.181566 
L 160.114898 265.181566 
L 160.114898 263.115078 
L 160.590774 263.115078 
L 160.590774 262.081834 
L 161.077169 262.081834 
L 161.077169 261.565212 
L 161.727806 261.565212 
L 161.793781 257.948858 
L 162.503866 257.948858 
L 162.503866 257.432236 
L 163.883702 257.432236 
L 163.883702 256.915614 
L 164.945111 256.915614 
L 164.945111 255.88237 
L 165.27331 255.88237 
L 165.309407 254.332504 
L 165.595589 254.332504 
L 165.595589 253.815882 
L 166.24034 253.815882 
L 166.24034 253.29926 
L 166.376739 253.29926 
L 166.376739 252.782638 
L 166.679881 252.782638 
L 166.679881 252.266016 
L 166.912153 252.266016 
L 166.912153 251.749394 
L 167.271159 251.749394 
L 167.271159 250.199528 
L 169.699472 250.199528 
L 169.699472 249.682906 
L 169.937624 249.682906 
L 169.937624 239.350465 
L 170.485768 239.350465 
L 170.485768 238.833843 
L 170.886116 238.833843 
L 170.991378 209.386388 
L 171.290596 209.386388 
L 171.290596 194.920972 
L 171.698737 194.920972 
L 171.761675 182.522044 
L 171.861917 182.522044 
L 171.861917 166.506761 
L 172.608314 166.506761 
L 172.608314 165.990139 
L 173.151245 165.990139 
L 173.151245 151.524723 
L 174.01362 151.524723 
L 174.01362 133.959574 
L 175.036163 133.959574 
L 175.088394 120.527402 
L 175.663179 120.527402 
L 175.663179 119.494158 
L 175.993431 119.494158 
L 175.993431 117.944292 
L 176.902011 117.944292 
L 177.005377 89.013459 
L 177.330345 89.013459 
L 177.330345 86.430349 
L 179.006572 86.430349 
L 179.006572 85.397105 
L 180.477335 85.397105 
L 180.477335 84.363861 
L 180.926823 84.363861 
L 180.926823 83.330617 
L 181.584166 83.330617 
L 181.663757 71.44831 
L 182.978642 71.44831 
L 182.978642 62.665736 
L 187.588001 62.665736 
L 187.588001 62.149114 
L 189.41402 62.149114 
L 189.41402 53.883162 
L 194.0526 53.883162 
L 194.0526 34.768147 
L 358.8 34.768147 
L 358.8 34.768147 
" style="fill:none;stroke:#ff0000;stroke-linecap:square;stroke-width:1.5;"/>
   </g>
   <g id="line2d_45">
    <defs>
     <path d="M 0 -6 
L -5.196152 -3 
L -5.196152 3 
L -0 6 
L 5.196152 3 
L 5.196152 -3 
z
" id="m8d23fd70f3" style="stroke:#ff0000;stroke-linejoin:miter;stroke-width:1.5;"/>
    </defs>
    <g>
     <use style="fill:none;stroke:#ff0000;stroke-linejoin:miter;stroke-width:1.5;" x="42.042377" xlink:href="#m8d23fd70f3" y="296.695509"/>
     <use style="fill:none;stroke:#ff0000;stroke-linejoin:miter;stroke-width:1.5;" x="170.991378" xlink:href="#m8d23fd70f3" y="209.386388"/>
     <use style="fill:none;stroke:#ff0000;stroke-linejoin:miter;stroke-width:1.5;" x="182.978642" xlink:href="#m8d23fd70f3" y="71.44831"/>
     <use style="fill:none;stroke:#ff0000;stroke-linejoin:miter;stroke-width:1.5;" x="194.0526" xlink:href="#m8d23fd70f3" y="53.883162"/>
     <use style="fill:none;stroke:#ff0000;stroke-linejoin:miter;stroke-width:1.5;" x="194.0526" xlink:href="#m8d23fd70f3" y="34.768147"/>
     <use style="fill:none;stroke:#ff0000;stroke-linejoin:miter;stroke-width:1.5;" x="358.8" xlink:href="#m8d23fd70f3" y="34.768147"/>
    </g>
   </g>
   <g id="line2d_46"/>
   <g id="line2d_47">
    <path d="M 358.8 158.757431 
L 390.48 292.97583 
" style="fill:none;stroke:#ff00ff;stroke-linecap:square;stroke-width:1.5;"/>
    <g>
     <use style="fill:none;stroke:#ff00ff;stroke-linejoin:miter;stroke-width:1.5;" x="358.8" xlink:href="#m9bd4e9959e" y="158.757431"/>
     <use style="fill:none;stroke:#ff00ff;stroke-linejoin:miter;stroke-width:1.5;" x="390.48" xlink:href="#m9bd4e9959e" y="292.97583"/>
    </g>
   </g>
   <g id="line2d_48">
    <path d="M 358.8 117.42767 
L 390.48 229.741296 
" style="fill:none;stroke:#6495ed;stroke-linecap:square;stroke-width:1.5;"/>
    <g>
     <use style="fill:none;stroke:#6495ed;stroke-linejoin:miter;stroke-width:1.5;" x="358.8" xlink:href="#m609eabc9d5" y="117.42767"/>
     <use style="fill:none;stroke:#6495ed;stroke-linejoin:miter;stroke-width:1.5;" x="390.48" xlink:href="#m609eabc9d5" y="229.741296"/>
    </g>
   </g>
   <g id="line2d_49">
    <path d="M 358.8 101.929009 
L 390.48 166.506761 
" style="fill:none;stroke:#ffa500;stroke-linecap:square;stroke-width:1.5;"/>
    <g>
     <use style="fill:none;stroke:#ffa500;stroke-linejoin:bevel;stroke-width:1.5;" x="358.8" xlink:href="#m9ac0436648" y="101.929009"/>
     <use style="fill:none;stroke:#ffa500;stroke-linejoin:bevel;stroke-width:1.5;" x="390.48" xlink:href="#m9ac0436648" y="166.506761"/>
    </g>
   </g>
   <g id="line2d_50">
    <path d="M 358.8 34.768147 
L 390.48 103.272226 
" style="fill:none;stroke:#000080;stroke-linecap:square;stroke-width:1.5;"/>
    <g>
     <use style="fill:none;stroke:#000080;stroke-width:1.5;" x="358.8" xlink:href="#m9a4499a370" y="34.768147"/>
     <use style="fill:none;stroke:#000080;stroke-width:1.5;" x="390.48" xlink:href="#m9a4499a370" y="103.272226"/>
    </g>
   </g>
   <g id="line2d_51">
    <path d="M 358.8 34.768147 
L 390.48 40.037692 
" style="fill:none;stroke:#ff0000;stroke-linecap:square;stroke-width:1.5;"/>
    <g>
     <use style="fill:none;stroke:#ff0000;stroke-linejoin:miter;stroke-width:1.5;" x="358.8" xlink:href="#m8d23fd70f3" y="34.768147"/>
     <use style="fill:none;stroke:#ff0000;stroke-linejoin:miter;stroke-width:1.5;" x="390.48" xlink:href="#m8d23fd70f3" y="40.037692"/>
    </g>
   </g>
   <g id="line2d_52">
    <path d="M 358.8 298.245375 
L 358.8 34.768147 
" style="fill:none;stroke:#000000;stroke-linecap:square;stroke-width:1.5;"/>
   </g>
   <g id="patch_3">
    <path d="M 70.8 298.245375 
L 70.8 32.133375 
" style="fill:none;stroke:#000000;stroke-linecap:square;stroke-linejoin:miter;stroke-width:0.8;"/>
   </g>
   <g id="patch_4">
    <path d="M 427.92 298.245375 
L 427.92 32.133375 
" style="fill:none;stroke:#000000;stroke-linecap:square;stroke-linejoin:miter;stroke-width:0.8;"/>
   </g>
   <g id="patch_5">
    <path d="M 70.8 298.245375 
L 427.92 298.245375 
" style="fill:none;stroke:#000000;stroke-linecap:square;stroke-linejoin:miter;stroke-width:0.8;"/>
   </g>
   <g id="patch_6">
    <path d="M 70.8 32.133375 
L 427.92 32.133375 
" style="fill:none;stroke:#000000;stroke-linecap:square;stroke-linejoin:miter;stroke-width:0.8;"/>
   </g>
   <g id="text_14">
    <!-- f2 -->
    <g transform="translate(396.24 297.114893)scale(0.15 -0.15)">
     <use xlink:href="#DejaVuSans-66"/>
     <use x="35.205078" xlink:href="#DejaVuSans-32"/>
    </g>
   </g>
   <g id="text_15">
    <!-- f4 -->
    <g transform="translate(396.24 233.880358)scale(0.15 -0.15)">
     <use xlink:href="#DejaVuSans-66"/>
     <use x="35.205078" xlink:href="#DejaVuSans-34"/>
    </g>
   </g>
   <g id="text_16">
    <!-- f3 -->
    <defs>
     <path d="M 40.578125 39.3125 
Q 47.65625 37.796875 51.625 33 
Q 55.609375 28.21875 55.609375 21.1875 
Q 55.609375 10.40625 48.1875 4.484375 
Q 40.765625 -1.421875 27.09375 -1.421875 
Q 22.515625 -1.421875 17.65625 -0.515625 
Q 12.796875 0.390625 7.625 2.203125 
L 7.625 11.71875 
Q 11.71875 9.328125 16.59375 8.109375 
Q 21.484375 6.890625 26.8125 6.890625 
Q 36.078125 6.890625 40.9375 10.546875 
Q 45.796875 14.203125 45.796875 21.1875 
Q 45.796875 27.640625 41.28125 31.265625 
Q 36.765625 34.90625 28.71875 34.90625 
L 20.21875 34.90625 
L 20.21875 43.015625 
L 29.109375 43.015625 
Q 36.375 43.015625 40.234375 45.921875 
Q 44.09375 48.828125 44.09375 54.296875 
Q 44.09375 59.90625 40.109375 62.90625 
Q 36.140625 65.921875 28.71875 65.921875 
Q 24.65625 65.921875 20.015625 65.03125 
Q 15.375 64.15625 9.8125 62.3125 
L 9.8125 71.09375 
Q 15.4375 72.65625 20.34375 73.4375 
Q 25.25 74.21875 29.59375 74.21875 
Q 40.828125 74.21875 47.359375 69.109375 
Q 53.90625 64.015625 53.90625 55.328125 
Q 53.90625 49.265625 50.4375 45.09375 
Q 46.96875 40.921875 40.578125 39.3125 
z
" id="DejaVuSans-33"/>
    </defs>
    <g transform="translate(396.24 170.645824)scale(0.15 -0.15)">
     <use xlink:href="#DejaVuSans-66"/>
     <use x="35.205078" xlink:href="#DejaVuSans-33"/>
    </g>
   </g>
   <g id="text_17">
    <!-- f1 -->
    <g transform="translate(396.24 107.411289)scale(0.15 -0.15)">
     <use xlink:href="#DejaVuSans-66"/>
     <use x="35.205078" xlink:href="#DejaVuSans-31"/>
    </g>
   </g>
   <g id="text_18">
    <!-- f5 -->
    <defs>
     <path d="M 10.796875 72.90625 
L 49.515625 72.90625 
L 49.515625 64.59375 
L 19.828125 64.59375 
L 19.828125 46.734375 
Q 21.96875 47.46875 24.109375 47.828125 
Q 26.265625 48.1875 28.421875 48.1875 
Q 40.625 48.1875 47.75 41.5 
Q 54.890625 34.8125 54.890625 23.390625 
Q 54.890625 11.625 47.5625 5.09375 
Q 40.234375 -1.421875 26.90625 -1.421875 
Q 22.3125 -1.421875 17.546875 -0.640625 
Q 12.796875 0.140625 7.71875 1.703125 
L 7.71875 11.625 
Q 12.109375 9.234375 16.796875 8.0625 
Q 21.484375 6.890625 26.703125 6.890625 
Q 35.15625 6.890625 40.078125 11.328125 
Q 45.015625 15.765625 45.015625 23.390625 
Q 45.015625 31 40.078125 35.4375 
Q 35.15625 39.890625 26.703125 39.890625 
Q 22.75 39.890625 18.8125 39.015625 
Q 14.890625 38.140625 10.796875 36.28125 
z
" id="DejaVuSans-35"/>
    </defs>
    <g transform="translate(396.24 44.176754)scale(0.15 -0.15)">
     <use xlink:href="#DejaVuSans-66"/>
     <use x="35.205078" xlink:href="#DejaVuSans-35"/>
    </g>
   </g>
   <g id="text_19">
    <!-- bbob -->
    <defs>
     <path d="M 48.6875 27.296875 
Q 48.6875 37.203125 44.609375 42.84375 
Q 40.53125 48.484375 33.40625 48.484375 
Q 26.265625 48.484375 22.1875 42.84375 
Q 18.109375 37.203125 18.109375 27.296875 
Q 18.109375 17.390625 22.1875 11.75 
Q 26.265625 6.109375 33.40625 6.109375 
Q 40.53125 6.109375 44.609375 11.75 
Q 48.6875 17.390625 48.6875 27.296875 
z
M 18.109375 46.390625 
Q 20.953125 51.265625 25.265625 53.625 
Q 29.59375 56 35.59375 56 
Q 45.5625 56 51.78125 48.09375 
Q 58.015625 40.1875 58.015625 27.296875 
Q 58.015625 14.40625 51.78125 6.484375 
Q 45.5625 -1.421875 35.59375 -1.421875 
Q 29.59375 -1.421875 25.265625 0.953125 
Q 20.953125 3.328125 18.109375 8.203125 
L 18.109375 0 
L 9.078125 0 
L 9.078125 75.984375 
L 18.109375 75.984375 
z
" id="DejaVuSans-62"/>
    </defs>
    <g transform="translate(74.3712 50.114612)scale(0.1666 -0.1666)">
     <use xlink:href="#DejaVuSans-62"/>
     <use x="63.476562" xlink:href="#DejaVuSans-62"/>
     <use x="126.953125" xlink:href="#DejaVuSans-6f"/>
     <use x="188.134766" xlink:href="#DejaVuSans-62"/>
    </g>
    <!-- Separable functions, 5-D -->
    <defs>
     <path d="M 53.515625 70.515625 
L 53.515625 60.890625 
Q 47.90625 63.578125 42.921875 64.890625 
Q 37.9375 66.21875 33.296875 66.21875 
Q 25.25 66.21875 20.875 63.09375 
Q 16.5 59.96875 16.5 54.203125 
Q 16.5 49.359375 19.40625 46.890625 
Q 22.3125 44.4375 30.421875 42.921875 
L 36.375 41.703125 
Q 47.40625 39.59375 52.65625 34.296875 
Q 57.90625 29 57.90625 20.125 
Q 57.90625 9.515625 50.796875 4.046875 
Q 43.703125 -1.421875 29.984375 -1.421875 
Q 24.8125 -1.421875 18.96875 -0.25 
Q 13.140625 0.921875 6.890625 3.21875 
L 6.890625 13.375 
Q 12.890625 10.015625 18.65625 8.296875 
Q 24.421875 6.59375 29.984375 6.59375 
Q 38.421875 6.59375 43.015625 9.90625 
Q 47.609375 13.234375 47.609375 19.390625 
Q 47.609375 24.75 44.3125 27.78125 
Q 41.015625 30.8125 33.5 32.328125 
L 27.484375 33.5 
Q 16.453125 35.6875 11.515625 40.375 
Q 6.59375 45.0625 6.59375 53.421875 
Q 6.59375 63.09375 13.40625 68.65625 
Q 20.21875 74.21875 32.171875 74.21875 
Q 37.3125 74.21875 42.625 73.28125 
Q 47.953125 72.359375 53.515625 70.515625 
z
" id="DejaVuSans-53"/>
     <path d="M 11.71875 12.40625 
L 22.015625 12.40625 
L 22.015625 4 
L 14.015625 -11.625 
L 7.71875 -11.625 
L 11.71875 4 
z
" id="DejaVuSans-2c"/>
     <path d="M 19.671875 64.796875 
L 19.671875 8.109375 
L 31.59375 8.109375 
Q 46.6875 8.109375 53.6875 14.9375 
Q 60.6875 21.78125 60.6875 36.53125 
Q 60.6875 51.171875 53.6875 57.984375 
Q 46.6875 64.796875 31.59375 64.796875 
z
M 9.8125 72.90625 
L 30.078125 72.90625 
Q 51.265625 72.90625 61.171875 64.09375 
Q 71.09375 55.28125 71.09375 36.53125 
Q 71.09375 17.671875 61.125 8.828125 
Q 51.171875 0 30.078125 0 
L 9.8125 0 
z
" id="DejaVuSans-44"/>
    </defs>
    <g transform="translate(74.3712 68.770168)scale(0.1666 -0.1666)">
     <use xlink:href="#DejaVuSans-53"/>
     <use x="63.476562" xlink:href="#DejaVuSans-65"/>
     <use x="125" xlink:href="#DejaVuSans-70"/>
     <use x="188.476562" xlink:href="#DejaVuSans-61"/>
     <use x="249.755859" xlink:href="#DejaVuSans-72"/>
     <use x="290.869141" xlink:href="#DejaVuSans-61"/>
     <use x="352.148438" xlink:href="#DejaVuSans-62"/>
     <use x="415.625" xlink:href="#DejaVuSans-6c"/>
     <use x="443.408203" xlink:href="#DejaVuSans-65"/>
     <use x="504.931641" xlink:href="#DejaVuSans-20"/>
     <use x="536.71875" xlink:href="#DejaVuSans-66"/>
     <use x="571.923828" xlink:href="#DejaVuSans-75"/>
     <use x="635.302734" xlink:href="#DejaVuSans-6e"/>
     <use x="698.681641" xlink:href="#DejaVuSans-63"/>
     <use x="753.662109" xlink:href="#DejaVuSans-74"/>
     <use x="792.871094" xlink:href="#DejaVuSans-69"/>
     <use x="820.654297" xlink:href="#DejaVuSans-6f"/>
     <use x="881.835938" xlink:href="#DejaVuSans-6e"/>
     <use x="945.214844" xlink:href="#DejaVuSans-73"/>
     <use x="997.314453" xlink:href="#DejaVuSans-2c"/>
     <use x="1029.101562" xlink:href="#DejaVuSans-20"/>
     <use x="1060.888672" xlink:href="#DejaVuSans-35"/>
     <use x="1124.511719" xlink:href="#DejaVuSans-2d"/>
     <use x="1160.595703" xlink:href="#DejaVuSans-44"/>
    </g>
    <!-- 51 targets in 100..1e-08 -->
    <g transform="translate(74.3712 87.425723)scale(0.1666 -0.1666)">
     <use xlink:href="#DejaVuSans-35"/>
     <use x="63.623047" xlink:href="#DejaVuSans-31"/>
     <use x="127.246094" xlink:href="#DejaVuSans-20"/>
     <use x="159.033203" xlink:href="#DejaVuSans-74"/>
     <use x="198.242188" xlink:href="#DejaVuSans-61"/>
     <use x="259.521484" xlink:href="#DejaVuSans-72"/>
     <use x="300.619141" xlink:href="#DejaVuSans-67"/>
     <use x="364.095703" xlink:href="#DejaVuSans-65"/>
     <use x="425.619141" xlink:href="#DejaVuSans-74"/>
     <use x="464.828125" xlink:href="#DejaVuSans-73"/>
     <use x="516.927734" xlink:href="#DejaVuSans-20"/>
     <use x="548.714844" xlink:href="#DejaVuSans-69"/>
     <use x="576.498047" xlink:href="#DejaVuSans-6e"/>
     <use x="639.876953" xlink:href="#DejaVuSans-20"/>
     <use x="671.664062" xlink:href="#DejaVuSans-31"/>
     <use x="735.287109" xlink:href="#DejaVuSans-30"/>
     <use x="798.910156" xlink:href="#DejaVuSans-30"/>
     <use x="862.533203" xlink:href="#DejaVuSans-2e"/>
     <use x="894.320312" xlink:href="#DejaVuSans-2e"/>
     <use x="926.107422" xlink:href="#DejaVuSans-31"/>
     <use x="989.730469" xlink:href="#DejaVuSans-65"/>
     <use x="1051.253906" xlink:href="#DejaVuSans-2d"/>
     <use x="1087.337891" xlink:href="#DejaVuSans-30"/>
     <use x="1150.960938" xlink:href="#DejaVuSans-38"/>
    </g>
    <!-- 15 instances -->
    <g transform="translate(74.3712 106.081279)scale(0.1666 -0.1666)">
     <use xlink:href="#DejaVuSans-31"/>
     <use x="63.623047" xlink:href="#DejaVuSans-35"/>
     <use x="127.246094" xlink:href="#DejaVuSans-20"/>
     <use x="159.033203" xlink:href="#DejaVuSans-69"/>
     <use x="186.816406" xlink:href="#DejaVuSans-6e"/>
     <use x="250.195312" xlink:href="#DejaVuSans-73"/>
     <use x="302.294922" xlink:href="#DejaVuSans-74"/>
     <use x="341.503906" xlink:href="#DejaVuSans-61"/>
     <use x="402.783203" xlink:href="#DejaVuSans-6e"/>
     <use x="466.162109" xlink:href="#DejaVuSans-63"/>
     <use x="521.142578" xlink:href="#DejaVuSans-65"/>
     <use x="582.666016" xlink:href="#DejaVuSans-73"/>
    </g>
   </g>
   <g id="text_20">
    <!-- v0.0.0 -->
    <g style="fill:#808080;" transform="translate(233.67875 293.504568)scale(0.1 -0.1)">
     <use xlink:href="#DejaVuSans-76"/>
     <use x="59.179688" xlink:href="#DejaVuSans-30"/>
     <use x="122.802734" xlink:href="#DejaVuSans-2e"/>
     <use x="154.589844" xlink:href="#DejaVuSans-30"/>
     <use x="218.212891" xlink:href="#DejaVuSans-2e"/>
     <use x="250" xlink:href="#DejaVuSans-30"/>
    </g>
   </g>
  </g>
 </g>
 <defs>
  <clipPath id="p0226f36167">
   <rect height="266.112" width="357.12" x="70.8" y="32.133375"/>
  </clipPath>
 </defs>
</svg>
