<?xml version="1.0" encoding="utf-8" standalone="no"?>
<!DOCTYPE svg PUBLIC "-//W3C//DTD SVG 1.1//EN"
  "http://www.w3.org/Graphics/SVG/1.1/DTD/svg11.dtd">
<!-- Created with matplotlib (http://matplotlib.org/) -->
<svg height="353pt" version="1.1" viewBox="0 0 438 353" width="438pt" xmlns="http://www.w3.org/2000/svg" xmlns:xlink="http://www.w3.org/1999/xlink">
 <defs>
  <style type="text/css">
*{stroke-linecap:butt;stroke-linejoin:round;}
  </style>
 </defs>
 <g id="figure_1">
  <g id="patch_1">
   <path d="M 0 353.22225 
L 438.62 353.22225 
L 438.62 0 
L 0 0 
z
" style="fill:#ffffff;"/>
  </g>
  <g id="axes_1">
   <g id="patch_2">
    <path d="M 70.8 298.245375 
L 427.92 298.245375 
L 427.92 32.133375 
L 70.8 32.133375 
z
" style="fill:#ffffff;"/>
   </g>
   <g id="matplotlib.axis_1">
    <g id="xtick_1">
     <g id="line2d_1">
      <path clip-path="url(#pede648b712)" d="M 70.8 298.245375 
L 70.8 32.133375 
" style="fill:none;stroke:#b0b0b0;stroke-linecap:square;stroke-width:0.8;"/>
     </g>
     <g id="line2d_2">
      <defs>
       <path d="M 0 0 
L 0 3.5 
" id="m82aeb786d8" style="stroke:#000000;stroke-width:0.8;"/>
      </defs>
      <g>
       <use style="stroke:#000000;stroke-width:0.8;" x="70.8" xlink:href="#m82aeb786d8" y="298.245375"/>
      </g>
     </g>
     <g id="text_1">
      <!-- 0 -->
      <defs>
       <path d="M 31.78125 66.40625 
Q 24.171875 66.40625 20.328125 58.90625 
Q 16.5 51.421875 16.5 36.375 
Q 16.5 21.390625 20.328125 13.890625 
Q 24.171875 6.390625 31.78125 6.390625 
Q 39.453125 6.390625 43.28125 13.890625 
Q 47.125 21.390625 47.125 36.375 
Q 47.125 51.421875 43.28125 58.90625 
Q 39.453125 66.40625 31.78125 66.40625 
z
M 31.78125 74.21875 
Q 44.046875 74.21875 50.515625 64.515625 
Q 56.984375 54.828125 56.984375 36.375 
Q 56.984375 17.96875 50.515625 8.265625 
Q 44.046875 -1.421875 31.78125 -1.421875 
Q 19.53125 -1.421875 13.0625 8.265625 
Q 6.59375 17.96875 6.59375 36.375 
Q 6.59375 54.828125 13.0625 64.515625 
Q 19.53125 74.21875 31.78125 74.21875 
z
" id="DejaVuSans-30"/>
      </defs>
      <g transform="translate(64.4375 320.44225)scale(0.2 -0.2)">
       <use xlink:href="#DejaVuSans-30"/>
      </g>
     </g>
    </g>
    <g id="xtick_2">
     <g id="line2d_3">
      <path clip-path="url(#pede648b712)" d="M 153.085714 298.245375 
L 153.085714 32.133375 
" style="fill:none;stroke:#b0b0b0;stroke-linecap:square;stroke-width:0.8;"/>
     </g>
     <g id="line2d_4">
      <g>
       <use style="stroke:#000000;stroke-width:0.8;" x="153.085714" xlink:href="#m82aeb786d8" y="298.245375"/>
      </g>
     </g>
     <g id="text_2">
      <!-- 2 -->
      <defs>
       <path d="M 19.1875 8.296875 
L 53.609375 8.296875 
L 53.609375 0 
L 7.328125 0 
L 7.328125 8.296875 
Q 12.9375 14.109375 22.625 23.890625 
Q 32.328125 33.6875 34.8125 36.53125 
Q 39.546875 41.84375 41.421875 45.53125 
Q 43.3125 49.21875 43.3125 52.78125 
Q 43.3125 58.59375 39.234375 62.25 
Q 35.15625 65.921875 28.609375 65.921875 
Q 23.96875 65.921875 18.8125 64.3125 
Q 13.671875 62.703125 7.8125 59.421875 
L 7.8125 69.390625 
Q 13.765625 71.78125 18.9375 73 
Q 24.125 74.21875 28.421875 74.21875 
Q 39.75 74.21875 46.484375 68.546875 
Q 53.21875 62.890625 53.21875 53.421875 
Q 53.21875 48.921875 51.53125 44.890625 
Q 49.859375 40.875 45.40625 35.40625 
Q 44.1875 33.984375 37.640625 27.21875 
Q 31.109375 20.453125 19.1875 8.296875 
z
" id="DejaVuSans-32"/>
      </defs>
      <g transform="translate(146.723214 320.44225)scale(0.2 -0.2)">
       <use xlink:href="#DejaVuSans-32"/>
      </g>
     </g>
    </g>
    <g id="xtick_3">
     <g id="line2d_5">
      <path clip-path="url(#pede648b712)" d="M 235.371429 298.245375 
L 235.371429 32.133375 
" style="fill:none;stroke:#b0b0b0;stroke-linecap:square;stroke-width:0.8;"/>
     </g>
     <g id="line2d_6">
      <g>
       <use style="stroke:#000000;stroke-width:0.8;" x="235.371429" xlink:href="#m82aeb786d8" y="298.245375"/>
      </g>
     </g>
     <g id="text_3">
      <!-- 4 -->
      <defs>
       <path d="M 37.796875 64.3125 
L 12.890625 25.390625 
L 37.796875 25.390625 
z
M 35.203125 72.90625 
L 47.609375 72.90625 
L 47.609375 25.390625 
L 58.015625 25.390625 
L 58.015625 17.1875 
L 47.609375 17.1875 
L 47.609375 0 
L 37.796875 0 
L 37.796875 17.1875 
L 4.890625 17.1875 
L 4.890625 26.703125 
z
" id="DejaVuSans-34"/>
      </defs>
      <g transform="translate(229.008929 320.44225)scale(0.2 -0.2)">
       <use xlink:href="#DejaVuSans-34"/>
      </g>
     </g>
    </g>
    <g id="xtick_4">
     <g id="line2d_7">
      <path clip-path="url(#pede648b712)" d="M 317.657143 298.245375 
L 317.657143 32.133375 
" style="fill:none;stroke:#b0b0b0;stroke-linecap:square;stroke-width:0.8;"/>
     </g>
     <g id="line2d_8">
      <g>
       <use style="stroke:#000000;stroke-width:0.8;" x="317.657143" xlink:href="#m82aeb786d8" y="298.245375"/>
      </g>
     </g>
     <g id="text_4">
      <!-- 6 -->
      <defs>
       <path d="M 33.015625 40.375 
Q 26.375 40.375 22.484375 35.828125 
Q 18.609375 31.296875 18.609375 23.390625 
Q 18.609375 15.53125 22.484375 10.953125 
Q 26.375 6.390625 33.015625 6.390625 
Q 39.65625 6.390625 43.53125 10.953125 
Q 47.40625 15.53125 47.40625 23.390625 
Q 47.40625 31.296875 43.53125 35.828125 
Q 39.65625 40.375 33.015625 40.375 
z
M 52.59375 71.296875 
L 52.59375 62.3125 
Q 48.875 64.0625 45.09375 64.984375 
Q 41.3125 65.921875 37.59375 65.921875 
Q 27.828125 65.921875 22.671875 59.328125 
Q 17.53125 52.734375 16.796875 39.40625 
Q 19.671875 43.65625 24.015625 45.921875 
Q 28.375 48.1875 33.59375 48.1875 
Q 44.578125 48.1875 50.953125 41.515625 
Q 57.328125 34.859375 57.328125 23.390625 
Q 57.328125 12.15625 50.6875 5.359375 
Q 44.046875 -1.421875 33.015625 -1.421875 
Q 20.359375 -1.421875 13.671875 8.265625 
Q 6.984375 17.96875 6.984375 36.375 
Q 6.984375 53.65625 15.1875 63.9375 
Q 23.390625 74.21875 37.203125 74.21875 
Q 40.921875 74.21875 44.703125 73.484375 
Q 48.484375 72.75 52.59375 71.296875 
z
" id="DejaVuSans-36"/>
      </defs>
      <g transform="translate(311.294643 320.44225)scale(0.2 -0.2)">
       <use xlink:href="#DejaVuSans-36"/>
      </g>
     </g>
    </g>
    <g id="xtick_5">
     <g id="line2d_9">
      <path clip-path="url(#pede648b712)" d="M 399.942857 298.245375 
L 399.942857 32.133375 
" style="fill:none;stroke:#b0b0b0;stroke-linecap:square;stroke-width:0.8;"/>
     </g>
     <g id="line2d_10">
      <g>
       <use style="stroke:#000000;stroke-width:0.8;" x="399.942857" xlink:href="#m82aeb786d8" y="298.245375"/>
      </g>
     </g>
     <g id="text_5">
      <!-- 8 -->
      <defs>
       <path d="M 31.78125 34.625 
Q 24.75 34.625 20.71875 30.859375 
Q 16.703125 27.09375 16.703125 20.515625 
Q 16.703125 13.921875 20.71875 10.15625 
Q 24.75 6.390625 31.78125 6.390625 
Q 38.8125 6.390625 42.859375 10.171875 
Q 46.921875 13.96875 46.921875 20.515625 
Q 46.921875 27.09375 42.890625 30.859375 
Q 38.875 34.625 31.78125 34.625 
z
M 21.921875 38.8125 
Q 15.578125 40.375 12.03125 44.71875 
Q 8.5 49.078125 8.5 55.328125 
Q 8.5 64.0625 14.71875 69.140625 
Q 20.953125 74.21875 31.78125 74.21875 
Q 42.671875 74.21875 48.875 69.140625 
Q 55.078125 64.0625 55.078125 55.328125 
Q 55.078125 49.078125 51.53125 44.71875 
Q 48 40.375 41.703125 38.8125 
Q 48.828125 37.15625 52.796875 32.3125 
Q 56.78125 27.484375 56.78125 20.515625 
Q 56.78125 9.90625 50.3125 4.234375 
Q 43.84375 -1.421875 31.78125 -1.421875 
Q 19.734375 -1.421875 13.25 4.234375 
Q 6.78125 9.90625 6.78125 20.515625 
Q 6.78125 27.484375 10.78125 32.3125 
Q 14.796875 37.15625 21.921875 38.8125 
z
M 18.3125 54.390625 
Q 18.3125 48.734375 21.84375 45.5625 
Q 25.390625 42.390625 31.78125 42.390625 
Q 38.140625 42.390625 41.71875 45.5625 
Q 45.3125 48.734375 45.3125 54.390625 
Q 45.3125 60.0625 41.71875 63.234375 
Q 38.140625 66.40625 31.78125 66.40625 
Q 25.390625 66.40625 21.84375 63.234375 
Q 18.3125 60.0625 18.3125 54.390625 
z
" id="DejaVuSans-38"/>
      </defs>
      <g transform="translate(393.580357 320.44225)scale(0.2 -0.2)">
       <use xlink:href="#DejaVuSans-38"/>
      </g>
     </g>
    </g>
    <g id="text_6">
     <!-- log10 of (# f-evals / dimension) -->
     <defs>
      <path d="M 9.421875 75.984375 
L 18.40625 75.984375 
L 18.40625 0 
L 9.421875 0 
z
" id="DejaVuSans-6c"/>
      <path d="M 30.609375 48.390625 
Q 23.390625 48.390625 19.1875 42.75 
Q 14.984375 37.109375 14.984375 27.296875 
Q 14.984375 17.484375 19.15625 11.84375 
Q 23.34375 6.203125 30.609375 6.203125 
Q 37.796875 6.203125 41.984375 11.859375 
Q 46.1875 17.53125 46.1875 27.296875 
Q 46.1875 37.015625 41.984375 42.703125 
Q 37.796875 48.390625 30.609375 48.390625 
z
M 30.609375 56 
Q 42.328125 56 49.015625 48.375 
Q 55.71875 40.765625 55.71875 27.296875 
Q 55.71875 13.875 49.015625 6.21875 
Q 42.328125 -1.421875 30.609375 -1.421875 
Q 18.84375 -1.421875 12.171875 6.21875 
Q 5.515625 13.875 5.515625 27.296875 
Q 5.515625 40.765625 12.171875 48.375 
Q 18.84375 56 30.609375 56 
z
" id="DejaVuSans-6f"/>
      <path d="M 45.40625 27.984375 
Q 45.40625 37.75 41.375 43.109375 
Q 37.359375 48.484375 30.078125 48.484375 
Q 22.859375 48.484375 18.828125 43.109375 
Q 14.796875 37.75 14.796875 27.984375 
Q 14.796875 18.265625 18.828125 12.890625 
Q 22.859375 7.515625 30.078125 7.515625 
Q 37.359375 7.515625 41.375 12.890625 
Q 45.40625 18.265625 45.40625 27.984375 
z
M 54.390625 6.78125 
Q 54.390625 -7.171875 48.1875 -13.984375 
Q 42 -20.796875 29.203125 -20.796875 
Q 24.46875 -20.796875 20.265625 -20.09375 
Q 16.0625 -19.390625 12.109375 -17.921875 
L 12.109375 -9.1875 
Q 16.0625 -11.328125 19.921875 -12.34375 
Q 23.78125 -13.375 27.78125 -13.375 
Q 36.625 -13.375 41.015625 -8.765625 
Q 45.40625 -4.15625 45.40625 5.171875 
L 45.40625 9.625 
Q 42.625 4.78125 38.28125 2.390625 
Q 33.9375 0 27.875 0 
Q 17.828125 0 11.671875 7.65625 
Q 5.515625 15.328125 5.515625 27.984375 
Q 5.515625 40.671875 11.671875 48.328125 
Q 17.828125 56 27.875 56 
Q 33.9375 56 38.28125 53.609375 
Q 42.625 51.21875 45.40625 46.390625 
L 45.40625 54.6875 
L 54.390625 54.6875 
z
" id="DejaVuSans-67"/>
      <path d="M 12.40625 8.296875 
L 28.515625 8.296875 
L 28.515625 63.921875 
L 10.984375 60.40625 
L 10.984375 69.390625 
L 28.421875 72.90625 
L 38.28125 72.90625 
L 38.28125 8.296875 
L 54.390625 8.296875 
L 54.390625 0 
L 12.40625 0 
z
" id="DejaVuSans-31"/>
      <path id="DejaVuSans-20"/>
      <path d="M 37.109375 75.984375 
L 37.109375 68.5 
L 28.515625 68.5 
Q 23.6875 68.5 21.796875 66.546875 
Q 19.921875 64.59375 19.921875 59.515625 
L 19.921875 54.6875 
L 34.71875 54.6875 
L 34.71875 47.703125 
L 19.921875 47.703125 
L 19.921875 0 
L 10.890625 0 
L 10.890625 47.703125 
L 2.296875 47.703125 
L 2.296875 54.6875 
L 10.890625 54.6875 
L 10.890625 58.5 
Q 10.890625 67.625 15.140625 71.796875 
Q 19.390625 75.984375 28.609375 75.984375 
z
" id="DejaVuSans-66"/>
      <path d="M 31 75.875 
Q 24.46875 64.65625 21.28125 53.65625 
Q 18.109375 42.671875 18.109375 31.390625 
Q 18.109375 20.125 21.3125 9.0625 
Q 24.515625 -2 31 -13.1875 
L 23.1875 -13.1875 
Q 15.875 -1.703125 12.234375 9.375 
Q 8.59375 20.453125 8.59375 31.390625 
Q 8.59375 42.28125 12.203125 53.3125 
Q 15.828125 64.359375 23.1875 75.875 
z
" id="DejaVuSans-28"/>
      <path d="M 51.125 44 
L 36.921875 44 
L 32.8125 27.6875 
L 47.125 27.6875 
z
M 43.796875 71.78125 
L 38.71875 51.515625 
L 52.984375 51.515625 
L 58.109375 71.78125 
L 65.921875 71.78125 
L 60.890625 51.515625 
L 76.125 51.515625 
L 76.125 44 
L 58.984375 44 
L 54.984375 27.6875 
L 70.515625 27.6875 
L 70.515625 20.21875 
L 53.078125 20.21875 
L 48 0 
L 40.1875 0 
L 45.21875 20.21875 
L 30.90625 20.21875 
L 25.875 0 
L 18.015625 0 
L 23.09375 20.21875 
L 7.71875 20.21875 
L 7.71875 27.6875 
L 24.90625 27.6875 
L 29 44 
L 13.28125 44 
L 13.28125 51.515625 
L 30.90625 51.515625 
L 35.890625 71.78125 
z
" id="DejaVuSans-23"/>
      <path d="M 4.890625 31.390625 
L 31.203125 31.390625 
L 31.203125 23.390625 
L 4.890625 23.390625 
z
" id="DejaVuSans-2d"/>
      <path d="M 56.203125 29.59375 
L 56.203125 25.203125 
L 14.890625 25.203125 
Q 15.484375 15.921875 20.484375 11.0625 
Q 25.484375 6.203125 34.421875 6.203125 
Q 39.59375 6.203125 44.453125 7.46875 
Q 49.3125 8.734375 54.109375 11.28125 
L 54.109375 2.78125 
Q 49.265625 0.734375 44.1875 -0.34375 
Q 39.109375 -1.421875 33.890625 -1.421875 
Q 20.796875 -1.421875 13.15625 6.1875 
Q 5.515625 13.8125 5.515625 26.8125 
Q 5.515625 40.234375 12.765625 48.109375 
Q 20.015625 56 32.328125 56 
Q 43.359375 56 49.78125 48.890625 
Q 56.203125 41.796875 56.203125 29.59375 
z
M 47.21875 32.234375 
Q 47.125 39.59375 43.09375 43.984375 
Q 39.0625 48.390625 32.421875 48.390625 
Q 24.90625 48.390625 20.390625 44.140625 
Q 15.875 39.890625 15.1875 32.171875 
z
" id="DejaVuSans-65"/>
      <path d="M 2.984375 54.6875 
L 12.5 54.6875 
L 29.59375 8.796875 
L 46.6875 54.6875 
L 56.203125 54.6875 
L 35.6875 0 
L 23.484375 0 
z
" id="DejaVuSans-76"/>
      <path d="M 34.28125 27.484375 
Q 23.390625 27.484375 19.1875 25 
Q 14.984375 22.515625 14.984375 16.5 
Q 14.984375 11.71875 18.140625 8.90625 
Q 21.296875 6.109375 26.703125 6.109375 
Q 34.1875 6.109375 38.703125 11.40625 
Q 43.21875 16.703125 43.21875 25.484375 
L 43.21875 27.484375 
z
M 52.203125 31.203125 
L 52.203125 0 
L 43.21875 0 
L 43.21875 8.296875 
Q 40.140625 3.328125 35.546875 0.953125 
Q 30.953125 -1.421875 24.3125 -1.421875 
Q 15.921875 -1.421875 10.953125 3.296875 
Q 6 8.015625 6 15.921875 
Q 6 25.140625 12.171875 29.828125 
Q 18.359375 34.515625 30.609375 34.515625 
L 43.21875 34.515625 
L 43.21875 35.40625 
Q 43.21875 41.609375 39.140625 45 
Q 35.0625 48.390625 27.6875 48.390625 
Q 23 48.390625 18.546875 47.265625 
Q 14.109375 46.140625 10.015625 43.890625 
L 10.015625 52.203125 
Q 14.9375 54.109375 19.578125 55.046875 
Q 24.21875 56 28.609375 56 
Q 40.484375 56 46.34375 49.84375 
Q 52.203125 43.703125 52.203125 31.203125 
z
" id="DejaVuSans-61"/>
      <path d="M 44.28125 53.078125 
L 44.28125 44.578125 
Q 40.484375 46.53125 36.375 47.5 
Q 32.28125 48.484375 27.875 48.484375 
Q 21.1875 48.484375 17.84375 46.4375 
Q 14.5 44.390625 14.5 40.28125 
Q 14.5 37.15625 16.890625 35.375 
Q 19.28125 33.59375 26.515625 31.984375 
L 29.59375 31.296875 
Q 39.15625 29.25 43.1875 25.515625 
Q 47.21875 21.78125 47.21875 15.09375 
Q 47.21875 7.46875 41.1875 3.015625 
Q 35.15625 -1.421875 24.609375 -1.421875 
Q 20.21875 -1.421875 15.453125 -0.5625 
Q 10.6875 0.296875 5.421875 2 
L 5.421875 11.28125 
Q 10.40625 8.6875 15.234375 7.390625 
Q 20.0625 6.109375 24.8125 6.109375 
Q 31.15625 6.109375 34.5625 8.28125 
Q 37.984375 10.453125 37.984375 14.40625 
Q 37.984375 18.0625 35.515625 20.015625 
Q 33.0625 21.96875 24.703125 23.78125 
L 21.578125 24.515625 
Q 13.234375 26.265625 9.515625 29.90625 
Q 5.8125 33.546875 5.8125 39.890625 
Q 5.8125 47.609375 11.28125 51.796875 
Q 16.75 56 26.8125 56 
Q 31.78125 56 36.171875 55.265625 
Q 40.578125 54.546875 44.28125 53.078125 
z
" id="DejaVuSans-73"/>
      <path d="M 25.390625 72.90625 
L 33.6875 72.90625 
L 8.296875 -9.28125 
L 0 -9.28125 
z
" id="DejaVuSans-2f"/>
      <path d="M 45.40625 46.390625 
L 45.40625 75.984375 
L 54.390625 75.984375 
L 54.390625 0 
L 45.40625 0 
L 45.40625 8.203125 
Q 42.578125 3.328125 38.25 0.953125 
Q 33.9375 -1.421875 27.875 -1.421875 
Q 17.96875 -1.421875 11.734375 6.484375 
Q 5.515625 14.40625 5.515625 27.296875 
Q 5.515625 40.1875 11.734375 48.09375 
Q 17.96875 56 27.875 56 
Q 33.9375 56 38.25 53.625 
Q 42.578125 51.265625 45.40625 46.390625 
z
M 14.796875 27.296875 
Q 14.796875 17.390625 18.875 11.75 
Q 22.953125 6.109375 30.078125 6.109375 
Q 37.203125 6.109375 41.296875 11.75 
Q 45.40625 17.390625 45.40625 27.296875 
Q 45.40625 37.203125 41.296875 42.84375 
Q 37.203125 48.484375 30.078125 48.484375 
Q 22.953125 48.484375 18.875 42.84375 
Q 14.796875 37.203125 14.796875 27.296875 
z
" id="DejaVuSans-64"/>
      <path d="M 9.421875 54.6875 
L 18.40625 54.6875 
L 18.40625 0 
L 9.421875 0 
z
M 9.421875 75.984375 
L 18.40625 75.984375 
L 18.40625 64.59375 
L 9.421875 64.59375 
z
" id="DejaVuSans-69"/>
      <path d="M 52 44.1875 
Q 55.375 50.25 60.0625 53.125 
Q 64.75 56 71.09375 56 
Q 79.640625 56 84.28125 50.015625 
Q 88.921875 44.046875 88.921875 33.015625 
L 88.921875 0 
L 79.890625 0 
L 79.890625 32.71875 
Q 79.890625 40.578125 77.09375 44.375 
Q 74.3125 48.1875 68.609375 48.1875 
Q 61.625 48.1875 57.5625 43.546875 
Q 53.515625 38.921875 53.515625 30.90625 
L 53.515625 0 
L 44.484375 0 
L 44.484375 32.71875 
Q 44.484375 40.625 41.703125 44.40625 
Q 38.921875 48.1875 33.109375 48.1875 
Q 26.21875 48.1875 22.15625 43.53125 
Q 18.109375 38.875 18.109375 30.90625 
L 18.109375 0 
L 9.078125 0 
L 9.078125 54.6875 
L 18.109375 54.6875 
L 18.109375 46.1875 
Q 21.1875 51.21875 25.484375 53.609375 
Q 29.78125 56 35.6875 56 
Q 41.65625 56 45.828125 52.96875 
Q 50 49.953125 52 44.1875 
z
" id="DejaVuSans-6d"/>
      <path d="M 54.890625 33.015625 
L 54.890625 0 
L 45.90625 0 
L 45.90625 32.71875 
Q 45.90625 40.484375 42.875 44.328125 
Q 39.84375 48.1875 33.796875 48.1875 
Q 26.515625 48.1875 22.3125 43.546875 
Q 18.109375 38.921875 18.109375 30.90625 
L 18.109375 0 
L 9.078125 0 
L 9.078125 54.6875 
L 18.109375 54.6875 
L 18.109375 46.1875 
Q 21.34375 51.125 25.703125 53.5625 
Q 30.078125 56 35.796875 56 
Q 45.21875 56 50.046875 50.171875 
Q 54.890625 44.34375 54.890625 33.015625 
z
" id="DejaVuSans-6e"/>
      <path d="M 8.015625 75.875 
L 15.828125 75.875 
Q 23.140625 64.359375 26.78125 53.3125 
Q 30.421875 42.28125 30.421875 31.390625 
Q 30.421875 20.453125 26.78125 9.375 
Q 23.140625 -1.703125 15.828125 -13.1875 
L 8.015625 -13.1875 
Q 14.5 -2 17.703125 9.0625 
Q 20.90625 20.125 20.90625 31.390625 
Q 20.90625 42.671875 17.703125 53.65625 
Q 14.5 64.65625 8.015625 75.875 
z
" id="DejaVuSans-29"/>
     </defs>
     <g transform="translate(107.015156 342.278812)scale(0.18 -0.18)">
      <use xlink:href="#DejaVuSans-6c"/>
      <use x="27.783203" xlink:href="#DejaVuSans-6f"/>
      <use x="88.964844" xlink:href="#DejaVuSans-67"/>
      <use x="152.441406" xlink:href="#DejaVuSans-31"/>
      <use x="216.064453" xlink:href="#DejaVuSans-30"/>
      <use x="279.6875" xlink:href="#DejaVuSans-20"/>
      <use x="311.474609" xlink:href="#DejaVuSans-6f"/>
      <use x="372.65625" xlink:href="#DejaVuSans-66"/>
      <use x="407.861328" xlink:href="#DejaVuSans-20"/>
      <use x="439.648438" xlink:href="#DejaVuSans-28"/>
      <use x="478.662109" xlink:href="#DejaVuSans-23"/>
      <use x="562.451172" xlink:href="#DejaVuSans-20"/>
      <use x="594.238281" xlink:href="#DejaVuSans-66"/>
      <use x="629.365234" xlink:href="#DejaVuSans-2d"/>
      <use x="665.449219" xlink:href="#DejaVuSans-65"/>
      <use x="726.972656" xlink:href="#DejaVuSans-76"/>
      <use x="786.152344" xlink:href="#DejaVuSans-61"/>
      <use x="847.431641" xlink:href="#DejaVuSans-6c"/>
      <use x="875.214844" xlink:href="#DejaVuSans-73"/>
      <use x="927.314453" xlink:href="#DejaVuSans-20"/>
      <use x="959.101562" xlink:href="#DejaVuSans-2f"/>
      <use x="992.792969" xlink:href="#DejaVuSans-20"/>
      <use x="1024.580078" xlink:href="#DejaVuSans-64"/>
      <use x="1088.056641" xlink:href="#DejaVuSans-69"/>
      <use x="1115.839844" xlink:href="#DejaVuSans-6d"/>
      <use x="1213.251953" xlink:href="#DejaVuSans-65"/>
      <use x="1274.775391" xlink:href="#DejaVuSans-6e"/>
      <use x="1338.154297" xlink:href="#DejaVuSans-73"/>
      <use x="1390.253906" xlink:href="#DejaVuSans-69"/>
      <use x="1418.037109" xlink:href="#DejaVuSans-6f"/>
      <use x="1479.21875" xlink:href="#DejaVuSans-6e"/>
      <use x="1542.597656" xlink:href="#DejaVuSans-29"/>
     </g>
    </g>
   </g>
   <g id="matplotlib.axis_2">
    <g id="ytick_1">
     <g id="line2d_11">
      <path clip-path="url(#pede648b712)" d="M 70.8 298.245375 
L 427.92 298.245375 
" style="fill:none;stroke:#b0b0b0;stroke-linecap:square;stroke-width:0.8;"/>
     </g>
     <g id="line2d_12">
      <defs>
       <path d="M 0 0 
L -3.5 0 
" id="mbd7ead2b9c" style="stroke:#000000;stroke-width:0.8;"/>
      </defs>
      <g>
       <use style="stroke:#000000;stroke-width:0.8;" x="70.8" xlink:href="#mbd7ead2b9c" y="298.245375"/>
      </g>
     </g>
     <g id="text_7">
      <!-- 0.0 -->
      <defs>
       <path d="M 10.6875 12.40625 
L 21 12.40625 
L 21 0 
L 10.6875 0 
z
" id="DejaVuSans-2e"/>
      </defs>
      <g transform="translate(31.99375 305.843812)scale(0.2 -0.2)">
       <use xlink:href="#DejaVuSans-30"/>
       <use x="63.623047" xlink:href="#DejaVuSans-2e"/>
       <use x="95.410156" xlink:href="#DejaVuSans-30"/>
      </g>
     </g>
    </g>
    <g id="ytick_2">
     <g id="line2d_13">
      <path clip-path="url(#pede648b712)" d="M 70.8 245.549929 
L 427.92 245.549929 
" style="fill:none;stroke:#b0b0b0;stroke-linecap:square;stroke-width:0.8;"/>
     </g>
     <g id="line2d_14">
      <g>
       <use style="stroke:#000000;stroke-width:0.8;" x="70.8" xlink:href="#mbd7ead2b9c" y="245.549929"/>
      </g>
     </g>
     <g id="text_8">
      <!-- 0.2 -->
      <g transform="translate(31.99375 253.148367)scale(0.2 -0.2)">
       <use xlink:href="#DejaVuSans-30"/>
       <use x="63.623047" xlink:href="#DejaVuSans-2e"/>
       <use x="95.410156" xlink:href="#DejaVuSans-32"/>
      </g>
     </g>
    </g>
    <g id="ytick_3">
     <g id="line2d_15">
      <path clip-path="url(#pede648b712)" d="M 70.8 192.854484 
L 427.92 192.854484 
" style="fill:none;stroke:#b0b0b0;stroke-linecap:square;stroke-width:0.8;"/>
     </g>
     <g id="line2d_16">
      <g>
       <use style="stroke:#000000;stroke-width:0.8;" x="70.8" xlink:href="#mbd7ead2b9c" y="192.854484"/>
      </g>
     </g>
     <g id="text_9">
      <!-- 0.4 -->
      <g transform="translate(31.99375 200.452921)scale(0.2 -0.2)">
       <use xlink:href="#DejaVuSans-30"/>
       <use x="63.623047" xlink:href="#DejaVuSans-2e"/>
       <use x="95.410156" xlink:href="#DejaVuSans-34"/>
      </g>
     </g>
    </g>
    <g id="ytick_4">
     <g id="line2d_17">
      <path clip-path="url(#pede648b712)" d="M 70.8 140.159038 
L 427.92 140.159038 
" style="fill:none;stroke:#b0b0b0;stroke-linecap:square;stroke-width:0.8;"/>
     </g>
     <g id="line2d_18">
      <g>
       <use style="stroke:#000000;stroke-width:0.8;" x="70.8" xlink:href="#mbd7ead2b9c" y="140.159038"/>
      </g>
     </g>
     <g id="text_10">
      <!-- 0.6 -->
      <g transform="translate(31.99375 147.757476)scale(0.2 -0.2)">
       <use xlink:href="#DejaVuSans-30"/>
       <use x="63.623047" xlink:href="#DejaVuSans-2e"/>
       <use x="95.410156" xlink:href="#DejaVuSans-36"/>
      </g>
     </g>
    </g>
    <g id="ytick_5">
     <g id="line2d_19">
      <path clip-path="url(#pede648b712)" d="M 70.8 87.463593 
L 427.92 87.463593 
" style="fill:none;stroke:#b0b0b0;stroke-linecap:square;stroke-width:0.8;"/>
     </g>
     <g id="line2d_20">
      <g>
       <use style="stroke:#000000;stroke-width:0.8;" x="70.8" xlink:href="#mbd7ead2b9c" y="87.463593"/>
      </g>
     </g>
     <g id="text_11">
      <!-- 0.8 -->
      <g transform="translate(31.99375 95.06203)scale(0.2 -0.2)">
       <use xlink:href="#DejaVuSans-30"/>
       <use x="63.623047" xlink:href="#DejaVuSans-2e"/>
       <use x="95.410156" xlink:href="#DejaVuSans-38"/>
      </g>
     </g>
    </g>
    <g id="ytick_6">
     <g id="line2d_21">
      <path clip-path="url(#pede648b712)" d="M 70.8 34.768147 
L 427.92 34.768147 
" style="fill:none;stroke:#b0b0b0;stroke-linecap:square;stroke-width:0.8;"/>
     </g>
     <g id="line2d_22">
      <g>
       <use style="stroke:#000000;stroke-width:0.8;" x="70.8" xlink:href="#mbd7ead2b9c" y="34.768147"/>
      </g>
     </g>
     <g id="text_12">
      <!-- 1.0 -->
      <g transform="translate(31.99375 42.366585)scale(0.2 -0.2)">
       <use xlink:href="#DejaVuSans-31"/>
       <use x="63.623047" xlink:href="#DejaVuSans-2e"/>
       <use x="95.410156" xlink:href="#DejaVuSans-30"/>
      </g>
     </g>
    </g>
    <g id="text_13">
     <!-- Proportion of function+target pairs -->
     <defs>
      <path d="M 19.671875 64.796875 
L 19.671875 37.40625 
L 32.078125 37.40625 
Q 38.96875 37.40625 42.71875 40.96875 
Q 46.484375 44.53125 46.484375 51.125 
Q 46.484375 57.671875 42.71875 61.234375 
Q 38.96875 64.796875 32.078125 64.796875 
z
M 9.8125 72.90625 
L 32.078125 72.90625 
Q 44.34375 72.90625 50.609375 67.359375 
Q 56.890625 61.8125 56.890625 51.125 
Q 56.890625 40.328125 50.609375 34.8125 
Q 44.34375 29.296875 32.078125 29.296875 
L 19.671875 29.296875 
L 19.671875 0 
L 9.8125 0 
z
" id="DejaVuSans-50"/>
      <path d="M 41.109375 46.296875 
Q 39.59375 47.171875 37.8125 47.578125 
Q 36.03125 48 33.890625 48 
Q 26.265625 48 22.1875 43.046875 
Q 18.109375 38.09375 18.109375 28.8125 
L 18.109375 0 
L 9.078125 0 
L 9.078125 54.6875 
L 18.109375 54.6875 
L 18.109375 46.1875 
Q 20.953125 51.171875 25.484375 53.578125 
Q 30.03125 56 36.53125 56 
Q 37.453125 56 38.578125 55.875 
Q 39.703125 55.765625 41.0625 55.515625 
z
" id="DejaVuSans-72"/>
      <path d="M 18.109375 8.203125 
L 18.109375 -20.796875 
L 9.078125 -20.796875 
L 9.078125 54.6875 
L 18.109375 54.6875 
L 18.109375 46.390625 
Q 20.953125 51.265625 25.265625 53.625 
Q 29.59375 56 35.59375 56 
Q 45.5625 56 51.78125 48.09375 
Q 58.015625 40.1875 58.015625 27.296875 
Q 58.015625 14.40625 51.78125 6.484375 
Q 45.5625 -1.421875 35.59375 -1.421875 
Q 29.59375 -1.421875 25.265625 0.953125 
Q 20.953125 3.328125 18.109375 8.203125 
z
M 48.6875 27.296875 
Q 48.6875 37.203125 44.609375 42.84375 
Q 40.53125 48.484375 33.40625 48.484375 
Q 26.265625 48.484375 22.1875 42.84375 
Q 18.109375 37.203125 18.109375 27.296875 
Q 18.109375 17.390625 22.1875 11.75 
Q 26.265625 6.109375 33.40625 6.109375 
Q 40.53125 6.109375 44.609375 11.75 
Q 48.6875 17.390625 48.6875 27.296875 
z
" id="DejaVuSans-70"/>
      <path d="M 18.3125 70.21875 
L 18.3125 54.6875 
L 36.8125 54.6875 
L 36.8125 47.703125 
L 18.3125 47.703125 
L 18.3125 18.015625 
Q 18.3125 11.328125 20.140625 9.421875 
Q 21.96875 7.515625 27.59375 7.515625 
L 36.8125 7.515625 
L 36.8125 0 
L 27.59375 0 
Q 17.1875 0 13.234375 3.875 
Q 9.28125 7.765625 9.28125 18.015625 
L 9.28125 47.703125 
L 2.6875 47.703125 
L 2.6875 54.6875 
L 9.28125 54.6875 
L 9.28125 70.21875 
z
" id="DejaVuSans-74"/>
      <path d="M 8.5 21.578125 
L 8.5 54.6875 
L 17.484375 54.6875 
L 17.484375 21.921875 
Q 17.484375 14.15625 20.5 10.265625 
Q 23.53125 6.390625 29.59375 6.390625 
Q 36.859375 6.390625 41.078125 11.03125 
Q 45.3125 15.671875 45.3125 23.6875 
L 45.3125 54.6875 
L 54.296875 54.6875 
L 54.296875 0 
L 45.3125 0 
L 45.3125 8.40625 
Q 42.046875 3.421875 37.71875 1 
Q 33.40625 -1.421875 27.6875 -1.421875 
Q 18.265625 -1.421875 13.375 4.4375 
Q 8.5 10.296875 8.5 21.578125 
z
M 31.109375 56 
z
" id="DejaVuSans-75"/>
      <path d="M 48.78125 52.59375 
L 48.78125 44.1875 
Q 44.96875 46.296875 41.140625 47.34375 
Q 37.3125 48.390625 33.40625 48.390625 
Q 24.65625 48.390625 19.8125 42.84375 
Q 14.984375 37.3125 14.984375 27.296875 
Q 14.984375 17.28125 19.8125 11.734375 
Q 24.65625 6.203125 33.40625 6.203125 
Q 37.3125 6.203125 41.140625 7.25 
Q 44.96875 8.296875 48.78125 10.40625 
L 48.78125 2.09375 
Q 45.015625 0.34375 40.984375 -0.53125 
Q 36.96875 -1.421875 32.421875 -1.421875 
Q 20.0625 -1.421875 12.78125 6.34375 
Q 5.515625 14.109375 5.515625 27.296875 
Q 5.515625 40.671875 12.859375 48.328125 
Q 20.21875 56 33.015625 56 
Q 37.15625 56 41.109375 55.140625 
Q 45.0625 54.296875 48.78125 52.59375 
z
" id="DejaVuSans-63"/>
      <path d="M 46 62.703125 
L 46 35.5 
L 73.1875 35.5 
L 73.1875 27.203125 
L 46 27.203125 
L 46 0 
L 37.796875 0 
L 37.796875 27.203125 
L 10.59375 27.203125 
L 10.59375 35.5 
L 37.796875 35.5 
L 37.796875 62.703125 
z
" id="DejaVuSans-2b"/>
     </defs>
     <g transform="translate(24.250312 323.17875)rotate(-90)scale(0.18 -0.18)">
      <use xlink:href="#DejaVuSans-50"/>
      <use x="60.287109" xlink:href="#DejaVuSans-72"/>
      <use x="101.369141" xlink:href="#DejaVuSans-6f"/>
      <use x="162.550781" xlink:href="#DejaVuSans-70"/>
      <use x="226.027344" xlink:href="#DejaVuSans-6f"/>
      <use x="287.208984" xlink:href="#DejaVuSans-72"/>
      <use x="328.322266" xlink:href="#DejaVuSans-74"/>
      <use x="367.53125" xlink:href="#DejaVuSans-69"/>
      <use x="395.314453" xlink:href="#DejaVuSans-6f"/>
      <use x="456.496094" xlink:href="#DejaVuSans-6e"/>
      <use x="519.875" xlink:href="#DejaVuSans-20"/>
      <use x="551.662109" xlink:href="#DejaVuSans-6f"/>
      <use x="612.84375" xlink:href="#DejaVuSans-66"/>
      <use x="648.048828" xlink:href="#DejaVuSans-20"/>
      <use x="679.835938" xlink:href="#DejaVuSans-66"/>
      <use x="715.041016" xlink:href="#DejaVuSans-75"/>
      <use x="778.419922" xlink:href="#DejaVuSans-6e"/>
      <use x="841.798828" xlink:href="#DejaVuSans-63"/>
      <use x="896.779297" xlink:href="#DejaVuSans-74"/>
      <use x="935.988281" xlink:href="#DejaVuSans-69"/>
      <use x="963.771484" xlink:href="#DejaVuSans-6f"/>
      <use x="1024.953125" xlink:href="#DejaVuSans-6e"/>
      <use x="1088.332031" xlink:href="#DejaVuSans-2b"/>
      <use x="1172.121094" xlink:href="#DejaVuSans-74"/>
      <use x="1211.330078" xlink:href="#DejaVuSans-61"/>
      <use x="1272.609375" xlink:href="#DejaVuSans-72"/>
      <use x="1313.707031" xlink:href="#DejaVuSans-67"/>
      <use x="1377.183594" xlink:href="#DejaVuSans-65"/>
      <use x="1438.707031" xlink:href="#DejaVuSans-74"/>
      <use x="1477.916016" xlink:href="#DejaVuSans-20"/>
      <use x="1509.703125" xlink:href="#DejaVuSans-70"/>
      <use x="1573.179688" xlink:href="#DejaVuSans-61"/>
      <use x="1634.458984" xlink:href="#DejaVuSans-69"/>
      <use x="1662.242188" xlink:href="#DejaVuSans-72"/>
      <use x="1703.355469" xlink:href="#DejaVuSans-73"/>
     </g>
    </g>
   </g>
   <g id="line2d_23">
    <defs>
     <path d="M 0 1.5 
C 0.397805 1.5 0.77937 1.341951 1.06066 1.06066 
C 1.341951 0.77937 1.5 0.397805 1.5 0 
C 1.5 -0.397805 1.341951 -0.77937 1.06066 -1.06066 
C 0.77937 -1.341951 0.397805 -1.5 0 -1.5 
C -0.397805 -1.5 -0.77937 -1.341951 -1.06066 -1.06066 
C -1.341951 -0.77937 -1.5 -0.397805 -1.5 0 
C -1.5 0.397805 -1.341951 0.77937 -1.06066 1.06066 
C -0.77937 1.341951 -0.397805 1.5 0 1.5 
z
" id="m0ebd3a8751" style="stroke:#000080;"/>
    </defs>
    <g>
     <use style="fill:#000080;stroke:#000080;" x="308.917049" xlink:href="#m0ebd3a8751" y="55.433028"/>
     <use style="fill:#000080;stroke:#000080;" x="308.917049" xlink:href="#m0ebd3a8751" y="55.433028"/>
    </g>
   </g>
   <g id="line2d_24">
    <path d="M 122.838219 298.245375 
L 122.838219 297.212131 
L 123.079358 297.212131 
L 123.079358 296.178887 
L 123.829835 296.178887 
L 123.921467 294.629021 
L 124.328091 294.629021 
L 124.328091 294.112399 
L 129.690395 294.112399 
L 129.690395 293.595777 
L 130.244237 293.595777 
L 130.244237 293.079155 
L 130.843577 293.079155 
L 130.905511 291.529289 
L 131.059415 291.529289 
L 131.059415 291.012667 
L 131.181591 291.012667 
L 131.181591 290.496045 
L 131.393408 290.496045 
L 131.393408 288.946179 
L 131.543184 288.946179 
L 131.543184 288.429557 
L 134.429184 288.429557 
L 134.429184 287.396313 
L 134.954387 287.396313 
L 134.954387 286.363069 
L 138.355321 286.363069 
L 138.355321 285.846447 
L 138.658348 285.846447 
L 138.658348 284.813203 
L 139.556826 284.813203 
L 139.556826 284.296581 
L 139.670757 284.296581 
L 139.670757 283.263337 
L 140.321254 283.263337 
L 140.321254 282.746715 
L 140.466672 282.746715 
L 140.466672 282.230093 
L 142.516839 282.230093 
L 142.516839 281.713471 
L 145.44333 281.713471 
L 145.44333 281.196849 
L 146.023033 281.196849 
L 146.023033 279.646982 
L 146.234024 279.646982 
L 146.234024 278.097116 
L 148.941525 278.097116 
L 148.941525 277.063872 
L 149.62672 277.063872 
L 149.62672 276.030628 
L 150.730365 276.030628 
L 150.730365 275.514006 
L 152.008608 275.514006 
L 152.008608 274.997384 
L 152.430598 274.997384 
L 152.430598 274.480762 
L 153.058892 274.480762 
L 153.058892 273.96414 
L 154.551627 273.96414 
L 154.551627 272.930896 
L 155.070756 272.930896 
L 155.070756 271.897652 
L 155.944447 271.897652 
L 155.944447 271.38103 
L 156.550712 271.38103 
L 156.550712 270.347786 
L 156.828195 270.347786 
L 156.828195 269.831164 
L 157.015599 269.831164 
L 157.015599 269.314542 
L 157.30013 269.314542 
L 157.30013 268.79792 
L 157.43371 268.79792 
L 157.43371 268.281298 
L 157.801138 268.281298 
L 157.801138 267.248054 
L 158.127505 267.248054 
L 158.127505 266.731432 
L 158.717309 266.731432 
L 158.717309 266.21481 
L 158.87308 266.21481 
L 158.87308 265.698188 
L 159.059509 265.698188 
L 159.059509 265.181566 
L 159.939214 265.181566 
L 159.939214 264.664944 
L 160.484802 264.664944 
L 160.484802 264.148322 
L 160.847203 264.148322 
L 160.847203 263.6317 
L 161.048585 263.6317 
L 161.048585 263.115078 
L 161.892289 263.115078 
L 161.892289 262.598456 
L 162.173853 262.598456 
L 162.173853 262.081834 
L 162.318318 262.081834 
L 162.355582 260.531968 
L 163.593317 260.531968 
L 163.593317 260.015346 
L 163.878819 260.015346 
L 163.985931 258.982102 
L 164.355845 258.982102 
L 164.355845 258.46548 
L 164.587319 258.46548 
L 164.587319 257.948858 
L 164.94051 257.948858 
L 164.94051 256.915614 
L 165.059753 256.915614 
L 165.109964 255.88237 
L 165.399333 255.88237 
L 165.399333 255.365748 
L 165.701737 255.365748 
L 165.763366 254.332504 
L 166.137354 254.332504 
L 166.137354 253.815882 
L 166.300143 253.815882 
L 166.300143 253.29926 
L 166.503674 253.29926 
L 166.545786 250.71615 
L 166.829545 250.71615 
L 166.829545 250.199528 
L 167.242865 250.199528 
L 167.242865 249.682906 
L 167.551669 249.682906 
L 167.563593 248.649662 
L 167.991522 248.649662 
L 168.084384 247.099796 
L 168.549111 247.099796 
L 168.549111 246.066551 
L 168.687696 246.066551 
L 168.71752 245.033307 
L 168.906485 245.033307 
L 168.906485 243.483441 
L 169.118985 243.483441 
L 169.118985 242.966819 
L 169.310981 242.966819 
L 169.400834 240.900331 
L 169.930664 240.900331 
L 169.930664 239.867087 
L 170.39444 239.867087 
L 170.39444 239.350465 
L 170.596761 239.350465 
L 170.596761 238.833843 
L 170.974972 238.833843 
L 170.974972 237.800599 
L 171.242151 237.800599 
L 171.242151 236.250733 
L 171.358199 236.250733 
L 171.441546 234.700867 
L 171.651387 234.700867 
L 171.651387 234.184245 
L 172.069995 234.184245 
L 172.069995 232.634379 
L 172.318359 232.634379 
L 172.363976 231.601135 
L 172.596326 231.601135 
L 172.67112 230.567891 
L 172.861176 230.567891 
L 172.861176 230.051269 
L 173.186087 230.051269 
L 173.186087 229.018025 
L 173.649922 229.018025 
L 173.649922 228.501403 
L 174.209172 228.501403 
L 174.209172 227.984781 
L 174.483716 227.984781 
L 174.483716 226.951537 
L 175.064909 226.951537 
L 175.070131 225.918293 
L 175.316413 225.918293 
L 175.401175 224.885049 
L 175.5441 224.885049 
L 175.5441 223.851805 
L 175.655602 223.851805 
L 175.738774 221.785317 
L 175.953724 221.785317 
L 175.953724 221.268695 
L 176.422061 221.268695 
L 176.422061 220.752073 
L 176.578684 220.752073 
L 176.578684 219.718829 
L 176.712528 219.718829 
L 176.712528 219.202207 
L 177.483799 219.202207 
L 177.483799 218.685585 
L 177.748651 218.685585 
L 177.842776 217.135719 
L 177.865114 217.135719 
L 177.865114 216.619097 
L 178.612734 216.619097 
L 178.640544 215.585853 
L 178.977229 215.585853 
L 178.98981 214.552609 
L 179.117224 214.552609 
L 179.218919 211.452876 
L 179.524644 211.452876 
L 179.524644 210.936254 
L 180.091298 210.936254 
L 180.09524 209.90301 
L 180.676809 209.90301 
L 180.676809 209.386388 
L 181.007517 209.386388 
L 181.007517 207.3199 
L 181.165965 207.3199 
L 181.165965 206.803278 
L 191.667161 206.803278 
L 191.667161 205.253412 
L 192.555195 205.253412 
L 192.555195 204.73679 
L 194.04177 204.73679 
L 194.04177 204.220168 
L 200.171003 204.220168 
L 200.171003 202.670302 
L 200.451315 202.670302 
L 200.451315 202.15368 
L 200.703684 202.15368 
L 200.703684 201.637058 
L 202.623859 201.637058 
L 202.623859 201.120436 
L 203.224067 201.120436 
L 203.283371 200.087192 
L 203.47183 200.087192 
L 203.47183 199.57057 
L 203.987317 199.57057 
L 203.987317 198.537326 
L 204.466701 198.537326 
L 204.466701 198.020704 
L 204.719296 198.020704 
L 204.719296 196.98746 
L 204.884417 196.98746 
L 204.944353 193.887728 
L 205.774708 193.887728 
L 205.774708 193.371106 
L 205.999421 193.371106 
L 205.999421 192.854484 
L 206.141712 192.854484 
L 206.141712 192.337862 
L 206.521098 192.337862 
L 206.521098 191.82124 
L 206.736672 191.82124 
L 206.822532 190.787996 
L 206.861343 190.787996 
L 206.861343 190.271374 
L 207.044554 190.271374 
L 207.044554 189.754752 
L 207.241006 189.754752 
L 207.272463 188.204886 
L 207.555652 188.204886 
L 207.555652 187.171642 
L 207.708821 187.171642 
L 207.708821 186.65502 
L 208.105214 186.65502 
L 208.17862 185.621776 
L 208.370343 185.621776 
L 208.370343 185.105154 
L 208.552818 185.105154 
L 208.552818 184.588532 
L 209.129723 184.588532 
L 209.129723 184.07191 
L 209.354143 184.07191 
L 209.354143 183.555288 
L 210.007276 183.555288 
L 210.007276 183.038666 
L 211.650205 183.038666 
L 211.650205 182.005422 
L 212.047439 182.005422 
L 212.047439 181.4888 
L 212.197096 181.4888 
L 212.197096 180.972178 
L 212.366241 180.972178 
L 212.436356 179.938934 
L 212.559119 179.938934 
L 212.559119 178.90569 
L 212.803408 178.90569 
L 212.83308 177.355823 
L 213.114705 177.355823 
L 213.114705 176.322579 
L 214.816787 176.322579 
L 214.816787 175.805957 
L 215.38569 175.805957 
L 215.483304 174.256091 
L 215.521332 174.256091 
L 215.521332 173.739469 
L 216.228122 173.739469 
L 216.228122 173.222847 
L 217.983506 173.222847 
L 217.983506 172.706225 
L 218.100384 172.706225 
L 218.100384 172.189603 
L 218.857096 172.189603 
L 218.857096 170.639737 
L 219.915018 170.639737 
L 219.915018 170.123115 
L 220.215485 170.123115 
L 220.215485 169.606493 
L 220.553211 169.606493 
L 220.553211 169.089871 
L 220.858122 169.089871 
L 220.858122 168.573249 
L 221.255625 168.573249 
L 221.255625 168.056627 
L 221.542874 168.056627 
L 221.542874 167.023383 
L 223.539491 167.023383 
L 223.539491 166.506761 
L 223.847259 166.506761 
L 223.847259 165.990139 
L 224.083731 165.990139 
L 224.083731 165.473517 
L 224.62069 165.473517 
L 224.62069 164.440273 
L 224.807073 164.440273 
L 224.807073 163.923651 
L 225.025358 163.923651 
L 225.028864 162.373785 
L 226.482515 162.373785 
L 226.482515 161.857163 
L 227.278068 161.857163 
L 227.278068 160.823919 
L 228.309808 160.823919 
L 228.309808 160.307297 
L 228.451965 160.307297 
L 228.451965 159.274053 
L 228.677532 159.274053 
L 228.788159 158.240809 
L 228.931829 158.240809 
L 228.978015 157.207565 
L 229.34815 157.207565 
L 229.34815 156.690943 
L 230.369095 156.690943 
L 230.388824 155.657699 
L 231.253246 155.657699 
L 231.308621 153.591211 
L 231.419751 153.591211 
L 231.489941 152.557967 
L 232.119617 152.557967 
L 232.119617 152.041345 
L 232.457954 152.041345 
L 232.539061 149.974857 
L 232.877532 149.974857 
L 232.877532 148.941613 
L 233.272015 148.941613 
L 233.3317 147.391747 
L 234.277138 147.391747 
L 234.288153 145.841881 
L 235.16358 145.841881 
L 235.16358 145.325259 
L 235.37786 145.325259 
L 235.37786 144.808637 
L 235.511855 144.808637 
L 235.584834 143.25877 
L 236.039727 143.25877 
L 236.039727 142.742148 
L 236.272208 142.742148 
L 236.272208 142.225526 
L 236.528686 142.225526 
L 236.528686 141.708904 
L 236.758568 141.708904 
L 236.758568 141.192282 
L 237.067699 141.192282 
L 237.067699 140.67566 
L 237.696741 140.67566 
L 237.696741 140.159038 
L 238.00654 140.159038 
L 238.00654 139.642416 
L 238.146602 139.642416 
L 238.254051 138.609172 
L 238.449967 138.609172 
L 238.492705 136.542684 
L 238.852976 136.542684 
L 238.852976 135.50944 
L 239.240263 135.50944 
L 239.316723 133.959574 
L 239.968299 133.959574 
L 239.968299 132.92633 
L 240.084725 132.92633 
L 240.084725 132.409708 
L 240.640243 132.409708 
L 240.640243 131.893086 
L 240.901498 131.893086 
L 240.901498 131.376464 
L 241.129108 131.376464 
L 241.129108 130.859842 
L 241.331469 130.859842 
L 241.331469 130.34322 
L 241.805204 130.34322 
L 241.879033 129.309976 
L 241.969549 129.309976 
L 241.969549 128.793354 
L 242.29838 128.793354 
L 242.36664 127.76011 
L 242.461455 127.76011 
L 242.461455 127.243488 
L 243.435852 127.243488 
L 243.435852 126.726866 
L 243.813287 126.726866 
L 243.813287 126.210244 
L 244.387703 126.210244 
L 244.387703 125.693622 
L 244.595237 125.693622 
L 244.681189 124.660378 
L 244.781034 124.660378 
L 244.781034 123.627134 
L 244.956562 123.627134 
L 244.956562 123.110512 
L 245.122722 123.110512 
L 245.122722 122.59389 
L 245.694037 122.59389 
L 245.694037 121.560646 
L 245.990181 121.560646 
L 245.990181 121.044024 
L 246.162727 121.044024 
L 246.162727 120.527402 
L 246.291682 120.527402 
L 246.402084 116.394426 
L 246.539566 116.394426 
L 246.539566 115.361182 
L 247.469687 115.361182 
L 247.469687 114.84456 
L 247.900191 114.84456 
L 247.900191 114.327938 
L 248.332898 114.327938 
L 248.338131 113.294694 
L 248.83764 113.294694 
L 248.83764 112.26145 
L 249.464224 112.26145 
L 249.464224 111.744828 
L 249.672055 111.744828 
L 249.672055 111.228206 
L 250.165981 111.228206 
L 250.165981 110.711584 
L 250.298444 110.711584 
L 250.298444 109.161717 
L 250.680673 109.161717 
L 250.680673 108.645095 
L 251.266862 108.645095 
L 251.266862 107.611851 
L 251.86853 107.611851 
L 251.874065 106.061985 
L 251.979685 106.061985 
L 251.996923 104.512119 
L 252.687309 104.512119 
L 252.687309 103.995497 
L 252.997148 103.995497 
L 253.01007 102.962253 
L 253.67361 102.962253 
L 253.742764 101.929009 
L 254.150661 101.929009 
L 254.150661 100.895765 
L 254.320259 100.895765 
L 254.320259 100.379143 
L 255.040649 100.379143 
L 255.040649 99.862521 
L 255.306366 99.862521 
L 255.365845 97.796033 
L 256.408006 97.796033 
L 256.468872 96.246167 
L 256.738058 96.246167 
L 256.738058 95.729545 
L 257.411828 95.729545 
L 257.411828 95.212923 
L 257.727561 95.212923 
L 257.757525 94.179679 
L 257.839218 94.179679 
L 257.839218 93.663057 
L 258.275129 93.663057 
L 258.275129 93.146435 
L 258.471659 93.146435 
L 258.471659 92.113191 
L 258.724757 92.113191 
L 258.833351 91.079947 
L 258.984617 91.079947 
L 259.076505 89.530081 
L 259.633234 89.530081 
L 259.675032 88.496837 
L 259.761575 88.496837 
L 259.761575 87.980215 
L 260.54703 87.980215 
L 260.54703 87.463593 
L 260.764288 87.463593 
L 260.764288 86.946971 
L 261.066106 86.946971 
L 261.066106 85.913727 
L 261.679783 85.913727 
L 261.679783 85.397105 
L 261.860335 85.397105 
L 261.885473 84.363861 
L 262.124919 84.363861 
L 262.124919 83.847239 
L 262.984825 83.847239 
L 262.984825 83.330617 
L 263.60073 83.330617 
L 263.60073 82.813995 
L 263.84479 82.813995 
L 263.84479 81.780751 
L 265.17105 81.780751 
L 265.17105 80.747507 
L 265.630353 80.747507 
L 265.717341 79.714263 
L 266.045062 79.714263 
L 266.045062 79.197641 
L 267.162261 79.197641 
L 267.255804 77.131153 
L 267.816496 77.131153 
L 267.816496 76.614531 
L 268.036279 76.614531 
L 268.036279 75.581286 
L 268.230809 75.581286 
L 268.236063 74.03142 
L 269.280704 74.03142 
L 269.280704 73.514798 
L 269.945719 73.514798 
L 269.945719 72.998176 
L 270.101542 72.998176 
L 270.101542 71.44831 
L 270.721341 71.44831 
L 270.721341 70.931688 
L 271.286671 70.931688 
L 271.390345 68.348578 
L 272.048753 68.348578 
L 272.048753 67.831956 
L 272.254528 67.831956 
L 272.254528 67.315334 
L 272.437858 67.315334 
L 272.437858 66.798712 
L 273.826095 66.798712 
L 273.91055 64.732224 
L 274.543653 64.732224 
L 274.563424 63.182358 
L 274.673019 63.182358 
L 274.673019 62.149114 
L 284.253785 62.149114 
L 284.253785 61.632492 
L 284.73941 61.632492 
L 284.73941 61.11587 
L 285.346628 61.11587 
L 285.346628 60.599248 
L 285.531628 60.599248 
L 285.531628 60.082626 
L 285.733247 60.082626 
L 285.733247 59.566004 
L 285.904273 59.566004 
L 285.904273 59.049382 
L 293.337118 59.049382 
L 293.337118 58.53276 
L 293.982917 58.53276 
L 293.982917 58.016138 
L 294.417122 58.016138 
L 294.417122 57.499516 
L 297.025378 57.499516 
L 297.025378 56.982894 
L 301.778002 56.982894 
L 301.778002 56.466272 
L 302.873777 56.466272 
L 302.873777 55.94965 
L 308.917049 55.94965 
L 308.917049 55.433028 
L 358.8 55.433028 
L 358.8 55.433028 
" style="fill:none;stroke:#000080;stroke-linecap:square;stroke-width:1.5;"/>
   </g>
   <g id="line2d_25">
    <defs>
     <path d="M 0 6 
C 1.591219 6 3.117479 5.367802 4.242641 4.242641 
C 5.367802 3.117479 6 1.591219 6 0 
C 6 -1.591219 5.367802 -3.117479 4.242641 -4.242641 
C 3.117479 -5.367802 1.591219 -6 0 -6 
C -1.591219 -6 -3.117479 -5.367802 -4.242641 -4.242641 
C -5.367802 -3.117479 -6 -1.591219 -6 0 
C -6 1.591219 -5.367802 3.117479 -4.242641 4.242641 
C -3.117479 5.367802 -1.591219 6 0 6 
z
" id="mcf10d90782" style="stroke:#000080;stroke-width:1.5;"/>
    </defs>
    <g>
     <use style="fill:none;stroke:#000080;stroke-width:1.5;" x="166.300143" xlink:href="#mcf10d90782" y="253.29926"/>
     <use style="fill:none;stroke:#000080;stroke-width:1.5;" x="223.539491" xlink:href="#mcf10d90782" y="167.023383"/>
     <use style="fill:none;stroke:#000080;stroke-width:1.5;" x="260.764288" xlink:href="#mcf10d90782" y="87.463593"/>
     <use style="fill:none;stroke:#000080;stroke-width:1.5;" x="308.917049" xlink:href="#mcf10d90782" y="55.433028"/>
     <use style="fill:none;stroke:#000080;stroke-width:1.5;" x="358.8" xlink:href="#mcf10d90782" y="55.433028"/>
    </g>
   </g>
   <g id="line2d_26"/>
   <g id="line2d_27">
    <path clip-path="url(#pede648b712)" d="M 274.491114 64.732224 
" style="fill:none;stroke:#000080;stroke-linecap:square;stroke-width:1.5;"/>
    <defs>
     <path d="M -12 12 
L 12 -12 
M -12 -12 
L 12 12 
" id="m46f1244306" style="stroke:#000080;stroke-width:3;"/>
    </defs>
    <g clip-path="url(#pede648b712)">
     <use style="fill:#000080;stroke:#000080;stroke-width:3;" x="274.491114" xlink:href="#m46f1244306" y="64.732224"/>
    </g>
   </g>
   <g id="line2d_28">
    <defs>
     <path d="M 0 1.5 
C 0.397805 1.5 0.77937 1.341951 1.06066 1.06066 
C 1.341951 0.77937 1.5 0.397805 1.5 0 
C 1.5 -0.397805 1.341951 -0.77937 1.06066 -1.06066 
C 0.77937 -1.341951 0.397805 -1.5 0 -1.5 
C -0.397805 -1.5 -0.77937 -1.341951 -1.06066 -1.06066 
C -1.341951 -0.77937 -1.5 -0.397805 -1.5 0 
C -1.5 0.397805 -1.341951 0.77937 -1.06066 1.06066 
C -0.77937 1.341951 -0.397805 1.5 0 1.5 
z
" id="m3e20353f6a" style="stroke:#ff00ff;"/>
    </defs>
    <g>
     <use style="fill:#ff00ff;stroke:#ff00ff;" x="328.756267" xlink:href="#m3e20353f6a" y="174.256091"/>
     <use style="fill:#ff00ff;stroke:#ff00ff;" x="328.756267" xlink:href="#m3e20353f6a" y="174.256091"/>
    </g>
   </g>
   <g id="line2d_29">
    <path d="M 208.090415 298.245375 
L 208.090415 297.212131 
L 208.647947 297.212131 
L 208.647947 295.662265 
L 208.763575 295.662265 
L 208.763575 295.145643 
L 211.414113 295.145643 
L 211.474791 294.112399 
L 211.639756 294.112399 
L 211.729892 292.562533 
L 211.852925 292.562533 
L 211.852925 292.045911 
L 211.998265 292.045911 
L 212.103379 291.012667 
L 212.18042 291.012667 
L 212.18042 289.979423 
L 212.30105 289.979423 
L 212.30105 289.462801 
L 212.485305 289.462801 
L 212.590798 288.429557 
L 214.881025 288.429557 
L 214.881025 287.912935 
L 215.416832 287.912935 
L 215.416832 286.879691 
L 215.645446 286.879691 
L 215.736293 284.813203 
L 215.957969 284.813203 
L 215.957969 284.296581 
L 216.202543 284.296581 
L 216.202543 283.779959 
L 216.954905 283.779959 
L 216.954905 282.746715 
L 217.23665 282.746715 
L 217.23665 281.196849 
L 217.605531 281.196849 
L 217.605531 279.646982 
L 218.160176 279.646982 
L 218.205999 278.613738 
L 219.546272 278.613738 
L 219.546272 278.097116 
L 219.821196 278.097116 
L 219.876145 277.063872 
L 220.960281 277.063872 
L 220.960281 276.54725 
L 221.500206 276.54725 
L 221.500206 276.030628 
L 222.954719 276.030628 
L 222.954719 275.514006 
L 224.427564 275.514006 
L 224.427564 274.997384 
L 225.259583 274.997384 
L 225.259583 274.480762 
L 225.755325 274.480762 
L 225.755325 273.447518 
L 225.993979 273.447518 
L 225.993979 272.414274 
L 226.42689 272.414274 
L 226.42689 270.864408 
L 226.809212 270.864408 
L 226.809212 269.831164 
L 227.644987 269.831164 
L 227.644987 269.314542 
L 228.503738 269.314542 
L 228.503738 268.79792 
L 228.900672 268.79792 
L 228.900672 268.281298 
L 229.113833 268.281298 
L 229.113833 267.764676 
L 229.25064 267.764676 
L 229.25064 267.248054 
L 229.368664 267.248054 
L 229.368664 266.731432 
L 229.787871 266.731432 
L 229.787871 265.698188 
L 230.070272 265.698188 
L 230.070272 264.148322 
L 230.191261 264.148322 
L 230.191261 263.6317 
L 230.552432 263.6317 
L 230.55524 262.081834 
L 230.791836 262.081834 
L 230.791836 261.565212 
L 231.408379 261.565212 
L 231.408379 260.531968 
L 231.572458 260.531968 
L 231.572458 258.46548 
L 232.629178 258.46548 
L 232.629178 257.432236 
L 233.651978 257.432236 
L 233.760049 256.398992 
L 233.915318 256.398992 
L 233.915318 255.88237 
L 234.158396 255.88237 
L 234.190112 254.332504 
L 236.026039 254.332504 
L 236.116244 251.749394 
L 236.373856 251.749394 
L 236.373856 250.71615 
L 236.758981 250.71615 
L 236.861851 248.13304 
L 237.697211 248.13304 
L 237.768134 247.099796 
L 238.186561 247.099796 
L 238.186561 246.583173 
L 238.472363 246.583173 
L 238.472363 246.066551 
L 238.627906 246.066551 
L 238.627906 245.033307 
L 239.832537 245.033307 
L 239.88709 244.000063 
L 240.131946 244.000063 
L 240.131946 243.483441 
L 240.9205 243.483441 
L 240.9205 242.966819 
L 241.034417 242.966819 
L 241.075236 241.933575 
L 241.386425 241.933575 
L 241.386425 241.416953 
L 241.546683 241.416953 
L 241.546683 240.900331 
L 241.805453 240.900331 
L 241.805453 239.867087 
L 242.582165 239.867087 
L 242.582165 238.833843 
L 242.965373 238.833843 
L 243.069851 237.283977 
L 243.60853 237.283977 
L 243.60853 236.767355 
L 243.912327 236.767355 
L 243.912327 235.734111 
L 244.363846 235.734111 
L 244.363846 235.217489 
L 244.494989 235.217489 
L 244.494989 234.700867 
L 244.699061 234.700867 
L 244.699061 232.117757 
L 245.110915 232.117757 
L 245.216635 231.084513 
L 245.232849 231.084513 
L 245.232849 230.567891 
L 246.271111 230.567891 
L 246.285183 229.534647 
L 247.121739 229.534647 
L 247.121739 229.018025 
L 247.365843 229.018025 
L 247.365843 227.468159 
L 247.654074 227.468159 
L 247.654074 226.951537 
L 247.800965 226.951537 
L 247.800965 226.434915 
L 248.707364 226.434915 
L 248.754571 225.401671 
L 250.172421 225.401671 
L 250.172421 224.885049 
L 250.462787 224.885049 
L 250.462787 223.851805 
L 250.80001 223.851805 
L 250.80001 223.335183 
L 251.007592 223.335183 
L 251.007592 221.785317 
L 251.606205 221.785317 
L 251.606205 220.752073 
L 252.446782 220.752073 
L 252.446782 219.718829 
L 252.854792 219.718829 
L 252.854792 218.685585 
L 254.679551 218.685585 
L 254.6941 216.619097 
L 255.374451 216.619097 
L 255.374451 215.585853 
L 255.812522 215.585853 
L 255.812522 215.069231 
L 256.508687 215.069231 
L 256.508687 210.419632 
L 257.759031 210.419632 
L 257.759031 209.386388 
L 258.254537 209.386388 
L 258.254537 208.869766 
L 258.993384 208.869766 
L 258.993384 208.353144 
L 260.537638 208.353144 
L 260.537638 207.3199 
L 260.904206 207.3199 
L 260.904206 206.803278 
L 262.491234 206.803278 
L 262.491234 205.253412 
L 262.918925 205.253412 
L 262.957277 202.15368 
L 264.04771 202.15368 
L 264.04771 201.637058 
L 265.132206 201.637058 
L 265.132206 201.120436 
L 265.622088 201.120436 
L 265.688332 199.57057 
L 266.470123 199.57057 
L 266.470123 199.053948 
L 267.646971 199.053948 
L 267.646971 198.537326 
L 267.799393 198.537326 
L 267.799393 196.470838 
L 269.332872 196.470838 
L 269.332872 195.437594 
L 270.470608 195.437594 
L 270.544007 193.371106 
L 270.874517 193.371106 
L 270.874517 192.854484 
L 271.106315 192.854484 
L 271.213334 190.787996 
L 273.245672 190.787996 
L 273.245672 190.271374 
L 273.770212 190.271374 
L 273.770212 189.754752 
L 274.708597 189.754752 
L 274.708597 189.23813 
L 275.269365 189.23813 
L 275.269365 188.721508 
L 275.501788 188.721508 
L 275.501788 188.204886 
L 278.361262 188.204886 
L 278.361262 187.688264 
L 279.966378 187.688264 
L 279.966378 187.171642 
L 280.342755 187.171642 
L 280.342755 186.65502 
L 281.006277 186.65502 
L 281.006277 186.138398 
L 282.397481 186.138398 
L 282.397481 185.621776 
L 282.939658 185.621776 
L 282.939658 185.105154 
L 283.122056 185.105154 
L 283.122056 184.588532 
L 287.150363 184.588532 
L 287.150363 184.07191 
L 289.012846 184.07191 
L 289.012846 183.555288 
L 289.157707 183.555288 
L 289.157707 183.038666 
L 289.311699 183.038666 
L 289.311699 182.522044 
L 290.132904 182.522044 
L 290.132904 182.005422 
L 290.419827 182.005422 
L 290.419827 181.4888 
L 292.294405 181.4888 
L 292.294405 180.972178 
L 292.724308 180.972178 
L 292.724308 180.455556 
L 293.654184 180.455556 
L 293.654184 179.938934 
L 294.973495 179.938934 
L 294.973495 179.422312 
L 295.977361 179.422312 
L 295.977361 178.90569 
L 296.863331 178.90569 
L 296.863331 178.389067 
L 299.221053 178.389067 
L 299.221053 177.872445 
L 300.011748 177.872445 
L 300.011748 177.355823 
L 301.605073 177.355823 
L 301.605073 176.839201 
L 303.43342 176.839201 
L 303.43342 176.322579 
L 303.580839 176.322579 
L 303.580839 175.805957 
L 310.981494 175.805957 
L 310.981494 175.289335 
L 317.578014 175.289335 
L 317.578014 174.772713 
L 328.756267 174.772713 
L 328.756267 174.256091 
L 358.8 174.256091 
L 358.8 174.256091 
" style="fill:none;stroke:#ff00ff;stroke-linecap:square;stroke-width:1.5;"/>
   </g>
   <g id="line2d_30">
    <defs>
     <path d="M -0 8.485281 
L 5.091169 0 
L 0 -8.485281 
L -5.091169 -0 
z
" id="mb2abe3fd3f" style="stroke:#ff00ff;stroke-linejoin:miter;stroke-width:1.5;"/>
    </defs>
    <g>
     <use style="fill:none;stroke:#ff00ff;stroke-linejoin:miter;stroke-width:1.5;" x="241.386425" xlink:href="#mb2abe3fd3f" y="241.416953"/>
     <use style="fill:none;stroke:#ff00ff;stroke-linejoin:miter;stroke-width:1.5;" x="303.580839" xlink:href="#mb2abe3fd3f" y="175.805957"/>
     <use style="fill:none;stroke:#ff00ff;stroke-linejoin:miter;stroke-width:1.5;" x="328.756267" xlink:href="#mb2abe3fd3f" y="174.256091"/>
     <use style="fill:none;stroke:#ff00ff;stroke-linejoin:miter;stroke-width:1.5;" x="358.8" xlink:href="#mb2abe3fd3f" y="174.256091"/>
    </g>
   </g>
   <g id="line2d_31"/>
   <g id="line2d_32">
    <path clip-path="url(#pede648b712)" d="M 271.106315 192.337862 
" style="fill:none;stroke:#ff00ff;stroke-linecap:square;stroke-width:1.5;"/>
    <defs>
     <path d="M -12 12 
L 12 -12 
M -12 -12 
L 12 12 
" id="m9adb2a1409" style="stroke:#ff00ff;stroke-width:3;"/>
    </defs>
    <g clip-path="url(#pede648b712)">
     <use style="fill:#ff00ff;stroke:#ff00ff;stroke-width:3;" x="271.106315" xlink:href="#m9adb2a1409" y="192.337862"/>
    </g>
   </g>
   <g id="line2d_33">
    <defs>
     <path d="M 0 1.5 
C 0.397805 1.5 0.77937 1.341951 1.06066 1.06066 
C 1.341951 0.77937 1.5 0.397805 1.5 0 
C 1.5 -0.397805 1.341951 -0.77937 1.06066 -1.06066 
C 0.77937 -1.341951 0.397805 -1.5 0 -1.5 
C -0.397805 -1.5 -0.77937 -1.341951 -1.06066 -1.06066 
C -1.341951 -0.77937 -1.5 -0.397805 -1.5 0 
C -1.5 0.397805 -1.341951 0.77937 -1.06066 1.06066 
C -0.77937 1.341951 -0.397805 1.5 0 1.5 
z
" id="m8561a8f8f6" style="stroke:#ffa500;"/>
    </defs>
    <g>
     <use style="fill:#ffa500;stroke:#ffa500;" x="325.569329" xlink:href="#m8561a8f8f6" y="132.92633"/>
     <use style="fill:#ffa500;stroke:#ffa500;" x="325.569329" xlink:href="#m8561a8f8f6" y="132.92633"/>
    </g>
   </g>
   <g id="line2d_34">
    <path d="M 159.382722 298.245375 
L 159.382722 297.212131 
L 161.304213 297.212131 
L 161.354903 295.662265 
L 161.656058 295.662265 
L 161.656058 295.145643 
L 162.477477 295.145643 
L 162.477477 294.629021 
L 162.656159 294.629021 
L 162.656159 294.112399 
L 164.811198 294.112399 
L 164.811198 293.079155 
L 165.304899 293.079155 
L 165.304899 292.562533 
L 165.829163 292.562533 
L 165.829163 292.045911 
L 166.940976 292.045911 
L 166.940976 291.529289 
L 167.851318 291.529289 
L 167.851318 291.012667 
L 168.642867 291.012667 
L 168.642867 290.496045 
L 169.224295 290.496045 
L 169.253237 289.462801 
L 170.289003 289.462801 
L 170.289003 288.429557 
L 170.485768 288.429557 
L 170.485768 287.396313 
L 171.648226 287.396313 
L 171.648226 286.879691 
L 174.027461 286.879691 
L 174.027461 286.363069 
L 174.791265 286.363069 
L 174.791265 285.846447 
L 175.561886 285.846447 
L 175.561886 285.329825 
L 176.215153 285.329825 
L 176.215153 284.813203 
L 177.096499 284.813203 
L 177.096499 283.779959 
L 177.994127 283.779959 
L 177.994127 283.263337 
L 179.071376 283.263337 
L 179.071376 282.230093 
L 179.530747 282.230093 
L 179.530747 281.713471 
L 180.250232 281.713471 
L 180.250232 281.196849 
L 180.401954 281.196849 
L 180.401954 280.163604 
L 181.667366 280.163604 
L 181.667366 279.13036 
L 188.694401 279.13036 
L 188.694401 278.613738 
L 189.317847 278.613738 
L 189.317847 278.097116 
L 190.610574 278.097116 
L 190.610574 277.063872 
L 191.239325 277.063872 
L 191.239325 276.030628 
L 191.922081 276.030628 
L 191.922081 274.997384 
L 192.727042 274.997384 
L 192.727042 274.480762 
L 193.257429 274.480762 
L 193.257429 273.96414 
L 198.37582 273.96414 
L 198.37582 273.447518 
L 205.548556 273.447518 
L 205.548556 272.414274 
L 207.771733 272.414274 
L 207.771733 271.897652 
L 208.605241 271.897652 
L 208.605241 271.38103 
L 209.996929 271.38103 
L 209.996929 270.347786 
L 211.041474 270.347786 
L 211.041474 269.831164 
L 211.663343 269.831164 
L 211.663343 268.79792 
L 212.412477 268.79792 
L 212.412477 267.764676 
L 212.583443 267.764676 
L 212.583443 267.248054 
L 212.814146 267.248054 
L 212.828664 266.21481 
L 213.061537 266.21481 
L 213.149753 264.664944 
L 213.327344 264.664944 
L 213.363815 263.6317 
L 214.614969 263.6317 
L 214.614969 263.115078 
L 214.819609 263.115078 
L 214.822713 262.081834 
L 214.935223 262.081834 
L 215.000993 261.04859 
L 215.207913 261.04859 
L 215.245154 258.982102 
L 215.343536 258.982102 
L 215.343536 258.46548 
L 215.55603 258.46548 
L 215.55603 257.948858 
L 216.991179 257.948858 
L 216.991179 257.432236 
L 217.218646 257.432236 
L 217.218646 256.915614 
L 217.463954 256.915614 
L 217.536337 255.88237 
L 217.719382 255.88237 
L 217.719382 255.365748 
L 219.357035 255.365748 
L 219.357035 254.332504 
L 219.594728 254.332504 
L 219.594728 253.815882 
L 220.890297 253.815882 
L 220.890297 253.29926 
L 221.419246 253.29926 
L 221.419246 252.782638 
L 221.609001 252.782638 
L 221.609001 252.266016 
L 221.752018 252.266016 
L 221.752018 251.749394 
L 221.971796 251.749394 
L 221.971796 250.71615 
L 222.151685 250.71615 
L 222.151685 250.199528 
L 222.559817 250.199528 
L 222.559817 249.682906 
L 224.063387 249.682906 
L 224.063387 248.649662 
L 224.491405 248.649662 
L 224.491405 248.13304 
L 224.905398 248.13304 
L 225.014036 245.033307 
L 225.388446 245.033307 
L 225.388446 244.000063 
L 225.830609 244.000063 
L 225.830609 243.483441 
L 226.246766 243.483441 
L 226.314526 241.933575 
L 226.456784 241.933575 
L 226.456784 241.416953 
L 226.750399 241.416953 
L 226.77759 240.383709 
L 226.944737 240.383709 
L 226.944737 239.867087 
L 227.364144 239.867087 
L 227.364144 239.350465 
L 227.729044 239.350465 
L 227.729044 238.833843 
L 227.851263 238.833843 
L 227.851263 238.317221 
L 228.370852 238.317221 
L 228.370852 237.800599 
L 228.797842 237.800599 
L 228.797842 236.250733 
L 229.257811 236.250733 
L 229.257811 235.734111 
L 229.612268 235.734111 
L 229.717396 234.700867 
L 229.86792 234.700867 
L 229.935625 233.667623 
L 230.138175 233.667623 
L 230.138175 232.634379 
L 230.417847 232.634379 
L 230.484679 231.601135 
L 230.823208 231.601135 
L 230.823208 231.084513 
L 231.15499 231.084513 
L 231.15499 230.567891 
L 231.78458 230.567891 
L 231.78458 230.051269 
L 232.882975 230.051269 
L 232.882975 229.018025 
L 233.49737 229.018025 
L 233.49737 227.984781 
L 233.917935 227.984781 
L 233.917935 227.468159 
L 234.137635 227.468159 
L 234.137635 226.951537 
L 235.112257 226.951537 
L 235.124852 224.368427 
L 235.414172 224.368427 
L 235.414172 223.335183 
L 235.527537 223.335183 
L 235.527537 222.818561 
L 235.63922 222.818561 
L 235.63922 222.301939 
L 235.762888 222.301939 
L 235.762888 221.785317 
L 236.081075 221.785317 
L 236.170149 219.718829 
L 236.386944 219.718829 
L 236.386944 219.202207 
L 236.541995 219.202207 
L 236.609978 218.168963 
L 237.016439 218.168963 
L 237.016439 217.652341 
L 237.364303 217.652341 
L 237.370455 216.619097 
L 237.853478 216.619097 
L 237.853478 216.102475 
L 238.200369 216.102475 
L 238.200369 215.069231 
L 239.492094 215.069231 
L 239.510671 214.035987 
L 239.88015 214.035987 
L 239.88015 213.519365 
L 240.191735 213.519365 
L 240.191735 213.002743 
L 240.365859 213.002743 
L 240.365859 212.48612 
L 240.500996 212.48612 
L 240.581605 210.936254 
L 240.619275 210.936254 
L 240.619275 210.419632 
L 241.021202 210.419632 
L 241.067184 208.869766 
L 241.164222 208.869766 
L 241.164222 208.353144 
L 241.277434 208.353144 
L 241.277434 207.836522 
L 241.430841 207.836522 
L 241.430841 207.3199 
L 241.969672 207.3199 
L 241.969672 206.286656 
L 242.409773 206.286656 
L 242.409773 205.770034 
L 242.637339 205.770034 
L 242.657673 204.220168 
L 242.98312 204.220168 
L 243.03614 201.120436 
L 243.566675 201.120436 
L 243.566675 200.087192 
L 243.805821 200.087192 
L 243.805821 199.053948 
L 244.107845 199.053948 
L 244.107845 198.537326 
L 244.265057 198.537326 
L 244.265057 198.020704 
L 244.552854 198.020704 
L 244.552854 196.98746 
L 245.055248 196.98746 
L 245.055248 196.470838 
L 245.250897 196.470838 
L 245.35324 194.920972 
L 246.585985 194.920972 
L 246.585985 194.40435 
L 246.774149 194.40435 
L 246.774149 193.887728 
L 247.481848 193.887728 
L 247.481848 193.371106 
L 247.752374 193.371106 
L 247.752374 192.854484 
L 247.910557 192.854484 
L 247.920342 191.82124 
L 248.242009 191.82124 
L 248.242009 189.754752 
L 248.483559 189.754752 
L 248.483559 189.23813 
L 248.859618 189.23813 
L 248.859618 188.721508 
L 249.26524 188.721508 
L 249.26524 188.204886 
L 249.595162 188.204886 
L 249.595162 187.688264 
L 250.358903 187.688264 
L 250.358903 187.171642 
L 250.660181 187.171642 
L 250.660181 186.138398 
L 251.014815 186.138398 
L 251.014815 185.621776 
L 251.386151 185.621776 
L 251.386151 185.105154 
L 251.639773 185.105154 
L 251.681456 183.038666 
L 251.927519 183.038666 
L 251.973407 182.005422 
L 252.414078 182.005422 
L 252.414078 180.972178 
L 252.666788 180.972178 
L 252.666788 180.455556 
L 253.323931 180.455556 
L 253.33008 179.422312 
L 254.610162 179.422312 
L 254.720318 177.872445 
L 254.895407 177.872445 
L 254.895407 177.355823 
L 255.612191 177.355823 
L 255.612191 176.839201 
L 256.180242 176.839201 
L 256.180242 175.805957 
L 256.405749 175.805957 
L 256.414859 174.772713 
L 256.884351 174.772713 
L 256.884351 174.256091 
L 257.036153 174.256091 
L 257.110091 172.706225 
L 257.323081 172.706225 
L 257.323081 172.189603 
L 257.831619 172.189603 
L 257.916618 170.639737 
L 258.409925 170.639737 
L 258.409925 170.123115 
L 258.71605 170.123115 
L 258.744814 169.089871 
L 258.838277 169.089871 
L 258.90401 168.056627 
L 259.868262 168.056627 
L 259.868262 167.023383 
L 260.369135 167.023383 
L 260.402052 165.473517 
L 261.338739 165.473517 
L 261.430453 162.890407 
L 261.825468 162.890407 
L 261.825468 162.373785 
L 262.736953 162.373785 
L 262.75043 160.823919 
L 263.160437 160.823919 
L 263.245347 158.757431 
L 263.450473 158.757431 
L 263.503678 157.207565 
L 263.843247 157.207565 
L 263.843247 156.174321 
L 263.99567 156.174321 
L 264.094587 155.141077 
L 264.503476 155.141077 
L 264.603353 153.591211 
L 266.195787 153.591211 
L 266.195787 153.074589 
L 266.838585 153.074589 
L 266.838585 152.557967 
L 266.956116 152.557967 
L 266.956116 152.041345 
L 267.460111 152.041345 
L 267.460111 151.524723 
L 267.677323 151.524723 
L 267.677323 150.491479 
L 268.198012 150.491479 
L 268.198012 149.974857 
L 269.046533 149.974857 
L 269.046533 149.458235 
L 269.384676 149.458235 
L 269.474141 147.908369 
L 271.307966 147.908369 
L 271.307966 147.391747 
L 271.447201 147.391747 
L 271.447201 146.358503 
L 271.585301 146.358503 
L 271.585301 145.325259 
L 271.722494 145.325259 
L 271.770687 144.292014 
L 272.251908 144.292014 
L 272.251908 143.775392 
L 273.0699 143.775392 
L 273.0699 142.742148 
L 273.743702 142.742148 
L 273.743702 142.225526 
L 273.95536 142.225526 
L 274.004275 141.192282 
L 274.976416 141.192282 
L 274.979668 140.159038 
L 281.191255 140.159038 
L 281.191255 139.642416 
L 284.667776 139.642416 
L 284.768947 138.609172 
L 286.798383 138.609172 
L 286.798383 138.09255 
L 287.402698 138.09255 
L 287.402698 137.575928 
L 294.338818 137.575928 
L 294.365508 136.542684 
L 297.720791 136.542684 
L 297.720791 136.026062 
L 298.757194 136.026062 
L 298.757194 135.50944 
L 299.353891 135.50944 
L 299.353891 134.992818 
L 300.843694 134.992818 
L 300.843694 134.476196 
L 305.566828 134.476196 
L 305.566828 133.959574 
L 319.612358 133.959574 
L 319.612358 133.442952 
L 325.569329 133.442952 
L 325.569329 132.92633 
L 358.8 132.92633 
L 358.8 132.92633 
" style="fill:none;stroke:#ffa500;stroke-linecap:square;stroke-width:1.5;"/>
   </g>
   <g id="line2d_35">
    <defs>
     <path d="M 0 -6 
L -1.347084 -1.854102 
L -5.706339 -1.854102 
L -2.179628 0.708204 
L -3.526712 4.854102 
L -0 2.291796 
L 3.526712 4.854102 
L 2.179628 0.708204 
L 5.706339 -1.854102 
L 1.347084 -1.854102 
z
" id="mda668e6e08" style="stroke:#ffa500;stroke-linejoin:bevel;stroke-width:1.5;"/>
    </defs>
    <g>
     <use style="fill:none;stroke:#ffa500;stroke-linejoin:bevel;stroke-width:1.5;" x="226.314526" xlink:href="#mda668e6e08" y="242.966819"/>
     <use style="fill:none;stroke:#ffa500;stroke-linejoin:bevel;stroke-width:1.5;" x="249.595162" xlink:href="#mda668e6e08" y="188.204886"/>
     <use style="fill:none;stroke:#ffa500;stroke-linejoin:bevel;stroke-width:1.5;" x="300.843694" xlink:href="#mda668e6e08" y="134.992818"/>
     <use style="fill:none;stroke:#ffa500;stroke-linejoin:bevel;stroke-width:1.5;" x="325.569329" xlink:href="#mda668e6e08" y="132.92633"/>
     <use style="fill:none;stroke:#ffa500;stroke-linejoin:bevel;stroke-width:1.5;" x="358.8" xlink:href="#mda668e6e08" y="132.92633"/>
    </g>
   </g>
   <g id="line2d_36"/>
   <g id="line2d_37">
    <path clip-path="url(#pede648b712)" d="M 273.743702 142.225526 
" style="fill:none;stroke:#ffa500;stroke-linecap:square;stroke-width:1.5;"/>
    <defs>
     <path d="M -12 12 
L 12 -12 
M -12 -12 
L 12 12 
" id="mca9ca3cbbe" style="stroke:#ffa500;stroke-width:3;"/>
    </defs>
    <g clip-path="url(#pede648b712)">
     <use style="fill:#ffa500;stroke:#ffa500;stroke-width:3;" x="273.743702" xlink:href="#mca9ca3cbbe" y="142.225526"/>
    </g>
   </g>
   <g id="line2d_38">
    <defs>
     <path d="M 0 1.5 
C 0.397805 1.5 0.77937 1.341951 1.06066 1.06066 
C 1.341951 0.77937 1.5 0.397805 1.5 0 
C 1.5 -0.397805 1.341951 -0.77937 1.06066 -1.06066 
C 0.77937 -1.341951 0.397805 -1.5 0 -1.5 
C -0.397805 -1.5 -0.77937 -1.341951 -1.06066 -1.06066 
C -1.341951 -0.77937 -1.5 -0.397805 -1.5 0 
C -1.5 0.397805 -1.341951 0.77937 -1.06066 1.06066 
C -0.77937 1.341951 -0.397805 1.5 0 1.5 
z
" id="mc4576a37af" style="stroke:#6495ed;"/>
    </defs>
    <g>
     <use style="fill:#6495ed;stroke:#6495ed;" x="312.261311" xlink:href="#mc4576a37af" y="138.09255"/>
     <use style="fill:#6495ed;stroke:#6495ed;" x="312.261311" xlink:href="#mc4576a37af" y="138.09255"/>
    </g>
   </g>
   <g id="line2d_39">
    <path d="M 159.884338 298.245375 
L 159.884338 297.212131 
L 161.766321 297.212131 
L 161.766321 296.695509 
L 162.951764 296.695509 
L 162.951764 295.662265 
L 164.474318 295.662265 
L 164.493201 293.595777 
L 164.66693 293.595777 
L 164.66693 293.079155 
L 169.336185 293.079155 
L 169.336185 292.045911 
L 170.138274 292.045911 
L 170.20009 290.496045 
L 170.763629 290.496045 
L 170.763629 289.462801 
L 171.562664 289.462801 
L 171.562664 288.946179 
L 172.165456 288.946179 
L 172.165456 287.396313 
L 173.241114 287.396313 
L 173.241114 286.879691 
L 174.66888 286.879691 
L 174.66888 286.363069 
L 174.788613 286.363069 
L 174.788613 285.846447 
L 175.223484 285.846447 
L 175.326708 284.813203 
L 175.650549 284.813203 
L 175.650549 283.779959 
L 176.077516 283.779959 
L 176.077516 283.263337 
L 177.217277 283.263337 
L 177.325744 282.230093 
L 177.633685 282.230093 
L 177.676602 281.196849 
L 180.401954 281.196849 
L 180.401954 280.680226 
L 181.755568 280.680226 
L 181.755568 280.163604 
L 192.132273 280.163604 
L 192.132273 279.646982 
L 192.478503 279.646982 
L 192.478503 279.13036 
L 199.982949 279.13036 
L 199.982949 277.580494 
L 204.409183 277.580494 
L 204.409183 277.063872 
L 211.453338 277.063872 
L 211.453338 275.514006 
L 212.68359 275.514006 
L 212.68359 274.997384 
L 212.883787 274.997384 
L 212.883787 274.480762 
L 213.240311 274.480762 
L 213.240311 273.96414 
L 213.707977 273.96414 
L 213.707977 273.447518 
L 214.152879 273.447518 
L 214.152879 272.930896 
L 214.719427 272.930896 
L 214.719427 272.414274 
L 214.863017 272.414274 
L 214.878775 270.864408 
L 215.363531 270.864408 
L 215.363531 270.347786 
L 215.714564 270.347786 
L 215.714564 269.831164 
L 216.252882 269.831164 
L 216.252882 269.314542 
L 217.732094 269.314542 
L 217.732094 268.79792 
L 217.930234 268.79792 
L 217.930234 268.281298 
L 218.205532 268.281298 
L 218.205532 267.248054 
L 218.593101 267.248054 
L 218.593101 266.731432 
L 218.956105 266.731432 
L 218.956105 266.21481 
L 219.241951 266.21481 
L 219.241951 265.698188 
L 219.528718 265.698188 
L 219.531753 263.6317 
L 219.689313 263.6317 
L 219.689313 262.598456 
L 219.936013 262.598456 
L 219.936013 262.081834 
L 220.918404 262.081834 
L 220.976084 261.04859 
L 221.472806 261.04859 
L 221.472806 260.531968 
L 221.641203 260.531968 
L 221.645056 258.982102 
L 221.951927 258.982102 
L 222.024671 257.432236 
L 222.113263 257.432236 
L 222.113263 256.915614 
L 222.763968 256.915614 
L 222.763968 256.398992 
L 223.255394 256.398992 
L 223.325134 255.365748 
L 223.427754 255.365748 
L 223.516957 254.332504 
L 223.626588 254.332504 
L 223.672385 252.266016 
L 223.822552 252.266016 
L 223.822552 251.749394 
L 226.675121 251.749394 
L 226.675121 251.232772 
L 226.947458 251.232772 
L 226.947458 250.71615 
L 227.559564 250.71615 
L 227.559564 250.199528 
L 227.733154 250.199528 
L 227.733154 249.682906 
L 228.208847 249.682906 
L 228.304236 248.13304 
L 228.883853 248.13304 
L 228.956536 246.583173 
L 229.810692 246.583173 
L 229.810692 245.549929 
L 230.19723 245.549929 
L 230.19723 245.033307 
L 230.371814 245.033307 
L 230.371814 244.516685 
L 230.501465 244.516685 
L 230.501465 244.000063 
L 230.775551 244.000063 
L 230.780866 242.450197 
L 230.889922 242.450197 
L 230.961533 240.900331 
L 231.142883 240.900331 
L 231.142883 239.867087 
L 232.121225 239.867087 
L 232.166711 237.800599 
L 232.283481 237.800599 
L 232.326015 236.250733 
L 232.522303 236.250733 
L 232.522303 235.217489 
L 232.724231 235.217489 
L 232.724231 234.700867 
L 232.934349 234.700867 
L 232.934349 234.184245 
L 233.222209 234.184245 
L 233.222209 233.151001 
L 233.334504 233.151001 
L 233.334504 232.634379 
L 233.678713 232.634379 
L 233.678713 231.601135 
L 234.617431 231.601135 
L 234.629169 230.051269 
L 235.154177 230.051269 
L 235.154177 229.534647 
L 236.716192 229.534647 
L 236.716192 228.501403 
L 237.291676 228.501403 
L 237.291676 227.468159 
L 237.497656 227.468159 
L 237.511214 226.434915 
L 238.182668 226.434915 
L 238.182668 225.401671 
L 238.387818 225.401671 
L 238.494355 224.368427 
L 239.226876 224.368427 
L 239.226876 223.335183 
L 239.449479 223.335183 
L 239.512655 221.268695 
L 240.512793 221.268695 
L 240.60275 219.718829 
L 240.650485 219.718829 
L 240.669158 218.168963 
L 240.927572 218.168963 
L 241.027713 216.619097 
L 241.064455 216.619097 
L 241.064455 215.585853 
L 242.070358 215.585853 
L 242.070358 215.069231 
L 242.267918 215.069231 
L 242.267918 214.552609 
L 242.425853 214.552609 
L 242.425853 214.035987 
L 242.728956 214.035987 
L 242.728956 213.519365 
L 242.890102 213.519365 
L 242.890102 213.002743 
L 243.038583 213.002743 
L 243.038583 212.48612 
L 243.402198 212.48612 
L 243.402198 211.452876 
L 243.697668 211.452876 
L 243.775035 209.386388 
L 243.962001 209.386388 
L 243.962001 208.353144 
L 244.160694 208.353144 
L 244.160694 207.836522 
L 244.672432 207.836522 
L 244.672432 207.3199 
L 245.180037 207.3199 
L 245.180037 206.803278 
L 245.882306 206.803278 
L 245.924673 205.253412 
L 246.334009 205.253412 
L 246.427125 204.220168 
L 246.737063 204.220168 
L 246.737063 203.703546 
L 247.251929 203.703546 
L 247.30758 202.15368 
L 247.779519 202.15368 
L 247.82381 201.120436 
L 248.530162 201.120436 
L 248.530162 200.603814 
L 248.920199 200.603814 
L 248.920199 200.087192 
L 249.122999 200.087192 
L 249.233025 196.470838 
L 249.343399 196.470838 
L 249.343399 195.954216 
L 250.375616 195.954216 
L 250.375616 194.920972 
L 250.802797 194.920972 
L 250.850723 193.887728 
L 251.082435 193.887728 
L 251.180438 192.337862 
L 251.193747 192.337862 
L 251.193747 191.82124 
L 251.36251 191.82124 
L 251.36251 191.304618 
L 251.55214 191.304618 
L 251.55214 190.271374 
L 252.156521 190.271374 
L 252.156521 189.754752 
L 252.425915 189.754752 
L 252.425915 188.721508 
L 252.570248 188.721508 
L 252.570248 188.204886 
L 252.961565 188.204886 
L 252.980449 187.171642 
L 253.283552 187.171642 
L 253.283552 186.138398 
L 253.416527 186.138398 
L 253.416527 185.105154 
L 253.572988 185.105154 
L 253.572988 184.588532 
L 253.754679 184.588532 
L 253.754679 184.07191 
L 253.970701 184.07191 
L 253.970701 183.555288 
L 254.272675 183.555288 
L 254.272675 183.038666 
L 254.719168 183.038666 
L 254.719168 182.005422 
L 254.918579 182.005422 
L 254.92187 180.972178 
L 255.116203 180.972178 
L 255.116203 180.455556 
L 255.43225 180.455556 
L 255.465302 179.422312 
L 257.325513 179.422312 
L 257.325513 178.90569 
L 257.443158 178.90569 
L 257.443158 178.389067 
L 258.005192 178.389067 
L 258.005192 177.872445 
L 258.189057 177.872445 
L 258.189057 177.355823 
L 258.604572 177.355823 
L 258.604572 176.839201 
L 259.014569 176.839201 
L 259.014569 176.322579 
L 259.157543 176.322579 
L 259.157543 175.805957 
L 259.730359 175.805957 
L 259.730359 174.772713 
L 259.955592 174.772713 
L 260.061802 173.739469 
L 260.229904 173.739469 
L 260.229904 172.706225 
L 261.889869 172.706225 
L 261.889869 172.189603 
L 262.075198 172.189603 
L 262.075198 171.156359 
L 262.227746 171.156359 
L 262.227746 170.639737 
L 262.391158 170.639737 
L 262.391158 170.123115 
L 263.12989 170.123115 
L 263.196919 168.573249 
L 263.576346 168.573249 
L 263.576346 168.056627 
L 264.734433 168.056627 
L 264.734433 167.540005 
L 265.564816 167.540005 
L 265.564816 167.023383 
L 265.887451 167.023383 
L 265.906517 165.473517 
L 266.210552 165.473517 
L 266.210552 164.440273 
L 266.335859 164.440273 
L 266.335859 163.923651 
L 267.18631 163.923651 
L 267.18631 163.407029 
L 267.811102 163.407029 
L 267.811102 161.857163 
L 268.731213 161.857163 
L 268.731213 161.340541 
L 269.04067 161.340541 
L 269.04067 160.823919 
L 269.393288 160.823919 
L 269.393288 160.307297 
L 269.819649 160.307297 
L 269.819649 159.274053 
L 271.414072 159.274053 
L 271.414072 158.757431 
L 271.651549 158.757431 
L 271.651549 158.240809 
L 271.813695 158.240809 
L 271.82795 157.207565 
L 272.051586 157.207565 
L 272.089256 155.141077 
L 272.187694 155.141077 
L 272.187694 154.624455 
L 273.255603 154.624455 
L 273.255603 154.107833 
L 273.727712 154.107833 
L 273.727712 153.591211 
L 274.083851 153.591211 
L 274.083851 153.074589 
L 274.440767 153.074589 
L 274.440767 152.041345 
L 274.655718 152.041345 
L 274.655718 151.524723 
L 274.962301 151.524723 
L 274.962301 151.008101 
L 275.291134 151.008101 
L 275.291134 150.491479 
L 279.782315 150.491479 
L 279.782315 149.974857 
L 283.037289 149.974857 
L 283.037289 149.458235 
L 284.337241 149.458235 
L 284.337241 148.941613 
L 285.370036 148.941613 
L 285.376713 147.908369 
L 285.522278 147.908369 
L 285.522278 147.391747 
L 286.466126 147.391747 
L 286.527941 146.358503 
L 286.669697 146.358503 
L 286.669697 145.841881 
L 291.57345 145.841881 
L 291.655301 144.808637 
L 292.451233 144.808637 
L 292.451233 144.292014 
L 292.629693 144.292014 
L 292.629693 143.775392 
L 293.071497 143.775392 
L 293.071497 143.25877 
L 295.492155 143.25877 
L 295.492155 142.742148 
L 296.056771 142.742148 
L 296.151143 141.708904 
L 300.272646 141.708904 
L 300.272646 141.192282 
L 300.985136 141.192282 
L 300.985136 140.67566 
L 303.299329 140.67566 
L 303.299329 140.159038 
L 304.77054 140.159038 
L 304.77054 139.642416 
L 308.037673 139.642416 
L 308.037673 139.125794 
L 309.329243 139.125794 
L 309.329243 138.609172 
L 312.261311 138.609172 
L 312.261311 138.09255 
L 358.8 138.09255 
L 358.8 138.09255 
" style="fill:none;stroke:#6495ed;stroke-linecap:square;stroke-width:1.5;"/>
   </g>
   <g id="line2d_40">
    <defs>
     <path d="M -0 6 
L 6 -6 
L -6 -6 
z
" id="m9b6b7bbe9b" style="stroke:#6495ed;stroke-linejoin:miter;stroke-width:1.5;"/>
    </defs>
    <g>
     <use style="fill:none;stroke:#6495ed;stroke-linejoin:miter;stroke-width:1.5;" x="181.755568" xlink:href="#m9b6b7bbe9b" y="280.680226"/>
     <use style="fill:none;stroke:#6495ed;stroke-linejoin:miter;stroke-width:1.5;" x="233.334504" xlink:href="#m9b6b7bbe9b" y="232.634379"/>
     <use style="fill:none;stroke:#6495ed;stroke-linejoin:miter;stroke-width:1.5;" x="273.255603" xlink:href="#m9b6b7bbe9b" y="154.624455"/>
     <use style="fill:none;stroke:#6495ed;stroke-linejoin:miter;stroke-width:1.5;" x="312.261311" xlink:href="#m9b6b7bbe9b" y="138.09255"/>
     <use style="fill:none;stroke:#6495ed;stroke-linejoin:miter;stroke-width:1.5;" x="358.8" xlink:href="#m9b6b7bbe9b" y="138.09255"/>
    </g>
   </g>
   <g id="line2d_41"/>
   <g id="line2d_42">
    <path clip-path="url(#pede648b712)" d="M 273.029044 154.624455 
" style="fill:none;stroke:#6495ed;stroke-linecap:square;stroke-width:1.5;"/>
    <defs>
     <path d="M -12 12 
L 12 -12 
M -12 -12 
L 12 12 
" id="mb0a8d083a6" style="stroke:#6495ed;stroke-width:3;"/>
    </defs>
    <g clip-path="url(#pede648b712)">
     <use style="fill:#6495ed;stroke:#6495ed;stroke-width:3;" x="273.029044" xlink:href="#mb0a8d083a6" y="154.624455"/>
    </g>
   </g>
   <g id="line2d_43">
    <defs>
     <path d="M 0 1.5 
C 0.397805 1.5 0.77937 1.341951 1.06066 1.06066 
C 1.341951 0.77937 1.5 0.397805 1.5 0 
C 1.5 -0.397805 1.341951 -0.77937 1.06066 -1.06066 
C 0.77937 -1.341951 0.397805 -1.5 0 -1.5 
C -0.397805 -1.5 -0.77937 -1.341951 -1.06066 -1.06066 
C -1.341951 -0.77937 -1.5 -0.397805 -1.5 0 
C -1.5 0.397805 -1.341951 0.77937 -1.06066 1.06066 
C -0.77937 1.341951 -0.397805 1.5 0 1.5 
z
" id="m6d7e5b4fc1" style="stroke:#ff0000;"/>
    </defs>
    <g>
     <use style="fill:#ff0000;stroke:#ff0000;" x="205.360281" xlink:href="#m6d7e5b4fc1" y="34.768147"/>
     <use style="fill:#ff0000;stroke:#ff0000;" x="205.360281" xlink:href="#m6d7e5b4fc1" y="34.768147"/>
    </g>
   </g>
   <g id="line2d_44">
    <path d="M 142.484528 298.245375 
L 142.484528 297.212131 
L 142.72545 297.212131 
L 142.72545 296.178887 
L 142.852626 296.178887 
L 142.852626 295.662265 
L 143.026028 295.662265 
L 143.026028 295.145643 
L 145.069477 295.145643 
L 145.069477 294.629021 
L 145.264303 294.629021 
L 145.264303 294.112399 
L 147.078949 294.112399 
L 147.078949 293.595777 
L 148.885106 293.595777 
L 148.885106 293.079155 
L 149.098559 293.079155 
L 149.098559 292.562533 
L 150.234283 292.562533 
L 150.234283 292.045911 
L 151.683027 292.045911 
L 151.683027 291.529289 
L 152.1692 291.529289 
L 152.1692 291.012667 
L 153.174832 291.012667 
L 153.174832 290.496045 
L 153.622546 290.496045 
L 153.622546 289.462801 
L 154.853585 289.462801 
L 154.910142 287.396313 
L 157.335379 287.396313 
L 157.335379 286.879691 
L 158.039701 286.879691 
L 158.039701 285.846447 
L 158.228284 285.846447 
L 158.228284 284.813203 
L 159.432896 284.813203 
L 159.432896 284.296581 
L 161.128506 284.296581 
L 161.128506 283.779959 
L 161.483794 283.779959 
L 161.483794 283.263337 
L 163.156324 283.263337 
L 163.156324 282.746715 
L 163.493801 282.746715 
L 163.493801 282.230093 
L 163.657707 282.230093 
L 163.657707 281.713471 
L 163.785794 281.713471 
L 163.815223 280.680226 
L 164.880588 280.680226 
L 164.880588 279.646982 
L 165.670842 279.646982 
L 165.670842 279.13036 
L 166.167453 279.13036 
L 166.167453 278.613738 
L 167.952687 278.613738 
L 168.053483 277.063872 
L 168.314449 277.063872 
L 168.371505 276.030628 
L 168.590424 276.030628 
L 168.590424 275.514006 
L 169.03502 275.514006 
L 169.133547 274.480762 
L 170.090047 274.480762 
L 170.090047 273.447518 
L 170.206945 273.447518 
L 170.206945 272.930896 
L 170.55984 272.930896 
L 170.650329 271.38103 
L 171.438347 271.38103 
L 171.438347 270.864408 
L 171.714492 270.864408 
L 171.755391 269.831164 
L 172.208401 269.831164 
L 172.208401 269.314542 
L 172.902483 269.314542 
L 172.902483 268.79792 
L 173.272895 268.79792 
L 173.272895 267.764676 
L 173.516588 267.764676 
L 173.587634 265.698188 
L 173.924778 265.698188 
L 173.924778 264.664944 
L 174.391766 264.664944 
L 174.445912 262.598456 
L 174.618084 262.598456 
L 174.714207 261.565212 
L 174.894373 261.565212 
L 174.939132 258.46548 
L 175.023082 258.46548 
L 175.119659 255.88237 
L 175.135272 255.88237 
L 175.135272 255.365748 
L 175.27259 255.365748 
L 175.336998 254.332504 
L 175.439571 254.332504 
L 175.493187 252.782638 
L 175.6202 252.782638 
L 175.6202 252.266016 
L 175.844073 252.266016 
L 175.911439 250.199528 
L 175.966142 250.199528 
L 175.966142 246.066551 
L 176.397843 246.066551 
L 176.484875 232.634379 
L 176.545065 232.634379 
L 176.552275 231.084513 
L 176.657677 231.084513 
L 176.657677 230.567891 
L 176.833555 230.567891 
L 176.918496 214.035987 
L 177.024107 214.035987 
L 177.059172 211.969498 
L 177.201066 211.969498 
L 177.275054 210.419632 
L 177.540722 210.419632 
L 177.615584 198.537326 
L 177.824886 198.537326 
L 177.891883 190.271374 
L 177.960851 190.271374 
L 177.960851 189.754752 
L 178.148601 189.754752 
L 178.148601 188.204886 
L 178.316994 188.204886 
L 178.316994 176.322579 
L 178.546241 176.322579 
L 178.546241 175.805957 
L 179.555134 175.805957 
L 179.660432 173.739469 
L 179.666488 173.739469 
L 179.666488 164.440273 
L 179.920992 164.440273 
L 179.996444 148.941613 
L 180.034051 148.941613 
L 180.034051 147.391747 
L 180.39808 147.391747 
L 180.39808 146.358503 
L 180.756739 146.358503 
L 180.771923 144.808637 
L 181.128809 144.808637 
L 181.128809 131.376464 
L 181.396453 131.376464 
L 181.396453 129.826598 
L 181.54242 129.826598 
L 181.54242 129.309976 
L 190.173164 129.309976 
L 190.173164 123.627134 
L 190.353855 123.627134 
L 190.353855 123.110512 
L 190.992615 123.110512 
L 190.992615 122.59389 
L 191.614497 122.59389 
L 191.614497 120.01078 
L 192.016367 120.01078 
L 192.018389 106.061985 
L 192.165394 106.061985 
L 192.165394 103.995497 
L 192.310206 103.995497 
L 192.343992 102.445631 
L 192.553232 102.445631 
L 192.558138 99.862521 
L 192.693973 99.862521 
L 192.768778 86.430349 
L 193.14577 86.430349 
L 193.251768 84.880483 
L 193.327097 84.880483 
L 193.327097 70.415066 
L 199.20083 70.415066 
L 199.20083 59.566004 
L 199.783078 59.566004 
L 199.783078 59.049382 
L 199.90639 59.049382 
L 199.90639 58.016138 
L 200.402687 58.016138 
L 200.402687 44.583966 
L 200.656363 44.583966 
L 200.656363 44.067344 
L 205.360281 44.067344 
L 205.360281 34.768147 
L 358.8 34.768147 
L 358.8 34.768147 
" style="fill:none;stroke:#ff0000;stroke-linecap:square;stroke-width:1.5;"/>
   </g>
   <g id="line2d_45">
    <defs>
     <path d="M 0 -6 
L -5.196152 -3 
L -5.196152 3 
L -0 6 
L 5.196152 3 
L 5.196152 -3 
z
" id="me5996c8245" style="stroke:#ff0000;stroke-linejoin:miter;stroke-width:1.5;"/>
    </defs>
    <g>
     <use style="fill:none;stroke:#ff0000;stroke-linejoin:miter;stroke-width:1.5;" x="179.976619" xlink:href="#me5996c8245" y="149.974857"/>
     <use style="fill:none;stroke:#ff0000;stroke-linejoin:miter;stroke-width:1.5;" x="200.656363" xlink:href="#me5996c8245" y="44.067344"/>
     <use style="fill:none;stroke:#ff0000;stroke-linejoin:miter;stroke-width:1.5;" x="205.360281" xlink:href="#me5996c8245" y="34.768147"/>
     <use style="fill:none;stroke:#ff0000;stroke-linejoin:miter;stroke-width:1.5;" x="205.360281" xlink:href="#me5996c8245" y="34.768147"/>
     <use style="fill:none;stroke:#ff0000;stroke-linejoin:miter;stroke-width:1.5;" x="358.8" xlink:href="#me5996c8245" y="34.768147"/>
    </g>
   </g>
   <g id="line2d_46"/>
   <g id="line2d_47">
    <path d="M 358.8 174.256091 
L 390.48 292.97583 
" style="fill:none;stroke:#ff00ff;stroke-linecap:square;stroke-width:1.5;"/>
    <g>
     <use style="fill:none;stroke:#ff00ff;stroke-linejoin:miter;stroke-width:1.5;" x="358.8" xlink:href="#mb2abe3fd3f" y="174.256091"/>
     <use style="fill:none;stroke:#ff00ff;stroke-linejoin:miter;stroke-width:1.5;" x="390.48" xlink:href="#mb2abe3fd3f" y="292.97583"/>
    </g>
   </g>
   <g id="line2d_48">
    <path d="M 358.8 138.09255 
L 390.48 229.741296 
" style="fill:none;stroke:#6495ed;stroke-linecap:square;stroke-width:1.5;"/>
    <g>
     <use style="fill:none;stroke:#6495ed;stroke-linejoin:miter;stroke-width:1.5;" x="358.8" xlink:href="#m9b6b7bbe9b" y="138.09255"/>
     <use style="fill:none;stroke:#6495ed;stroke-linejoin:miter;stroke-width:1.5;" x="390.48" xlink:href="#m9b6b7bbe9b" y="229.741296"/>
    </g>
   </g>
   <g id="line2d_49">
    <path d="M 358.8 132.92633 
L 390.48 166.506761 
" style="fill:none;stroke:#ffa500;stroke-linecap:square;stroke-width:1.5;"/>
    <g>
     <use style="fill:none;stroke:#ffa500;stroke-linejoin:bevel;stroke-width:1.5;" x="358.8" xlink:href="#mda668e6e08" y="132.92633"/>
     <use style="fill:none;stroke:#ffa500;stroke-linejoin:bevel;stroke-width:1.5;" x="390.48" xlink:href="#mda668e6e08" y="166.506761"/>
    </g>
   </g>
   <g id="line2d_50">
    <path d="M 358.8 55.433028 
L 390.48 103.272226 
" style="fill:none;stroke:#000080;stroke-linecap:square;stroke-width:1.5;"/>
    <g>
     <use style="fill:none;stroke:#000080;stroke-width:1.5;" x="358.8" xlink:href="#mcf10d90782" y="55.433028"/>
     <use style="fill:none;stroke:#000080;stroke-width:1.5;" x="390.48" xlink:href="#mcf10d90782" y="103.272226"/>
    </g>
   </g>
   <g id="line2d_51">
    <path d="M 358.8 34.768147 
L 390.48 40.037692 
" style="fill:none;stroke:#ff0000;stroke-linecap:square;stroke-width:1.5;"/>
    <g>
     <use style="fill:none;stroke:#ff0000;stroke-linejoin:miter;stroke-width:1.5;" x="358.8" xlink:href="#me5996c8245" y="34.768147"/>
     <use style="fill:none;stroke:#ff0000;stroke-linejoin:miter;stroke-width:1.5;" x="390.48" xlink:href="#me5996c8245" y="40.037692"/>
    </g>
   </g>
   <g id="line2d_52">
    <path d="M 358.8 298.245375 
L 358.8 34.768147 
" style="fill:none;stroke:#000000;stroke-linecap:square;stroke-width:1.5;"/>
   </g>
   <g id="patch_3">
    <path d="M 70.8 298.245375 
L 70.8 32.133375 
" style="fill:none;stroke:#000000;stroke-linecap:square;stroke-linejoin:miter;stroke-width:0.8;"/>
   </g>
   <g id="patch_4">
    <path d="M 427.92 298.245375 
L 427.92 32.133375 
" style="fill:none;stroke:#000000;stroke-linecap:square;stroke-linejoin:miter;stroke-width:0.8;"/>
   </g>
   <g id="patch_5">
    <path d="M 70.8 298.245375 
L 427.92 298.245375 
" style="fill:none;stroke:#000000;stroke-linecap:square;stroke-linejoin:miter;stroke-width:0.8;"/>
   </g>
   <g id="patch_6">
    <path d="M 70.8 32.133375 
L 427.92 32.133375 
" style="fill:none;stroke:#000000;stroke-linecap:square;stroke-linejoin:miter;stroke-width:0.8;"/>
   </g>
   <g id="text_14">
    <!-- f2 -->
    <g transform="translate(396.24 297.114893)scale(0.15 -0.15)">
     <use xlink:href="#DejaVuSans-66"/>
     <use x="35.205078" xlink:href="#DejaVuSans-32"/>
    </g>
   </g>
   <g id="text_15">
    <!-- f4 -->
    <g transform="translate(396.24 233.880358)scale(0.15 -0.15)">
     <use xlink:href="#DejaVuSans-66"/>
     <use x="35.205078" xlink:href="#DejaVuSans-34"/>
    </g>
   </g>
   <g id="text_16">
    <!-- f3 -->
    <defs>
     <path d="M 40.578125 39.3125 
Q 47.65625 37.796875 51.625 33 
Q 55.609375 28.21875 55.609375 21.1875 
Q 55.609375 10.40625 48.1875 4.484375 
Q 40.765625 -1.421875 27.09375 -1.421875 
Q 22.515625 -1.421875 17.65625 -0.515625 
Q 12.796875 0.390625 7.625 2.203125 
L 7.625 11.71875 
Q 11.71875 9.328125 16.59375 8.109375 
Q 21.484375 6.890625 26.8125 6.890625 
Q 36.078125 6.890625 40.9375 10.546875 
Q 45.796875 14.203125 45.796875 21.1875 
Q 45.796875 27.640625 41.28125 31.265625 
Q 36.765625 34.90625 28.71875 34.90625 
L 20.21875 34.90625 
L 20.21875 43.015625 
L 29.109375 43.015625 
Q 36.375 43.015625 40.234375 45.921875 
Q 44.09375 48.828125 44.09375 54.296875 
Q 44.09375 59.90625 40.109375 62.90625 
Q 36.140625 65.921875 28.71875 65.921875 
Q 24.65625 65.921875 20.015625 65.03125 
Q 15.375 64.15625 9.8125 62.3125 
L 9.8125 71.09375 
Q 15.4375 72.65625 20.34375 73.4375 
Q 25.25 74.21875 29.59375 74.21875 
Q 40.828125 74.21875 47.359375 69.109375 
Q 53.90625 64.015625 53.90625 55.328125 
Q 53.90625 49.265625 50.4375 45.09375 
Q 46.96875 40.921875 40.578125 39.3125 
z
" id="DejaVuSans-33"/>
    </defs>
    <g transform="translate(396.24 170.645824)scale(0.15 -0.15)">
     <use xlink:href="#DejaVuSans-66"/>
     <use x="35.205078" xlink:href="#DejaVuSans-33"/>
    </g>
   </g>
   <g id="text_17">
    <!-- f1 -->
    <g transform="translate(396.24 107.411289)scale(0.15 -0.15)">
     <use xlink:href="#DejaVuSans-66"/>
     <use x="35.205078" xlink:href="#DejaVuSans-31"/>
    </g>
   </g>
   <g id="text_18">
    <!-- f5 -->
    <defs>
     <path d="M 10.796875 72.90625 
L 49.515625 72.90625 
L 49.515625 64.59375 
L 19.828125 64.59375 
L 19.828125 46.734375 
Q 21.96875 47.46875 24.109375 47.828125 
Q 26.265625 48.1875 28.421875 48.1875 
Q 40.625 48.1875 47.75 41.5 
Q 54.890625 34.8125 54.890625 23.390625 
Q 54.890625 11.625 47.5625 5.09375 
Q 40.234375 -1.421875 26.90625 -1.421875 
Q 22.3125 -1.421875 17.546875 -0.640625 
Q 12.796875 0.140625 7.71875 1.703125 
L 7.71875 11.625 
Q 12.109375 9.234375 16.796875 8.0625 
Q 21.484375 6.890625 26.703125 6.890625 
Q 35.15625 6.890625 40.078125 11.328125 
Q 45.015625 15.765625 45.015625 23.390625 
Q 45.015625 31 40.078125 35.4375 
Q 35.15625 39.890625 26.703125 39.890625 
Q 22.75 39.890625 18.8125 39.015625 
Q 14.890625 38.140625 10.796875 36.28125 
z
" id="DejaVuSans-35"/>
    </defs>
    <g transform="translate(396.24 44.176754)scale(0.15 -0.15)">
     <use xlink:href="#DejaVuSans-66"/>
     <use x="35.205078" xlink:href="#DejaVuSans-35"/>
    </g>
   </g>
   <g id="text_19">
    <!-- bbob -->
    <defs>
     <path d="M 48.6875 27.296875 
Q 48.6875 37.203125 44.609375 42.84375 
Q 40.53125 48.484375 33.40625 48.484375 
Q 26.265625 48.484375 22.1875 42.84375 
Q 18.109375 37.203125 18.109375 27.296875 
Q 18.109375 17.390625 22.1875 11.75 
Q 26.265625 6.109375 33.40625 6.109375 
Q 40.53125 6.109375 44.609375 11.75 
Q 48.6875 17.390625 48.6875 27.296875 
z
M 18.109375 46.390625 
Q 20.953125 51.265625 25.265625 53.625 
Q 29.59375 56 35.59375 56 
Q 45.5625 56 51.78125 48.09375 
Q 58.015625 40.1875 58.015625 27.296875 
Q 58.015625 14.40625 51.78125 6.484375 
Q 45.5625 -1.421875 35.59375 -1.421875 
Q 29.59375 -1.421875 25.265625 0.953125 
Q 20.953125 3.328125 18.109375 8.203125 
L 18.109375 0 
L 9.078125 0 
L 9.078125 75.984375 
L 18.109375 75.984375 
z
" id="DejaVuSans-62"/>
    </defs>
    <g transform="translate(74.3712 50.114612)scale(0.1666 -0.1666)">
     <use xlink:href="#DejaVuSans-62"/>
     <use x="63.476562" xlink:href="#DejaVuSans-62"/>
     <use x="126.953125" xlink:href="#DejaVuSans-6f"/>
     <use x="188.134766" xlink:href="#DejaVuSans-62"/>
    </g>
    <!-- Separable functions, 20-D -->
    <defs>
     <path d="M 53.515625 70.515625 
L 53.515625 60.890625 
Q 47.90625 63.578125 42.921875 64.890625 
Q 37.9375 66.21875 33.296875 66.21875 
Q 25.25 66.21875 20.875 63.09375 
Q 16.5 59.96875 16.5 54.203125 
Q 16.5 49.359375 19.40625 46.890625 
Q 22.3125 44.4375 30.421875 42.921875 
L 36.375 41.703125 
Q 47.40625 39.59375 52.65625 34.296875 
Q 57.90625 29 57.90625 20.125 
Q 57.90625 9.515625 50.796875 4.046875 
Q 43.703125 -1.421875 29.984375 -1.421875 
Q 24.8125 -1.421875 18.96875 -0.25 
Q 13.140625 0.921875 6.890625 3.21875 
L 6.890625 13.375 
Q 12.890625 10.015625 18.65625 8.296875 
Q 24.421875 6.59375 29.984375 6.59375 
Q 38.421875 6.59375 43.015625 9.90625 
Q 47.609375 13.234375 47.609375 19.390625 
Q 47.609375 24.75 44.3125 27.78125 
Q 41.015625 30.8125 33.5 32.328125 
L 27.484375 33.5 
Q 16.453125 35.6875 11.515625 40.375 
Q 6.59375 45.0625 6.59375 53.421875 
Q 6.59375 63.09375 13.40625 68.65625 
Q 20.21875 74.21875 32.171875 74.21875 
Q 37.3125 74.21875 42.625 73.28125 
Q 47.953125 72.359375 53.515625 70.515625 
z
" id="DejaVuSans-53"/>
     <path d="M 11.71875 12.40625 
L 22.015625 12.40625 
L 22.015625 4 
L 14.015625 -11.625 
L 7.71875 -11.625 
L 11.71875 4 
z
" id="DejaVuSans-2c"/>
     <path d="M 19.671875 64.796875 
L 19.671875 8.109375 
L 31.59375 8.109375 
Q 46.6875 8.109375 53.6875 14.9375 
Q 60.6875 21.78125 60.6875 36.53125 
Q 60.6875 51.171875 53.6875 57.984375 
Q 46.6875 64.796875 31.59375 64.796875 
z
M 9.8125 72.90625 
L 30.078125 72.90625 
Q 51.265625 72.90625 61.171875 64.09375 
Q 71.09375 55.28125 71.09375 36.53125 
Q 71.09375 17.671875 61.125 8.828125 
Q 51.171875 0 30.078125 0 
L 9.8125 0 
z
" id="DejaVuSans-44"/>
    </defs>
    <g transform="translate(74.3712 68.770168)scale(0.1666 -0.1666)">
     <use xlink:href="#DejaVuSans-53"/>
     <use x="63.476562" xlink:href="#DejaVuSans-65"/>
     <use x="125" xlink:href="#DejaVuSans-70"/>
     <use x="188.476562" xlink:href="#DejaVuSans-61"/>
     <use x="249.755859" xlink:href="#DejaVuSans-72"/>
     <use x="290.869141" xlink:href="#DejaVuSans-61"/>
     <use x="352.148438" xlink:href="#DejaVuSans-62"/>
     <use x="415.625" xlink:href="#DejaVuSans-6c"/>
     <use x="443.408203" xlink:href="#DejaVuSans-65"/>
     <use x="504.931641" xlink:href="#DejaVuSans-20"/>
     <use x="536.71875" xlink:href="#DejaVuSans-66"/>
     <use x="571.923828" xlink:href="#DejaVuSans-75"/>
     <use x="635.302734" xlink:href="#DejaVuSans-6e"/>
     <use x="698.681641" xlink:href="#DejaVuSans-63"/>
     <use x="753.662109" xlink:href="#DejaVuSans-74"/>
     <use x="792.871094" xlink:href="#DejaVuSans-69"/>
     <use x="820.654297" xlink:href="#DejaVuSans-6f"/>
     <use x="881.835938" xlink:href="#DejaVuSans-6e"/>
     <use x="945.214844" xlink:href="#DejaVuSans-73"/>
     <use x="997.314453" xlink:href="#DejaVuSans-2c"/>
     <use x="1029.101562" xlink:href="#DejaVuSans-20"/>
     <use x="1060.888672" xlink:href="#DejaVuSans-32"/>
     <use x="1124.511719" xlink:href="#DejaVuSans-30"/>
     <use x="1188.134766" xlink:href="#DejaVuSans-2d"/>
     <use x="1224.21875" xlink:href="#DejaVuSans-44"/>
    </g>
    <!-- 51 targets in 100..1e-08 -->
    <g transform="translate(74.3712 87.425723)scale(0.1666 -0.1666)">
     <use xlink:href="#DejaVuSans-35"/>
     <use x="63.623047" xlink:href="#DejaVuSans-31"/>
     <use x="127.246094" xlink:href="#DejaVuSans-20"/>
     <use x="159.033203" xlink:href="#DejaVuSans-74"/>
     <use x="198.242188" xlink:href="#DejaVuSans-61"/>
     <use x="259.521484" xlink:href="#DejaVuSans-72"/>
     <use x="300.619141" xlink:href="#DejaVuSans-67"/>
     <use x="364.095703" xlink:href="#DejaVuSans-65"/>
     <use x="425.619141" xlink:href="#DejaVuSans-74"/>
     <use x="464.828125" xlink:href="#DejaVuSans-73"/>
     <use x="516.927734" xlink:href="#DejaVuSans-20"/>
     <use x="548.714844" xlink:href="#DejaVuSans-69"/>
     <use x="576.498047" xlink:href="#DejaVuSans-6e"/>
     <use x="639.876953" xlink:href="#DejaVuSans-20"/>
     <use x="671.664062" xlink:href="#DejaVuSans-31"/>
     <use x="735.287109" xlink:href="#DejaVuSans-30"/>
     <use x="798.910156" xlink:href="#DejaVuSans-30"/>
     <use x="862.533203" xlink:href="#DejaVuSans-2e"/>
     <use x="894.320312" xlink:href="#DejaVuSans-2e"/>
     <use x="926.107422" xlink:href="#DejaVuSans-31"/>
     <use x="989.730469" xlink:href="#DejaVuSans-65"/>
     <use x="1051.253906" xlink:href="#DejaVuSans-2d"/>
     <use x="1087.337891" xlink:href="#DejaVuSans-30"/>
     <use x="1150.960938" xlink:href="#DejaVuSans-38"/>
    </g>
    <!-- 15 instances -->
    <g transform="translate(74.3712 106.081279)scale(0.1666 -0.1666)">
     <use xlink:href="#DejaVuSans-31"/>
     <use x="63.623047" xlink:href="#DejaVuSans-35"/>
     <use x="127.246094" xlink:href="#DejaVuSans-20"/>
     <use x="159.033203" xlink:href="#DejaVuSans-69"/>
     <use x="186.816406" xlink:href="#DejaVuSans-6e"/>
     <use x="250.195312" xlink:href="#DejaVuSans-73"/>
     <use x="302.294922" xlink:href="#DejaVuSans-74"/>
     <use x="341.503906" xlink:href="#DejaVuSans-61"/>
     <use x="402.783203" xlink:href="#DejaVuSans-6e"/>
     <use x="466.162109" xlink:href="#DejaVuSans-63"/>
     <use x="521.142578" xlink:href="#DejaVuSans-65"/>
     <use x="582.666016" xlink:href="#DejaVuSans-73"/>
    </g>
   </g>
   <g id="text_20">
    <!-- v0.0.0 -->
    <g style="fill:#808080;" transform="translate(233.67875 293.504568)scale(0.1 -0.1)">
     <use xlink:href="#DejaVuSans-76"/>
     <use x="59.179688" xlink:href="#DejaVuSans-30"/>
     <use x="122.802734" xlink:href="#DejaVuSans-2e"/>
     <use x="154.589844" xlink:href="#DejaVuSans-30"/>
     <use x="218.212891" xlink:href="#DejaVuSans-2e"/>
     <use x="250" xlink:href="#DejaVuSans-30"/>
    </g>
   </g>
  </g>
 </g>
 <defs>
  <clipPath id="pede648b712">
   <rect height="266.112" width="357.12" x="70.8" y="32.133375"/>
  </clipPath>
 </defs>
</svg>
